<svg viewBox="0 0 40 40" fill="none" xmlns="http://www.w3.org/2000/svg">
<path d="M19.9998 6C19.6778 6 19.1667 6.0228 18.6434 6.47045L6.28809 17.0436C6.13561 17.1439 6.03329 17.3055 6.00677 17.4874C5.98025 17.6694 6.0324 17.854 6.14974 17.9945C6.26709 18.1349 6.43857 18.2176 6.62022 18.2214C6.80209 18.2254 6.97667 18.1501 7.09998 18.0149L9.22849 16.1925V30.3501C9.22849 30.7041 9.51202 30.9908 9.86204 30.9908L30.1379 31C30.3077 31.0025 30.4712 30.9361 30.5918 30.8156C30.7127 30.6952 30.7806 30.5309 30.7806 30.3592C30.7806 30.1878 30.7127 30.0233 30.5918 29.9029C30.4712 29.7824 30.3077 29.716 30.1379 29.7185L10.4956 29.7093V15.1112L19.4555 7.44165C19.5362 7.37259 20.01 7.28141 20 7.28141C19.9673 7.28141 20.1361 7.28543 20.2674 7.32141C20.3984 7.3574 20.5257 7.42556 20.5445 7.44165L29.5044 15.1112V30.3501C29.5019 30.5217 29.5676 30.6869 29.6867 30.8091C29.8058 30.9314 29.9684 31 30.1379 31C30.3077 31 30.4701 30.9314 30.5892 30.8091C30.7083 30.6869 30.7739 30.5217 30.7715 30.3501V16.1925L32.9 18.0149C33.0233 18.1501 33.1979 18.2254 33.3798 18.2214C33.5614 18.2176 33.7329 18.1349 33.8503 17.9946C33.9676 17.854 34.0198 17.6694 33.9932 17.4875C33.9667 17.3055 33.8644 17.1439 33.7119 17.0436L21.3566 6.47048C21.0974 6.24877 20.8298 6.15468 20.5942 6.0901C20.3586 6.02528 20.1885 6 19.9998 6Z" fill="white"/>
<path d="M30.1379 31L9.86204 30.9908C9.51202 30.9908 9.22849 30.7041 9.22849 30.3501V16.1925L7.09998 18.0149C6.97667 18.1501 6.80209 18.2254 6.62022 18.2214C6.43857 18.2176 6.26709 18.1349 6.14974 17.9945C6.0324 17.854 5.98025 17.6694 6.00677 17.4874C6.03329 17.3055 6.13561 17.1439 6.28809 17.0436L18.6434 6.47045C19.1667 6.0228 19.6778 6 19.9998 6C20.1885 6 20.3586 6.02528 20.5942 6.0901C20.8298 6.15468 21.0974 6.24877 21.3566 6.47048L33.7119 17.0436C33.8644 17.1439 33.9667 17.3055 33.9932 17.4875C34.0197 17.6694 33.9676 17.854 33.8503 17.9946C33.7329 18.1349 33.5614 18.2176 33.3798 18.2214C33.1979 18.2254 33.0233 18.1501 32.9 18.0149L30.7715 16.1925V30.3501C30.7739 30.5217 30.7083 30.6869 30.5892 30.8091C30.4701 30.9314 30.3077 31 30.1379 31ZM30.1379 31C30.3077 31.0025 30.4712 30.9361 30.5918 30.8156C30.7127 30.6952 30.7806 30.5309 30.7806 30.3592C30.7806 30.1878 30.7127 30.0233 30.5918 29.9029C30.4712 29.7824 30.3077 29.716 30.1379 29.7185L10.4956 29.7093V15.1112L19.4555 7.44165C19.5362 7.3726 20.01 7.28141 20 7.28141C19.9673 7.28141 20.1361 7.28543 20.2674 7.32141C20.3984 7.3574 20.5257 7.42556 20.5445 7.44165L29.5044 15.1112V30.3501C29.5019 30.5217 29.5676 30.6869 29.6867 30.8091C29.8058 30.9314 29.9684 31 30.1379 31Z" stroke-width="0.5"/>
</svg>
