<svg viewBox="0 0 40 40" xmlns="http://www.w3.org/2000/svg">
<path fill-rule="evenodd" clip-rule="evenodd" d="M23.0726 6.4274C21.1685 4.5242 18.0816 4.5242 16.1774 6.4274L6.4274 16.1774C4.5242 18.0815 4.5242 21.1684 6.4274 23.0726L16.1774 32.8226C18.0815 34.7258 21.1684 34.7258 23.0726 32.8226L32.8226 23.0726C34.7258 21.1685 34.7258 18.0816 32.8226 16.1774L23.0726 6.4274ZM21.693 7.807L31.443 17.557C32.5858 18.6987 32.5858 20.5512 31.443 21.6929L21.693 31.4429C20.5513 32.5857 18.6988 32.5857 17.5571 31.4429L7.80711 21.6929C6.6643 20.5512 6.6643 18.6987 7.80711 17.557L17.5571 7.807C18.6988 6.66419 20.5513 6.66419 21.693 7.807Z" stroke="white" stroke-width="0.2"/>
<path fill-rule="evenodd" clip-rule="evenodd" d="M15.7246 13.7758V25.4758C15.7246 26.014 16.1614 26.4508 16.6996 26.4508C17.2378 26.4508 17.6746 26.014 17.6746 25.4758V20.5756H21.5883C23.7342 20.5756 25.4746 18.836 25.4746 16.689V16.6871C25.4746 14.5412 23.7342 12.8008 21.5883 12.8008H16.6996C16.1614 12.8008 15.7246 13.2376 15.7246 13.7758V13.7758ZM23.5246 16.6871V16.689C23.5246 17.7587 22.6578 18.6256 21.5883 18.6256H17.6746V14.7508H21.5883C22.6578 14.7508 23.5246 15.6177 23.5246 16.6871V16.6871Z" stroke="white" stroke-width="0.2"/>
</svg>
