<svg viewBox="0 0 40 40" fill="none" xmlns="http://www.w3.org/2000/svg">
<path d="M3 30.465C3.38619 30.9964 3.89756 31.427 4.48993 31.7195C5.0823 32.012 5.73787 32.1577 6.40001 32.144C7.06216 32.1577 7.71773 32.012 8.3101 31.7195C8.90247 31.427 9.41383 30.9964 9.80002 30.465C10.1862 29.9337 10.6976 29.5031 11.29 29.2106C11.8823 28.918 12.5379 28.7723 13.2 28.786C13.8622 28.7723 14.5178 28.918 15.1101 29.2106C15.7025 29.5031 16.2139 29.9337 16.6 30.465C16.9862 30.9964 17.4976 31.427 18.09 31.7195C18.6823 32.012 19.3379 32.1577 20.0001 32.144C20.6622 32.1577 21.3178 32.012 21.9101 31.7195C22.5025 31.427 23.0139 30.9964 23.4001 30.465C23.7863 29.9337 24.2976 29.5031 24.89 29.2106C25.4824 28.918 26.1379 28.7723 26.8001 28.786C27.4622 28.7723 28.1178 28.918 28.7102 29.2106C29.3025 29.5031 29.8139 29.9337 30.2001 30.465C30.5863 30.9964 31.0977 31.427 31.69 31.7195C32.2824 32.012 32.938 32.1577 33.6001 32.144C34.2623 32.1577 34.9178 32.012 35.5102 31.7195C36.1026 31.427 36.6139 30.9964 37.0001 30.465"  stroke-width="1.6" stroke-linecap="round" stroke-linejoin="round"/>
<path d="M3 26.8147C3.38619 27.346 3.89756 27.7766 4.48993 28.0691C5.0823 28.3617 5.73787 28.5074 6.40001 28.4937C7.06216 28.5074 7.71773 28.3617 8.3101 28.0691C8.90247 27.7766 9.41383 27.346 9.80002 26.8147C10.1862 26.2833 10.6976 25.8527 11.29 25.5602C11.8823 25.2677 12.5379 25.122 13.2 25.1356C13.8622 25.122 14.5178 25.2677 15.1101 25.5602C15.7025 25.8527 16.2139 26.2833 16.6 26.8147C16.9862 27.346 17.4976 27.7766 18.09 28.0691C18.6823 28.3617 19.3379 28.5074 20.0001 28.4937C20.6622 28.5074 21.3178 28.3617 21.9101 28.0691C22.5025 27.7766 23.0139 27.346 23.4001 26.8147C23.7863 26.2833 24.2976 25.8527 24.89 25.5602C25.4824 25.2677 26.1379 25.122 26.8001 25.1356C27.4622 25.122 28.1178 25.2677 28.7102 25.5602C29.3025 25.8527 29.8139 26.2833 30.2001 26.8147C30.5863 27.346 31.0977 27.7766 31.69 28.0691C32.2824 28.3617 32.938 28.5074 33.6001 28.4937C34.2623 28.5074 34.9178 28.3617 35.5102 28.0691C36.1026 27.7766 36.6139 27.346 37.0001 26.8147"  stroke-width="1.6" stroke-linecap="round" stroke-linejoin="round"/>
<path d="M25.1016 23.4099V10.8173C25.1016 10.1494 25.3702 9.50879 25.8484 9.03648C26.3267 8.56417 26.9753 8.29883 27.6516 8.29883C28.3279 8.29883 28.9765 8.56417 29.4547 9.03648C29.9329 9.50879 30.2016 10.1494 30.2016 10.8173"  stroke-width="1.6" stroke-linecap="round" stroke-linejoin="round"/>
<path d="M14.9008 23.4099V10.8173C14.9008 10.1494 14.6321 9.50879 14.1539 9.03648C13.6757 8.56417 13.0271 8.29883 12.3508 8.29883C11.6745 8.29883 11.0259 8.56417 10.5477 9.03648C10.0694 9.50879 9.80078 10.1494 9.80078 10.8173"  stroke-width="1.6" stroke-linecap="round" stroke-linejoin="round"/>
<path d="M25.1004 11.6562H14.9004"  stroke-width="1.6" stroke-linecap="round" stroke-linejoin="round"/>
<path d="M14.9004 20.0527H25.1004"  stroke-width="1.6" stroke-linecap="round" stroke-linejoin="round"/>
</svg>
