<svg viewBox="0 0 40 40" xmlns="http://www.w3.org/2000/svg">
<path d="M8.7683 9.00004C8.56514 9.00004 8.4433 9.1624 8.4433 9.32504L8.40278 15.5804H6.37177V9.36552C6.37177 9.16236 6.20941 9.04052 6.04677 9.04052C5.84361 9.04052 5.72177 9.20288 5.72177 9.36552V15.5804H3.65V9.36552C3.65 9.16236 3.48764 9.04052 3.325 9.04052C3.12184 9.04052 3 9.20288 3 9.36552V15.9054C3 16.1085 3.16236 16.2304 3.325 16.2304H5.72152V29.7163C5.72152 29.9195 5.88388 30.0413 6.04652 30.0413C6.24968 30.0413 6.37152 29.8789 6.37152 29.7163L6.3718 16.2304H8.76832C8.84964 16.2304 8.93068 16.1899 9.012 16.1491C9.09332 16.0677 9.09332 15.9867 9.09332 15.9054V9.36552C9.09332 9.16236 8.93068 9 8.76832 9L8.7683 9.00004Z"  stroke-width="0.8"/>
<path d="M34.2384 9.04022C34.157 8.9997 34.0352 9.04022 33.9539 9.08074C33.8725 9.16206 33.832 9.2431 33.832 9.36522V29.8378C33.832 30.041 33.9944 30.1628 34.157 30.1628C34.3194 30.1628 34.482 30.0005 34.482 29.8378V22.6074H36.6754C36.8785 22.6074 37.0004 22.4451 37.0004 22.2824V12.6554C37.0004 9.93387 34.2788 9.04022 34.2383 9.04022H34.2384ZM36.3099 21.9981H34.4412V9.89325C35.0912 10.2182 36.3099 11.0711 36.2691 12.6961L36.3099 21.9981Z"  stroke-width="0.8"/>
<path d="M20.7917 9.04109C17.9483 9.04109 15.3078 10.1379 13.3175 12.1282C11.3273 14.1186 10.2305 16.7996 10.2305 19.6023C10.2305 25.4517 14.983 30.2042 20.7917 30.2042C26.6411 30.2042 31.353 25.4516 31.3936 19.6429C31.3933 13.7935 26.6408 9.04102 20.7917 9.04102L20.7917 9.04109ZM20.7917 29.5137C15.3078 29.5137 10.8803 25.0453 10.8803 19.6024C10.8803 14.1185 15.3487 9.69101 20.7917 9.69101C26.2755 9.69101 30.703 14.1594 30.703 19.6024C30.703 25.0859 26.2349 29.5137 20.7917 29.5137Z"  stroke-width="0.8"/>
<path d="M20.7936 11.4375C16.2847 11.4375 12.6289 15.0932 12.6289 19.6022C12.6289 24.1113 16.2846 27.7668 20.7936 27.7668C25.3024 27.7668 28.9582 24.1112 28.9582 19.6022C28.9585 15.0933 25.3026 11.4375 20.7936 11.4375ZM26.0743 24.9234C24.6524 26.3453 22.7841 27.1168 20.7531 27.1168C18.7626 27.1168 16.8534 26.3449 15.4319 24.9234C14.0101 23.5016 13.2386 21.6333 13.2386 19.6022C13.2386 15.4589 16.6101 12.0875 20.7533 12.0875C24.8966 12.0875 28.2681 15.459 28.2681 19.6022C28.3083 21.6333 27.4959 23.5016 26.0741 24.9234H26.0743Z"  stroke-width="0.8"/>
</svg>
