<svg width="1044" height="1107" viewBox="0 0 1044 1107" fill="none" xmlns="http://www.w3.org/2000/svg">
<path d="M283.5 9C437.5 85.5 551.733 385.966 261.001 422.5C-21.4997 458 -51.0007 836.897 172 917.5C342.999 979.307 498.166 907.525 676.789 812C915.93 684.11 1066.51 914.708 1004.5 1097.5" stroke="#9C38DA" stroke-width="17" stroke-linecap="round"/>
<rect x="309.004" y="56.8052" width="51" height="10" rx="5" transform="rotate(-41.7209 309.004 56.8052)" fill="white"/>
<rect x="403" y="196.934" width="51" height="10" rx="5" transform="rotate(-19.392 403 196.934)" fill="white"/>
<rect x="155.678" y="427.182" width="51" height="10" rx="5" transform="rotate(50.3615 155.678 427.182)" fill="white"/>
<rect x="23.4434" y="569.4" width="51" height="10" rx="5" transform="rotate(26.6663 23.4434 569.4)" fill="white"/>
<rect x="387.715" y="341.737" width="51" height="10" rx="5" transform="rotate(37.6169 387.715 341.737)" fill="white"/>
<rect x="0.861328" y="740.156" width="51" height="10" rx="5" transform="rotate(-12.881 0.861328 740.156)" fill="white"/>
<rect x="100.761" y="907.233" width="51" height="10" rx="5" transform="rotate(-52.8156 100.761 907.233)" fill="white"/>
<rect x="326.215" y="964.791" width="51" height="10" rx="5" transform="rotate(-94.4804 326.215 964.791)" fill="white"/>
<rect x="579.238" y="892.435" width="51" height="10" rx="5" transform="rotate(-120.376 579.238 892.435)" fill="white"/>
<rect x="785.568" y="799.639" width="51" height="10" rx="5" transform="rotate(-97.5737 785.568 799.639)" fill="white"/>
<rect x="946.944" y="866.46" width="51" height="10" rx="5" transform="rotate(-38.8552 946.944 866.46)" fill="white"/>
<rect x="992.372" y="1007.44" width="51" height="10" rx="5" transform="rotate(0.862196 992.372 1007.44)" fill="white"/>
</svg>
