<svg width="130" height="44" viewBox="0 0 130 44" fill="none" xmlns="http://www.w3.org/2000/svg">
<path d="M54.7933 29.57C53.8625 29.57 53.021 29.4106 52.2688 29.0919C51.5292 28.7731 50.9427 28.3141 50.5092 27.7149C50.0757 27.1156 49.8526 26.408 49.8398 25.592H52.7086C52.7469 26.1402 52.9381 26.5737 53.2824 26.8925C53.6394 27.2112 54.1239 27.3706 54.7359 27.3706C55.3607 27.3706 55.8516 27.224 56.2086 26.9307C56.5656 26.6247 56.7441 26.2295 56.7441 25.745C56.7441 25.3497 56.623 25.0246 56.3807 24.7696C56.1384 24.5146 55.8324 24.3169 55.4627 24.1767C55.1057 24.0237 54.6084 23.8579 53.9709 23.6794C53.1039 23.4244 52.3963 23.1758 51.848 22.9335C51.3125 22.6785 50.8471 22.3024 50.4519 21.8051C50.0693 21.2951 49.8781 20.6194 49.8781 19.7779C49.8781 18.9873 50.0757 18.2988 50.471 17.7123C50.8662 17.1258 51.4209 16.6796 52.1349 16.3736C52.8489 16.0548 53.6649 15.8954 54.5829 15.8954C55.9599 15.8954 57.0756 16.2333 57.9299 16.9091C58.7969 17.5721 59.275 18.5028 59.3643 19.7014H56.419C56.3935 19.2423 56.1958 18.8662 55.8261 18.573C55.4691 18.267 54.9909 18.114 54.3917 18.114C53.8689 18.114 53.4482 18.2478 53.1294 18.5156C52.8234 18.7833 52.6704 19.1722 52.6704 19.6822C52.6704 20.0392 52.7851 20.3389 53.0146 20.5811C53.2569 20.8106 53.5502 21.0019 53.8944 21.1549C54.2514 21.2951 54.7487 21.4609 55.3862 21.6521C56.2532 21.9071 56.9608 22.1621 57.5091 22.4172C58.0574 22.6722 58.5291 23.0547 58.9244 23.5647C59.3196 24.0747 59.5173 24.7441 59.5173 25.5728C59.5173 26.2868 59.3324 26.9499 58.9626 27.5619C58.5929 28.1739 58.051 28.6648 57.337 29.0345C56.623 29.3915 55.7751 29.57 54.7933 29.57Z" fill="#141414"/>
<path d="M63.1965 17.5784C62.7247 17.5784 62.3295 17.4318 62.0107 17.1386C61.7047 16.8326 61.5517 16.4564 61.5517 16.0102C61.5517 15.5639 61.7047 15.1942 62.0107 14.9009C62.3295 14.5949 62.7247 14.4419 63.1965 14.4419C63.6682 14.4419 64.0571 14.5949 64.3631 14.9009C64.6819 15.1942 64.8413 15.5639 64.8413 16.0102C64.8413 16.4564 64.6819 16.8326 64.3631 17.1386C64.0571 17.4318 63.6682 17.5784 63.1965 17.5784ZM64.5161 18.8407V29.4361H61.8386V18.8407H64.5161Z" fill="#141414"/>
<path d="M66.473 24.1002C66.473 23.0292 66.6834 22.0793 67.1042 21.2505C67.5377 20.4217 68.1242 19.7842 68.8637 19.338C69.6032 18.8917 70.4256 18.6686 71.3309 18.6686C72.0194 18.6686 72.676 18.8216 73.3008 19.1276C73.9255 19.4209 74.4228 19.8161 74.7926 20.3134V15.2834H77.5083V29.4361H74.7926V27.8679C74.461 28.3906 73.9957 28.8114 73.3964 29.1301C72.7971 29.4489 72.1023 29.6083 71.3117 29.6083C70.4192 29.6083 69.6032 29.3788 68.8637 28.9198C68.1242 28.4608 67.5377 27.8169 67.1042 26.9881C66.6834 26.1466 66.473 25.1839 66.473 24.1002ZM74.8117 24.1384C74.8117 23.4882 74.6842 22.9335 74.4292 22.4745C74.1742 22.0028 73.8299 21.6458 73.3964 21.4035C72.9629 21.1485 72.4975 21.021 72.0003 21.021C71.503 21.021 71.044 21.1421 70.6232 21.3844C70.2025 21.6266 69.8582 21.9836 69.5905 22.4554C69.3355 22.9144 69.208 23.4627 69.208 24.1002C69.208 24.7377 69.3355 25.2987 69.5905 25.7832C69.8582 26.255 70.2025 26.6183 70.6232 26.8733C71.0567 27.1284 71.5158 27.2559 72.0003 27.2559C72.4975 27.2559 72.9629 27.1347 73.3964 26.8925C73.8299 26.6375 74.1742 26.2805 74.4292 25.8215C74.6842 25.3497 74.8117 24.7887 74.8117 24.1384Z" fill="#141414"/>
<path d="M89.973 23.9089C89.973 24.2914 89.9475 24.6357 89.8965 24.9417H82.1507C82.2145 25.7067 82.4822 26.306 82.954 26.7395C83.4257 27.173 84.0059 27.3897 84.6944 27.3897C85.6889 27.3897 86.3965 26.9626 86.8173 26.1083H89.7052C89.3992 27.1284 88.8127 27.9699 87.9457 28.6329C87.0787 29.2831 86.014 29.6083 84.7518 29.6083C83.7317 29.6083 82.8137 29.3851 81.9977 28.9389C81.1945 28.4799 80.5633 27.836 80.1043 27.0072C79.6581 26.1785 79.4349 25.2222 79.4349 24.1384C79.4349 23.0419 79.6581 22.0793 80.1043 21.2505C80.5506 20.4217 81.1753 19.7842 81.9786 19.338C82.7819 18.8917 83.7062 18.6686 84.7518 18.6686C85.759 18.6686 86.6579 18.8853 87.4484 19.3188C88.2517 19.7524 88.8701 20.3707 89.3036 21.174C89.7498 21.9645 89.973 22.8762 89.973 23.9089ZM87.1998 23.1439C87.1871 22.4554 86.9384 21.9071 86.4539 21.4991C85.9694 21.0784 85.3765 20.868 84.6753 20.868C84.0123 20.868 83.4512 21.072 82.9922 21.48C82.546 21.8753 82.2718 22.4299 82.1698 23.1439H87.1998Z" fill="#141414"/>
<path d="M98.2004 29.4361L94.6049 24.9226V29.4361H91.9273V15.2834H94.6049V23.3352L98.1622 18.8407H101.643L96.9764 24.1576L101.681 29.4361H98.2004Z" fill="#141414"/>
<path d="M104.454 17.5784C103.982 17.5784 103.587 17.4318 103.268 17.1386C102.962 16.8326 102.809 16.4564 102.809 16.0102C102.809 15.5639 102.962 15.1942 103.268 14.9009C103.587 14.5949 103.982 14.4419 104.454 14.4419C104.926 14.4419 105.315 14.5949 105.621 14.9009C105.94 15.1942 106.099 15.5639 106.099 16.0102C106.099 16.4564 105.94 16.8326 105.621 17.1386C105.315 17.4318 104.926 17.5784 104.454 17.5784ZM105.774 18.8407V29.4361H103.096V18.8407H105.774Z" fill="#141414"/>
<path d="M107.731 24.1384C107.731 23.0419 107.954 22.0856 108.4 21.2696C108.846 20.4409 109.465 19.8034 110.255 19.3571C111.046 18.8981 111.951 18.6686 112.971 18.6686C114.284 18.6686 115.368 19.0001 116.222 19.6631C117.089 20.3134 117.669 21.2314 117.963 22.4172H115.075C114.922 21.9581 114.66 21.6011 114.291 21.3461C113.934 21.0784 113.487 20.9445 112.952 20.9445C112.187 20.9445 111.581 21.225 111.135 21.786C110.689 22.3343 110.466 23.1184 110.466 24.1384C110.466 25.1457 110.689 25.9298 111.135 26.4908C111.581 27.0391 112.187 27.3132 112.952 27.3132C114.036 27.3132 114.743 26.8287 115.075 25.8597H117.963C117.669 27.0072 117.089 27.9189 116.222 28.5946C115.355 29.2704 114.272 29.6083 112.971 29.6083C111.951 29.6083 111.046 29.3851 110.255 28.9389C109.465 28.4799 108.846 27.8424 108.4 27.0264C107.954 26.1976 107.731 25.2349 107.731 24.1384Z" fill="#141414"/>
<path d="M126.197 29.4361L122.602 24.9226V29.4361H119.924V15.2834H122.602V23.3352L126.159 18.8407H129.64L124.973 24.1576L129.678 29.4361H126.197Z" fill="#141414"/>
<g filter="url(#filter0_d_11150_8604)">
<rect x="4.92188" y="4" width="36" height="36" rx="7" fill="white"/>
<g clip-path="url(#clip0_11150_8604)">
<path d="M22.9275 11.5024L29.9218 15.0049V8L22.9275 11.5024Z" fill="#FFB038"/>
<path fill-rule="evenodd" clip-rule="evenodd" d="M29.9218 15.0049L22.9275 18.4976V11.5024L29.9218 15.0049Z" fill="#F86141"/>
<path d="M15.9219 22L22.9275 25.5024V18.4976L15.9219 22Z" fill="#F58E78"/>
<path d="M15.9219 15.0049L22.9275 18.4976V11.5024L15.9219 15.0049Z" fill="#4F2F8D"/>
<path d="M22.9275 18.4975L15.9219 22V15.0049L22.9275 18.4975Z" fill="#DF1722"/>
<path d="M22.9275 25.5024L29.9218 29.0049V22L22.9275 25.5024Z" fill="#BB1714"/>
<path d="M29.9218 29.0049L22.9275 32.5073V25.5024L29.9218 29.0049Z" fill="#ED3330"/>
<path d="M29.9218 22L22.9275 25.5024V18.4976L29.9218 22Z" fill="#ED3330"/>
<path d="M15.9219 29.0049L22.9275 32.5073V25.5024L15.9219 29.0049Z" fill="#9B85C5"/>
<path d="M22.9275 32.5073L15.9219 36V29.0049L22.9275 32.5073Z" fill="#4F2F8D"/>
</g>
</g>
<defs>
<filter id="filter0_d_11150_8604" x="0.921875" y="0" width="44" height="44" filterUnits="userSpaceOnUse" color-interpolation-filters="sRGB">
<feFlood flood-opacity="0" result="BackgroundImageFix"/>
<feColorMatrix in="SourceAlpha" type="matrix" values="0 0 0 0 0 0 0 0 0 0 0 0 0 0 0 0 0 0 127 0" result="hardAlpha"/>
<feOffset/>
<feGaussianBlur stdDeviation="2"/>
<feComposite in2="hardAlpha" operator="out"/>
<feColorMatrix type="matrix" values="0 0 0 0 0 0 0 0 0 0 0 0 0 0 0 0 0 0 0.11 0"/>
<feBlend mode="normal" in2="BackgroundImageFix" result="effect1_dropShadow_11150_8604"/>
<feBlend mode="normal" in="SourceGraphic" in2="effect1_dropShadow_11150_8604" result="shape"/>
</filter>
<clipPath id="clip0_11150_8604">
<rect width="14" height="28" fill="white" transform="translate(15.9219 8)"/>
</clipPath>
</defs>
</svg>
