<svg width="18" height="17" viewBox="0 0 18 17" fill="none" xmlns="http://www.w3.org/2000/svg">
<path d="M5.10945 10.4622C5.10945 11.3222 4.40688 12.0247 3.54691 12.0247C2.68695 12.0247 1.98438 11.3222 1.98438 10.4622C1.98438 9.60224 2.68695 8.89966 3.54691 8.89966H5.10945V10.4622ZM5.89703 10.4622C5.89703 9.60224 6.59961 8.89966 7.45957 8.89966C8.31953 8.89966 9.02211 9.60224 9.02211 10.4622V14.3749C9.02211 15.2348 8.31953 15.9374 7.45957 15.9374C6.59961 15.9374 5.89703 15.2348 5.89703 14.3749V10.4622Z" fill="#E61E5C"/>
<path d="M5.89703 2.62504C5.89703 3.485 6.59961 4.18758 7.45957 4.18758H9.02211V2.62504C9.02211 1.76508 8.31953 1.0625 7.45957 1.0625C6.59961 1.0625 5.89703 1.76508 5.89703 2.62504Z" fill="#37CCF8"/>
<path d="M9.02211 6.5377C9.02211 5.67773 8.31953 4.97516 7.45957 4.97516H3.54691C2.68695 4.97516 1.98438 5.67773 1.98438 6.5377C1.98438 7.39766 2.68695 8.10023 3.54691 8.10023H7.45957C8.31953 8.10023 9.02211 7.39766 9.02211 6.5377Z" fill="#37CCF8"/>
<path d="M15.2955 4.97516C14.4355 4.97516 13.733 5.67773 13.733 6.5377V8.10023H15.2955C16.1555 8.10023 16.858 7.39766 16.858 6.5377C16.858 5.67773 16.1555 4.97516 15.2955 4.97516Z" fill="#30C084"/>
<path d="M11.3829 8.10023C12.2428 8.10023 12.9454 7.39766 12.9454 6.5377V2.62504C12.9454 1.76508 12.2428 1.0625 11.3829 1.0625C10.5229 1.0625 9.82031 1.76508 9.82031 2.62504V6.5377C9.82031 7.39766 10.5229 8.10023 11.3829 8.10023Z" fill="#30C084"/>
<path d="M12.9454 14.3749C12.9454 13.5149 12.2428 12.8123 11.3829 12.8123H9.82031V14.3749C9.82031 15.2348 10.5229 15.9374 11.3829 15.9374C12.2428 15.9374 12.9454 15.2348 12.9454 14.3749Z" fill="#FABD30"/>
<path d="M9.82031 10.4622C9.82031 11.3222 10.5229 12.0247 11.3829 12.0247H15.2955C16.1555 12.0247 16.858 11.3222 16.858 10.4622C16.858 9.60224 16.1555 8.89966 15.2955 8.89966H11.3829C10.5229 8.89966 9.82031 9.60224 9.82031 10.4622Z" fill="#FABD30"/>
</svg>
