<svg width="18" height="17" viewBox="0 0 18 17" fill="none" xmlns="http://www.w3.org/2000/svg">
<g clip-path="url(#clip0_11150_9769)">
<path d="M16.1744 5.03741C16.1852 5.18842 16.1852 5.33946 16.1852 5.49046C16.1852 10.0964 12.6795 15.4035 6.27213 15.4035C4.29813 15.4035 2.46439 14.8318 0.921875 13.8395C1.20234 13.8718 1.47198 13.8826 1.76324 13.8826C3.39202 13.8826 4.89141 13.3325 6.08875 12.394C4.55702 12.3617 3.27339 11.3585 2.83112 9.97777C3.04687 10.0101 3.2626 10.0317 3.48914 10.0317C3.80195 10.0317 4.11479 9.98852 4.40601 9.91305C2.80957 9.58942 1.6122 8.18716 1.6122 6.49363V6.4505C2.07602 6.70938 2.6154 6.87118 3.18706 6.89273C2.24861 6.26709 1.63378 5.19921 1.63378 3.99108C1.63378 3.34388 1.80634 2.75061 2.10839 2.23284C3.8235 4.34705 6.40155 5.72773 9.29238 5.87877C9.23846 5.61989 9.20609 5.35025 9.20609 5.08057C9.20609 3.1605 10.7594 1.59644 12.6902 1.59644C13.6934 1.59644 14.5995 2.01712 15.2359 2.69669C16.0233 2.54568 16.7784 2.25442 17.4472 1.85532C17.1883 2.66435 16.6382 3.34392 15.9155 3.77536C16.6166 3.69989 17.2962 3.50568 17.9218 3.23604C17.4473 3.92636 16.854 4.54119 16.1744 5.03741Z" fill="#1D9BF0"/>
</g>
<defs>
<clipPath id="clip0_11150_9769">
<rect width="17" height="17" fill="white" transform="translate(0.921875)"/>
</clipPath>
</defs>
</svg>
