<svg width="18" height="17" viewBox="0 0 18 17" fill="none" xmlns="http://www.w3.org/2000/svg">
<g clip-path="url(#clip0_11150_9762)">
<path d="M17.1443 4.60653C16.9589 3.90853 16.4127 3.35881 15.7192 3.17225C14.4622 2.83325 9.42181 2.83325 9.42181 2.83325C9.42181 2.83325 4.38143 2.83325 3.12441 3.17225C2.43092 3.35884 1.88474 3.90853 1.69936 4.60653C1.36255 5.87171 1.36255 8.51137 1.36255 8.51137C1.36255 8.51137 1.36255 11.151 1.69936 12.4162C1.88474 13.1142 2.43092 13.641 3.12441 13.8276C4.38143 14.1666 9.42181 14.1666 9.42181 14.1666C9.42181 14.1666 14.4622 14.1666 15.7192 13.8276C16.4127 13.641 16.9589 13.1142 17.1443 12.4162C17.4811 11.151 17.4811 8.51137 17.4811 8.51137C17.4811 8.51137 17.4811 5.87171 17.1443 4.60653ZM7.77332 10.908V6.11475L11.9861 8.51143L7.77332 10.908Z" fill="#FE0000"/>
</g>
<defs>
<clipPath id="clip0_11150_9762">
<rect width="17" height="17" fill="white" transform="translate(0.921875)"/>
</clipPath>
</defs>
</svg>
