<svg viewBox="0 0 20 20">
<g>
<path d="M19.9864 2.01863C20.0839 1.56477 19.639 1.18208 19.2049 1.3477L0.376951 8.53514C0.150351 8.62166 0.000469848 8.83884 1.10263e-06 9.08138C-0.000467643 9.32396 0.148554 9.54173 0.374841 9.62911L5.66397 11.6719V18.1059C5.66397 18.3773 5.85033 18.6132 6.11439 18.6759C6.3767 18.7383 6.65021 18.6135 6.77318 18.3696L8.9607 14.0287L14.2991 17.9905C14.6238 18.2315 15.0906 18.0782 15.2087 17.6909C20.193 1.34899 19.9775 2.05969 19.9864 2.01863ZM15.3388 4.07791L6.16685 10.6098L2.22049 9.08572L15.3388 4.07791ZM6.83583 11.5721L14.8306 5.87848C7.95121 13.1358 8.31051 12.7538 8.28051 12.7942C8.23594 12.8542 8.35804 12.6205 6.83583 15.6412V11.5721ZM14.3302 16.5543L9.6312 13.067L18.1276 4.10369L14.3302 16.5543Z"/>
</g>
</svg>
