<svg width="236" height="226" viewBox="0 0 236 226" fill="none" xmlns="http://www.w3.org/2000/svg">
<path d="M123.537 3.49211L155.152 67.4559C156.073 69.2893 157.799 70.5697 159.813 70.8898L229.717 81.5407C234.809 82.3265 236.852 88.6705 233.169 92.3372L182.826 142.507C181.388 143.962 180.698 146.028 181.043 148.065L192.607 218.606C193.442 223.757 188.12 227.686 183.546 225.27L120.804 192.328C118.992 191.368 116.834 191.368 115.022 192.328L52.2799 225.27C47.7058 227.686 42.3551 223.757 43.2181 218.606L54.7826 148.065C55.1278 146.028 54.4662 143.962 52.999 142.507L2.65602 92.3372C-1.02621 88.6705 1.01628 82.3265 6.10812 81.5407L76.013 70.8898C78.0267 70.5697 79.7815 69.2893 80.6733 67.4559L112.289 3.49211C114.59 -1.16404 121.178 -1.16404 123.508 3.49211" fill="#FDC200"/>
</svg>
 