<svg width="38" height="38" viewBox="0 0 38 38" fill="none" xmlns="http://www.w3.org/2000/svg">
<circle cx="19" cy="19" r="19" fill="#EBF0F8"/>
<path d="M14.6671 24.1892C12.3935 24.1892 10.8885 26.0248 10.5629 28.2934L10.127 31.3313H27.8736L27.3649 28.2934C26.9895 26.051 25.5344 24.1892 23.2608 24.1892H14.6671Z" fill="#55A1FF"/>
<path d="M17.0449 21.4553V25.0275C17.0449 26.1029 17.9107 26.9686 18.986 26.9686C20.0614 26.9686 20.9272 26.1029 20.9272 25.0275V21.4553C20.3422 21.7445 19.6851 21.9113 18.986 21.9113C18.287 21.9113 17.6299 21.7445 17.0449 21.4553Z" fill="#FFC6CD"/>
<path d="M26.2029 12.2442C26.2029 15.7959 22.2337 19.5471 18.6821 19.5471C14.9899 19.4372 11.8359 16.4057 11.8359 10.5207C13.0096 8.96366 15.6384 6.61952 18.6821 6.68544C22.0375 6.75815 23.7769 7.56001 23.7769 9.81721C25.0892 9.4656 26.2029 10.7037 26.2029 12.2442Z" fill="#666666"/>
<path d="M20.9261 21.4556C20.3411 21.7448 19.684 21.9115 18.9849 21.9115C18.8908 21.9115 18.7993 21.9014 18.7067 21.8954C18.4976 21.9203 18.3059 22.0243 18.1712 22.1862C18.0364 22.348 17.9687 22.5553 17.9821 22.7655C17.9955 22.9757 18.0889 23.1727 18.2431 23.3162C18.3974 23.4596 18.6007 23.5385 18.8113 23.5366C19.3299 23.5497 20.0707 23.4803 20.9261 23.1997V21.4556Z" fill="#FFAECD"/>
<path d="M22.4192 13.54C22.4192 15.0442 22.4023 16.6216 22.4023 18.1516H23.7102C24.9875 18.1516 26.0159 17.1231 26.0159 15.8458C26.0159 14.5685 24.9875 13.54 23.7102 13.54H22.4192Z" fill="#55A1FF"/>
<path d="M20.8422 11.6651C20.2657 11.6605 19.9471 11.8541 19.592 12.2508C18.6494 13.2379 17.3744 13.7812 15.7292 13.6073C14.6273 13.3624 14.2509 14.9962 15.3652 15.1762C17.3858 15.4074 19.2346 15.0067 20.7641 13.4785C20.7911 13.4522 20.8795 13.3791 20.9396 13.3791C21.3327 13.376 21.783 13.3798 21.783 13.3798C22.8794 13.3907 22.8946 11.6749 21.7982 11.6648C21.452 11.6641 21.144 11.6617 20.8422 11.6651Z" fill="#4D4D4D"/>
<path d="M20.6861 12.9363C19.7296 14.0304 17.7772 15.5356 14.5957 14.6831V17.8176C14.5957 20.2372 16.5436 22.1851 18.9632 22.1851C21.3828 22.1851 23.3307 20.2372 23.3307 17.8176V12.9363H20.6861Z" fill="#FFC6CD"/>
<path d="M17.5278 29.9888C16.8096 29.9892 16.436 30.8447 16.9239 31.3719H27.91L27.6784 29.9888H17.5278Z" fill="#488BFF"/>
<path d="M25.113 17.7188C24.893 17.8813 24.6438 18.0057 24.3732 18.0822L25.0398 19.5007H19.4754C19.4206 19.4995 19.3661 19.5092 19.3151 19.5294C19.2641 19.5496 19.2176 19.5797 19.1785 19.618C19.1393 19.6564 19.1081 19.7022 19.0869 19.7527C19.0656 19.8033 19.0547 19.8575 19.0547 19.9124C19.0547 19.9672 19.0656 20.0215 19.0869 20.072C19.1081 20.1225 19.1393 20.1683 19.1785 20.2067C19.2176 20.245 19.2641 20.2752 19.3151 20.2953C19.3661 20.3155 19.4206 20.3252 19.4754 20.3241H25.6903C25.7597 20.3242 25.828 20.3069 25.8888 20.2736C25.9497 20.2403 26.0011 20.1922 26.0384 20.1337C26.0757 20.0753 26.0977 20.0083 26.1022 19.9391C26.1067 19.8699 26.0936 19.8007 26.0643 19.7379L25.113 17.7188Z" fill="#666666"/>
</svg>
