<svg width="26" height="26" viewBox="0 0 26 26" fill="none" xmlns="http://www.w3.org/2000/svg">
<circle cx="13" cy="13" r="13" fill="#F8FAFD"/>
<path d="M10.0361 16.5503C8.48048 16.5503 7.45076 17.8062 7.228 19.3584L6.92969 21.437H19.0721L18.7241 19.3584C18.4672 17.8241 17.4716 16.5503 15.916 16.5503H10.0361Z" fill="#55A1FF"/>
<path d="M11.6621 14.6799V17.124C11.6621 17.8598 12.2545 18.4522 12.9902 18.4522C13.726 18.4522 14.3184 17.8598 14.3184 17.124V14.6799C13.9181 14.8778 13.4686 14.9919 12.9902 14.9919C12.5119 14.9919 12.0623 14.8778 11.6621 14.6799Z" fill="#FFC6CD"/>
<path d="M17.9277 8.37756C17.9277 10.8076 15.2119 13.3742 12.7819 13.3742C10.2557 13.2991 8.09766 11.2249 8.09766 7.19827C8.90067 6.13295 10.6993 4.52907 12.7819 4.57417C15.0777 4.62392 16.2678 5.17256 16.2678 6.71696C17.1656 6.47638 17.9277 7.32351 17.9277 8.37756Z" fill="#666666"/>
<path d="M14.3181 14.6802C13.9179 14.8781 13.4683 14.9921 12.99 14.9921C12.9256 14.9921 12.863 14.9852 12.7996 14.9811C12.6566 14.9981 12.5254 15.0693 12.4332 15.1801C12.341 15.2908 12.2947 15.4326 12.3039 15.5764C12.313 15.7202 12.3769 15.8551 12.4825 15.9532C12.588 16.0513 12.7271 16.1053 12.8712 16.104C13.2261 16.113 13.7329 16.0655 14.3181 15.8735V14.6802Z" fill="#FFAECD"/>
<path d="M15.3397 9.26416C15.3397 10.2933 15.3281 11.3726 15.3281 12.4194H16.223C17.0969 12.4194 17.8006 11.7158 17.8006 10.8418C17.8006 9.96786 17.0969 9.26416 16.223 9.26416H15.3397Z" fill="#55A1FF"/>
<path d="M14.2598 7.98145C13.8654 7.97826 13.6474 8.11076 13.4045 8.38221C12.7595 9.05756 11.8871 9.42927 10.7615 9.31032C10.0075 9.14275 9.74997 10.2606 10.5124 10.3838C11.8949 10.5419 13.1599 10.2678 14.2064 9.22218C14.2249 9.20421 14.2854 9.15415 14.3265 9.15415C14.5954 9.15202 14.9035 9.15467 14.9035 9.15467C15.6537 9.16211 15.6641 7.98816 14.9139 7.98122C14.6771 7.98076 14.4663 7.97911 14.2598 7.98145Z" fill="#4D4D4D"/>
<path d="M14.1554 8.85107C13.5009 9.59968 12.1651 10.6295 9.98828 10.0463V12.1909C9.98828 13.8464 11.3211 15.1792 12.9766 15.1792C14.6321 15.1792 15.9648 13.8464 15.9648 12.1909V8.85107H14.1554Z" fill="#FFC6CD"/>
<path d="M11.994 20.5186C11.5025 20.5189 11.2469 21.1042 11.5808 21.4649H19.0975L18.9391 20.5186H11.994Z" fill="#488BFF"/>
<path d="M17.1842 12.1233C17.0337 12.2345 16.8632 12.3196 16.6781 12.372L17.1342 13.3425H13.3269C13.2894 13.3417 13.2521 13.3484 13.2172 13.3622C13.1823 13.376 13.1506 13.3966 13.1238 13.4228C13.0969 13.449 13.0756 13.4804 13.0611 13.515C13.0466 13.5495 13.0391 13.5867 13.0391 13.6242C13.0391 13.6617 13.0466 13.6988 13.0611 13.7334C13.0756 13.768 13.0969 13.7993 13.1238 13.8256C13.1506 13.8518 13.1823 13.8724 13.2172 13.8862C13.2521 13.9 13.2894 13.9067 13.3269 13.9059H17.5792C17.6267 13.906 17.6734 13.8941 17.715 13.8713C17.7567 13.8486 17.7919 13.8157 17.8174 13.7757C17.8429 13.7357 17.8579 13.6898 17.861 13.6425C17.8641 13.5951 17.8552 13.5478 17.8351 13.5048L17.1842 12.1233Z" fill="#666666"/>
</svg>
