<svg width="4" height="13" viewBox="0 0 4 13" fill="none" xmlns="http://www.w3.org/2000/svg">
<path d="M3.54604 7.9806H0.845145L0.427734 0.238037H3.96345L3.54604 7.9806ZM0.460472 10.8452C0.460472 10.3487 0.607794 9.96398 0.902437 9.69116C1.19708 9.41289 1.6254 9.27375 2.18741 9.27375C2.74395 9.27375 3.16409 9.41289 3.44782 9.69116C3.73701 9.96398 3.8816 10.3487 3.8816 10.8452C3.8816 11.3363 3.73155 11.7209 3.43145 11.9992C3.13681 12.272 2.72213 12.4084 2.18741 12.4084C1.64723 12.4084 1.22436 12.272 0.918806 11.9992C0.61325 11.7209 0.460472 11.3363 0.460472 10.8452Z" fill="white"/>
</svg>
