<svg width="18" height="18" viewBox="0 0 18 18" fill="none" xmlns="http://www.w3.org/2000/svg">
<circle cx="9" cy="9" r="9" fill="#FF1C74"/>
<path d="M10.2681 10.6205H8.05831L7.7168 4.28564H10.6097L10.2681 10.6205ZM7.74358 12.9642C7.74358 12.558 7.86412 12.2432 8.10519 12.02C8.34626 11.7923 8.69671 11.6785 9.15653 11.6785C9.61189 11.6785 9.95564 11.7923 10.1878 12.02C10.4244 12.2432 10.5427 12.558 10.5427 12.9642C10.5427 13.366 10.4199 13.6807 10.1744 13.9084C9.93331 14.1316 9.59403 14.2432 9.15653 14.2432C8.71456 14.2432 8.36858 14.1316 8.11858 13.9084C7.86858 13.6807 7.74358 13.366 7.74358 12.9642Z" fill="white"/>
</svg>
