<svg width="360" height="569" viewBox="0 0 360 569" fill="none" xmlns="http://www.w3.org/2000/svg">
<g filter="url(#filter0_i_0_2970)">
<path d="M0 377.031C0 377.031 59.8481 415.562 102.188 415.562C201.188 415.562 360 355.562 360 355.562V568.188C360 568.188 234.19 552.151 163.219 546.531C93.1438 540.982 0 549.25 0 549.25L0 377.031Z" fill="#3990F1"/>
</g>
<path d="M0 21.4688C0 21.4688 59.8481 60 102.188 60C201.188 60 360 0 360 0V564.625C360 564.625 240.096 541.37 169.125 535.75C99.05 530.201 0 545.688 0 545.688L0 21.4688Z" fill="#F8FAFD"/>
<defs>
<filter id="filter0_i_0_2970" x="0" y="349.562" width="360" height="218.625" filterUnits="userSpaceOnUse" color-interpolation-filters="sRGB">
<feFlood flood-opacity="0" result="BackgroundImageFix"/>
<feBlend mode="normal" in="SourceGraphic" in2="BackgroundImageFix" result="shape"/>
<feColorMatrix in="SourceAlpha" type="matrix" values="0 0 0 0 0 0 0 0 0 0 0 0 0 0 0 0 0 0 127 0" result="hardAlpha"/>
<feOffset dy="-6"/>
<feGaussianBlur stdDeviation="4.5"/>
<feComposite in2="hardAlpha" operator="arithmetic" k2="-1" k3="1"/>
<feColorMatrix type="matrix" values="0 0 0 0 0 0 0 0 0 0 0 0 0 0 0 0 0 0 0.25 0"/>
<feBlend mode="normal" in2="shape" result="effect1_innerShadow_0_2970"/>
</filter>
</defs>
</svg>
