<svg width="22" height="22" viewBox="0 0 22 22" fill="none" xmlns="http://www.w3.org/2000/svg">
<path d="M14.63 11.0007L21.436 4.1947C22.188 3.44271 22.188 2.22354 21.436 1.47273L20.5286 0.565403C19.7764 -0.186823 18.5573 -0.186823 17.8064 0.565403L11.0007 7.37115L4.1947 0.563993C3.44271 -0.187998 2.22354 -0.187998 1.47273 0.563993L0.563993 1.47132C-0.187998 2.22354 -0.187998 3.44271 0.563993 4.19352L7.37115 11.0007L0.565403 17.8064C-0.186823 18.5587 -0.186823 19.7778 0.565403 20.5286L1.47273 21.436C2.22472 22.188 3.44388 22.188 4.1947 21.436L11.0007 14.63L17.8064 21.436C18.5587 22.188 19.7778 22.188 20.5286 21.436L21.436 20.5286C22.188 19.7764 22.188 18.5573 21.436 17.8064L14.63 11.0007Z" fill="white"/>
</svg>
