<svg width="322" height="31" viewBox="0 0 322 31" fill="none" xmlns="http://www.w3.org/2000/svg">
<rect width="321.481" height="31" rx="10" fill="#F8FAFD" fill-opacity="0.5"/>
<g clip-path="url(#clip0_229_103)">
<path d="M17.888 24.0806C22.4257 24.0806 26.1041 20.2118 26.1041 15.4392C26.1041 10.6667 22.4257 6.79785 17.888 6.79785C13.3504 6.79785 9.67188 10.6667 9.67188 15.4392C9.67188 20.2118 13.3504 24.0806 17.888 24.0806Z" fill="#41B4E6"/>
<path d="M26.1053 15.4394C26.1053 15.2288 26.0977 15.0201 26.0837 14.8133L22.6785 11.2319L13.0996 15.1948L16.7645 19.0495L16.8126 19.2315L16.8748 19.1655L16.8751 19.1658L16.8126 19.2315L20.8667 23.4954C23.9324 22.2411 26.1053 19.1073 26.1053 15.4394Z" fill="#0091C8"/>
<path d="M17.0911 16.6984L20.8042 19.6468L22.6785 11.2319L13.0996 15.1948L16.0144 16.2102L21.3338 12.4574L17.0911 16.6984Z" fill="white"/>
<path d="M16.0137 16.2104L16.812 19.2316L17.0904 16.6985L21.3331 12.4575L16.0137 16.2104Z" fill="#D2D2D7"/>
<path d="M18.2977 17.6567L16.8125 19.2317L17.091 16.6985L18.2977 17.6567Z" fill="#B9B9BE"/>
</g>
<g clip-path="url(#clip1_229_103)">
<path d="M62.2196 15.7565C60.9165 15.7565 59.8638 16.8637 59.8831 18.2206C59.8959 19.0915 60.3517 19.8477 61.0224 20.2696C60.7946 19.9017 60.6598 19.4662 60.6533 18.997C60.6341 17.64 61.6868 16.5328 62.9898 16.5328C63.2466 16.5328 63.4937 16.5767 63.7248 16.6544V13.937C63.4841 13.8999 63.237 13.8796 62.9898 13.8796C62.977 13.8796 62.9674 13.8796 62.9545 13.8796V15.878C62.7234 15.8003 62.4763 15.7565 62.2196 15.7565Z" fill="#F00044"/>
<path d="M67.8509 7.60791H67.8316H67.1641C67.3566 8.62396 67.899 9.50836 68.6565 10.1092C68.159 9.41722 67.8573 8.55307 67.8509 7.60791Z" fill="#F00044"/>
<path d="M71.78 11.743C71.5265 11.743 71.2826 11.716 71.0419 11.6687V13.6164C70.1689 13.6164 69.3216 13.4375 68.5256 13.0797C68.0121 12.8502 67.5339 12.5565 67.0942 12.202L67.1071 18.2072C67.1006 19.5574 66.5935 20.8233 65.6756 21.7786C64.9278 22.555 63.981 23.0512 62.954 23.2098C62.7133 23.247 62.4662 23.2672 62.219 23.2672C61.1214 23.2672 60.0751 22.8925 59.2246 22.2005C59.3209 22.322 59.4236 22.4402 59.5359 22.555C60.4603 23.5136 61.6863 24.0436 62.9925 24.0436C63.2396 24.0436 63.4868 24.0233 63.7275 23.9862C64.7545 23.8276 65.7013 23.3313 66.4491 22.555C67.367 21.5997 67.8741 20.3338 67.8805 18.9836L67.8324 12.9784C68.2689 13.3329 68.7471 13.6299 69.2638 13.8561C70.063 14.2105 70.9103 14.3928 71.78 14.3928" fill="#F00044"/>
<path d="M59.5254 15.375C60.4401 14.4198 61.6565 13.8898 62.9531 13.8797V13.1607C62.7124 13.1235 62.4652 13.1033 62.2181 13.1033C60.9086 13.1033 59.6794 13.6332 58.7551 14.5987C57.8468 15.5472 57.3269 16.8434 57.3301 18.1903C57.3301 19.5473 57.8404 20.8199 58.7615 21.7819C58.9092 21.9338 59.06 22.0756 59.2205 22.2039C58.4951 21.2958 58.1004 20.1616 58.0972 18.9667C58.1004 17.6198 58.6171 16.3236 59.5254 15.375Z" fill="#08FFF9"/>
<path d="M71.0416 11.6687V10.9463H71.0352C70.1429 10.9463 69.3213 10.6357 68.6602 10.1091C69.2347 10.9058 70.0755 11.4729 71.0416 11.6687Z" fill="#08FFF9"/>
<path d="M62.8573 21.3871C63.1622 21.4039 63.4543 21.3601 63.7239 21.2689C64.6546 20.9482 65.3254 20.0368 65.3254 18.9634L65.3286 14.9464V7.60793H67.1644C67.1163 7.35476 67.0906 7.09821 67.0874 6.83154H64.5583V14.1667L64.5551 18.1836C64.5551 19.2571 63.8843 20.1685 62.9536 20.4892C62.684 20.5837 62.3919 20.6276 62.087 20.6073C61.6987 20.5837 61.336 20.4621 61.0215 20.2664C61.4162 20.9077 62.0902 21.3432 62.8573 21.3871Z" fill="#08FFF9"/>
<path d="M62.9523 23.2099C63.9794 23.0512 64.9262 22.555 65.674 21.7786C66.5919 20.8233 67.099 19.5575 67.1054 18.2072L67.0926 12.2021C67.529 12.5565 68.0072 12.8536 68.524 13.0797C69.3231 13.4342 70.1704 13.6164 71.0402 13.6164V11.6687C70.0741 11.473 69.2333 10.9059 68.6588 10.1092C67.9013 9.50836 67.3557 8.62396 67.1664 7.60791H65.3273V14.9431L65.3241 18.96C65.3241 20.0334 64.6534 20.9448 63.7226 21.2655C63.453 21.36 63.161 21.4039 62.8561 21.3837C62.0858 21.3398 61.415 20.9043 61.0202 20.2663C60.3495 19.8478 59.8937 19.0883 59.8809 18.2174C59.8616 16.8604 60.9143 15.7532 62.2174 15.7532C62.4741 15.7532 62.7213 15.7971 62.9523 15.8747V13.8764C61.6557 13.8865 60.4393 14.4165 59.5246 15.3718C58.6163 16.3203 58.0964 17.6165 58.0996 18.96C58.0996 20.155 58.4944 21.2891 59.2229 22.1972C60.0767 22.8892 61.1197 23.2639 62.2174 23.2639C62.4645 23.2672 62.7116 23.247 62.9523 23.2099Z" fill="black"/>
</g>
<g clip-path="url(#clip2_229_103)">
<path d="M116.569 23.7863C113.062 24.1798 109.525 24.1798 106.019 23.7863C105.338 23.7106 104.702 23.3918 104.217 22.8829C103.733 22.3739 103.429 21.7057 103.356 20.9896C102.982 17.3012 102.982 13.5815 103.356 9.89312C103.428 9.17687 103.731 8.5082 104.215 7.99856C104.699 7.48893 105.334 7.16913 106.015 7.09249C109.522 6.69899 113.058 6.69899 116.565 7.09249C117.246 7.16813 117.882 7.48698 118.367 7.9959C118.851 8.50482 119.155 9.17305 119.228 9.88919C119.602 13.5775 119.602 17.2973 119.228 20.9857C119.156 21.7019 118.853 22.3706 118.369 22.8802C117.885 23.3898 117.25 23.7096 116.569 23.7863Z" fill="#E60000"/>
<path d="M116.188 12.8412C115.982 12.1764 115.303 11.7738 114.677 11.6815C112.427 11.4301 110.158 11.4301 107.908 11.6815C107.283 11.7738 106.601 12.1725 106.397 12.8412C106.077 14.5574 106.077 16.3227 106.397 18.0389C106.603 18.7027 107.283 19.1063 107.908 19.1986C110.158 19.45 112.427 19.45 114.677 19.1986C115.303 19.1063 115.984 18.7076 116.188 18.0389C116.508 16.3227 116.508 14.5574 116.188 12.8412ZM110.064 17.5096V13.3695L113.268 15.4395C112.188 16.1377 111.139 16.8143 110.064 17.5096Z" fill="white"/>
</g>
<g clip-path="url(#clip3_229_103)">
<path fill-rule="evenodd" clip-rule="evenodd" d="M162.103 24.0808H153.886C152.797 24.0808 151.752 23.6256 150.982 22.8153C150.211 22.005 149.778 20.906 149.778 19.7601V11.1186C149.778 9.97268 150.211 8.87371 150.982 8.06342C151.752 7.25314 152.797 6.7979 153.886 6.79785L162.103 6.79785C163.192 6.79785 164.237 7.25307 165.008 8.06337C165.778 8.87367 166.211 9.97267 166.211 11.1186V19.7601C166.211 20.906 165.778 22.005 165.008 22.8153C164.237 23.6256 163.192 24.0808 162.103 24.0808Z" fill="#4682C3"/>
<path fill-rule="evenodd" clip-rule="evenodd" d="M157.481 11.6587H162.103C162.695 11.6587 163.265 11.4193 163.694 10.9902C164.124 10.561 164.38 9.97475 164.41 9.35249C164.441 8.73024 164.243 8.1195 163.857 7.64641C163.472 7.17332 162.928 6.874 162.339 6.81027C162.26 6.80568 162.183 6.79785 162.103 6.79785H153.886C152.797 6.7979 151.752 7.25314 150.982 8.06342C150.211 8.87371 149.778 9.97268 149.778 11.1186V19.7601C149.778 17.6115 150.59 15.5509 152.034 14.0316C153.479 12.5123 155.438 11.6587 157.481 11.6587Z" fill="#5F9BDC"/>
<path fill-rule="evenodd" clip-rule="evenodd" d="M162.102 15.4394C161.29 15.4394 160.495 15.6928 159.82 16.1676C159.144 16.6423 158.618 17.3172 158.307 18.1067C157.996 18.8962 157.915 19.7649 158.073 20.6031C158.232 21.4412 158.623 22.2111 159.197 22.8154C159.772 23.4196 160.504 23.8312 161.301 23.9979C162.098 24.1646 162.924 24.079 163.674 23.752C164.425 23.425 165.067 22.8712 165.518 22.1606C165.969 21.4501 166.21 20.6147 166.21 19.7601V11.1187C166.21 12.2646 165.778 13.3636 165.007 14.1739C164.237 14.9842 163.192 15.4394 162.102 15.4394Z" fill="#2D69AA"/>
<path fill-rule="evenodd" clip-rule="evenodd" d="M163.417 12.686C163.5 12.4111 163.417 12.2115 163.048 12.2115H161.825C161.711 12.2049 161.598 12.2363 161.502 12.3014C161.406 12.3664 161.332 12.4617 161.29 12.5737C160.908 13.5226 160.4 14.41 159.781 15.2096C159.496 15.5093 159.366 15.6095 159.211 15.6095C159.128 15.6095 159.021 15.5093 159.021 15.2344V12.6736C159.021 12.3487 158.926 12.1988 158.665 12.1988H156.789C156.75 12.1969 156.711 12.2031 156.674 12.2171C156.637 12.2312 156.604 12.2528 156.575 12.2807C156.546 12.3086 156.523 12.3422 156.507 12.3796C156.491 12.417 156.482 12.4575 156.48 12.4986C156.48 12.811 156.92 12.8858 156.967 13.7605V15.6592C156.967 16.0716 156.896 16.1467 156.742 16.1467C156.326 16.1467 155.149 14.535 154.543 12.6984C154.424 12.336 154.306 12.1988 153.997 12.1988H152.761C152.405 12.1988 152.346 12.3736 152.346 12.561C152.346 13.3862 154.564 19.2074 158.143 19.2074C158.926 19.2074 159.021 19.0202 159.021 18.7078V17.546C159.021 17.1709 159.093 17.1086 159.342 17.1086C159.979 17.1086 161.132 18.6052 161.43 18.9187C161.499 19.01 161.585 19.0842 161.684 19.1363C161.784 19.1884 161.892 19.217 162.003 19.2201H163.226C163.583 19.2201 163.707 18.9924 163.612 18.6303C163.392 17.8849 161.859 16.3516 161.777 16.2342C161.599 15.9841 161.646 15.8844 161.777 15.6592C161.765 15.6592 163.262 13.4357 163.417 12.686Z" fill="white"/>
</g>
<g clip-path="url(#clip4_229_103)">
<path fill-rule="evenodd" clip-rule="evenodd" d="M208.805 24.0808H200.589C200.049 24.0809 199.515 23.9692 199.016 23.7521C198.518 23.535 198.065 23.2167 197.684 22.8155C197.302 22.4142 196.999 21.9379 196.793 21.4136C196.587 20.8894 196.48 20.3275 196.48 19.7601V11.1186C196.48 10.5512 196.587 9.98929 196.793 9.46504C196.999 8.9408 197.302 8.46446 197.684 8.06323C198.065 7.662 198.518 7.34373 199.016 7.12662C199.515 6.9095 200.049 6.79779 200.589 6.79785H208.805C209.344 6.79779 209.879 6.9095 210.377 7.12662C210.875 7.34373 211.328 7.662 211.71 8.06323C212.091 8.46446 212.394 8.9408 212.6 9.46504C212.807 9.98929 212.913 10.5512 212.913 11.1186V19.7601C212.913 20.3275 212.807 20.8894 212.6 21.4136C212.394 21.9379 212.091 22.4142 211.71 22.8155C211.328 23.2167 210.875 23.535 210.377 23.7521C209.879 23.9692 209.344 24.0809 208.805 24.0808Z" fill="#7387DC"/>
<path fill-rule="evenodd" clip-rule="evenodd" d="M204.183 11.6587H208.805C209.397 11.6587 209.967 11.4193 210.396 10.9902C210.826 10.561 211.082 9.97475 211.113 9.35249C211.143 8.73024 210.945 8.1195 210.559 7.64641C210.174 7.17332 209.63 6.874 209.041 6.81027C208.961 6.80568 208.884 6.79785 208.805 6.79785H200.589C200.049 6.79779 199.515 6.9095 199.016 7.12662C198.518 7.34373 198.065 7.662 197.684 8.06323C197.302 8.46446 196.999 8.9408 196.793 9.46504C196.587 9.98929 196.48 10.5512 196.48 11.1186V19.7601C196.48 17.6115 197.292 15.5508 198.737 14.0315C200.181 12.5122 202.14 11.6587 204.183 11.6587Z" fill="#8CA0F5"/>
<path fill-rule="evenodd" clip-rule="evenodd" d="M208.804 15.4394C207.992 15.4394 207.198 15.6928 206.522 16.1676C205.846 16.6423 205.32 17.3172 205.009 18.1067C204.698 18.8962 204.617 19.7649 204.775 20.6031C204.934 21.4412 205.325 22.2111 205.9 22.8154C206.474 23.4196 207.206 23.8312 208.003 23.9979C208.8 24.1646 209.626 24.079 210.377 23.752C211.127 23.425 211.769 22.8712 212.22 22.1606C212.672 21.4501 212.913 20.6147 212.913 19.7601V11.1187C212.913 11.6861 212.806 12.248 212.6 12.7722C212.393 13.2965 212.091 13.7728 211.709 14.174C211.328 14.5753 210.875 14.8935 210.377 15.1106C209.878 15.3277 209.344 15.4395 208.804 15.4394Z" fill="#5A6EC3"/>
<path d="M203.626 15.2942C203.495 15.2825 203.364 15.3127 203.249 15.3808C203.134 15.449 203.042 15.552 202.984 15.6763C202.926 15.8006 202.905 15.9404 202.924 16.0775C202.942 16.2145 203 16.3424 203.089 16.4444C203.178 16.5464 203.295 16.6178 203.423 16.6491C203.551 16.6804 203.685 16.6703 203.808 16.62C203.931 16.5698 204.036 16.4817 204.11 16.3674C204.185 16.2531 204.225 16.1178 204.225 15.9793C204.232 15.8051 204.172 15.635 204.06 15.5065C203.948 15.378 203.792 15.3017 203.626 15.2942Z" fill="white"/>
<path d="M205.768 15.2942C205.637 15.2825 205.505 15.3127 205.391 15.3808C205.276 15.449 205.184 15.552 205.126 15.6763C205.067 15.8006 205.046 15.9404 205.065 16.0775C205.084 16.2145 205.142 16.3424 205.231 16.4444C205.32 16.5464 205.436 16.6178 205.564 16.6491C205.693 16.6804 205.827 16.6703 205.95 16.62C206.072 16.5698 206.178 16.4817 206.252 16.3674C206.326 16.2531 206.366 16.1178 206.366 15.9793C206.373 15.8051 206.314 15.635 206.202 15.5065C206.09 15.378 205.934 15.3017 205.768 15.2942Z" fill="white"/>
<path d="M209.832 11.3871C209.832 11.2204 209.801 11.0553 209.741 10.9012C209.681 10.7471 209.592 10.6069 209.48 10.4889C209.368 10.3708 209.236 10.2771 209.089 10.213C208.943 10.149 208.786 10.1159 208.628 10.1157H200.766C200.607 10.1159 200.45 10.149 200.304 10.213C200.158 10.2771 200.025 10.3708 199.913 10.4889C199.801 10.6069 199.713 10.7471 199.652 10.9012C199.592 11.0553 199.561 11.2204 199.562 11.3871V19.5687C199.561 19.7354 199.592 19.9005 199.652 20.0547C199.713 20.2088 199.801 20.349 199.913 20.4671C200.025 20.5852 200.158 20.679 200.304 20.743C200.45 20.8071 200.607 20.8401 200.766 20.8404H207.056C207.096 20.8405 207.135 20.8309 207.171 20.8123C207.207 20.7936 207.238 20.7665 207.261 20.7331C207.285 20.6997 207.302 20.6609 207.309 20.6197C207.316 20.5786 207.314 20.5362 207.303 20.496C207.215 20.1798 207.102 19.7602 207.102 19.7602C207.102 19.7602 208.63 21.2711 209.398 22.0326C209.434 22.069 209.48 22.0932 209.53 22.1025C209.579 22.1117 209.63 22.1055 209.676 22.0846C209.723 22.0636 209.762 22.029 209.79 21.9848C209.817 21.9406 209.832 21.8889 209.832 21.836V11.3871ZM206.412 18.1728C206.386 18.1741 206.36 18.1689 206.336 18.1578C206.313 18.1466 206.292 18.1297 206.276 18.1086L206.093 17.8728C206.077 17.8513 206.065 17.826 206.06 17.7989C206.054 17.7719 206.055 17.7438 206.062 17.7171C206.068 17.6903 206.081 17.6656 206.099 17.645C206.116 17.6244 206.138 17.6084 206.163 17.5984C206.499 17.4743 206.792 17.2455 207.002 16.9422C206.312 17.3999 205.513 17.6427 204.697 17.6427C203.881 17.6427 203.081 17.3999 202.391 16.9422C202.601 17.2455 202.894 17.4743 203.231 17.5984C203.255 17.6084 203.277 17.6244 203.295 17.645C203.312 17.6656 203.325 17.6903 203.332 17.7171C203.338 17.7438 203.339 17.7719 203.334 17.7989C203.328 17.826 203.317 17.8513 203.3 17.8728L203.118 18.1086C203.101 18.1297 203.08 18.1466 203.057 18.1578C203.033 18.1689 203.007 18.1741 202.982 18.1728C202.646 18.1701 202.316 18.084 202.019 17.9217C201.721 17.7594 201.464 17.5254 201.269 17.2387C201.288 15.9874 201.577 14.757 202.114 13.6401C202.58 13.259 203.144 13.0334 203.734 12.9923C203.743 12.9921 203.752 12.994 203.761 12.9979C203.769 13.0019 203.777 13.0077 203.783 13.0149C203.79 13.0231 203.795 13.033 203.797 13.0437C203.799 13.0544 203.799 13.0656 203.796 13.0762C203.794 13.0868 203.788 13.0965 203.781 13.1043C203.774 13.1122 203.764 13.1179 203.754 13.1211C203.253 13.2719 202.787 13.5283 202.383 13.8748C203.092 13.4657 203.888 13.2512 204.697 13.2512C205.505 13.2512 206.301 13.4657 207.01 13.8748C206.606 13.5283 206.14 13.2719 205.639 13.1211C205.629 13.1179 205.62 13.1122 205.612 13.1043C205.605 13.0965 205.6 13.0868 205.597 13.0762C205.594 13.0656 205.594 13.0544 205.596 13.0437C205.599 13.033 205.604 13.0231 205.611 13.0149C205.617 13.0077 205.624 13.0019 205.633 12.9979C205.641 12.994 205.65 12.9921 205.66 12.9923C206.249 13.0334 206.813 13.259 207.28 13.6401C207.817 14.757 208.105 15.9874 208.124 17.2387C207.929 17.5254 207.672 17.7594 207.375 17.9217C207.077 18.084 206.747 18.1701 206.412 18.1728Z" fill="white"/>
</g>
<g clip-path="url(#clip5_229_103)">
<g clip-path="url(#clip6_229_103)">
<path fill-rule="evenodd" clip-rule="evenodd" d="M254.113 21.9301H246.957C246.008 21.9301 245.098 21.5336 244.427 20.8278C243.756 20.1221 243.379 19.1649 243.379 18.1669V10.6404C243.379 9.64237 243.756 8.6852 244.427 7.97947C245.098 7.27374 246.008 6.87724 246.957 6.8772H254.113C255.062 6.8772 255.972 7.27368 256.643 7.97942C257.314 8.68516 257.691 9.64236 257.691 10.6404V18.1669C257.691 19.165 257.314 20.1222 256.643 20.8279C255.972 21.5336 255.062 21.9301 254.113 21.9301Z" fill="#FF9600"/>
<path fill-rule="evenodd" clip-rule="evenodd" d="M250.088 11.1108H254.113C254.629 11.1108 255.125 10.9024 255.499 10.5286C255.873 10.1548 256.097 9.64417 256.123 9.10221C256.149 8.56025 255.977 8.02831 255.641 7.61626C255.305 7.20421 254.832 6.94352 254.319 6.88802C254.25 6.88402 254.183 6.8772 254.113 6.8772H246.957C246.008 6.87724 245.098 7.27374 244.427 7.97947C243.756 8.6852 243.379 9.64237 243.379 10.6404V18.1669C243.379 16.2955 244.086 14.5008 245.344 13.1776C246.602 11.8543 248.308 11.1109 250.088 11.1108Z" fill="#FFB400"/>
<path fill-rule="evenodd" clip-rule="evenodd" d="M254.113 14.4036C253.406 14.4036 252.714 14.6243 252.125 15.0378C251.537 15.4513 251.078 16.0391 250.808 16.7267C250.537 17.4144 250.466 18.171 250.604 18.901C250.742 19.631 251.083 20.3016 251.583 20.8279C252.084 21.3541 252.721 21.7126 253.415 21.8578C254.109 22.003 254.829 21.9284 255.482 21.6436C256.136 21.3588 256.695 20.8764 257.088 20.2576C257.481 19.6387 257.691 18.9111 257.691 18.1668V10.6404C257.691 11.6385 257.314 12.5956 256.643 13.3014C255.972 14.0071 255.062 14.4036 254.113 14.4036Z" fill="#FF7800"/>
<path d="M250.536 12.9952C250.315 12.9952 250.1 12.9266 249.917 12.798C249.734 12.6694 249.592 12.4867 249.508 12.2728C249.423 12.059 249.401 11.8237 249.444 11.5967C249.487 11.3697 249.593 11.1612 249.749 10.9975C249.904 10.8338 250.102 10.7223 250.318 10.6772C250.534 10.632 250.758 10.6551 250.961 10.7437C251.164 10.8322 251.338 10.9822 251.461 11.1747C251.583 11.3671 251.648 11.5933 251.648 11.8248C251.648 11.9785 251.619 12.1306 251.563 12.2726C251.508 12.4146 251.426 12.5436 251.322 12.6523C251.219 12.761 251.096 12.8472 250.961 12.906C250.826 12.9649 250.682 12.9951 250.536 12.9952ZM250.536 8.9939C250.003 8.99387 249.483 9.15989 249.04 9.47096C248.597 9.78202 248.252 10.2242 248.049 10.7415C247.845 11.2588 247.792 11.828 247.895 12.3772C247.999 12.9264 248.256 13.4308 248.632 13.8267C249.009 14.2227 249.488 14.4923 250.01 14.6015C250.532 14.7108 251.074 14.6547 251.566 14.4404C252.057 14.2261 252.478 13.8632 252.774 13.3977C253.069 12.9321 253.227 12.3847 253.227 11.8248C253.227 11.074 252.944 10.354 252.439 9.82307C251.934 9.29218 251.249 8.99392 250.536 8.9939Z" fill="white"/>
<path d="M251.529 16.9085C252.164 16.7826 252.764 16.5106 253.287 16.1121C253.438 15.9844 253.535 15.7986 253.557 15.5957C253.578 15.3927 253.521 15.1892 253.4 15.0299C253.279 14.8707 253.102 14.7686 252.909 14.7463C252.716 14.724 252.523 14.7832 252.371 14.9109C251.831 15.2906 251.192 15.4868 250.542 15.4731C249.888 15.4848 249.246 15.2889 248.7 14.9109C248.548 14.7832 248.355 14.724 248.162 14.7463C247.969 14.7686 247.792 14.8707 247.671 15.0299C247.549 15.1892 247.493 15.3927 247.514 15.5957C247.535 15.7986 247.632 15.9844 247.784 16.1121C248.324 16.5189 248.944 16.7939 249.599 16.9174L248.055 18.6144C247.921 18.7615 247.848 18.9585 247.851 19.1622C247.855 19.3658 247.936 19.5596 248.075 19.701C248.215 19.8424 248.402 19.9199 248.595 19.9165C248.789 19.9131 248.973 19.8291 249.108 19.6829L250.543 18.076L252.122 19.6933C252.259 19.8375 252.445 19.9185 252.639 19.9183C252.834 19.9182 253.02 19.8369 253.157 19.6925C253.294 19.548 253.371 19.3521 253.371 19.148C253.371 18.9438 253.293 18.7481 253.156 18.6038L251.529 16.9085Z" fill="white"/>
</g>
</g>
<g clip-path="url(#clip7_229_103)">
<path d="M307.913 6.88892H294.075C293.358 6.88892 292.777 7.4998 292.777 8.25336V22.8075C292.777 23.561 293.358 24.1719 294.075 24.1719H307.913C308.629 24.1719 309.21 23.561 309.21 22.8075V8.25336C309.21 7.4998 308.629 6.88892 307.913 6.88892Z" fill="#03A9F4"/>
<path d="M306.316 12.059C305.916 12.2429 305.492 12.3651 305.059 12.4218C305.516 12.1367 305.857 11.6852 306.019 11.1528C305.591 11.4198 305.123 11.6079 304.635 11.7088C304.336 11.3724 303.947 11.1385 303.52 11.0374C303.093 10.9363 302.647 10.9728 302.239 11.142C301.832 11.3113 301.483 11.6055 301.237 11.9865C300.991 12.3674 300.859 12.8174 300.86 13.2779C300.858 13.4537 300.875 13.6292 300.91 13.801C300.042 13.7561 299.193 13.5192 298.418 13.1056C297.643 12.692 296.959 12.111 296.412 11.4007C296.131 11.906 296.044 12.5052 296.169 13.0758C296.293 13.6464 296.621 14.1454 297.083 14.4707C296.738 14.4609 296.4 14.3638 296.098 14.1876V14.2126C296.098 14.7423 296.273 15.2554 296.591 15.6658C296.909 16.0762 297.352 16.3589 297.846 16.4662C297.659 16.5178 297.467 16.543 297.274 16.5412C297.135 16.5439 296.996 16.531 296.86 16.5026C297.001 16.9581 297.273 17.3564 297.638 17.6427C298.004 17.929 298.444 18.0892 298.9 18.1013C298.128 18.7357 297.177 19.0803 296.197 19.0803C296.022 19.0818 295.848 19.0712 295.675 19.0484C296.674 19.7257 297.838 20.0836 299.026 20.0786C303.042 20.0786 305.238 16.5799 305.238 13.5474C305.238 13.4462 305.238 13.3484 305.23 13.2507C305.658 12.9261 306.026 12.5223 306.316 12.059Z" fill="white"/>
</g>
<line x1="87.4414" y1="21.8066" x2="87.4414" y2="9.07181" stroke="#EBEFF4" stroke-opacity="0.5"/>
<line x1="180.845" y1="21.8066" x2="180.845" y2="9.07181" stroke="#EBEFF4" stroke-opacity="0.5"/>
<line x1="274.251" y1="21.8066" x2="274.251" y2="9.07181" stroke="#EBEFF4" stroke-opacity="0.5"/>
<line x1="40.7363" y1="21.8066" x2="40.7363" y2="9.07181" stroke="#EBEFF4" stroke-opacity="0.5"/>
<line x1="134.143" y1="21.8066" x2="134.143" y2="9.07181" stroke="#EBEFF4" stroke-opacity="0.5"/>
<line x1="227.55" y1="21.8066" x2="227.55" y2="9.07181" stroke="#EBEFF4" stroke-opacity="0.5"/>
<defs>
<clipPath id="clip0_229_103">
<rect width="16.4325" height="17.283" fill="white" transform="translate(9.67188 6.79785)"/>
</clipPath>
<clipPath id="clip1_229_103">
<rect width="16.4325" height="17.283" fill="white" transform="translate(56.373 6.79785)"/>
</clipPath>
<clipPath id="clip2_229_103">
<rect width="16.4325" height="17.283" fill="white" transform="translate(103.076 6.79785)"/>
</clipPath>
<clipPath id="clip3_229_103">
<rect width="16.4325" height="17.283" fill="white" transform="translate(149.778 6.79785)"/>
</clipPath>
<clipPath id="clip4_229_103">
<rect width="16.4325" height="17.283" fill="white" transform="translate(196.48 6.79785)"/>
</clipPath>
<clipPath id="clip5_229_103">
<rect width="16.4325" height="17.283" fill="white" transform="translate(243.184 6.79785)"/>
</clipPath>
<clipPath id="clip6_229_103">
<rect width="14.3121" height="15.0529" fill="white" transform="translate(243.379 6.8772)"/>
</clipPath>
<clipPath id="clip7_229_103">
<rect width="16.4325" height="17.283" fill="white" transform="translate(292.777 6.88892)"/>
</clipPath>
</defs>
</svg>
