<svg width="521" height="44" viewBox="0 0 521 44" fill="none" xmlns="http://www.w3.org/2000/svg">
<rect width="520.667" height="44" rx="10" fill="#F8FAFD" fill-opacity="0.5"/>
<g clip-path="url(#clip0_229_3)">
<path d="M25.4678 34.2861C31.9285 34.2861 37.166 28.7776 37.166 21.9824C37.166 15.1873 31.9285 9.67871 25.4678 9.67871C19.007 9.67871 13.7695 15.1873 13.7695 21.9824C13.7695 28.7776 19.007 34.2861 25.4678 34.2861Z" fill="#41B4E6"/>
<path d="M37.166 21.9828C37.166 21.683 37.1553 21.3859 37.1353 21.0914L32.2869 15.9922L18.6484 21.6346L23.8666 27.1229L23.935 27.3821L24.0237 27.2881L24.024 27.2885L23.935 27.3821L29.7073 33.4531C34.0723 31.6671 37.166 27.2052 37.166 21.9828Z" fill="#0091C8"/>
<path d="M24.3316 23.7753L29.6183 27.9734L32.287 15.9922L18.6484 21.6346L22.7985 23.0804L30.3724 17.737L24.3316 23.7753Z" fill="white"/>
<path d="M22.7988 23.0804L23.9354 27.3821L24.332 23.7754L30.3727 17.7371L22.7988 23.0804Z" fill="#D2D2D7"/>
<path d="M26.0503 25.1398L23.9355 27.3822L24.3321 23.7754L26.0503 25.1398Z" fill="#B9B9BE"/>
</g>
<g clip-path="url(#clip1_229_3)">
<path d="M88.5849 22.4344C86.7296 22.4344 85.2308 24.0109 85.2582 25.943C85.2765 27.183 85.9254 28.2596 86.8804 28.8603C86.556 28.3365 86.364 27.7165 86.3549 27.0484C86.3275 25.1163 87.8263 23.5399 89.6816 23.5399C90.0472 23.5399 90.3991 23.6024 90.7281 23.7129V19.8439C90.3854 19.791 90.0335 19.7622 89.6816 19.7622C89.6633 19.7622 89.6496 19.7622 89.6314 19.7622V22.6075C89.3023 22.4969 88.9505 22.4344 88.5849 22.4344Z" fill="#F00044"/>
<path d="M96.6049 10.8323H96.5774H95.627C95.9011 12.2789 96.6734 13.5382 97.7519 14.3937C97.0436 13.4084 96.614 12.178 96.6049 10.8323Z" fill="#F00044"/>
<path d="M102.199 16.7197C101.838 16.7197 101.491 16.6813 101.148 16.614V19.3872C99.9048 19.3872 98.6985 19.1325 97.5652 18.623C96.834 18.2962 96.1531 17.878 95.5271 17.3734L95.5454 25.9236C95.5362 27.8461 94.8142 29.6484 93.5073 31.0086C92.4426 32.114 91.0945 32.8205 89.6322 33.0464C89.2895 33.0993 88.9376 33.1281 88.5858 33.1281C87.0229 33.1281 85.5332 32.5946 84.3223 31.6093C84.4594 31.7824 84.6056 31.9506 84.7655 32.114C86.0816 33.479 87.8272 34.2335 89.6871 34.2335C90.0389 34.2335 90.3908 34.2047 90.7335 34.1518C92.1958 33.9259 93.5439 33.2194 94.6086 32.114C95.9155 30.7538 96.6375 28.9515 96.6467 27.029L96.5781 18.4788C97.1996 18.9835 97.8805 19.4064 98.6162 19.7284C99.754 20.2331 100.96 20.4926 102.199 20.4926" fill="#F00044"/>
<path d="M84.7526 21.8913C86.055 20.5312 87.7869 19.7766 89.633 19.7622V18.7384C89.2903 18.6856 88.9384 18.6567 88.5866 18.6567C86.7222 18.6567 84.972 19.4113 83.6559 20.7859C82.3627 22.1364 81.6224 23.982 81.627 25.8997C81.627 27.8318 82.3536 29.6437 83.665 31.0135C83.8753 31.2298 84.09 31.4316 84.3185 31.6142C83.2858 30.3214 82.7237 28.7065 82.7191 27.0051C82.7237 25.0874 83.4594 23.2419 84.7526 21.8913Z" fill="#08FFF9"/>
<path d="M101.149 16.614V15.5855H101.139C99.869 15.5855 98.6992 15.1433 97.7578 14.3936C98.5758 15.5278 99.773 16.3353 101.149 16.614Z" fill="#08FFF9"/>
<path d="M89.4967 30.4511C89.9308 30.4751 90.3466 30.4127 90.7305 30.2829C92.0557 29.8263 93.0107 28.5286 93.0107 27.0003L93.0153 21.2809V10.8322H95.6292C95.5606 10.4718 95.5241 10.1065 95.5195 9.72681H91.9186V20.1707L91.914 25.89C91.914 27.4184 90.959 28.7161 89.6338 29.1727C89.2499 29.3072 88.8341 29.3697 88.3999 29.3409C87.847 29.3072 87.3306 29.1342 86.8828 28.8555C87.4449 29.7686 88.4045 30.3886 89.4967 30.4511Z" fill="#08FFF9"/>
<path d="M89.634 33.0465C91.0963 32.8206 92.4443 32.1141 93.5091 31.0087C94.816 29.6485 95.538 27.8462 95.5471 25.9237L95.5289 17.3735C96.1503 17.8782 96.8312 18.3011 97.5669 18.6231C98.7048 19.1278 99.9112 19.3873 101.15 19.3873V16.6141C99.7741 16.3354 98.5768 15.5279 97.7589 14.3937C96.6804 13.5382 95.9036 12.2789 95.634 10.8323H93.0155V21.2761L93.011 26.9955C93.011 28.5239 92.0559 29.8215 90.7307 30.2781C90.3468 30.4127 89.931 30.4752 89.4969 30.4464C88.4002 30.3839 87.4451 29.7639 86.883 28.8555C85.928 28.2595 85.2791 27.1781 85.2608 25.9381C85.2334 24.0061 86.7322 22.4296 88.5875 22.4296C88.9531 22.4296 89.305 22.4921 89.634 22.6026V19.7574C87.7878 19.7718 86.0559 20.5264 84.7536 21.8865C83.4603 23.2371 82.7201 25.0826 82.7246 26.9955C82.7246 28.6969 83.2867 30.3118 84.324 31.6046C85.5396 32.5899 87.0247 33.1234 88.5875 33.1234C88.9394 33.1282 89.2913 33.0994 89.634 33.0465Z" fill="black"/>
</g>
<g clip-path="url(#clip2_229_3)">
<path d="M165.972 33.8667C160.979 34.427 155.944 34.427 150.951 33.8667C149.981 33.7591 149.076 33.3051 148.386 32.5805C147.696 31.8559 147.263 30.9044 147.159 29.8848C146.627 24.6333 146.627 19.337 147.159 14.0855C147.262 13.0657 147.693 12.1136 148.382 11.388C149.071 10.6624 149.976 10.2071 150.945 10.0979C155.938 9.53767 160.974 9.53767 165.967 10.0979C166.937 10.2056 167.842 10.6596 168.532 11.3842C169.222 12.1088 169.655 13.0603 169.758 14.0799C170.291 19.3314 170.291 24.6277 169.758 29.8792C169.656 30.899 169.224 31.851 168.535 32.5767C167.846 33.3023 166.942 33.7576 165.972 33.8667Z" fill="#E60000"/>
<path d="M165.428 18.283C165.136 17.3364 164.168 16.7632 163.277 16.6317C160.074 16.2738 156.843 16.2738 153.639 16.6317C152.749 16.7632 151.778 17.3308 151.488 18.283C151.032 20.7265 151.032 23.2399 151.488 25.6835C151.781 26.6286 152.749 27.2033 153.639 27.3347C156.843 27.6926 160.074 27.6926 163.277 27.3347C164.168 27.2033 165.138 26.6356 165.428 25.6835C165.884 23.2399 165.884 20.7265 165.428 18.283ZM156.709 24.9298V19.0352L161.271 21.9825C159.733 22.9766 158.24 23.9399 156.709 24.9298Z" fill="white"/>
</g>
<g clip-path="url(#clip3_229_3)">
<path fill-rule="evenodd" clip-rule="evenodd" d="M230.803 34.2864H219.105C217.554 34.2864 216.066 33.6382 214.969 32.4845C213.872 31.3308 213.256 29.7661 213.256 28.1345V15.8306C213.256 14.1991 213.872 12.6343 214.969 11.4806C216.066 10.327 217.554 9.67878 219.105 9.67871H230.803C232.355 9.67871 233.842 10.3269 234.939 11.4806C236.036 12.6343 236.653 14.199 236.653 15.8306V28.1345C236.653 29.7661 236.036 31.3309 234.939 32.4846C233.842 33.6383 232.355 34.2864 230.803 34.2864Z" fill="#4682C3"/>
<path fill-rule="evenodd" clip-rule="evenodd" d="M224.223 16.5996H230.803C231.647 16.5996 232.458 16.2588 233.07 15.6478C233.681 15.0367 234.046 14.202 234.089 13.316C234.132 12.4301 233.85 11.5605 233.302 10.8869C232.753 10.2133 231.979 9.78713 231.14 9.6964C231.028 9.68986 230.917 9.67871 230.803 9.67871H219.105C217.554 9.67878 216.066 10.327 214.969 11.4806C213.872 12.6343 213.256 14.1991 213.256 15.8306V28.1345C213.256 25.0753 214.411 22.1414 216.468 19.9782C218.525 17.815 221.314 16.5997 224.223 16.5996Z" fill="#5F9BDC"/>
<path fill-rule="evenodd" clip-rule="evenodd" d="M230.804 21.9825C229.647 21.9825 228.517 22.3433 227.555 23.0193C226.593 23.6953 225.843 24.6561 225.4 25.7802C224.958 26.9043 224.842 28.1412 225.067 29.3346C225.293 30.528 225.85 31.6241 226.668 32.4845C227.486 33.3449 228.529 33.9308 229.663 34.1681C230.798 34.4055 231.974 34.2837 233.043 33.8181C234.111 33.3524 235.025 32.5639 235.668 31.5523C236.31 30.5406 236.653 29.3512 236.653 28.1344V15.8306C236.653 17.4622 236.037 19.0269 234.94 20.1806C233.843 21.3343 232.356 21.9825 230.804 21.9825Z" fill="#2D69AA"/>
<path fill-rule="evenodd" clip-rule="evenodd" d="M232.675 18.0623C232.793 17.6709 232.675 17.3867 232.15 17.3867H230.408C230.246 17.3773 230.085 17.422 229.948 17.5146C229.812 17.6073 229.706 17.743 229.648 17.9024C229.103 19.2534 228.38 20.5169 227.499 21.6554C227.093 22.0822 226.908 22.2249 226.688 22.2249C226.569 22.2249 226.417 22.0822 226.417 21.6908V18.0446C226.417 17.5821 226.281 17.3687 225.91 17.3687H223.239C223.183 17.3659 223.127 17.3747 223.075 17.3947C223.023 17.4147 222.975 17.4455 222.934 17.4852C222.893 17.5249 222.86 17.5728 222.837 17.6261C222.814 17.6793 222.801 17.7369 222.799 17.7955C222.799 18.2403 223.425 18.3468 223.492 19.5922V22.2956C223.492 22.8827 223.391 22.9896 223.171 22.9896C222.579 22.9896 220.903 20.6949 220.041 18.08C219.871 17.564 219.703 17.3687 219.263 17.3687H217.504C216.997 17.3687 216.912 17.6174 216.912 17.8843C216.912 19.0593 220.07 27.3475 225.166 27.3475C226.281 27.3475 226.417 27.081 226.417 26.6362V24.9821C226.417 24.448 226.519 24.3592 226.874 24.3592C227.781 24.3592 229.422 26.4901 229.846 26.9365C229.944 27.0664 230.068 27.1722 230.209 27.2463C230.35 27.3205 230.505 27.3612 230.662 27.3656H232.404C232.911 27.3656 233.088 27.0414 232.953 26.5258C232.639 25.4646 230.457 23.2814 230.341 23.1142C230.087 22.7582 230.155 22.6163 230.341 22.2956C230.324 22.2956 232.455 19.1297 232.675 18.0623Z" fill="white"/>
</g>
<g clip-path="url(#clip4_229_3)">
<path fill-rule="evenodd" clip-rule="evenodd" d="M297.298 34.2864H285.599C284.831 34.2865 284.07 34.1275 283.361 33.8183C282.651 33.5092 282.006 33.056 281.463 32.4848C280.92 31.9135 280.489 31.2353 280.195 30.4888C279.901 29.7424 279.75 28.9424 279.75 28.1345V15.8306C279.75 15.0227 279.901 14.2227 280.195 13.4763C280.489 12.7299 280.92 12.0516 281.463 11.4804C282.006 10.9091 282.651 10.4559 283.361 10.1468C284.07 9.83768 284.831 9.67862 285.599 9.67871H297.298C298.066 9.67862 298.826 9.83768 299.536 10.1468C300.246 10.4559 300.891 10.9091 301.434 11.4804C301.977 12.0516 302.408 12.7299 302.702 13.4763C302.996 14.2227 303.147 15.0227 303.147 15.8306V28.1345C303.147 28.9424 302.996 29.7424 302.702 30.4888C302.408 31.2353 301.977 31.9135 301.434 32.4848C300.891 33.056 300.246 33.5092 299.536 33.8183C298.826 34.1275 298.066 34.2865 297.298 34.2864Z" fill="#7387DC"/>
<path fill-rule="evenodd" clip-rule="evenodd" d="M290.717 16.5996H297.298C298.141 16.5996 298.952 16.2588 299.564 15.6478C300.175 15.0367 300.54 14.202 300.583 13.316C300.627 12.4301 300.345 11.5605 299.796 10.8869C299.247 10.2133 298.473 9.78713 297.634 9.6964C297.521 9.68986 297.411 9.67871 297.298 9.67871H285.599C284.831 9.67862 284.07 9.83768 283.361 10.1468C282.651 10.4559 282.006 10.9091 281.463 11.4804C280.92 12.0516 280.489 12.7299 280.195 13.4763C279.901 14.2227 279.75 15.0227 279.75 15.8306V28.1345C279.75 25.0753 280.905 22.1413 282.962 19.9781C285.019 17.8149 287.809 16.5996 290.717 16.5996Z" fill="#8CA0F5"/>
<path fill-rule="evenodd" clip-rule="evenodd" d="M297.298 21.9825C296.142 21.9825 295.011 22.3433 294.049 23.0193C293.087 23.6953 292.337 24.6561 291.894 25.7802C291.452 26.9043 291.336 28.1412 291.562 29.3346C291.787 30.528 292.344 31.6241 293.162 32.4845C293.98 33.3449 295.023 33.9308 296.157 34.1681C297.292 34.4055 298.468 34.2837 299.537 33.8181C300.606 33.3524 301.519 32.5639 302.162 31.5523C302.805 30.5406 303.148 29.3512 303.148 28.1344V15.8306C303.148 16.6385 302.996 17.4385 302.703 18.1849C302.409 18.9313 301.978 19.6096 301.435 20.1808C300.891 20.7521 300.247 21.2053 299.537 21.5144C298.827 21.8235 298.067 21.9826 297.298 21.9825Z" fill="#5A6EC3"/>
<path d="M289.924 21.776C289.737 21.7593 289.55 21.8022 289.387 21.8993C289.224 21.9963 289.092 22.143 289.009 22.3199C288.927 22.4969 288.897 22.696 288.924 22.8912C288.95 23.0863 289.033 23.2685 289.159 23.4137C289.286 23.5589 289.452 23.6605 289.634 23.7051C289.817 23.7497 290.008 23.7353 290.183 23.6637C290.357 23.5921 290.508 23.4668 290.613 23.304C290.719 23.1412 290.776 22.9486 290.776 22.7515C290.786 22.5033 290.702 22.2611 290.542 22.0782C290.382 21.8953 290.16 21.7866 289.924 21.776Z" fill="white"/>
<path d="M292.973 21.776C292.786 21.7593 292.599 21.8022 292.436 21.8993C292.272 21.9963 292.141 22.143 292.058 22.3199C291.976 22.4969 291.946 22.696 291.972 22.8912C291.999 23.0863 292.081 23.2685 292.208 23.4137C292.335 23.5589 292.501 23.6605 292.683 23.7051C292.866 23.7497 293.057 23.7353 293.232 23.6637C293.406 23.5921 293.556 23.4668 293.662 23.304C293.768 23.1412 293.825 22.9486 293.825 22.7515C293.835 22.5033 293.75 22.2611 293.591 22.0782C293.431 21.8953 293.209 21.7866 292.973 21.776Z" fill="white"/>
<path d="M298.76 16.2128C298.76 15.9755 298.716 15.7404 298.63 15.5209C298.545 15.3015 298.418 15.102 298.259 14.9339C298.1 14.7658 297.911 14.6323 297.702 14.5411C297.494 14.45 297.271 14.4029 297.045 14.4026H285.851C285.626 14.4029 285.402 14.45 285.194 14.5411C284.986 14.6323 284.796 14.7658 284.637 14.9339C284.478 15.102 284.352 15.3015 284.266 15.5209C284.18 15.7404 284.136 15.9755 284.137 16.2128V27.8619C284.136 28.0992 284.18 28.3343 284.266 28.5538C284.352 28.7733 284.478 28.9728 284.637 29.141C284.796 29.3091 284.986 29.4426 285.194 29.5338C285.402 29.625 285.626 29.6721 285.851 29.6724H294.808C294.864 29.6726 294.92 29.6589 294.971 29.6324C295.022 29.6059 295.066 29.5674 295.1 29.5198C295.134 29.4722 295.157 29.4169 295.167 29.3583C295.178 29.2997 295.175 29.2394 295.159 29.1822C295.034 28.732 294.874 28.1345 294.874 28.1345C294.874 28.1345 297.049 30.2857 298.142 31.37C298.194 31.4217 298.259 31.4563 298.33 31.4695C298.4 31.4826 298.473 31.4737 298.538 31.444C298.604 31.4142 298.66 31.3648 298.699 31.3019C298.739 31.239 298.76 31.1654 298.76 31.0901V16.2128ZM293.89 25.8744C293.853 25.8762 293.817 25.8688 293.783 25.8529C293.749 25.837 293.72 25.813 293.696 25.7829L293.437 25.4472C293.413 25.4166 293.397 25.3806 293.389 25.3421C293.381 25.3035 293.382 25.2636 293.392 25.2255C293.401 25.1874 293.419 25.1522 293.444 25.1229C293.469 25.0935 293.501 25.0708 293.536 25.0566C294.015 24.8799 294.432 24.554 294.731 24.1223C293.748 24.7739 292.61 25.1196 291.448 25.1196C290.286 25.1196 289.148 24.7739 288.165 24.1223C288.465 24.554 288.881 24.8799 289.361 25.0566C289.396 25.0708 289.427 25.0935 289.452 25.1229C289.477 25.1522 289.495 25.1874 289.505 25.2255C289.514 25.2636 289.515 25.3035 289.507 25.3421C289.5 25.3806 289.483 25.4166 289.459 25.4472L289.2 25.7829C289.177 25.813 289.147 25.837 289.113 25.8529C289.08 25.8688 289.043 25.8762 289.006 25.8744C288.529 25.8705 288.059 25.748 287.635 25.5168C287.212 25.2857 286.846 24.9525 286.568 24.5444C286.595 22.7628 287.006 21.0108 287.771 19.4206C288.435 18.8781 289.238 18.5568 290.077 18.4982C290.09 18.498 290.103 18.5007 290.115 18.5063C290.127 18.5119 290.138 18.5202 290.147 18.5305C290.157 18.5421 290.164 18.5562 290.167 18.5715C290.171 18.5868 290.17 18.6027 290.166 18.6178C290.162 18.6329 290.155 18.6466 290.144 18.6578C290.134 18.669 290.121 18.6772 290.107 18.6816C289.393 18.8964 288.729 19.2615 288.154 19.7548C289.164 19.1723 290.297 18.867 291.448 18.867C292.6 18.867 293.733 19.1723 294.742 19.7548C294.167 19.2615 293.503 18.8964 292.79 18.6816C292.776 18.6772 292.763 18.669 292.752 18.6578C292.742 18.6466 292.734 18.6329 292.73 18.6178C292.726 18.6027 292.726 18.5868 292.729 18.5715C292.733 18.5562 292.74 18.5421 292.75 18.5305C292.758 18.5202 292.769 18.5119 292.781 18.5063C292.793 18.5007 292.806 18.498 292.819 18.4982C293.658 18.5568 294.462 18.8781 295.126 19.4206C295.89 21.0108 296.302 22.7628 296.329 24.5444C296.051 24.9525 295.685 25.2857 295.261 25.5168C294.837 25.748 294.368 25.8705 293.89 25.8744Z" fill="white"/>
</g>
<g clip-path="url(#clip5_229_3)">
<path fill-rule="evenodd" clip-rule="evenodd" d="M346.273 26.2571C346.273 30.6754 349.855 34.2571 354.273 34.2571H361.624C366.043 34.2571 369.624 30.6754 369.624 26.2571V17.6972C369.624 13.2789 366.043 9.69716 361.624 9.69716H354.273C349.855 9.69716 346.273 13.2789 346.273 17.6972V26.2571Z" fill="#4F535B" stroke="#4F535B" stroke-width="0.5669"/>
<path fill-rule="evenodd" clip-rule="evenodd" d="M353.58 22.5132L363.558 12.0188C364.577 12.599 365.314 13.4252 365.743 14.3666L355.787 24.8376L353.58 22.5132Z" fill="#FF8434" stroke="#FF8434" stroke-width="0.5669"/>
<path fill-rule="evenodd" clip-rule="evenodd" d="M355.787 24.8377L365.743 14.3667C366.57 16.1852 366.249 18.4329 364.602 20.1669L357.966 27.1287L355.787 24.8377Z" fill="#FFCB3A" stroke="#FFCB3A" stroke-width="0.5669"/>
<path fill-rule="evenodd" clip-rule="evenodd" d="M351.355 20.1707L358.3 12.8663C359.835 11.4658 361.559 11.1441 363.487 11.9783C363.504 11.9874 363.519 11.9968 363.535 12.0055L353.563 22.4944L351.355 20.1707Z" fill="#FF474C" stroke="#FF474C" stroke-width="0.5669"/>
<path fill-rule="evenodd" clip-rule="evenodd" d="M351.265 20.0875L350.853 19.6541C349.668 18.2247 349.36 16.0552 350.159 14.2792L353.535 17.8301L351.332 20.1482C351.309 20.128 351.287 20.1077 351.265 20.0875Z" fill="#9330FD" stroke="#9330FD" stroke-width="0.5669"/>
<path fill-rule="evenodd" clip-rule="evenodd" d="M353.525 17.8411L350.152 14.2941C350.569 13.3611 351.289 12.5356 352.348 11.9808L352.363 11.9738L355.733 15.5184L353.525 17.8411Z" fill="#C43FF8" stroke="#C43FF8" stroke-width="0.5669"/>
<path fill-rule="evenodd" clip-rule="evenodd" d="M355.733 15.5183L352.363 11.9738C354.395 11.0401 356.178 11.4766 357.785 13.031L357.942 13.196L355.733 15.5183Z" fill="#DD48E2" stroke="#DD48E2" stroke-width="0.5669"/>
<path fill-rule="evenodd" clip-rule="evenodd" d="M350.538 27.084H351.218V31.1806C351.211 31.481 351.331 31.6753 351.627 31.7241L353.615 31.7235V32.468H351.55C350.952 32.468 350.522 31.9481 350.538 31.4503V27.084Z" fill="white" stroke="white" stroke-width="0.216"/>
<path fill-rule="evenodd" clip-rule="evenodd" d="M354.188 32.468H354.868V29.003H354.188V32.468Z" fill="white" stroke="white" stroke-width="0.216"/>
<path fill-rule="evenodd" clip-rule="evenodd" d="M355.576 27.1126H356.257V30.1195L357.727 28.2298H358.599L357.073 30.2776L358.681 32.468H357.782L356.257 30.4039V32.468H355.576V27.1126Z" fill="white" stroke="white" stroke-width="0.216"/>
<path fill-rule="evenodd" clip-rule="evenodd" d="M354.545 27.0839C354.312 27.0839 354.123 27.2828 354.123 27.5277C354.123 27.7723 354.312 27.9712 354.545 27.9712C354.778 27.9712 354.967 27.7723 354.967 27.5277C354.967 27.2828 354.778 27.0839 354.545 27.0839Z" fill="white" stroke="white" stroke-width="0.216"/>
<path fill-rule="evenodd" clip-rule="evenodd" d="M359.986 28.0617C361.006 28.099 361.57 28.8129 361.795 29.9479L358.939 30.8453C359.103 32.0148 360.657 32.1394 361.076 30.922L361.694 31.0448C360.778 33.3033 358.359 32.691 358.234 30.265C358.2 29.2291 358.871 28.1426 359.986 28.0617ZM361.079 29.571L358.911 30.2333C358.674 28.7581 360.395 28.0795 361.079 29.571Z" fill="white" stroke="white" stroke-width="0.216"/>
<path fill-rule="evenodd" clip-rule="evenodd" d="M363.596 28.0617C364.615 28.099 365.179 28.8129 365.404 29.9479L362.549 30.8453C362.712 32.0148 364.267 32.1394 364.686 30.922L365.303 31.0448C364.387 33.3033 361.968 32.691 361.843 30.265C361.81 29.2291 362.48 28.1426 363.596 28.0617ZM364.689 29.5711L362.52 30.2333C362.284 28.7581 364.004 28.0795 364.689 29.5711Z" fill="white" stroke="white" stroke-width="0.216"/>
</g>
<g clip-path="url(#clip6_229_3)">
<path fill-rule="evenodd" clip-rule="evenodd" d="M430.292 34.2864H418.593C417.042 34.2864 415.554 33.6382 414.457 32.4845C413.36 31.3308 412.744 29.7661 412.744 28.1345V15.8306C412.744 14.1991 413.36 12.6343 414.457 11.4806C415.554 10.327 417.042 9.67878 418.593 9.67871H430.292C431.843 9.67871 433.331 10.3269 434.428 11.4806C435.525 12.6343 436.141 14.199 436.141 15.8306V28.1345C436.141 29.7661 435.525 31.3309 434.428 32.4846C433.331 33.6383 431.843 34.2864 430.292 34.2864Z" fill="#FF9600"/>
<path fill-rule="evenodd" clip-rule="evenodd" d="M423.711 16.5996H430.292C431.135 16.5996 431.946 16.2588 432.558 15.6478C433.169 15.0367 433.534 14.202 433.578 13.316C433.621 12.4301 433.339 11.5605 432.79 10.8869C432.241 10.2133 431.467 9.78713 430.628 9.6964C430.516 9.68986 430.405 9.67871 430.292 9.67871H418.593C417.042 9.67878 415.554 10.327 414.457 11.4806C413.36 12.6343 412.744 14.1991 412.744 15.8306V28.1345C412.744 25.0753 413.9 22.1414 415.956 19.9782C418.013 17.815 420.803 16.5997 423.711 16.5996Z" fill="#FFB400"/>
<path fill-rule="evenodd" clip-rule="evenodd" d="M430.293 21.9825C429.136 21.9825 428.005 22.3433 427.043 23.0193C426.081 23.6953 425.331 24.6561 424.889 25.7802C424.446 26.9043 424.33 28.1412 424.556 29.3346C424.781 30.528 425.339 31.6241 426.157 32.4845C426.975 33.3449 428.017 33.9308 429.151 34.1681C430.286 34.4055 431.462 34.2837 432.531 33.8181C433.6 33.3524 434.513 32.5639 435.156 31.5523C435.799 30.5406 436.142 29.3512 436.142 28.1344V15.8306C436.142 17.4622 435.525 19.0269 434.429 20.1806C433.332 21.3343 431.844 21.9825 430.293 21.9825Z" fill="#FF7800"/>
<path d="M424.443 19.6802C424.084 19.6802 423.732 19.5681 423.433 19.3579C423.134 19.1477 422.901 18.849 422.763 18.4994C422.625 18.1499 422.589 17.7652 422.659 17.3941C422.729 17.023 422.903 16.6821 423.157 16.4145C423.411 16.147 423.735 15.9647 424.088 15.8909C424.441 15.817 424.807 15.8549 425.139 15.9996C425.471 16.1444 425.756 16.3896 425.955 16.7041C426.155 17.0187 426.262 17.3886 426.262 17.7669C426.262 18.0182 426.215 18.2669 426.124 18.4991C426.032 18.7312 425.898 18.9421 425.73 19.1198C425.561 19.2974 425.36 19.4383 425.139 19.5345C424.919 19.6307 424.682 19.6802 424.443 19.6802ZM424.443 13.1392C423.573 13.1391 422.722 13.4105 421.999 13.919C421.275 14.4275 420.711 15.1503 420.378 15.996C420.045 16.8417 419.958 17.7722 420.128 18.67C420.297 19.5677 420.716 20.3924 421.332 21.0396C421.947 21.6869 422.731 22.1276 423.585 22.3062C424.438 22.4848 425.323 22.3931 426.127 22.0428C426.931 21.6925 427.618 21.0993 428.102 20.3382C428.585 19.5771 428.843 18.6823 428.843 17.7669C428.843 16.5396 428.38 15.3625 427.555 14.4947C426.729 13.6268 425.61 13.1392 424.443 13.1392Z" fill="white"/>
<path d="M426.067 26.0773C427.104 25.8714 428.085 25.4269 428.94 24.7754C429.188 24.5666 429.346 24.263 429.381 23.9312C429.416 23.5994 429.324 23.2668 429.125 23.0064C428.927 22.746 428.638 22.5792 428.322 22.5427C428.007 22.5062 427.691 22.603 427.443 22.8118C426.56 23.4325 425.516 23.7532 424.454 23.7308C423.385 23.7499 422.335 23.4297 421.441 22.8118C421.194 22.603 420.877 22.5062 420.562 22.5427C420.246 22.5792 419.958 22.746 419.759 23.0064C419.561 23.2668 419.469 23.5994 419.503 23.9312C419.538 24.263 419.697 24.5666 419.944 24.7754C420.828 25.4404 421.841 25.8901 422.911 26.0919L420.387 28.8661C420.168 29.1066 420.048 29.4286 420.055 29.7615C420.061 30.0945 420.193 30.4112 420.42 30.6423C420.648 30.8735 420.954 31.0002 421.271 30.9946C421.587 30.9891 421.889 30.8518 422.109 30.6128L424.454 27.986L427.036 30.6298C427.26 30.8656 427.564 30.9979 427.882 30.9977C428.199 30.9974 428.503 30.8646 428.728 30.6284C428.952 30.3922 429.078 30.0721 429.077 29.7383C429.077 29.4046 428.951 29.0846 428.726 28.8488L426.067 26.0773Z" fill="white"/>
</g>
<g clip-path="url(#clip7_229_3)">
<path d="M500.79 9.67871H481.087C480.067 9.67871 479.24 10.5485 479.24 11.6214V32.3437C479.24 33.4166 480.067 34.2864 481.087 34.2864H500.79C501.81 34.2864 502.637 33.4166 502.637 32.3437V11.6214C502.637 10.5485 501.81 9.67871 500.79 9.67871Z" fill="#03A9F4"/>
<path d="M498.516 17.0399C497.946 17.3017 497.343 17.4757 496.726 17.5564C497.377 17.1505 497.863 16.5076 498.093 15.7496C497.484 16.1298 496.817 16.3976 496.123 16.5413C495.697 16.0623 495.144 15.7292 494.536 15.5853C493.927 15.4414 493.292 15.4933 492.712 15.7343C492.132 15.9753 491.635 16.3942 491.284 16.9366C490.934 17.479 490.747 18.1197 490.748 18.7754C490.745 19.0257 490.77 19.2755 490.82 19.5201C489.584 19.4563 488.374 19.1189 487.271 18.53C486.167 17.9411 485.194 17.1139 484.415 16.1026C484.015 16.822 483.891 17.6752 484.068 18.4876C484.246 19.3001 484.712 20.0105 485.371 20.4737C484.879 20.4597 484.397 20.3214 483.967 20.0705V20.1062C483.968 20.8603 484.217 21.591 484.67 22.1753C485.123 22.7596 485.754 23.162 486.456 23.3149C486.19 23.3883 485.917 23.4242 485.642 23.4217C485.444 23.4256 485.246 23.4071 485.052 23.3667C485.253 24.0153 485.641 24.5824 486.161 24.99C486.681 25.3976 487.308 25.6257 487.957 25.6429C486.858 26.5462 485.503 27.0369 484.109 27.0368C483.86 27.039 483.612 27.0239 483.365 26.9915C484.787 27.9558 486.445 28.4653 488.137 28.4582C493.855 28.4582 496.982 23.4768 496.982 19.1591C496.982 19.015 496.982 18.8758 496.971 18.7365C497.58 18.2744 498.103 17.6995 498.516 17.0399Z" fill="white"/>
</g>
<line x1="124.711" y1="31.0486" x2="124.711" y2="12.9166" stroke="#EBEFF4" stroke-opacity="0.5"/>
<line x1="257.701" y1="31.0486" x2="257.701" y2="12.9166" stroke="#EBEFF4" stroke-opacity="0.5"/>
<line x1="390.695" y1="31.0486" x2="390.695" y2="12.9166" stroke="#EBEFF4" stroke-opacity="0.5"/>
<line x1="58.2109" y1="31.0486" x2="58.2109" y2="12.9166" stroke="#EBEFF4" stroke-opacity="0.5"/>
<line x1="191.205" y1="31.0486" x2="191.205" y2="12.9166" stroke="#EBEFF4" stroke-opacity="0.5"/>
<line x1="324.199" y1="31.0486" x2="324.199" y2="12.9166" stroke="#EBEFF4" stroke-opacity="0.5"/>
<line x1="457.191" y1="31.0486" x2="457.191" y2="12.9166" stroke="#EBEFF4" stroke-opacity="0.5"/>
<defs>
<clipPath id="clip0_229_3">
<rect width="23.3967" height="24.6077" fill="white" transform="translate(13.7695 9.67871)"/>
</clipPath>
<clipPath id="clip1_229_3">
<rect width="23.3967" height="24.6077" fill="white" transform="translate(80.2656 9.67871)"/>
</clipPath>
<clipPath id="clip2_229_3">
<rect width="23.3967" height="24.6077" fill="white" transform="translate(146.76 9.67871)"/>
</clipPath>
<clipPath id="clip3_229_3">
<rect width="23.3967" height="24.6077" fill="white" transform="translate(213.256 9.67871)"/>
</clipPath>
<clipPath id="clip4_229_3">
<rect width="23.3967" height="24.6077" fill="white" transform="translate(279.75 9.67871)"/>
</clipPath>
<clipPath id="clip5_229_3">
<rect width="23.3967" height="24.6077" fill="white" transform="translate(346.248 9.67871)"/>
</clipPath>
<clipPath id="clip6_229_3">
<rect width="23.3967" height="24.6077" fill="white" transform="translate(412.744 9.67871)"/>
</clipPath>
<clipPath id="clip7_229_3">
<rect width="23.3967" height="24.6077" fill="white" transform="translate(479.24 9.67871)"/>
</clipPath>
</defs>
</svg>
