<svg width="24" height="24" viewBox="0 0 24 24" fill="none" xmlns="http://www.w3.org/2000/svg">
<path d="M14.6359 1.31812H9.36408C0.187406 1.31812 0 5.64205 0 10.6821C0 15.6954 0.212063 19.9547 9.07134 20.0447L11.5028 22.4762C11.6401 22.6135 11.8201 22.6821 12 22.6821C12.1799 22.6821 12.3599 22.6135 12.4972 22.4762L14.9287 20.0447C23.7879 19.9547 24 15.6954 24 10.6821C24 5.64205 23.8126 1.31812 14.6359 1.31812Z" fill="#4E90D9"/>
<path d="M14.9287 20.0447C23.7879 19.9546 24 15.6954 24 10.6821C24 5.64198 23.8126 1.31799 14.6359 1.31799H12V22.6821C12.18 22.6821 12.3599 22.6134 12.4972 22.4761L14.9287 20.0447Z" fill="#3990F1"/>
<path d="M12 16.6571C11.8748 16.6571 11.7496 16.6237 11.6383 16.5569C11.3937 16.4102 5.64844 12.9156 5.64844 8.79925C5.64844 6.9581 7.14633 5.46021 8.98748 5.46021C10.3689 5.46021 11.3997 6.27016 12 6.91258C12.6003 6.27016 13.6311 5.46021 15.0125 5.46021C16.8537 5.46021 18.3516 6.9581 18.3516 8.79925C18.3516 12.9156 12.6063 16.4101 12.3617 16.5569C12.2504 16.6237 12.1252 16.6571 12 16.6571Z" fill="#FFF5F0"/>
<path d="M18.3516 8.79925C18.3516 6.9581 16.8537 5.46021 15.0125 5.46021C13.6311 5.46021 12.6003 6.27016 12 6.91258V16.657C12.1252 16.657 12.2504 16.6237 12.3617 16.5568C12.6063 16.4101 18.3516 12.9156 18.3516 8.79925Z" fill="#E6E3E1"/>
</svg>
