<svg width="180" height="43" viewBox="0 0 180 43" fill="none" xmlns="http://www.w3.org/2000/svg">
<path d="M121.052 27.8446C121.052 28.5169 120.52 29.1332 119.455 29.6935C118.391 30.2351 117.074 30.5059 115.505 30.5059C112.872 30.5059 110.762 29.6281 109.174 27.8726C107.587 26.0984 106.793 23.7825 106.793 20.9251C106.793 17.9369 107.587 15.6024 109.174 13.9216C110.762 12.2221 112.909 11.3723 115.617 11.3723C117.074 11.3723 118.297 11.6711 119.287 12.2688C120.277 12.8477 120.772 13.5668 120.772 14.4258C120.772 15.1916 120.24 15.6585 119.175 15.8266C118.82 14.9114 118.26 14.2297 117.494 13.7815C116.729 13.3146 115.916 13.0812 115.057 13.0812C113.302 13.0812 111.864 13.7815 110.743 15.1822C109.641 16.5643 109.09 18.2918 109.09 20.3648C109.09 22.7554 109.65 24.763 110.771 26.3879C111.892 27.994 113.451 28.7971 115.449 28.7971C116.943 28.7971 118.148 28.3488 119.063 27.4524C119.026 25.1179 118.96 23.2316 118.867 21.7935C119.185 21.7375 119.521 21.7095 119.876 21.7095C120.791 21.7095 121.248 22.0644 121.248 22.774L121.164 24.5669C121.089 25.7622 121.052 26.8548 121.052 27.8446Z" fill="white"/>
<path d="M125.065 15.8546C125.401 15.7425 125.793 15.6865 126.241 15.6865C126.746 15.6865 127.11 15.7705 127.334 15.9386C127.577 16.1067 127.698 16.3962 127.698 16.807C127.698 17.4234 127.633 18.7774 127.502 20.8691C127.39 22.9608 127.334 24.595 127.334 25.7715C127.334 26.7614 127.623 27.5084 128.202 28.0127C128.781 28.5169 129.463 28.7691 130.247 28.7691C130.957 28.7691 131.704 28.601 132.488 28.2648C133.273 27.9286 133.908 27.5364 134.393 27.0882C134.393 26.9948 134.393 26.7614 134.393 26.3879C134.412 25.9957 134.421 25.3327 134.421 24.3989C134.421 23.4651 134.421 22.2698 134.421 20.8131C134.421 18.8707 134.365 17.1899 134.253 15.7705C134.552 15.7145 134.916 15.6865 135.346 15.6865C136.205 15.6865 136.635 15.9666 136.635 16.5269C136.635 16.5456 136.616 16.8164 136.578 17.3393C136.56 17.8436 136.532 18.6373 136.494 19.7205C136.457 20.8037 136.438 22.055 136.438 23.4744C136.438 25.7342 136.457 27.247 136.494 28.0127C136.55 28.7784 136.681 29.4881 136.887 30.1417C136.569 30.2351 136.158 30.2818 135.654 30.2818C135.168 30.2818 134.832 30.1978 134.646 30.0297C134.459 29.8429 134.365 29.5068 134.365 29.0212V28.685C133.749 29.1893 133.021 29.6095 132.18 29.9456C131.34 30.2631 130.565 30.4219 129.855 30.4219C128.436 30.4219 127.306 30.1044 126.465 29.4694C125.644 28.8344 125.233 27.6952 125.233 26.0517C125.233 25.1926 125.261 24.0347 125.317 22.5779C125.392 21.1025 125.429 20.01 125.429 19.3003C125.429 17.8809 125.307 16.7323 125.065 15.8546Z" fill="white"/>
<path d="M147.618 24.3148C147.263 23.4744 146.507 21.4854 145.349 18.3478C144.415 21.0372 143.678 23.0168 143.136 24.2868C144.257 24.3242 145.116 24.3428 145.713 24.3428C146.591 24.3428 147.226 24.3335 147.618 24.3148ZM145.265 25.8276C144.873 25.8276 143.967 25.8089 142.548 25.7715C142.454 25.9957 142.249 26.4906 141.931 27.2563C141.633 28.022 141.39 28.6663 141.203 29.1893C141.016 29.6935 140.857 30.1884 140.727 30.674C139.625 30.5246 139.074 30.2351 139.074 29.8056C139.074 29.6188 139.158 29.3107 139.326 28.8811C139.513 28.4516 139.821 27.7419 140.251 26.752C140.699 25.7435 141.119 24.735 141.511 23.7265C142.968 19.9726 143.92 17.3393 144.369 15.8266C144.667 15.7705 145.013 15.7425 145.405 15.7425C145.816 15.7425 146.105 15.8079 146.274 15.9386C146.442 16.0507 146.628 16.3775 146.834 16.9191C146.983 17.3113 147.385 18.4038 148.038 20.1967C148.711 21.971 149.234 23.3343 149.607 24.2868C150.504 26.4906 151.381 28.4049 152.241 30.0297C151.718 30.2911 151.297 30.4219 150.98 30.4219C150.42 30.4219 150.037 30.2351 149.831 29.8616C149.719 29.6001 149.168 28.2368 148.178 25.7715C146.572 25.8089 145.601 25.8276 145.265 25.8276Z" fill="white"/>
<path d="M162.908 28.2648C163.319 28.6757 163.767 28.8811 164.253 28.8811C164.346 28.8811 164.542 28.8624 164.841 28.8251C164.972 29.0865 165.037 29.3293 165.037 29.5534C165.037 30.1324 164.43 30.4219 163.216 30.4219C162.675 30.4219 162.152 30.2258 161.648 29.8336C161.143 29.4227 160.658 28.8438 160.191 28.0967C159.724 27.331 159.36 26.696 159.098 26.1918C158.856 25.6688 158.557 25.0058 158.202 24.2028C157.847 24.1281 157.67 23.9413 157.67 23.6425C157.67 23.4557 157.735 23.1756 157.866 22.8021C158.277 22.8954 158.631 22.9421 158.93 22.9421C159.789 22.9421 160.49 22.6807 161.031 22.1577C161.573 21.6161 161.844 20.8878 161.844 19.9726C161.844 18.8894 161.545 18.133 160.947 17.7035C160.35 17.2739 159.434 17.0592 158.202 17.0592C158.09 17.0592 157.53 17.0872 156.521 17.1432C156.596 18.0023 156.633 19.4684 156.633 21.5414V25.8556C156.633 27.7979 156.773 29.2266 157.053 30.1417C156.736 30.2351 156.325 30.2818 155.821 30.2818C155.316 30.2818 154.971 30.1884 154.784 30.0017C154.616 29.8149 154.532 29.4974 154.532 29.0492C154.532 28.8251 154.541 28.2555 154.56 27.3403C154.579 26.4252 154.588 25.7062 154.588 25.1833V20.8131C154.588 18.7587 154.485 17.0872 154.28 15.7985C155.288 15.6305 156.465 15.5464 157.81 15.5464C161.993 15.5464 164.085 17.0125 164.085 19.9446C164.085 21.1025 163.749 22.0457 163.076 22.774C162.423 23.5024 161.545 23.988 160.443 24.2308C161.582 26.4159 162.404 27.7605 162.908 28.2648Z" fill="white"/>
<path d="M167.841 29.0772C168.047 27.8259 168.168 25.3793 168.205 21.7375C168.205 19.2349 168.112 17.2553 167.925 15.7985C168.822 15.6305 170.026 15.5464 171.539 15.5464C172.753 15.5464 173.836 15.6678 174.789 15.9106C175.76 16.1534 176.647 16.5549 177.45 17.1152C178.272 17.6568 178.898 18.4225 179.327 19.4124C179.775 20.4022 179.999 21.5881 179.999 22.9701C179.999 25.1366 179.374 26.9201 178.122 28.3208C176.871 29.7215 175.097 30.4219 172.8 30.4219C170.652 30.4219 168.999 29.9737 167.841 29.0772ZM170.138 17.1432C170.194 17.8903 170.223 19.0388 170.223 20.5889C170.223 23.7639 170.12 26.2758 169.914 28.1247C170.68 28.629 171.651 28.8811 172.828 28.8811C173.743 28.8811 174.537 28.713 175.209 28.3769C175.881 28.0407 176.395 27.5925 176.75 27.0322C177.105 26.4532 177.357 25.8649 177.506 25.2673C177.674 24.651 177.758 24.016 177.758 23.3623C177.758 21.2706 177.217 19.7018 176.133 18.656C175.069 17.5914 173.538 17.0592 171.539 17.0592C171.408 17.0592 171.268 17.0685 171.119 17.0872C170.97 17.0872 170.792 17.0965 170.587 17.1152C170.4 17.1339 170.251 17.1432 170.138 17.1432Z" fill="white"/>
<path d="M59.1527 15.2943C58.8352 14.678 58.2656 14.1737 57.4438 13.7815C56.6221 13.3707 55.7723 13.1652 54.8946 13.1652C53.9421 13.1652 53.139 13.4267 52.4853 13.9496C51.8504 14.4725 51.5329 15.2383 51.5329 16.2468C51.5329 17.0125 51.7663 17.6475 52.2332 18.1517C52.7188 18.6373 53.3164 18.9828 54.0261 19.1882C54.7358 19.375 55.5109 19.6085 56.3513 19.8886C57.1917 20.1687 57.9668 20.4582 58.6765 20.757C59.3861 21.0558 59.9744 21.5694 60.4413 22.2978C60.9269 23.0262 61.1697 23.932 61.1697 25.0152C61.1697 25.9863 60.9829 26.8454 60.6094 27.5925C60.2359 28.3208 59.7317 28.8904 59.0967 29.3013C58.4617 29.7122 57.7707 30.0203 57.0236 30.2258C56.2953 30.4125 55.5202 30.5059 54.6985 30.5059C53.2417 30.5059 51.9531 30.2538 50.8325 29.7495C49.7306 29.2266 49.1797 28.601 49.1797 27.8726C49.1797 27.6298 49.2544 27.415 49.4038 27.2283C49.5719 27.0228 49.7306 26.8734 49.88 26.7801C50.0294 26.6867 50.2722 26.5559 50.6084 26.3879C50.9632 27.0789 51.5982 27.6485 52.5134 28.0967C53.4472 28.5263 54.3903 28.741 55.3428 28.741C56.3886 28.741 57.2851 28.4609 58.0321 27.9006C58.7792 27.3217 59.1527 26.4999 59.1527 25.4354C59.1527 24.5576 58.8165 23.8666 58.1442 23.3623C57.4905 22.8394 56.6875 22.4472 55.735 22.1857C54.8012 21.9243 53.858 21.6348 52.9056 21.3173C51.9718 20.9998 51.1687 20.4675 50.4963 19.7205C49.8427 18.9548 49.5159 17.9463 49.5159 16.695C49.5159 14.9768 50.0761 13.6601 51.1967 12.745C52.3359 11.8299 53.7833 11.3723 55.5389 11.3723C56.8275 11.3723 58.0135 11.5964 59.0967 12.0447C60.1986 12.4929 60.7495 13.1092 60.7495 13.8936C60.7495 14.6406 60.2172 15.1075 59.1527 15.2943Z" fill="#E0E0E0"/>
<path d="M79.7032 20.701V25.7996C79.7032 27.7605 79.8433 29.2079 80.1234 30.1417C79.8806 30.2351 79.4978 30.2818 78.9748 30.2818C78.4519 30.2818 78.0971 30.1884 77.9103 30.0017C77.7422 29.8149 77.6582 29.4974 77.6582 29.0492C77.6582 28.5449 77.6582 27.1442 77.6582 24.8471C77.6769 22.5313 77.6862 20.4675 77.6862 18.656C76.4536 21.2146 75.0249 25.0619 73.4 30.1978C73.1759 30.2538 72.8771 30.2818 72.5036 30.2818C71.9246 30.2445 71.5511 30.0577 71.383 29.7215C70.9722 28.8811 70.2905 27.1722 69.338 24.595C68.3855 22.0177 67.5731 20.038 66.9008 18.656V25.7996C66.9008 27.7605 67.0502 29.2079 67.349 30.1417C66.9755 30.2351 66.6393 30.2818 66.3405 30.2818C65.8549 30.2818 65.5281 30.1884 65.36 30.0017C65.1919 29.8149 65.1079 29.4974 65.1079 29.0492C65.1079 28.8251 65.1079 28.2555 65.1079 27.3403C65.1265 26.4252 65.1359 25.7062 65.1359 25.1833V19.6925C65.1359 18.049 64.9958 16.7604 64.7157 15.8266C65.276 15.7145 65.7615 15.6585 66.1724 15.6585C66.9381 15.6585 67.5358 16.0133 67.9653 16.723C68.5629 17.6568 69.1512 18.8241 69.7302 20.2248C70.3278 21.6068 70.7947 22.7927 71.1309 23.7825C71.4671 24.7537 71.9153 26.1171 72.4756 27.8726C73.6148 23.3343 75.0996 19.6085 76.9298 16.695C77.3407 16.004 77.9383 15.6585 78.7227 15.6585C79.1709 15.6585 79.6378 15.7145 80.1234 15.8266C79.8433 16.7043 79.7032 18.3291 79.7032 20.701Z" fill="#E0E0E0"/>
<path d="M99.7015 20.701V25.7996C99.7015 27.7605 99.8416 29.2079 100.122 30.1417C99.8789 30.2351 99.4961 30.2818 98.9732 30.2818C98.4502 30.2818 98.0954 30.1884 97.9086 30.0017C97.7405 29.8149 97.6565 29.4974 97.6565 29.0492C97.6565 28.5449 97.6565 27.1442 97.6565 24.8471C97.6752 22.5313 97.6845 20.4675 97.6845 18.656C96.4519 21.2146 95.0232 25.0619 93.3984 30.1978C93.1742 30.2538 92.8754 30.2818 92.5019 30.2818C91.923 30.2445 91.5494 30.0577 91.3813 29.7215C90.9705 28.8811 90.2888 27.1722 89.3363 24.595C88.3838 22.0177 87.5714 20.038 86.8991 18.656V25.7996C86.8991 27.7605 87.0485 29.2079 87.3473 30.1417C86.9738 30.2351 86.6376 30.2818 86.3388 30.2818C85.8532 30.2818 85.5264 30.1884 85.3583 30.0017C85.1902 29.8149 85.1062 29.4974 85.1062 29.0492C85.1062 28.8251 85.1062 28.2555 85.1062 27.3403C85.1249 26.4252 85.1342 25.7062 85.1342 25.1833V19.6925C85.1342 18.049 84.9941 16.7604 84.714 15.8266C85.2743 15.7145 85.7599 15.6585 86.1707 15.6585C86.9365 15.6585 87.5341 16.0133 87.9636 16.723C88.5613 17.6568 89.1496 18.8241 89.7285 20.2248C90.3262 21.6068 90.7931 22.7927 91.1292 23.7825C91.4654 24.7537 91.9136 26.1171 92.4739 27.8726C93.6131 23.3343 95.0979 19.6085 96.9281 16.695C97.339 16.004 97.9366 15.6585 98.721 15.6585C99.1693 15.6585 99.6362 15.7145 100.122 15.8266C99.8416 16.7043 99.7015 18.3291 99.7015 20.701Z" fill="#E0E0E0"/>
<path d="M0.916016 3.45178L5.58703 9.50735C13.0606 4.81197 28.7284 3.07913 35.6281 2.79964C21.1937 -2.56653 6.47238 0.998492 0.916016 3.45178Z" fill="#E0E0E0"/>
<path d="M9.43375 25.5313L5.58703 29.0715C9.98328 35.8537 16.6387 40.5305 19.4169 42.0211C37.3682 29.91 37.9178 9.78681 37.5514 10.0663C37.2583 10.2899 33.8879 11.1532 32.2393 11.5569C32.166 12.6749 31.0486 17.3019 30.4991 19.4757C28.4831 28.2703 22.0878 33.5744 19.1421 35.1271C15.039 33.711 10.9602 28.1399 9.43375 25.5313Z" fill="#E0E0E0"/>
<path d="M5.86166 14.538C4.61606 13.9418 1.43489 9.25877 0 6.99182C0.512896 17.0534 3.2056 24.1027 4.48784 26.3697C17.0904 12.5816 36.727 6.58811 44.97 5.31489C29.5098 3.45163 12.456 10.6873 5.86166 14.538Z" fill="white"/>
</svg>
