<svg width="53" height="53" viewBox="0 0 53 53" fill="none" xmlns="http://www.w3.org/2000/svg">
<g clip-path="url(#clip0_1_262)">
<path d="M25.7594 17.1676C25.3552 16.7634 24.6997 16.7634 24.2954 17.1676C23.8911 17.5718 23.8912 18.2273 24.2954 18.6316C24.6268 18.963 25.0276 19.1992 25.4649 19.3278V19.6683C25.4649 20.24 25.9284 20.7034 26.5001 20.7034C27.0718 20.7034 27.5353 20.24 27.5353 19.6683V19.1224C27.7769 18.9947 28.0007 18.8303 28.1993 18.6315C29.2756 17.5553 29.2756 15.804 28.1993 14.7276L26.2647 12.7931C26.1344 12.6627 26.0626 12.4895 26.0626 12.3051C26.0626 12.1207 26.1344 11.9474 26.2648 11.8171C26.3951 11.6868 26.5684 11.6149 26.7528 11.6149C26.9371 11.6149 27.1104 11.6867 27.2408 11.8171C27.6451 12.2214 28.3004 12.2215 28.7048 11.8171C29.109 11.4129 29.109 10.7574 28.7048 10.3532C28.3736 10.0218 27.9727 9.78558 27.5354 9.65691V9.31654C27.5354 8.74482 27.0718 8.28137 26.5002 8.28137C25.9286 8.28137 25.465 8.74482 25.465 9.31654V9.86229C25.2234 9.99003 24.9996 10.1544 24.8009 10.3532C24.2795 10.8746 23.9923 11.5677 23.9923 12.3051C23.9923 13.0425 24.2795 13.7357 24.8009 14.257L26.7354 16.1915C26.8658 16.3219 26.9376 16.4952 26.9376 16.6795C26.9376 16.8639 26.8658 17.0372 26.7354 17.1675C26.4665 17.4369 26.0286 17.4366 25.7594 17.1676Z" fill="#78A1CF"/>
<path d="M26.5002 24.8442C32.2081 24.8442 36.8519 20.2004 36.8519 14.4925C36.8519 8.78443 32.2081 4.14075 26.5002 4.14075C20.7922 4.14075 16.1484 8.78453 16.1484 14.4925C16.1484 20.2005 20.7922 24.8442 26.5002 24.8442ZM26.5002 6.21109C31.0666 6.21109 34.7816 9.92612 34.7816 14.4925C34.7816 19.0588 31.0665 22.7739 26.5002 22.7739C21.9338 22.7739 18.2188 19.0588 18.2188 14.4925C18.2188 9.92612 21.9338 6.21109 26.5002 6.21109Z" fill="#78A1CF"/>
<path d="M38.2589 36.4246H36.8514V24.6239C39.4112 22.0089 40.9921 18.4321 40.9921 14.4924C40.9921 6.5013 34.4908 0 26.4997 0C24.3825 0 22.3404 0.447402 20.43 1.32968C19.9109 1.56942 19.6845 2.18452 19.9242 2.70346C20.1638 3.22249 20.779 3.44888 21.2979 3.20924C22.9345 2.45357 24.6845 2.07034 26.4998 2.07034C33.3492 2.07034 38.9219 7.64289 38.9219 14.4924C38.9219 21.3419 33.3493 26.9145 26.4998 26.9145C19.6503 26.9145 14.0777 21.3419 14.0777 14.4924C14.0777 12.6772 14.4608 10.9274 15.2163 9.2915C15.456 8.77247 15.2296 8.15737 14.7105 7.91772C14.1916 7.67818 13.5764 7.90447 13.3367 8.42351C12.4547 10.3335 12.0074 12.3754 12.0074 14.4924C12.0074 18.4321 13.5883 22.0089 16.1481 24.6239V36.4246H14.7426C13.575 36.4246 12.566 37.1351 12.172 38.2345C11.7801 39.3282 12.0952 40.5077 12.9744 41.2514L24.6279 52.2586C25.1533 52.7529 25.827 53 26.5009 53C27.1753 53 27.8497 52.7524 28.375 52.2572L40.1318 41.1525C41.2294 40.1198 41.2822 38.3867 40.2496 37.289C39.7328 36.7396 39.0074 36.4246 38.2589 36.4246ZM38.7117 39.646L26.9542 50.7513C26.7002 50.9907 26.3015 50.9904 26.048 50.752L14.3732 39.7246C14.3559 39.7084 14.3382 39.6927 14.3197 39.6776C13.986 39.4032 14.0832 39.0382 14.121 38.9329C14.1682 38.8013 14.3233 38.495 14.7426 38.495H17.1832C17.755 38.495 18.2184 38.0315 18.2184 37.4598V26.3786C20.5675 28.0202 23.4229 28.9848 26.4998 28.9848C29.5766 28.9848 32.4321 28.0203 34.7812 26.3787V37.4598C34.7812 38.0315 35.2447 38.495 35.8163 38.495H38.259C38.4414 38.495 38.6129 38.5704 38.7418 38.7076C38.9922 38.9738 38.9793 39.3941 38.7117 39.646Z" fill="#78A1CF"/>
<path d="M16.9847 6.01189C17.2332 6.01189 17.4827 5.92297 17.681 5.74254C18.104 5.35798 18.1352 4.70324 17.7507 4.28028C17.3661 3.85721 16.7114 3.82605 16.2884 4.21061L16.2879 4.21113C15.8649 4.59569 15.834 5.25012 16.2185 5.67319C16.4227 5.89792 16.7031 6.01189 16.9847 6.01189Z" fill="#78A1CF"/>
</g>
<defs>
<clipPath id="clip0_1_262">
<rect width="53" height="53" fill="white"/>
</clipPath>
</defs>
</svg>
