<svg width="45" height="26" viewBox="0 0 45 26" fill="none" xmlns="http://www.w3.org/2000/svg">
<rect width="45" height="26" rx="2" fill="#414141"/>
<path d="M19.8725 18.2086H17.2613L18.8933 8.17921H21.5047L19.8725 18.2086ZM15.0646 8.17921L12.5753 15.0775L12.2807 13.592L12.281 13.5926L11.4023 9.08224C11.4023 9.08224 11.2961 8.17921 10.1637 8.17921H6.04829L6 8.34903C6 8.34903 7.2585 8.61087 8.73136 9.49539L10.9999 18.2089H13.7206L17.8749 8.17921H15.0646ZM35.6028 18.2086H38.0004L35.91 8.17894H33.811C32.8417 8.17894 32.6056 8.92637 32.6056 8.92637L28.7112 18.2086H31.4332L31.9775 16.7188H35.297L35.6028 18.2086ZM32.7295 14.6609L34.1015 10.9076L34.8733 14.6609H32.7295ZM28.9154 10.591L29.288 8.4373C29.288 8.4373 28.1382 8 26.9395 8C25.6437 8 22.5665 8.56634 22.5665 11.3202C22.5665 13.9113 26.1781 13.9435 26.1781 15.3045C26.1781 16.6654 22.9386 16.4216 21.8696 15.5633L21.4814 17.8153C21.4814 17.8153 22.6473 18.3816 24.4287 18.3816C26.2106 18.3816 28.8987 17.459 28.8987 14.9479C28.8987 12.3402 25.2547 12.0974 25.2547 10.9637C25.255 9.82967 27.798 9.97534 28.9154 10.591Z" fill="#2566AF"/>
<path d="M12.281 13.5925L11.4024 9.08223C11.4024 9.08223 11.2961 8.1792 10.1637 8.1792H6.04829L6 8.34902C6 8.34902 7.97803 8.75895 9.87531 10.2949C11.6894 11.7629 12.281 13.5925 12.281 13.5925Z" fill="#E6A540"/>
</svg>
