<svg width="45" height="26" viewBox="0 0 45 26" fill="none" xmlns="http://www.w3.org/2000/svg">
<rect width="45" height="26" rx="2" fill="#414141"/>
<g clip-path="url(#clip0_249_133)">
<path d="M17.8398 6.79248V17.1759H19.5414V13.626H21.8969C24.0484 13.626 25.5602 12.2273 25.5602 10.2026C25.5602 8.17783 24.0766 6.79248 21.9531 6.79248H17.8398ZM19.5414 8.15119H21.5031C22.9797 8.15119 23.8234 8.89714 23.8234 10.2092C23.8234 11.5213 22.9797 12.2739 21.4961 12.2739H19.5414V8.15119ZM28.668 17.2558C29.7367 17.2558 30.7281 16.743 31.1781 15.9304H31.2133V17.1759H32.7883V12.0075C32.7883 10.5089 31.5227 9.54319 29.575 9.54319C27.768 9.54319 26.432 10.5223 26.3828 11.8676H27.9156C28.0422 11.2283 28.668 10.8087 29.5258 10.8087C30.5664 10.8087 31.15 11.2682 31.15 12.1141V12.6869L29.0266 12.8068C27.0508 12.92 25.982 13.6859 25.982 15.018C25.982 16.3634 27.0859 17.2558 28.668 17.2558ZM29.125 16.0237C28.218 16.0237 27.6414 15.6107 27.6414 14.978C27.6414 14.3253 28.1969 13.9457 29.2586 13.8857L31.15 13.7725V14.3586C31.15 15.331 30.2781 16.0237 29.125 16.0237ZM34.8906 19.9999C36.55 19.9999 37.3305 19.4005 38.0125 17.5822L41.0008 9.6431H39.2711L37.2672 15.7773H37.232L35.2281 9.6431H33.4492L36.332 17.2026L36.1773 17.6621C35.9172 18.4414 35.4953 18.7411 34.743 18.7411C34.6094 18.7411 34.3492 18.7278 34.2437 18.7145V19.9599C34.3422 19.9866 34.7641 19.9999 34.8906 19.9999Z" fill="#D7D7D7"/>
<path d="M9.80916 8.59753C10.4842 8.65081 11.1592 8.27783 11.581 7.80495C11.9959 7.31874 12.2701 6.66603 12.1998 6C11.6021 6.02664 10.8638 6.37298 10.442 6.85918C10.0553 7.27878 9.72478 7.95814 9.80916 8.59753Z" fill="white"/>
<path d="M9.91463 9.25024C10.3787 9.25024 11.2154 8.67079 12.1928 8.72407C12.5724 8.75071 13.6693 8.85728 14.3724 9.84301C14.3162 9.88297 13.0717 10.5623 13.0857 11.9876C13.0998 13.6927 14.6607 14.2588 14.6748 14.2721C14.6607 14.3121 14.4287 15.078 13.8592 15.8639C13.3599 16.5566 12.8467 17.236 12.031 17.2493C11.2435 17.2626 10.9834 16.803 10.0763 16.803C9.17634 16.803 8.88103 17.236 8.13572 17.2626C7.34822 17.2892 6.75056 16.53 6.25134 15.8373C5.23181 14.4386 4.45134 11.8944 5.50603 10.176C6.01931 9.31684 6.95447 8.77735 7.95994 8.76403C8.73338 8.75071 9.44353 9.25024 9.91463 9.25024Z" fill="white"/>
</g>
<defs>
<clipPath id="clip0_249_133">
<rect width="36" height="14" fill="white" transform="translate(5 6)"/>
</clipPath>
</defs>
</svg>
