<svg width="45" height="26" viewBox="0 0 45 26" fill="none" xmlns="http://www.w3.org/2000/svg">
<rect width="45" height="26" rx="2" fill="#414141"/>
<g clip-path="url(#clip0_249_95)">
<path d="M25.7113 5.75537C21.6015 5.75537 18.3457 9.07317 18.3457 13.1402C18.3457 17.2071 21.6549 20.525 25.7113 20.525C29.7677 20.525 33.0769 17.2071 33.0769 13.1402C33.1303 9.07317 29.7677 5.75537 25.7113 5.75537ZM25.7113 15.8693C24.2168 15.8693 22.9359 14.6385 22.9359 13.1402C22.9359 11.6418 24.1634 10.411 25.7113 10.411C27.2591 10.411 28.4868 11.6418 28.4868 13.1402C28.4334 14.6385 27.2591 15.8693 25.7113 15.8693Z" fill="#8B3FFD"/>
<path d="M18.347 7.94971V18.7058H15.7317L12.3691 7.94971H18.347Z" fill="#8B3FFD"/>
</g>
<defs>
<clipPath id="clip0_249_95">
<rect width="21" height="17" fill="white" transform="translate(12 5)"/>
</clipPath>
</defs>
</svg>
