<svg width="45" height="26" viewBox="0 0 45 26" fill="none" xmlns="http://www.w3.org/2000/svg">
<rect width="45" height="26" rx="2" fill="#414141"/>
<path d="M25.2975 7.23438H18.6836V18.7653H25.2975V7.23438Z" fill="#FF5F00"/>
<path d="M19.1045 12.9998C19.1035 11.8893 19.3628 10.7931 19.863 9.79425C20.3632 8.79538 21.0911 7.91999 21.9915 7.23437C20.8764 6.38404 19.5373 5.85523 18.1271 5.70839C16.7169 5.56154 15.2925 5.80258 14.0169 6.40397C12.7412 7.00535 11.6657 7.94281 10.9132 9.1092C10.1608 10.2756 9.76172 11.6238 9.76172 12.9998C9.76172 14.3758 10.1608 15.7241 10.9132 16.8905C11.6657 18.0568 12.7412 18.9943 14.0169 19.5957C15.2925 20.1971 16.7169 20.4381 18.1271 20.2913C19.5373 20.1444 20.8764 19.6156 21.9915 18.7653C21.0911 18.0797 20.3632 17.2043 19.863 16.2054C19.3629 15.2065 19.1035 14.1103 19.1045 12.9998Z" fill="#EB001B"/>
<path d="M34.2216 12.9998C34.2216 14.3758 33.8227 15.724 33.0702 16.8904C32.3178 18.0568 31.2423 18.9943 29.9667 19.5957C28.691 20.1971 27.2667 20.4381 25.8565 20.2913C24.4464 20.1444 23.1072 19.6156 21.9922 18.7653C22.8918 18.079 23.6191 17.2034 24.1192 16.2047C24.6193 15.206 24.8792 14.1102 24.8792 12.9998C24.8792 11.8895 24.6193 10.7936 24.1192 9.79493C23.6191 8.79621 22.8918 7.92068 21.9922 7.23437C23.1072 6.38404 24.4464 5.85523 25.8565 5.70838C27.2667 5.56154 28.691 5.80259 29.9667 6.40398C31.2423 7.00537 32.3178 7.94284 33.0702 9.10922C33.8227 10.2756 34.2216 11.6238 34.2216 12.9998Z" fill="#F79E1B"/>
</svg>
