<svg width="45" height="26" viewBox="0 0 45 26" fill="none" xmlns="http://www.w3.org/2000/svg">
<rect width="45" height="26" rx="2" fill="#414141"/>
<path d="M30.77 22.3693C30.6923 22.1497 30.5516 21.9999 30.4496 21.8053C30.2021 21.4708 29.9108 21.1813 29.6195 20.8918C29.5176 20.8569 29.4739 20.7571 29.3768 20.7172C29.3137 20.6323 29.2118 20.5874 29.1293 20.5225C28.9642 20.3927 28.7846 20.2829 28.6001 20.1731C28.2506 19.9435 27.8186 19.7987 27.3914 19.649C26.9303 19.5342 26.4448 19.4494 25.94 19.3795C25.44 19.3046 24.94 19.2347 24.5614 19.0301C24.3429 18.9652 24.1827 18.8404 23.9934 18.7406C23.8186 18.6208 23.6293 18.521 23.4837 18.3712C23.3041 18.2614 23.1924 18.0767 23.0517 17.927C23.0031 17.8272 22.9206 17.7673 22.8818 17.6575C22.8332 17.6375 22.8187 17.5776 22.7895 17.5427C22.7555 17.5027 22.7555 17.4229 22.6973 17.4079C22.6682 17.6126 22.6779 17.8571 22.6973 18.0668C22.7216 18.1566 22.7313 18.2664 22.7555 18.3563C22.7701 18.4361 22.8429 18.5659 22.8138 18.6258C21.2993 18.5459 20.1925 18.0518 19.2313 17.4029C18.7556 17.0785 18.3478 16.6842 17.9692 16.2599C17.8042 16.0253 17.6245 15.8007 17.4789 15.5412C17.3284 15.2866 17.2022 14.9971 17.0663 14.7276C16.843 14.1436 16.6343 13.5446 16.5566 12.8109C16.4547 12.1271 16.4789 11.2536 16.6294 10.6197C16.6828 10.2703 16.7945 9.97584 16.8915 9.67137C16.9547 9.53162 17.0226 9.39186 17.0809 9.24711C17.1634 9.12732 17.2071 8.96261 17.309 8.85779C17.5857 8.32372 17.9983 7.92441 18.4207 7.54008C18.877 7.19568 19.3964 6.91617 20.0226 6.74646C20.6245 6.60671 21.4449 6.58175 22.0954 6.7265C23.4157 7.00601 24.4109 7.61495 25.2458 8.3936C26.0905 9.15727 26.7409 10.1256 27.1875 11.3035C27.6487 12.4216 27.8089 14.1636 27.3963 15.4313C27.2264 15.3315 27.0565 15.2367 26.8866 15.1419C26.6827 15.082 26.4837 15.0121 26.2458 14.9871C25.9594 14.9821 25.6778 14.9871 25.4934 15.082C25.8672 15.042 26.1681 15.1468 26.4011 15.2367C26.5371 15.2916 26.6147 15.3265 26.7215 15.3914C26.9303 15.5162 27.1147 15.631 27.2701 15.8007C27.7118 16.2 28.0273 16.7291 28.1778 17.4279C28.1778 17.4478 28.2021 17.4428 28.1972 17.4079C28.2166 17.4029 28.2264 17.3879 28.2361 17.368C28.2603 17.338 28.2895 17.3081 28.3137 17.2731C28.3623 17.2132 28.4108 17.1534 28.4448 17.0785C28.5467 16.9537 28.6293 16.8139 28.7069 16.6692C28.8865 16.3997 29.0225 16.0902 29.1778 15.7957C29.4448 15.1668 29.6632 14.488 29.7991 13.7193C30.071 12.0123 29.7458 10.3951 29.1778 9.20219C28.5953 7.99928 27.7798 7.03596 26.7264 6.31222C25.6633 5.59347 24.4206 5.06439 22.7119 5.01448C22.7022 4.97954 22.6876 5.01947 22.6536 5.01448C21.7507 4.98453 21.0226 5.1143 20.2993 5.30397C19.9643 5.41877 19.6148 5.5186 19.3187 5.67333C18.9789 5.78813 18.7071 5.9778 18.3964 6.11756C18.2847 6.22737 18.1148 6.28227 17.9983 6.38709C17.8478 6.46196 17.7362 6.58175 17.5857 6.65662C17.343 6.87624 17.0857 7.0709 16.8479 7.29551C16.6149 7.51513 16.411 7.76469 16.1877 7.99429C16.1537 8.07415 16.0954 8.12906 16.0372 8.18895C15.9984 8.26382 15.9498 8.32871 15.8867 8.38361C15.8624 8.47346 15.7848 8.5084 15.7556 8.59824C15.6925 8.64815 15.678 8.74798 15.6052 8.7929C15.542 8.95262 15.4304 9.06742 15.3576 9.21716C15.2702 9.36191 15.2022 9.52163 15.1149 9.66139C14.9789 9.98583 14.8333 10.3003 14.7217 10.6497C14.6052 10.9891 14.5081 11.3485 14.4401 11.7378C14.3673 12.1021 14.2993 12.5763 14.3091 12.9606C14.2605 13.1004 14.2993 13.36 14.3091 13.5247C14.3091 13.5546 14.2896 13.5646 14.2896 13.5846C14.2896 13.7692 14.3382 13.9939 14.3479 14.1087C14.3867 14.5329 14.4595 14.9272 14.576 15.2716C14.6489 15.656 14.8042 15.9554 14.9158 16.2998C15.0857 16.5893 15.2022 16.9337 15.4061 17.1933C15.5566 17.4978 15.7702 17.7373 15.9741 17.9869C16.1925 18.2265 16.411 18.4711 16.6731 18.6657C17.1537 19.095 17.7168 19.4394 18.3333 19.7339C19.4837 20.3079 21.2022 20.6822 22.7458 20.5874C23.139 20.5325 23.5371 20.4826 23.8963 20.3927C24.2264 20.2679 24.6099 20.1931 25.0079 20.1432C25.9157 20.0833 26.7021 20.1681 27.4011 20.3777C28.1099 20.5724 28.7215 20.8669 29.2506 21.2512C29.5322 21.4209 29.7652 21.6405 30.003 21.8502C30.2457 22.0648 30.4399 22.3293 30.6632 22.5689C30.6923 22.6588 30.7506 22.7237 30.7943 22.8035C30.8525 22.8684 30.8234 23.0181 30.9642 22.9982C31.0516 22.9083 30.9496 22.7786 30.9448 22.6688C30.8574 22.5739 30.838 22.4491 30.77 22.3693Z" fill="#FCB316"/>
<path d="M28.1286 17.0617C28.106 17.0617 28.1003 17.0767 28.0833 17.0817C28.0437 17.1566 28.0607 17.2765 28.0833 17.3514C28.2021 17.5662 28.2417 17.8459 28.502 17.9358C28.6265 17.9008 28.6152 17.741 28.6095 17.5862C28.5529 17.3964 28.4737 17.2266 28.3436 17.1017C28.2531 17.0717 28.1908 17.0218 28.1286 17.0617ZM26.5896 17.6061C26.5896 17.5961 26.5727 17.5862 26.567 17.6061C26.352 17.5812 26.2785 17.686 26.171 17.761C25.9843 18.1955 26.2841 18.62 26.8103 18.615C27.0196 18.5701 27.1498 18.4502 27.1837 18.2454C27.1554 17.8808 26.98 17.6461 26.5896 17.6061Z" fill="#FCB316"/>
</svg>
