<svg width="45" height="26" viewBox="0 0 45 26" fill="none" xmlns="http://www.w3.org/2000/svg">
<rect width="45" height="26" rx="2" fill="#414141"/>
<g clip-path="url(#clip0_249_112)">
<path d="M22.0267 13.8396V17.9435H20.6973V7.80879H24.2232C24.6441 7.80018 25.0625 7.87328 25.4544 8.02386C25.8463 8.17445 26.2038 8.39955 26.5064 8.68616C26.812 8.95538 27.0552 9.28554 27.2198 9.65445C27.3843 10.0234 27.4662 10.4225 27.4601 10.825C27.4689 11.2297 27.3882 11.6314 27.2235 12.0027C27.0589 12.374 26.8143 12.706 26.5064 12.976C25.8898 13.5518 25.1288 13.8394 24.2232 13.8388H22.0267V13.8396ZM22.0267 9.05652V12.5943H24.2562C24.5006 12.6014 24.7439 12.5585 24.9704 12.4683C25.1969 12.378 25.4017 12.2425 25.5716 12.0703C25.7407 11.9094 25.8751 11.7168 25.9669 11.5041C26.0586 11.2914 26.1059 11.0628 26.1059 10.8319C26.1059 10.601 26.0586 10.3724 25.9669 10.1597C25.8751 9.94696 25.7407 9.75443 25.5716 9.59346C25.4038 9.41766 25.1997 9.27881 24.973 9.1861C24.7462 9.0934 24.5019 9.04895 24.2562 9.05571H22.0267V9.05652Z" fill="#D7D7D7"/>
<path d="M30.5244 10.7827C31.5071 10.7827 32.2827 11.0399 32.8514 11.5542C33.42 12.0685 33.7041 12.7736 33.7035 13.6696V17.9432H32.4319V16.9809H32.3741C31.8236 17.7734 31.0914 18.1697 30.1776 18.1697C29.3976 18.1697 28.7449 17.9432 28.2198 17.4904C27.9677 17.2826 27.7662 17.0223 27.63 16.7285C27.4937 16.4347 27.426 16.1149 27.432 15.7922C27.432 15.0747 27.7089 14.5041 28.2627 14.0804C28.8165 13.6566 29.5558 13.4442 30.4807 13.4431C31.2701 13.4431 31.9202 13.5847 32.4311 13.8677V13.5701C32.4326 13.3502 32.3841 13.1327 32.2891 12.9333C32.1941 12.734 32.055 12.5579 31.8819 12.4178C31.5304 12.1072 31.0722 11.9377 30.5987 11.9431C29.8561 11.9431 29.2685 12.2499 28.8358 12.8633L27.6649 12.1412C28.3089 11.2356 29.2621 10.7827 30.5244 10.7827ZM28.8044 15.8205C28.8035 15.9862 28.8431 16.1497 28.9198 16.2974C28.9965 16.4451 29.1081 16.5727 29.2453 16.6696C29.5394 16.8961 29.9043 17.0161 30.2783 17.0093C30.8394 17.0083 31.3771 16.7897 31.7738 16.4012C32.2142 15.9952 32.4344 15.5189 32.4344 14.9723C32.0198 14.6488 31.4418 14.4871 30.7003 14.4871C30.1603 14.4871 29.71 14.6146 29.3494 14.8696C28.9852 15.1284 28.8044 15.4429 28.8044 15.8205Z" fill="#D7D7D7"/>
<path d="M41.0032 11.0093L36.564 21H35.1916L36.8389 17.5043L33.9199 11.0093H35.365L37.4748 15.9905H37.5037L39.5556 11.0093H41.0032Z" fill="#D7D7D7"/>
<path d="M16.6545 12.9548C16.655 12.5581 16.6207 12.162 16.5521 11.771H10.9453V14.0134H14.1566C14.0909 14.3715 13.9518 14.7129 13.7478 15.017C13.5437 15.3211 13.2788 15.5815 12.9692 15.7827V17.2382H14.8858C16.0079 16.225 16.6545 14.7266 16.6545 12.9548Z" fill="#4285F4"/>
<path d="M10.9448 18.6444C12.5493 18.6444 13.9002 18.1285 14.8853 17.239L12.9687 15.7835C12.4353 16.1376 11.7483 16.3398 10.9448 16.3398C9.39408 16.3398 8.07784 15.3161 7.60717 13.9365H5.63281V15.4366C6.12765 16.4008 6.88644 17.2115 7.82446 17.7779C8.76247 18.3444 9.8428 18.6444 10.9448 18.6444Z" fill="#34A853"/>
<path d="M7.60743 13.9367C7.3586 13.2138 7.3586 12.4309 7.60743 11.708V10.208H5.63308C5.2168 11.0192 5 11.9145 5 12.8223C5 13.7302 5.2168 14.6255 5.63308 15.4367L7.60743 13.9367Z" fill="#FBBC04"/>
<path d="M10.9448 9.30452C11.7927 9.29095 12.612 9.60467 13.2255 10.1779L14.9224 8.51609C13.8464 7.52638 12.4209 6.98301 10.9448 6.99989C9.8428 6.99994 8.76247 7.29994 7.82446 7.8664C6.88644 8.43286 6.12765 9.24348 5.63281 10.2078L7.60717 11.7078C8.07784 10.3283 9.39408 9.30452 10.9448 9.30452Z" fill="#EA4335"/>
</g>
<defs>
<clipPath id="clip0_249_112">
<rect width="36" height="14" fill="white" transform="translate(5 7)"/>
</clipPath>
</defs>
</svg>
