<svg width="37" height="37" viewBox="0 0 37 37" fill="none" xmlns="http://www.w3.org/2000/svg">
<circle cx="18.5" cy="18.5" r="18.5" fill="#3990F1"/>
<g clip-path="url(#clip0_16_887)">
<path d="M28.8788 13.3875C28.7586 13.2152 28.5652 13.1087 28.3551 13.0998L15.3286 12.5383C14.9548 12.5219 14.6425 12.8104 14.6265 13.1825C14.6106 13.5543 14.8987 13.8685 15.2707 13.8845L27.4152 14.4081L25.0274 21.8584H14.401L12.4812 11.4052C12.439 11.1761 12.2817 10.985 12.0648 10.8999L8.92046 9.66458C8.57392 9.52891 8.18287 9.69912 8.04677 10.0452C7.91091 10.3916 8.08108 10.7828 8.42743 10.9189L11.2232 12.0173L13.1769 22.6539C13.2358 22.9737 13.5145 23.206 13.8397 23.206H14.1638L13.4238 25.2615C13.3618 25.4337 13.3874 25.6249 13.4928 25.7745C13.598 25.9242 13.7693 26.0132 13.952 26.0132H14.4711C14.1494 26.3711 13.952 26.8424 13.952 27.3608C13.952 28.4754 14.859 29.3821 15.9734 29.3821C17.0878 29.3821 17.9947 28.4754 17.9947 27.3608C17.9947 26.8425 17.7973 26.3711 17.4757 26.0132H21.8828C21.561 26.3711 21.3637 26.8424 21.3637 27.3608C21.3637 28.4754 22.2704 29.3821 23.385 29.3821C24.4997 29.3821 25.4064 28.4754 25.4064 27.3608C25.4064 26.8425 25.209 26.3711 24.8875 26.0132H25.5187C25.8289 26.0132 26.0802 25.7618 26.0802 25.4517C26.0802 25.1415 25.8288 24.8902 25.5187 24.8902H14.7509L15.3573 23.2058H25.5187C25.8117 23.2058 26.0709 23.0165 26.1602 22.7377L28.9676 13.9784C29.0321 13.7785 28.999 13.5599 28.8788 13.3875ZM15.9734 28.2594C15.478 28.2594 15.075 27.8565 15.075 27.361C15.075 26.8655 15.478 26.4626 15.9734 26.4626C16.4689 26.4626 16.8718 26.8655 16.8718 27.361C16.8718 27.8565 16.4689 28.2594 15.9734 28.2594ZM23.385 28.2594C22.8895 28.2594 22.4867 27.8565 22.4867 27.361C22.4867 26.8655 22.8895 26.4626 23.385 26.4626C23.8805 26.4626 24.2834 26.8655 24.2834 27.361C24.2834 27.8565 23.8805 28.2594 23.385 28.2594Z" fill="white"/>
</g>
<defs>
<clipPath id="clip0_16_887">
<rect width="21" height="21" fill="white" transform="translate(8 9)"/>
</clipPath>
</defs>
</svg>
