<svg width="56" height="56" viewBox="0 0 56 56" fill="none" xmlns="http://www.w3.org/2000/svg">
<path d="M39.3173 0H16.6827C7.48382 0 0 7.48382 0 16.6827V39.3173C0 48.5162 7.48382 56 16.6827 56H39.3173C48.5162 56 56 48.5162 56 39.3173V16.6827C55.9999 7.48382 48.5161 0 39.3173 0ZM50.3664 39.3173C50.3664 45.4195 45.4195 50.3664 39.3173 50.3664H16.6827C10.5805 50.3664 5.6336 45.4195 5.6336 39.3173V16.6827C5.6336 10.5804 10.5805 5.6336 16.6827 5.6336H39.3173C45.4195 5.6336 50.3664 10.5804 50.3664 16.6827V39.3173Z" fill="url(#paint0_linear_169_1541)"/>
<path d="M27.9992 13.5164C20.013 13.5164 13.5156 20.0137 13.5156 27.9998C13.5156 35.986 20.013 42.4834 27.9992 42.4834C35.9855 42.4834 42.4828 35.9861 42.4828 27.9998C42.4828 20.0136 35.9855 13.5164 27.9992 13.5164ZM27.9992 36.8499C23.1115 36.8499 19.1492 32.8877 19.1492 28C19.1492 23.1122 23.1116 19.15 27.9992 19.15C32.887 19.15 36.8492 23.1122 36.8492 28C36.8492 32.8876 32.8869 36.8499 27.9992 36.8499Z" fill="url(#paint1_linear_169_1541)"/>
<path d="M42.5116 17.0957C44.4283 17.0957 45.9821 15.5419 45.9821 13.6251C45.9821 11.7084 44.4283 10.1545 42.5116 10.1545C40.5948 10.1545 39.041 11.7084 39.041 13.6251C39.041 15.5419 40.5948 17.0957 42.5116 17.0957Z" fill="url(#paint2_linear_169_1541)"/>
<defs>
<linearGradient id="paint0_linear_169_1541" x1="28" y1="55.837" x2="28" y2="0.434962" gradientUnits="userSpaceOnUse">
<stop stop-color="#E09B3D"/>
<stop offset="0.3" stop-color="#C74C4D"/>
<stop offset="0.6" stop-color="#C21975"/>
<stop offset="1" stop-color="#7024C4"/>
</linearGradient>
<linearGradient id="paint1_linear_169_1541" x1="27.9992" y1="55.8369" x2="27.9992" y2="0.434915" gradientUnits="userSpaceOnUse">
<stop stop-color="#E09B3D"/>
<stop offset="0.3" stop-color="#C74C4D"/>
<stop offset="0.6" stop-color="#C21975"/>
<stop offset="1" stop-color="#7024C4"/>
</linearGradient>
<linearGradient id="paint2_linear_169_1541" x1="42.5116" y1="55.837" x2="42.5116" y2="0.434909" gradientUnits="userSpaceOnUse">
<stop stop-color="#E09B3D"/>
<stop offset="0.3" stop-color="#C74C4D"/>
<stop offset="0.6" stop-color="#C21975"/>
<stop offset="1" stop-color="#7024C4"/>
</linearGradient>
</defs>
</svg>
