<svg width="42" height="42" viewBox="0 0 42 42" fill="none" xmlns="http://www.w3.org/2000/svg">
<g clip-path="url(#clip0_1_947)">
<path d="M42 21C42 9.40202 32.598 0 21 0C9.40202 0 0 9.40202 0 21C0 32.598 9.40202 42 21 42C32.598 42 42 32.598 42 21Z" fill="url(#paint0_linear_1_947)"/>
<path opacity="0.1" d="M36.805 7.18414C33.7435 12.8044 29.4136 18.6015 24.0033 24.0118C18.5931 29.422 12.796 33.7436 7.18398 36.8052C6.83213 36.4994 6.49042 36.1807 6.15885 35.8491C4.15461 33.9118 2.55612 31.5949 1.4566 29.0334C0.357081 26.4719 -0.221473 23.7171 -0.245325 20.9297C-0.269177 18.1423 0.262151 15.378 1.31768 12.7981C2.3732 10.2181 3.9318 7.87417 5.90259 5.90283C7.87338 3.93149 10.2169 2.37224 12.7966 1.31599C15.3762 0.259745 18.1403 -0.272354 20.9277 -0.24928C23.7152 -0.226207 26.4701 0.351579 29.0319 1.45038C31.5937 2.54919 33.9111 4.14703 35.849 6.15072C36.1806 6.4823 36.4992 6.82678 36.805 7.18414Z" fill="white"/>
<path d="M25.9736 9.94727H16.0262C14.414 9.94727 12.8678 10.5877 11.7277 11.7277C10.5877 12.8678 9.94727 14.414 9.94727 16.0262V25.9736C9.94727 27.5858 10.5877 29.132 11.7277 30.272C12.8678 31.4121 14.414 32.0525 16.0262 32.0525H25.9736C27.5858 32.0525 29.132 31.4121 30.272 30.272C31.4121 29.132 32.0525 27.5858 32.0525 25.9736V16.0262C32.0525 14.414 31.4121 12.8678 30.272 11.7277C29.132 10.5877 27.5858 9.94727 25.9736 9.94727ZM30.1183 25.1004C30.1183 26.4312 29.5896 27.7076 28.6486 28.6486C27.7076 29.5896 26.4312 30.1183 25.1004 30.1183H16.8994C15.5685 30.1183 14.2922 29.5896 13.3512 28.6486C12.4101 27.7076 11.8815 26.4312 11.8815 25.1004V16.8994C11.8815 15.5685 12.4101 14.2922 13.3512 13.3512C14.2922 12.4101 15.5685 11.8815 16.8994 11.8815H25.1004C26.4312 11.8815 27.7076 12.4101 28.6486 13.3512C29.5896 14.2922 30.1183 15.5685 30.1183 16.8994V25.1004Z" fill="white"/>
<path d="M25.0311 17.0099L24.9786 16.9574L24.9344 16.9132C23.8896 15.8721 22.4746 15.2878 20.9996 15.2885C20.2548 15.2935 19.5183 15.4453 18.8321 15.7351C18.1459 16.0249 17.5236 16.4471 17.0006 16.9774C16.4777 17.5078 16.0644 18.1361 15.7843 18.8263C15.5042 19.5165 15.3629 20.2551 15.3683 20.9999C15.3672 22.5115 15.963 23.9624 17.0262 25.0369C17.547 25.564 18.1675 25.9821 18.8516 26.2667C19.5358 26.5514 20.2697 26.6969 21.0107 26.6948C22.1221 26.6715 23.2028 26.3252 24.1208 25.6983C25.0389 25.0714 25.7547 24.1909 26.1809 23.1641C26.6071 22.1374 26.7253 21.0088 26.5212 19.916C26.317 18.8232 25.7993 17.8135 25.0311 17.0099ZM20.9996 24.7467C20.2564 24.7572 19.5269 24.5463 18.9039 24.141C18.2809 23.7356 17.7925 23.1542 17.5008 22.4705C17.2091 21.7868 17.1274 21.0319 17.266 20.3016C17.4046 19.5714 17.7572 18.8989 18.2791 18.3696C18.8009 17.8403 19.4684 17.4782 20.1966 17.3294C20.9248 17.1805 21.6809 17.2515 22.3686 17.5335C23.0563 17.8155 23.6446 18.2957 24.0587 18.9129C24.4728 19.5302 24.6939 20.2566 24.694 20.9999C24.6976 21.4886 24.6049 21.9731 24.4212 22.4259C24.2375 22.8787 23.9663 23.2909 23.6232 23.6389C23.2801 23.9868 22.8718 24.2638 22.4217 24.4539C21.9715 24.644 21.4883 24.7435 20.9996 24.7467Z" fill="white"/>
<path d="M28.3031 15.0259C28.3046 15.2033 28.2711 15.3791 28.2045 15.5434C28.1379 15.7078 28.0395 15.8574 27.915 15.9836C27.7906 16.1099 27.6424 16.2104 27.479 16.2793C27.3157 16.3483 27.1403 16.3843 26.963 16.3854C26.7872 16.3853 26.6131 16.3504 26.4509 16.2825C26.2887 16.2147 26.1416 16.1154 26.018 15.9903C25.8308 15.8004 25.7035 15.5597 25.6518 15.298C25.6001 15.0364 25.6264 14.7654 25.7273 14.5186C25.8282 14.2717 25.9993 14.0599 26.2195 13.9094C26.4397 13.7589 26.6991 13.6764 26.9658 13.672C27.2778 13.6719 27.58 13.7815 27.8196 13.9815L27.8472 14.0091C27.8918 14.0454 27.9325 14.0861 27.9688 14.1307L27.9992 14.1638C28.197 14.4075 28.3044 14.7121 28.3031 15.0259Z" fill="white"/>
</g>
<defs>
<linearGradient id="paint0_linear_1_947" x1="6.15079" y1="6.15079" x2="35.8492" y2="35.8492" gradientUnits="userSpaceOnUse">
<stop stop-color="#FAE100"/>
<stop offset="0.15" stop-color="#FCB720"/>
<stop offset="0.3" stop-color="#FF7950"/>
<stop offset="0.5" stop-color="#FF1C74"/>
<stop offset="1" stop-color="#6C1CD1"/>
</linearGradient>
<clipPath id="clip0_1_947">
<rect width="42" height="42" fill="white"/>
</clipPath>
</defs>
</svg>
