<svg width="53" height="53" viewBox="0 0 53 53" fill="none" xmlns="http://www.w3.org/2000/svg">
<g clip-path="url(#clip0_1_274)">
<path d="M48.2789 9.15193C40.9868 7.15387 33.6518 4.04272 27.0668 0.154885C26.7171 -0.0516283 26.283 -0.0516283 25.9333 0.154885C19.1585 4.15441 12.2198 7.09725 4.72065 9.15193C4.23619 9.28453 3.90039 9.72489 3.90039 10.2272V21.6187C3.90039 33.3494 9.31207 41.1143 13.8521 45.5624C18.7396 50.3516 24.433 53 26.5001 53C28.567 53 34.2603 50.3516 39.1479 45.5624C43.6878 41.1144 49.0992 33.3495 49.0992 21.6187V10.2271C49.0992 9.72488 48.7634 9.28453 48.2789 9.15193ZM46.8694 21.6186C46.8694 32.575 41.8219 39.8205 37.5873 43.9697C32.781 48.6791 27.6422 50.7701 26.5001 50.7701C25.358 50.7701 20.2189 48.6791 15.4124 43.9697C11.1779 39.8204 6.13022 32.575 6.13022 21.6186V11.0735C13.3016 9.03734 19.9802 6.19573 26.5003 2.40676C32.8576 6.09522 39.8694 9.07812 46.8694 11.0731V21.6186Z" fill="#78A1CF"/>
<path d="M16.6175 10.9488C16.3919 10.3758 15.7446 10.0944 15.1715 10.3201C13.1799 11.1049 11.1357 11.8272 9.09568 12.4671C8.6308 12.6131 8.31445 13.0437 8.31445 13.5309V17.8362C8.31445 18.4519 8.81371 18.951 9.42931 18.951C10.0449 18.951 10.5442 18.4519 10.5442 17.8362V14.3456C12.3742 13.7535 14.2023 13.0986 15.9889 12.3946C16.5618 12.169 16.8433 11.5217 16.6175 10.9488Z" fill="#78A1CF"/>
<path d="M18.7346 11.1603C18.8842 11.1603 19.036 11.1301 19.1817 11.0666L19.2022 11.0577C19.7662 10.8105 20.0203 10.1539 19.7731 9.59003C19.5257 9.02597 18.8653 8.77081 18.3019 9.0178L18.2839 9.02556C17.7195 9.27203 17.4647 9.92811 17.7111 10.4923C17.8941 10.9111 18.3045 11.1603 18.7346 11.1603Z" fill="#78A1CF"/>
<path d="M39.7823 35.9492C39.2671 35.6125 38.5762 35.7573 38.2391 36.2727C37.3204 37.6789 36.2426 39.0254 35.0352 40.2745C34.0423 41.3016 32.9663 42.2589 31.8373 43.1197C31.3477 43.4929 31.2535 44.1925 31.6267 44.6822C31.8463 44.9699 32.1782 45.1212 32.5141 45.1212C32.7499 45.1212 32.9874 45.0468 33.1893 44.8928C34.4071 43.9641 35.5676 42.9318 36.6381 41.8244C37.9435 40.4741 39.1102 39.0166 40.1058 37.4923C40.4427 36.9768 40.2977 36.286 39.7823 35.9492Z" fill="#78A1CF"/>
<path d="M29.2494 44.868L29.1855 44.9057C28.6527 45.2142 28.4706 45.8962 28.7791 46.429C28.9858 46.7861 29.36 46.9855 29.7449 46.9855C29.9344 46.9855 30.1267 46.9372 30.3024 46.8352L30.3762 46.7918C30.9075 46.4807 31.086 45.7978 30.7748 45.2664C30.4634 44.7353 29.7805 44.5571 29.2494 44.868Z" fill="#78A1CF"/>
<path d="M18.9017 24.2246C18.2172 23.54 17.3068 23.1632 16.3385 23.1632C15.3702 23.1632 14.4597 23.5401 13.7748 24.2246C12.3615 25.6382 12.3615 27.9383 13.7748 29.3518L20.358 35.9348C21.0426 36.6193 21.9531 36.9962 22.9214 36.9962C23.8898 36.9962 24.8002 36.6193 25.485 35.9346L39.2278 22.1917C40.641 20.7778 40.641 18.478 39.2276 17.0649C38.543 16.3802 37.6325 16.0034 36.664 16.0034C35.6957 16.0034 34.7852 16.3803 34.1005 17.0649L22.9213 28.244L18.9017 24.2246ZM35.6772 18.6416C35.9407 18.3782 36.2913 18.2331 36.6641 18.2331C37.0372 18.2331 37.3875 18.3782 37.6512 18.6416C38.1951 19.1856 38.1951 20.0711 37.651 20.6152L23.9084 34.358C23.6449 34.6214 23.2943 34.7664 22.9214 34.7664C22.5486 34.7664 22.198 34.6214 21.9344 34.358L15.3515 27.7752C14.8073 27.231 14.8073 26.3455 15.3513 25.8016C15.6148 25.5381 15.9654 25.3929 16.3384 25.3929C16.7113 25.3929 17.0617 25.5379 17.3252 25.8014L22.133 30.6092C22.3422 30.8182 22.6256 30.9357 22.9213 30.9357C23.2171 30.9357 23.5005 30.8183 23.7095 30.6092L35.6772 18.6416Z" fill="#78A1CF"/>
</g>
<defs>
<clipPath id="clip0_1_274">
<rect width="53" height="53" fill="white"/>
</clipPath>
</defs>
</svg>
