<?xml version="1.0" encoding="utf-8"?><svg viewBox="0 0 33 33" xmlns="http://www.w3.org/2000/svg" xmlns:xlink="http://www.w3.org/1999/xlink"><style>:root>svg{display:none}:root>svg:target{display:block}</style><svg viewBox="0 0 8 8" id="arrow-to-main"><path d="M.646 3.646a.5.5 0 000 .708l3.182 3.182a.5.5 0 10.708-.708L1.707 4l2.829-2.828a.5.5 0 10-.708-.708L.646 3.646zM8 3.5H1v1h7v-1z"/></svg><svg viewBox="0 0 20 20" id="log-off"><path d="M19.753 9.521l-2.14-1.509a.586.586 0 00-.924.48v.922H6.414a.586.586 0 000 1.172H16.69v.922c0 .478.539.75.924.48l2.14-1.51a.587.587 0 000-.957z"/><path d="M16.815 13.762a.586.586 0 00-.8.214 7.952 7.952 0 01-6.89 3.977c-4.385 0-7.953-3.567-7.953-7.953 0-4.385 3.568-7.953 7.953-7.953a7.952 7.952 0 016.89 3.977.586.586 0 001.014-.587A9.124 9.124 0 009.125.875 9.12 9.12 0 000 10a9.12 9.12 0 009.125 9.125 9.124 9.124 0 007.904-4.562.586.586 0 00-.214-.8z"/></svg><svg viewBox="0 0 16 16" id="paper-clip"><path d="M14.644 1.676a4.51 4.51 0 00-6.31.001L.98 9.03a3.445 3.445 0 004.871 4.872l6.659-6.659A2.217 2.217 0 009.376 4.11l-6.369 6.368a.579.579 0 00.819.82l6.369-6.37a1.059 1.059 0 011.497 1.498l-6.658 6.658a2.287 2.287 0 01-3.235-3.234l7.353-7.353a3.354 3.354 0 014.745 4.743l-7.353 7.353a.579.579 0 10.816.816l7.353-7.353a4.51 4.51 0 00-.07-6.379z"/></svg><svg viewBox="0 0 11 11" id="plus"><path d="M6.284 4.746H11v1.53H6.284V11H4.693V6.276H0v-1.53h4.693V0h1.591v4.746z"/></svg><svg viewBox="0 0 20 20" id="send"><path d="M19.986 2.019a.586.586 0 00-.781-.671L.377 8.535A.586.586 0 00.375 9.63l5.289 2.043v6.434a.586.586 0 001.11.264l2.187-4.341 5.338 3.962a.586.586 0 00.91-.3C20.193 1.349 19.977 2.06 19.986 2.019zM15.34 4.078L6.167 10.61 2.22 9.086 15.34 4.078zm-8.503 7.494l7.995-5.694c-6.88 7.258-6.52 6.876-6.55 6.916-.045.06.077-.174-1.445 2.847v-4.069zm7.494 4.982l-4.699-3.487 8.497-8.963-3.798 12.45z"/></svg><svg viewBox="0 0 20 19" id="star"><path d="M9.049.927c.3-.921 1.603-.921 1.902 0l1.519 4.674a1 1 0 00.95.69h4.915c.969 0 1.371 1.24.588 1.81l-3.976 2.888a1 1 0 00-.363 1.118l1.518 4.674c.3.922-.755 1.688-1.539 1.118l-3.975-2.888a1 1 0 00-1.176 0l-3.976 2.888c-.783.57-1.838-.197-1.538-1.118l1.518-4.674a1 1 0 00-.363-1.118L1.077 8.101c-.783-.57-.38-1.81.588-1.81h4.914a1 1 0 00.951-.69L9.05.927z"/></svg><svg viewBox="0 0 33 33" id="user"><path d="M28.167 4.833A16.392 16.392 0 0016.5 0C12.093 0 7.95 1.716 4.833 4.833A16.392 16.392 0 000 16.5c0 4.407 1.716 8.55 4.833 11.667A16.392 16.392 0 0016.5 33c4.407 0 8.55-1.716 11.667-4.833A16.392 16.392 0 0033 16.5c0-4.407-1.716-8.55-4.833-11.667zM16.5 31.066c-4.31 0-8.188-1.882-10.857-4.866 1.655-4.388 5.89-7.509 10.857-7.509a5.8 5.8 0 110-11.601 5.8 5.8 0 010 11.601c4.966 0 9.202 3.121 10.857 7.509A14.534 14.534 0 0116.5 31.066z"/></svg></svg>