<svg width="23" height="23" viewBox="0 0 23 23" fill="none" xmlns="http://www.w3.org/2000/svg">
<g clip-path="url(#clip0_0_1727)">
<path d="M20.5769 18.2186C21.7933 16.4482 22.5057 14.3045 22.5057 11.9942C22.5057 5.91588 17.5782 0.988403 11.4999 0.988403C5.42157 0.988403 0.494141 5.91588 0.494141 11.9942C0.494141 14.3055 1.20719 16.45 2.42452 18.2209L20.5769 18.2186Z" fill="#FF4155"/>
<path d="M11.4397 0.83252C8.88528 0.83252 6.80715 2.91065 6.80715 5.46504C6.81308 5.55398 6.79071 5.60209 6.83532 5.63426C6.89475 5.67707 6.93019 5.74611 6.93019 5.81893V6.08145C6.93019 6.31967 7.21216 6.43962 7.24963 6.32322C7.34428 6.02926 7.60613 6.00441 7.71592 6.00626C7.71915 6.0063 7.72234 6.00648 7.72571 6.0063C7.81609 6.00666 7.90351 6.03379 7.97867 6.08482C8.01541 6.10998 8.06743 6.09304 8.08136 6.04925C8.12264 5.91825 8.1367 5.78564 8.12754 5.66144C8.0797 5.00984 8.11518 3.86474 8.8904 3.51588C9.58238 3.20417 10.2792 3.4202 10.7371 3.50793C10.9959 3.58326 11.4222 3.76452 12.02 3.5657C12.5822 3.37869 13.3913 3.21823 14.0529 3.51583C14.8266 3.86407 14.8632 5.00625 14.816 5.65618C14.8074 5.77603 14.8196 5.89665 14.8523 6.01461C14.8638 6.05625 14.9108 6.07633 14.9486 6.05679C15.1881 5.93357 15.535 6.02943 15.6297 6.32318C15.6401 6.35548 15.6726 6.37484 15.706 6.36913C15.8469 6.3442 15.9492 6.22323 15.9492 6.08141V5.81889C15.9492 5.74611 15.9846 5.67707 16.044 5.63421C16.0888 5.60196 16.0663 5.55308 16.0722 5.46499C16.0722 2.91065 13.9941 0.83252 11.4397 0.83252Z" fill="#41416B"/>
<path d="M11.311 0.984601C11.3607 0.950011 11.3756 0.886716 11.3537 0.833618C8.83888 0.879618 6.80715 2.93938 6.80715 5.46503C6.81308 5.55397 6.79071 5.60209 6.83532 5.63425C6.89475 5.67706 6.93019 5.74611 6.93019 5.81892V6.08145C6.93019 6.31967 7.21216 6.43961 7.24963 6.32322C7.34428 6.02925 7.60613 6.00441 7.71592 6.00625C7.71915 6.00629 7.72234 6.00647 7.72571 6.00629C7.81609 6.00665 7.90351 6.03379 7.97867 6.08482C8.01541 6.11002 8.06743 6.09304 8.08136 6.04924C8.12264 5.91825 8.1367 5.78564 8.12754 5.66143C8.0797 5.00983 8.11518 3.86473 8.8904 3.51586C9.57515 3.20743 10.2644 3.41564 10.7225 3.50504L10.753 3.44197C10.7531 3.44197 9.87711 1.98164 11.311 0.984601Z" fill="#35355E"/>
<path d="M2.39258 18.1759C4.37287 21.0875 7.71254 23 11.4991 23C15.2868 23 18.6272 21.0865 20.6073 18.1736C20.3361 17.3079 19.8358 16.4606 18.9253 15.9919L18.9256 15.9913C18.8643 15.9621 18.7825 15.9191 18.6406 15.8635C15.7194 14.5649 15.3828 14.6231 15.0866 14.5243C15.0956 14.5331 15.1036 14.5428 15.1095 14.5546C15.099 14.6422 15.1552 14.6278 14.9495 15.1567C14.523 16.2149 13.7476 17.1442 12.849 17.8548C12.7583 17.9265 12.6327 17.9313 12.5364 17.867C12.3815 17.7635 12.1087 18.7411 12.1235 19.0185C12.1287 19.1849 12.1248 18.9869 12.1261 21.2485C12.1261 21.3376 12.0523 21.4101 11.9616 21.4101C11.954 21.4101 11.0106 21.4101 11.0392 21.4101C10.9485 21.4101 10.8747 21.3376 10.8747 21.2485C10.8761 18.9869 10.8721 19.1847 10.8773 19.0185C10.8775 19.0165 10.8774 19.0145 10.8772 19.0125C10.8393 18.5235 10.6044 17.7735 10.4644 17.867C10.3681 17.9313 10.2425 17.9265 10.1518 17.8548C9.25318 17.1442 8.47779 16.2149 8.05134 15.1567C7.84555 14.6278 7.90175 14.6422 7.89129 14.5546C7.89721 14.5428 7.90521 14.5331 7.91411 14.5243C7.61798 14.6231 7.28143 14.5649 4.36025 15.8635C4.21825 15.9191 4.13649 15.9621 4.07517 15.9913L4.07549 15.9919C3.16407 16.4611 2.66373 17.3094 2.39258 18.1759Z" fill="#FFDD40"/>
<path d="M7.89115 14.5546C7.89708 14.5428 7.90504 14.5331 7.91397 14.5243C7.61785 14.6231 7.28129 14.5649 4.36011 15.8635C4.21811 15.9191 4.13636 15.9621 4.07504 15.9913L4.07535 15.9919C3.16407 16.4611 2.66373 17.3094 2.39258 18.1759C3.12687 19.2556 4.048 20.1978 5.10968 20.9561L5.46447 19.7853C5.6159 19.2856 5.97083 18.8728 6.44215 18.6482L9.06663 17.3975V16.8095C8.64405 16.3104 8.29199 15.7541 8.05126 15.1567C7.84538 14.6278 7.90158 14.6422 7.89115 14.5546Z" fill="#FFC839"/>
<path d="M8.79827 13.7787L8.84723 14.0483L8.84876 14.0547C8.86296 14.1167 8.87908 14.1791 8.89674 14.2402L8.89948 14.2495C8.90536 14.2698 8.91165 14.2905 8.91798 14.3108L8.92185 14.3232C8.92863 14.3445 8.93564 14.3661 8.94323 14.3887L8.94579 14.3961C9.1071 14.8699 9.45952 15.5605 10.2217 16.1596C10.4193 16.3149 10.6352 16.4577 10.8634 16.5839C10.9659 16.6406 11.0406 16.7268 11.0794 16.8332C11.082 16.8403 11.0859 16.8468 11.0909 16.8525C11.2079 16.9842 11.3197 17.1289 11.4232 17.2828C11.4456 17.3158 11.5004 17.3158 11.5226 17.2828C11.6256 17.1294 11.7378 16.9844 11.8557 16.8518C11.8607 16.8462 11.8646 16.8397 11.8671 16.8326C11.9061 16.7264 11.9807 16.6404 12.0829 16.5839C13.7219 15.6773 14.0744 14.341 14.1494 13.7689C13.9488 13.3096 13.8847 12.7418 13.8697 12.3059C13.6276 12.5879 13.3736 12.8237 13.1308 13.0122C12.6579 13.3795 12.0743 13.579 11.4732 13.579C10.8721 13.579 10.2885 13.3795 9.81552 13.0122C9.57277 12.8237 9.31869 12.5879 9.0766 12.3059C9.0616 12.7418 8.9975 13.3096 8.79688 13.769L8.79827 13.7787Z" fill="#FCA870"/>
<path d="M9.81552 13.0121C9.57277 12.8236 9.31869 12.5878 9.0766 12.3058C9.0616 12.7417 8.9975 13.3095 8.79688 13.7688L8.79809 13.7786L8.84705 14.0483L8.84858 14.0546C8.86278 14.1166 8.8789 14.179 8.89656 14.2401L8.8993 14.2494C8.90518 14.2697 8.91143 14.2904 8.9178 14.3107L8.92167 14.3231C8.92845 14.3444 8.93546 14.366 8.94305 14.3886L8.94561 14.396C9.10693 14.8698 9.45934 15.5603 10.2215 16.1595C10.2837 16.2083 10.3482 16.2554 10.4138 16.3017C11.0821 15.1762 11.2966 14.1309 11.3654 13.5766C10.8026 13.5543 10.2602 13.3574 9.81552 13.0121Z" fill="#F9955F"/>
<path d="M15.1982 6.58889C15.1509 6.46531 15.0945 6.3518 15.0305 6.25144C14.9211 6.07988 14.8693 5.87023 14.8844 5.66108C14.9328 4.99349 14.8928 3.81919 14.0815 3.45411C13.4001 3.14761 12.5731 3.31063 11.9993 3.50146C11.6595 3.61457 11.2852 3.61453 10.9454 3.50146C10.3716 3.31063 9.54462 3.14743 8.86324 3.45411C8.51434 3.61111 7.94616 4.10732 8.06067 5.66642C8.07576 5.87181 8.02374 6.07961 7.91422 6.25153C7.85209 6.34897 7.79702 6.45893 7.75057 6.57825C7.6145 6.92783 7.57048 7.31577 7.62322 7.70022L7.81351 9.08408C7.81351 11.3759 9.20016 12.7001 9.79632 13.163C10.2721 13.5326 10.8674 13.7361 11.4724 13.7361C12.0773 13.7361 12.6725 13.5326 13.1484 13.163C13.7445 12.7001 15.1312 11.3759 15.1309 9.08821L15.3214 7.70053C15.3737 7.31991 15.3311 6.93551 15.1982 6.58889Z" fill="#F9BD91"/>
<path d="M11.3972 13.163C10.9731 12.7 9.98673 11.3759 9.98673 9.08401L9.85138 7.70014C9.81383 7.3157 9.84514 6.92775 9.94194 6.57817C9.97501 6.45881 10.0142 6.34884 10.0584 6.25141C10.1363 6.07949 10.1733 5.87173 10.1626 5.6663C10.0811 4.10719 10.4853 3.61099 10.7335 3.45398C10.7402 3.44976 10.7469 3.44594 10.7537 3.44186C10.1969 3.28108 9.47197 3.17996 8.86319 3.45398C8.51433 3.61099 7.94616 4.10719 8.06066 5.6663C8.07576 5.87168 8.02374 6.07949 7.91422 6.25141C7.85209 6.34884 7.79702 6.45881 7.75057 6.57817C7.6145 6.92775 7.57048 7.3157 7.62322 7.70014L7.81351 9.08401C7.81351 11.3759 9.20015 12.7 9.79631 13.163C10.2721 13.5325 10.8674 13.7361 11.4723 13.7361C11.693 13.7361 11.9123 13.7087 12.1251 13.6563C11.8615 13.5652 11.6122 13.3977 11.3972 13.163Z" fill="#FCA870"/>
<path d="M11.5141 17.313C11.1874 16.8081 10.8654 16.543 10.8654 16.543L10.0332 17.8795C10.6327 18.2654 10.7398 19.2081 10.7589 19.5118C10.8086 18.5357 11.1783 17.7939 11.5141 17.313Z" fill="#FF9100"/>
<path d="M12.1823 21.4589V19.6083C12.1823 19.6083 12.1927 18.3425 12.9121 17.8795L12.08 16.543C12.08 16.543 10.7539 17.6325 10.7539 19.6083V21.4589H12.1823V21.4589Z" fill="#FFB332"/>
<path d="M10.8908 16.5315C9.23111 15.6136 8.91122 14.247 8.84986 13.7237C8.83899 13.6309 8.73167 13.5851 8.65642 13.6403L7.53301 14.464C7.47304 14.5079 7.44429 14.5838 7.4624 14.6559C7.90937 16.435 9.34625 17.734 9.97965 18.2347C10.1409 18.3622 10.376 18.3253 10.4907 18.1547C10.653 17.9136 10.8825 17.5726 11.0719 17.2911C11.2487 17.0282 11.168 16.6848 10.8908 16.5315Z" fill="#FFC839"/>
<path d="M10.2571 16.1125C9.14554 15.2388 8.90242 14.1719 8.84986 13.7236C8.83899 13.6309 8.73167 13.5851 8.65643 13.6403L7.53301 14.464C7.47304 14.5079 7.44429 14.5838 7.4624 14.6559C7.74842 15.7944 8.43968 16.7358 9.06648 17.3977C9.56408 15.7641 10.1191 16.0171 10.2571 16.1125Z" fill="#FFB332"/>
<path d="M15.4119 14.464L14.2885 13.6403C14.2132 13.5851 14.1059 13.6309 14.095 13.7237C14.0337 14.247 13.7138 15.6136 12.0541 16.5315C11.7769 16.6848 11.6961 17.0283 11.873 17.2911C12.0624 17.5726 12.2919 17.9136 12.4542 18.1548C12.5689 18.3253 12.8041 18.3622 12.9653 18.2348C13.5987 17.734 15.0356 16.435 15.4825 14.6559C15.5006 14.5838 15.4719 14.5079 15.4119 14.464Z" fill="#FFC839"/>
<path d="M11.8152 19.0687C11.8152 19.2237 11.6896 19.3493 11.5345 19.3493C11.3796 19.3493 11.2539 19.2237 11.2539 19.0687C11.2539 18.9137 11.3796 18.7881 11.5345 18.7881C11.6896 18.7881 11.8152 18.9137 11.8152 19.0687Z" fill="#FFC839"/>
<path d="M11.7527 20.4606C11.7527 20.6155 11.627 20.7412 11.472 20.7412C11.3171 20.7412 11.1914 20.6155 11.1914 20.4606C11.1914 20.3056 11.3171 20.1799 11.472 20.1799C11.627 20.1799 11.7527 20.3056 11.7527 20.4606Z" fill="#FFC839"/>
<path d="M10.7539 21.3964V21.9207C10.7539 22.052 10.8617 22.1583 10.9947 22.1583H11.9416C12.0745 22.1583 12.1823 22.052 12.1823 21.9207V21.3964H10.7539Z" fill="#FF9100"/>
<path d="M11.4397 0C8.47431 0 6.07031 2.40395 6.07031 5.36938V6.00767H6.87495V5.46502C6.87495 2.944 8.91867 0.900279 11.4397 0.900279C13.9608 0.900279 16.0045 2.944 16.0045 5.46502V6.00767H16.8091V5.36938C16.8091 2.40395 14.4052 0 11.4397 0V0Z" fill="#E3E7FC"/>
<path d="M6.07031 5.36938V6.00767H6.87495V5.46502C6.87495 2.96987 8.87699 0.942596 11.3623 0.901268C11.3676 0.866184 11.3586 0.828853 11.3337 0.79925C11.2125 0.654646 11.0743 0.36535 11.4397 0C8.47426 0 6.07031 2.40395 6.07031 5.36938Z" fill="#C8CEFC"/>
<path d="M16.5997 5.52344H16.1775C16.0143 5.52344 15.882 5.65573 15.882 5.81889V6.08141C15.882 6.21505 15.7665 6.31725 15.6334 6.30526L15.6309 6.30503C15.6473 6.35458 15.6564 6.40719 15.6564 6.46168V9.98153C15.6564 10.036 15.6474 10.0886 15.6309 10.1382C15.9179 10.1127 16.1875 10.0304 16.4272 9.90345C16.7156 9.75072 16.8951 9.45019 16.8951 9.12388V7.10725V6.88048V5.81889C16.8951 5.65569 16.7628 5.52344 16.5997 5.52344Z" fill="#C8CEFC"/>
<path d="M16.4272 7.71346C16.1946 7.83668 15.9338 7.91722 15.6563 7.94525V9.98147C15.6563 10.036 15.6473 10.0886 15.6309 10.1381C15.9179 10.1126 16.1875 10.0304 16.4272 9.9034C16.7156 9.75066 16.8951 9.45014 16.8951 9.12378V7.10715V6.93384C16.8951 7.2602 16.7155 7.56072 16.4272 7.71346Z" fill="#B8C0F4"/>
<path d="M15.1968 10.5046H15.156C14.8682 10.5046 14.6328 10.2692 14.6328 9.98149V6.46164C14.6328 6.17391 14.8682 5.93848 15.156 5.93848H15.1968C15.4845 5.93848 15.72 6.17391 15.72 6.46164V9.98149C15.7199 10.2692 15.4845 10.5046 15.1968 10.5046Z" fill="#E3E7FC"/>
<path d="M6.28173 5.52344H6.70396C6.86711 5.52344 6.99941 5.65573 6.99941 5.81889V6.08141C6.99941 6.21505 7.1149 6.31725 7.248 6.30526L7.25056 6.30503C7.23408 6.35458 7.22509 6.40719 7.22509 6.46168V9.98153C7.22509 10.036 7.23408 10.0886 7.25056 10.1382C6.96351 10.1127 6.69389 10.0304 6.45419 9.90345C6.16584 9.75072 5.98633 9.45019 5.98633 9.12388V7.10725V6.88048V5.81889C5.98633 5.65569 6.11858 5.52344 6.28173 5.52344Z" fill="#B8C0F4"/>
<path d="M7.22505 7.90033C6.94761 7.8723 6.6867 7.79176 6.45419 7.66854C6.16584 7.5158 5.98633 7.21527 5.98633 6.88892V7.10715V9.12378C5.98633 9.45009 6.16588 9.75062 6.45419 9.9034C6.69389 10.0304 6.96351 10.1126 7.25056 10.1381C7.23408 10.0886 7.22509 10.036 7.22509 9.98147V7.90033H7.22505Z" fill="#A4B0EA"/>
<path d="M7.68327 10.5046H7.72415C8.01188 10.5046 8.24731 10.2692 8.24731 9.98149V6.46164C8.24731 6.17391 8.01192 5.93848 7.72415 5.93848H7.68327C7.39555 5.93848 7.16016 6.17391 7.16016 6.46164V9.98149C7.16016 10.2692 7.39555 10.5046 7.68327 10.5046Z" fill="#E3E7FC"/>
<path d="M15.1968 8.283H15.1559C14.8682 8.283 14.6328 8.04757 14.6328 7.75989V9.98159C14.6328 10.2693 14.8682 10.5047 15.1559 10.5047H15.1968C15.4845 10.5047 15.7199 10.2694 15.7199 9.98159V7.75989C15.72 8.04757 15.4845 8.283 15.1968 8.283Z" fill="#C8CEFC"/>
<path d="M7.72415 8.283H7.68327C7.39555 8.283 7.16016 8.04757 7.16016 7.75989V9.98159C7.16016 10.2693 7.39555 10.5047 7.68327 10.5047H7.72415C8.01188 10.5047 8.24731 10.2694 8.24731 9.98159V7.75989C8.24727 8.04757 8.01188 8.283 7.72415 8.283Z" fill="#C8CEFC"/>
<path d="M13.3998 13.8357C13.3448 13.6569 13.4453 13.4673 13.6241 13.4123C14.3002 13.2046 14.9071 12.9445 15.2971 12.7629C15.4414 12.6958 15.5523 12.5701 15.6014 12.4182L16.1354 10.7653C16.2399 10.4422 16.0477 10.2235 16.0076 10.1104C15.9248 9.94268 15.9938 9.73954 16.1616 9.6567C16.3294 9.57396 16.5324 9.64296 16.6153 9.8107C16.6462 9.90714 16.9821 10.3484 16.7802 10.9736L16.2462 12.6265C16.1393 12.9572 15.8976 13.2308 15.5831 13.3772C15.1737 13.5677 14.5361 13.8409 13.8232 14.06C13.6435 14.1153 13.4545 14.0138 13.3998 13.8357Z" fill="#E3E7FC"/>
<path d="M11.8129 14.6841C11.4762 14.6841 11.2031 14.4111 11.2031 14.0743C11.2031 13.7375 11.4761 13.4645 11.8129 13.4645C12.198 13.4645 12.6556 13.3955 13.1732 13.2594C13.4991 13.1736 13.8324 13.3683 13.918 13.694C14.0037 14.0197 13.8092 14.3532 13.4834 14.4388C12.8646 14.6016 12.3026 14.6841 11.8129 14.6841Z" fill="#FF4155"/>
<path d="M12.4281 13.8793C12.4281 13.6816 12.5119 13.5039 12.6453 13.3784C12.3401 13.4353 12.0612 13.4644 11.8129 13.4644C11.4762 13.4644 11.2031 13.7374 11.2031 14.0742C11.2031 14.411 11.4761 14.684 11.8129 14.684C12.1673 14.684 12.56 14.6401 12.9842 14.5546C12.6674 14.4929 12.4281 14.2141 12.4281 13.8793Z" fill="#E80054"/>
<path d="M18.9818 0.832153H15.8853C14.235 0.832153 12.8848 2.18237 12.8848 3.83266C12.8848 5.48296 14.235 6.83317 15.8853 6.83317H17.9953C18.0956 6.83317 18.1768 6.91444 18.1768 7.01466V8.06695C18.1768 8.18586 18.3059 8.26034 18.4087 8.20046C18.9881 7.86265 19.2749 7.39259 19.4168 6.99709C19.461 6.87396 19.562 6.77913 19.6891 6.74814C21.001 6.42807 21.9823 5.23948 21.9823 3.83262C21.9823 2.18241 20.6321 0.832153 18.9818 0.832153Z" fill="#49DAFC"/>
<path d="M12.8848 3.83266C12.8848 5.48296 14.235 6.83317 15.8852 6.83317H16.8452C15.643 5.65483 16.7595 4.20489 16.7595 4.20489L16.5362 3.46538C15.3884 2.11827 16.5362 0.833636 16.5362 0.833636L16.534 0.832153H15.8853C14.235 0.832153 12.8848 2.18241 12.8848 3.83266Z" fill="#26C6F7"/>
<path d="M15.3266 3.86882C15.3266 4.09168 15.1459 4.27231 14.9231 4.27231C14.7002 4.27231 14.5195 4.09168 14.5195 3.86882C14.5195 3.64596 14.7002 3.46533 14.9231 3.46533C15.1459 3.46533 15.3266 3.64596 15.3266 3.86882Z" fill="white"/>
<path d="M16.9398 3.86882C16.9398 4.09168 16.7592 4.27231 16.5363 4.27231C16.3134 4.27231 16.1328 4.09168 16.1328 3.86882C16.1328 3.64596 16.3134 3.46533 16.5363 3.46533C16.7592 3.46533 16.9398 3.64596 16.9398 3.86882Z" fill="white"/>
<path d="M18.555 3.86882C18.555 4.09168 18.3744 4.27231 18.1515 4.27231C17.9287 4.27231 17.748 4.09168 17.748 3.86882C17.748 3.64596 17.9287 3.46533 18.1515 3.46533C18.3744 3.46533 18.555 3.64596 18.555 3.86882Z" fill="white"/>
<path d="M20.1683 3.86882C20.1683 4.09168 19.9877 4.27231 19.7648 4.27231C19.542 4.27231 19.3613 4.09168 19.3613 3.86882C19.3613 3.64596 19.542 3.46533 19.7648 3.46533C19.9877 3.46533 20.1683 3.64596 20.1683 3.86882Z" fill="white"/>
</g>
<defs>
<clipPath id="clip0_0_1727">
<rect width="23" height="23" fill="white"/>
</clipPath>
</defs>
</svg>
