<svg width="38" height="38" viewBox="0 0 38 38" fill="none" xmlns="http://www.w3.org/2000/svg">
<g clip-path="url(#clip0_304_901)">
<path d="M18.9998 37.9996C29.4931 37.9996 37.9996 29.4931 37.9996 18.9998C37.9996 8.50649 29.4931 0 18.9998 0C8.50649 0 0 8.50649 0 18.9998C0 29.4931 8.50649 37.9996 18.9998 37.9996Z" fill="#41B4E6"/>
<path d="M38.0003 19.0004C38.0003 18.5374 37.9829 18.0786 37.9504 17.6239L30.0758 9.74951L7.9248 18.4627L16.3999 26.9379L16.5111 27.3381L16.655 27.193L16.6556 27.1936L16.5111 27.3381L25.8862 36.7132C32.9756 33.9552 38.0003 27.065 38.0003 19.0004Z" fill="#0091C8"/>
<path d="M17.1552 21.7685L25.7416 28.2513L30.0759 9.74951L7.9248 18.4627L14.6651 20.6953L26.9664 12.4439L17.1552 21.7685Z" fill="white"/>
<path d="M14.665 20.6952L16.5111 27.3381L17.1551 21.7684L26.9663 12.4438L14.665 20.6952Z" fill="#D2D2D7"/>
<path d="M19.9454 23.8755L16.5107 27.3382L17.1547 21.7686L19.9454 23.8755Z" fill="#B9B9BE"/>
</g>
<defs>
<clipPath id="clip0_304_901">
<rect width="38" height="38" fill="white"/>
</clipPath>
</defs>
</svg>
