<svg width="65" height="65" viewBox="0 0 65 65" fill="none" xmlns="http://www.w3.org/2000/svg">
<path d="M32.5 0C14.5788 0 0 14.5788 0 32.5C0 50.4212 14.5788 65 32.5 65C50.4212 65 65 50.4212 65 32.5C65 14.5788 50.4212 0 32.5 0Z" fill="#F44336"/>
<path d="M44.469 40.6383C45.5277 41.6976 45.5277 43.409 44.469 44.4682C43.9408 44.9964 43.2475 45.2617 42.5538 45.2617C41.8605 45.2617 41.1672 44.9964 40.6391 44.4682L32.5007 36.3294L24.3623 44.4682C23.8341 44.9964 23.1408 45.2617 22.4476 45.2617C21.7538 45.2617 21.0605 44.9964 20.5324 44.4682C19.4736 43.409 19.4736 41.6976 20.5324 40.6383L28.6712 32.4999L20.5324 24.3615C19.4736 23.3023 19.4736 21.5909 20.5324 20.5316C21.5916 19.4729 23.303 19.4729 24.3623 20.5316L32.5007 28.6705L40.6391 20.5316C41.6983 19.4729 43.4097 19.4729 44.469 20.5316C45.5277 21.5909 45.5277 23.3023 44.469 24.3615L36.3301 32.4999L44.469 40.6383Z" fill="#FAFAFA"/>
</svg>
