<svg width="38" height="38" viewBox="0 0 38 38" fill="none" xmlns="http://www.w3.org/2000/svg">
<circle cx="19" cy="19" r="19" fill="#EBF0F8"/>
<path d="M24.5107 23.0137C24.5107 24.0319 24.2524 24.9378 23.7358 25.7314C23.2192 26.5176 22.4743 27.1315 21.501 27.5732C20.5277 28.0075 19.3859 28.2246 18.0757 28.2246C16.9826 28.2246 16.0654 28.1497 15.3242 28C14.583 27.8428 13.8118 27.5732 13.0107 27.1914V23.2383C13.8568 23.6725 14.7365 24.0132 15.6499 24.2603C16.5633 24.4998 17.4019 24.6196 18.1655 24.6196C18.8244 24.6196 19.3073 24.5073 19.6143 24.2827C19.9212 24.0506 20.0747 23.7549 20.0747 23.3955C20.0747 23.1709 20.0111 22.9762 19.8838 22.8115C19.764 22.6393 19.5656 22.4671 19.2886 22.2949C19.019 22.1227 18.2928 21.7708 17.1099 21.2393C16.0392 20.7526 15.2344 20.2809 14.6953 19.8242C14.1637 19.3675 13.7669 18.8434 13.5049 18.252C13.2503 17.6605 13.123 16.9604 13.123 16.1519C13.123 14.6395 13.6733 13.4603 14.7739 12.6143C15.8745 11.7682 17.3869 11.3452 19.311 11.3452C21.0106 11.3452 22.7438 11.7383 24.5107 12.5244L23.1519 15.9497C21.617 15.2459 20.2918 14.894 19.1763 14.894C18.5998 14.894 18.1805 14.9951 17.9185 15.1973C17.6564 15.3994 17.5254 15.6502 17.5254 15.9497C17.5254 16.2716 17.6901 16.5599 18.0195 16.8145C18.3564 17.069 19.2624 17.5332 20.7373 18.207C22.1523 18.8434 23.1331 19.5285 23.6797 20.2622C24.2337 20.9884 24.5107 21.9056 24.5107 23.0137Z" fill="#78A1CF"/>
</svg>
