<svg width="22" height="22" viewBox="0 0 22 22" fill="none" xmlns="http://www.w3.org/2000/svg">
<path d="M13.876 2.69153L21.5561 15.9939C21.8377 16.4818 21.9997 17.0473 21.9997 17.6511C21.9997 19.4845 20.5133 20.971 18.6798 20.971H10.9997L8.34375 10.9999L10.9997 1.02881C12.2295 1.02881 13.3023 1.69796 13.876 2.69153Z" fill="#3B4145"/>
<path d="M8.12372 2.69153L0.443566 15.9939C0.161949 16.4818 0 17.0473 0 17.6511C0 19.4845 1.48637 20.971 3.31994 20.971H11V1.02881C9.77023 1.02881 8.69743 1.69796 8.12372 2.69153Z" fill="#525A61"/>
<path d="M20.406 16.6579L12.7259 3.35565C12.3797 2.75584 11.7441 2.37738 11.0566 2.35791L17.6252 19.6432H18.6796C19.7779 19.6432 20.6716 18.7495 20.6716 17.6512C20.6716 17.3024 20.5795 16.9589 20.406 16.6579Z" fill="#FFB751"/>
<path d="M19.1149 16.6583C19.265 16.9593 19.3442 17.3028 19.3442 17.6516C19.3442 18.7498 18.5735 19.6435 17.6258 19.6435H3.32007C2.22183 19.6435 1.32812 18.7498 1.32812 17.6516C1.32812 17.3028 1.42021 16.9593 1.59371 16.6583L9.27378 3.356C9.62969 2.73983 10.291 2.35693 11.0001 2.35693C11.0192 2.35693 11.0382 2.35736 11.0572 2.35827C11.6473 2.3813 12.1922 2.75886 12.4892 3.356L19.1149 16.6583Z" fill="#FFD764"/>
<path d="M11 15.2168V17.4301C11.6113 17.4301 12.1067 16.9347 12.1067 16.3234C12.1067 15.7121 11.6113 15.2168 11 15.2168Z" fill="#3B4145"/>
<path d="M11.0002 15.2168C11.1224 15.2168 11.2215 15.7121 11.2215 16.3235C11.2215 16.9348 11.1224 17.4301 11.0002 17.4301C10.3889 17.4301 9.89355 16.9348 9.89355 16.3235C9.89355 15.7121 10.3889 15.2168 11.0002 15.2168Z" fill="#525A61"/>
<path d="M11 5.69971V13.8889C11.6113 13.8889 12.1067 13.3931 12.1067 12.7822V6.80637C12.1067 6.19505 11.6113 5.69971 11 5.69971Z" fill="#3B4145"/>
<path d="M11.0002 5.69971C11.1224 5.69971 11.2215 6.19505 11.2215 6.80637V12.7822C11.2215 13.393 11.1224 13.8889 11.0002 13.8889C10.3889 13.8889 9.89355 13.3931 9.89355 12.7822V6.80637C9.89355 6.19505 10.3889 5.69971 11.0002 5.69971Z" fill="#525A61"/>
</svg>
