<svg width="180" height="180" viewBox="0 0 180 180" fill="none" xmlns="http://www.w3.org/2000/svg">
<path d="M34.3888 83.0126C35.1296 81.5767 34.5028 81.1746 34.5028 80.5428C34.5028 79.509 34.2178 79.1644 33.819 78.4752C33.3631 78.0157 33.3631 77.4413 33.3631 77.0393C33.534 75.3162 33.648 71.5254 33.819 69.8024C33.9329 68.0793 34.2178 66.3562 34.3888 64.5183C34.5028 63.1973 34.7877 61.9337 35.2436 60.6127C35.3575 60.2106 35.2436 59.7511 35.3575 59.1768C35.3575 58.7747 35.5285 58.3153 35.5285 57.7409C35.5285 56.7645 35.6425 55.6158 35.3575 54.4671C35.0726 53.0312 35.5855 51.0209 34.7877 49.6999C34.2748 48.8384 33.762 48.0343 33.0782 47.2876C31.4826 45.622 30.001 44.703 27.7786 44.1861C26.9239 44.0138 24.8154 43.8989 23.9607 44.1287C23.3908 44.301 22.821 44.3584 22.1372 44.5881C21.5673 44.7604 20.2567 45.1051 19.9718 45.6794C19.6869 46.541 18.3762 46.943 18.2622 47.9768C18.2053 48.4938 19.5729 48.8384 19.6869 49.1256C19.5729 49.6999 19.174 50.2743 19.117 50.8486C18.9461 52.2845 18.7181 53.5481 18.7181 55.3286C18.7181 56.5922 18.5472 57.9132 18.5472 59.0619C18.5472 60.6127 18.4332 62.2209 18.4332 63.7716C18.4332 66.5285 17.6924 70.3767 18.1483 73.2485C18.4332 75.1439 18.7181 76.9818 19.288 78.7049C19.5729 79.5664 20.0857 80.6577 20.9975 80.7151C21.5673 80.7726 22.1372 80.4854 22.4221 80.0259C22.707 79.509 22.4221 78.8772 22.4221 78.3028C22.4221 76.6946 21.9662 74.9716 22.4221 73.4208V72.8465C22.2511 70.9511 22.707 67.7347 22.707 65.8393V57.7409C22.707 56.4773 22.5361 55.1563 22.5361 53.8927C22.5361 53.3184 22.4221 52.744 22.707 52.1696C22.821 51.423 22.9919 50.5614 23.1059 49.8722C23.1059 49.2979 22.9919 49.1256 22.2511 49.2979C22.1372 49.2979 21.8523 49.2979 21.9662 48.8384C22.1372 48.8384 22.2511 48.8384 22.4221 48.7235C23.2769 47.9768 24.4165 47.862 25.3853 47.6897C26.411 47.4599 28.5194 47.5174 29.4881 47.9768C30.6278 48.5512 30.6848 48.7235 31.1407 49.4702C31.7105 50.3317 30.8558 51.3655 30.8558 52.3994C30.8558 52.6866 30.6848 53.8927 30.7988 54.2948V55.3286C30.6848 56.5922 30.5139 57.7409 30.2289 58.8896C29.1462 63.6568 28.8043 68.2516 28.4054 73.1336C28.2345 75.4311 28.1205 77.7285 28.4054 80.1408C28.5194 81.1746 28.9753 82.151 29.0893 83.2997C29.0893 83.8741 29.5451 84.1613 29.944 84.4485C30.3999 84.6208 30.7988 84.7356 31.2547 85.0228C32.3943 85.5972 32.1094 85.1951 33.0782 84.7356C33.648 84.3336 34.0469 83.6444 34.3888 83.0126Z" fill="#282828"/>
<path d="M59.8617 51.8825C59.4628 50.6189 59.1778 50.4466 58.3801 49.183C57.8672 48.7235 57.7532 48.4363 57.2404 48.0343C57.0124 47.9194 56.6705 47.5748 56.5566 47.4025C55.8728 46.5984 53.8783 45.5071 52.7956 45.2199C51.2 44.8179 50.2313 44.6456 48.8067 44.9328C48.2369 45.0476 47.5531 45.1625 47.1542 45.4497C46.8692 45.622 46.6983 46.3686 46.5273 46.6558C44.9318 47.1153 42.8234 47.9768 42.0256 51.2507L41.5127 53.5481C41.0568 54.8117 41.0568 57.8558 40.8289 59.3491C40.601 61.5891 40.544 63.0824 40.7149 65.3224C40.8289 66.0116 40.8859 66.586 40.9429 67.1603C40.7149 67.1029 40.544 66.988 40.43 66.8732C40.0881 66.6434 38.9484 66.1839 38.7775 67.2752C38.7205 67.7347 39.0624 68.1367 39.1194 68.5388C39.1194 68.5388 39.9741 68.826 40.1451 68.9983C40.2591 69.1706 40.544 69.3429 40.9999 69.5726C40.9999 69.6875 41.0568 69.7449 41.0568 69.8598C41.4557 74.6844 43.0513 80.0259 44.134 81.6341C44.248 81.8639 44.305 82.4382 44.4759 82.7828C45.2167 83.3572 43.8491 84.1613 44.4189 84.6208C44.8178 84.9079 45.1597 85.5397 45.2737 85.3674C46.3564 85.31 47.667 85.6546 48.0659 84.9079C48.4648 84.2762 48.4078 82.3233 48.1799 81.2895C47.895 79.911 47.2111 78.9346 47.2111 78.4752C47.1542 76.4649 46.9262 75.3162 46.7553 73.4783C46.5843 72.5018 46.5843 71.5829 46.5273 70.6639C48.0659 70.6065 49.6045 69.8598 50.8581 69.6875C51.9408 69.5152 53.9923 68.6537 54.847 68.0793C58.2091 65.8968 57.9242 65.3798 59.3488 62.5081C59.8617 61.4168 60.3175 59.6937 60.3175 58.4301C60.3175 56.3624 60.4885 53.8353 59.8617 51.8825ZM46.2424 60.8999C46.3564 59.0619 47.781 49.2404 47.4391 47.8045C48.3508 47.5748 48.1229 47.6897 49.4905 47.2876C50.9721 46.8856 53.0805 48.6661 53.9353 49.4127C54.5051 50.0445 55.018 52.6291 55.018 53.2609C55.1889 55.6158 54.4482 57.8558 54.1632 59.9809C53.7074 62.0486 53.0235 65.8393 50.8012 66.9306C49.8324 67.3901 48.1229 68.1942 46.2994 68.1942C45.8435 65.8393 46.1284 62.9675 46.2424 60.8999ZM57.4113 55.8455C57.4683 56.8219 56.9555 57.5112 56.7845 58.4876C56.7275 58.6599 56.4996 59.3491 56.4426 58.6599C56.4426 58.4301 56.6705 57.9132 56.6705 57.6835C56.6705 57.626 56.7275 57.5112 56.6136 57.3963C56.7845 56.5922 57.4113 55.7306 57.4113 54.8117C57.6963 55.0989 57.4113 55.5009 57.4113 55.8455Z" fill="#282828"/>
<path d="M66.1562 54.0076C64.6746 56.4773 65.0165 56.305 63.9338 58.8896C63.4209 60.0958 63.193 61.5891 62.9081 63.8291C62.7941 64.9203 62.7371 66.1265 62.7371 67.2752C62.7371 68.5388 62.8511 69.8024 63.079 70.8937C63.193 71.6978 63.5349 72.4444 63.7059 73.3059C63.8768 74.3398 64.9025 75.6034 65.3014 76.4649C65.9283 77.6136 66.726 78.7623 67.6378 79.3367C67.9227 79.509 68.2076 79.7962 68.4926 80.0259C70.2591 81.749 72.4815 82.6105 75.0457 83.0126C76.9832 83.2997 78.8637 82.2659 80.5732 81.3469C80.9721 81.1746 81.257 80.8874 81.5989 80.6003C81.8839 80.3131 82.1688 79.6239 82.7386 79.6239C82.8526 79.6239 82.9666 79.4516 83.1375 79.3367C83.4794 79.0495 83.7074 78.4177 84.1062 78.0157C84.2202 77.9008 85.5878 75.4311 85.7018 75.029C86.4426 73.1336 86.4996 73.4783 86.9555 71.468C87.4113 69.6301 87.6393 67.5624 87.8672 65.7244C87.9242 65.4947 87.9242 65.1501 87.9242 64.8055C87.9812 63.1398 87.6963 61.7614 87.4683 60.6127C86.7275 57.224 85.9867 57.224 84.7331 54.6394C84.0493 53.2609 82.6247 52.1122 81.2 51.3081C79.8324 50.5614 78.2938 48.6086 76.4704 48.2066C75.5016 47.9768 74.3619 47.862 73.1653 47.862C72.1965 47.862 71.1708 48.0343 70.2021 48.3215C69.5183 48.5512 68.7775 48.8958 68.2076 49.2404C67.4099 49.6999 66.1562 50.9061 66.1562 51.9973C66.1562 52.5143 66.0422 53.663 66.1562 54.0076ZM70.601 57.7983C70.544 57.5112 70.8289 56.8219 70.8289 56.5922C70.9999 56.1327 70.9429 55.0989 71.1708 54.6394C71.1708 54.4671 71.2848 54.3522 71.2848 54.065C71.3987 53.7778 71.1708 53.0886 70.9999 52.744C71.3988 52.3419 71.7976 52.2845 72.1965 51.7676C72.3675 51.5378 74.3619 50.7912 75.2737 50.7912C77.4961 50.7912 79.6045 52.3994 80.8012 54.6394C80.9721 54.9266 81.2 55.386 81.428 55.7881C82.1118 57.224 82.2258 58.6024 82.1118 60.2106C81.9978 62.0486 81.9408 63.2547 81.8839 64.9778C81.8269 67.6198 81.5989 69.8024 81.0861 72.0998C80.8012 73.1911 80.1173 74.4547 79.5475 75.3736C79.1486 76.0054 78.5788 77.1541 78.0089 77.7859L77.4391 78.3028C75.8435 78.8772 74.9888 79.7387 73.3932 79.7962C70.8289 79.8536 70.373 78.8772 68.9484 76.867C68.7205 76.4649 67.9797 74.3398 67.8087 73.708C67.5238 72.5018 67.7518 71.6403 67.6948 70.4342C67.6378 69.2855 67.5808 67.9644 67.8657 67.1029L70.601 57.7983Z" fill="#282828"/>
<path d="M104.832 46.3112C103.465 45.7943 100.445 47.6897 99.419 48.8384C98.2223 50.102 97.4815 50.2743 96.2849 51.6527C95.829 52.0548 95.4301 52.6291 95.3161 53.0312C94.7463 54.2373 93.4356 56.3624 93.2077 57.5686C92.9228 59.1194 92.296 60.6127 91.8971 62.1634C91.6121 63.2547 91.3842 66.0116 91.4412 67.1029C91.7261 71.0085 92.2959 73.3059 94.0625 76.4649C95.3161 78.7049 96.6837 80.3131 99.0201 81.3469C99.476 81.5767 100.787 82.3808 101.47 82.8403C102.439 83.3572 103.579 83.1849 104.548 83.5295C105.63 83.8741 106.77 83.5869 107.739 83.2423C108.821 82.8977 109.961 82.7254 110.873 82.3808C112.126 81.8639 112.639 81.6341 113.608 81.1746C113.95 81.0598 114.748 80.428 114.976 80.1982C115.09 79.7962 115.375 79.911 115.489 79.3367C115.773 78.7049 115.261 78.8198 115.033 78.59C114.805 78.3603 113.836 78.6475 113.836 78.6475C111.671 79.6813 111.557 79.8536 110.189 80.3131C108.195 81.0023 104.092 80.1982 102.439 78.8198C101.47 78.0157 101.242 77.0393 100.673 75.7757C100.559 75.3736 100.274 74.9716 100.16 74.5695C98.5072 71.9275 98.6212 67.6198 98.7922 64.5757C98.9061 62.5081 99.191 60.6127 100.046 58.6599C100.274 57.9706 100.559 57.4537 100.958 56.7645C101.129 56.4773 101.242 56.1901 101.242 55.7881C101.413 54.2373 104.149 50.6763 105.516 49.8148C105.744 49.5276 106.2 49.5276 106.428 49.2404C106.713 49.1256 108.252 48.3789 108.479 48.0917C111.443 48.0343 111.101 50.102 110.816 50.9061C110.075 53.0312 109.733 53.4332 109.733 54.9266C109.733 56.305 110.474 57.0517 110.987 57.5686C111.272 57.8558 111.557 58.1429 111.842 58.1429C112.24 58.1429 112.468 58.0855 112.639 57.8558C112.924 57.5686 113.038 57.2814 113.209 57.1665C113.494 56.305 113.893 55.7881 114.007 54.9266C114.292 54.0076 114.577 53.146 114.178 52.3419C114.007 51.9399 114.007 51.4804 114.007 51.0784C114.178 49.9871 113.152 49.0107 112.753 48.0343C112.468 47.5174 112.24 46.943 111.956 46.4261C111.557 45.5645 110.36 45.2199 109.163 45.2199C108.081 45.2199 107.055 45.4497 106.428 45.8517C105.687 46.4261 105.972 46.8281 104.832 46.3112Z" fill="#282828"/>
<path d="M124.554 49.9871C124.554 50.5614 124.667 50.9635 124.61 51.3655C124.667 52.8589 124.554 53.8353 124.61 55.2137C124.554 57.9706 124.155 60.0958 124.155 62.8527C124.155 65.0352 123.984 67.3901 123.984 69.7449C123.984 72.5018 124.041 75.2588 124.61 78.0157C124.838 78.7049 124.838 79.3941 125.18 79.9685C125.294 80.6577 125.636 81.3469 125.921 82.0362C126.206 82.7254 126.32 83.4146 127.004 83.9315C127.631 84.3336 127.631 85.1377 128.144 85.6546C128.314 85.6546 128.485 85.7695 128.656 85.7695C129.283 85.4823 129.967 85.8269 130.48 85.31C130.993 84.9654 130.822 83.7592 130.822 83.07C130.765 81.9787 130.537 80.7726 130.195 79.6239C130.081 79.2793 129.967 78.7623 129.853 78.188C129.967 75.3162 129.796 72.387 129.682 69.5152C129.625 67.8496 129.511 66.1839 129.511 64.4034C129.511 63.3122 129.625 62.2209 129.397 61.1296C129.169 59.2917 128.998 57.9706 128.827 56.0178C128.713 54.3522 128.428 53.3184 127.973 51.825C127.745 51.1358 127.745 50.6189 127.916 49.9297C128.144 49.6999 128.371 49.585 128.656 49.585C130.309 49.585 130.993 49.183 132.759 49.2979C133.899 49.4127 135.893 48.7235 137.147 47.4599C137.261 47.2876 137.66 47.1153 137.945 47.0004C138.059 47.0004 138.287 46.5984 138.344 46.541C138.515 46.3686 138.572 46.0815 138.515 45.8517C138.401 45.2774 138.059 44.8179 137.204 44.9902C136.292 45.2774 134.754 46.5984 133.956 46.2538C133.557 46.0815 131.506 46.2538 131.107 46.2538C129.511 46.3686 128.144 46.2538 126.662 46.2538C125.066 46.2538 123.357 46.3112 121.191 47.0004C119.14 47.6322 117.772 48.2066 116.063 48.7809C115.607 48.9532 115.607 49.8722 115.607 50.4466C115.607 52.1122 117.089 51.7102 118.399 51.7102C118.798 51.7102 119.083 51.4804 119.368 51.3655C120.679 50.4466 122.787 50.102 124.554 49.9871ZM128.485 72.3295C128.713 72.5593 128.599 74.627 128.713 75.4885C128.827 76.4075 128.827 77.0393 128.827 77.0393C127.802 76.0054 128.485 72.3295 128.485 72.3295Z" fill="#282828"/>
<path d="M140.225 54.0076C138.743 56.4773 139.085 56.305 138.002 58.8896C137.489 60.0958 137.261 61.5891 136.977 63.8291C136.863 64.9203 136.806 66.1265 136.806 67.2752C136.806 68.5388 136.92 69.8024 137.147 70.8937C137.261 71.6978 137.603 72.4444 137.774 73.3059C137.945 74.3398 138.971 75.6034 139.37 76.4649C139.997 77.6136 140.794 78.7623 141.706 79.3367C141.991 79.509 142.276 79.7962 142.561 80.0259C144.327 81.749 146.55 82.6105 149.114 83.0126C151.052 83.2997 152.932 82.2659 154.642 81.3469C155.041 81.1746 155.325 80.8874 155.667 80.6003C155.952 80.3131 156.237 79.6239 156.807 79.6239C156.921 79.6239 157.035 79.4516 157.206 79.3367C157.548 79.0495 157.776 78.4177 158.175 78.0157C158.289 77.9008 159.656 75.4311 159.77 75.029C160.511 73.1336 160.568 73.4783 161.024 71.468C161.48 69.6301 161.708 67.5624 161.936 65.7244C161.993 65.4947 161.993 65.1501 161.993 64.8055C162.05 63.1398 161.765 61.7614 161.537 60.6127C160.796 57.224 160.055 57.224 158.802 54.6394C158.118 53.2609 156.693 52.1122 155.268 51.3081C153.901 50.5614 152.362 48.6086 150.539 48.2066C149.57 47.9768 148.43 47.862 147.234 47.862C146.265 47.862 145.239 48.0343 144.271 48.3215C143.587 48.5512 142.846 48.8958 142.276 49.2404C141.478 49.6999 140.225 50.9061 140.225 51.9973C140.225 52.5143 140.111 53.663 140.225 54.0076ZM144.669 57.7983C144.612 57.5112 144.897 56.8219 144.897 56.5922C145.068 56.1327 145.011 55.0989 145.239 54.6394C145.239 54.4671 145.353 54.3522 145.353 54.065C145.467 53.7778 145.239 53.0886 145.068 52.744C145.467 52.3419 145.866 52.2845 146.265 51.7676C146.436 51.5378 148.43 50.7912 149.342 50.7912C151.564 50.7912 153.673 52.3994 154.87 54.6394C155.041 54.9266 155.268 55.386 155.496 55.7881C156.18 57.224 156.294 58.6024 156.18 60.2106C156.066 62.0486 156.009 63.2547 155.952 64.9778C155.895 67.6198 155.667 69.8024 155.155 72.0998C154.87 73.1911 154.186 74.4547 153.616 75.3736C153.217 76.0054 152.647 77.1541 152.077 77.7859L151.508 78.3028C149.912 78.8772 149.057 79.7387 147.462 79.7962C144.897 79.8536 144.441 78.8772 143.017 76.867C142.789 76.4649 142.048 74.3398 141.877 73.708C141.592 72.5018 141.82 71.6403 141.763 70.4342C141.706 69.2855 141.649 67.9644 141.934 67.1029L144.669 57.7983Z" fill="#282828"/>
<path d="M50.3878 132.243C51.1286 130.807 50.5018 130.405 50.5018 129.773C50.5018 128.74 50.2168 128.395 49.818 127.706C49.3621 127.246 49.3621 126.672 49.3621 126.27C49.533 124.547 49.647 120.756 49.818 119.033C49.9319 117.31 50.2168 115.587 50.3878 113.749C50.5018 112.428 50.7867 111.164 51.2426 109.843C51.3565 109.441 51.2426 108.982 51.3565 108.407C51.3565 108.005 51.5275 107.546 51.5275 106.971C51.5275 105.995 51.6415 104.846 51.3565 103.698C51.0716 102.262 51.5845 100.251 50.7867 98.9304C50.2738 98.0689 49.761 97.2648 49.0772 96.5181C47.4816 94.8525 46 93.9335 43.7776 93.4166C42.9229 93.2443 40.8144 93.1294 39.9597 93.3592C39.3898 93.5315 38.82 93.5889 38.1362 93.8187C37.5663 93.991 36.2557 94.3356 35.9708 94.9099C35.6859 95.7715 34.3752 96.1735 34.2612 97.2074C34.2043 97.7243 35.5719 98.0689 35.6859 98.3561C35.5719 98.9304 35.173 99.5048 35.116 100.079C34.9451 101.515 34.7171 102.779 34.7171 104.559C34.7171 105.823 34.5462 107.144 34.5462 108.292C34.5462 109.843 34.4322 111.451 34.4322 113.002C34.4322 115.759 33.6914 119.607 34.1473 122.479C34.4322 124.374 34.7171 126.212 35.287 127.935C35.5719 128.797 36.0847 129.888 36.9965 129.946C37.5663 130.003 38.1362 129.716 38.4211 129.256C38.706 128.74 38.4211 128.108 38.4211 127.533C38.4211 125.925 37.9652 124.202 38.4211 122.651V122.077C38.2502 120.182 38.706 116.965 38.706 115.07V106.971C38.706 105.708 38.5351 104.387 38.5351 103.123C38.5351 102.549 38.4211 101.975 38.706 101.4C38.82 100.654 38.9909 99.792 39.1049 99.1027C39.1049 98.5284 38.9909 98.3561 38.2502 98.5284C38.1362 98.5284 37.8513 98.5284 37.9652 98.0689C38.1362 98.0689 38.2502 98.0689 38.4211 97.954C39.2759 97.2074 40.4156 97.0925 41.3843 96.9202C42.41 96.6904 44.5184 96.7479 45.4872 97.2074C46.6268 97.7817 46.6838 97.954 47.1397 98.7007C47.7095 99.5622 46.8548 100.596 46.8548 101.63C46.8548 101.917 46.6838 103.123 46.7978 103.525V104.559C46.6838 105.823 46.5129 106.971 46.2279 108.12C45.1452 112.887 44.8033 117.482 44.4044 122.364C44.2335 124.662 44.1195 126.959 44.4044 129.371C44.5184 130.405 44.9743 131.382 45.0883 132.53C45.0883 133.105 45.5441 133.392 45.943 133.679C46.3989 133.851 46.7978 133.966 47.2537 134.253C48.3933 134.828 48.1084 134.426 49.0772 133.966C49.647 133.564 50.0459 132.875 50.3878 132.243Z" fill="#282828"/>
<path d="M74.2081 129.716C74.3221 129.429 74.607 129.142 74.607 128.854C74.664 127.993 73.6383 128.223 73.6383 126.844C73.6383 125.753 74.1511 121.847 74.2651 120.871C74.3791 119.32 74.8919 115.3 74.8919 113.921C74.8919 110.762 75.2338 109.671 74.8919 106.455C74.493 102.779 72.4416 99.3325 72.1567 96.9776C72.0427 95.312 71.4159 94.2207 70.6181 92.67C70.0483 91.751 69.5924 91.1192 68.6237 90.7746C67.427 90.3151 66.2303 90.4874 65.1476 90.7746C64.7487 90.832 64.4638 91.0618 64.0649 91.2915C62.4124 92.5551 61.5006 94.3356 61.1017 96.4033C60.7028 98.1838 59.6201 100.137 59.4492 101.917C59.2213 104.846 58.4235 107.718 57.9676 110.475C57.6257 112.256 57.3978 114.208 57.3978 115.989C57.3978 116.391 57.3978 116.793 57.2838 117.252C56.7139 120.009 57.3408 121.618 56.7709 124.374C56.7709 124.604 56.657 125.064 56.657 125.293C56.0871 127.361 56.8279 128.165 56.372 130.061C56.2011 130.635 56.1441 131.037 56.2011 131.554C56.1441 132.013 56.2581 132.243 56.657 132.588C56.7709 132.588 56.8849 132.932 57.1128 133.047C57.5117 133.392 57.6257 133.736 58.0816 133.507C58.3665 133.507 58.6514 133.449 58.8793 133.449C59.2213 133.219 59.3922 132.875 59.5632 132.703C60.19 132.071 60.5319 131.267 60.19 130.577C60.076 130.29 60.133 129.831 60.19 129.601C60.3609 128.28 59.962 128.625 60.4179 127.246C61.5576 123.628 61.8425 120.009 62.2984 116.104C62.4694 115.702 62.5833 115.3 62.7543 114.725C64.5208 114.725 66.7432 114.61 68.3387 114.61C68.6237 114.61 68.9086 114.61 69.1935 114.725C69.3075 114.725 69.4784 114.725 69.5924 114.898C69.5924 115.012 69.7064 115.185 69.5924 115.3C69.4784 117.252 69.3645 119.55 69.3645 122.02C69.3645 123.57 70.2762 126.442 70.96 128.108C71.2449 128.74 71.7578 129.429 72.2707 129.831C72.6695 130.233 73.2394 129.831 73.6383 129.831C73.8092 129.831 73.9232 129.716 74.2081 129.716ZM69.9343 112.945C68.1678 112.141 65.0337 112.543 63.1532 112.428C62.9822 112.255 63.5521 109.671 63.5521 109.499C63.5521 108.407 63.666 107.316 63.837 106.225C63.837 106.052 63.9509 105.765 63.837 105.536C63.5521 103.296 63.894 101.113 64.1789 98.7581C64.3498 97.6669 64.4638 96.4033 64.7487 95.312C64.8627 94.3356 65.7175 93.6464 66.6292 93.6464C67.0851 93.6464 67.313 93.8187 67.5979 94.2207C67.7689 94.6228 67.9968 95.0248 68.1678 95.5992C68.2818 96.8053 68.5667 97.4945 68.6806 98.7581C68.8516 100.711 69.2505 103.181 69.4214 105.076C69.4214 105.363 69.4214 105.536 69.5354 105.765C69.6494 106.34 69.8203 106.742 69.8203 107.316C69.9343 108.694 70.2192 111.451 69.9343 112.945Z" fill="#282828"/>
<path d="M92.7845 95.5417C91.4169 95.0248 88.3968 96.9202 87.371 98.0689C86.1744 99.3325 85.4336 99.5048 84.2369 100.883C83.781 101.285 83.3821 101.86 83.2682 102.262C82.6983 103.468 81.3877 105.593 81.1598 106.799C80.8748 108.35 80.248 109.843 79.8491 111.394C79.5642 112.485 79.3363 115.242 79.3932 116.333C79.6782 120.239 80.248 122.536 82.0145 125.695C83.2682 127.935 84.6358 129.544 86.9722 130.577C87.428 130.807 88.7387 131.611 89.4225 132.071C90.3912 132.588 91.5309 132.415 92.4996 132.76C93.5823 133.105 94.722 132.817 95.6907 132.473C96.7734 132.128 97.9131 131.956 98.8249 131.611C100.079 131.094 100.591 130.865 101.56 130.405C101.902 130.29 102.7 129.658 102.928 129.429C103.042 129.027 103.327 129.142 103.441 128.567C103.726 127.935 103.213 128.05 102.985 127.821C102.757 127.591 101.788 127.878 101.788 127.878C99.6227 128.912 99.5087 129.084 98.1411 129.544C96.1466 130.233 92.0438 129.429 90.3912 128.05C89.4225 127.246 89.1945 126.27 88.6247 125.006C88.5107 124.604 88.2258 124.202 88.1118 123.8C86.4593 121.158 86.5733 116.85 86.7442 113.806C86.8582 111.739 87.1431 109.843 87.9979 107.89C88.2258 107.201 88.5107 106.684 88.9096 105.995C89.0806 105.708 89.1945 105.421 89.1945 105.019C89.3655 103.468 92.1007 99.9068 93.4684 99.0453C93.6963 98.7581 94.1522 98.7581 94.3801 98.471C94.665 98.3561 96.2036 97.6094 96.4315 97.3222C99.3947 97.2648 99.0528 99.3325 98.7679 100.137C98.0271 102.262 97.6852 102.664 97.6852 104.157C97.6852 105.536 98.426 106.282 98.9388 106.799C99.2238 107.086 99.5087 107.373 99.7936 107.373C100.193 107.373 100.42 107.316 100.591 107.086C100.876 106.799 100.99 106.512 101.161 106.397C101.446 105.536 101.845 105.019 101.959 104.157C102.244 103.238 102.529 102.377 102.13 101.572C101.959 101.17 101.959 100.711 101.959 100.309C102.13 99.2176 101.104 98.2412 100.705 97.2648C100.42 96.7479 100.193 96.1735 99.9076 95.6566C99.5087 94.7951 98.312 94.4505 97.1154 94.4505C96.0326 94.4505 95.0069 94.6802 94.3801 95.0822C93.6393 95.6566 93.9242 96.0587 92.7845 95.5417Z" fill="#282828"/>
<path d="M112.506 99.2176C112.506 99.792 112.62 100.194 112.563 100.596C112.62 102.089 112.506 103.066 112.563 104.444C112.506 107.201 112.107 109.326 112.107 112.083C112.107 114.266 111.936 116.621 111.936 118.975C111.936 121.732 111.993 124.489 112.563 127.246C112.79 127.935 112.79 128.625 113.132 129.199C113.246 129.888 113.588 130.577 113.873 131.267C114.158 131.956 114.272 132.645 114.956 133.162C115.583 133.564 115.583 134.368 116.096 134.885C116.267 134.885 116.437 135 116.608 135C117.235 134.713 117.919 135.057 118.432 134.541C118.945 134.196 118.774 132.99 118.774 132.301C118.717 131.209 118.489 130.003 118.147 128.854C118.033 128.51 117.919 127.993 117.805 127.419C117.919 124.547 117.748 121.618 117.634 118.746C117.577 117.08 117.463 115.414 117.463 113.634C117.463 112.543 117.577 111.451 117.349 110.36C117.121 108.522 116.95 107.201 116.779 105.248C116.665 103.583 116.38 102.549 115.925 101.056C115.697 100.366 115.697 99.8494 115.868 99.1602C116.096 98.9304 116.324 98.8156 116.608 98.8156C118.261 98.8156 118.945 98.4135 120.711 98.5284C121.851 98.6433 123.845 97.954 125.099 96.6904C125.213 96.5181 125.612 96.3458 125.897 96.231C126.011 96.231 126.239 95.8289 126.296 95.7715C126.467 95.5992 126.524 95.312 126.467 95.0822C126.353 94.5079 126.011 94.0484 125.156 94.2207C124.244 94.5079 122.706 95.8289 121.908 95.4843C121.509 95.312 119.458 95.4843 119.059 95.4843C117.463 95.5992 116.096 95.4843 114.614 95.4843C113.018 95.4843 111.309 95.5417 109.143 96.231C107.092 96.8628 105.724 97.4371 104.015 98.0115C103.559 98.1838 103.559 99.1027 103.559 99.6771C103.559 101.343 105.041 100.941 106.351 100.941C106.75 100.941 107.035 100.711 107.32 100.596C108.631 99.6771 110.739 99.3325 112.506 99.2176ZM116.437 121.56C116.665 121.79 116.551 123.857 116.665 124.719C116.779 125.638 116.779 126.27 116.779 126.27C115.754 125.236 116.437 121.56 116.437 121.56Z" fill="#282828"/>
<path d="M144.325 129.716C144.439 129.429 144.724 129.142 144.724 128.854C144.781 127.993 143.756 128.223 143.756 126.844C143.756 125.753 144.269 121.847 144.382 120.871C144.496 119.32 145.009 115.3 145.009 113.921C145.009 110.762 145.351 109.671 145.009 106.455C144.61 102.779 142.559 99.3325 142.274 96.9776C142.16 95.312 141.533 94.2207 140.735 92.67C140.166 91.751 139.71 91.1192 138.741 90.7746C137.544 90.3151 136.348 90.4874 135.265 90.7746C134.866 90.832 134.581 91.0618 134.182 91.2915C132.53 92.5551 131.618 94.3356 131.219 96.4033C130.82 98.1838 129.738 100.137 129.567 101.917C129.339 104.846 128.541 107.718 128.085 110.475C127.743 112.256 127.515 114.208 127.515 115.989C127.515 116.391 127.515 116.793 127.401 117.252C126.831 120.009 127.458 121.618 126.888 124.374C126.888 124.604 126.774 125.064 126.774 125.293C126.204 127.361 126.945 128.165 126.489 130.061C126.318 130.635 126.261 131.037 126.318 131.554C126.261 132.013 126.375 132.243 126.774 132.588C126.888 132.588 127.002 132.932 127.23 133.047C127.629 133.392 127.743 133.736 128.199 133.507C128.484 133.507 128.769 133.449 128.997 133.449C129.339 133.219 129.51 132.875 129.681 132.703C130.307 132.071 130.649 131.267 130.307 130.577C130.193 130.29 130.25 129.831 130.307 129.601C130.478 128.28 130.079 128.625 130.535 127.246C131.675 123.628 131.96 120.009 132.416 116.104C132.587 115.702 132.701 115.3 132.872 114.725C134.638 114.725 136.861 114.61 138.456 114.61C138.741 114.61 139.026 114.61 139.311 114.725C139.425 114.725 139.596 114.725 139.71 114.898C139.71 115.012 139.824 115.185 139.71 115.3C139.596 117.252 139.482 119.55 139.482 122.02C139.482 123.57 140.394 126.442 141.077 128.108C141.362 128.74 141.875 129.429 142.388 129.831C142.787 130.233 143.357 129.831 143.756 129.831C143.927 129.831 144.041 129.716 144.325 129.716ZM140.052 112.945C138.285 112.141 135.151 112.543 133.271 112.428C133.1 112.255 133.669 109.671 133.669 109.499C133.669 108.407 133.783 107.316 133.954 106.225C133.954 106.052 134.068 105.765 133.954 105.536C133.669 103.296 134.011 101.113 134.296 98.7581C134.467 97.6669 134.581 96.4033 134.866 95.312C134.98 94.3356 135.835 93.6464 136.747 93.6464C137.202 93.6464 137.43 93.8187 137.715 94.2207C137.886 94.6228 138.114 95.0248 138.285 95.5992C138.399 96.8053 138.684 97.4945 138.798 98.7581C138.969 100.711 139.368 103.181 139.539 105.076C139.539 105.363 139.539 105.536 139.653 105.765C139.767 106.34 139.938 106.742 139.938 107.316C140.052 108.694 140.337 111.451 140.052 112.945Z" fill="#282828"/>
</svg>
