<svg width="2257" height="77" viewBox="0 0 2257 77" fill="none" xmlns="http://www.w3.org/2000/svg">
<path d="M46.481 49.1872C34.2491 47.1762 10.3971 56.7285 0 61.7561V20.0275L707 15C707 16.3407 710 21.8678 710 46C677 53 672.751 67.2863 632.997 70.8056C593.244 74.3249 580.401 49.1872 563.276 50.1927C546.151 51.1982 547.375 75.8331 528.415 75.3304C509.456 74.8276 521.076 53.2092 494.778 49.1872C468.479 45.1652 465.421 64.2698 428.726 67.2863C392.03 70.3028 403.651 49.1872 379.798 49.1872C355.946 49.1872 356.558 68.2918 319.862 70.8056C283.167 73.3194 286.837 43.6569 258.092 45.1652C229.347 46.6735 225.677 69.8001 196.321 72.3139C166.965 74.8276 138.831 47.679 119.26 49.1872C99.6895 50.6955 99.6894 74.3249 81.9533 76.8386C64.2171 79.3524 61.7708 51.701 46.481 49.1872Z" fill="#FFF2D6"/>
<path d="M2199.21 49.1872C2214.42 47.1762 2244.07 56.7285 2257 61.7561V20.0275L1378 15C1378 16.3407 1383 15.3678 1383 39.5C1425.58 41.0083 1420.58 67.2863 1470.01 70.8056C1519.43 74.3249 1535.4 49.1872 1556.69 50.1927C1577.98 51.1982 1576.46 75.8331 1600.03 75.3304C1623.6 74.8276 1609.16 53.2092 1641.85 49.1872C1674.55 45.1652 1678.35 64.2698 1723.97 67.2863C1769.6 70.3028 1755.15 49.1872 1784.8 49.1872C1814.46 49.1872 1813.7 68.2918 1859.32 70.8056C1904.94 73.3194 1900.38 43.6569 1936.12 45.1652C1971.86 46.6735 1976.42 69.8001 2012.92 72.3139C2049.42 74.8276 2084.39 47.679 2108.73 49.1872C2133.06 50.6955 2133.06 74.3249 2155.11 76.8386C2177.16 79.3524 2180.2 51.701 2199.21 49.1872Z" fill="#FFF2D6"/>
<rect width="2257" height="30" fill="#FFF2D6"/>
<path d="M762.225 36.6358C747.692 34.6573 706.353 45.5536 694 50.5L707 7.94644L1547 3V36.6358C1506.31 38.1198 1506.31 54.443 1459.08 57.9055C1411.84 61.368 1396.58 36.6358 1376.24 37.6251C1355.89 38.6144 1357.35 62.852 1334.82 62.3573C1312.29 61.8627 1326.1 40.593 1294.85 36.6358C1263.61 32.6787 1259.98 51.4751 1216.38 54.443C1172.78 57.4109 1186.58 36.6358 1158.25 36.6358C1129.91 36.6358 1130.63 55.4323 1087.03 57.9055C1043.44 60.3787 1047.8 31.1947 1013.64 32.6787C979.491 34.1626 975.132 56.9162 940.253 59.3894C905.374 61.8627 871.948 35.1519 848.696 36.6358C825.443 38.1198 825.443 61.368 804.37 63.8412C783.298 66.3145 780.391 39.1091 762.225 36.6358Z" fill="#FFF2D6"/>
</svg>
