<svg width="1920" height="74" viewBox="0 0 1920 74" fill="none" xmlns="http://www.w3.org/2000/svg">
<path d="M-89.519 46.1872C-101.751 44.1762 -125.603 53.7285 -136 58.7561V17.0275L571 12C571 13.3407 574 18.8678 574 43C541 50 536.751 64.2863 496.997 67.8056C457.244 71.3249 444.401 46.1872 427.276 47.1927C410.151 48.1982 411.375 72.8331 392.415 72.3304C373.456 71.8276 385.076 50.2092 358.778 46.1872C332.479 42.1652 329.421 61.2698 292.726 64.2863C256.03 67.3028 267.651 46.1872 243.798 46.1872C219.946 46.1872 220.558 65.2918 183.862 67.8056C147.167 70.3194 150.837 40.6569 122.092 42.1652C93.3469 43.6735 89.6773 66.8001 60.3209 69.3139C30.9645 71.8276 2.83131 44.679 -16.7396 46.1872C-36.3105 47.6955 -36.3106 71.3249 -54.0467 73.8386C-71.7829 76.3524 -74.2292 48.701 -89.519 46.1872Z" fill="#FFF2D6"/>
<path d="M2063.21 46.1872C2078.42 44.1762 2108.07 53.7285 2121 58.7561V17.0275L1242 12C1242 13.3407 1247 12.3678 1247 36.5C1289.58 38.0083 1284.58 64.2863 1334.01 67.8056C1383.43 71.3249 1399.4 46.1872 1420.69 47.1927C1441.98 48.1982 1440.46 72.8331 1464.03 72.3304C1487.6 71.8276 1473.16 50.2092 1505.85 46.1872C1538.55 42.1652 1542.35 61.2698 1587.97 64.2863C1633.6 67.3028 1619.15 46.1872 1648.8 46.1872C1678.46 46.1872 1677.7 65.2918 1723.32 67.8056C1768.94 70.3194 1764.38 40.6569 1800.12 42.1652C1835.86 43.6735 1840.42 66.8001 1876.92 69.3139C1913.42 71.8276 1948.39 44.679 1972.73 46.1872C1997.06 47.6955 1997.06 71.3249 2019.11 73.8386C2041.16 76.3524 2044.2 48.701 2063.21 46.1872Z" fill="#FFF2D6"/>
<path d="M626.225 33.6358C611.692 31.6573 570.353 42.5536 558 47.5L571 4.94644L1411 0V33.6358C1370.31 35.1198 1370.31 51.443 1323.08 54.9055C1275.84 58.368 1260.58 33.6358 1240.24 34.6251C1219.89 35.6144 1221.35 59.852 1198.82 59.3573C1176.29 58.8627 1190.1 37.593 1158.85 33.6358C1127.61 29.6787 1123.98 48.4751 1080.38 51.443C1036.78 54.4109 1050.58 33.6358 1022.25 33.6358C993.907 33.6358 994.633 52.4323 951.035 54.9055C907.436 57.3787 911.796 28.1947 877.644 29.6787C843.491 31.1626 839.132 53.9162 804.253 56.3894C769.374 58.8627 735.948 32.1519 712.696 33.6358C689.443 35.1198 689.443 58.368 668.37 60.8412C647.298 63.3145 644.391 36.1091 626.225 33.6358Z" fill="#FFF2D6"/>
</svg>
