<svg width="375" height="147" viewBox="0 0 375 147" fill="none" xmlns="http://www.w3.org/2000/svg">
<g opacity="0.4" clip-path="url(#clip0_549_10773)">
<path d="M211.854 36.8281L187.793 0.355371L211.515 0.353104L235.576 36.8258L211.854 36.8281Z" stroke="#43705E" stroke-width="0.359244"/>
<path d="M66.1433 109.938L90.1976 73.4609L66.4753 73.4632L42.421 109.941L66.1433 109.938Z" stroke="#43705E" stroke-width="0.359244"/>
<path d="M355.766 109.911L379.821 73.4336L356.098 73.4358L332.044 109.913L355.766 109.911Z" stroke="#43705E" stroke-opacity="0.2" stroke-width="0.359244"/>
<path d="M356.362 36.8132L380.416 0.335904L356.694 0.338171L332.64 36.8155L356.362 36.8132Z" stroke="#43705E" stroke-width="0.359244"/>
<path d="M66.7371 36.8406L90.7914 0.363248L67.0691 0.365515L43.0148 36.8429L66.7371 36.8406Z" stroke="#43705E" stroke-opacity="0.2" stroke-width="0.359244"/>
<path d="M211.26 109.926L187.199 73.453L211.488 73.4507L234.987 109.923L211.26 109.926Z" stroke="#43705E" stroke-opacity="0.2" stroke-width="0.359244"/>
<path d="M308.577 36.8203L284.515 0.347559L308.238 0.345292L332.299 36.818L308.577 36.8203Z" stroke="#43705E" stroke-opacity="0.2" stroke-width="0.359244"/>
<path d="M18.9535 36.8515L-5.10774 0.378809L18.6146 0.376542L42.6758 36.8493L18.9535 36.8515Z" stroke="#43705E" stroke-width="0.359244"/>
<path d="M259.045 109.919L283.099 73.4414L259.66 73.4436L235.325 109.921L259.045 109.919Z" stroke="#43705E" stroke-width="0.359244"/>
<path d="M211.561 73.375L187.781 36.9022L211.789 36.9L235.569 73.3727L211.561 73.375Z" stroke="#43705E" stroke-width="0.359244"/>
<path d="M65.8774 146.485L90.213 110.008L66.2094 110.01L42.4364 146.487L65.8774 146.485Z" stroke="#43705E" stroke-width="0.359244"/>
<path d="M355.499 146.458L379.835 109.98L355.831 109.983L332.059 146.46L355.499 146.458Z" stroke="#43705E" stroke-opacity="0.2" stroke-width="0.359244"/>
<path d="M356.094 73.3562L380.43 36.8789L356.427 36.8812L332.935 73.3584L356.094 73.3562Z" stroke="#43705E" stroke-width="0.359244"/>
<path d="M66.4711 73.3875L90.8068 36.9101L66.8037 36.9124L43.3122 73.3897L66.4711 73.3875Z" stroke="#43705E" stroke-opacity="0.2" stroke-width="0.359244"/>
<path d="M211.535 146.469L187.192 109.996L211.195 109.994L234.694 146.466L211.535 146.469Z" stroke="#43705E" stroke-opacity="0.2" stroke-width="0.359244"/>
<path d="M308.002 73.3633L284.503 36.8905L308.513 36.8882L332.293 73.361L308.002 73.3633Z" stroke="#43705E" stroke-opacity="0.2" stroke-width="0.359244"/>
<path d="M18.3767 73.3907L-5.12179 36.9179L18.8883 36.9156L42.6682 73.3883L18.3767 73.3907Z" stroke="#43705E" stroke-width="0.359244"/>
<path d="M258.778 146.466L283.113 109.988L259.11 109.991L235.337 146.468L258.778 146.466Z" stroke="#43705E" stroke-width="0.359244"/>
<path d="M163.214 36.8328L187.268 0.355435L163.546 0.357702L139.491 36.835L163.214 36.8328Z" stroke="#43705E" stroke-width="0.359244"/>
<path d="M114.785 109.934L90.7233 73.4608L115.013 73.4585L138.511 109.931L114.785 109.934Z" stroke="#43705E" stroke-width="0.359244"/>
<path d="M115.378 36.8359L91.3171 0.363184L115.039 0.360917L139.101 36.8337L115.378 36.8359Z" stroke="#43705E" stroke-opacity="0.2" stroke-width="0.359244"/>
<path d="M162.619 109.93L186.673 73.4531L162.951 73.4554L138.897 109.933L162.619 109.93Z" stroke="#43705E" stroke-opacity="0.2" stroke-width="0.359244"/>
<path d="M259.934 36.825L283.989 0.347623L260.266 0.34989L236.212 36.8272L259.934 36.825Z" stroke="#43705E" stroke-opacity="0.2" stroke-width="0.359244"/>
<path d="M18.0629 109.945L-5.99837 73.4726L18.291 73.4702L41.7895 109.943L18.0629 109.945Z" stroke="#43705E" stroke-opacity="0.2" stroke-width="0.359244"/>
<path d="M307.685 109.914L283.624 73.4413L307.913 73.439L331.412 109.912L307.685 109.914Z" stroke="#43705E" stroke-width="0.359244"/>
<path d="M162.92 73.3797L187.256 36.9023L163.252 36.9046L139.539 73.3819L162.92 73.3797Z" stroke="#43705E" stroke-width="0.359244"/>
<path d="M115.083 146.477L90.7401 110.004L114.744 110.002L138.464 146.474L115.083 146.477Z" stroke="#43705E" stroke-width="0.359244"/>
<path d="M115.11 73.3789L91.3305 36.9062L115.338 36.9039L139.059 73.3766L115.11 73.3789Z" stroke="#43705E" stroke-opacity="0.2" stroke-width="0.359244"/>
<path d="M162.327 146.473L186.662 109.996L162.659 109.998L138.945 146.476L162.327 146.473Z" stroke="#43705E" stroke-opacity="0.2" stroke-width="0.359244"/>
<path d="M259.643 73.368L283.979 36.8906L259.975 36.8929L236.202 73.3702L259.643 73.368Z" stroke="#43705E" stroke-opacity="0.2" stroke-width="0.359244"/>
<path d="M18.3621 146.484L-5.98059 110.012L18.0231 110.009L41.803 146.482L18.3621 146.484Z" stroke="#43705E" stroke-opacity="0.2" stroke-width="0.359244"/>
<path d="M307.984 146.457L283.641 109.984L307.645 109.982L331.425 146.455L307.984 146.457Z" stroke="#43705E" stroke-width="0.359244"/>
</g>
<defs>
<clipPath id="clip0_549_10773">
<rect width="375" height="147" fill="white"/>
</clipPath>
</defs>
</svg>
