<?xml version="1.0" encoding="utf-8"?><svg viewBox="0 0 74 74" xmlns="http://www.w3.org/2000/svg" xmlns:xlink="http://www.w3.org/1999/xlink"><style>:root>svg{display:none}:root>svg:target{display:block}</style><svg viewBox="0 0 14 14" fill="none" id="arrow-down" xmlns="http://www.w3.org/2000/svg"><path d="M13 6l-6 6m0 0L1 6m6 6V0"/></svg><svg viewBox="0 0 18 18" fill="none" id="arrow-left"><path d="M10 1L2 9m0 0l8 8M2 9h16"/></svg><svg viewBox="0 0 14 14" fill="none" id="arrow-right" xmlns="http://www.w3.org/2000/svg"><path d="M6 1l6 6m0 0l-6 6m6-6H0"/></svg><svg viewBox="0 0 54 10" id="burger" xmlns="http://www.w3.org/2000/svg"><path d="M0 1.5V0h54v1.5H0zM0 9.5V8h54v1.5H0z"/></svg><svg fill="none" viewBox="0 0 10 10" id="cardClose" xmlns="http://www.w3.org/2000/svg"><path d="M9.184 10L5 5.816.816 10 0 9.184 4.184 5 0 .816.816 0 5 4.184 9.184 0 10 .816 5.816 5 10 9.184 9.184 10z" fill="#151515"/></svg><svg viewBox="0 0 74 74" id="circle-btn" xmlns="http://www.w3.org/2000/svg"><circle cx="37" cy="37" r="36.5" stroke="#fff"/><path d="M36.423 43.495v-5.917h-5.917v-1.155h5.917v-5.916h1.154v5.916h5.917v1.155h-5.917v5.917h-1.154z" fill="#151515"/></svg><svg fill="none" viewBox="0 0 22 22" id="close" xmlns="http://www.w3.org/2000/svg"><path d="M1 1.71l.715-.714L21 20.281l-.714.714L1 1.71z" fill="#fff" stroke="#fff"/><path d="M1.714 20.995L1 20.282 20.285.996l.714.714L1.714 20.995z" fill="#fff" stroke="#fff"/></svg><svg viewBox="0 0 40 40" fill="none" id="cottage" xmlns="http://www.w3.org/2000/svg"><path d="M20 6c-.322 0-.833.023-1.357.47L6.288 17.044a.646.646 0 00-.138.95.63.63 0 00.95.02l2.128-1.822V30.35c0 .354.284.64.634.64l20.276.01a.629.629 0 00.454-.184.644.644 0 00-.454-1.098l-19.642-.009V15.111l8.96-7.67c.08-.068.554-.16.544-.16-.033 0 .136.004.267.04.131.036.259.105.277.12l8.96 7.67v15.24a.644.644 0 00.183.458.63.63 0 00.902 0 .645.645 0 00.183-.459V16.192l2.128 1.823a.63.63 0 00.95-.02.646.646 0 00-.138-.951L21.357 6.47a1.873 1.873 0 00-.763-.38A2.112 2.112 0 0020 6z" fill="#fff"/><path d="M30.138 31l-20.276-.01a.637.637 0 01-.634-.64V16.192L7.1 18.015a.63.63 0 01-.95-.02.646.646 0 01.138-.951L18.643 6.47C19.167 6.023 19.678 6 20 6c.189 0 .359.025.594.09.236.065.503.159.763.38l12.355 10.574a.646.646 0 01.138.951.631.631 0 01-.95.02l-2.128-1.823V30.35a.645.645 0 01-.183.46.63.63 0 01-.451.19zm0 0a.629.629 0 00.454-.184.644.644 0 00-.454-1.098l-19.642-.009V15.111l8.96-7.67c.08-.068.554-.16.544-.16-.033 0 .136.004.267.04.131.036.259.105.277.12l8.96 7.67v15.24a.644.644 0 00.183.458.63.63 0 00.45.191z"/></svg><svg viewBox="0 0 40 40" id="parking" xmlns="http://www.w3.org/2000/svg"><path fill-rule="evenodd" clip-rule="evenodd" d="M23.073 6.427a4.877 4.877 0 00-6.896 0l-9.75 9.75a4.877 4.877 0 000 6.896l9.75 9.75a4.877 4.877 0 006.896 0l9.75-9.75a4.877 4.877 0 000-6.896l-9.75-9.75zm-1.38 1.38l9.75 9.75a2.923 2.923 0 010 4.136l-9.75 9.75a2.923 2.923 0 01-4.136 0l-9.75-9.75a2.923 2.923 0 010-4.136l9.75-9.75a2.923 2.923 0 014.136 0z" stroke="#fff" stroke-width=".2"/><path fill-rule="evenodd" clip-rule="evenodd" d="M15.725 13.776v11.7a.975.975 0 001.95 0v-4.9h3.913a3.886 3.886 0 003.887-3.887v-.002a3.887 3.887 0 00-3.887-3.886H16.7a.975.975 0 00-.975.975v0zm7.8 2.911v.002c0 1.07-.867 1.937-1.937 1.937h-3.913V14.75h3.913c1.07 0 1.937.867 1.937 1.936v0z" stroke="#fff" stroke-width=".2"/></svg><svg viewBox="0 0 40 40" fill="none" id="pool" xmlns="http://www.w3.org/2000/svg"><path d="M3 30.465c.386.531.898.962 1.49 1.255a4.123 4.123 0 001.91.424 4.123 4.123 0 001.91-.424 4.067 4.067 0 001.49-1.255 4.067 4.067 0 011.49-1.254 4.121 4.121 0 011.91-.425 4.121 4.121 0 011.91.425 4.066 4.066 0 011.49 1.254c.386.531.898.962 1.49 1.255a4.122 4.122 0 001.91.424 4.122 4.122 0 001.91-.424 4.067 4.067 0 001.49-1.255 4.067 4.067 0 011.49-1.254 4.121 4.121 0 011.91-.425 4.122 4.122 0 011.91.425 4.068 4.068 0 011.49 1.254c.386.531.898.962 1.49 1.255a4.123 4.123 0 001.91.424 4.123 4.123 0 001.91-.424A4.066 4.066 0 0037 30.465M3 26.815c.386.531.898.962 1.49 1.254a4.121 4.121 0 001.91.425 4.122 4.122 0 001.91-.425 4.067 4.067 0 001.49-1.254 4.067 4.067 0 011.49-1.255 4.124 4.124 0 011.91-.424 4.124 4.124 0 011.91.424 4.066 4.066 0 011.49 1.255c.386.531.898.962 1.49 1.254a4.121 4.121 0 001.91.425 4.121 4.121 0 001.91-.425 4.067 4.067 0 001.49-1.254 4.066 4.066 0 011.49-1.255 4.124 4.124 0 011.91-.424 4.124 4.124 0 011.91.424 4.067 4.067 0 011.49 1.255c.386.531.898.962 1.49 1.254a4.122 4.122 0 001.91.425 4.121 4.121 0 001.91-.425A4.067 4.067 0 0037 26.815M25.102 23.41V10.817c0-.668.268-1.308.746-1.78a2.567 2.567 0 011.804-.738c.676 0 1.325.265 1.803.737.478.473.747 1.113.747 1.781M14.9 23.41V10.817c0-.668-.268-1.308-.746-1.78a2.566 2.566 0 00-1.803-.738c-.677 0-1.325.265-1.803.737a2.503 2.503 0 00-.747 1.781M25.1 11.656H14.9M14.9 20.053h10.2"/></svg><svg viewBox="0 0 40 40" id="restaurant" xmlns="http://www.w3.org/2000/svg"><path d="M8.768 9a.32.32 0 00-.325.325l-.04 6.255H6.372V9.366a.32.32 0 00-.325-.325.32.32 0 00-.325.325v6.214H3.65V9.366a.32.32 0 00-.325-.325.32.32 0 00-.325.325v6.54a.32.32 0 00.325.324h2.397v13.486a.32.32 0 00.325.325.32.32 0 00.325-.325V16.23h2.396c.082 0 .163-.04.244-.08.081-.082.081-.163.081-.245v-6.54c0-.203-.162-.365-.325-.365zM34.238 9.04c-.081-.04-.203 0-.284.04a.368.368 0 00-.122.285v20.473a.32.32 0 00.325.325.35.35 0 00.325-.325v-7.23h2.193a.32.32 0 00.325-.326v-9.627c0-2.721-2.721-3.615-2.762-3.615zm2.072 12.958H34.44V9.893c.65.325 1.869 1.178 1.828 2.803l.04 9.302zM20.792 9.041a10.473 10.473 0 00-7.475 3.087 10.543 10.543 0 00-3.087 7.474c0 5.85 4.753 10.602 10.562 10.602 5.85 0 10.561-4.752 10.602-10.561 0-5.85-4.753-10.602-10.602-10.602zm0 20.473c-5.484 0-9.912-4.469-9.912-9.912 0-5.484 4.469-9.911 9.912-9.911 5.483 0 9.911 4.468 9.911 9.911 0 5.484-4.468 9.912-9.911 9.912z"/><path d="M20.794 11.438a8.165 8.165 0 100 16.33 8.165 8.165 0 000-16.33zm5.28 13.485a7.429 7.429 0 01-5.32 2.194c-1.991 0-3.9-.772-5.322-2.194a7.429 7.429 0 01-2.193-5.32c0-4.144 3.371-7.516 7.514-7.516 4.144 0 7.515 3.372 7.515 7.515.04 2.031-.772 3.9-2.194 5.321z"/></svg></svg>