<svg width="1600" height="324" viewBox="0 0 1600 324" fill="none" xmlns="http://www.w3.org/2000/svg">
<g opacity="0.4" clip-path="url(#clip0_226_2468)">
<path d="M799.937 199.957L701.25 199.957L799.937 1.12175L898.623 199.957L799.937 199.957Z" stroke="white"/>
<path opacity="0.2" d="M683.48 199.957L782.167 199.957L683.48 1.12175L584.794 199.957L683.48 199.957Z" stroke="white"/>
<path opacity="0.2" d="M799.937 124.036L701.25 124.036L799.937 322.87L898.623 124.036L799.937 124.036Z" stroke="white"/>
<path d="M683.48 124.036L782.167 124.036L683.48 322.87L584.794 124.036L683.48 124.036Z" stroke="white"/>
<path opacity="0.2" d="M914.119 199.957L815.433 199.957L914.119 1.12175L1012.81 199.957L914.119 199.957Z" stroke="white"/>
<path d="M569.3 199.957L667.986 199.957L569.3 1.12175L470.613 199.957L569.3 199.957Z" stroke="white"/>
<path d="M914.119 124.036L815.433 124.036L914.119 322.87L1012.81 124.036L914.119 124.036Z" stroke="white"/>
<path opacity="0.2" d="M569.3 124.036L667.986 124.036L569.3 322.87L470.613 124.036L569.3 124.036Z" stroke="white"/>
<path d="M1028.31 199.957L929.62 199.957L1028.31 1.12175L1126.99 199.957L1028.31 199.957Z" stroke="white"/>
<path opacity="0.2" d="M455.114 199.957L553.8 199.957L455.114 1.12175L356.427 199.957L455.114 199.957Z" stroke="white"/>
<path opacity="0.2" d="M1028.31 124.036L929.62 124.036L1028.31 322.87L1126.99 124.036L1028.31 124.036Z" stroke="white"/>
<path d="M455.114 124.036L553.8 124.036L455.114 322.87L356.427 124.036L455.114 124.036Z" stroke="white"/>
<path opacity="0.2" d="M1142.49 199.957L1043.8 199.957L1142.49 1.12175L1241.17 199.957L1142.49 199.957Z" stroke="white"/>
<path d="M340.934 199.957L439.621 199.957L340.934 1.12175L242.248 199.957L340.934 199.957Z" stroke="white"/>
<path d="M1142.49 124.036L1043.8 124.036L1142.49 322.87L1241.17 124.036L1142.49 124.036Z" stroke="white"/>
<path opacity="0.2" d="M340.934 124.036L439.621 124.036L340.934 322.87L242.248 124.036L340.934 124.036Z" stroke="white"/>
<path d="M1256.67 199.957L1157.98 199.957L1256.67 1.12175L1355.36 199.957L1256.67 199.957Z" stroke="white"/>
<path d="M1485.59 199.957L1386.91 199.957L1485.59 1.12175L1584.28 199.957L1485.59 199.957Z" stroke="white"/>
<path opacity="0.2" d="M226.751 199.957L325.437 199.957L226.751 1.12175L128.064 199.957L226.751 199.957Z" stroke="white"/>
<path opacity="0.2" d="M1256.67 124.036L1157.98 124.036L1256.67 322.87L1355.36 124.036L1256.67 124.036Z" stroke="white"/>
<path opacity="0.2" d="M1485.59 124.036L1386.91 124.036L1485.59 322.87L1584.28 124.036L1485.59 124.036Z" stroke="white"/>
<path d="M226.751 124.036L325.437 124.036L226.751 322.87L128.064 124.036L226.751 124.036Z" stroke="white"/>
<path d="M-0.760948 124.041L97.9253 124.041L-0.761039 322.876L-99.4475 124.041L-0.760948 124.041Z" stroke="white"/>
<path d="M1600.76 124.041L1699.45 124.041L1600.76 322.876L1502.07 124.041L1600.76 124.041Z" stroke="white"/>
<path opacity="0.2" d="M1370.86 199.957L1272.17 199.957L1370.86 1.12175L1469.54 199.957L1370.86 199.957Z" stroke="white"/>
<path d="M112.562 199.957L211.249 199.957L112.562 1.12175L13.8757 199.957L112.562 199.957Z" stroke="white"/>
<path d="M1370.86 124.036L1272.17 124.036L1370.86 322.87L1469.54 124.036L1370.86 124.036Z" stroke="white"/>
<path opacity="0.2" d="M112.562 124.036L211.249 124.036L112.562 322.87L13.8757 124.036L112.562 124.036Z" stroke="white"/>
<path opacity="0.2" d="M-0.760948 200.142L97.9253 200.142L-0.761039 1.3073L-99.4475 200.142L-0.760948 200.142Z" stroke="white"/>
</g>
<defs>
<clipPath id="clip0_226_2468">
<rect width="1600" height="324" fill="white"/>
</clipPath>
</defs>
</svg>
