<svg width="1600" height="324" viewBox="0 0 1600 324" fill="none" xmlns="http://www.w3.org/2000/svg">
<g opacity="0.4" clip-path="url(#clip0_226_2407)">
<path d="M799.937 199.959L701.25 199.959L799.937 1.12188L898.623 199.959L799.937 199.959Z" stroke="#43705E"/>
<path opacity="0.2" d="M683.48 199.959L782.167 199.959L683.48 1.12188L584.794 199.959L683.48 199.959Z" stroke="#43705E"/>
<path opacity="0.2" d="M799.937 124.035L701.25 124.035L799.937 322.872L898.623 124.035L799.937 124.035Z" stroke="#43705E"/>
<path d="M683.48 124.035L782.167 124.035L683.48 322.872L584.794 124.035L683.48 124.035Z" stroke="#43705E"/>
<path opacity="0.2" d="M914.119 199.959L815.433 199.959L914.119 1.12188L1012.81 199.959L914.119 199.959Z" stroke="#43705E"/>
<path d="M569.3 199.959L667.986 199.959L569.3 1.12188L470.613 199.959L569.3 199.959Z" stroke="#43705E"/>
<path d="M914.119 124.035L815.433 124.035L914.119 322.872L1012.81 124.035L914.119 124.035Z" stroke="#43705E"/>
<path opacity="0.2" d="M569.3 124.035L667.986 124.035L569.3 322.872L470.613 124.035L569.3 124.035Z" stroke="#43705E"/>
<path d="M1028.31 199.959L929.621 199.959L1028.31 1.12188L1126.99 199.959L1028.31 199.959Z" stroke="#43705E"/>
<path opacity="0.2" d="M455.114 199.959L553.8 199.959L455.114 1.12188L356.427 199.959L455.114 199.959Z" stroke="#43705E"/>
<path opacity="0.2" d="M1028.31 124.035L929.621 124.035L1028.31 322.872L1126.99 124.035L1028.31 124.035Z" stroke="#43705E"/>
<path d="M455.114 124.035L553.8 124.035L455.114 322.872L356.427 124.035L455.114 124.035Z" stroke="#43705E"/>
<path opacity="0.2" d="M1142.49 199.959L1043.8 199.959L1142.49 1.12188L1241.17 199.959L1142.49 199.959Z" stroke="#43705E"/>
<path d="M340.933 199.959L439.62 199.959L340.933 1.12188L242.247 199.959L340.933 199.959Z" stroke="#43705E"/>
<path d="M1142.49 124.035L1043.8 124.035L1142.49 322.872L1241.17 124.035L1142.49 124.035Z" stroke="#43705E"/>
<path opacity="0.2" d="M340.933 124.035L439.62 124.035L340.933 322.872L242.247 124.035L340.933 124.035Z" stroke="#43705E"/>
<path d="M1256.67 199.959L1157.99 199.959L1256.67 1.12188L1355.36 199.959L1256.67 199.959Z" stroke="#43705E"/>
<path d="M1485.59 199.959L1386.91 199.959L1485.59 1.12188L1584.28 199.959L1485.59 199.959Z" stroke="#43705E"/>
<path opacity="0.2" d="M226.75 199.959L325.436 199.959L226.75 1.12188L128.063 199.959L226.75 199.959Z" stroke="#43705E"/>
<path opacity="0.2" d="M1256.67 124.035L1157.99 124.035L1256.67 322.872L1355.36 124.035L1256.67 124.035Z" stroke="#43705E"/>
<path opacity="0.2" d="M1485.59 124.035L1386.91 124.035L1485.59 322.872L1584.28 124.035L1485.59 124.035Z" stroke="#43705E"/>
<path d="M226.75 124.035L325.436 124.035L226.75 322.872L128.063 124.035L226.75 124.035Z" stroke="#43705E"/>
<path d="M-0.76094 124.039L97.9253 124.039L-0.761042 322.876L-99.4475 124.039L-0.76094 124.039Z" stroke="#43705E"/>
<path d="M1600.76 124.039L1699.45 124.039L1600.76 322.876L1502.07 124.039L1600.76 124.039Z" stroke="#43705E"/>
<path opacity="0.2" d="M1370.86 199.959L1272.17 199.959L1370.86 1.12188L1469.54 199.959L1370.86 199.959Z" stroke="#43705E"/>
<path d="M112.562 199.959L211.249 199.959L112.562 1.12188L13.8757 199.959L112.562 199.959Z" stroke="#43705E"/>
<path d="M1370.86 124.035L1272.17 124.035L1370.86 322.872L1469.54 124.035L1370.86 124.035Z" stroke="#43705E"/>
<path opacity="0.2" d="M112.562 124.035L211.249 124.035L112.562 322.872L13.8757 124.035L112.562 124.035Z" stroke="#43705E"/>
<path opacity="0.2" d="M-0.76094 200.143L97.9253 200.143L-0.761042 1.30548L-99.4475 200.143L-0.76094 200.143Z" stroke="#43705E"/>
</g>
<defs>
<clipPath id="clip0_226_2407">
<rect width="1600" height="324" fill="white"/>
</clipPath>
</defs>
</svg>
