<svg width="212" height="115" viewBox="0 0 212 115" fill="none" xmlns="http://www.w3.org/2000/svg">
<path d="M209.968 77.1972C209.62 76.8547 209.162 76.6457 208.675 76.6065C208.188 76.5673 207.703 76.7006 207.305 76.983C206.906 76.8429 206.482 76.7869 206.061 76.8185C205.64 76.8501 205.229 76.9686 204.856 77.1666C193.499 83.2881 187.775 67.5864 180.52 62.1689C177.47 59.8735 173.868 58.4241 170.079 57.9673C166.289 57.5104 162.446 58.0624 158.938 59.5673C147.704 64.7706 152.479 77.289 161.816 79.9519C162.52 80.1355 159.642 82.5535 158.755 82.5229C156.306 82.5229 152.969 79.2785 151.439 77.5033C149.309 75.1734 147.98 72.2245 147.644 69.0863C147.308 65.9481 147.983 62.7847 149.571 60.0571C151.041 57.4554 154.469 55.6496 158.265 52.2522C162.061 48.8547 145.531 37.9891 145.531 38.4482C142.469 52.5276 131.755 68.6271 114.919 65.5358C103.47 63.4239 95.7866 51.2421 96.0928 46.7122C95.6336 40.5907 97.7458 38.1727 101.511 39.3358C98.6029 53.201 111.307 66.5764 126 60.761C143.541 53.8131 146.173 31.133 136.959 16.4721C132.344 8.92426 125 3.44219 116.451 1.16272C107.902 -1.11676 98.8031 -0.0187346 91.0418 4.22911C80.6032 9.67723 66.5525 25.4401 66.7362 39.4889C59.971 36.0914 48.3692 39.8868 42.7061 44.4473C37.0429 49.0078 35.7878 54.8538 33.2777 61.3119C27.8901 75.3301 22.1963 67.0967 13.472 64.0972C9.81912 62.8454 5.82802 63.0203 2.29873 64.587C1.58511 64.9403 0.988777 65.4922 0.581474 66.1764C0.174171 66.8606 -0.0267515 67.6478 0.00285885 68.4435C0.308975 70.8002 4.68643 67.0049 6.55374 76.7993C8.51207 86.3655 13.97 94.8569 21.8596 100.612C25.3886 102.791 29.4656 103.919 33.613 103.865C37.7604 103.811 41.8066 102.576 45.2774 100.306C46.0733 99.663 48.0019 96.388 49.0121 95.4086C49.0121 96.5717 54.9813 100.52 54.7058 100.398C57.7685 101.812 61.0717 102.633 64.4403 102.816C76.1339 103.489 84.5828 91.3684 81.1237 82.7065C78.5523 76.279 70.8382 73.157 64.0424 73.5243C68.2003 72.1703 72.7049 72.3439 76.7462 74.014C78.7554 74.6194 80.6131 75.6446 82.1963 77.0218C83.7795 78.399 85.052 80.0967 85.9297 82.0026C88.1949 87.4507 85.5317 91.4909 82.5624 95.7759C82.3364 96.0791 82.1785 96.4274 82.0993 96.7971C82.02 97.1668 82.0214 97.5493 82.1032 97.9184C81.0318 110.559 105.184 115.64 114.643 114.936C128.572 113.926 138.612 106.795 146.541 95.6841C146.112 96.2656 153.765 102.081 154.316 102.418C166.255 110.161 184.56 108.753 190.713 94.3067L193.009 94.5822C196.597 95.0344 200.24 94.7108 203.693 93.6334C209.233 91.7051 215.233 82.1556 209.968 77.1972Z" fill="#29212E"/>
</svg>
