<svg width="197" height="107" viewBox="0 0 197 107" fill="none" xmlns="http://www.w3.org/2000/svg">
<path d="M195.041 71.7759C194.711 71.467 194.285 71.281 193.834 71.2487C193.384 71.2165 192.936 71.34 192.565 71.5987C192.198 71.4555 191.803 71.397 191.41 71.4277C191.017 71.4584 190.636 71.5774 190.296 71.7759C179.743 77.5063 174.438 62.9144 167.688 57.8339C164.867 55.697 161.532 54.3472 158.022 53.9217C154.512 53.4963 150.951 54.0104 147.704 55.4117C137.269 60.256 141.809 71.894 150.357 74.3457C151.035 74.5525 148.352 76.7678 147.409 76.7678C145.139 76.7678 142.015 73.814 140.6 72.0712C138.628 69.9046 137.396 67.1643 137.083 64.2482C136.77 61.3321 137.393 58.392 138.861 55.8548C140.246 53.4327 143.4 51.749 146.937 48.5884C150.474 45.4279 135.147 35.3258 135.147 35.7394C132.2 48.8543 122.385 63.8301 106.851 60.9354C96.2399 58.9859 89.1658 47.6432 89.4016 43.4488C88.9595 37.7184 90.9344 35.5031 94.4125 36.596C91.7007 49.4746 103.52 61.9101 117.049 56.5342C133.32 50.0654 135.766 29.0047 127.189 15.358C122.92 8.32008 116.104 3.20561 108.163 1.08133C100.222 -1.04295 91.7692 -0.0130176 84.5677 3.95631C74.8704 9.03687 61.6949 23.6878 61.9896 36.7732C55.7409 33.5831 44.894 37.0981 39.7063 41.3516C34.5187 45.6051 33.2807 51.0401 30.8637 57.0363C25.8529 70.0922 20.5769 62.4123 12.4712 59.6357C9.08735 58.4743 5.38971 58.6432 2.12534 60.1083C1.46409 60.434 0.911492 60.9451 0.534733 61.5797C0.157974 62.2142 -0.0267174 62.9447 0.00312003 63.6824C0.268398 65.8682 4.33598 62.3532 6.07502 71.451C7.91649 80.3486 12.99 88.2436 20.3115 93.6046C23.5909 95.6312 27.3784 96.6798 31.2308 96.6274C35.0832 96.5751 38.841 95.4241 42.0643 93.3092C42.8012 92.7184 44.5698 89.676 45.513 88.7603C45.513 89.8532 51.0543 93.5159 50.8185 93.3978C53.6545 94.716 56.716 95.4781 59.8379 95.6427C70.6848 96.2926 78.5548 84.9794 75.3419 76.9451C72.9544 71.0374 65.7919 68.0836 59.4842 68.3199C63.3429 67.066 67.5202 67.223 71.2743 68.763C73.1411 69.3321 74.8672 70.2891 76.34 71.5717C77.8129 72.8542 78.9994 74.4336 79.8222 76.2066C81.9444 81.2576 79.4685 85.068 76.7273 89.0262C76.5067 89.2996 76.3543 89.6216 76.2826 89.9658C76.2108 90.3099 76.2217 90.6662 76.3146 91.0052C75.3124 102.82 97.7137 107.487 106.468 106.838C119.407 105.892 128.751 99.2464 136.09 88.9375C135.707 89.4692 142.811 94.8452 143.312 95.1996C154.365 102.377 171.372 101.107 177.091 87.6379C177.798 87.6379 178.505 87.8151 179.213 87.9037C182.539 88.3348 185.919 88.0324 189.117 87.0176C194.334 85.2748 199.875 76.4134 195.041 71.7759Z" fill="#45464D"/>
</svg>
