<svg width="231" height="126" viewBox="0 0 231 126" fill="none" xmlns="http://www.w3.org/2000/svg">
<path d="M2.21416 84.5813C2.5936 84.2061 3.09219 83.977 3.6227 83.9341C4.1532 83.8912 4.68185 84.0372 5.11609 84.3466C5.55058 84.1931 6.01199 84.1317 6.47124 84.1663C6.93048 84.201 7.37758 84.3308 7.78445 84.5478C20.1592 91.2548 26.3966 74.0512 34.3018 68.1155C37.6246 65.6006 41.5491 64.0125 45.6783 63.512C49.8075 63.0114 53.995 63.6162 57.8171 65.2651C70.0584 70.966 64.855 84.6819 54.6817 87.5995C53.9146 87.8007 57.0499 90.4499 58.0172 90.4164C60.6856 90.4164 64.3214 86.8617 65.9892 84.9166C68.3094 82.364 69.758 79.1329 70.124 75.6945C70.49 72.2562 69.7542 68.7902 68.0238 65.8017C66.4227 62.9512 62.687 60.9726 58.5509 57.2502C54.4149 53.5278 72.4267 41.6228 72.4267 42.1258C75.7622 57.552 87.4365 75.1915 105.782 71.8044C118.257 69.4905 126.629 56.1435 126.295 51.1804C126.795 44.4733 124.494 41.8241 120.391 43.0984C123.56 58.2898 109.718 72.9446 93.7072 66.573C74.5948 58.9605 71.7262 34.111 81.7661 18.0477C86.7951 9.77789 94.797 3.77144 104.112 1.27393C113.428 -1.22358 123.342 -0.0205266 131.799 4.63363C143.173 10.6029 158.483 27.8735 158.283 43.2661C165.654 39.5437 178.296 43.702 184.466 48.6987C190.637 53.6955 192.005 60.1007 194.74 67.1766C200.61 82.5356 206.814 73.5147 216.321 70.2283C220.301 68.8567 224.65 69.0483 228.495 70.7648C229.273 71.1519 229.923 71.7567 230.366 72.5063C230.81 73.2559 231.029 74.1185 230.997 74.9902C230.663 77.5724 225.894 73.4141 223.859 84.1453C221.725 94.6266 215.778 103.93 207.181 110.236C203.336 112.623 198.894 113.86 194.374 113.8C189.855 113.741 185.447 112.388 181.665 109.9C180.797 109.196 178.696 105.608 177.595 104.535C177.595 105.809 171.091 110.135 171.391 110.001C168.054 111.551 164.455 112.45 160.784 112.65C148.043 113.388 138.837 100.108 142.606 90.6176C145.408 83.5752 153.813 80.1547 161.218 80.5571C156.687 79.0735 151.779 79.2638 147.376 81.0937C145.186 81.7569 143.162 82.8802 141.437 84.3891C139.712 85.898 138.325 87.7581 137.369 89.8463C134.901 95.8156 137.803 100.242 141.038 104.937C141.284 105.269 141.456 105.651 141.543 106.056C141.629 106.461 141.628 106.88 141.538 107.285C142.706 121.135 116.389 126.701 106.082 125.93C90.9054 124.823 79.9649 117.01 71.3259 104.837C71.7929 105.474 63.4542 111.845 62.8538 112.214C49.8453 120.699 29.8989 119.156 23.1945 103.327L20.6929 103.629C16.7833 104.125 12.8135 103.77 9.05196 102.59C3.01468 100.477 -3.52293 90.014 2.21416 84.5813Z" fill="#29212E"/>
</svg>
