<svg width="226" height="123" viewBox="0 0 226 123" fill="none" xmlns="http://www.w3.org/2000/svg">
<path d="M223.834 82.5674C223.463 82.2012 222.975 81.9775 222.456 81.9356C221.937 81.8937 221.419 82.0363 220.995 82.3383C220.57 82.1885 220.118 82.1286 219.669 82.1624C219.22 82.1962 218.782 82.323 218.384 82.5347C206.277 89.082 200.175 72.2881 192.441 66.4937C189.19 64.0386 185.35 62.4884 181.31 61.9998C177.271 61.5112 173.174 62.1015 169.434 63.7112C157.458 69.2764 162.549 82.6657 172.502 85.5138C173.252 85.7102 170.185 88.2964 169.239 88.2636C166.628 88.2636 163.071 84.7935 161.439 82.8948C159.169 80.4029 157.752 77.2488 157.394 73.8923C157.036 70.5358 157.756 67.1523 159.449 64.2349C161.015 61.4523 164.67 59.5209 168.716 55.8871C172.763 52.2533 155.141 40.6318 155.141 41.1228C151.878 56.1817 140.456 73.4012 122.508 70.0948C110.303 67.836 102.112 54.8068 102.439 49.9618C101.949 43.4144 104.201 40.8282 108.215 42.0722C105.114 56.9019 118.657 71.2078 134.321 64.9879C153.02 57.5567 155.826 33.2988 146.004 17.618C141.084 9.54508 133.255 3.68165 124.141 1.2436C115.027 -1.19445 105.328 -0.0200378 97.054 4.52331C85.9261 10.3504 70.9475 27.2098 71.1433 42.2359C63.9314 38.6022 51.5634 42.6615 45.5263 47.5392C39.4892 52.417 38.1512 58.6697 35.4753 65.5771C29.7318 80.5705 23.6621 71.7644 14.3616 68.5562C10.4676 67.2172 6.21289 67.4043 2.45053 69.08C1.68979 69.4579 1.05407 70.0482 0.619874 70.78C0.185673 71.5117 -0.0285181 72.3538 0.00304765 73.2048C0.329379 75.7255 4.99592 71.6661 6.98654 82.1418C9.07419 92.3736 14.8926 101.456 23.3031 107.611C27.0652 109.942 31.4115 111.149 35.8328 111.091C40.2541 111.033 44.5674 109.712 48.2675 107.284C49.1159 106.596 51.1718 103.093 52.2487 102.046C52.2487 103.29 58.6122 107.513 58.3185 107.382C61.5834 108.895 65.1047 109.772 68.6958 109.968C81.1617 110.688 90.1684 97.7245 86.4809 88.46C83.7397 81.5854 75.5162 78.2462 68.2716 78.6391C72.7041 77.1908 77.5062 77.3766 81.8143 79.1628C83.9563 79.8103 85.9366 80.9068 87.6244 82.3798C89.3121 83.8528 90.6687 85.6686 91.6043 87.7071C94.0191 93.5342 91.18 97.8555 88.0146 102.439C87.7737 102.763 87.6054 103.135 87.5209 103.531C87.4364 103.926 87.4379 104.335 87.5251 104.73C86.383 118.25 112.131 123.685 122.214 122.932C137.062 121.851 147.766 114.224 156.218 102.34C155.761 102.962 163.919 109.182 164.507 109.542C177.234 117.825 196.748 116.319 203.308 100.867L205.755 101.162C209.58 101.646 213.464 101.299 217.144 100.147C223.051 98.0846 229.447 87.8708 223.834 82.5674Z" fill="#363740"/>
</svg>
