<svg width="292" height="159" viewBox="0 0 292 159" fill="none" xmlns="http://www.w3.org/2000/svg">
<path d="M289.201 106.734C288.722 106.26 288.091 105.971 287.421 105.917C286.75 105.863 286.082 106.047 285.533 106.437C284.984 106.244 284.4 106.166 283.82 106.21C283.239 106.254 282.674 106.417 282.16 106.691C266.517 115.155 258.633 93.4456 248.64 85.9553C244.44 82.7817 239.479 80.7777 234.259 80.1461C229.04 79.5144 223.747 80.2776 218.915 82.3583C203.441 89.5524 210.019 106.861 222.879 110.542C223.848 110.796 219.885 114.139 218.662 114.097C215.289 114.097 210.693 109.611 208.585 107.157C205.652 103.935 203.821 99.8582 203.358 95.5193C202.896 91.1804 203.826 86.8066 206.013 83.0354C208.037 79.4384 212.759 76.9416 217.988 72.2443C223.216 67.547 200.448 52.524 200.448 53.1588C196.231 72.6251 181.474 94.8845 158.285 90.6103C142.515 87.6904 131.933 70.8478 132.354 64.5847C131.722 56.1211 134.631 52.778 139.817 54.3861C135.812 73.5561 153.309 92.0492 173.548 84.0087C197.707 74.4025 201.333 43.0448 188.642 22.7744C182.285 12.3388 172.17 4.7592 160.395 1.60758C148.619 -1.54404 136.087 -0.0259026 125.397 5.8472C111.02 13.3798 91.6667 35.1737 91.9196 54.5977C82.6016 49.9003 66.6218 55.1478 58.8216 61.4532C51.0214 67.7586 49.2927 75.8413 45.8353 84.7704C38.4146 104.152 30.5722 92.7685 18.5557 88.6214C13.5245 86.8906 8.02727 87.1324 3.16618 89.2985C2.18327 89.787 1.3619 90.5501 0.800899 91.4961C0.239897 92.442 -0.0368464 93.5304 0.00393767 94.6305C0.425569 97.889 6.4549 92.6416 9.02685 106.183C11.7242 119.41 19.2417 131.15 30.1084 139.107C34.9692 142.12 40.5847 143.68 46.2972 143.605C52.0097 143.53 57.5826 141.823 62.3633 138.684C63.4595 137.795 66.1158 133.267 67.5072 131.913C67.5072 133.521 75.729 138.98 75.3495 138.811C79.5679 140.766 84.1176 141.901 88.7574 142.154C104.864 143.085 116.501 126.327 111.736 114.351C108.195 105.464 97.5696 101.148 88.2093 101.655C93.9362 99.7832 100.141 100.023 105.707 102.332C108.474 103.169 111.033 104.587 113.214 106.491C115.394 108.395 117.147 110.742 118.356 113.377C121.476 120.91 117.808 126.496 113.718 132.421C113.407 132.84 113.189 133.321 113.08 133.833C112.971 134.344 112.973 134.872 113.086 135.383C111.61 152.86 144.877 159.885 157.905 158.912C177.089 157.515 190.919 147.655 201.839 132.294C201.249 133.098 211.79 141.138 212.548 141.604C228.992 152.31 254.206 150.363 262.681 130.389L265.843 130.77C270.785 131.395 275.803 130.948 280.558 129.458C288.189 126.792 296.453 113.589 289.201 106.734Z" fill="#201D23"/>
</svg>
