<svg width="326" height="1190" viewBox="0 0 326 1190" fill="none" xmlns="http://www.w3.org/2000/svg">
<path d="M-1476.57 109.756C-1485.4 141.777 -1493.83 174.313 -1499.58 207.096C-1505.34 239.879 -1510.74 272.644 -1519.78 304.463C-1521.26 309.831 -1542.99 376.565 -1547.2 387.879C-1547.69 388.257 -1548.07 388.745 -1548.33 389.304C-1548.58 389.862 -1548.7 390.474 -1548.67 391.086L-1548.93 392.052C-1549.13 392.575 -1549.15 393.148 -1548.99 393.683C-1548.83 394.219 -1548.5 394.686 -1548.05 395.012C-1545.7 409.292 -1543.38 424.95 -1535.06 437.01C-1530.28 443.337 -1524.01 448.388 -1516.82 451.717C-1505.27 457.646 -1500.18 466.183 -1493.8 477.217C-1484.82 492.689 -1475.82 502.394 -1458.56 507.474C-1435.04 514.54 -1414.11 520.659 -1398.34 540.866L-1397.66 541.747C-1395.62 545.107 -1393.15 548.193 -1390.33 550.932C-1383.03 560.406 -1374 568.412 -1363.73 574.532C-1362.75 577.096 -1362.39 579.858 -1362.69 582.588C-1362.51 598.958 -1355.95 622.14 -1343.09 633.227C-1337.28 638.235 -1328.67 640.67 -1321.31 642.122C-1316.17 643.302 -1310.79 642.677 -1306.05 640.352C-1305.99 652.876 -1303.15 665.703 -1290.62 672.02C-1281.98 676.367 -1268.7 677.488 -1259.42 672.914C-1258.7 684.708 -1254.81 696.087 -1248.18 705.853C-1241.34 715.682 -1228.2 714.8 -1218.41 710.772C-1218.21 710.698 -1218.03 710.583 -1217.88 710.436C-1217.73 710.288 -1217.62 710.11 -1217.54 709.914C-1211.49 708.897 -1206.4 703.744 -1203.05 697.968C-1202.46 696.934 -1201.94 695.861 -1201.5 694.756C-1199.82 696.381 -1198.04 697.911 -1196.19 699.341C-1183.01 709.388 -1164 715.759 -1147.68 718.094C-1134.96 719.958 -1125 718.257 -1115.2 728.211C-1108.12 735.391 -1101.72 743.048 -1094.26 749.987C-1081.13 762.276 -1070.98 767.962 -1052.51 766.965C-1030.94 765.839 -1060.11 775.497 -1040.95 788.551C-1026.35 798.356 -1018.47 789.414 -1001.16 794.738C-986.417 799.264 -974.585 814.691 -959.181 815.528C-987.76 831.414 -939.043 833.821 -939.036 834.631C-941.825 857.604 -911.935 855.163 -912.902 878.638C-913.847 878.744 -914.717 879.207 -915.335 879.93L-917.362 882.259C-917.758 882.796 -918.001 883.429 -918.067 884.091C-918.133 884.754 -918.02 885.423 -917.738 886.026C-916.753 888.965 -915.278 891.715 -913.377 894.161C-913.436 896.571 -913.563 899.02 -913.596 901.437C-913.643 901.675 -913.636 901.92 -913.575 902.154C-913.513 902.388 -913.399 902.605 -913.241 902.788C-913.082 902.971 -912.884 903.116 -912.661 903.21C-912.439 903.305 -912.197 903.347 -911.956 903.334C-911.72 903.39 -911.474 903.392 -911.236 903.34C-910.999 903.288 -910.777 903.183 -910.586 903.033C-910.395 902.884 -910.24 902.692 -910.133 902.474C-910.026 902.256 -909.969 902.017 -909.967 901.774C-909.649 900.62 -909.606 899.418 -909.422 898.227C-908.422 899.017 -907.366 899.733 -906.263 900.369C-903.986 906.543 -897.548 910.601 -891.142 912.686C-887.765 913.919 -884.091 914.09 -880.612 913.176C-877.133 912.262 -874.015 910.307 -871.675 907.571C-865.892 914.943 -856.319 920.184 -847.111 916.081C-841.129 913.427 -840.305 907.618 -840.986 901.827C-840.421 901.347 -839.857 900.868 -839.379 900.393C-836.787 901.773 -833.923 902.563 -830.99 902.707C-828.896 902.676 -826.832 902.207 -824.93 901.328C-823.029 900.45 -821.332 899.183 -819.949 897.608C-819.382 897.027 -818.87 896.395 -818.418 895.72C-815.244 898.902 -811.171 901.033 -806.748 901.827C-801.765 902.515 -796.698 901.429 -792.431 898.758C-791.302 898.036 -790.289 897.147 -789.425 896.122C-776.8 902.637 -758.511 899.075 -759.662 884.114C-755.123 885.731 -750.213 886.002 -745.522 884.893C-740.831 883.784 -736.559 881.343 -733.218 877.863C-731.624 880.663 -729.45 883.089 -726.842 884.979C-724.235 886.869 -721.253 888.179 -718.098 888.822C-712.965 889.367 -707.785 888.361 -703.226 885.935C-701.86 885.146 -700.735 883.998 -699.973 882.615C-695.335 884.988 -690.087 885.902 -684.919 885.237C-676.327 884.517 -665.947 880.246 -664.239 871.649C-659.994 872.835 -655.597 873.386 -651.191 873.284C-640.458 873.067 -635.127 869.426 -632.171 861.952C-627.601 863.32 -622.744 863.422 -618.119 862.247C-615.363 861.735 -612.741 860.661 -610.417 859.091C-608.093 857.52 -606.117 855.488 -604.611 853.12C-602.698 854.662 -600.394 855.641 -597.957 855.946C-595.519 856.251 -593.045 855.871 -590.81 854.848C-586.573 852.226 -582.976 848.689 -580.281 844.495C-579.133 842.825 -578.206 841.013 -577.525 839.104C-575.023 840.205 -572.316 840.761 -569.583 840.733C-566.85 840.705 -564.153 840.094 -561.673 838.942C-557.725 836.747 -554.647 833.263 -552.951 829.073L-552.28 829.778C-547.707 833.876 -541.706 836.009 -535.573 835.715C-529.162 835.058 -522.996 829.856 -519.602 823.514C-517.824 825.387 -515.592 826.769 -513.123 827.525C-508.646 828.76 -504.667 826.045 -501.703 822.935C-500.224 821.348 -498.944 819.587 -497.891 817.69C-489.577 824.46 -478.54 827.216 -468.322 821.861C-455.672 815.213 -457.313 800.983 -464.955 791.25L-465.142 791.198C-466.264 787.997 -468.121 785.106 -470.564 782.756C-473.007 780.406 -475.968 778.665 -479.208 777.671C-481.05 774.608 -483.309 771.817 -485.919 769.379C-477.359 770.972 -468.531 770.334 -460.285 767.525C-453.132 764.704 -446.965 759.185 -439.57 756.95C-434.808 755.673 -429.824 755.45 -424.969 756.299C-427.923 762.615 -430.399 769.144 -432.376 775.831C-434.146 780.617 -434.867 785.727 -434.49 790.816C-434.724 792.555 -434.804 794.312 -434.727 796.065C-435.173 796.191 -435.562 796.465 -435.834 796.841C-436.105 797.217 -436.241 797.673 -436.222 798.136C-435.276 810.499 -417.482 810.613 -409.258 806.21C-402.743 802.516 -397.532 796.889 -394.345 790.106C-391.264 794.911 -386.428 798.318 -380.869 799.6C-370.738 801.517 -360.275 800.618 -350.615 797C-342.406 793.488 -336.879 786.521 -332.218 779.142C-329.106 791.178 -320.46 800.091 -306.353 798.725C-302.332 798.357 -298.411 797.255 -294.784 795.476C-289.696 797.637 -284.125 798.406 -278.641 797.705C-273.725 807.177 -258.788 811.269 -248.959 809.937C-237.948 808.498 -230.851 801.906 -224.496 793.926C-222.995 794.34 -221.494 794.754 -219.966 795.176C-215.506 796.118 -210.95 796.521 -206.394 796.378C-196.32 798.233 -182.15 791.513 -175.483 784.283C-170.837 779.054 -167.211 773.001 -164.791 766.437C-152.933 772.596 -137.401 766.483 -126.858 758.589C-121.165 754.305 -116.228 749.096 -112.253 743.18C-108.009 745.996 -103.152 747.752 -98.0891 748.301C-81.3622 750.402 -65.4905 742.534 -52.4035 732.945C-36.7599 721.425 -24.5051 705.898 -16.9287 687.998L-16.6173 688.228C-10.3362 692.527 -3.3482 695.687 4.02747 697.563C18.904 701.667 31.956 699.837 45.9856 693.627C76.2407 680.254 89.0286 656.169 100.475 627.642C105.524 636.631 113.173 640.792 123.948 647.115C137.229 654.909 147.768 659.261 163.092 653.379C177.673 647.783 190.112 635.214 197.767 621.787C201.65 614.95 204.585 607.617 206.492 599.989C207.735 594.96 207.738 588.78 208.79 583.294C236.589 602.14 274.288 592.524 286.307 558.783C297.002 528.691 271.068 519.92 243.533 517.263C243.199 516.694 242.79 516.173 242.317 515.714C241.905 515.317 241.405 515.023 240.858 514.857C240.311 514.691 239.732 514.657 239.17 514.758C238.607 514.86 238.076 515.093 237.62 515.439C237.165 515.786 236.798 516.236 236.55 516.752C233.572 516.566 230.634 516.448 227.742 516.372L-1456.34 51.7944L-1456.59 52.7339C-1461.49 52.7994 -1462.93 55.8381 -1464.79 60.6973C-1470.43 75.9218 -1472.15 93.6446 -1476.57 109.756Z" fill="#261F2B"/>
<path d="M-1140.59 616.536C-1142.78 589.871 -1144.57 562.859 -1144.21 536.052C-1143.85 509.245 -1143.21 482.506 -1145.59 455.969C-1145.96 451.499 -1153.15 395.431 -1154.8 385.845C-1155.12 385.474 -1155.35 385.029 -1155.47 384.549C-1155.59 384.069 -1155.59 383.568 -1155.47 383.088L-1155.54 382.283C-1155.62 381.84 -1155.55 381.383 -1155.34 380.984C-1155.13 380.584 -1154.8 380.264 -1154.39 380.074C-1150.39 369.124 -1146.2 357.079 -1137.8 348.783C-1133.06 344.492 -1127.34 341.433 -1121.14 339.876C-1111.1 336.913 -1105.79 330.919 -1099.07 323.144C-1089.64 312.243 -1081.05 305.912 -1066.61 304.478C-1046.92 302.409 -1029.42 300.702 -1013.89 287.072L-1013.22 286.477C-1011.1 284.124 -1008.68 282.051 -1006.03 280.306C-998.826 273.903 -990.473 268.918 -981.416 265.614C-980.254 263.732 -979.557 261.6 -979.385 259.394C-976.78 246.467 -968.106 229.103 -956.25 222.256C-950.903 219.161 -943.711 218.525 -937.663 218.478C-933.417 218.314 -929.243 219.615 -925.842 222.164C-923.911 212.263 -919.738 202.536 -908.859 199.415C-901.364 197.269 -890.677 198.371 -884.011 203.381C-881.667 194.155 -876.88 185.733 -870.155 178.998C-863.263 172.244 -852.988 174.91 -845.834 179.565C-845.689 179.653 -845.564 179.77 -845.467 179.909C-845.371 180.049 -845.304 180.207 -845.273 180.373C-840.633 182.085 -837.378 186.925 -835.588 191.999C-835.276 192.905 -835.027 193.832 -834.843 194.773C-833.264 193.739 -831.629 192.793 -829.947 191.94C-817.997 185.963 -801.979 183.769 -788.702 184.365C-778.341 184.797 -770.706 187.635 -761.446 181.226C-754.762 176.604 -748.545 171.502 -741.593 167.128C-729.34 159.371 -720.451 156.39 -705.963 159.948C-689.044 164.07 -675.057 172.214 -657.92 164.753C-644.879 159.181 -636.475 151.942 -621.963 150.322C-609.6 148.95 -597.117 149.087 -584.787 150.732C-584.837 150.129 -584.884 149.548 -584.757 148.907C-583.518 130.309 -581.353 111.207 -578.595 92.4841C-579.328 92.2579 -579.948 91.762 -580.329 91.0964L-581.585 88.9495C-581.818 88.466 -581.916 87.9286 -581.869 87.394C-581.821 86.8595 -581.631 86.3476 -581.317 85.9123C-580.096 83.7342 -578.514 81.7784 -576.641 80.1276C-576.326 78.2115 -576.059 76.2545 -575.722 74.3366C-575.724 74.1415 -575.682 73.9485 -575.598 73.7723C-575.514 73.5962 -575.391 73.4416 -575.238 73.3204C-575.085 73.1992 -574.906 73.1147 -574.715 73.0732C-574.525 73.0318 -574.327 73.0346 -574.138 73.0813C-573.942 73.0721 -573.747 73.1071 -573.567 73.1838C-573.387 73.2604 -573.227 73.3767 -573.098 73.524C-572.969 73.6714 -572.875 73.8459 -572.823 74.0345C-572.771 74.2232 -572.762 74.4212 -572.797 74.6138C-572.718 75.5749 -572.864 76.532 -572.897 77.5022C-571.987 77.027 -571.043 76.6186 -570.073 76.2801C-567.342 71.7353 -561.632 69.4885 -556.245 68.7982C-553.384 68.3284 -550.447 68.7434 -547.828 69.9879C-545.21 71.2323 -543.033 73.2469 -541.589 75.7621C-535.901 70.7943 -527.53 68.0813 -520.851 72.7078C-516.51 75.7039 -516.73 80.4248 -518.139 84.9059C-517.763 85.3701 -517.388 85.8342 -517.081 86.2816C-514.82 85.5779 -512.432 85.3816 -510.086 85.7068C-508.433 86.045 -506.868 86.7261 -505.493 87.706C-504.119 88.686 -502.964 89.9431 -502.105 91.3965C-501.743 91.9414 -501.432 92.5184 -501.176 93.1203C-498.183 91.0777 -494.637 90.0009 -491.013 90.035C-486.962 90.2372 -483.111 91.856 -480.132 94.6087C-479.346 95.3495 -478.676 96.2048 -478.146 97.1457C-467.166 93.8807 -453.211 99.4395 -456.369 111.107C-452.53 110.508 -448.599 111.029 -445.049 112.61C-441.499 114.19 -438.481 116.762 -436.357 120.016C-434.673 118.039 -432.587 116.445 -430.237 115.34C-427.888 114.235 -425.329 113.645 -422.733 113.609C-418.584 113.946 -414.632 115.518 -411.384 118.122C-410.42 118.951 -409.701 120.028 -409.305 121.236C-405.274 120.053 -400.98 120.116 -396.985 121.416C-390.286 123.273 -382.704 128.208 -382.641 135.269C-379.1 134.965 -375.534 135.188 -372.058 135.929C-363.588 137.708 -359.911 141.389 -358.691 147.747C-354.865 147.349 -351.002 147.995 -347.514 149.619C-345.407 150.436 -343.491 151.679 -341.886 153.27C-340.281 154.861 -339.02 156.766 -338.183 158.865C-336.436 157.931 -334.463 157.502 -332.487 157.626C-330.51 157.75 -328.606 158.421 -326.989 159.565C-324.026 162.275 -321.707 165.613 -320.202 169.336C-319.543 170.83 -319.081 172.403 -318.828 174.016C-316.681 173.519 -314.452 173.485 -312.291 173.916C-310.13 174.348 -308.085 175.235 -306.294 176.519C-303.495 178.847 -301.579 182.065 -300.865 185.636L-300.228 185.178C-295.989 182.62 -290.915 181.831 -286.1 182.982C-281.119 184.463 -277.015 189.504 -275.279 195.032C-273.589 193.815 -271.613 193.056 -269.543 192.828C-265.812 192.521 -263.066 195.266 -261.185 198.171C-260.252 199.649 -259.502 201.234 -258.952 202.893C-251.349 198.781 -242.191 198.253 -234.901 204.022C-225.876 211.179 -229.313 222.194 -236.828 228.752L-236.984 228.765C-238.353 231.13 -240.259 233.14 -242.547 234.634C-244.835 236.127 -247.443 237.062 -250.158 237.363C-252.077 239.511 -254.286 241.381 -256.721 242.92C-249.699 242.942 -242.801 244.77 -236.69 248.227C-231.446 251.532 -227.389 256.824 -221.866 259.7C-218.285 261.425 -214.37 262.347 -210.396 262.403C-211.788 256.962 -212.77 251.424 -213.332 245.836C-214.016 241.783 -213.82 237.63 -212.758 233.66C-212.682 232.248 -212.481 230.846 -212.157 229.47C-212.491 229.303 -212.759 229.028 -212.917 228.69C-213.076 228.352 -213.116 227.97 -213.03 227.607C-210.426 217.965 -196.311 220.54 -190.456 225.257C-185.849 229.156 -182.566 234.39 -181.059 240.236C-177.897 236.895 -173.554 234.923 -168.957 234.741C-160.644 234.742 -152.489 237.021 -145.379 241.332C-139.403 245.341 -136.07 251.682 -133.485 258.221C-129.213 249.161 -121.025 243.403 -110.054 246.597C-106.923 247.491 -103.982 248.95 -101.376 250.902C-97.0205 249.954 -92.4915 250.18 -88.2516 251.556C-82.9354 244.796 -70.4869 243.795 -62.9003 246.322C-54.3923 249.111 -49.7592 255.391 -45.9225 262.659C-44.6711 262.556 -43.4197 262.453 -42.146 262.348C-38.4718 262.271 -34.8015 262.634 -31.2137 263.43C-22.9539 263.471 -12.7363 270.912 -8.53948 277.633C-5.64417 282.467 -3.67975 287.801 -2.74789 293.358C7.57106 290.26 18.9584 297.425 26.1257 305.252C29.9929 309.496 33.1223 314.357 35.384 319.635C39.1689 318.042 43.2803 317.38 47.3736 317.704C60.941 318.547 72.3341 327.152 81.2628 336.701C91.9269 348.162 99.3049 362.286 102.62 377.587L102.901 377.451C108.523 374.99 114.534 373.537 120.658 373.157C133.061 372.138 143.126 375.541 153.309 382.557C175.271 397.674 181.786 418.65 186.572 442.942C191.921 436.584 198.607 434.437 208.092 431.047C219.784 426.869 228.787 425.004 240.044 431.954C250.756 438.567 258.724 450.379 262.773 462.152C264.822 468.144 266.047 474.387 266.413 480.709C266.643 484.876 265.717 489.767 265.727 494.266C290.58 483.516 319.003 496.774 323.46 525.278C327.416 550.695 305.553 553.751 283.34 551.729C282.99 552.129 282.587 552.48 282.143 552.772C281.757 553.025 281.317 553.182 280.859 553.232C280.401 553.282 279.937 553.222 279.506 553.057C279.076 552.893 278.69 552.628 278.381 552.286C278.073 551.943 277.849 551.533 277.73 551.087C275.343 550.788 272.998 550.441 270.695 550.068L-1133.26 665.437L-1133.32 664.655C-1137.19 663.87 -1137.88 661.249 -1138.62 657.125C-1140.81 644.231 -1139.51 629.948 -1140.59 616.536Z" fill="#261F2B"/>
</svg>
