<svg width="330" height="180" viewBox="0 0 330 180" fill="none" xmlns="http://www.w3.org/2000/svg">
<path d="M3.16306 120.83C3.70514 120.294 4.41742 119.967 5.17526 119.906C5.93314 119.845 6.68835 120.053 7.30869 120.495C7.92938 120.276 8.58853 120.188 9.2446 120.238C9.90067 120.287 10.5394 120.473 11.1206 120.783C28.7988 130.364 37.7095 105.787 49.0026 97.3079C53.7494 93.7151 59.3558 91.4465 65.2547 90.7314C71.1536 90.0163 77.1357 90.8803 82.5959 93.2358C100.083 101.38 92.65 120.974 78.1167 125.142C77.0208 125.43 81.4999 129.214 82.8817 129.166C86.6938 129.166 91.8877 124.088 94.2702 121.309C97.5848 117.663 99.6543 113.047 100.177 108.135C100.7 103.223 99.6488 98.2717 97.1768 94.0024C94.8896 89.9303 89.5528 87.1037 83.6442 81.786C77.7355 76.4683 103.467 59.4612 103.467 60.1798C108.232 82.2171 124.909 107.416 151.117 102.578C168.938 99.2721 180.898 80.2051 180.422 73.1148C181.136 63.5333 177.849 59.7486 171.988 61.5691C176.514 83.2711 156.74 104.207 133.867 95.1042C106.564 84.2293 102.466 48.73 116.809 25.7824C123.993 13.9684 135.424 5.38778 148.732 1.8199C162.04 -1.74797 176.203 -0.0293237 188.284 6.61947C204.533 15.147 226.404 39.8192 226.118 61.8087C236.649 56.491 254.708 62.4314 263.524 69.5696C272.339 76.7078 274.292 85.8581 278.2 95.9665C286.586 117.908 295.449 105.021 309.029 100.326C314.716 98.3667 320.928 98.6405 326.422 101.093C327.533 101.646 328.461 102.51 329.095 103.58C329.729 104.651 330.042 105.884 329.996 107.129C329.519 110.818 322.705 104.877 319.798 120.208C316.75 135.181 308.254 148.472 295.973 157.479C290.48 160.89 284.134 162.657 277.678 162.572C271.222 162.487 264.924 160.554 259.521 157C258.282 155.994 255.28 150.868 253.708 149.335C253.708 151.156 244.416 157.336 244.845 157.144C240.077 159.358 234.936 160.642 229.692 160.929C211.49 161.983 198.338 143.011 203.723 129.454C207.725 119.393 219.733 114.507 230.311 115.082C223.839 112.962 216.827 113.234 210.537 115.848C207.409 116.796 204.517 118.4 202.053 120.556C199.589 122.711 197.608 125.369 196.242 128.352C192.715 136.879 196.861 143.203 201.483 149.91C201.835 150.385 202.081 150.93 202.204 151.509C202.327 152.087 202.325 152.686 202.198 153.264C203.866 173.049 166.27 181.002 151.546 179.9C129.865 178.319 114.236 167.157 101.894 149.766C102.561 150.677 90.6488 159.779 89.7911 160.306C71.2075 172.427 42.7127 170.223 33.135 147.611L29.5613 148.042C23.9761 148.75 18.305 148.243 12.9314 146.557C4.30667 143.538 -5.03278 128.591 3.16306 120.83Z" fill="black" fill-opacity="0.12"/>
</svg>
