<svg width="1920" height="766" viewBox="0 0 1920 766" fill="none" xmlns="http://www.w3.org/2000/svg">
<mask id="mask0_2_25892" style="mask-type:alpha" maskUnits="userSpaceOnUse" x="-255" y="406" width="898" height="360">
<path d="M642.833 758.745C642.833 758.745 369.517 635.623 347.355 611.008C325.193 586.392 315.015 578.875 303.857 573.204C292.221 566.953 281.371 559.338 271.539 550.522C263.231 542.961 254.901 521.235 222.582 510.829C190.264 500.422 189.328 500.443 172.691 491.927C156.053 483.41 144.983 479.652 130.194 462.64C115.404 445.628 113.578 444.672 96.9398 429.551C80.302 414.43 43.4379 406 36.0433 406C28.6487 406 32.346 427.726 -2.75644 433.397C-37.8589 439.067 -38.7724 449.452 -40.5558 454.167C-42.3392 458.881 -42.4044 490.08 -49.799 490.08C-57.1936 490.08 -85.4234 508.113 -94.2099 514.631C-102.996 521.148 -127.551 544.895 -141.318 548.675C-155.085 552.456 -219.831 695.175 -242.014 707.45C-264.198 719.725 -251.236 765.111 -251.236 765.111L642.833 758.745Z" fill="url(#paint0_linear_2_25892)"/>
</mask>
<g mask="url(#mask0_2_25892)">
<path d="M642.415 758.747C642.415 758.747 369.353 635.664 347.211 611.056C325.07 586.447 314.901 578.933 303.754 573.264C292.128 567.014 281.289 559.402 271.466 550.589C263.165 543.03 254.843 521.311 222.555 510.907C190.266 500.504 189.332 500.526 172.709 492.012C156.087 483.498 145.027 479.74 130.252 462.734C115.476 445.728 113.651 444.772 97.0286 429.655C80.4063 414.538 43.5764 406.111 36.1887 406.111C28.801 406.111 32.4948 427.831 -2.57507 433.499C-37.645 439.168 -38.5576 449.55 -40.3393 454.263C-42.1211 458.976 -42.1862 490.165 -49.5739 490.165C-56.9617 490.165 -85.1653 508.193 -93.9437 514.708C-102.722 521.224 -127.254 544.963 -141.008 548.743C-154.762 552.522 -219.448 695.197 -241.611 707.468C-263.774 719.739 -250.824 765.111 -250.824 765.111L642.415 758.747Z" fill="url(#paint1_linear_2_25892)"/>
<path d="M-223.072 765.111V673.557C-221.904 673.665 -220.743 673.842 -219.596 674.088C-207.207 676.889 -189.421 683.042 -175.478 681.943C-161.534 680.845 -139.832 670.81 -123.583 671.378C-107.333 671.946 -69.3636 661.38 -53.8647 661.399C-38.3657 661.417 -22.0982 649.716 -8.11801 643.582C5.86217 637.448 56.5861 566.915 72.9268 567.647C80.8135 568.013 95.5439 594.015 110.842 605.606C127.182 617.965 121.491 588.998 161.785 632.87C174.027 646.201 195.528 644.901 212.546 648.819C229.563 652.738 255.913 649.973 272.931 644.406C289.949 638.84 306.235 642.209 317.854 644.406C329.474 646.603 347.242 661.197 361.186 661.197C375.129 661.197 395.953 660.684 411.507 666.837C425.07 672.019 439.46 674.699 453.978 674.747C464.811 674.747 497.346 675.901 516.688 684.287C536.029 692.673 590.212 701.096 601.831 693.864C613.451 686.631 625.985 662.058 635.977 661.563C645.968 661.069 657.66 659.348 661.595 653.214C665.529 647.079 679.436 632.028 701.083 645.45C705.017 647.885 708.988 650.247 712.831 652.481V765.166L-223.072 765.111Z" fill="url(#paint2_linear_2_25892)"/>
<path d="M589.197 749.516V669.365C588.143 669.46 587.096 669.615 586.061 669.83C574.887 672.283 558.845 677.669 546.269 676.707C533.693 675.745 514.119 666.961 499.463 667.458C484.807 667.954 450.56 658.705 436.581 658.721C422.602 658.737 407.93 648.494 395.32 643.124C382.711 637.754 373.766 607.376 354.918 607.392C336.07 607.408 339.486 627.879 324.748 628.536C310.01 629.193 295.519 594.873 279.576 594.873C265.151 594.873 236.533 622.926 223.461 632.464C210.39 642.002 199.332 633.361 183.983 636.792C168.634 640.222 153.4 662.44 138.018 657.631C122.636 652.822 107.882 649.44 97.4178 651.411C86.9541 653.383 74.7574 658.593 62.1812 658.593C49.6049 658.593 30.823 658.144 16.7943 663.53C4.53198 668.06 -8.47528 670.39 -21.5947 670.407C-31.3817 670.407 -60.7099 671.417 -78.1549 678.759C-95.6 686.101 -144.321 693.475 -154.9 687.143C-165.479 680.811 -176.603 659.298 -185.68 658.865C-194.758 658.433 -205.238 656.926 -208.786 651.556C-212.335 646.185 -224.878 633.009 -244.419 644.759C-247.968 646.891 -251.533 648.959 -254.999 650.914V749.564L589.197 749.516Z" fill="url(#paint3_linear_2_25892)"/>
<path d="M205.048 617.102C205.434 617.106 205.807 616.965 206.094 616.707C206.231 616.589 206.338 616.44 206.406 616.273C206.474 616.105 206.502 615.924 206.487 615.744C206.487 615.166 206.18 613.961 206.18 613.008C206.239 612.452 206.18 611.891 206.008 611.36L205.825 611.428C204.747 611.791 203.614 611.961 202.477 611.929C199.234 611.848 196.075 610.879 193.342 609.125C191.133 607.837 189.233 606.078 187.777 603.97C186.031 601.437 186.002 598.932 186.53 598.961H187.489C190.828 598.961 191.586 597.997 191.663 597.853L191.749 597.718C191.761 597.702 191.769 597.684 191.772 597.665C191.776 597.645 191.774 597.626 191.769 597.607C191.763 597.588 191.753 597.571 191.74 597.557C191.727 597.543 191.71 597.532 191.692 597.525L191.548 597.458C190.46 596.981 189.421 596.397 188.449 595.714C187.414 595.025 186.494 594.177 185.724 593.199C185.724 593.074 185.426 590.521 184.985 587.467L183.795 579.277C183.363 576.233 182.644 576.233 182.202 579.277C181.838 581.84 181.406 584.894 181.051 587.457C180.629 590.511 180.322 593.084 180.293 593.238C179.51 594.21 178.585 595.058 177.549 595.752C176.58 596.432 175.549 597.016 174.469 597.496L174.325 597.564C174.305 597.568 174.287 597.578 174.272 597.592C174.257 597.606 174.246 597.623 174.24 597.643C174.234 597.663 174.234 597.683 174.238 597.703C174.243 597.723 174.253 597.741 174.267 597.756L174.354 597.891C174.43 598.007 175.179 598.999 178.527 598.999C178.844 598.999 179.151 598.999 179.487 598.999C180.015 598.999 179.986 601.475 178.249 604.009C176.548 606.357 174.342 608.291 171.796 609.669C169.25 611.046 166.429 611.832 163.54 611.967C162.401 611.991 161.266 611.825 160.182 611.476L160.009 611.399C159.913 611.399 159.836 612.102 159.836 613.056C159.836 614.01 159.539 615.204 159.52 615.802C159.509 615.983 159.54 616.165 159.612 616.333C159.684 616.5 159.793 616.648 159.932 616.765C160.218 617.027 160.591 617.171 160.978 617.17C161.26 617.211 161.548 617.143 161.782 616.98C162.017 616.818 162.182 616.572 162.245 616.293C162.258 616.001 162.212 615.709 162.11 615.435C161.976 614.983 162.542 615.233 163.482 615.975C164.29 616.534 164.883 617.353 165.162 618.297C165.16 618.537 165.248 618.768 165.408 618.946C165.568 619.124 165.788 619.236 166.025 619.26H200.116C200.355 619.239 200.578 619.128 200.74 618.949C200.901 618.771 200.99 618.538 200.989 618.297C201.27 617.351 201.862 616.529 202.669 615.965C203.628 615.233 204.175 615.002 204.041 615.435C203.935 615.708 203.892 616.001 203.916 616.293C203.985 616.547 204.141 616.769 204.357 616.919C204.573 617.069 204.835 617.137 205.096 617.112L205.048 617.102Z" fill="#3C3E49"/>
<path d="M223.989 643.588C224.747 643.645 226.071 643.25 226.157 642.094C226.18 641.762 226.114 641.429 225.966 641.131C225.572 640.349 225.35 639.491 225.313 638.616C225.382 637.955 225.266 637.288 224.977 636.689C224.455 636.744 223.962 636.959 223.567 637.306C221.477 638.19 219.173 638.431 216.946 638C215.024 637.618 213.172 636.939 211.458 635.986C205.528 632.672 203.005 625.966 202.976 625.899V625.802C202.799 625.733 202.608 625.707 202.419 625.725C202.281 625.725 202.148 625.671 202.05 625.573C201.951 625.476 201.894 625.344 201.892 625.205C201.897 625.076 201.852 624.951 201.765 624.855C201.679 624.76 201.559 624.702 201.431 624.694H164.682C164.618 624.698 164.555 624.714 164.497 624.743C164.439 624.771 164.387 624.81 164.344 624.858C164.302 624.907 164.269 624.963 164.248 625.024C164.227 625.085 164.218 625.15 164.222 625.215C164.222 625.284 164.208 625.352 164.181 625.416C164.155 625.48 164.116 625.537 164.066 625.586C164.017 625.634 163.959 625.672 163.895 625.698C163.831 625.724 163.763 625.736 163.694 625.735C163.406 625.735 163.147 625.735 163.137 625.812C163.136 625.841 163.136 625.87 163.137 625.899C163.137 625.966 160.585 632.643 154.655 635.986C152.947 636.945 151.098 637.625 149.177 638C146.947 638.442 144.637 638.201 142.546 637.306C141.952 636.882 141.318 636.612 141.136 636.699C140.954 636.786 140.8 637.662 140.8 638.626C140.761 639.504 140.538 640.364 140.148 641.15C139.989 641.444 139.929 641.782 139.975 642.113C140.042 643.231 141.232 643.626 142.124 643.626C142.594 643.554 143.017 643.302 143.304 642.923C143.436 642.772 143.534 642.596 143.594 642.405C143.653 642.215 143.672 642.013 143.65 641.815C143.604 641.462 143.461 641.128 143.237 640.851C142.973 640.554 142.738 640.232 142.537 639.888C142.537 639.763 143.717 640.784 145.415 641.815C147.114 642.846 148.726 643.366 148.726 643.742C148.726 644.117 151.211 644.426 154.281 644.426H216.649C216.747 644.435 216.845 644.425 216.939 644.395C217.033 644.365 217.12 644.317 217.195 644.254C217.27 644.19 217.332 644.112 217.376 644.024C217.421 643.936 217.448 643.84 217.455 643.742C217.455 643.366 219.076 642.836 220.765 641.815C222.454 640.794 223.644 639.753 223.644 639.888C223.644 640.023 223.279 640.389 222.943 640.851C222.729 641.133 222.587 641.464 222.531 641.815C222.508 642.013 222.527 642.215 222.587 642.405C222.646 642.596 222.745 642.772 222.876 642.923C223.164 643.302 223.587 643.554 224.056 643.626L223.989 643.588Z" fill="#3C3E49"/>
<path d="M140.09 666.903C139.936 667.199 139.869 667.533 139.898 667.866C139.966 668.974 141.165 669.379 142.067 669.369C142.301 669.335 142.526 669.255 142.729 669.133C142.931 669.01 143.108 668.848 143.247 668.656C143.38 668.509 143.48 668.335 143.54 668.145C143.599 667.956 143.617 667.755 143.592 667.558C143.546 667.205 143.403 666.871 143.18 666.595C142.914 666.299 142.679 665.976 142.479 665.631C142.479 665.525 143.66 666.546 145.358 667.558C147.056 668.57 148.668 669.109 148.668 669.485C148.668 669.861 149.628 670.169 150.817 670.169C152.007 670.169 152.957 670.545 152.957 670.998C152.957 671.45 154.157 671.826 155.615 671.826C157.073 671.826 158.225 672.125 158.167 672.51C158.167 672.732 158.167 672.963 158.091 673.194C157.774 675.401 157.428 678.012 157.131 680.738C156.834 683.465 156.546 686.451 156.248 689.409C155.951 692.367 155.289 695.315 155.289 698.08C155.289 698.302 155.289 698.523 155.289 698.745C155.289 699.13 154.809 699.429 154.176 699.429C154.027 699.426 153.879 699.453 153.741 699.508C153.603 699.563 153.476 699.644 153.369 699.748C153.263 699.852 153.177 699.976 153.118 700.113C153.059 700.25 153.027 700.397 153.024 700.547C153.024 701.163 152.065 701.664 150.865 701.664C149.666 701.664 148.716 704.169 148.716 707.252V707.397C148.675 708.835 149.203 710.231 150.185 711.278C151.167 712.326 152.523 712.939 153.955 712.985H212.485C213.937 712.959 215.32 712.357 216.331 711.31C217.342 710.262 217.898 708.855 217.877 707.397V707.252C217.877 704.169 216.841 701.664 215.584 701.664C214.327 701.664 213.291 701.163 213.291 700.547C213.288 700.397 213.256 700.25 213.197 700.113C213.138 699.976 213.053 699.852 212.946 699.748C212.839 699.644 212.712 699.563 212.574 699.508C212.436 699.453 212.288 699.426 212.139 699.429C211.496 699.429 210.998 699.13 211.007 698.745C211.007 698.523 211.007 698.302 211.007 698.08C210.95 695.315 210.239 692.367 210 689.409C209.76 686.451 209.472 683.522 209.117 680.738C208.762 677.954 208.455 675.401 208.157 673.194C208.112 672.968 208.08 672.74 208.061 672.51C208.004 672.125 209.155 671.826 210.614 671.826C212.072 671.826 213.272 671.45 213.272 670.998C213.272 670.545 213.857 670.169 214.576 670.169H216.687C216.785 670.178 216.884 670.168 216.978 670.138C217.071 670.109 217.158 670.061 217.233 669.997C217.309 669.933 217.37 669.855 217.415 669.767C217.459 669.679 217.486 669.583 217.493 669.485C217.493 669.1 219.115 668.57 220.804 667.558C222.492 666.546 223.682 665.506 223.682 665.631C223.682 665.756 223.318 666.142 222.982 666.595C222.764 666.875 222.622 667.207 222.569 667.558C222.546 667.755 222.564 667.955 222.624 668.145C222.683 668.334 222.783 668.509 222.915 668.656C223.054 668.848 223.23 669.01 223.433 669.133C223.636 669.255 223.861 669.335 224.095 669.369C224.853 669.427 226.177 669.032 226.263 667.866C226.292 667.533 226.225 667.199 226.071 666.903C225.681 666.117 225.458 665.257 225.419 664.379C225.419 663.415 225.275 662.51 225.083 662.452C224.891 662.394 224.267 662.625 223.673 663.049C221.585 663.943 219.28 664.191 217.052 663.762C215.128 663.377 213.276 662.691 211.564 661.729C205.634 658.434 203.11 651.719 203.082 651.661V651.565C202.906 651.491 202.715 651.461 202.525 651.478C202.457 651.481 202.389 651.469 202.325 651.445C202.261 651.42 202.202 651.383 202.153 651.336C202.104 651.288 202.065 651.231 202.038 651.167C202.011 651.104 201.997 651.036 201.997 650.968C202.001 650.903 201.992 650.838 201.971 650.777C201.95 650.716 201.917 650.66 201.875 650.611C201.832 650.563 201.78 650.524 201.722 650.495C201.664 650.467 201.601 650.451 201.537 650.447H164.788C164.724 650.451 164.661 650.467 164.603 650.495C164.545 650.524 164.493 650.563 164.45 650.611C164.407 650.66 164.374 650.716 164.353 650.777C164.332 650.838 164.323 650.903 164.327 650.968C164.326 651.035 164.311 651.102 164.284 651.165C164.257 651.227 164.217 651.283 164.168 651.329C164.119 651.376 164.061 651.412 163.998 651.436C163.935 651.46 163.867 651.471 163.8 651.469C163.512 651.469 163.253 651.517 163.243 651.565C163.241 651.594 163.241 651.623 163.243 651.652C163.243 651.719 160.691 658.396 154.761 661.739C153.049 662.69 151.201 663.369 149.282 663.752C147.052 664.183 144.746 663.941 142.652 663.059C142.257 662.712 141.764 662.497 141.242 662.442C140.95 663.04 140.834 663.708 140.906 664.369C140.87 665.248 140.648 666.108 140.253 666.893L140.09 666.903ZM184.506 673.242C184.506 673.002 184.458 672.78 184.429 672.558C184.371 672.183 185.513 671.865 186.981 671.865C188.449 671.865 189.62 671.499 189.62 671.036C189.62 670.574 191.942 670.217 194.811 670.217C197.68 670.217 199.982 670.583 199.982 671.036C199.982 671.489 201.172 671.865 202.621 671.865C204.07 671.865 205.231 672.183 205.193 672.558C205.193 672.78 205.125 673.002 205.097 673.242C204.799 675.449 204.425 678.06 204.137 680.796C203.849 683.532 203.542 686.49 203.254 689.467C202.966 692.444 202.295 695.354 202.237 698.138C202.237 698.369 202.237 698.581 202.237 698.822C202.237 699.063 201.748 699.487 201.115 699.487C200.965 699.484 200.817 699.511 200.678 699.567C200.539 699.622 200.412 699.705 200.305 699.809C200.198 699.914 200.113 700.039 200.054 700.177C199.995 700.315 199.964 700.464 199.963 700.614C199.963 701.231 197.641 701.722 194.792 701.722C191.942 701.722 189.601 701.231 189.601 700.614C189.599 700.464 189.568 700.315 189.51 700.177C189.451 700.039 189.366 699.914 189.259 699.809C189.152 699.705 189.025 699.622 188.886 699.567C188.747 699.511 188.599 699.484 188.449 699.487C187.816 699.487 187.307 699.188 187.327 698.822C187.346 698.456 187.327 698.369 187.327 698.138C187.259 695.373 186.549 692.425 186.3 689.467C186.05 686.509 185.772 683.561 185.427 680.796C185.081 678.031 184.755 675.449 184.467 673.242H184.506ZM161.027 673.242C161.027 673.002 161.027 672.78 160.95 672.558C160.892 672.183 162.034 671.865 163.502 671.865C164.97 671.865 166.141 671.499 166.141 671.036C166.141 670.574 168.453 670.217 171.293 670.217C174.133 670.217 176.417 670.583 176.417 671.036C176.417 671.489 177.616 671.865 179.075 671.865C180.533 671.865 181.685 672.183 181.627 672.558C181.608 672.788 181.576 673.016 181.531 673.242C181.234 675.449 180.879 678.06 180.572 680.796C180.265 683.532 179.977 686.49 179.689 689.467C179.401 692.444 178.729 695.354 178.681 698.138C178.681 698.369 178.681 698.581 178.681 698.822C178.681 699.063 178.192 699.487 177.549 699.487C177.4 699.484 177.251 699.511 177.112 699.567C176.973 699.622 176.847 699.705 176.74 699.809C176.633 699.914 176.547 700.039 176.489 700.177C176.43 700.315 176.399 700.464 176.398 700.614C176.398 701.231 174.095 701.722 171.255 701.722C168.415 701.722 166.122 701.231 166.122 700.614C166.12 700.464 166.089 700.315 166.031 700.177C165.972 700.039 165.887 699.914 165.78 699.809C165.673 699.705 165.546 699.622 165.407 699.567C165.268 699.511 165.12 699.484 164.97 699.487C164.337 699.487 163.828 699.188 163.848 698.822C163.867 698.456 163.848 698.369 163.848 698.138C163.78 695.373 163.07 692.425 162.83 689.467C162.591 686.509 162.293 683.561 161.948 680.796C161.602 678.031 161.276 675.449 160.988 673.242H161.027Z" fill="#3C3E49"/>
<path d="M-318.742 765.063L-347.504 713.806C-343.802 714.748 -261.965 700.65 -259.519 699.601C-255.265 697.789 -248.884 701.783 -242.503 701.783C-236.121 701.783 -230.242 692.913 -221.567 691.375C-212.891 689.837 -212.02 696.692 -202.808 697.062C-193.596 697.431 -173.045 696.692 -164.537 694.153C-156.029 691.613 -146.113 690.886 -133.351 690.886C-120.588 690.886 -108.713 687.643 -104.292 686.523C-95.0464 684.138 -93.673 682.887 -76.6562 690.886C-67.6454 695.118 13.2009 686.427 95.2196 705.884C123.257 712.536 171.46 710.128 194.322 700.555C217.184 690.981 257.147 688.704 267.782 685.795C278.418 682.887 286.909 683.244 295.418 683.614C303.926 683.983 320.223 682.159 330.155 678.845C334.141 677.41 338.577 676.723 343.042 676.851C347.506 676.978 351.85 677.915 355.663 679.572C362.748 682.481 388.273 687.918 397.535 688.657C406.797 689.396 435.806 687.929 435.806 687.929C438.401 688.187 440.85 688.941 442.891 690.111C445.721 691.923 459.891 693.747 466.992 691.923C474.094 690.099 491.797 679.572 499.585 674.839C507.373 670.106 520.136 669.749 522.263 674.112C524.39 678.475 525.094 680.657 532.898 683.924C540.703 687.19 564.721 689.384 564.721 689.384C564.721 689.384 580.733 689.038 586.863 682.386V765.063H-318.742Z" fill="url(#paint4_linear_2_25892)"/>
</g>
<mask id="mask1_2_25892" style="mask-type:alpha" maskUnits="userSpaceOnUse" x="-114" y="444" width="315" height="257">
<path d="M45.2171 580.575C46.6369 581.529 47.6429 582.985 48.0329 584.65C48.1137 585.45 48.0325 586.258 47.7941 587.026C47.5557 587.793 47.165 588.506 46.6453 589.119L45.2081 587.923L44.0823 589.192C43.4748 588.613 43.0087 587.901 42.7202 587.112C42.4316 586.324 42.3283 585.48 42.4181 584.645C42.5643 583.805 42.89 583.007 43.3731 582.304C43.8561 581.602 44.4851 581.012 45.2171 580.575Z" fill="white"/>
<path d="M92.4982 591.933C91.8743 590.235 91.8496 588.375 92.4282 586.661C92.807 585.942 93.3273 585.307 93.9579 584.794C94.5884 584.281 95.3163 583.901 96.0975 583.676C96.2863 584.523 96.6471 585.461 96.6471 585.461L98.2989 585.092C98.4849 585.911 98.481 586.761 98.2874 587.578C98.0939 588.395 97.7158 589.157 97.1823 589.805C95.945 591.079 94.272 591.839 92.4982 591.933Z" fill="white"/>
<path d="M85.7354 537.202C85.7354 537.202 85.9465 540.773 84.3826 542.314C83.8233 542.894 83.1548 543.358 82.4155 543.679C81.6761 544 80.8806 544.172 80.0747 544.184L80.0299 542.331L78.3572 542.314C78.3921 541.475 78.6202 540.655 79.0236 539.919C79.4271 539.182 79.995 538.549 80.6833 538.068C82.1981 537.153 84.0024 536.844 85.7354 537.202Z" fill="white"/>
<path d="M56.3047 461.441C56.3047 461.441 56.5159 465.012 54.952 466.553C54.3927 467.133 53.7241 467.597 52.9848 467.918C52.2455 468.239 51.4499 468.411 50.644 468.423L50.5992 466.57L48.9265 466.553C48.9614 465.714 49.1895 464.894 49.593 464.158C49.9964 463.422 50.5644 462.788 51.2527 462.307C52.7674 461.393 54.5717 461.083 56.3047 461.441Z" fill="white"/>
<path d="M180.717 444.345C180.717 444.345 180.928 447.917 179.364 449.457C178.805 450.038 178.136 450.502 177.397 450.823C176.658 451.144 175.862 451.315 175.056 451.328L175.011 449.474L173.339 449.457C173.374 448.619 173.602 447.799 174.005 447.063C174.409 446.326 174.976 445.693 175.665 445.212C177.18 444.297 178.984 443.988 180.717 444.345Z" fill="white"/>
<path d="M127.06 465.42C127.06 465.42 127.271 468.991 125.707 470.532C125.148 471.112 124.479 471.576 123.74 471.897C123 472.218 122.205 472.39 121.399 472.402L121.354 470.549L119.681 470.532C119.716 469.693 119.944 468.873 120.348 468.137C120.751 467.4 121.319 466.767 122.008 466.286C123.522 465.371 125.327 465.062 127.06 465.42Z" fill="white"/>
<path d="M-6.63576 602.452C-6.63576 602.452 -3.9757 599.996 -1.88951 600.701C-0.286672 601.117 1.09929 602.124 1.99008 603.519C1.23084 603.905 0.210186 604.48 0.210186 604.48L1.12665 605.965C0.315356 606.331 -0.566281 606.515 -1.45625 606.504C-2.34621 606.493 -3.22288 606.287 -4.02461 605.901C-4.69349 605.562 -5.27631 605.076 -5.72879 604.478C-6.18126 603.881 -6.49149 603.188 -6.63576 602.452Z" fill="white"/>
<path d="M142.937 539.08C142.937 539.08 145.576 536.628 147.662 537.333C149.273 537.741 150.668 538.747 151.563 540.147L149.767 541.132L150.678 542.597C149.872 542.97 148.993 543.157 148.105 543.145C147.217 543.133 146.343 542.922 145.548 542.528C144.879 542.19 144.296 541.703 143.844 541.106C143.391 540.508 143.081 539.815 142.937 539.08Z" fill="white"/>
<path d="M192.031 501.267C192.031 501.267 194.671 498.815 196.757 499.52C198.368 499.929 199.762 500.935 200.657 502.334L198.861 503.32L199.773 504.785C198.967 505.157 198.088 505.344 197.2 505.332C196.312 505.32 195.438 505.109 194.643 504.716C193.974 504.377 193.391 503.891 192.938 503.293C192.486 502.696 192.176 502.003 192.031 501.267Z" fill="white"/>
<path d="M34.1588 531.548C34.1588 531.548 35.4941 534.912 34.0703 536.595C33.1041 537.942 31.659 538.869 30.0313 539.185C29.9459 538.316 29.7569 537.08 29.7569 537.08L28.0638 537.457C28.0157 536.57 28.1637 535.684 28.497 534.86C28.8304 534.037 29.341 533.297 29.9927 532.693C30.5545 532.199 31.2216 531.838 31.9435 531.64C32.6654 531.441 33.423 531.41 34.1588 531.548Z" fill="white"/>
</mask>
<g mask="url(#mask1_2_25892)">
<rect width="401.411" height="305.408" transform="matrix(1 -9.05681e-08 -9.05681e-08 -1 -141.18 708.085)" fill="url(#paint5_linear_2_25892)"/>
</g>
<path d="M716 722.953C716 722.953 1276.13 470.614 1321.55 420.164C1366.97 369.714 1387.82 354.308 1410.69 342.686C1434.54 329.874 1456.77 314.268 1476.92 296.199C1493.95 280.703 1511.02 236.175 1577.25 214.847C1643.49 193.518 1645.4 193.562 1679.5 176.107C1713.6 158.653 1736.28 150.949 1766.59 116.084C1796.9 81.2187 1800.65 79.2595 1834.74 48.2681C1868.84 17.2768 1944.39 0 1959.54 0C1974.7 0 1967.12 44.5278 2039.06 56.1496C2111 67.7713 2112.87 89.0556 2116.52 98.7181C2120.18 108.381 2120.31 172.323 2135.47 172.323C2150.62 172.323 2208.47 209.281 2226.48 222.639C2244.49 235.997 2294.81 284.666 2323.02 292.414C2351.24 300.162 2483.92 592.665 2529.39 617.823C2574.85 642.981 2548.29 736 2548.29 736L716 722.953Z" fill="url(#paint6_linear_2_25892)"/>
<mask id="mask2_2_25892" style="mask-type:alpha" maskUnits="userSpaceOnUse" x="716" y="0" width="1840" height="736">
<path d="M716 722.953C716 722.953 1276.13 470.614 1321.55 420.164C1366.97 369.714 1387.82 354.308 1410.69 342.686C1434.54 329.874 1456.77 314.268 1476.92 296.199C1493.95 280.703 1511.02 236.175 1577.25 214.847C1643.49 193.518 1645.4 193.562 1679.5 176.107C1713.6 158.653 1736.28 150.949 1766.59 116.084C1796.9 81.2187 1800.65 79.2595 1834.74 48.2681C1868.84 17.2768 1944.39 0 1959.54 0C1974.7 0 1967.12 44.5278 2039.06 56.1496C2111 67.7713 2112.87 89.0556 2116.52 98.7181C2120.18 108.381 2120.31 172.323 2135.47 172.323C2150.62 172.323 2208.47 209.281 2226.48 222.639C2244.49 235.997 2294.81 284.666 2323.02 292.414C2351.24 300.162 2483.92 592.665 2529.39 617.823C2574.85 642.981 2548.29 736 2548.29 736L716 722.953Z" fill="url(#paint7_linear_2_25892)"/>
</mask>
<g mask="url(#mask2_2_25892)">
<path fill-rule="evenodd" clip-rule="evenodd" d="M1956.22 43.4945L1908.95 166.543L1934.46 151.061L1830.9 326.855L1846.16 326.233L1966.63 299.18L1983.73 307.341L2005.74 357.281L1923.02 457.511L2004.73 386.785L1866.89 568.789L1946.41 486.79L1794.34 712.894L1840.76 677.882L1961.01 651.415L1878.45 779.945L1458.03 786.868L1781.54 507.565L1551.46 743.586L1829.64 483.653L1899.17 380.494L1338.51 788.849L1304.75 789.454L1719.76 462.133L1275.42 789.879L1246.35 790.486L1717.17 398.5L1718.54 432.143L1805.53 345.797L1747.17 384.184L1828.31 263.414L1198.79 791.268L808.841 897.641L1374.59 494.105L1083.36 712.206L1588.44 374.283L1433.59 453.381L1142.63 605.229L1514.19 355.356L1565 355.596L1916.33 45.1195L1956.22 43.4945Z" fill="#221E26"/>
</g>
<defs>
<linearGradient id="paint0_linear_2_25892" x1="642.833" y1="585.545" x2="-254.977" y2="585.545" gradientUnits="userSpaceOnUse">
<stop stop-color="white"/>
<stop offset="1" stop-color="#1D1820"/>
</linearGradient>
<linearGradient id="paint1_linear_2_25892" x1="642.416" y1="585.6" x2="-145.082" y2="539.808" gradientUnits="userSpaceOnUse">
<stop stop-color="#292A32" stop-opacity="0"/>
<stop offset="1" stop-color="#241F29"/>
</linearGradient>
<linearGradient id="paint2_linear_2_25892" x1="383.978" y1="650.841" x2="-56.3871" y2="579.714" gradientUnits="userSpaceOnUse">
<stop stop-color="#22232B" stop-opacity="0"/>
<stop offset="1" stop-color="#1B171E"/>
</linearGradient>
<linearGradient id="paint3_linear_2_25892" x1="331.507" y1="710.308" x2="274.88" y2="656.973" gradientUnits="userSpaceOnUse">
<stop stop-color="#22232B" stop-opacity="0"/>
<stop offset="1" stop-color="#18151B" stop-opacity="0.45"/>
</linearGradient>
<linearGradient id="paint4_linear_2_25892" x1="75.371" y1="873.551" x2="124.245" y2="683.523" gradientUnits="userSpaceOnUse">
<stop stop-color="#22232B" stop-opacity="0"/>
<stop offset="1" stop-color="#1F1A22"/>
</linearGradient>
<linearGradient id="paint5_linear_2_25892" x1="31.8939" y1="12.2421" x2="346.322" y2="284.145" gradientUnits="userSpaceOnUse">
<stop stop-color="white" stop-opacity="0.12"/>
<stop offset="1" stop-color="white" stop-opacity="0"/>
</linearGradient>
<linearGradient id="paint6_linear_2_25892" x1="716" y1="367.978" x2="2331.37" y2="273.992" gradientUnits="userSpaceOnUse">
<stop stop-color="#292A32" stop-opacity="0"/>
<stop offset="1" stop-color="#241F29"/>
</linearGradient>
<linearGradient id="paint7_linear_2_25892" x1="1283" y1="569.5" x2="2331.38" y2="273.988" gradientUnits="userSpaceOnUse">
<stop stop-color="#292A32" stop-opacity="0"/>
<stop offset="1" stop-color="#241F29"/>
</linearGradient>
</defs>
</svg>
