<svg width="122" height="440" viewBox="0 0 122 440" fill="none" xmlns="http://www.w3.org/2000/svg">
<circle cx="2.6311" cy="2.6311" r="2.6311" fill="#C4C4C4"/>
<circle cx="2.6311" cy="234.168" r="2.6311" fill="#C4C4C4"/>
<circle cx="2.6311" cy="118.4" r="2.6311" fill="#C4C4C4"/>
<circle cx="2.6311" cy="349.936" r="2.6311" fill="#C4C4C4"/>
<circle cx="2.6311" cy="60.5151" r="2.6311" fill="#C4C4C4"/>
<circle cx="2.6311" cy="292.052" r="2.6311" fill="#C4C4C4"/>
<circle cx="2.6311" cy="176.284" r="2.6311" fill="#C4C4C4"/>
<circle cx="2.6311" cy="407.82" r="2.6311" fill="#C4C4C4"/>
<circle cx="2.6311" cy="31.5732" r="2.6311" fill="#C4C4C4"/>
<circle cx="2.6311" cy="263.11" r="2.6311" fill="#C4C4C4"/>
<circle cx="2.6311" cy="147.341" r="2.6311" fill="#C4C4C4"/>
<circle cx="2.6311" cy="378.878" r="2.6311" fill="#C4C4C4"/>
<circle cx="2.6311" cy="89.4574" r="2.6311" fill="#C4C4C4"/>
<circle cx="2.6311" cy="320.994" r="2.6311" fill="#C4C4C4"/>
<circle cx="2.6311" cy="205.226" r="2.6311" fill="#C4C4C4"/>
<circle cx="2.6311" cy="436.762" r="2.6311" fill="#C4C4C4"/>
<circle cx="60.5148" cy="2.6311" r="2.6311" fill="#C4C4C4"/>
<circle cx="60.5148" cy="234.168" r="2.6311" fill="#C4C4C4"/>
<circle cx="60.5148" cy="118.4" r="2.6311" fill="#C4C4C4"/>
<circle cx="60.5148" cy="349.936" r="2.6311" fill="#C4C4C4"/>
<circle cx="60.5148" cy="60.5151" r="2.6311" fill="#C4C4C4"/>
<circle cx="60.5148" cy="292.052" r="2.6311" fill="#C4C4C4"/>
<circle cx="60.5148" cy="176.284" r="2.6311" fill="#C4C4C4"/>
<circle cx="60.5148" cy="407.82" r="2.6311" fill="#C4C4C4"/>
<circle cx="60.5148" cy="31.5732" r="2.6311" fill="#C4C4C4"/>
<circle cx="60.5148" cy="263.11" r="2.6311" fill="#C4C4C4"/>
<circle cx="60.5148" cy="147.341" r="2.6311" fill="#C4C4C4"/>
<circle cx="60.5148" cy="378.878" r="2.6311" fill="#C4C4C4"/>
<circle cx="60.5148" cy="89.4574" r="2.6311" fill="#C4C4C4"/>
<circle cx="60.5148" cy="320.994" r="2.6311" fill="#C4C4C4"/>
<circle cx="60.5148" cy="205.226" r="2.6311" fill="#C4C4C4"/>
<circle cx="60.5148" cy="436.762" r="2.6311" fill="#C4C4C4"/>
<circle cx="31.574" cy="2.6311" r="2.6311" fill="#C4C4C4"/>
<circle cx="31.574" cy="234.168" r="2.6311" fill="#C4C4C4"/>
<circle cx="31.574" cy="118.4" r="2.6311" fill="#C4C4C4"/>
<circle cx="31.574" cy="349.936" r="2.6311" fill="#C4C4C4"/>
<circle cx="31.574" cy="60.5151" r="2.6311" fill="#C4C4C4"/>
<circle cx="31.574" cy="292.052" r="2.6311" fill="#C4C4C4"/>
<circle cx="31.574" cy="176.284" r="2.6311" fill="#C4C4C4"/>
<circle cx="31.574" cy="407.82" r="2.6311" fill="#C4C4C4"/>
<circle cx="31.574" cy="31.5732" r="2.6311" fill="#C4C4C4"/>
<circle cx="31.574" cy="263.11" r="2.6311" fill="#C4C4C4"/>
<circle cx="31.574" cy="147.341" r="2.6311" fill="#C4C4C4"/>
<circle cx="31.574" cy="378.878" r="2.6311" fill="#C4C4C4"/>
<circle cx="31.574" cy="89.4574" r="2.6311" fill="#C4C4C4"/>
<circle cx="31.574" cy="320.994" r="2.6311" fill="#C4C4C4"/>
<circle cx="31.574" cy="205.226" r="2.6311" fill="#C4C4C4"/>
<circle cx="31.574" cy="436.762" r="2.6311" fill="#C4C4C4"/>
<circle cx="89.4577" cy="2.6311" r="2.6311" fill="#C4C4C4"/>
<circle cx="89.4577" cy="234.168" r="2.6311" fill="#C4C4C4"/>
<circle cx="89.4577" cy="118.4" r="2.6311" fill="#C4C4C4"/>
<circle cx="89.4577" cy="349.936" r="2.6311" fill="#C4C4C4"/>
<circle cx="89.4577" cy="60.5151" r="2.6311" fill="#C4C4C4"/>
<circle cx="89.4577" cy="292.052" r="2.6311" fill="#C4C4C4"/>
<circle cx="89.4577" cy="176.284" r="2.6311" fill="#C4C4C4"/>
<circle cx="89.4577" cy="407.82" r="2.6311" fill="#C4C4C4"/>
<circle cx="89.4577" cy="31.5732" r="2.6311" fill="#C4C4C4"/>
<circle cx="89.4577" cy="263.11" r="2.6311" fill="#C4C4C4"/>
<circle cx="89.4577" cy="147.341" r="2.6311" fill="#C4C4C4"/>
<circle cx="89.4577" cy="378.878" r="2.6311" fill="#C4C4C4"/>
<circle cx="89.4577" cy="89.4574" r="2.6311" fill="#C4C4C4"/>
<circle cx="89.4577" cy="320.994" r="2.6311" fill="#C4C4C4"/>
<circle cx="89.4577" cy="205.226" r="2.6311" fill="#C4C4C4"/>
<circle cx="89.4577" cy="436.762" r="2.6311" fill="#C4C4C4"/>
<circle cx="118.4" cy="2.6311" r="2.6311" fill="#C4C4C4"/>
<circle cx="118.4" cy="234.168" r="2.6311" fill="#C4C4C4"/>
<circle cx="118.4" cy="118.4" r="2.6311" fill="#C4C4C4"/>
<circle cx="118.4" cy="349.936" r="2.6311" fill="#C4C4C4"/>
<circle cx="118.4" cy="60.5151" r="2.6311" fill="#C4C4C4"/>
<circle cx="118.4" cy="292.052" r="2.6311" fill="#C4C4C4"/>
<circle cx="118.4" cy="176.284" r="2.6311" fill="#C4C4C4"/>
<circle cx="118.4" cy="407.82" r="2.6311" fill="#C4C4C4"/>
<circle cx="118.4" cy="31.5732" r="2.6311" fill="#C4C4C4"/>
<circle cx="118.4" cy="263.11" r="2.6311" fill="#C4C4C4"/>
<circle cx="118.4" cy="147.341" r="2.6311" fill="#C4C4C4"/>
<circle cx="118.4" cy="378.878" r="2.6311" fill="#C4C4C4"/>
<circle cx="118.4" cy="89.4574" r="2.6311" fill="#C4C4C4"/>
<circle cx="118.4" cy="320.994" r="2.6311" fill="#C4C4C4"/>
<circle cx="118.4" cy="205.226" r="2.6311" fill="#C4C4C4"/>
<circle cx="118.4" cy="436.762" r="2.6311" fill="#C4C4C4"/>
</svg>
