<svg width="160" height="169" viewBox="0 0 160 169" fill="none" xmlns="http://www.w3.org/2000/svg">
<path d="M15.662 71.1129C16.6661 70.0564 17.233 68.659 17.2485 67.2017C17.1674 66.5213 16.95 65.8642 16.6093 65.2697C16.2685 64.6751 15.8115 64.1553 15.2654 63.7412L14.2918 65.0028L13.12 64.1557C12.7222 64.7506 12.4665 65.429 12.3727 66.1384C12.2789 66.8479 12.3496 67.5693 12.5791 68.2471C12.8565 68.9184 13.2754 69.522 13.8075 70.0166C14.3395 70.5112 14.9721 70.8851 15.662 71.1129Z" fill="white"/>
<path d="M52.8831 52.8967C52.679 54.4246 53.0035 55.9763 53.8026 57.2945C54.251 57.8224 54.8016 58.2542 55.4212 58.564C56.0409 58.8737 56.7168 59.055 57.4083 59.0969C57.4083 58.3579 57.5345 57.5108 57.5345 57.5108H58.9768C58.9797 56.7954 58.8187 56.0888 58.5062 55.4452C58.1937 54.8016 57.738 54.2381 57.1739 53.7979C55.9085 52.9675 54.3759 52.6456 52.8831 52.8967Z" fill="white"/>
<path d="M57.4086 99.6762C57.4086 99.6762 56.9218 96.6663 55.3353 95.675C54.7625 95.296 54.1203 95.0341 53.4458 94.9041C52.7713 94.7742 52.0777 94.7789 51.405 94.9179L51.7115 96.468L50.3234 96.7924C50.508 97.4837 50.8497 98.1231 51.3218 98.6608C51.794 99.1985 52.3839 99.62 53.0456 99.8925C54.4753 100.372 56.0335 100.295 57.4086 99.6762Z" fill="white"/>
<path d="M46.9797 168.152C46.9797 168.152 46.4929 165.142 44.9064 164.151C44.3336 163.772 43.6914 163.51 43.0169 163.38C42.3424 163.25 41.6488 163.255 40.9761 163.394L41.2827 164.944L39.8945 165.268C40.0791 165.96 40.4208 166.599 40.893 167.137C41.3651 167.675 41.955 168.096 42.6168 168.369C44.0464 168.849 45.6046 168.771 46.9797 168.152Z" fill="white"/>
<path d="M153.635 159.298C153.635 159.298 153.148 156.288 151.562 155.297C150.989 154.918 150.347 154.656 149.672 154.526C148.998 154.396 148.304 154.4 147.632 154.54L147.938 156.09L146.55 156.414C146.735 157.105 147.076 157.745 147.548 158.282C148.021 158.82 148.611 159.242 149.272 159.514C150.702 159.994 152.26 159.917 153.635 159.298Z" fill="white"/>
<path d="M105.095 151.72C105.095 151.72 104.608 148.71 103.022 147.719C102.449 147.34 101.807 147.078 101.132 146.948C100.458 146.818 99.7641 146.823 99.0914 146.962L99.3979 148.512L98.0098 148.836C98.1944 149.528 98.5361 150.167 99.0083 150.705C99.4804 151.242 100.07 151.664 100.732 151.936C102.162 152.416 103.72 152.339 105.095 151.72Z" fill="white"/>
<path d="M104.64 87.5048C104.64 87.5048 107.29 89.0549 108.895 88.0816C110.159 87.4433 111.132 86.3477 111.617 85.0175L109.94 84.5309L110.427 83.1431C109.688 82.9829 108.922 82.9905 108.185 83.1652C107.449 83.3398 106.761 83.6771 106.172 84.1524C105.679 84.5579 105.284 85.0706 105.019 85.6515C104.753 86.2324 104.624 86.8663 104.64 87.5048Z" fill="white"/>
<path d="M152.49 109.852C152.49 109.852 155.14 111.402 156.745 110.429C158.009 109.79 158.982 108.695 159.467 107.365L157.79 106.878L158.277 105.49C157.537 105.33 156.771 105.338 156.035 105.512C155.299 105.687 154.611 106.024 154.022 106.5C153.529 106.905 153.134 107.418 152.869 107.999C152.603 108.58 152.474 109.213 152.49 109.852Z" fill="white"/>
<path d="M15.556 113.944C15.556 113.944 16.0428 110.898 14.5464 109.763C13.4928 108.821 12.1189 108.318 10.7063 108.357C10.7964 109.096 10.8686 110.159 10.8686 110.159H9.3902C9.51473 110.906 9.80221 111.616 10.2322 112.239C10.6622 112.862 11.2242 113.383 11.8782 113.764C12.4372 114.071 13.059 114.247 13.6963 114.279C14.3335 114.31 14.9695 114.196 15.556 113.944Z" fill="white"/>
</svg>
