<svg width="299" height="170" viewBox="0 0 299 170" fill="none" xmlns="http://www.w3.org/2000/svg">
<path d="M154.665 71.5074C155.669 70.4509 156.236 69.0535 156.251 67.5962C156.17 66.9158 155.953 66.2587 155.612 65.6642C155.271 65.0696 154.814 64.5498 154.268 64.1357L153.295 65.3974L152.123 64.5503C151.725 65.1452 151.469 65.8236 151.375 66.533C151.282 67.2424 151.352 67.9639 151.582 68.6416C151.859 69.313 152.278 69.9165 152.81 70.4111C153.342 70.9057 153.975 71.2796 154.665 71.5074V71.5074Z" fill="white"/>
<path d="M81.2317 50.1222C81.2317 50.1222 79.8975 47.6169 78.0406 47.3826C77.3642 47.263 76.6707 47.2812 76.0016 47.4361C75.3324 47.5909 74.7014 47.8793 74.1464 48.2838L75.0659 49.5815L73.9301 50.4467C74.3823 50.9987 74.9561 51.4389 75.6066 51.7328C76.2571 52.0267 76.9667 52.1663 77.68 52.1409C78.3842 52.0866 79.0677 51.8775 79.6816 51.5286C80.2956 51.1796 80.8249 50.6994 81.2317 50.1222V50.1222Z" fill="white"/>
<path d="M87.0509 71.9252C87.0509 71.9252 85.7168 69.4379 83.8598 69.1856C83.1822 69.0727 82.4889 69.0958 81.8203 69.2537C81.1517 69.4115 80.5212 69.7008 79.9657 70.1048L80.8851 71.3845L79.7493 72.2676C80.2016 72.8197 80.7753 73.2599 81.4258 73.5538C82.0763 73.8477 82.7859 73.9873 83.4993 73.9619C84.2049 73.9055 84.8894 73.6937 85.5034 73.3415C86.1175 72.9894 86.646 72.5057 87.0509 71.9252V71.9252Z" fill="white"/>
<path d="M82.1125 94.4662C82.1125 94.4662 80.7784 91.9789 78.9214 91.7266C78.245 91.6111 77.5524 91.6314 76.8838 91.7861C76.2153 91.9408 75.5841 92.2269 75.0272 92.6278L75.9467 93.9255L74.8109 94.7906C75.2632 95.3439 75.8365 95.786 76.4866 96.0829C77.1368 96.3797 77.8464 96.5234 78.5609 96.5028C79.2666 96.4465 79.9509 96.2346 80.565 95.8825C81.1791 95.5304 81.7076 95.0467 82.1125 94.4662Z" fill="white"/>
<path d="M36.4831 55.2653C36.4831 55.2653 35.1489 52.778 33.292 52.5257C32.6156 52.4061 31.9221 52.4243 31.253 52.5791C30.5838 52.734 29.9528 53.0223 29.3978 53.4269L30.3173 54.7246L29.1815 55.5897C29.6337 56.143 30.207 56.5851 30.8572 56.882C31.5073 57.1788 32.217 57.3225 32.9314 57.3019C33.6371 57.2456 34.3215 57.0337 34.9356 56.6816C35.5496 56.3295 36.0781 55.8458 36.4831 55.2653Z" fill="white"/>
<path d="M45.4636 21.6459C45.4636 21.6459 44.1295 19.1586 42.2726 18.9063C41.5961 18.7909 40.9034 18.811 40.2349 18.9658C39.5663 19.1205 38.9353 19.4066 38.3784 19.8075L39.2978 21.1052L38.162 21.9883C38.617 22.5373 39.1912 22.9752 39.8411 23.2688C40.4909 23.5624 41.1992 23.7039 41.912 23.6826C42.6176 23.6262 43.3021 23.4144 43.9161 23.0622C44.5302 22.7101 45.0587 22.2264 45.4636 21.6459Z" fill="white"/>
<path d="M12.6667 22.4985C11.3279 22.7084 10.1209 23.4246 9.2954 24.4992C8.93334 25.0789 8.69237 25.7258 8.58703 26.4011C8.48168 27.0764 8.51415 27.7659 8.68243 28.4283L10.2329 28.0859L10.5935 29.4737C11.2784 29.2763 11.9083 28.923 12.4338 28.4414C12.9593 27.9598 13.3661 27.3631 13.6223 26.6981C13.806 25.9724 13.8152 25.2135 13.6491 24.4836C13.483 23.7536 13.1464 23.0734 12.6667 22.4985V22.4985Z" fill="white"/>
<path d="M191.886 53.2913C191.682 54.8191 192.006 56.3708 192.805 57.689C193.254 58.2169 193.804 58.6488 194.424 58.9585C195.044 59.2682 195.72 59.4495 196.411 59.4914C196.411 58.7524 196.537 57.9053 196.537 57.9053H197.98C197.983 57.1899 197.822 56.4833 197.509 55.8397C197.197 55.1962 196.741 54.6327 196.177 54.1924C194.911 53.362 193.379 53.0401 191.886 53.2913Z" fill="white"/>
<path d="M196.411 100.071C196.411 100.071 195.924 97.0608 194.338 96.0695C193.765 95.6905 193.123 95.4286 192.448 95.2987C191.774 95.1688 191.08 95.1734 190.408 95.3125L190.714 96.8625L189.326 97.1869C189.511 97.8782 189.852 98.5176 190.324 99.0553C190.797 99.593 191.386 100.014 192.048 100.287C193.478 100.767 195.036 100.69 196.411 100.071V100.071Z" fill="white"/>
<path d="M185.982 168.547C185.982 168.547 185.495 165.537 183.909 164.546C183.336 164.167 182.694 163.905 182.019 163.775C181.345 163.645 180.651 163.649 179.979 163.789L180.285 165.339L178.897 165.663C179.082 166.354 179.423 166.994 179.895 167.531C180.368 168.069 180.958 168.491 181.619 168.763C183.049 169.243 184.607 169.166 185.982 168.547V168.547Z" fill="white"/>
<path d="M292.638 159.693C292.638 159.693 292.152 156.683 290.565 155.692C289.992 155.313 289.35 155.051 288.676 154.921C288.001 154.791 287.307 154.795 286.635 154.935L286.941 156.485L285.553 156.809C285.738 157.5 286.079 158.14 286.552 158.677C287.024 159.215 287.614 159.637 288.275 159.909C289.705 160.389 291.263 160.312 292.638 159.693V159.693Z" fill="white"/>
<path d="M244.097 152.115C244.097 152.115 243.61 149.105 242.024 148.113C241.451 147.734 240.809 147.473 240.134 147.343C239.46 147.213 238.766 147.217 238.094 147.356L238.4 148.906L237.012 149.231C237.196 149.922 237.538 150.562 238.01 151.099C238.482 151.637 239.072 152.058 239.734 152.331C241.164 152.811 242.722 152.734 244.097 152.115V152.115Z" fill="white"/>
<path d="M0.785964 0.761825C0.582049 2.29543 0.906333 3.85277 1.70544 5.17763C2.15591 5.70321 2.70696 6.13341 3.32619 6.44294C3.94541 6.75247 4.62031 6.93506 5.31116 6.98C5.31116 6.24103 5.43737 5.39391 5.43737 5.39391H6.86159C6.87002 4.6776 6.71148 3.96917 6.39855 3.32472C6.08563 2.68028 5.62692 2.11753 5.05873 1.68105C3.80059 0.84883 2.27516 0.520644 0.785964 0.761825V0.761825Z" fill="white"/>
<path d="M107.476 62.9269C107.476 62.9269 110.144 64.4769 111.748 63.5036C113.005 62.8603 113.971 61.7657 114.453 60.4397C113.75 60.2594 112.794 59.971 112.794 59.971L113.281 58.5652C112.538 58.4112 111.771 58.4218 111.033 58.5961C110.294 58.7705 109.603 59.1045 109.008 59.5745C108.515 59.98 108.12 60.4927 107.854 61.0736C107.589 61.6545 107.459 62.2884 107.476 62.9269Z" fill="white"/>
<path d="M44.1806 72.55C44.1806 72.55 46.8308 74.1 48.4353 73.1267C49.6906 72.4771 50.6605 71.3855 51.1577 70.0628L49.481 69.5761L49.9678 68.1883C49.2253 68.0293 48.4567 68.0373 47.7177 68.2119C46.9787 68.3865 46.2878 68.7231 45.695 69.1976C45.2057 69.6058 44.8153 70.1194 44.553 70.7C44.2907 71.2807 44.1634 71.9132 44.1806 72.55V72.55Z" fill="white"/>
<path d="M243.643 87.8998C243.643 87.8998 246.293 89.4499 247.898 88.4766C249.162 87.8383 250.135 86.7427 250.62 85.4126L248.944 84.9259L249.43 83.5381C248.691 83.378 247.925 83.3855 247.188 83.5602C246.452 83.7348 245.764 84.0722 245.176 84.5474C244.682 84.9529 244.287 85.4656 244.022 86.0465C243.756 86.6275 243.627 87.2613 243.643 87.8998V87.8998Z" fill="white"/>
<path d="M291.493 110.247C291.493 110.247 294.143 111.797 295.748 110.824C297.012 110.185 297.985 109.09 298.47 107.76L296.793 107.273L297.28 105.885C296.541 105.725 295.774 105.733 295.038 105.907C294.302 106.082 293.614 106.419 293.025 106.895C292.532 107.3 292.137 107.813 291.872 108.394C291.606 108.975 291.477 109.608 291.493 110.247V110.247Z" fill="white"/>
<path d="M40.8966 42.8127C40.8966 42.8127 43.5648 44.3807 45.1694 43.4074C46.4255 42.7641 47.3916 41.6695 47.8737 40.3434L46.215 39.8568L46.7018 38.4509C45.9591 38.2969 45.1917 38.3075 44.4535 38.4819C43.7153 38.6563 43.0243 38.9902 42.4291 39.4602C41.9365 39.8666 41.5426 40.3795 41.2771 40.9602C41.0117 41.541 40.8816 42.1744 40.8966 42.8127Z" fill="white"/>
<path d="M115.901 136.837C115.901 136.837 118.551 138.387 120.156 137.414C121.42 136.775 122.393 135.68 122.878 134.349L121.201 133.881L121.688 132.475C120.948 132.321 120.184 132.332 119.448 132.506C118.713 132.681 118.025 133.015 117.433 133.484C116.94 133.89 116.545 134.403 116.28 134.983C116.014 135.564 115.885 136.198 115.901 136.837V136.837Z" fill="white"/>
<path d="M154.559 114.339C154.559 114.339 155.046 111.293 153.55 110.158C152.496 109.216 151.122 108.713 149.71 108.752C149.8 109.491 149.872 110.554 149.872 110.554H148.394C148.518 111.301 148.806 112.011 149.236 112.634C149.666 113.257 150.228 113.778 150.882 114.159C151.441 114.466 152.062 114.642 152.7 114.674C153.337 114.705 153.973 114.591 154.559 114.339V114.339Z" fill="white"/>
</svg>
