<svg width="24" height="24" viewBox="0 0 24 24" fill="none" xmlns="http://www.w3.org/2000/svg">
<g clip-path="url(#clip0_2_27010)">
<path d="M21.8528 8.38434L23.2638 7.86638C23.0792 7.36449 22.8612 6.87552 22.6113 6.40271L21.2814 7.10485C21.5 7.51822 21.6909 7.94565 21.8528 8.38434Z" fill="white"/>
<path d="M21.77 5.03981C21.4593 4.60501 21.1203 4.19111 20.7552 3.8009L19.6576 4.82781C19.9774 5.16967 20.2742 5.53235 20.5462 5.91335L21.77 5.03981Z" fill="white"/>
<path d="M23.715 9.40074V9.4045L22.2468 9.73001C23.5102 15.4062 19.933 21.0319 14.2568 22.2953C8.58066 23.5588 2.95494 19.9816 1.69151 14.3053C0.428035 8.62915 4.00529 3.00348 9.68147 1.74C12.8338 1.03833 16.1337 1.82208 18.6338 3.86622L19.5863 2.70249C14.4514 -1.48712 6.89244 -0.720891 2.70282 4.41397C-1.4868 9.54883 -0.72061 17.1078 4.41421 21.2975C9.54902 25.4871 17.1081 24.7209 21.2977 19.586C23.62 16.7399 24.5107 12.9869 23.715 9.40074Z" fill="white"/>
<path d="M6.72809 12.5303L11.9716 20.1043L17.2152 12.5303L11.9716 3.79028L6.72809 12.5303ZM11.9716 17.4626L9.76521 14.2728L11.9716 15.2569L14.178 14.2728L11.9716 17.4626ZM11.9716 13.6113L8.70372 12.1589L11.9716 6.71313L15.2395 12.1589L11.9716 13.6113Z" fill="white"/>
</g>
<defs>
<clipPath id="clip0_2_27010">
<rect width="24" height="24" fill="white"/>
</clipPath>
</defs>
</svg>
