<svg width="17" height="33" viewBox="0 0 17 33" fill="none" xmlns="http://www.w3.org/2000/svg">
<path fill-rule="evenodd" clip-rule="evenodd" d="M16.875 5.6875C16.875 6.00244 16.7499 6.30449 16.5272 6.52719C16.3045 6.74989 16.0024 6.875 15.6875 6.875H12.125C11.8101 6.875 11.508 7.00011 11.2853 7.22281C11.0626 7.44551 10.9375 7.74756 10.9375 8.0625V12.8125H15.4263C15.6019 12.8125 15.7754 12.8515 15.9342 12.9266C16.093 13.0018 16.2332 13.1112 16.3445 13.2471C16.4559 13.3829 16.5358 13.5418 16.5784 13.7123C16.6209 13.8827 16.6251 14.0605 16.5907 14.2327C16.3703 15.3353 16.0708 16.8328 15.8782 17.7952C15.8244 18.0645 15.679 18.3067 15.4667 18.4808C15.2544 18.6549 14.9883 18.75 14.7138 18.75H10.9375V33H5V18.75H1.4375C1.12256 18.75 0.82051 18.6249 0.597811 18.4022C0.375111 18.1795 0.25 17.8774 0.25 17.5625V14C0.25 13.6851 0.375111 13.383 0.597811 13.1603C0.82051 12.9376 1.12256 12.8125 1.4375 12.8125H5V8.0625C5 6.17283 5.75067 4.36056 7.08686 3.02436C8.42306 1.68817 10.2353 0.9375 12.125 0.9375H15.6875C16.0024 0.9375 16.3045 1.06261 16.5272 1.28531C16.7499 1.50801 16.875 1.81006 16.875 2.125V5.6875Z" fill="white"/>
</svg>
