<svg width="1920" height="154" viewBox="0 0 1920 154" fill="none" xmlns="http://www.w3.org/2000/svg">
<path fill-rule="evenodd" clip-rule="evenodd" d="M1543.04 105.936C1543.28 106.269 1543.46 106.65 1543.54 107.055C1543.59 107.269 1543.61 107.486 1543.61 107.703C1543.6 107.898 1543.58 108.093 1543.54 108.284C1544.71 122.134 1518.39 127.701 1508.08 126.929C1492.91 125.823 1481.96 118.009 1473.33 105.836C1473.79 106.473 1465.45 112.845 1464.85 113.213C1452.93 120.988 1435.19 120.343 1427.14 108C1425.9 109.019 1424.44 110.054 1423.67 110.603C1423.49 110.732 1423.34 110.835 1423.25 110.904C1423.15 110.979 1423.1 111.014 1423.13 111C1419.78 112.55 1416.17 113.449 1412.48 113.649C1399.68 114.387 1390.44 101.107 1394.22 91.617C1397.04 84.5745 1405.48 81.1539 1412.92 81.5564C1408.37 80.0728 1403.44 80.263 1399.01 82.0931C1396.81 82.7561 1394.78 83.8794 1393.05 85.3885C1391.32 86.8973 1389.92 88.7574 1388.96 90.8455C1386.48 96.815 1389.4 101.242 1392.65 105.936C1392.79 106.12 1392.9 106.32 1392.99 106.53C1393.06 106.699 1393.12 106.875 1393.16 107.055C1393.2 107.246 1393.22 107.44 1393.22 107.635C1393.22 107.789 1393.21 107.943 1393.19 108.095L1393.18 108.16C1393.17 108.201 1393.16 108.242 1393.15 108.284C1394.32 122.134 1367.89 127.701 1357.54 126.929C1342.3 125.823 1331.31 118.009 1322.63 105.836C1323.1 106.473 1314.73 112.845 1314.13 113.213C1304.46 119.487 1290.99 120.279 1281.91 113.865C1279.63 113.207 1277.45 112.211 1275.45 110.9C1275.01 110.543 1274.25 109.445 1273.46 108.309C1272.7 107.204 1271.91 106.063 1271.36 105.534C1271.36 106.553 1267.19 109.521 1265.67 110.603L1265.65 110.613C1265.28 110.878 1265.07 111.027 1265.13 111C1261.78 112.55 1258.17 113.449 1254.48 113.649C1241.68 114.387 1232.44 101.107 1236.22 91.617C1239.04 84.5745 1247.48 81.1539 1254.92 81.5564C1250.37 80.0728 1245.44 80.263 1241.01 82.0931C1238.81 82.7561 1236.78 83.8794 1235.05 85.3885C1234.75 85.6514 1234.46 85.9251 1234.17 86.2088C1234.24 86.305 1234.31 86.4041 1234.37 86.5057C1234.81 87.2552 1235.03 88.1177 1235 88.9895C1234.89 89.8428 1234.29 89.96 1233.47 90.1219C1232.7 90.2745 1231.72 90.4666 1230.76 91.3543C1228.65 97.0686 1231.49 101.376 1234.65 105.936C1234.9 106.269 1235.07 106.65 1235.16 107.055C1235.24 107.46 1235.24 107.879 1235.15 108.284C1236.14 119.957 1217.52 125.746 1205.44 126.816C1203.16 127.496 1200.78 127.831 1198.37 127.8C1193.86 127.74 1189.45 126.387 1185.66 123.9C1185.56 123.814 1185.44 123.687 1185.3 123.526C1183.39 122.7 1181.56 121.737 1179.81 120.646C1178.49 121.772 1176.78 122.99 1175.93 123.603C1175.54 123.874 1175.33 124.027 1175.39 124C1172.05 125.55 1168.45 126.449 1164.78 126.649C1157.27 127.084 1150.99 122.65 1147.87 116.992C1146.69 117.34 1145.49 117.621 1144.28 117.833C1144.53 118.2 1144.78 118.567 1145.04 118.936C1145.28 119.269 1145.46 119.65 1145.54 120.055C1145.56 120.153 1145.58 120.251 1145.59 120.35C1145.6 120.462 1145.61 120.575 1145.61 120.687C1145.6 120.887 1145.58 121.087 1145.54 121.284C1146.71 135.134 1120.39 140.701 1110.08 139.929C1094.91 138.823 1083.96 131.009 1075.33 118.836C1075.79 119.473 1067.45 125.845 1066.85 126.213C1057.46 132.337 1044.46 133.238 1035.43 127.313C1026.36 133.238 1013.3 132.337 1003.87 126.213C1003.27 125.845 994.921 119.492 995.363 118.839C995.04 119.292 994.714 119.739 994.385 120.179L994.209 120.414C994.215 120.485 994.219 120.557 994.219 120.629C994.222 120.848 994.199 121.068 994.151 121.284C995.289 134.724 970.431 140.365 959.5 139.981C948.569 140.365 923.711 134.724 924.849 121.284C924.785 120.998 924.766 120.704 924.791 120.414C924.402 119.897 924.017 119.372 923.637 118.839C924.079 119.492 915.728 125.845 915.126 126.213C904.897 132.856 890.398 133.353 881.353 125.659C878.358 127.022 875.101 127.756 871.784 127.8C869.451 127.83 867.138 127.518 864.917 126.883C852.836 126.015 833.22 120.232 834.236 108.284C834.146 107.879 834.145 107.46 834.232 107.055C834.319 106.65 834.492 106.269 834.741 105.936C837.791 101.548 840.547 97.3948 838.862 91.9966C837.202 96.3199 834.86 100.338 831.934 103.898C829.681 108.002 825.753 111.477 820.889 112.939C817.89 114.204 814.653 114.843 811.375 114.8C806.855 114.74 802.447 113.387 798.665 110.9C798.225 110.543 797.468 109.445 796.685 108.309C796.532 108.086 796.377 107.862 796.224 107.641C796.069 107.862 795.914 108.086 795.759 108.309C794.969 109.445 794.206 110.543 793.762 110.9C789.948 113.387 785.501 114.74 780.943 114.8C776.96 114.851 773.036 113.914 769.521 112.084C766.69 110.781 764.273 108.772 762.45 106.399C758.715 102.552 755.737 98.0423 753.666 93.1082C752.664 97.9751 755.225 101.854 758.038 105.936C758.284 106.269 758.456 106.65 758.543 107.055C758.629 107.46 758.628 107.879 758.538 108.284C759.552 120.306 739.857 126.087 727.899 126.899C725.685 127.523 723.381 127.83 721.057 127.8C716.499 127.74 712.052 126.387 708.238 123.9C707.998 123.707 707.665 123.297 707.285 122.783C705.733 122.027 704.237 121.177 702.795 120.239C701.432 121.465 699.385 122.915 698.414 123.603C698.03 123.874 697.814 124.027 697.875 124C694.509 125.55 690.879 126.449 687.176 126.649C679.763 127.075 673.536 122.836 670.323 117.351C669.11 117.655 667.881 117.889 666.646 118.05C666.849 118.345 667.053 118.64 667.259 118.936C667.508 119.269 667.681 119.65 667.768 120.055C667.855 120.46 667.854 120.879 667.764 121.284C668.941 135.134 642.396 140.701 632 139.929C616.692 138.823 605.657 131.009 596.943 118.836C597.414 119.473 589.004 125.845 588.398 126.213C576.594 133.846 559.126 133.364 550.815 121.666C549.798 122.446 548.773 123.169 548.164 123.598L548.158 123.603C547.773 123.874 547.556 124.027 547.617 124C544.237 125.55 540.591 126.449 536.872 126.649C523.965 127.387 514.64 114.107 518.458 104.617C521.296 97.5745 529.811 94.1539 537.312 94.5564C532.722 93.0728 527.75 93.263 523.29 95.0931C521.072 95.7561 519.021 96.8794 517.274 98.3885C515.526 99.8973 514.122 101.757 513.153 103.846C510.653 109.815 513.592 114.242 516.87 118.936C517.119 119.269 517.294 119.65 517.381 120.055C517.468 120.46 517.467 120.879 517.377 121.284C518.559 135.134 491.9 140.701 481.46 139.929C466.086 138.823 455.003 131.009 446.252 118.836C446.725 119.473 438.278 125.845 437.67 126.213C427.777 132.583 413.922 133.301 404.756 126.565C402.819 125.919 400.964 125.025 399.238 123.9C398.794 123.543 398.031 122.445 397.241 121.309C396.473 120.204 395.68 119.063 395.133 118.534C395.133 119.553 390.942 122.521 389.414 123.603L389.104 123.822L388.97 123.919C388.916 123.959 388.882 123.985 388.87 123.997C388.862 124.004 388.864 124.005 388.875 124C385.509 125.55 381.879 126.449 378.176 126.649C365.324 127.387 356.039 114.107 359.84 104.617C362.667 97.5745 371.145 94.1539 378.614 94.5564C374.044 93.0728 369.093 93.263 364.652 95.0931C362.443 95.7561 360.402 96.8794 358.662 98.3885C358.204 98.7857 357.769 99.2071 357.36 99.6507L357.364 99.6565C357.809 100.418 358.029 101.294 357.997 102.18C357.886 103.047 357.289 103.166 356.465 103.33C355.888 103.445 355.199 103.582 354.489 104.014C352.124 109.899 355.027 114.286 358.259 118.936C358.508 119.269 358.681 119.65 358.768 120.055C358.855 120.46 358.854 120.879 358.764 121.284C359.7 132.289 343.131 138.064 331.07 139.585C327.975 140.957 324.617 141.651 321.216 141.606C316.677 141.545 312.249 140.171 308.451 137.644C308.102 137.357 307.555 136.601 306.953 135.727C305.689 135.113 304.462 134.436 303.27 133.701C301.925 134.991 299.693 136.603 298.668 137.344C298.287 137.619 298.073 137.773 298.133 137.746C294.782 139.321 291.167 140.234 287.48 140.438C279.763 140.89 273.336 136.162 270.281 130.223C269.055 130.548 267.811 130.803 266.561 130.983C266.914 131.521 267.279 132.06 267.649 132.602C267.896 132.939 268.069 133.327 268.156 133.739C268.242 134.15 268.241 134.576 268.151 134.987C269.324 149.057 242.893 154.712 232.541 153.928C217.299 152.804 206.311 144.866 197.635 132.5C198.104 133.147 189.729 139.62 189.126 139.995C177.432 147.71 160.155 147.263 151.83 135.553C150.892 136.279 149.974 136.939 149.414 137.342L149.412 137.344L149.409 137.346L149.128 137.548L148.988 137.651C148.886 137.726 148.844 137.76 148.875 137.746C145.509 139.321 141.879 140.234 138.176 140.438C125.324 141.187 116.039 127.696 119.84 118.055C122.667 110.901 131.145 107.426 138.614 107.835C134.044 106.328 129.093 106.521 124.652 108.38C122.443 109.054 120.402 110.195 118.662 111.728C116.922 113.261 115.523 115.15 114.558 117.272C112.069 123.336 114.996 127.833 118.259 132.602C118.508 132.939 118.681 133.327 118.768 133.739C118.855 134.15 118.854 134.576 118.764 134.987C119.941 149.057 93.3964 154.712 83.0004 153.928C67.6924 152.804 56.6572 144.866 47.9435 132.5C48.4145 133.147 40.0035 139.62 39.3979 139.995C26.2768 148.614 6.15777 147.047 -0.604652 130.967L-3.12794 131.273C-7.07138 131.777 -11.0756 131.417 -14.8697 130.217C-20.9592 128.071 -27.5534 117.442 -21.7667 111.923C-21.384 111.542 -20.881 111.309 -20.3459 111.266C-19.8108 111.222 -19.2776 111.37 -18.8396 111.685C-18.4014 111.529 -17.936 111.466 -17.4727 111.502C-17.0095 111.537 -16.5585 111.669 -16.1482 111.889C-7.37483 116.678 -1.65987 109.467 3.73054 102.665C6.00911 99.7896 8.22969 96.9876 10.5988 95.1961C13.9503 92.6412 17.9088 91.0279 22.0738 90.5193C26.2387 90.011 30.4625 90.6253 34.3177 92.3003C46.665 98.0918 41.4165 112.025 31.1551 114.989C30.3813 115.194 33.5439 117.885 34.5195 117.851C37.2111 117.851 40.8783 114.24 42.5605 112.264C44.9008 109.671 46.362 106.388 46.7311 102.895C47.1003 99.4024 46.3581 95.8814 44.6127 92.8455C43.5834 90.9998 41.6795 89.514 39.3538 87.6998L39.3523 87.6983L39.3509 87.6976L39.3497 87.6968L39.3487 87.6961C38.0267 86.6651 36.5688 85.5279 35.0579 84.1582C30.886 80.3768 49.0537 68.2828 49.0537 68.7937C52.4181 84.4649 64.1935 102.384 82.6976 98.9434C95.2805 96.5928 103.725 83.034 103.389 77.992C103.893 71.1785 101.572 68.4874 97.4337 69.7818C100.63 85.2144 86.6676 100.102 70.5186 93.629C51.2406 85.8958 48.3472 60.6517 58.474 44.3336C63.5465 35.9324 71.6177 29.8306 81.0138 27.2935C90.4099 24.7564 100.41 25.9786 108.94 30.7066C120.412 36.7706 135.855 54.3152 135.653 69.9522C143.088 66.1707 155.839 70.3951 162.064 75.471C167.198 79.6582 169.035 84.8186 171.07 90.5323L171.104 90.6272C171.241 90.6058 171.379 90.5853 171.517 90.5662L171.69 90.5428L171.876 90.5193C176.023 90.011 180.229 90.6253 184.067 92.3003C187.605 93.9668 189.692 96.3077 190.627 98.8672C191.764 98.3055 192.951 97.7749 194.194 97.3423C194.775 97.1407 195.364 96.9722 195.958 96.837C195.588 95.4473 195.039 94.1048 194.318 92.8455C193.293 90.9986 191.395 89.512 189.077 87.6961C187.761 86.6651 186.309 85.5279 184.804 84.1582C180.65 80.3768 198.74 68.2828 198.74 68.7937C201.26 80.5821 208.519 93.6426 219.804 97.9263C220.288 97.9192 220.763 98.0652 221.16 98.3457C221.599 98.1924 222.064 98.1309 222.527 98.1656C222.99 98.2002 223.441 98.3301 223.852 98.5472C224.359 98.8196 224.856 99.0528 225.343 99.2486C227.524 99.4786 229.824 99.3946 232.24 98.9434C233.293 98.7459 234.317 98.4688 235.309 98.1246C238.404 96.0835 241.106 92.7276 243.731 89.4671C246.009 86.6368 248.23 83.8785 250.599 82.1148C251.174 81.6829 251.768 81.2784 252.377 80.9021C252.733 79.7745 252.894 78.7793 252.842 77.992C253.344 71.1785 251.033 68.4874 246.913 69.7818C250.095 85.2144 236.193 100.102 220.113 93.629C200.918 85.8958 198.037 60.6517 208.12 44.3336C213.171 35.9324 221.207 29.8306 230.563 27.2935C239.919 24.7564 249.876 25.9786 258.369 30.7066C267.388 35.494 278.87 47.4368 283.206 59.9473C286.314 57.6058 289.054 55.9298 289.054 56.1251C289.956 60.2611 291.462 64.556 293.541 68.5623C294.703 68.6468 295.885 68.8143 297.068 69.0516C290.71 58.1678 291.539 43.0472 298.474 32.0469C303.547 23.7772 311.618 17.7708 321.014 15.2733C330.41 12.7757 340.41 13.9788 348.94 18.6329C360.412 24.6021 375.855 41.8729 375.653 57.2654C383.088 53.543 395.839 57.7012 402.064 62.6981C407.198 66.8199 409.035 71.8997 411.07 77.524L411.076 77.5408C411.377 78.3721 411.682 79.2149 412.002 80.0682C414.57 78.7286 417.371 77.8584 420.272 77.5113C424.454 77.0108 428.696 77.6155 432.568 79.2645C435.004 80.3843 436.758 81.8138 437.926 83.4097C440.184 83.1783 442.473 83.4041 444.652 84.0809C444.281 82.5882 443.696 81.1463 442.907 79.8011C441.873 77.983 439.959 76.5196 437.621 74.732C436.293 73.7171 434.829 72.5977 433.311 71.2496C429.122 67.5271 447.367 55.6221 447.367 56.1251C450.746 71.5513 462.572 89.1907 481.156 85.8038C493.792 83.4898 502.273 70.1429 501.935 65.1797C502.442 58.4727 500.111 55.8233 495.955 57.0977C499.165 72.2891 485.143 86.9439 468.924 80.5723C449.564 72.9598 446.658 48.1104 456.828 32.0469C461.922 23.7772 470.028 17.7708 479.465 15.2733C488.901 12.7757 498.944 13.9788 507.51 18.6329C519.032 24.6021 534.541 41.8729 534.338 57.2654C541.806 53.543 554.611 57.7012 560.862 62.6981C566.018 66.8199 567.864 71.8995 569.907 77.5237L569.961 77.6717C570.33 77.6097 570.701 77.556 571.074 77.5113C575.239 77.0108 579.462 77.6155 583.318 79.2645C586.802 80.8733 588.886 83.1209 589.85 85.5838C590.9 85.0848 591.992 84.616 593.13 84.2276C593.824 83.9917 594.528 83.8018 595.239 83.6582C594.869 82.316 594.324 81.0188 593.613 79.8011C592.583 77.983 590.677 76.5196 588.349 74.732C587.027 73.7171 585.569 72.5977 584.058 71.2496C579.886 67.5271 598.054 55.6221 598.054 56.1251C600.642 67.9942 608.21 81.1736 619.991 85.0777C620.039 85.0594 620.087 85.0425 620.135 85.0274C620.19 85.0108 620.245 84.9959 620.3 84.9832C620.359 84.9698 620.419 84.9585 620.479 84.9498C620.527 84.9427 620.575 84.9373 620.623 84.9334C621.153 84.8904 621.682 85.0364 622.116 85.3457C622.265 85.2933 622.416 85.2515 622.57 85.2207C622.866 85.1617 623.169 85.1429 623.471 85.1656C623.93 85.2002 624.378 85.3301 624.784 85.5472C625.25 85.7996 625.707 86.0184 626.156 86.2049C627.93 86.2803 629.777 86.1553 631.698 85.8038C634.019 85.377 636.199 84.5745 638.209 83.5188C640.444 81.5396 642.491 78.9751 644.493 76.4671C646.752 73.6368 648.953 70.8785 651.302 69.1148C651.41 69.0332 651.518 68.9527 651.627 68.8731C652.189 67.4209 652.454 66.1426 652.389 65.1797C652.893 58.4727 650.572 55.8233 646.434 57.0977C649.63 72.2891 635.668 86.9439 619.519 80.5723C600.241 72.9598 597.347 48.1104 607.474 32.0469C612.547 23.7772 620.618 17.7708 630.014 15.2733C639.41 12.7757 649.41 13.9788 657.94 18.6329C667.017 23.356 678.58 35.1541 682.912 47.4991C686.276 44.8748 689.427 42.9146 689.427 43.1251C690.351 47.4014 691.917 51.8477 694.087 55.9691C695.274 56.0909 696.477 56.293 697.675 56.5623C691.044 45.6448 691.783 30.2203 698.766 19.0469C703.795 10.7772 711.797 4.77081 721.112 2.27325C730.428 -0.224308 740.342 0.978817 748.799 5.63287C760.173 11.6021 775.483 28.8729 775.283 44.2654C780.93 41.4139 789.67 43.1871 796.224 46.4193C802.835 43.1871 811.651 41.4139 817.347 44.2654C817.145 28.8729 832.588 11.6021 844.06 5.63287C852.59 0.978817 862.59 -0.224308 871.986 2.27325C881.382 4.77081 889.453 10.7772 894.526 19.0469C901.54 30.1732 902.308 45.5142 895.711 56.4234C896.906 56.1788 898.101 56.0035 899.276 55.911C901.449 51.806 903.018 47.3814 903.946 43.1251C903.946 42.9271 906.765 44.6539 909.926 47.0474C914.36 34.8673 925.703 23.2982 934.631 18.6329C942.241 14.4629 951.025 13.0633 959.5 14.6136C967.975 13.0633 976.759 14.4629 984.369 18.6329C995.793 24.6021 1011.17 41.8729 1010.97 57.2654C1018.37 53.543 1031.07 57.7012 1037.27 62.6981C1042.38 66.8199 1044.21 71.8999 1046.23 77.5242L1046.45 78.1336C1047.51 77.8521 1048.59 77.6436 1049.68 77.5113C1053.81 77.0108 1057.99 77.6155 1061.82 79.2645C1064.87 80.6861 1066.84 82.6065 1067.91 84.7334C1068.35 84.554 1068.8 84.3843 1069.26 84.2276C1070.66 83.7476 1072.1 83.4593 1073.55 83.3604C1073.19 82.1241 1072.68 80.9285 1072.02 79.8011C1071 77.983 1069.11 76.5196 1066.8 74.732C1065.49 73.7171 1064.05 72.5977 1062.55 71.2496C1058.41 67.5271 1076.43 55.6221 1076.43 56.1251C1079.02 68.1404 1086.68 81.4986 1098.61 85.2178C1098.9 85.1609 1099.2 85.1431 1099.5 85.1656C1099.74 85.1839 1099.99 85.2293 1100.22 85.3003C1100.43 85.3628 1100.63 85.4454 1100.82 85.5472C1101.07 85.6807 1101.31 85.805 1101.55 85.9197C1104.12 86.3494 1106.87 86.3416 1109.78 85.8038C1109.88 85.7864 1109.97 85.7686 1110.06 85.7498L1110.23 85.7161L1110.41 85.6773C1110.95 85.5591 1111.49 85.4205 1112.01 85.2625C1115.18 83.2371 1117.94 79.802 1120.61 76.4671C1122.88 73.6368 1125.09 70.8785 1127.45 69.1148C1128.27 68.4974 1129.13 67.9358 1130.01 67.4324C1130.24 66.573 1130.34 65.8091 1130.3 65.1797C1130.8 58.4727 1128.49 55.8233 1124.39 57.0977C1127.56 72.2891 1113.72 86.9439 1097.71 80.5723C1078.59 72.9598 1075.73 48.1104 1085.77 32.0469C1090.8 23.7772 1098.8 17.7708 1108.11 15.2733C1117.43 12.7757 1127.34 13.9788 1135.8 18.6329C1144.6 23.2523 1155.76 34.6395 1160.26 46.6868C1163.21 44.4827 1165.74 42.9371 1165.74 43.1251C1166.66 47.3668 1168.22 51.7757 1170.37 55.869C1171.52 55.9305 1172.69 56.0748 1173.86 56.2891C1167.38 45.3887 1168.16 30.1275 1175.12 19.0469C1180.17 10.7772 1188.21 4.77081 1197.56 2.27325C1206.92 -0.224308 1216.88 0.978817 1225.37 5.63287C1236.79 11.6021 1252.17 28.8729 1251.97 44.2654C1259.37 40.543 1272.07 44.7012 1278.27 49.6981C1283.38 53.8199 1285.21 58.8999 1287.23 64.5242L1287.24 64.5411C1287.57 65.4471 1287.9 66.3672 1288.25 67.2999C1290.91 65.8287 1293.84 64.878 1296.88 64.5113C1301.02 64.0108 1305.23 64.6155 1309.07 66.2645C1311.47 67.3763 1313.2 68.793 1314.35 70.375C1316.62 70.1939 1318.91 70.4756 1321.08 71.2144C1320.71 69.6741 1320.12 68.1863 1319.32 66.8011C1318.29 64.983 1316.39 63.5196 1314.08 61.732C1312.76 60.7171 1311.31 59.5977 1309.8 58.2496C1305.65 54.5272 1323.74 42.6221 1323.74 43.1251C1327.09 58.5513 1338.81 76.1907 1357.24 72.8038C1369.77 70.4898 1378.18 57.1429 1377.84 52.1798C1378.34 45.4727 1376.03 42.8233 1371.91 44.0977C1375.09 59.2891 1361.19 73.9439 1345.11 67.5723C1325.92 59.9598 1323.04 35.1104 1333.12 19.0469C1338.17 10.7772 1346.21 4.77081 1355.56 2.27325C1364.92 -0.224308 1374.88 0.978817 1383.37 5.63287C1394.79 11.6021 1410.17 28.8729 1409.97 44.2654C1417.37 40.543 1430.07 44.7012 1436.27 49.6981C1441.38 53.8199 1443.21 58.8999 1445.23 64.5242L1445.37 64.9085C1446.13 64.7383 1446.9 64.6055 1447.68 64.5113C1451.81 64.0108 1455.99 64.6155 1459.82 66.2645C1463.04 67.7645 1465.05 69.8191 1466.08 72.0862C1466.79 71.7747 1467.51 71.4837 1468.26 71.2276C1469.34 70.855 1470.46 70.5977 1471.58 70.4551C1471.21 69.1851 1470.69 67.9573 1470.02 66.8011C1469 64.983 1467.11 63.5196 1464.8 61.732C1463.94 61.0623 1463.02 60.3472 1462.06 59.5511C1461.82 59.3499 1461.57 59.1436 1461.33 58.9315C1461.07 58.7105 1460.81 58.4835 1460.55 58.2496C1456.41 54.5272 1474.43 42.6221 1474.43 43.1251C1477.1 55.5108 1485.16 69.3235 1497.72 72.534C1497.89 72.5069 1498.06 72.4927 1498.23 72.492C1498.28 72.4917 1498.32 72.4922 1498.36 72.4937C1498.41 72.4952 1498.45 72.4978 1498.5 72.5015C1498.96 72.5369 1499.41 72.6687 1499.82 72.8892C1499.88 72.9236 1499.94 72.9573 1500.01 72.9905C1502.44 73.3465 1505.04 73.3101 1507.78 72.8038C1509.58 72.4703 1511.29 71.9073 1512.91 71.1731C1515.31 69.1211 1517.48 66.3609 1519.61 63.6648C1521.88 60.7896 1524.09 57.9876 1526.45 56.1961C1526.68 56.0184 1526.92 55.8453 1527.16 55.6768C1527.36 55.5352 1527.56 55.3968 1527.76 55.2618C1528.17 54.0621 1528.35 53.0049 1528.3 52.1798C1528.8 45.4727 1526.49 42.8233 1522.39 44.0977C1525.56 59.2891 1511.72 73.9439 1495.71 67.5723C1476.59 59.9598 1473.73 35.1104 1483.77 19.0469C1488.8 10.7772 1496.8 4.77081 1506.11 2.27325C1515.43 -0.224308 1525.34 0.978817 1533.8 5.63287C1542.69 10.3016 1554.09 34.8844 1558.5 47.0741C1561.8 44.4909 1564.83 42.5851 1564.83 42.7944C1565.77 47.1772 1567.36 51.736 1569.57 55.954C1570.76 56.0702 1571.97 56.2692 1573.17 56.5375C1566.45 45.4416 1567.18 29.7165 1574.21 18.3342C1579.26 9.93303 1587.3 3.83122 1596.66 1.29412C1606.01 -1.24299 1615.97 -0.0208259 1624.46 4.7072C1635.89 10.7712 1651.26 28.3158 1651.06 43.9528C1656.73 41.0558 1665.51 42.8573 1672.09 46.1408C1678.68 42.8573 1687.45 41.0558 1693.13 43.9528C1692.93 28.3158 1708.3 10.7712 1719.72 4.7072C1728.22 -0.0208259 1738.18 -1.24299 1747.53 1.29412C1756.89 3.83122 1764.92 9.93303 1769.97 18.3342C1776.98 29.6764 1777.73 45.331 1771.08 56.4203C1772.27 56.1784 1773.47 56.0048 1774.64 55.9125C1776.84 51.706 1778.42 47.1628 1779.35 42.7944C1779.35 42.591 1782.22 44.3864 1785.41 46.8598C1789.91 34.7487 1801.23 23.2748 1810.15 18.6335C1818.68 13.9794 1828.68 12.7763 1838.08 15.2739C1847.48 17.7714 1855.55 23.7778 1860.62 32.0475C1870.75 48.111 1867.85 72.9604 1848.58 80.5729C1832.43 86.9445 1818.46 72.2897 1821.66 57.0983C1817.52 55.8239 1815.2 58.4733 1815.71 65.1803C1815.65 65.9882 1815.83 67.0185 1816.22 68.1869C1816.7 68.5051 1817.18 68.8417 1817.64 69.1967C1820 70.9882 1822.21 73.7902 1824.48 76.6655C1826.6 79.3449 1828.76 82.0878 1831.14 84.1357C1832.79 84.8884 1834.55 85.465 1836.4 85.8044C1839.09 86.2968 1841.63 86.3447 1844.03 86.0199C1844.11 85.9777 1844.19 85.9342 1844.28 85.8898C1844.68 85.6694 1845.13 85.5375 1845.59 85.5021C1845.86 85.4821 1846.12 85.4938 1846.38 85.5361C1846.41 85.5412 1846.44 85.5466 1846.47 85.5524C1859.19 82.3757 1867.33 68.5346 1870.04 56.1257C1870.04 55.6227 1888.21 67.5278 1884.04 71.2502C1882.53 72.5983 1881.07 73.7177 1879.75 74.7326C1877.42 76.5202 1875.51 77.9836 1874.48 79.8017C1872.74 82.7902 1871.99 86.256 1872.36 89.6945C1872.73 93.1327 1874.19 96.3639 1876.53 98.9167C1878.22 100.861 1881.88 104.416 1884.57 104.416C1885.55 104.45 1888.71 101.801 1887.94 101.599C1877.68 98.6818 1872.43 84.966 1884.78 79.2651C1888.63 77.6161 1892.86 77.0114 1897.02 77.5119C1901.19 78.0124 1905.14 79.6005 1908.5 82.1154C1910.86 83.8791 1913.08 86.6374 1915.36 89.4677C1920.75 96.1633 1926.47 103.262 1935.24 98.5478C1935.65 98.3307 1936.1 98.2009 1936.57 98.1662C1937.03 98.1315 1937.5 98.193 1937.93 98.3464C1938.22 98.1457 1938.54 98.0136 1938.88 97.9574C1939.06 97.9272 1939.25 97.9189 1939.44 97.934C1939.97 97.977 1940.48 98.206 1940.86 98.5812C1946.65 104.014 1940.05 114.477 1933.96 116.59C1930.17 117.77 1926.17 118.125 1922.22 117.629L1919.7 117.327C1912.94 133.156 1892.82 134.698 1879.7 126.214C1879.09 125.845 1870.68 119.474 1871.15 118.836C1862.44 131.01 1851.4 138.823 1836.09 139.93C1825.7 140.701 1799.15 135.134 1800.33 121.284C1800.24 120.88 1800.24 120.461 1800.33 120.056C1800.41 119.651 1800.59 119.269 1800.83 118.937C1800.89 118.864 1800.94 118.791 1800.99 118.719C1799.79 118.513 1798.61 118.239 1797.44 117.897C1794.14 123.115 1788.08 127.061 1780.92 126.65C1777.22 126.45 1773.58 125.551 1770.22 124.001C1770.23 124.008 1770.23 124.002 1770.21 123.985C1770.16 123.94 1769.98 123.819 1769.73 123.639L1769.68 123.603C1768.9 123.049 1767.42 122.003 1766.16 120.976C1763.11 123.014 1759.82 124.648 1756.26 125.831C1753.36 127.084 1750.23 127.758 1747.04 127.8C1747.02 127.8 1747.01 127.801 1747 127.801C1746.52 127.85 1746.04 127.893 1745.55 127.929C1735.2 128.712 1708.77 123.057 1709.94 108.987C1709.85 108.577 1709.85 108.151 1709.94 107.739C1709.99 107.497 1710.07 107.264 1710.18 107.043C1710.25 106.889 1710.34 106.742 1710.45 106.603C1713.38 102.295 1716.04 98.2096 1714.7 92.9914C1712.86 97.6625 1710.23 101.972 1706.95 105.728C1704.79 109.125 1701.5 111.97 1697.52 113.424C1694.33 114.903 1690.84 115.653 1687.31 115.607C1682.77 115.546 1678.34 114.172 1674.55 111.645C1674.1 111.282 1673.34 110.166 1672.56 109.012C1672.4 108.786 1672.25 108.558 1672.09 108.335C1671.94 108.558 1671.78 108.786 1671.63 109.012C1670.84 110.166 1670.08 111.282 1669.64 111.645C1665.84 114.172 1661.42 115.546 1656.88 115.607C1653.35 115.653 1649.86 114.903 1646.67 113.424C1642.68 111.969 1639.39 109.124 1637.24 105.728C1633.95 101.972 1631.33 97.6625 1629.48 92.9914C1628.15 98.2096 1630.81 102.295 1633.74 106.603C1633.83 106.719 1633.9 106.841 1633.97 106.968C1634.02 107.06 1634.06 107.155 1634.1 107.252C1634.17 107.409 1634.21 107.572 1634.25 107.739C1634.34 108.151 1634.33 108.577 1634.25 108.987C1635.42 123.057 1608.99 128.712 1598.64 127.929C1598.39 127.911 1598.15 127.891 1597.91 127.87C1597.66 127.848 1597.42 127.824 1597.17 127.799C1597.08 127.801 1596.98 127.802 1596.89 127.802C1596.75 127.803 1596.61 127.802 1596.47 127.8C1592.62 127.749 1588.85 126.759 1585.47 124.928C1582.73 123.818 1580.16 122.429 1577.74 120.783C1576.97 121.425 1576.1 122.088 1575.35 122.643C1574.82 123.028 1574.36 123.362 1574.02 123.603L1573.71 123.822C1573.61 123.897 1573.54 123.95 1573.5 123.979C1573.47 124.001 1573.47 124.009 1573.49 124.001C1570.15 125.551 1568.5 124.727 1564.83 124.928C1557.76 125.337 1549.72 110.145 1546.44 104.958C1545.28 105.289 1544.1 105.554 1542.91 105.752L1543.04 105.936ZM1749.59 73.3595C1750.18 71.9003 1750.83 70.4899 1751.59 69.1366C1738.44 70.0529 1728.43 57.1213 1731.18 43.7824C1727.06 42.488 1724.75 45.1791 1725.25 51.9926C1724.92 57.0346 1733.33 70.5934 1745.85 72.944C1747.13 73.1825 1748.38 73.3185 1749.59 73.3595ZM876.381 69.0318C875.615 70.3743 874.972 71.7737 874.382 73.2215C873.061 73.1956 871.701 73.0599 870.302 72.8038C857.72 70.4898 849.275 57.1429 849.611 52.1798C849.107 45.4727 851.428 42.8233 855.566 44.0977C852.782 57.3321 863.02 70.159 876.381 69.0318ZM954.11 82.0987C955.135 83.1402 956.195 84.0835 957.305 84.8621C958.02 85.1209 958.752 85.3453 959.5 85.5311C962.337 84.8267 964.945 83.565 967.265 81.9881C964.522 82.2845 961.906 81.9871 959.5 81.2134C957.799 81.7605 955.992 82.0694 954.11 82.0987ZM1593.94 73.3725C1595.36 73.3642 1596.82 73.2258 1598.33 72.944C1610.86 70.5934 1619.27 57.0346 1618.94 51.9926C1619.44 45.1791 1617.13 42.488 1613.01 43.7824C1615.8 57.3493 1605.4 70.4948 1591.92 69.0773C1592.7 70.4526 1593.35 71.8871 1593.94 73.3725ZM722.782 72.8038C721.294 73.0784 719.849 73.2149 718.45 73.2254C717.852 71.7649 717.201 70.3538 716.423 69.0005C729.832 70.3731 740.175 57.4425 737.391 44.0977C741.494 42.8233 743.795 45.4727 743.295 52.1798C743.629 57.1429 735.257 70.4898 722.782 72.8038ZM1317.79 85.3218C1319.55 83.1976 1320.74 80.6612 1321.24 77.9549C1319.97 78.836 1318.67 80.7308 1317.83 85.1446L1317.79 85.3218ZM1193.82 69.075C1194.57 70.3982 1195.2 71.7767 1195.78 73.202C1196.91 73.1514 1198.06 73.0208 1199.24 72.8038C1211.77 70.4898 1220.18 57.1429 1219.84 52.1798C1220.34 45.4727 1218.03 42.8233 1213.91 44.0977C1216.64 57.1207 1206.81 69.7493 1193.82 69.075ZM1000.24 98.3577C999.541 97.5201 998.933 96.6177 998.421 95.6658C998.94 95.4476 999.472 95.2564 1000.01 95.0931C1000.99 94.6875 1002 94.3626 1003.02 94.1185C1003.37 94.823 1003.78 95.5054 1004.26 96.1551C1002.82 96.7356 1001.46 97.4705 1000.24 98.3577ZM441.895 97.6553C443.306 95.7718 444.29 93.6062 444.777 91.3091C443.699 92.272 442.637 94.0848 441.895 97.6553ZM318.642 86.221C318.065 84.7767 317.437 83.3794 316.693 82.0379C330.018 83.1116 340.213 70.3074 337.434 57.0977C341.572 55.8233 343.893 58.4727 343.389 65.1797C343.725 70.1429 335.28 83.4898 322.698 85.8038C321.307 86.0582 319.955 86.1941 318.642 86.221Z" fill="#1B171E"/>
</svg>
