<svg width="1920" height="306" viewBox="0 0 1920 306" fill="none" xmlns="http://www.w3.org/2000/svg">
<path d="M960 28.9003C970.631 25.6285 993.967 18.2126 1002.26 14.7228C1004.84 13.6364 1006.51 12.8741 1007.54 12.3504C1007.64 12.0352 1007.74 11.7345 1007.84 11.4511C1008.94 11.2007 1009.81 11.1917 1007.54 12.3504C1005.87 17.2907 1003.06 25.7637 1003.06 26.1738C1003.06 26.7191 1019 19.085 1032.56 19.085C1043.4 19.085 1054.62 17.2674 1058.87 16.3586C1052.49 18.5398 1039.73 23.3383 1039.73 25.0832C1039.73 27.2643 1094.75 17.4492 1098.74 16.9039C1093 19.5213 1086.25 23.8109 1083.59 25.6285C1096.88 24.5379 1126.01 21.1571 1136.21 16.3586C1129.04 22.902 1141.79 26.1738 1160.93 20.1756C1159.02 21.0481 1157.48 23.8109 1156.94 25.0832C1165.98 23.8109 1185.81 20.0666 1192.82 15.268C1191.55 17.0129 1191.76 19.9938 1192.03 21.2662C1196.01 19.4486 1204.47 15.7043 1206.38 15.268C1208.29 14.8318 1208.24 17.2674 1207.97 18.5398L1221.53 17.4492L1212.76 25.6285L1289.91 19.085L1282.92 25.6285C1297.62 26.0533 1331.99 16.0707 1353.56 14.727C1353.6 14.699 1353.63 14.6967 1353.63 14.7227C1353.61 14.7241 1353.58 14.7256 1353.56 14.727C1352.66 15.2899 1343.31 26.2389 1349.38 25.6285C1358.29 24.7331 1374.01 20.5457 1381.95 19.085C1397.94 16.1411 1408 12.9806 1414.51 7.08632C1413.88 12.3211 1418.37 14.7227 1422.54 14.7227C1427.98 14.7227 1439.8 11.4163 1446.55 5.68257C1446.99 5.25508 1447.47 4.815 1447.97 4.36229C1447.53 4.81559 1447.06 5.2558 1446.55 5.68257C1439.77 12.2578 1440.47 15.8466 1440.47 16.3586C1452.43 15.6316 1474.76 10.6876 1479.87 1.09057C1477.95 7.19779 1474.29 13.0869 1472.69 15.268C1481.99 13.2686 1502.19 8.07024 1508.57 3.27172C1506.02 6.76156 1504.85 10.9057 1504.58 12.5416L1513.36 10.9057L1510.17 14.7227C1519.2 13.4504 1539.03 9.59705 1546.05 4.36229C1544.13 9.59705 1543.12 13.4504 1542.86 14.7227C1548.17 12.9051 1560.88 9.16082 1569.17 8.72459C1579.53 8.1793 1585.12 5.45287 1591.49 3.27172C1584.48 7.63402 1583.26 11.2693 1583.52 12.5416L1600.27 8.72459V12.5416C1614.62 12.7234 1645.4 12.2144 1653.69 8.72459C1647.31 13.9593 1646.78 15.268 1647.31 15.268C1658.47 14.1775 1684.47 10.2514 1699.14 3.27172C1695.31 6.76156 1695.42 9.81516 1695.95 10.9057C1707.38 10.724 1732.15 8.61553 1739.8 1.63586C1739.16 3.81701 1739.53 6.54344 1739.8 7.63402C1745.91 8.36106 1759.26 9.59705 1763.72 8.72459C1768.19 7.85213 1760.8 11.9963 1756.54 14.1775C1764.25 14.1775 1783.34 11.8873 1798.01 2.72643C1795.46 6.6525 1794.82 9.08811 1794.82 9.81516C1798.8 9.08811 1807.57 7.63402 1810.76 7.63402C1809.49 10.2514 1807.04 13.0869 1805.98 14.1775C1817.14 11.0875 1840.58 4.58041 1845.05 3.27172C1839.95 6.76156 1832.82 10.9057 1829.9 12.5416C1839.47 11.2693 1861.63 6.97967 1873.75 0C1872.48 2.18115 1873.22 4.18053 1873.75 4.90758L1890.5 3.27172C1889.7 4.36229 1887.15 6.76156 1883.32 7.63402C1878.54 8.72459 1896.88 9.26988 1900.07 7.63402C1902.62 6.32533 1909.1 3.81701 1912.03 2.72643L1907.24 9.81516L1920 5.99816V298.592H960V28.9003Z" fill="#1B171E"/>
<path d="M0 51.4476C10.6312 48.1759 33.9668 40.76 42.2591 37.2702C44.8406 36.1838 46.5102 35.4215 47.5375 34.8978C47.6435 34.5826 47.7449 34.2818 47.8405 33.9984C48.9388 33.7481 49.8101 33.7391 47.5375 34.8978C45.8748 39.8381 43.0565 48.3111 43.0565 48.7211C43.0565 49.2664 59.0033 41.6324 72.5581 41.6324C83.402 41.6324 94.6179 39.8148 98.8704 38.906C92.4917 41.0871 79.7342 45.8856 79.7342 47.6306C79.7342 49.8117 134.751 39.9965 138.738 39.4513C132.997 42.0686 126.246 46.3582 123.588 48.1758C136.877 47.0853 166.007 43.7045 176.213 38.906C169.037 45.4494 181.794 48.7211 200.93 42.723C199.017 43.5954 197.475 46.3582 196.944 47.6306C205.98 46.3582 225.807 42.6139 232.824 37.8154C231.548 39.5603 231.761 42.5412 232.027 43.8135C236.013 41.9959 244.465 38.2516 246.379 37.8154C248.292 37.3792 248.239 39.8148 247.973 41.0871L261.528 39.9965L252.757 48.1758L330.1 44.9041L322.924 48.1758C360.664 49.2664 441.09 46.9762 460.864 29.0908C460.226 34.3256 461.661 35.2707 462.458 35.089C467.879 35.089 479.694 33.6832 486.471 28.2656C486.948 27.8312 487.448 27.3794 487.973 26.9097C487.508 27.3874 487.005 27.8389 486.471 28.2656C479.427 34.689 477.608 37.3046 477.608 37.8154C489.568 37.0883 514.764 33.235 519.867 23.6379C517.953 29.7451 514.286 35.6342 512.691 37.8154C521.993 35.816 542.193 30.6176 548.571 25.8191C546.02 29.3089 544.851 33.4531 544.585 35.089L553.355 33.4531L550.166 37.2701C559.203 35.9978 579.03 32.1444 586.047 26.9097C584.133 32.1444 583.123 35.9978 582.857 37.2701C588.173 35.4525 600.877 31.7082 609.169 31.272C619.535 30.7267 625.116 28.0002 631.495 25.8191C624.478 30.1814 623.256 33.8166 623.522 35.089L640.266 31.272V35.089C654.618 35.2707 685.395 34.7618 693.688 31.272C687.309 36.5067 686.777 37.8154 687.309 37.8154C698.472 36.7248 724.465 32.7988 739.136 25.8191C735.309 29.3089 735.415 32.3625 735.947 33.4531C747.375 33.2713 772.146 31.1629 779.801 24.1832C779.163 26.3644 779.535 29.0908 779.801 30.1814C785.914 30.9084 799.256 32.1444 803.721 31.272C808.186 30.3995 800.797 34.5437 796.545 36.7248C804.252 36.7248 823.336 34.4346 838.007 25.2738C835.455 29.1999 834.817 31.6355 834.817 32.3625C838.804 31.6355 847.575 30.1814 850.764 30.1814C849.488 32.7988 847.043 35.6342 845.98 36.7248C857.143 33.6349 880.585 27.1278 885.05 25.8191C879.947 29.3089 872.824 33.4531 869.9 35.089C879.468 33.8166 901.635 29.527 913.754 22.5474C912.478 24.7285 913.223 26.7279 913.754 27.4549L930.498 25.8191C929.701 26.9097 927.149 29.3089 923.322 30.1814C918.538 31.272 936.877 31.8172 940.066 30.1814C942.618 28.8727 949.103 26.3644 952.027 25.2738L947.242 32.3625L960 28.5455V306H0V51.4476Z" fill="#1B171E"/>
</svg>
