<svg width="1920" height="475" viewBox="0 0 1920 475" fill="none" xmlns="http://www.w3.org/2000/svg">
<path d="M945 44.8615C956.262 39.7829 980.984 28.2712 989.768 22.854C992.503 21.1676 994.272 19.9843 995.36 19.1714C995.472 18.6822 995.58 18.2153 995.681 17.7754C996.845 17.3867 997.768 17.3728 995.36 19.1714C993.599 26.8401 990.613 39.9927 990.613 40.6292C990.613 41.4757 1007.51 29.6255 1021.87 29.6255C1033.35 29.6255 1045.24 26.804 1049.74 25.3933C1042.98 28.779 1029.47 36.2277 1029.47 38.9363C1029.47 42.3221 1087.75 27.0861 1091.98 26.2397C1085.89 30.3026 1078.74 36.9613 1075.93 39.7828C1090 38.0899 1120.86 32.8419 1131.68 25.3933C1124.07 35.5506 1137.59 40.6292 1157.86 31.3184C1155.83 32.6727 1154.2 36.9613 1153.64 38.9363C1163.21 36.9613 1184.21 31.1491 1191.65 23.7004C1190.3 26.409 1190.52 31.0362 1190.8 33.0112C1195.03 30.1898 1203.98 24.3775 1206.01 23.7004C1208.03 23.0232 1207.98 26.804 1207.7 28.779L1222.06 27.0861L1212.76 39.7828L1294.5 29.6255L1287.1 39.7828C1302.67 40.4422 1339.07 24.9464 1361.93 22.8605C1361.97 22.8171 1362 22.8135 1362 22.8539C1361.98 22.8561 1361.95 22.8583 1361.93 22.8605C1360.97 23.7342 1351.07 40.7303 1357.5 39.7828C1366.93 38.3929 1383.59 31.8929 1392 29.6255C1408.94 25.0557 1419.6 20.1496 1426.5 11C1425.82 19.1258 1430.58 22.8539 1435 22.8539C1440.77 22.8539 1453.29 17.7213 1460.44 8.82103C1460.91 8.15745 1461.41 7.47427 1461.95 6.77154C1461.48 7.4752 1460.98 8.15855 1460.44 8.82103C1453.26 19.0277 1454 24.5985 1454 25.3933C1466.67 24.2647 1490.33 16.5903 1495.73 1.69288C1493.71 11.173 1489.82 20.3146 1488.13 23.7004C1497.99 20.5968 1519.39 12.5273 1526.14 5.07865C1523.44 10.4959 1522.2 16.9288 1521.92 19.4682L1531.21 16.9288L1527.83 22.8539C1537.41 20.8789 1558.41 14.8974 1565.84 6.77154C1563.82 14.8974 1562.75 20.8789 1562.46 22.8539C1568.1 20.0325 1581.55 14.2202 1590.34 13.5431C1601.32 12.6966 1607.23 8.46442 1613.99 5.07865C1606.56 11.8502 1605.26 17.4931 1605.54 19.4682L1623.28 13.5431V19.4682C1638.49 19.7503 1671.09 18.9603 1679.88 13.5431C1673.12 21.6689 1672.55 23.7004 1673.12 23.7004C1684.94 22.0075 1712.48 15.9131 1728.02 5.07865C1723.97 10.4959 1724.08 15.236 1724.64 16.9288C1736.75 16.6467 1762.99 13.3738 1771.1 2.53933C1770.43 5.92509 1770.82 10.1573 1771.1 11.8502C1777.58 12.9788 1791.71 14.8974 1796.44 13.5431C1801.17 12.1888 1793.34 18.6217 1788.84 22.0075C1797 22.0075 1817.22 18.4524 1832.76 4.23221C1830.06 10.3266 1829.38 14.1074 1829.38 15.236C1833.61 14.1074 1842.9 11.8502 1846.28 11.8502C1844.93 15.9131 1842.34 20.3146 1841.21 22.0075C1853.04 17.211 1877.87 7.11011 1882.6 5.07865C1877.19 10.4959 1869.65 16.9288 1866.55 19.4682C1876.69 17.4931 1900.17 10.8345 1913.01 0C1911.66 3.38577 1912.45 6.48939 1913.01 7.61798L1930.75 5.07865C1929.9 6.77154 1927.2 10.4959 1923.14 11.8502C1918.08 13.5431 1937.5 14.3895 1940.88 11.8502C1943.59 9.81873 1950.46 5.92509 1953.55 4.23221L1948.49 15.236L1962 9.31086V463.5H945V44.8615Z" fill="url(#paint0_linear_2_25929)"/>
<path d="M-72 79.8615C-60.7375 74.7829 -36.0164 63.2712 -27.2317 57.854C-24.497 56.1676 -22.7283 54.9843 -21.64 54.1714C-21.5276 53.6822 -21.4202 53.2153 -21.3189 52.7754C-20.1555 52.3867 -19.2324 52.3728 -21.64 54.1714C-23.4014 61.8401 -26.387 74.9927 -26.387 75.6292C-26.387 76.4757 -9.49335 64.6255 4.86628 64.6255C16.354 64.6255 28.2359 61.804 32.7409 60.3933C25.9834 63.779 12.4684 71.2277 12.4684 73.9363C12.4684 77.3221 70.7517 62.0861 74.9751 61.2397C68.8934 65.3026 61.7417 71.9613 58.9261 74.7828C73.0042 73.0899 103.863 67.8419 114.675 60.3933C107.073 70.5506 120.588 75.6292 140.86 66.3184C138.833 67.6727 137.2 71.9613 136.637 73.9363C146.21 71.9613 167.215 66.1491 174.648 58.7004C173.296 61.409 173.522 66.0362 173.803 68.0112C178.027 65.1898 186.98 59.3775 189.007 58.7004C191.035 58.0232 190.978 61.804 190.697 63.779L205.056 62.0861L195.765 74.7828L277.699 69.7041L270.097 74.7828C310.079 76.4757 395.279 72.9206 416.228 45.1573C415.552 53.2831 417.072 54.7503 417.917 54.4682C423.659 54.4682 436.176 52.2861 443.356 43.8764C443.86 43.2021 444.39 42.5007 444.947 41.7715C444.453 42.5131 443.921 43.2141 443.356 43.8764C435.893 53.8473 433.966 57.9076 433.966 58.7004C446.636 57.5718 473.328 51.5903 478.734 36.6929C476.707 46.173 472.821 55.3146 471.132 58.7004C480.987 55.5968 502.385 47.5273 509.143 40.0787C506.44 45.4959 505.201 51.9288 504.919 54.4682L514.211 51.9288L510.832 57.8539C520.405 55.8789 541.41 49.8974 548.843 41.7715C546.816 49.8974 545.746 55.8789 545.464 57.8539C551.096 55.0325 564.554 49.2202 573.339 48.5431C584.32 47.6966 590.233 43.4644 596.99 40.0787C589.557 46.8502 588.262 52.4931 588.543 54.4682L606.282 48.5431V54.4682C621.486 54.7503 654.091 53.9603 662.875 48.5431C656.118 56.6689 655.555 58.7004 656.118 58.7004C667.943 57.0075 695.48 50.9131 711.022 40.0787C706.968 45.4959 707.081 50.236 707.644 51.9288C719.751 51.6467 745.992 48.3738 754.101 37.5393C753.426 40.9251 753.82 45.1573 754.101 46.8502C760.577 47.9788 774.712 49.8974 779.442 48.5431C784.172 47.1888 776.345 53.6217 771.84 57.0075C780.005 57.0075 800.221 53.4524 815.763 39.2322C813.06 45.3266 812.385 49.1074 812.385 50.236C816.608 49.1074 825.899 46.8502 829.278 46.8502C827.927 50.9131 825.336 55.3146 824.21 57.0075C836.036 52.211 860.869 42.1101 865.6 40.0787C860.194 45.4959 852.648 51.9288 849.551 54.4682C859.687 52.4931 883.169 45.8345 896.008 35C894.657 38.3858 895.445 41.4894 896.008 42.618L913.747 40.0787C912.902 41.7715 910.199 45.4959 906.144 46.8502C901.076 48.5431 920.504 49.3895 923.883 46.8502C926.586 44.8187 933.456 40.9251 936.553 39.2322L931.485 50.236L945 44.3109V475H-72V79.8615Z" fill="url(#paint1_linear_2_25929)"/>
<defs>
<linearGradient id="paint0_linear_2_25929" x1="1453.5" y1="0" x2="1453.5" y2="463.5" gradientUnits="userSpaceOnUse">
<stop stop-color="#1B171E"/>
<stop offset="1" stop-color="#1B171E" stop-opacity="0"/>
</linearGradient>
<linearGradient id="paint1_linear_2_25929" x1="436.5" y1="35" x2="436.5" y2="475" gradientUnits="userSpaceOnUse">
<stop stop-color="#1B171E"/>
<stop offset="1" stop-color="#1B171E" stop-opacity="0"/>
</linearGradient>
</defs>
</svg>
