<svg width="115" height="115" viewBox="0 0 115 115" fill="none" xmlns="http://www.w3.org/2000/svg">
<path fill-rule="evenodd" clip-rule="evenodd" d="M91.2872 45.4627L91.1981 45.2151L91.2699 45.5509C91.2699 45.5509 91.3318 45.5776 91.2872 45.4627Z" fill="#ED1C24"/>
<path fill-rule="evenodd" clip-rule="evenodd" d="M91.2415 45.1714C91.1248 44.6324 90.9902 44.0227 90.829 43.351C90.5846 42.4064 90.2533 41.486 89.8393 40.6014C89.3556 39.4022 88.6508 38.3034 87.7618 37.3624C87.6289 37.2295 87.701 37.6536 87.8705 38.1398C88.3765 38.9275 88.8119 39.6972 89.2119 40.4668C89.9711 41.9985 90.6486 43.5689 91.2415 45.1714Z" fill="#ED1C24"/>
<path d="M78.8608 93.1021L77.4441 94.5188C77.6031 94.5371 77.4804 94.8015 76.7934 95.3113C76.1064 95.821 75.2254 96.4008 74.6176 96.8137C74.0097 97.2266 73.8073 97.429 73.4462 97.6838C72.7994 98.1306 72.1048 98.5043 71.375 98.798C70.8891 99.0086 70.4154 99.2457 69.9558 99.5083C69.7011 99.6475 69.4392 99.7733 69.1712 99.8853C68.6807 100.07 68.1801 100.228 67.6718 100.357C67.4689 100.418 67.3104 100.541 66.9752 100.646L65.8991 100.978C65.5374 101.091 65.1845 101.178 64.814 101.265C64.0551 101.422 63.3227 101.569 62.5904 101.717C61.7184 101.734 60.8487 101.804 59.9862 101.928C59.6331 101.963 59.2889 102.006 58.8917 102.031C58.4201 102.039 57.9483 102.02 57.4786 101.973C58.0329 101.727 58.6012 101.514 59.1806 101.334C59.8069 101.151 59.9565 101.001 60.0441 100.79C60.1316 100.578 60.2014 100.331 61.0658 100.051C62.2566 99.6759 61.5315 99.3908 61.8483 99.074C61.9451 98.9772 61.8125 98.9326 61.8565 98.8886C61.9718 98.8552 62.0899 98.8319 62.2095 98.8192L62.6508 98.7854C62.8009 98.7771 62.9069 98.7775 62.9069 98.7775C62.9871 98.9985 63.0327 99.4137 63.0505 99.4491C63.0683 99.4844 63.342 99.4942 63.5011 99.5124C63.7197 99.4498 63.9322 99.3678 64.136 99.2674L65.1039 98.2994C65.236 98.1851 65.0152 98.1932 64.618 98.236C64.2208 98.2787 63.5767 98.4089 62.8441 98.4859C61.2113 98.701 59.7545 98.7754 58.5628 98.8684C57.3711 98.9614 57.3007 99.0318 58.5374 99.1773C59.4649 99.2777 59.8446 99.2878 59.7302 99.4022C59.0642 99.5552 58.3842 99.6416 57.7002 99.6601C56.4531 99.7786 55.197 99.7831 53.9475 99.6736C53.3043 99.6283 52.6689 99.5014 52.0565 99.2961C50.6687 98.8586 48.8829 98.252 47.2999 97.5666C47.1319 97.4865 46.4867 97.2989 46.3275 97.2453C45.8761 97.1268 45.4331 96.9778 45.0015 96.7992C44.6301 96.639 44.17 96.3902 43.9578 96.3011C43.7456 96.2121 43.0291 95.8652 42.7641 95.829C42.4991 95.7928 42.4903 95.8016 42.5965 95.8902C42.6818 95.9614 43.1146 96.2214 43.2502 96.2893C43.2604 96.2917 43.2725 96.2948 43.2867 96.2988C43.299 96.311 43.2836 96.306 43.2502 96.2893C42.8911 96.2044 44.9037 97.043 43.6057 96.6178C42.7849 96.2832 41.9845 95.9001 41.2088 95.4704C40.9925 95.3633 40.7853 95.2385 40.5894 95.0974C39.1066 94.105 37.5674 93.2003 35.9795 92.3882C35.2956 91.9863 34.6338 91.5478 33.997 91.0745L33.3862 90.622C33.1825 90.4712 32.9525 90.3468 32.7487 90.143C32.3237 89.7883 31.8545 89.46 31.4824 89.0878C30.7827 88.4938 30.0653 87.8644 29.5245 87.2356C28.9837 86.6067 28.3637 86.0571 27.7963 85.4194C27.229 84.7817 26.7146 84.1264 26.1738 83.4976C25.633 82.8688 25.1715 82.1961 24.6747 81.541C22.7865 78.9398 21.1757 76.1492 19.8687 73.2152C19.6195 72.6492 19.3705 72.1186 19.1744 71.5881C18.9782 71.0576 18.8087 70.536 18.6392 70.0321C18.3228 69.0837 18.0716 68.1151 17.8874 67.1333C17.3217 64.5463 17.0431 61.9069 17.0565 59.2628C17.0634 58.6889 17.1119 57.4175 17.0647 56.5255C17.0441 56.1636 17.0458 55.8008 17.0698 55.4394C17.0774 55.0951 17.0851 54.7684 17.1105 54.4594C17.1311 53.8802 17.1822 53.3027 17.2634 52.7293L17.47 51.1759C17.5476 50.6552 17.6694 50.1258 17.7734 49.5434C17.9288 48.6213 18.2234 47.7292 18.6472 46.8974C19.0332 46.157 19.5591 45.0462 20.1374 43.7414L21.1281 41.7051C21.4789 41.0175 21.8826 40.3125 22.2688 39.6251C22.453 39.2637 22.6993 39.0174 22.8835 38.6383L23.5407 37.2013L24.2247 35.8262L24.6191 34.971L25.0577 34.1425C25.2832 33.6828 25.5383 33.2383 25.8213 32.8118C26.9947 31.1147 28.3 29.5131 29.7252 28.0218C30.1564 27.6002 30.6089 27.201 31.0809 26.8256C31.557 26.4294 31.9958 25.9906 32.3921 25.5145C32.8325 25.1982 33.3347 24.8732 33.8631 24.4688L34.6645 23.8623L35.4927 23.3354L36.3739 22.8087C36.6734 22.6154 36.9906 22.4046 37.3255 22.2292C37.9953 21.8606 38.6739 21.4833 39.335 21.1412L40.8603 20.4843L40.8605 20.4842C41.3806 20.2653 41.9008 20.0463 42.3859 19.8979C43.5236 19.5222 44.6879 19.1377 45.8082 18.8325C46.6222 18.6801 47.4241 18.4704 48.2078 18.2051C48.9053 18.1634 49.991 18.0523 50.1763 18.0088C51.4904 17.7286 52.8295 17.5765 54.1747 17.5547C55.4107 17.4493 56.654 17.4448 57.8921 17.5411C58.4925 17.5255 59.1461 17.5808 59.8261 17.6096C60.5062 17.6385 61.195 17.6585 61.8575 17.7403L63.6066 17.9406C64.1895 17.9956 64.7728 18.1213 65.3823 18.2029C66.6103 18.3749 67.8298 18.6617 69.0758 18.9221C69.9064 19.1016 70.7992 19.3607 71.6741 19.5845C72.0998 19.6975 72.5189 19.8346 72.9294 19.9951C73.3273 20.1466 73.8667 20.3692 74.0259 20.4404C74.1851 20.5116 74.4592 20.6273 74.6891 20.7164C74.8161 20.7658 74.9377 20.8284 75.0518 20.9031C74.407 20.8567 76.034 21.4981 76.83 21.8717C76.9804 21.9517 77.1572 22.023 77.3341 22.1119C77.511 22.2008 77.7231 22.2545 77.8649 22.3963L78.9264 22.9475C79.2213 23.1008 79.5078 23.2698 79.7847 23.4537C79.9527 23.5599 80.095 23.7022 80.2012 23.8702C80.4938 24.0799 80.7981 24.2726 81.1127 24.4473C81.5792 24.7146 82.0285 25.0111 82.4579 25.335C83.4408 26.1243 83.9104 26.5762 85.4153 27.6941C85.5708 27.8151 85.7107 27.955 85.8318 28.1105C85.5402 28.0477 85.7085 28.216 86.0097 28.5172L86.0098 28.5173L86.5415 29.049L87.1352 29.6426C87.3774 29.8945 87.5969 30.1671 87.7914 30.4573C88.0948 30.8698 88.4235 31.2632 88.7756 31.6351C89.3695 32.2994 89.6892 32.8127 88.9631 32.2274C88.609 31.9612 88.9555 32.5717 89.3107 33.1557C89.8922 34.0768 90.3836 35.0514 90.7778 36.0659C90.9382 36.4903 91.0986 36.9147 91.2327 37.3832C91.3667 37.8516 91.5184 38.3025 91.6615 38.8151C91.9834 39.9818 92.3414 41.3605 92.6737 42.9599L92.7547 43.4282C92.4435 42.8002 92.2212 42.3667 92.0877 42.0572C91.8741 41.562 91.8295 41.4294 91.9351 41.3238C92.0407 41.2182 91.7915 40.6699 91.1963 39.617C90.7701 38.9445 90.6364 38.582 90.228 37.9448C89.9796 37.6084 89.5004 36.918 89.0396 36.4572C88.9424 36.4304 88.677 36.3059 88.872 36.5008C89.5377 37.5009 90.195 38.6158 90.8259 39.757C90.8874 39.8727 90.9019 39.9829 90.9456 40.068C90.9623 40.0911 90.9788 40.1142 90.995 40.1373C90.9745 40.1168 90.9587 40.0936 90.9456 40.068C90.7508 39.7993 90.5211 39.5333 90.374 39.3051C89.8593 38.5793 89.3094 37.871 88.8038 37.2246C87.2611 35.3212 85.5237 33.5838 83.6203 32.0411C82.7878 31.3494 81.9387 30.9226 82.0893 31.0733C82.296 31.3318 82.5308 31.5666 82.7893 31.7733C84.0387 33.0403 84.899 34.1117 86.3974 35.8918C87.0271 36.6798 87.5594 37.4058 88.021 38.1138L88.3065 38.9448C88.4314 39.3161 88.583 39.7493 88.6903 40.1381C88.7646 40.3999 88.8245 40.6654 88.8697 40.9335C87.5435 38.9581 85.9999 37.137 84.268 35.5047C81.7206 33.1196 78.8543 31.1005 75.7527 29.506C73.8965 28.5693 71.9574 27.8087 69.9611 27.2343L69.7667 27.1806C69.9179 27.3137 70.1007 27.4056 70.2974 27.4473C71.4811 27.5927 71.6861 28.1321 72.3672 28.4788C73.1285 29.0259 73.9744 29.4436 74.8704 29.7149C74.9176 29.7434 74.9571 29.7829 74.9856 29.8301C75.4994 30.291 75.51 30.8297 76.5533 31.2042C76.6522 31.7078 77.6865 32.0558 77.9533 32.6042C78.3311 33.0519 78.7461 33.4669 79.1938 33.8447C79.2712 33.8698 79.3513 33.8849 79.4324 33.8897C80.1921 33.9983 80.4044 34.0873 80.5027 34.432C80.601 34.7767 81.4149 35.2034 81.1776 35.5293C81.394 35.8283 81.6405 36.1044 81.9134 36.353C82.2679 36.7428 82.6913 36.6206 82.6913 36.6206L82.9474 36.6127C82.9653 36.7121 82.9656 36.8137 82.9484 36.9129C82.9665 37.0366 82.7724 37.0889 82.8433 37.1598C82.9373 37.2943 83.0543 37.4113 83.1889 37.5054C83.242 37.5409 83.3749 37.6738 83.4097 37.515C83.4444 37.3562 83.4257 37.0559 83.4344 36.9941C83.443 36.9323 83.6638 36.9419 83.7524 37.0305C83.8772 37.1298 83.9724 37.2616 84.0274 37.4111C83.9746 37.4639 83.8681 37.3046 83.8338 37.6047C83.7995 37.9048 83.6061 38.1514 84.3223 38.4276C84.4893 38.6161 84.6109 38.84 84.6778 39.0823C84.7498 39.4711 84.8214 39.7539 85.0854 39.4899L85.3246 39.7291C85.0428 39.9401 85.22 40.1173 85.645 40.4367C85.8441 40.6922 85.9921 40.9836 86.0806 41.2947C86.0984 41.3301 86.0016 41.4268 85.763 41.3642C85.5244 41.3016 85.5426 41.4782 85.4814 41.6458C85.2979 42.2015 85.024 42.1387 84.4388 41.4479C84.1196 41.076 83.6853 40.6064 83.5714 40.8621C83.4575 41.1178 83.193 41.2405 82.9994 41.4341L83.319 41.912C83.588 42.2892 83.7594 42.7268 83.8179 43.1853C83.8324 43.2949 83.8625 43.4021 83.9073 43.5035C84.0219 43.6535 84.156 43.7875 84.306 43.9022C84.8011 44.3459 85.1122 44.9585 85.1773 45.6183C85.1716 45.8325 85.2115 46.0457 85.2944 46.2439C85.3773 46.4421 85.5013 46.6207 85.6581 46.7678C85.8951 47.1462 86.0106 47.5873 85.9892 48.0317C86.2336 48.7718 86.3701 49.5425 86.3945 50.3201C86.3956 50.6203 86.2456 50.6816 86.0862 50.5221C86.0286 50.4391 85.9565 50.3671 85.8735 50.3095C85.83 50.4947 85.7775 50.6358 85.743 50.8653C85.7084 51.0947 85.9479 51.387 86.0978 51.3257C86.4451 51.2091 86.8199 51.1981 87.1749 51.2941C87.2653 51.3097 87.3541 51.3336 87.4401 51.3657C87.3787 51.4979 87.3441 51.692 87.2649 51.7712C87.203 51.8071 87.1336 51.828 87.062 51.8324C87.2689 52.0738 87.4045 52.3679 87.4535 52.6814C87.5427 52.9466 87.6741 52.638 87.7703 52.3646C88.1117 51.5269 88.3671 51.3247 88.6502 51.4847C88.6945 51.5113 88.7039 51.6967 88.7748 51.7676C88.7077 52.774 88.6931 53.6746 88.6434 54.6105C88.9427 54.3466 89.3222 54.2861 89.5774 54.0309C89.7203 53.9413 89.8744 53.8706 90.0358 53.8206C90.0871 53.344 90.1473 52.8585 90.1633 52.3817C90.2115 51.6531 90.2208 50.9221 90.191 50.192L90.1294 50.2536L90.0408 50.165L90.1464 50.0594L90.1369 49.8739L90.1306 49.7951C90.0123 48.3235 89.8829 46.712 89.6175 45.2363C89.2665 43.3366 88.802 41.7809 88.7825 41.2687C88.7846 41.1859 88.7784 41.1031 88.764 41.0214C89.5159 42.136 90.1954 43.2975 90.7982 44.4987C90.9494 44.8083 91.1537 45.171 91.3227 45.516C91.4484 46.1168 91.565 46.6382 91.6901 47.0625C91.8217 47.7275 91.9066 48.4005 91.9443 49.0766C91.9972 49.6817 92.017 50.289 92.0036 50.8958L92.0568 50.949C92.262 51.5767 92.4142 52.1688 92.5663 52.7256L92.9953 54.2282L93.1653 54.8734L93.2282 55.1827C93.3217 54.1322 93.3886 53.0728 93.3938 52.0044L93.3124 51.4478L93.2224 50.9707L93.0514 50.0253C92.9279 49.3036 92.7513 48.5917 92.523 47.8954C92.2637 47.0228 92.0485 46.1379 91.878 45.2442C91.7262 44.7403 91.5124 44.1921 91.3162 43.644L90.6749 42.0523C89.7715 40.0644 88.6578 38.1777 87.3529 36.4249C87.3171 36.2658 87.4145 36.3633 87.4145 36.3633C88.2986 37.3082 89.0999 38.3273 89.8092 39.4091C90.3201 40.159 90.7575 40.9559 91.1155 41.789C91.2227 42.1425 91.3742 42.5581 91.5968 43.0798C92.2548 44.7297 92.7775 46.4296 93.1597 48.1625L93.2405 48.5602C93.1058 46.8892 92.8819 45.226 92.5698 43.5777C92.7654 43.9669 92.9966 44.4268 93.2634 44.9752C93.4058 45.2936 93.5483 45.6296 93.6818 45.9568C93.8154 46.284 93.9402 46.62 94.0473 46.9559C94.2792 47.6101 94.4493 48.2906 94.5924 48.8033C94.7354 49.3159 94.9946 50.2086 95.165 50.9598C95.3354 51.7109 95.4259 52.347 95.221 51.8253C95.0161 51.3036 94.6122 49.4391 94.2106 48.2103C94.1661 48.0954 94.0413 47.7771 94.0057 47.671C93.97 47.5649 93.9431 47.45 93.8988 47.4057L93.8191 47.326C93.7395 47.2992 93.5887 47.0956 93.7138 47.5198C93.8388 47.9441 93.9374 48.3595 94.0005 48.7394C94.0637 49.1193 94.1445 49.4993 94.1898 49.8438C94.2806 50.5505 94.3623 51.2131 94.4 51.9019C94.4377 52.5908 94.4932 53.3151 94.549 54.11C94.5857 54.5163 94.5872 54.9578 94.5888 55.417L94.6206 56.927C94.5145 56.909 94.5155 57.1916 94.5611 57.5891L94.6893 58.9317L94.7995 60.133C94.8403 60.5321 94.8594 60.9331 94.8566 61.334L94.8734 63.6387L94.8796 65.4048C94.8629 65.6873 94.8027 66.1727 94.7511 66.5611C94.7021 66.6909 94.6341 66.8127 94.5493 66.9224C94.4348 67.0191 94.4431 66.8514 94.3551 66.9394C94.2606 67.178 94.1819 67.4225 94.1192 67.6715C94.0064 68.0807 93.9165 68.4961 93.8498 68.9156C93.8948 69.1718 93.9909 68.8631 94.0004 69.0662C93.9887 69.4547 93.9458 69.8414 93.872 70.2225L93.1627 71.9419C93.0211 72.2917 92.8541 72.6305 92.6629 72.9556C92.4346 73.2727 92.2901 73.6426 92.2428 74.0314C92.1997 74.3915 92.1331 74.7482 92.0434 75.0992L91.9298 75.4255C91.8349 75.6013 91.7262 75.7692 91.6048 75.9277C91.4548 75.9713 91.4718 75.7771 91.3219 75.8384C90.9323 76.2331 90.609 76.6881 90.3641 77.1861C90.488 77.1405 90.6206 77.1229 90.7525 77.1345C91.0087 77.1795 91.2991 76.8891 91.5279 76.6603C91.6071 76.5988 91.6414 76.2987 91.7571 76.5551C91.8008 76.6569 91.8309 76.7639 91.8465 76.8734C91.4414 77.1898 91.6283 77.6232 91.5414 78.0114C91.4544 78.3996 91.509 78.8589 91.3424 79.1851C91.079 79.8959 90.6112 80.5117 89.9975 80.9553C89.8834 80.9969 89.7582 80.9983 89.6425 80.9594C89.5269 80.9205 89.4276 80.8435 89.361 80.7411C89.2099 80.4492 88.8914 80.2715 88.7314 79.9707L88.0114 81.1515C87.6426 81.733 87.309 82.3146 86.9664 82.8167L85.8334 84.57L84.6736 86.226C84.287 86.7898 83.865 87.3181 83.4343 87.8729C83.0035 88.4277 82.573 89.0355 82.0274 89.5811L79.9695 91.9934L79.4504 92.5126L79.1864 92.7765L78.8608 93.1021Z" fill="#ED1C24"/>
<g clip-path="url(#clip0_235_10)">
<mask id="mask0_235_10" style="mask-type:alpha" maskUnits="userSpaceOnUse" x="45" y="56" width="24" height="23">
<path d="M68.7848 70.9381V56.4807L45.5802 57.4757V71.9331C45.5801 72.2645 45.744 72.5957 46.0719 72.785L55.2642 78.0922C55.918 78.4697 56.7235 78.4697 57.3772 78.0922L68.293 71.79C68.6209 71.6007 68.7849 71.2694 68.7848 70.9381Z" fill="url(#paint0_linear_235_10)"/>
</mask>
<g mask="url(#mask0_235_10)">
<rect x="55.0001" y="58.9999" width="26" height="26" fill="#121013"/>
<rect x="30.0001" y="58.9999" width="26" height="26" fill="#221F23"/>
</g>
<path d="M69.7103 55.9177L69.7102 55.9177C69.1993 56.2164 69.2011 56.9556 69.7139 57.2516L69.9639 56.8186L69.7139 57.2516L75.1804 60.4078L75.4304 59.9748L75.1805 60.4078C75.6065 60.6537 75.6066 61.2687 75.1806 61.5149C75.1806 61.5149 75.1805 61.5149 75.1805 61.5149L64.5317 67.663C63.9291 68.0109 63.1867 68.0109 62.5841 67.663L62.3341 68.096L62.5841 67.663L57.0453 64.4652L57.0453 64.4652C56.3836 64.0832 55.5681 64.0841 54.9073 64.4675L49.5473 67.5775C49.5472 67.5775 49.5472 67.5776 49.5471 67.5776C49.0481 67.8656 48.4334 67.8655 47.9344 67.5775L38.7418 62.2701C38.4195 62.0841 38.4195 61.619 38.7418 61.4329L38.7427 61.4324L44.4041 58.1474L44.4042 58.1474C44.9168 57.8499 44.9166 57.1089 44.4027 56.8122C44.4026 56.8122 44.4026 56.8122 44.4025 56.8122L39.2893 53.86C38.8709 53.6184 38.8615 53.0179 39.272 52.7633C39.272 52.7633 39.272 52.7633 39.272 52.7633L49.5057 46.4171C50.1157 46.0388 50.8844 46.0267 51.5059 46.3856L51.5059 46.3856L57.0714 49.5989C57.7352 49.9821 58.5535 49.98 59.2152 49.5932C59.2152 49.5932 59.2152 49.5932 59.2152 49.5932L64.7807 46.3408C64.781 46.3406 64.7814 46.3404 64.7817 46.3402C65.2963 46.0436 65.9323 46.0538 66.4371 46.3669L75.2714 51.8452C75.5819 52.0378 75.5748 52.4919 75.2584 52.6746L75.2561 52.6759L69.7103 55.9177Z" fill="#121013" stroke="#252525"/>
<path d="M47.4239 56.6937L56.8322 51.2447C57.3957 50.9183 58.0899 50.9183 58.6534 51.2447L66.5762 55.8333C67.1414 56.1607 67.1414 56.9789 66.5762 57.3062L57.1679 62.7552C56.6044 63.0815 55.9102 63.0815 55.3467 62.7552L47.4239 58.1666C46.8588 57.8392 46.8588 57.021 47.4239 56.6937Z" fill="white"/>
<path d="M68.0079 69.244L66.9768 67.6973L65.9456 70.4346L66.4886 70.1211V71.0484L67.4649 70.4847V69.5574L68.0079 69.244Z" fill="#5D3645"/>
<path d="M68.0079 70.404L65.9456 71.5947V72.0963L68.0079 70.9056V70.404Z" fill="#5D3645"/>
</g>
<defs>
<linearGradient id="paint0_linear_235_10" x1="54.4661" y1="67.428" x2="57.6537" y2="67.428" gradientUnits="userSpaceOnUse">
<stop stop-color="#CC8241"/>
<stop offset="1" stop-color="#DEA861"/>
</linearGradient>
<clipPath id="clip0_235_10">
<rect width="38" height="38" fill="white" transform="translate(38 43)"/>
</clipPath>
</defs>
</svg>
