<svg width="115" height="116" viewBox="0 0 115 116" fill="none" xmlns="http://www.w3.org/2000/svg">
<path fill-rule="evenodd" clip-rule="evenodd" d="M91.2874 46.0354L91.1982 45.7879L91.27 46.1237C91.27 46.1237 91.3319 46.1504 91.2874 46.0354Z" fill="#ED1C24"/>
<path fill-rule="evenodd" clip-rule="evenodd" d="M91.2416 45.7442C91.1249 45.2052 90.9904 44.5954 90.8291 43.9238C90.5848 42.9792 90.2534 42.0587 89.8394 41.1742C89.3557 39.975 88.6509 38.8761 87.762 37.9352C87.629 37.8023 87.7012 38.2264 87.8706 38.7126C88.3767 39.5002 88.812 40.27 89.212 41.0396C89.9712 42.5713 90.6487 44.1417 91.2416 45.7442Z" fill="#ED1C24"/>
<path d="M78.8609 93.6749L77.4442 95.0916C77.6032 95.1098 77.4805 95.3743 76.7935 95.884C76.1065 96.3938 75.2255 96.9735 74.6177 97.3864C74.0099 97.7993 73.8075 98.0017 73.4463 98.2566C72.7996 98.7033 72.1049 99.077 71.3751 99.3708C70.8892 99.5813 70.4155 99.8185 69.9559 100.081C69.7012 100.22 69.4393 100.346 69.1714 100.458C68.6808 100.643 68.1802 100.8 67.6719 100.93C67.469 100.991 67.3105 101.114 66.9753 101.219L65.8992 101.55C65.5376 101.664 65.1847 101.751 64.8141 101.838C64.0553 101.994 63.3229 102.142 62.5905 102.29C61.7185 102.306 60.8488 102.377 59.9864 102.501C59.6333 102.535 59.289 102.578 58.8918 102.603C58.4202 102.612 57.9484 102.593 57.4788 102.546C58.0331 102.3 58.6013 102.087 59.1807 101.907C59.8071 101.724 59.9566 101.574 60.0442 101.362C60.1318 101.151 60.2016 100.904 61.0659 100.624C62.2567 100.249 61.5316 99.9636 61.8484 99.6468C61.9452 99.55 61.8126 99.5054 61.8566 99.4614C61.9719 99.4279 62.09 99.4047 62.2096 99.392L62.651 99.3582C62.801 99.3499 62.907 99.3502 62.907 99.3502C62.9872 99.5713 63.0328 99.9864 63.0506 100.022C63.0684 100.057 63.3422 100.067 63.5012 100.085C63.7198 100.023 63.9323 99.9406 64.1361 99.8402L65.104 98.8722C65.2361 98.7579 65.0154 98.7659 64.6182 98.8087C64.221 98.8515 63.5768 98.9817 62.8442 99.0586C61.2114 99.2737 59.7547 99.3481 58.5629 99.4411C57.3712 99.5341 57.3008 99.6045 58.5375 99.7501C59.465 99.8504 59.8447 99.8606 59.7303 99.975C59.0643 100.128 58.3843 100.214 57.7003 100.233C56.4532 100.351 55.1971 100.356 53.9476 100.246C53.3044 100.201 52.669 100.074 52.0566 99.8689C50.6688 99.4314 48.883 98.8248 47.3001 98.1393C47.132 98.0593 46.4868 97.8716 46.3277 97.8181C45.8762 97.6996 45.4332 97.5505 45.0016 97.372C44.6302 97.2118 44.1702 96.9629 43.9579 96.8739C43.7457 96.7848 43.0293 96.438 42.7642 96.4017C42.4992 96.3655 42.4904 96.3743 42.5967 96.463C42.6819 96.5341 43.1148 96.7942 43.2503 96.862C43.2605 96.8644 43.2727 96.8676 43.2868 96.8716C43.2991 96.8838 43.2837 96.8787 43.2503 96.862C42.8912 96.7772 44.9038 97.6158 43.6058 97.1905C42.785 96.856 41.9846 96.4728 41.2089 96.0431C40.9926 95.9361 40.7854 95.8113 40.5895 95.6701C39.1068 94.6777 37.5675 93.7731 35.9796 92.961C35.2958 92.5591 34.634 92.1205 33.9971 91.6472L33.3863 91.1948C33.1827 91.044 32.9527 90.9195 32.7489 90.7158C32.3238 90.3611 31.8547 90.0327 31.4825 89.6606C30.7829 89.0665 30.0654 88.4371 29.5246 87.8083C28.9838 87.1795 28.3638 86.6299 27.7965 85.9921C27.2291 85.3544 26.7147 84.6992 26.1739 84.0704C25.6331 83.4416 25.1716 82.7689 24.6748 82.1138C22.7866 79.5126 21.1758 76.722 19.8689 73.788C19.6197 73.222 19.3706 72.6913 19.1745 72.1608C18.9784 71.6304 18.8088 71.1088 18.6393 70.6049C18.3229 69.6565 18.0717 68.6879 17.8875 67.706C17.3219 65.1191 17.0432 62.4796 17.0566 59.8355C17.0635 59.2616 17.1121 57.9903 17.0648 57.0983C17.0442 56.7363 17.0459 56.3736 17.0699 56.0122C17.0775 55.6678 17.0852 55.3411 17.1106 55.0322C17.1312 54.453 17.1823 53.8754 17.2636 53.302L17.4701 51.7486C17.5478 51.2279 17.6696 50.6986 17.7735 50.1161C17.9289 49.1941 18.2236 48.3019 18.6473 47.4701C19.0333 46.7298 19.5592 45.619 20.1375 44.3141L21.1282 42.2778C21.479 41.5903 21.8828 40.8853 22.2689 40.1979C22.4531 39.8365 22.6995 39.5901 22.8836 39.2111L23.5408 37.774L24.2248 36.3989L24.6192 35.5438L25.0578 34.7153C25.2833 34.2555 25.5384 33.811 25.8214 33.3846C26.9948 31.6874 28.3001 30.0859 29.7254 28.5946C30.1565 28.173 30.609 27.7737 31.0811 27.3984C31.5571 27.0022 31.9959 26.5633 32.3922 26.0873C32.8326 25.7709 33.3348 25.4459 33.8632 25.0416L34.6646 24.4351L35.4928 23.9082L36.374 23.3814C36.6735 23.1882 36.9907 22.9774 37.3256 22.8019C37.9954 22.4334 38.674 22.056 39.3351 21.714L40.8604 21.057L40.8606 21.0569C41.3808 20.838 41.9009 20.6191 42.386 20.4707C43.5238 20.0949 44.688 19.7105 45.8084 19.4053C46.6223 19.2528 47.4242 19.0432 48.208 18.7779C48.9054 18.7361 49.9911 18.6251 50.1764 18.5816C51.4905 18.3013 52.8296 18.1492 54.1748 18.1275C55.4109 18.0221 56.6541 18.0175 57.8922 18.1139C58.4926 18.0983 59.1462 18.1536 59.8263 18.1824C60.5063 18.2112 61.1951 18.2313 61.8576 18.3131L63.6067 18.5134C64.1897 18.5684 64.7729 18.694 65.3824 18.7756C66.6104 18.9477 67.83 19.2344 69.0759 19.4948C69.9066 19.6743 70.7993 19.9335 71.6742 20.1573C72.0999 20.2703 72.519 20.4074 72.9295 20.5678C73.3274 20.7193 73.8668 20.9419 74.026 21.0131C74.1852 21.0843 74.4593 21.2001 74.6892 21.2892C74.8162 21.3385 74.9378 21.4011 75.0519 21.4759C74.4071 21.4295 76.0341 22.0709 76.8301 22.4445C76.9805 22.5245 77.1573 22.5957 77.3342 22.6847C77.5112 22.7736 77.7233 22.8273 77.865 22.9691L78.9266 23.5202C79.2214 23.6735 79.5079 23.8425 79.7848 24.0265C79.9528 24.1326 80.0952 24.2749 80.2013 24.443C80.4939 24.6526 80.7982 24.8453 81.1128 25.0201C81.5793 25.2874 82.0286 25.5838 82.458 25.9078C83.4409 26.697 83.9105 27.149 85.4155 28.2668C85.5709 28.3879 85.7109 28.5278 85.8319 28.6833C85.5403 28.6205 85.7086 28.7888 86.0099 29.09L86.0099 29.0901L86.5416 29.6217L87.1353 30.2154C87.3775 30.4672 87.5971 30.7398 87.7915 31.03C88.0949 31.4426 88.4236 31.8359 88.7757 32.2078C89.3696 32.8722 89.6893 33.3854 88.9632 32.8001C88.6091 32.534 88.9556 33.1445 89.3108 33.7285C89.8924 34.6495 90.3837 35.6241 90.7779 36.6387C90.9383 37.0631 91.0987 37.4875 91.2328 37.9559C91.3669 38.4244 91.5185 38.8752 91.6616 39.3879C91.9835 40.5546 92.3415 41.9333 92.6738 43.5327L92.7549 44.001C92.4436 43.3729 92.2214 42.9395 92.0878 42.63C91.8742 42.1348 91.8296 42.0022 91.9352 41.8966C92.0408 41.791 91.7917 41.2426 91.1964 40.1898C90.7702 39.5172 90.6365 39.1547 90.2281 38.5176C89.9797 38.1812 89.5005 37.4907 89.0397 37.03C88.9425 37.0032 88.6771 36.8786 88.8721 37.0735C89.5378 38.0737 90.1951 39.1885 90.826 40.3298C90.8875 40.4454 90.902 40.5557 90.9457 40.6408C90.9625 40.6639 90.9789 40.687 90.9951 40.7101C90.9746 40.6896 90.9589 40.6663 90.9457 40.6408C90.7509 40.372 90.5213 40.1061 90.3741 39.8779C89.8594 39.1521 89.3095 38.4437 88.804 37.7974C87.2612 35.894 85.5238 34.1566 83.6204 32.6138C82.788 31.9222 81.9388 31.4954 82.0894 31.646C82.2961 31.9046 82.5309 32.1394 82.7894 32.346C84.0389 33.6131 84.8991 34.6845 86.3976 36.4645C87.0272 37.2526 87.5595 37.9785 88.0212 38.6865L88.3066 39.5175C88.4315 39.8888 88.5831 40.322 88.6904 40.7109C88.7647 40.9726 88.8246 41.2381 88.8698 41.5062C87.5436 39.5309 86 37.7098 84.2682 36.0774C81.7207 33.6924 78.8545 31.6733 75.7528 30.0788C73.8966 29.142 71.9575 28.3814 69.9613 27.807L69.7668 27.7534C69.918 27.8865 70.1009 27.9784 70.2975 28.0201C71.4813 28.1655 71.6862 28.7048 72.3673 29.0516C73.1287 29.5986 73.9745 30.0163 74.8705 30.2876C74.9177 30.3161 74.9572 30.3557 74.9857 30.4028C75.4995 30.8638 75.5102 31.4024 76.5534 31.7769C76.6523 32.2806 77.6866 32.6285 77.9534 33.1769C78.3312 33.6246 78.7462 34.0396 79.194 34.4175C79.2713 34.4426 79.3515 34.4577 79.4325 34.4624C80.1923 34.571 80.4045 34.6601 80.5028 35.0048C80.6012 35.3495 81.415 35.7762 81.1777 36.102C81.3941 36.4011 81.6407 36.6771 81.9135 36.9258C82.268 37.3155 82.6915 37.1934 82.6915 37.1934L82.9475 37.1855C82.9654 37.2848 82.9658 37.3864 82.9485 37.4857C82.9666 37.6094 82.7725 37.6617 82.8434 37.7326C82.9375 37.8671 83.0545 37.9841 83.189 38.0781C83.2421 38.1136 83.375 38.2465 83.4098 38.0877C83.4446 37.9289 83.4259 37.6286 83.4345 37.5668C83.4431 37.505 83.6639 37.5146 83.7525 37.6033C83.8774 37.7026 83.9726 37.8343 84.0275 37.9839C83.9747 38.0367 83.8682 37.8774 83.8339 38.1775C83.7997 38.4776 83.6063 38.7242 84.3225 39.0004C84.4894 39.1888 84.611 39.4128 84.6779 39.655C84.7499 40.0438 84.8215 40.3266 85.0855 40.0626L85.3248 40.3019C85.0429 40.5128 85.2202 40.69 85.6451 41.0094C85.8442 41.265 85.9922 41.5563 86.0808 41.8674C86.0985 41.9028 86.0018 41.9996 85.7631 41.937C85.5245 41.8743 85.5428 42.051 85.4815 42.2186C85.298 42.7742 85.0241 42.7115 84.4389 42.0207C84.1197 41.6487 83.6854 41.1792 83.5715 41.4349C83.4576 41.6906 83.1931 41.8133 82.9995 42.0068L83.3191 42.4848C83.5881 42.862 83.7596 43.2995 83.818 43.758C83.8325 43.8677 83.8626 43.9749 83.9074 44.0762C84.0221 44.2262 84.1562 44.3603 84.3061 44.475C84.8012 44.9186 85.1123 45.5313 85.1774 46.191C85.1717 46.4052 85.2116 46.6185 85.2945 46.8167C85.3774 47.0149 85.5014 47.1935 85.6582 47.3406C85.8952 47.7189 86.0108 48.1601 85.9893 48.6044C86.2337 49.3445 86.3703 50.1153 86.3946 50.8928C86.3957 51.1931 86.2458 51.2544 86.0863 51.0949C86.0287 51.0118 85.9566 50.9398 85.8736 50.8822C85.8301 51.0675 85.7776 51.2086 85.7431 51.438C85.7086 51.6675 85.948 51.9597 86.0979 51.8984C86.4452 51.7818 86.82 51.7708 87.1751 51.8668C87.2654 51.8824 87.3542 51.9064 87.4402 51.9384C87.3789 52.0707 87.3442 52.2648 87.265 52.344C87.2032 52.3799 87.1337 52.4008 87.0621 52.4051C87.269 52.6466 87.4046 52.9407 87.4536 53.2541C87.5428 53.5194 87.6742 53.2108 87.7704 52.9374C88.1119 52.0997 88.3672 51.8975 88.6503 52.0574C88.6946 52.084 88.7041 52.2695 88.7749 52.3404C88.7078 53.3468 88.6933 54.2474 88.6435 55.1832C88.9428 54.9194 89.3223 54.8589 89.5775 54.6037C89.7205 54.514 89.8745 54.4433 90.0359 54.3934C90.0873 53.9167 90.1474 53.4313 90.1634 52.9545C90.2116 52.2259 90.2209 51.4949 90.1911 50.7647L90.1295 50.8263L90.0409 50.7377L90.1465 50.6321L90.137 50.4467L90.1307 50.3678C90.0125 48.8963 89.883 47.2847 89.6176 45.8091C89.2667 43.9094 88.8021 42.3537 88.7827 41.8415C88.7847 41.7587 88.7785 41.6759 88.7642 41.5942C89.516 42.7088 90.1955 43.8703 90.7983 45.0714C90.9495 45.381 91.1538 45.7438 91.3228 46.0887C91.4485 46.6896 91.5651 47.211 91.6902 47.6353C91.8218 48.3002 91.9068 48.9732 91.9444 49.6494C91.9973 50.2545 92.0171 50.8618 92.0037 51.4686L92.0569 51.5218C92.2621 52.1494 92.4143 52.7415 92.5664 53.2984L92.9954 54.801L93.1654 55.4462L93.2283 55.7554C93.3218 54.705 93.3888 53.6456 93.3939 52.5772L93.3125 52.0206L93.2225 51.5435L93.0515 50.5981C92.9281 49.8764 92.7514 49.1645 92.5231 48.4682C92.2638 47.5955 92.0486 46.7106 91.8782 45.8169C91.7263 45.3131 91.5125 44.7649 91.3163 44.2167L90.675 42.6251C89.7716 40.6371 88.6579 38.7505 87.3531 36.9977C87.3172 36.8386 87.4147 36.936 87.4147 36.936C88.2988 37.881 89.1 38.9 89.8093 39.9819C90.3202 40.7317 90.7577 41.5287 91.1156 42.3617C91.2228 42.7153 91.3743 43.1308 91.5969 43.6526C92.2549 45.3025 92.7776 47.0023 93.1598 48.7353L93.2407 49.1329C93.1059 47.4619 92.882 45.7987 92.57 44.1504C92.7656 44.5396 92.9967 44.9996 93.2635 45.548C93.4059 45.8664 93.5484 46.2024 93.682 46.5296C93.8155 46.8568 93.9403 47.1927 94.0475 47.5287C94.2793 48.1829 94.4494 48.8634 94.5925 49.376C94.7356 49.8887 94.9947 50.7814 95.1651 51.5325C95.3355 52.2837 95.426 52.9198 95.2211 52.3981C95.0162 51.8764 94.6124 50.0118 94.2108 48.7831C94.1662 48.6681 94.0415 48.3498 94.0058 48.2437C93.9701 48.1377 93.9432 48.0228 93.8989 47.9785L93.8192 47.8987C93.7396 47.872 93.5888 47.6683 93.7139 48.0926C93.839 48.5169 93.9375 48.9323 94.0007 49.3122C94.0638 49.6921 94.1446 50.072 94.1899 50.4166C94.2807 51.1233 94.3624 51.7858 94.4002 52.4747C94.4379 53.1636 94.4934 53.8878 94.5491 54.6827C94.5858 55.089 94.5874 55.5306 94.589 55.9897L94.6207 57.4998C94.5147 57.4818 94.5156 57.7643 94.5612 58.1618L94.6895 59.5044L94.7996 60.7057C94.8405 61.1049 94.8595 61.5059 94.8567 61.9068L94.8736 64.2115L94.8797 65.9775C94.863 66.26 94.8029 66.7455 94.7512 67.1338C94.7022 67.2637 94.6342 67.3854 94.5494 67.4952C94.4349 67.5919 94.4432 67.4242 94.3552 67.5122C94.2608 67.7507 94.182 67.9952 94.1193 68.2442C94.0066 68.6535 93.9166 69.0688 93.8499 69.4883C93.895 69.7446 93.991 69.4358 94.0006 69.639C93.9889 70.0274 93.9459 70.4141 93.8721 70.7953L93.1628 72.5147C93.0212 72.8645 92.8542 73.2033 92.663 73.5284C92.4347 73.8454 92.2902 74.2154 92.2429 74.6042C92.1999 74.9643 92.1333 75.3209 92.0435 75.672L91.9299 75.9983C91.835 76.174 91.7263 76.342 91.6049 76.5005C91.455 76.5441 91.4719 76.3499 91.322 76.4112C90.9325 76.8058 90.6091 77.2608 90.3642 77.7588C90.4881 77.7133 90.6207 77.6956 90.7526 77.7072C91.0088 77.7523 91.2992 77.4619 91.528 77.2331C91.6072 77.1715 91.6415 76.8714 91.7572 77.1279C91.8009 77.2296 91.831 77.3367 91.8466 77.4461C91.4415 77.7626 91.6285 78.1959 91.5415 78.5841C91.4546 78.9724 91.5091 79.4317 91.3425 79.7578C91.0791 80.4686 90.6113 81.0844 89.9976 81.528C89.8835 81.5696 89.7583 81.5711 89.6426 81.5322C89.527 81.4933 89.4277 81.4163 89.3611 81.3139C89.21 81.022 88.8915 80.8443 88.7315 80.5435L88.0115 81.7242C87.6427 82.3057 87.3092 82.8874 86.9665 83.3895L85.8335 85.1427L84.6737 86.7988C84.2872 87.3625 83.8651 87.8909 83.4344 88.4457C83.0036 89.0005 82.5731 89.6083 82.0275 90.1538L79.9697 92.5661L79.4505 93.0853L79.1865 93.3493L78.8609 93.6749Z" fill="#ED1C24"/>
<path d="M74.5334 46.8198V58.8332C74.5334 69.7738 67.1037 79.3136 56.4911 82C45.8963 79.3225 38.4666 69.7738 38.4666 58.8332V46.8198C46.8095 45.88 51.535 42.706 56.5 39C61.4649 42.706 66.1905 45.88 74.5334 46.8198Z" fill="#121013"/>
<path d="M56.5 77.2567C48.5118 74.721 43.0237 67.3091 43.0237 58.8332V50.6942C48.6359 49.4707 52.7586 47.2099 56.5 44.6299C60.3212 47.2808 64.3641 49.4973 69.9763 50.7031V58.842C69.9763 67.3091 64.4882 74.721 56.5 77.2567Z" fill="#221F23"/>
<path d="M53.5122 67.8499L49.0703 63.4081L51.3223 61.1472L53.5122 63.3283L61.6777 55.1716L63.9297 57.4235L53.5122 67.8499Z" fill="white"/>
</svg>
