<svg width="298" height="39" viewBox="0 0 298 39" fill="none" xmlns="http://www.w3.org/2000/svg">
<path d="M18 35.5C26.373 35.5 30.7594 32.2593 34.9705 28.8361C35.2049 28.6455 35.4394 28.4537 35.6745 28.2614L35.6761 28.2601C39.7122 24.9584 43.94 21.5 51.3333 21.5C60.0186 21.5 65.0612 25.1332 69.8453 28.5802L70.1265 28.7827C74.9385 32.2474 79.609 35.5 88 35.5C96.507 35.5 100.964 32.2524 105.235 28.8295C105.471 28.6398 105.708 28.4489 105.945 28.2575L105.947 28.2563L105.949 28.2549C110.045 24.9515 114.325 21.5 121.81 21.5C130.606 21.5 135.713 25.1276 140.568 28.576L140.85 28.7768C145.536 32.1029 150.097 35.2401 157.999 35.4847C165.862 35.2406 170.134 32.1159 174.235 28.8295C174.47 28.6411 174.705 28.4514 174.941 28.2612L174.949 28.2549C179.045 24.9515 183.325 21.5 190.81 21.5C199.606 21.5 204.713 25.1276 209.568 28.576L209.85 28.7768C214.73 32.2409 219.475 35.5 228 35.5C236.373 35.5 240.759 32.2593 244.97 28.8361C245.205 28.6451 245.44 28.4528 245.676 28.2601C249.712 24.9584 253.94 21.5 261.333 21.5C270.019 21.5 275.061 25.1332 279.845 28.5802L280.126 28.7827C284.938 32.2474 289.609 38.5 298 38.5C288.613 38.5 283.284 34.7526 278.374 31.2173L278.191 31.0858C273.41 27.6425 269.046 24.5 261.333 24.5C255.03 24.5 251.556 27.3345 247.481 30.6603L247.478 30.6628C247.274 30.8287 247.07 30.9959 246.863 31.1639C242.463 34.7407 237.405 38.5 228 38.5C218.493 38.5 213.095 34.7591 208.114 31.2232L207.926 31.0896C203.079 27.6481 198.645 24.5 190.81 24.5C184.402 24.5 180.871 27.3414 176.74 30.6647C176.532 30.8322 176.322 31.0009 176.111 31.1705C171.97 34.4887 167.263 37.9578 159 38.4425V38.5C158.661 38.5 158.328 38.4953 158 38.4859C157.672 38.4953 157.339 38.5 157 38.5V38.4428C148.714 37.9599 143.735 34.5033 139.114 31.2232L138.926 31.0896C134.079 27.6481 129.645 24.5 121.81 24.5C115.402 24.5 111.871 27.3414 107.74 30.6647C107.532 30.8322 107.322 31.0009 107.111 31.1705C102.647 34.7476 97.5247 38.5 88 38.5C78.6132 38.5 73.2837 34.7526 68.3735 31.2173L68.1909 31.0858C63.4098 27.6425 59.0464 24.5 51.3333 24.5C45.03 24.5 41.5564 27.3345 37.4809 30.6603L37.4768 30.6635C37.2738 30.8292 37.0693 30.9961 36.8628 31.1639C32.4628 34.7407 27.4048 38.5 18 38.5C9.99456 38.1507 5.2288 33.3896 2.51712 28.4022L2.04423 27.5206C0.582167 24.6321 -0.116233 21.4166 0.0157718 18.1808C0.147777 14.9451 1.10576 11.7972 2.79823 9.03779C4.4907 6.27837 6.8612 3.99949 9.68337 2.41872C12.5055 0.837954 15.6852 0.00809372 18.9187 0.00831761C20.9534 -0.0591124 22.9808 0.284003 24.8804 1.01727C26.78 1.75054 28.5128 2.85898 29.976 4.27663C31.4391 5.69427 32.6026 7.39213 33.3972 9.26927C34.1918 11.1464 34.6012 13.1644 34.6012 15.2033C34.6012 17.2421 34.1918 19.2602 33.3972 21.1373C32.6026 23.0145 31.4391 24.7124 29.976 26.13C28.5128 27.5477 26.78 28.6561 24.8804 29.3894C22.9808 30.1226 20.9534 30.4658 18.9187 30.3983C17.4775 30.4552 16.0397 30.22 14.6915 29.7069C13.3433 29.1938 12.1124 28.4132 11.0726 27.4121C10.0329 26.411 9.20565 25.21 8.64061 23.8809C8.07557 22.5519 7.78432 21.1223 7.78432 19.6778C7.78432 18.2333 8.07557 16.8037 8.64061 15.4747C9.20565 14.1456 10.0329 12.9446 11.0726 11.9435C12.1124 10.9424 13.3433 10.1619 14.6915 9.64877C16.0397 9.13563 17.4775 8.90041 18.9187 8.95728C20.76 8.95728 22.5258 9.68984 23.8278 10.9938C25.1298 12.2977 25.8612 14.0662 25.8612 15.9103C25.8612 17.7543 25.1298 19.5228 23.8278 20.8267C22.5258 22.1306 20.76 22.8632 18.9187 22.8632C18.7374 22.8839 18.5538 22.8659 18.3799 22.8106C18.206 22.7552 18.0457 22.6637 17.9096 22.542C17.7734 22.4203 17.6645 22.2711 17.5899 22.1043C17.5154 21.9375 17.4768 21.7568 17.4768 21.5741C17.4768 21.3913 17.5154 21.2106 17.5899 21.0438C17.6645 20.877 17.7734 20.7279 17.9096 20.6062C18.0457 20.4845 18.206 20.3929 18.3799 20.3376C18.5538 20.2822 18.7374 20.2643 18.9187 20.285C20.0285 20.2163 21.0704 19.7264 21.832 18.9151C22.5936 18.1038 23.0177 17.0322 23.0177 15.9186C23.0177 14.805 22.5936 13.7333 21.832 12.922C21.0704 12.1107 20.0285 11.6208 18.9187 11.5522C16.7647 11.5522 14.699 12.4091 13.1758 13.9345C11.6527 15.4599 10.797 17.5289 10.797 19.6861C10.797 21.8434 11.6527 23.9123 13.1758 25.4377C14.699 26.9631 16.7647 27.8201 18.9187 27.8201C22.2577 27.8201 25.4599 26.4917 27.8209 24.1271C30.1818 21.7626 31.5082 18.5556 31.5082 15.2116C31.5082 11.8677 30.1818 8.66065 27.8209 6.29611C25.4599 3.93157 22.2577 2.60319 18.9187 2.60319C14.6036 2.48736 10.4184 4.08769 7.27837 7.05415C4.13833 10.0206 2.29911 14.1117 2.16298 18.4327C2.02685 22.7537 3.60488 26.9528 6.55194 30.1116C9.499 33.2704 13.6862 35.3432 18 35.5Z" fill="#341E3E"/>
</svg>
