<svg width="35" height="35" viewBox="0 0 35 35" fill="none" xmlns="http://www.w3.org/2000/svg">
<rect width="35" height="35" rx="6" fill="#9C38DA"/>
<path d="M23.6046 10.8857C23.3235 10.8857 23.0947 11.1145 23.0947 11.3956C23.0947 11.6766 23.3235 11.9054 23.6046 11.9054C23.8857 11.9054 24.1144 11.6767 24.1144 11.3956C24.1144 11.1144 23.8857 10.8857 23.6046 10.8857Z" fill="white"/>
<path d="M17.5003 13.3921C15.2348 13.3921 13.3916 15.2352 13.3916 17.5008C13.3916 19.7663 15.2348 21.6095 17.5003 21.6095C19.7658 21.6095 21.609 19.7663 21.609 17.5008C21.609 15.2353 19.7658 13.3921 17.5003 13.3921Z" fill="white"/>
<path d="M22.2432 7H12.7568C9.58251 7 7 9.58251 7 12.7569V22.2432C7 25.4175 9.58251 28 12.7568 28H22.2432C25.4175 28 28 25.4175 28 22.2432V12.7569C28 9.58251 25.4175 7 22.2432 7ZM17.5 23.2599C14.324 23.2599 11.7401 20.676 11.7401 17.5C11.7401 14.324 14.324 11.7402 17.5 11.7402C20.676 11.7402 23.2599 14.324 23.2599 17.5C23.2599 20.676 20.676 23.2599 17.5 23.2599ZM23.6044 13.1456C22.6395 13.1456 21.8544 12.3606 21.8544 11.3956C21.8544 10.4307 22.6395 9.64563 23.6044 9.64563C24.5693 9.64563 25.3544 10.4307 25.3544 11.3956C25.3544 12.3605 24.5693 13.1456 23.6044 13.1456Z" fill="white"/>
</svg>
