<svg width="619" height="779" viewBox="0 0 619 779" fill="none" xmlns="http://www.w3.org/2000/svg">
<mask id="mask0_2_27151" style="mask-type:alpha" maskUnits="userSpaceOnUse" x="0" y="0" width="619" height="780">
<path d="M189.5 761.5L103.5 482.5L0 418C8.83333 336.833 26.5 172.9 26.5 166.5C26.5 160.1 65.8333 52.8333 85.5 0L461 135.5C512.333 234.5 615.7 435.6 618.5 448C621.3 460.4 519.667 640.5 468.5 729L387 745L342.5 756L304 779L262.5 767L189.5 761.5Z" fill="#C4C4C4"/>
</mask>
<g mask="url(#mask0_2_27151)">
<path d="M277.785 237.969C298.528 251.426 311.618 290.065 316.584 305.372C311.83 284.833 297.772 241.775 279.574 233.858C256.826 223.96 234.799 245.718 203.956 239.094C164.011 230.515 149.238 119.13 120.296 93.5003C155.895 136.043 148.276 198.505 185.175 235.812C213.472 264.421 251.857 221.146 277.785 237.969Z" fill="#9C38DA"/>
<path d="M268.507 262.29C291.406 271.617 308.285 288.784 316.034 302.887C307.511 283.605 288.853 262.279 269.492 257.916C245.291 252.463 219.547 272.932 191.234 261.591C153.89 246.633 154.055 199.456 102.695 182.651C149.013 202.803 140.172 233.358 183.416 263.079C216.578 285.871 239.883 250.631 268.507 262.29Z" fill="white"/>
<mask id="mask1_2_27151" style="mask-type:alpha" maskUnits="userSpaceOnUse" x="102" y="182" width="215" height="121">
<path d="M268.506 262.29C291.405 271.617 308.284 288.784 316.033 302.887C307.51 283.605 288.852 262.279 269.491 257.916C245.29 252.463 219.546 272.932 191.233 261.591C153.889 246.633 154.054 199.456 102.694 182.651C149.012 202.803 140.171 233.358 183.415 263.079C216.577 285.871 239.882 250.631 268.506 262.29Z" fill="#9C38DA"/>
</mask>
<g mask="url(#mask1_2_27151)">
<path d="M207.916 268.197C215.285 268.802 253.277 255.338 254.731 254.993C243.767 255.22 221.469 255.776 219.992 256.176C218.144 256.676 178.912 253.948 180.973 257.453C183.034 260.957 194.068 267.062 207.916 268.197Z" fill="#F4F4F4"/>
</g>
<path d="M312.353 303.857C319.016 298.282 321.588 308.853 319.203 314.334L314.924 314.429C312.49 312.283 305.69 309.433 312.353 303.857Z" fill="#91A6B8"/>
<path d="M324.988 481.718L329.289 728.032L343.226 975.256L314.199 946.088L304.544 722.223L304.444 482.295L324.988 481.718Z" fill="#9ECFFF"/>
<path d="M304.432 482.286C304.154 480.226 303.798 304.162 303.798 304.162L326.637 317.243L327.592 477.076L304.432 482.286Z" fill="#703232"/>
<path d="M314.98 318.039C314.581 371.647 312.54 475.13 312.187 476.541L300.71 479.696L303.519 303.925L314.98 318.039Z" fill="#5F2427"/>
<path d="M314.753 322.314L308.42 334.898L316.029 344.075L322.386 333.921L314.753 322.314Z" fill="#FFC370"/>
<path d="M314.613 359.417L308.279 371.991L315.888 381.168L322.256 371.013L314.613 359.417Z" fill="#FFC370"/>
<path d="M315.139 394.191L308.795 406.767L316.414 415.942L322.773 405.799L315.139 394.191Z" fill="#FFC370"/>
<path d="M291.524 479.522L341.587 469.098L341.677 485.429L293.156 491.585L291.524 479.522Z" fill="#91A6B8"/>
<path d="M304.437 490.152L313.113 498.534L316.87 723.701L324.59 924.269L341.838 950.572L343.226 975.255L314.199 946.087L304.544 722.222L304.437 490.152Z" fill="#CCE5FF"/>
</g>
</svg>
