<svg width="911" height="750" viewBox="0 0 911 750" fill="none" xmlns="http://www.w3.org/2000/svg">
<g filter="url(#filter0_f_2_26929)">
<ellipse rx="369.916" ry="9.5743" transform="matrix(-0.910924 -0.412573 -0.412573 0.910924 437.579 296.803)" fill="white"/>
</g>
<path d="M834.184 518.803C829.537 490.924 795.007 459.583 781.227 447.397C800.588 461.747 839.309 496.117 839.309 518.803C839.309 547.161 806.458 560.326 799.335 595.675C790.11 641.457 900.123 707.738 913.789 749.762C885.432 693.047 816.486 672.548 794.21 616.858C777.128 574.151 839.992 553.652 834.184 518.803Z" fill="#9C38DA"/>
<path d="M804.46 517.437C805.127 489.181 794.831 463.66 783.582 449.106C799.906 466.833 813.75 496.115 809.494 518.398C804.173 546.252 770.978 563.902 769.953 598.75C768.601 644.715 818.126 666.056 812.318 727.554C812.318 669.814 776.259 665.147 764.828 606.267C756.062 561.113 803.626 552.756 804.46 517.437Z" fill="white"/>
<mask id="mask0_2_26929" style="mask-type:alpha" maskUnits="userSpaceOnUse" x="763" y="449" width="50" height="279">
<path d="M804.46 517.437C805.127 489.181 794.831 463.66 783.582 449.106C799.906 466.833 813.75 496.115 809.494 518.398C804.173 546.252 770.978 563.902 769.953 598.75C768.601 644.715 818.126 666.056 812.318 727.554C812.318 669.814 776.259 665.147 764.828 606.267C756.062 561.113 803.626 552.756 804.46 517.437Z" fill="white"/>
</mask>
<g mask="url(#mask0_2_26929)">
<path d="M770.635 578.251C773.363 570.251 804.801 536.569 805.826 535.203C800.587 546.591 789.836 569.71 788.743 571.076C787.376 572.785 772.344 615.15 769.61 611.391C766.877 607.633 765.511 593.284 770.635 578.251Z" fill="#F4F4F4"/>
</g>
<path d="M780.886 452.522C789.769 448.081 779.861 440.564 773.028 440.564L770.978 445.006C772.117 448.536 772.003 456.964 780.886 452.522Z" fill="#91A6B8"/>
<path d="M600.22 358.163L344.003 241.326L91.2278 113.973L108.563 157.7L338.808 269.912L590.246 379.434L600.22 358.163Z" fill="#9ECFFF"/>
<path d="M590.251 379.45C592.283 380.682 776.665 461.347 776.665 461.347L773.369 431.442L606.273 357.552L590.251 379.45Z" fill="#703232"/>
<path d="M767.219 443.298C710.846 419.269 601.448 374.216 599.808 373.942L591.267 384.534L776.785 461.748L767.219 443.298Z" fill="#5F2427"/>
<path d="M762.634 441.587L746.556 442.485L740.407 430.325L753.949 428.292L762.634 441.587Z" fill="#FFC370"/>
<path d="M723.679 424.813L707.611 425.717L701.462 413.557L715.011 411.514L723.679 424.813Z" fill="#FFC370"/>
<path d="M687.471 408.403L671.396 409.318L665.253 397.148L678.785 395.109L687.471 408.403Z" fill="#FFC370"/>
<path d="M587.26 394.242L621.017 346.521L603.941 338.979L575.361 387.03L587.26 394.242Z" fill="#91A6B8"/>
<path d="M582.007 375.858L577.178 362.941L342.879 256.317L136.171 156.758L116.467 126.684L91.2278 113.972L108.563 157.699L338.808 269.912L582.007 375.858Z" fill="#CCE5FF"/>
<defs>
<filter id="filter0_f_2_26929" x="0.590103" y="43.9321" width="873.978" height="505.741" filterUnits="userSpaceOnUse" color-interpolation-filters="sRGB">
<feFlood flood-opacity="0" result="BackgroundImageFix"/>
<feBlend mode="normal" in="SourceGraphic" in2="BackgroundImageFix" result="shape"/>
<feGaussianBlur stdDeviation="50" result="effect1_foregroundBlur_2_26929"/>
</filter>
</defs>
</svg>
