<svg width="23" height="23" viewBox="0 0 23 23" fill="none" xmlns="http://www.w3.org/2000/svg">
<g clip-path="url(#clip0_2_26997)">
<path d="M13.1771 17.7291H1.67708C0.752291 17.7291 0 18.4814 0 19.4062V21.3229C0 22.2477 0.752291 23 1.67708 23H13.1771C14.1019 23 14.8542 22.2477 14.8542 21.3229V19.4062C14.8542 18.4814 14.1019 17.7291 13.1771 17.7291ZM13.4167 21.3229C13.4167 21.4551 13.3093 21.5625 13.1771 21.5625H1.67708C1.54483 21.5625 1.4375 21.4551 1.4375 21.3229V19.4062C1.4375 19.274 1.54483 19.1666 1.67708 19.1666H13.1771C13.3093 19.1666 13.4167 19.274 13.4167 19.4062V21.3229Z" fill="white"/>
<path d="M14.7018 9.05435C15.1695 8.48606 15.5605 7.90627 15.7694 7.37439C15.7761 7.37439 15.7828 7.37631 15.7886 7.37631C16.216 7.37631 16.6444 7.21339 16.9692 6.88756L17.642 6.21577C18.2937 5.5641 18.2937 4.50514 17.642 3.85348L14.2782 0.489726C13.6266 -0.16194 12.5676 -0.16194 11.9169 0.489726L11.2441 1.16248C10.9154 1.49118 10.7535 1.92339 10.7573 2.3556C10.4401 2.48306 10.1689 2.65268 10.0194 2.74756C8.69786 3.58802 6.93931 5.34752 6.09981 6.66906C6.00494 6.81664 5.83627 7.08689 5.70977 7.40218C5.27756 7.39931 4.84535 7.56031 4.51569 7.88902L3.8439 8.56272C3.5286 8.87802 3.35419 9.29681 3.35419 9.74339C3.35419 10.19 3.5286 10.6088 3.8439 10.9241L7.20765 14.2878C7.53348 14.6136 7.9609 14.7766 8.38831 14.7766C8.81573 14.7766 9.24411 14.6136 9.56898 14.2878L10.2417 13.6151C10.5714 13.2854 10.7334 12.8503 10.7286 12.4171C11.0429 12.2906 11.3151 12.1268 11.4626 12.0328C11.7549 11.8469 12.0741 11.6093 12.4028 11.3409C14.8245 14.1613 18.2841 17.9649 18.9051 18.5869C19.4552 19.137 20.1749 19.6506 20.9434 19.6506C21.4025 19.6506 21.8807 19.4666 22.3493 18.9971C22.5218 18.8246 22.9243 18.4221 22.9895 17.7723C23.0604 17.067 22.7068 16.3195 21.9392 15.5528C21.3258 14.9366 17.5308 11.4837 14.7018 9.05435ZM12.26 2.17831L12.9327 1.50556C12.9778 1.46052 13.0372 1.43752 13.0976 1.43752C13.157 1.43752 13.2174 1.46052 13.2624 1.50556L16.6262 4.86931C16.7172 4.96035 16.7172 5.10793 16.6262 5.19898L15.9534 5.87077C15.8624 5.96085 15.7148 5.96085 15.6237 5.87077L12.26 2.50702C12.1699 2.41598 12.1699 2.26935 12.26 2.17831ZM9.22494 12.5983L8.55219 13.271C8.46115 13.3601 8.31356 13.3601 8.22348 13.271L4.85973 9.90726C4.80031 9.84785 4.79169 9.77885 4.79169 9.74339C4.79169 9.70793 4.80031 9.63893 4.85973 9.57856L5.53248 8.90581C5.57752 8.86077 5.6379 8.83776 5.69731 8.83776C5.75673 8.83776 5.8171 8.86077 5.86215 8.90581L9.2259 12.2696C9.31598 12.3596 9.31598 12.5082 9.22494 12.5983ZM10.1152 11.1263L7.00448 8.01552C7.2594 6.97093 10.3251 3.90427 11.3697 3.64935L14.4804 6.7601C14.2284 7.79893 11.1589 10.8723 10.1152 11.1263ZM21.3344 17.9812C21.1227 18.194 20.8323 18.4796 19.9219 17.5701C19.3842 17.0325 15.9678 13.2883 13.4713 10.3788C13.5144 10.3366 13.6898 10.1641 13.7339 10.1191C16.653 12.6232 20.3905 16.0358 20.9233 16.5677C21.5328 17.1772 21.5712 17.5116 21.5597 17.6276C21.5482 17.7579 21.4552 17.8605 21.3344 17.9812Z" fill="white"/>
</g>
<defs>
<clipPath id="clip0_2_26997">
<rect width="23" height="23" fill="white"/>
</clipPath>
</defs>
</svg>
