<svg width="133" height="99" viewBox="0 0 133 99" fill="none" xmlns="http://www.w3.org/2000/svg" xmlns:xlink="http://www.w3.org/1999/xlink">
<path fill-rule="evenodd" clip-rule="evenodd" d="M64.9469 0C79.1311 0 91.3035 8.67718 96.4448 21.0122C95.9774 21.0325 95.5507 21.1951 95.1849 21.4389C94.5549 20.5042 93.4982 19.8945 92.2789 19.8945C90.6736 19.8945 89.3324 20.9715 88.9056 22.4347C88.5805 22.3331 88.2553 22.2924 87.9099 22.2924C86.7922 22.2924 85.8168 22.8005 85.1665 23.6133H85.1055L72.2422 26.1535H84.4146H85.1055H90.0639H91.3848H94.4533H94.6972H96.5871H98.1111C98.7208 28.7139 99.0459 31.376 99.0459 34.1194C99.0459 39.5655 97.7657 44.7068 95.4897 49.2791L95.3068 49.2587C95.2052 48.771 94.9004 48.3646 94.494 48.1207C94.4533 47.3079 93.7827 46.6779 92.9699 46.6779C92.6651 46.6779 92.3602 46.7795 92.1367 46.9421C91.7709 46.3934 91.141 46.0277 90.4297 46.0277C89.4746 46.0277 88.6821 46.6576 88.4382 47.5314C88.2553 47.4705 88.0521 47.4501 87.8489 47.4501C87.1986 47.4501 86.6093 47.755 86.2232 48.2223H86.1826L78.3182 49.7261H85.7558H86.1622H89.1088H89.881H91.6896H91.8319H92.9495H95.3068C89.6372 60.7199 78.176 68.2388 64.9672 68.2388C52.4899 68.2388 41.5977 61.5531 35.6436 51.555H35.7046H35.8468H37.6554H38.4276H41.3742H41.7806H53.6889L41.3742 50.0513H41.3336C40.9474 49.5839 40.3785 49.2791 39.7079 49.2791C39.5046 49.2791 39.3014 49.2994 39.1185 49.3603C38.8747 48.4865 38.0618 47.8566 37.1271 47.8566C36.4158 47.8566 35.7858 48.2223 35.4201 48.771C35.1762 48.6085 34.8917 48.5068 34.5869 48.5068C34.404 48.5068 34.2414 48.5272 34.0789 48.5881C32.0264 44.1987 30.8681 39.3216 30.8681 34.16H33.3879H34.6072H39.2201H39.8704H51.2097L39.2201 31.3963H39.1592C38.5699 30.5225 37.6351 29.9739 36.5987 29.9739C36.2736 29.9739 35.9687 30.0348 35.6639 30.1364C35.2778 28.5514 34.0179 27.3931 32.5344 27.3931C32.1483 27.3931 31.7826 27.4743 31.4371 27.6166C31.5184 27.1492 31.62 26.6818 31.7419 26.2347H31.9858H32.1077H33.5505H34.1805H36.5174H36.8426H43.386L36.5174 25.0358H36.4971C36.1923 24.6497 35.7249 24.4058 35.1965 24.4058C35.034 24.4058 34.8714 24.4262 34.7291 24.4668C34.5259 23.7759 33.896 23.2678 33.1441 23.2678C32.9409 23.2678 32.7377 23.3085 32.5548 23.3694C37.0661 9.79485 49.8685 0 64.9469 0Z" fill="#341E3E"/>
<path fill-rule="evenodd" clip-rule="evenodd" d="M34.1804 65.9834C34.2413 66.1866 34.3632 66.3695 34.6071 66.4914C35.5216 66.9385 36.436 67.3856 37.3505 67.853C37.635 67.9952 37.8991 68.1375 38.1836 68.2797C38.2852 68.3407 38.4275 68.4016 38.5494 68.4829C38.9558 68.7674 39.5045 69.0113 39.9719 69.2145C40.6222 69.499 41.2928 69.7632 41.9634 70.007C43.1624 70.4541 44.3613 70.8808 45.5603 71.2873L45.9667 71.4295L48.8929 68.6658L47.7143 68.3C47.2266 68.1578 46.7592 67.9749 46.2918 67.7717C45.6415 67.5075 44.9913 67.2433 44.341 66.9588C42.7356 66.2679 41.1505 65.5567 39.5858 64.8251C38.4072 64.2764 37.2489 63.7277 36.0906 63.1791C35.8873 63.0775 35.6841 63.0368 35.5012 63.0775C29.9535 60.4154 24.4465 57.5298 19.1629 54.3597C15.9928 52.4495 12.8634 50.4173 9.87613 48.2023C6.09638 45.3573 3.17012 42.8375 0 39.4438C0.955099 51.1489 23.9994 60.9031 34.1804 65.9834Z" fill="#291F1D"/>
<path fill-rule="evenodd" clip-rule="evenodd" d="M40.501 66.0645C41.009 66.288 41.4967 66.5115 41.9641 66.7351C41.8625 67.0602 41.5983 67.8324 41.0293 68.3811C41.0293 68.3811 42.4721 67.7918 42.716 67.2431C42.7363 67.1821 42.7566 67.1415 42.7769 67.1008C42.8989 67.1618 43.0411 67.2228 43.163 67.2634C43.0411 67.6292 42.7769 68.3201 42.2486 68.8281C42.2486 68.8281 43.6914 68.2388 43.9352 67.6902C43.9556 67.6698 43.9556 67.6292 43.9759 67.6089C44.1181 67.6698 44.2401 67.7308 44.3823 67.7714C44.2604 68.1575 43.9759 68.8078 43.4882 69.2752C43.4882 69.2752 44.931 68.6859 45.1748 68.1372C45.1748 68.1169 45.1748 68.1169 45.1952 68.0966C45.3374 68.1575 45.4593 68.1982 45.6016 68.2591C45.4593 68.6453 45.1952 69.2549 44.7278 69.7223C44.7278 69.7223 46.1706 69.133 46.4144 68.5843V68.564C46.5973 68.6249 46.7802 68.6859 46.9428 68.7469L45.2155 70.3726C45.2155 70.3726 41.6999 69.1939 39.6475 68.2998C40.0539 67.995 40.379 67.6495 40.4806 67.3041C40.5822 67.1008 40.5822 66.6334 40.501 66.0645Z" fill="#474944"/>
<path fill-rule="evenodd" clip-rule="evenodd" d="M46.1087 68.9908C46.2713 68.8689 46.3932 68.7267 46.4542 68.6047V68.5844C46.637 68.6454 46.8199 68.7063 46.9825 68.7673L46.5761 69.1331C46.4135 69.0924 46.2509 69.0518 46.1087 68.9908ZM44.8894 68.5235C45.0317 68.4015 45.1536 68.2796 45.2146 68.1577C45.2146 68.1373 45.2146 68.1374 45.2349 68.117C45.3771 68.178 45.4991 68.2186 45.6413 68.2796C45.6007 68.4015 45.5397 68.5641 45.4584 68.747C45.2552 68.6657 45.0723 68.6047 44.8894 68.5235ZM43.7514 67.9748C43.853 67.8935 43.914 67.7919 43.9546 67.7106C43.975 67.6903 43.975 67.6496 43.9953 67.6293C44.1375 67.6903 44.2595 67.7512 44.4017 67.7919C44.3611 67.9138 44.3001 68.0561 44.2391 68.2186C44.0562 68.1374 43.914 68.0561 43.7514 67.9748ZM42.6541 67.3651C42.6744 67.3245 42.715 67.2839 42.7354 67.2432C42.7557 67.1822 42.776 67.1416 42.7963 67.101C42.9183 67.1619 43.0605 67.2229 43.1824 67.2635C43.1621 67.3651 43.1215 67.4667 43.0605 67.5887C42.9183 67.5074 42.776 67.4464 42.6541 67.3651ZM41.3535 66.4507C41.5567 66.5523 41.7599 66.6336 41.9632 66.7149C41.9428 66.7758 41.9225 66.8368 41.9022 66.9181C41.6787 66.7961 41.5364 66.7352 41.5161 66.7758C41.4348 66.6742 41.3738 66.5523 41.3535 66.4507Z" fill="#2C2E29"/>
<path fill-rule="evenodd" clip-rule="evenodd" d="M41.2514 68.1374C41.1905 68.2187 41.1092 68.3 41.0279 68.3812C41.0279 68.3812 41.1905 68.3203 41.414 68.1983C41.7392 68.3203 42.1049 68.4625 42.4707 68.6048C42.4098 68.6861 42.3488 68.747 42.2675 68.8283C42.2675 68.8283 42.4098 68.7673 42.613 68.6657C42.9584 68.808 43.3242 68.9502 43.69 69.0722C43.629 69.1331 43.5681 69.2144 43.5071 69.2754C43.5071 69.2754 43.629 69.2144 43.8322 69.1331C44.198 69.2754 44.5638 69.4176 44.9296 69.5396C44.8686 69.6005 44.828 69.6615 44.767 69.7224C44.767 69.7224 44.889 69.6818 45.0718 69.5802C45.336 69.6818 45.5799 69.7631 45.8237 69.8647L45.2751 70.393C45.2751 70.393 41.7595 69.2144 39.707 68.3203C39.9509 68.1374 40.1541 67.9342 40.3167 67.731C40.5808 67.8732 40.906 67.9951 41.2514 68.1374Z" fill="#6B6E65"/>
<path fill-rule="evenodd" clip-rule="evenodd" d="M1.3418 41.9834C8.9013 50.0713 23.3497 58.0778 33.9168 63.1785L33.2462 64.8042C23.1262 59.7239 2.47979 49.0755 1.3418 41.9834Z" fill="#CBCBCB"/>
<path fill-rule="evenodd" clip-rule="evenodd" d="M1.3418 41.9834C8.9013 50.0713 23.3497 58.0778 33.9168 63.1785L33.7745 63.5036C31.5798 62.4266 23.492 58.0982 23.492 58.0982L24.2235 58.6672C6.17826 49.5429 1.3418 41.9834 1.3418 41.9834Z" fill="#989898"/>
<path fill-rule="evenodd" clip-rule="evenodd" d="M33.4283 64.3977L33.2657 64.8042C23.1254 59.7239 2.479 49.0755 1.36133 41.9834C1.36133 41.9834 3.7186 47.714 17.5777 55.8019C17.5777 55.8019 16.6226 55.4564 16.3584 55.3548C16.3381 55.3345 29.933 62.7111 33.4283 64.3977Z" fill="white"/>
<path fill-rule="evenodd" clip-rule="evenodd" d="M105.488 55.1518C105.488 55.3551 105.387 55.5583 105.183 55.7412C104.391 56.3914 103.598 57.0214 102.826 57.6717C102.582 57.8749 102.338 58.0578 102.115 58.261C102.013 58.3423 101.891 58.4439 101.81 58.5252C101.485 58.891 100.997 59.2567 100.591 59.5412C100.022 59.968 99.4324 60.3744 98.8228 60.7605C97.7661 61.4718 96.689 62.1627 95.5917 62.813L95.2259 63.0365L91.751 60.984L92.8077 60.3744C93.2344 60.1306 93.6612 59.8257 94.0879 59.5412C94.6772 59.1348 95.2462 58.7284 95.8152 58.3016C97.2174 57.2653 98.5992 56.2085 99.9811 55.1518C100.997 54.3593 102.013 53.5668 103.029 52.7743C103.192 52.632 103.395 52.5507 103.578 52.5507C108.394 48.71 113.109 44.6661 117.559 40.3986C120.221 37.8178 122.822 35.1557 125.24 32.3311C128.289 28.7749 130.565 25.6657 132.902 21.6421C134.588 33.2862 114.267 47.9175 105.488 55.1518Z" fill="#291F1D"/>
<path fill-rule="evenodd" clip-rule="evenodd" d="M99.3506 56.6558C98.9239 56.9809 98.4768 57.306 98.0704 57.6312C98.233 57.936 98.68 58.6269 99.3506 59.0334C99.3506 59.0334 97.8062 58.7895 97.4404 58.3018C97.3998 58.2611 97.3795 58.2205 97.3388 58.1595C97.2169 58.2408 97.1153 58.3221 96.9933 58.4237C97.1762 58.7489 97.603 59.3788 98.2329 59.7446C98.2329 59.7446 96.6885 59.5007 96.3228 59.013C96.3024 58.9927 96.2821 58.9724 96.2618 58.9317C96.1399 59.013 96.0179 59.0943 95.9163 59.1756C96.1195 59.5211 96.526 60.0901 97.1153 60.4355C97.1153 60.4355 95.5709 60.1917 95.2051 59.704L95.1848 59.6836C95.0628 59.7649 94.9409 59.8462 94.819 59.9275C95.0425 60.2729 95.4286 60.8216 95.9976 61.1468C95.9976 61.1468 94.4532 60.9029 94.0874 60.4152V60.3949C93.9248 60.4965 93.7623 60.5981 93.62 60.6794L95.6725 61.8783C95.6725 61.8783 98.8426 59.9478 100.631 58.6066C100.184 58.4034 99.7774 58.1392 99.5945 57.8344C99.4929 57.6718 99.3913 57.2248 99.3506 56.6558Z" fill="#474944"/>
<path fill-rule="evenodd" clip-rule="evenodd" d="M94.1692 60.4965C94.1488 60.4762 94.1285 60.4558 94.1285 60.4355V60.4152C93.966 60.5168 93.8034 60.6184 93.6611 60.6997L93.7018 60.72C93.844 60.6794 94.0066 60.5981 94.1692 60.4965ZM95.3681 59.8665C95.3072 59.8259 95.2665 59.7852 95.2259 59.7446L95.2055 59.7243C95.0836 59.8056 94.9617 59.8868 94.8398 59.9681C94.8601 60.0088 94.9007 60.0697 94.9414 60.1104C95.0836 60.0088 95.2259 59.9478 95.3681 59.8665ZM96.5468 59.1959C96.4655 59.135 96.3842 59.074 96.3435 59.013C96.3232 58.9927 96.3029 58.9724 96.2826 58.9317C96.1606 59.013 96.0387 59.0943 95.9371 59.1756C95.9778 59.2569 96.0387 59.3382 96.0997 59.4195C96.2419 59.3585 96.4045 59.2772 96.5468 59.1959ZM97.7051 58.505C97.6035 58.444 97.5019 58.3627 97.4409 58.2815C97.4002 58.2408 97.3799 58.2002 97.3393 58.1392C97.2174 58.2205 97.1157 58.3018 96.9938 58.4034C97.0548 58.505 97.1361 58.6269 97.2377 58.7692C97.4002 58.6879 97.5628 58.5863 97.7051 58.505ZM99.3511 56.6558C98.9243 56.9809 98.4773 57.306 98.0708 57.6312C98.1318 57.7531 98.2334 57.9157 98.3757 58.1189C98.8024 57.8547 99.1682 57.6312 99.4527 57.4686C99.412 57.2248 99.3714 56.9606 99.3511 56.6558Z" fill="#2C2E29"/>
<path fill-rule="evenodd" clip-rule="evenodd" d="M99.2091 58.9116C99.2497 58.9522 99.3107 58.9725 99.3513 59.0132C99.3513 59.0132 99.27 58.9929 99.1278 58.9725C98.823 59.1758 98.4572 59.3993 98.0914 59.6228C98.1524 59.6635 98.193 59.7041 98.254 59.7244C98.254 59.7244 98.1524 59.7041 97.9898 59.6838C97.6646 59.887 97.2989 60.1105 96.9534 60.3341C97.0144 60.3747 97.0753 60.4154 97.1363 60.456C97.1363 60.456 97.0144 60.4357 96.8315 60.395C96.486 60.5982 96.1202 60.8218 95.7951 61.0047C95.8764 61.0656 95.9577 61.1266 96.0389 61.1672C96.0389 61.1672 95.8764 61.1469 95.6528 61.086C95.409 61.2282 95.1854 61.3501 94.9619 61.4721L95.7138 61.9191C95.7138 61.9191 98.8839 59.9886 100.672 58.6474C100.469 58.5458 100.266 58.4442 100.083 58.3223C99.9 58.4848 99.5748 58.6677 99.2091 58.9116Z" fill="#6B6E65"/>
<path fill-rule="evenodd" clip-rule="evenodd" d="M132.149 24.4263C126.581 33.9976 114.287 45.032 105.122 52.368L106.138 53.8108C114.876 46.5968 132.637 31.5997 132.149 24.4263Z" fill="#CBCBCB"/>
<path fill-rule="evenodd" clip-rule="evenodd" d="M132.149 24.4263C126.723 33.7537 114.917 44.463 105.833 51.7787C106.036 51.7787 106.3 51.7177 106.646 51.5551C109.186 50.3562 117.396 42.1058 117.396 42.1058L116.685 43.0202C129.751 31.7013 132.149 24.4263 132.149 24.4263Z" fill="#989898"/>
<path fill-rule="evenodd" clip-rule="evenodd" d="M107.236 52.876C116.299 45.3775 132.597 31.2949 132.129 24.4263C132.129 24.4263 131.255 29.6692 121.643 39.2405L122.639 38.6308C122.639 38.6308 109.268 51.0268 107.276 52.2258C106.768 52.5712 106.829 52.7744 107.236 52.876Z" fill="white"/>
<path fill-rule="evenodd" clip-rule="evenodd" d="M61.8783 5.08016C61.8783 5.08016 60.9232 4.7347 59.521 4.61277C59.521 4.61277 62.3863 4.30795 64.3372 5.83205C65.9222 7.07165 66.5928 7.6 67.1822 8.41285C68.8079 10.6685 68.9501 13.4322 71.1854 15.2814C71.1854 15.2814 70.1287 15.0782 69.9865 14.9969C69.9865 14.9969 73.0753 17.9638 73.2785 19.2441C73.2785 19.2441 72.0389 17.1713 70.5961 16.8868C70.5961 16.8868 72.1202 20.4837 73.5224 21.4591C73.5224 21.4591 71.8357 20.5243 71.3277 20.0366C71.3277 20.0366 71.917 21.2152 72.3234 21.4388C72.7299 21.6623 74.762 22.0078 75.5952 22.3126C76.4283 22.6174 77.6273 23.0238 77.7695 23.1458C77.7695 23.1458 80.9397 23.6335 82.7686 26.3159C82.7686 26.3159 82.1589 25.7875 81.9964 25.7062C81.9964 25.7062 83.4798 27.84 83.8456 28.4496C84.2114 29.0592 84.6381 30.2379 84.8007 30.563C84.9633 30.8678 88.9666 35.3995 89.7591 36.3952C90.5516 37.3706 93.5592 39.6669 94.3517 40.7033C95.1442 41.7397 96.9731 44.544 97.6437 45.9665C98.3143 47.389 101.383 49.8073 101.667 50.1121C101.667 50.1121 103.842 50.5591 104.695 50.3356C105.569 50.1324 108.82 50.7827 109.186 54.1154C109.186 54.1154 108.902 55.7817 107.418 55.6801C107.418 55.6801 107.317 57.57 105.467 57.0823C105.467 57.0823 104.675 58.3625 103.476 58.4235C103.476 58.4235 102.114 60.6791 100.123 59.4395C98.1314 58.1999 98.1721 56.4726 98.0095 55.6191C97.8469 54.7656 97.786 53.6886 97.4812 53.2009C97.4812 53.2009 92.726 49.1976 90.9987 48.4661C89.2714 47.7548 86.7719 45.5804 84.8413 42.1055C84.8413 42.1055 81.0209 40.2156 79.5578 38.0006C79.5578 38.0006 76.6519 46.5559 76.3674 49.035C76.3674 49.035 76.1642 48.0393 76.1642 47.9174C76.1642 47.9174 76.2861 54.2373 76.8348 56.0662C76.8348 56.0662 76.8957 56.8791 78.1556 56.8587C78.1556 56.8587 78.0337 57.4684 77.7289 57.57C77.7289 57.57 78.176 58.0374 78.176 58.4438C78.176 58.4438 78.2776 60.0288 77.3834 59.5615L76.8551 59.155C76.8551 59.155 76.977 60.1508 77.5866 60.4759C78.1963 60.8011 79.192 61.6342 79.8017 62.061C80.4113 62.4877 81.7728 63.0364 81.7728 64.0525C81.7728 64.0525 83.8253 66.4707 84.0488 67.9541C84.0488 67.9541 82.8092 69.1531 85.0242 71.9574C87.2392 74.7618 86.4264 74.6602 86.4874 76.3265C86.4874 76.3265 87.2799 76.5907 88.174 78.318L88.3366 79.0089H65.6784H43.7924C44.1785 77.5661 44.8085 75.9404 45.8652 74.8024C45.8652 74.8024 47.2673 73.6238 47.2267 72.6483L48.1818 72.4858C48.1818 72.4858 50.1733 69.4782 50.2749 68.0557C50.3765 66.6129 51.2909 65.0888 52.1241 63.9712C52.9776 62.8535 53.4247 62.5284 53.4247 62.5284C53.4247 62.5284 51.9209 61.6139 51.7583 61.3904C51.5958 61.1668 54.4407 58.6267 54.4611 58.0983C54.5017 57.57 52.7947 57.7325 52.0835 57.7122C51.5754 57.6919 52.368 56.7368 52.8354 56.0459C53.4043 55.2127 53.4653 54.9485 54.7862 55.5582L55.6194 54.9689C55.6194 54.9689 54.6033 50.1121 53.953 48.4864C53.3027 46.8607 52.2867 42.8777 51.7583 41.8007C51.7583 41.8007 49.0556 46.2307 48.7305 48.8115C48.7305 48.8115 47.0032 54.5421 45.0523 56.7978C45.0523 56.7978 43.386 61.3904 43.2844 64.2963C43.1828 67.2023 42.1464 68.2386 41.171 68.9296C40.1955 69.6205 38.6511 69.2547 38.0821 68.6044C38.0821 68.6044 36.8425 68.9296 36.3142 68.1574C36.3142 68.1574 35.3388 68.259 34.912 67.7916C34.912 67.7916 33.3676 68.1167 32.7986 67.0803C32.2499 66.0439 32.4125 63.2396 36.8832 61.8578C36.8832 61.8578 38.3869 61.1059 38.4885 60.5166C38.5901 59.9272 39.7891 55.4362 39.8297 53.6683C39.8704 51.9003 40.3784 48.1409 41.9432 45.7024C41.9432 45.7024 44.3411 37.899 44.3411 35.8872C44.3411 33.8551 42.8983 28.1245 49.5636 25.8485C49.5636 25.8485 52.4289 24.487 53.1198 23.2677C53.1198 23.2677 50.9658 24.995 49.8481 25.2185C49.8481 25.2185 52.1648 21.2762 52.368 19.4676C52.368 19.4676 50.6 21.8452 49.7872 22.0687C49.7872 22.0687 53.3027 16.6836 53.506 14.3467C53.506 14.3467 53.2418 15.1392 52.7947 15.5456C52.7947 15.5456 53.2011 13.1477 53.1808 11.9284C53.1808 11.9284 52.5509 12.721 52.307 12.7819C53.4043 9.75405 54.1969 5.77109 57.7531 5.03952C59.1756 4.71438 60.72 4.79566 61.8783 5.08016Z" fill="#291F1D"/>
<path fill-rule="evenodd" clip-rule="evenodd" d="M63.0365 17.8828C63.0365 17.8828 64.3981 19.6508 66.8773 20.423C66.8773 20.423 66.0644 20.5246 65.2922 20.6668C65.2922 20.6668 68.5639 21.1545 70.4132 22.4754C70.4132 22.4754 69.8848 21.6829 69.4987 21.4797C69.1329 21.2765 74.4977 22.1503 75.8999 23.2273C75.8999 23.2273 75.717 23.1867 74.5384 23.0851C74.5384 23.0851 77.2005 23.7353 78.8058 24.0808C80.4112 24.4263 82.7075 27.637 83.561 28.9782C83.561 28.9782 81.7727 28.6531 80.4519 28.9376C80.4519 28.9376 85.2274 31.1526 88.1943 35.3997C88.1943 35.3997 87.0766 34.2617 85.7354 33.4692C85.1461 33.1238 84.8209 32.9002 85.5931 33.5099C86.1215 33.9366 86.8124 34.5462 87.0156 34.8917C85.9589 34.1398 82.7075 31.9654 82.0979 30.9697C82.0979 30.9697 82.3417 32.4735 85.4509 34.6072C88.56 36.7409 90.0029 38.6105 90.6938 39.5656C90.6938 39.5656 90.3686 38.6511 90.1248 38.2041C89.9013 37.757 92.1772 39.7891 92.6853 40.7036C92.6853 40.7036 92.5227 39.8704 92.0756 39.3421C92.0756 39.3421 94.9206 41.9025 96.0789 44.3614C94.9003 43.2031 94.2297 42.4106 92.8885 41.74C92.8885 41.74 97.5827 46.9016 99.3506 49.7059C99.3506 49.7059 98.9442 48.8524 98.5988 48.1208C98.0704 47.0235 98.2736 47.3486 99.2084 48.5069C99.7977 49.2385 100.265 50.0514 100.468 50.3765C100.468 50.3765 101.627 50.8033 101.749 51.3113C101.749 51.3113 101.992 50.661 102.257 50.6C102.521 50.5391 105.467 51.1081 105.894 52.3883C105.894 52.3883 105.61 52.937 104.837 53.1605C104.837 53.1605 103.273 52.2054 102.805 52.0835C102.805 52.0835 104.634 53.6076 104.736 53.9937C104.736 53.9937 103.293 53.9937 102.297 53.6482C102.297 53.6482 103.008 54.4001 102.968 54.6846C102.927 54.9691 102.033 55.9445 100.936 55.213C100.936 55.213 101.525 55.9445 101.423 56.1681C101.362 56.29 101.037 56.6151 100.672 56.4729C99.9806 56.2087 98.0907 54.8472 98.3346 53.8311C98.4971 53.1199 99.31 52.7947 99.818 52.3273C99.818 52.3273 98.8629 52.6118 98.6597 52.6118C98.4565 52.6322 95.896 50.0717 94.88 48.5679C94.88 48.5679 95.1035 49.5433 95.3677 49.8685C95.3677 49.8685 91.3644 47.3486 90.4499 46.109C90.4499 46.109 91.9943 46.8 92.8478 46.8406C90.4702 45.9261 88.1333 43.9143 87.4017 41.7806C87.4017 41.7806 83.1343 39.9923 82.1182 37.0458C82.1182 37.0458 81.915 38.0415 82.0776 38.8137C82.0776 38.8137 78.4807 35.0543 77.7085 31.7826C77.7085 31.7826 77.9727 30.2178 78.3588 29.6691C76.7534 30.0552 75.7373 30.1162 76.3266 31.5793C76.3266 31.5793 74.1319 32.2906 72.9127 32.3719C72.9127 32.3719 76.3063 33.327 76.9972 34.4446C76.9972 34.4446 73.4817 37.0254 73.1565 37.9196C73.1565 37.9196 74.0913 37.7773 74.5384 37.3506C73.1972 39.9111 71.3683 37.6351 69.6613 36.5174C69.6613 36.5174 71.4292 38.6715 73.2378 39.6875C73.2378 39.6875 71.287 40.5004 69.3971 39.3014C67.5072 38.1025 67.8324 36.9848 67.1414 35.9484C68.7062 42.5122 70.149 39.0576 65.6986 45.6417C65.6986 45.6417 65.9222 40.2565 65.9222 38.6308C65.9222 37.0051 66.9382 31.62 66.735 29.1001C66.735 29.1001 65.658 34.6479 65.597 36.4971C65.5361 38.3463 65.2719 27.5557 62.7927 24.1011C62.7927 24.1011 65.1703 30.1975 60.8012 37.188C60.8012 37.188 63.382 34.2617 64.0932 30.5023C64.8045 26.7429 64.0729 30.6446 64.0729 30.6446C64.0729 30.6446 65.2516 38.0618 64.7232 43.1421C64.7232 43.1421 64.6013 39.6266 64.3574 38.8137C64.3574 38.8137 62.7927 43.447 60.8825 46.9219C59.399 49.6449 59.8055 49.3808 58.6065 47.1251C57.8343 45.6823 56.7979 43.7315 56.107 42.5731C54.908 40.541 58.6472 45.8042 59.1755 46.3529C59.1755 46.3529 62.4879 42.2683 63.0365 40.4394C63.0365 40.4394 60.2119 43.9956 59.2974 44.6866C59.2974 44.6866 58.3017 43.5892 57.4279 42.5325C56.046 40.8458 55.9648 41.2319 57.1434 39.7688C57.8953 38.8137 58.9926 37.4928 59.7445 36.8019C59.7445 36.8019 56.3712 39.2608 55.4161 40.9881C54.8471 39.0779 57.2247 38.7731 58.2407 36.7816C58.2407 36.7816 55.6396 38.0821 53.9123 38.0009C55.8835 35.3185 57.1637 34.8511 58.7284 31.8435C57.8953 32.6767 56.9605 33.6928 55.1925 34.7901C55.1925 34.7901 52.3882 32.9002 51.8802 30.6446C51.6973 33.4692 53.5262 36.7003 52.5914 38.4479C52.0021 39.5656 50.8438 40.4801 49.8277 38.9763C49.8277 38.9763 48.771 44.3817 47.4908 45.7026C47.4908 45.7026 48.1207 45.2555 48.5881 44.1988C48.5881 44.1988 47.9582 46.9016 46.0683 47.9989C44.1784 49.0963 42.634 54.8269 42.4308 57.2044C42.4308 57.2044 43.6297 51.5551 46.4341 48.9134C46.4341 48.9134 45.7228 50.9252 45.7025 51.3926C45.7025 51.3926 46.4544 50.8033 46.6983 50.3765C46.6983 50.3765 47.2266 52.4086 45.1742 55.1114C43.1217 57.8141 42.7559 60.0697 42.5934 62.2848C42.5934 62.2848 42.5324 65.0891 41.5773 65.8816C41.5773 65.8816 40.9473 65.7394 40.7848 65.5565C40.7848 65.5565 40.8051 66.5116 40.3174 66.7961C40.3174 66.7961 39.1184 66.7961 39.0371 66.4506C38.9355 66.1052 39.7484 65.1704 40.1955 64.8046C40.1955 64.8046 39.3013 65.3533 38.8746 65.9223C38.3665 66.5929 37.635 66.0442 38.143 65.3533C38.1836 65.3126 38.2243 65.2517 38.2649 65.1907C38.4885 64.8859 38.8136 64.4795 39.0371 64.2966C39.0371 64.2966 38.3259 64.8249 37.8382 65.3939C37.2692 66.0645 36.2531 65.5362 36.9441 64.8249C37.2285 64.5404 37.635 64.134 37.8585 63.9308C37.8585 63.9308 36.5579 64.3779 36.1109 64.9875C36.1109 64.9875 34.9119 64.4795 34.9729 63.9511C35.0339 63.4228 37.8788 62.4677 38.1633 61.8174C38.1633 61.8174 37.635 62.7115 37.7163 62.7521C37.7975 62.7928 39.3216 61.7361 39.4029 60.5981C39.5045 59.4601 41.6992 52.368 41.6992 50.6C41.6992 50.6 41.0083 52.1241 40.7035 52.8354C40.7035 52.8354 40.8661 50.1733 42.3292 47.8567C42.3292 47.8567 41.557 48.7305 41.2928 49.1776C41.2928 49.1776 42.0853 46.8203 42.6543 45.6823C42.6543 45.6823 42.7763 46.3935 42.8982 47.1454C42.9795 47.6941 45.1132 38.1634 45.2554 36.9035C45.2554 36.9035 45.4993 37.757 45.6822 38.4073C45.6822 38.4073 45.3367 32.1687 45.8854 30.1365C46.4341 28.1044 48.8117 27.3322 50.1325 26.621C50.1325 26.621 48.893 28.0231 48.5272 28.8969C48.5272 28.8969 52.2663 25.0562 56.0054 24.4872C56.0054 24.4872 54.1765 24.4872 53.4043 24.7514C53.4043 24.7514 57.0418 22.9428 60.2119 22.2925C60.2119 22.2925 62.1018 22.6786 63.5852 23.9182C63.5852 23.9182 62.1018 21.8658 60.8418 21.6626C60.8418 21.6626 62.1831 20.7481 62.9756 19.4882C62.9756 19.4882 62.7724 20.5043 62.5895 20.931C64.012 19.5898 63.1382 18.8582 63.0365 17.8828Z" fill="#FAC3A5"/>
<path fill-rule="evenodd" clip-rule="evenodd" d="M64.0532 30.8479C64.2361 32.0469 65.1505 38.5497 64.6831 43.1626C64.6831 43.1626 64.5612 39.647 64.3174 38.8342C64.3174 38.8342 62.7526 43.4674 60.8424 46.9424C59.359 49.6654 59.7654 49.4012 58.5664 47.1456C57.7942 45.7028 56.7578 43.7519 56.0669 42.5936C54.868 40.5615 58.6071 45.8247 59.1354 46.3734C59.1354 46.3734 62.4478 42.2888 62.9965 40.4599C62.9965 40.4599 60.1718 44.0161 59.2574 44.707C59.2574 44.707 58.2616 43.6097 57.3878 42.553C56.006 40.8663 55.9247 41.2524 57.1033 39.7893C57.8552 38.8342 58.9525 37.5133 59.7044 36.8224C59.7044 36.8224 56.3311 39.2813 55.376 41.0086C54.807 39.0984 57.1846 38.7935 58.2007 36.8021C58.2007 36.8021 55.5995 38.1026 53.8722 38.0213C55.8434 35.3389 57.1236 34.8715 58.6884 31.864C57.8552 32.6972 56.9204 33.7132 55.1525 34.8106C55.1525 34.8106 52.3481 32.9207 51.8401 30.665C51.8401 30.665 51.0679 35.217 51.5556 36.9646C51.5556 36.9646 51.8198 36.3956 51.8198 36.0705C51.8198 36.0705 52.1856 38.7529 49.7877 38.3465C49.7877 38.3465 50.0315 38.6107 50.2347 38.6716C50.2347 38.6716 49.3812 38.6716 48.9342 38.2652C48.9342 38.2652 48.4465 43.0813 46.3534 45.7841C46.3534 45.7841 45.6828 46.5563 45.4389 46.7798C45.4389 46.7798 46.4346 46.3937 46.6582 46.2718C46.6582 46.2718 42.6346 49.5232 42.3907 57.2249C42.3907 57.2249 43.5897 51.5756 46.394 48.9339C46.394 48.9339 45.6828 50.9457 45.6624 51.413C45.6624 51.413 46.4143 50.8237 46.6582 50.397C46.6582 50.397 47.1865 52.4291 45.1341 55.1318C43.0816 57.8346 42.7159 60.0902 42.5533 62.3052C42.5533 62.3052 42.4923 65.1096 41.5372 65.9021C41.5372 65.9021 40.9073 65.7599 40.7447 65.577C40.7447 65.577 40.765 66.5321 40.2773 66.8166C40.2773 66.8166 39.0783 66.8166 38.9971 66.4711C38.8955 66.1256 39.7083 65.1909 40.1554 64.8251C40.1554 64.8251 39.3628 65.2721 38.9767 64.317C38.9767 64.317 38.2655 64.8454 37.7778 65.4144C37.2088 66.085 36.1927 65.5566 36.8837 64.8454C37.1682 64.5609 37.5746 64.1545 37.7981 63.9513C37.92 64.8657 38.9767 64.2967 38.9767 64.2967C38.7532 64.4999 38.4281 64.886 38.2045 65.1909C38.1639 65.2518 38.1232 65.2925 38.0826 65.3534C37.5746 66.0444 38.3061 66.593 38.8142 65.9224C39.2409 65.3534 40.1351 64.8048 40.1351 64.8048C40.1351 64.8048 39.8912 65.008 40.0944 65.2315C40.2976 65.4347 40.6837 65.1705 40.6837 65.1705C41.8014 63.6058 42.5126 59.5009 42.4517 59.6025C42.411 59.7041 41.9233 59.9683 41.9233 59.9683C44.1993 56.473 44.6261 52.8965 44.6261 52.8965C44.4228 53.9126 42.3298 57.2249 42.3298 57.2249C42.533 54.8473 44.0774 49.0964 45.9673 48.0194C47.8571 46.922 48.4871 44.2193 48.4871 44.2193C48.04 45.276 47.3897 45.7231 47.3897 45.7231C48.67 44.4225 49.7267 38.9968 49.7267 38.9968C50.7428 40.5005 51.9011 39.5861 52.4904 38.4684C53.4048 36.7208 51.5962 33.51 51.7791 30.665C53.0187 33.3881 55.6402 33.6116 55.315 33.51C54.9899 33.4084 54.7257 33.0223 54.7257 33.0223C56.9814 32.9207 59.1964 31.0918 59.1964 31.0918C59.1354 33.9368 56.0263 36.924 56.0263 36.924C57.3268 36.6598 58.6884 35.5421 58.6884 35.5421C58.8916 36.1315 59.0135 36.9037 59.0135 36.9037C59.298 36.6192 60.4766 35.9486 60.4766 35.9486C59.4199 37.6352 59.2574 39.4641 59.2574 39.4641C58.8916 39.1796 58.7087 38.5294 58.7087 38.5294C58.1803 40.0331 60.3141 41.2321 60.3141 41.2321C61.574 40.4396 62.8339 37.0459 62.8339 37.0459C62.9762 37.6556 63.0371 39.139 63.0371 39.139C64.1345 36.8427 64.0532 30.8479 64.0532 30.8479Z" fill="#CE806F"/>
<path fill-rule="evenodd" clip-rule="evenodd" d="M102.256 53.6479C102.256 53.6479 102.967 54.3998 102.927 54.6843C102.886 54.9688 101.992 55.9442 100.894 55.2126C100.894 55.2126 101.484 55.9442 101.382 56.1677C101.321 56.2896 100.996 56.6148 100.63 56.4725C99.9394 56.2084 98.0495 54.8468 98.2934 53.8308C98.4559 53.1195 99.2688 52.7944 99.7768 52.327C99.7768 52.327 96.566 50.2745 94.351 47.2467C94.351 47.2467 94.3917 48.405 94.473 48.8114C94.473 48.8114 93.3146 47.6125 93.1114 47.328C93.1114 47.328 93.5991 47.4499 93.904 47.4905C93.904 47.4905 91.6077 45.4991 90.0226 43.6092C90.0226 43.6092 90.2665 44.544 90.4697 44.7878C90.4697 44.7878 88.8236 42.9792 87.9498 40.2765C87.9498 40.2765 87.7466 40.6829 87.8076 40.9064C87.8076 40.9064 85.491 39.3011 84.353 37.5738C84.353 37.5738 84.4952 38.9353 84.5968 39.1385C84.5968 39.1385 81.8535 35.6229 81.1422 33.5095C81.1422 33.5095 80.7561 34.9523 80.8374 35.2165C80.8374 35.2165 77.9518 32.0261 78.3379 29.6891C76.7325 30.0752 75.7164 30.1362 76.3058 31.5993C76.3058 31.5993 74.1111 32.3106 72.8918 32.3918C72.8918 32.3918 76.2854 33.3469 76.9763 34.4646C76.9763 34.4646 73.4608 37.0454 73.1356 37.9395C73.1356 37.9395 74.0704 37.7973 74.5175 37.3705C73.1763 39.931 71.3474 37.655 69.6404 36.5374C69.6404 36.5374 71.4083 38.6914 73.2169 39.7075C73.2169 39.7075 71.2661 40.5203 69.3762 39.3214C67.4863 38.1224 67.8115 37.0048 67.1205 35.9684C68.6853 42.5321 70.1281 39.0775 65.6777 45.6616C65.6777 45.6616 65.9013 40.2765 65.9013 38.6508C65.9013 37.0251 66.9173 31.64 66.7141 29.1201C67.1409 30.8881 66.6938 32.3715 66.9173 33.9363C67.2018 35.9887 68.5227 37.8786 68.5024 37.8379C68.4414 37.7363 68.4008 36.5983 68.4008 36.5983C69.1323 37.8379 70.88 39.3417 70.1281 38.4069C69.3965 37.4518 69.0511 35.3994 69.0511 35.3994C69.8233 36.4358 71.0222 37.0048 71.0222 37.0048C70.6971 36.8219 69.9249 36.131 69.9249 36.131C69.681 35.8871 72.8715 36.8828 73.9688 36.1513C75.0662 35.4197 74.3143 33.8753 74.3143 33.8753V34.3224C73.6437 32.8999 71.1442 32.3309 71.1442 32.3309C71.9976 31.9041 75.7977 31.3758 75.4319 31.0303C75.0662 30.6645 74.1923 30.9693 74.1923 30.9693C75.2084 29.4249 78.2972 29.7298 78.2972 29.7298C77.9111 30.2784 77.647 31.8432 77.647 31.8432C78.4395 35.1149 82.016 38.8743 82.016 38.8743C81.8535 38.1021 82.0567 37.1064 82.0567 37.1064C83.0727 40.0326 87.3402 41.8412 87.3402 41.8412C88.0718 43.975 90.4087 45.9868 92.7863 46.9012C91.9328 46.8606 90.3884 46.1697 90.3884 46.1697C91.3232 47.4092 95.3061 49.9291 95.3061 49.9291C95.042 49.6039 94.8184 48.6285 94.8184 48.6285C95.8345 50.1323 98.4153 52.6928 98.5982 52.6725C98.8014 52.6521 99.7565 52.388 99.7565 52.388C98.5372 54.0949 99.533 55.2736 99.8987 55.4565C100.265 55.6394 100.508 54.5827 100.508 54.5827C102.54 54.7046 102.256 53.6479 102.256 53.6479Z" fill="#CE806F"/>
<path fill-rule="evenodd" clip-rule="evenodd" d="M64.0928 30.2787C64.6008 27.6166 64.2553 29.4252 64.0928 30.2787V30.2787ZM66.6939 29.1C66.6939 29.1 65.6169 34.6478 65.5559 36.497C65.4949 38.3462 65.2308 27.5556 62.7516 24.101C62.7516 24.101 65.0885 30.0755 60.9023 36.9644C61.1056 36.2531 62.7516 31.7012 62.4468 28.8359C62.4468 28.8359 62.8938 29.8723 62.9751 30.6038C62.9751 30.6038 63.0158 26.885 62.528 23.7759C62.528 23.7759 65.373 28.5311 65.5965 32.575L66.6939 29.1Z" fill="#FFF8F4"/>
<path fill-rule="evenodd" clip-rule="evenodd" d="M65.292 20.687C65.292 20.687 68.5637 21.1747 70.413 22.4956C70.413 22.4956 69.8846 21.7031 69.4985 21.4999C69.1327 21.2966 74.4975 22.1705 75.8997 23.2475C75.8997 23.2475 75.7168 23.2068 74.5382 23.1052C74.5382 23.1052 77.2002 23.7555 78.8056 24.101C80.411 24.4464 82.7073 27.6572 83.5608 28.9984C83.5608 28.9984 81.7725 28.6733 80.4517 28.9578C80.4517 28.9578 85.2271 31.1728 88.1941 35.4199C88.1941 35.4199 87.0764 34.2819 85.7352 33.4894C85.1459 33.1439 84.8207 32.9204 85.5929 33.53C86.1213 33.9568 86.8122 34.5664 87.0154 34.9119C85.9587 34.16 82.7073 31.9856 82.0977 30.9899C82.0977 30.9899 82.3415 32.4937 85.4507 34.6274C88.5598 36.7611 90.0026 38.6307 90.6936 39.5858C90.6936 39.5858 90.3684 38.6713 90.1246 38.2243C89.901 37.7772 92.177 39.8093 92.6851 40.7238C92.6851 40.7238 92.5225 39.8906 92.0754 39.3622C92.0754 39.3622 94.9204 41.9227 96.0787 44.3816C94.9001 43.2233 94.2295 42.4308 92.8883 41.7602C92.8883 41.7602 97.5825 46.9218 99.3504 49.7261C99.3504 49.7261 98.944 48.8726 98.5985 48.141C98.0702 47.0437 98.2734 47.3688 99.2082 48.5271C99.7975 49.2587 100.265 50.0715 100.468 50.3967C100.468 50.3967 101.626 50.8234 101.748 51.3315C101.748 51.3315 101.992 50.6812 102.256 50.6202C102.521 50.5593 105.467 51.1283 105.894 52.4085C105.894 52.4085 105.833 52.5304 105.691 52.693C104.187 50.7828 101.748 51.3315 101.83 51.6566C101.911 51.9614 102.033 52.2459 102.033 52.2459C101.586 51.5347 99.5943 50.1732 99.5943 50.1732L99.6146 51.0063C98.1718 48.4865 95.7129 45.6822 95.7129 45.6822C95.7536 45.8244 96.0787 47.0437 96.0787 47.0437C94.961 44.7474 92.1567 41.5569 92.1567 41.5569C92.9492 41.5976 93.6402 41.7398 93.7214 41.8211C93.8027 41.9024 90.9577 40.1141 90.9577 40.1141C90.9984 40.3173 91.0187 41.1708 91.0187 41.1708C89.393 38.1023 86.3651 35.8263 86.3651 35.8263C86.4871 36.0499 87.239 37.0659 87.239 37.0659C81.9148 33.7942 81.1832 30.6241 81.1832 30.6241C82.3415 30.7867 83.5405 31.3353 83.5405 31.3353C80.6752 29.1813 78.6227 28.4091 78.6227 28.4091C79.9436 28.0433 81.7522 28.2059 81.7522 28.2059C80.9597 26.0112 78.9885 24.6497 78.9885 24.6497L79.3137 25.1983C77.119 23.5726 73.1563 23.4913 73.1563 23.4913L73.8676 23.2272C73.9285 23.2272 71.1852 22.6582 71.1852 22.6582C71.3071 22.8207 71.7135 23.8978 71.7135 23.8978C69.9049 22.7598 65.292 20.687 65.292 20.687Z" fill="#FFF8F4"/>
<path fill-rule="evenodd" clip-rule="evenodd" d="M36.0699 65.0075C36.0699 65.0075 34.871 64.4994 34.9319 63.9711C34.9929 63.4427 37.8379 62.4876 38.1224 61.8373C38.1224 61.8373 37.594 62.7315 37.6753 62.7721C37.7566 62.8128 39.2807 61.7561 39.362 60.6181C39.4636 59.4801 41.6583 52.388 41.6583 50.62C41.6583 50.62 40.9674 52.1441 40.6625 52.8554C40.6625 52.8554 40.8251 50.1933 42.2882 47.8766C42.2882 47.8766 41.516 48.7505 41.2518 49.1975C41.2518 49.1975 42.0444 46.8403 42.6134 45.7023C42.6134 45.7023 42.7353 46.4135 42.8572 47.1654C42.9385 47.7141 45.0722 38.1834 45.2145 36.9235C45.2145 36.9235 45.4583 37.777 45.6412 38.4273C45.6412 38.4273 45.2958 32.1886 45.8445 30.1565C46.3931 28.1244 48.7707 27.3522 50.0916 26.6409C50.0916 26.6409 48.852 28.0431 48.4862 28.9169C48.4862 28.9169 52.2253 25.0762 55.9644 24.5072C55.9644 24.5072 54.1355 24.5072 53.3633 24.7714C53.3633 24.7714 57.0008 22.9628 60.1709 22.3125C60.1709 22.3125 62.0608 22.6986 63.5443 23.9382C60.679 22.4141 56.5334 23.8366 57.0821 23.796C57.6308 23.7553 58.911 23.9382 58.911 23.9382C56.3912 24.4666 54.5216 25.3404 54.5216 25.3404C50.5183 27.3319 47.7953 30.5223 47.7953 30.5223C47.8359 29.6688 48.0391 28.4902 48.0391 28.4902C47.3076 28.9779 46.637 31.3351 46.5963 35.2571C46.4744 34.6475 46.4541 34.0175 46.1899 32.8186C45.8445 35.4197 45.9257 38.5085 45.6209 40.5C45.6209 40.1342 45.2958 39.2604 45.2958 39.2604C45.2958 41.13 43.1824 47.206 42.7963 47.9376C42.7556 47.775 42.5524 47.4499 42.5524 47.4499C42.5524 47.9376 42.2273 49.2788 41.7599 49.9494C42.0241 49.7462 42.3898 49.4007 42.3898 49.4007C42.4102 50.1933 42.5727 51.5142 41.638 53.6479C40.6829 55.7816 40.4593 57.3057 40.4593 57.3057C40.5 56.9399 40.9674 56.2693 40.9674 56.2693C40.9064 57.7731 39.4839 61.1871 38.9555 62.0609C38.4272 62.9347 36.6389 63.6459 36.8218 63.5037C37.0047 63.3614 37.086 62.9347 37.086 62.9347C36.7812 63.1786 35.8464 63.5037 35.4603 63.9711C35.1148 64.4588 36.0699 65.0075 36.0699 65.0075Z" fill="#FFF8F4"/>
<path fill-rule="evenodd" clip-rule="evenodd" d="M54.4406 8.59606C54.4406 8.59606 57.2653 7.1126 60.5979 6.64522C60.5979 6.64522 59.7851 7.03132 59.3583 7.19389C58.9316 7.35646 62.4472 6.21847 64.7638 6.54361C64.7638 6.54361 65.6376 7.33614 65.7799 7.60031C65.7799 7.60031 62.0611 8.10835 60.3338 8.57573C60.3338 8.57573 61.3498 8.02706 61.7156 7.94578C61.7156 7.94578 60.1102 8.23027 58.0171 9.0228C58.0171 9.0228 58.2813 8.65702 58.5455 8.53509C58.5455 8.53509 54.3796 10.0185 53.6074 10.425C53.6074 10.425 54.2577 8.79927 54.4406 8.59606Z" fill="#7982BC"/>
<path fill-rule="evenodd" clip-rule="evenodd" d="M65.2515 7.01074C65.475 7.23428 65.7189 7.47813 65.7799 7.60006C65.7799 7.60006 62.0611 8.10809 60.3338 8.57548C60.3338 8.57548 61.3498 8.0268 61.7156 7.94552C61.7156 7.94552 60.1102 8.23002 58.0171 9.02255C58.0171 9.02255 58.2813 8.65676 58.5455 8.53484C58.5455 8.53484 54.3796 10.0183 53.6074 10.4247C53.6074 10.4247 53.6684 10.2621 53.77 10.0589C53.77 10.0589 56.4118 8.53484 60.2322 7.76263C60.2322 7.76263 59.4396 8.14873 59.3583 8.2097C59.2567 8.23002 62.6301 7.31556 65.2515 7.01074Z" fill="#3B2D55"/>
<path fill-rule="evenodd" clip-rule="evenodd" d="M54.4405 8.59606C54.4405 8.59606 57.2651 7.1126 60.5978 6.64522C60.5978 6.64522 59.7849 7.03132 59.3582 7.19389C58.9315 7.35646 62.447 6.21847 64.7637 6.54361C64.7637 6.54361 64.8043 6.58425 64.8856 6.66554C61.5326 6.7265 57.8341 7.78321 57.8341 7.78321C58.2202 7.51903 58.586 7.25485 58.586 7.25485C56.1271 7.98642 54.2372 8.98216 54.2372 8.98216C54.3185 8.79927 54.3998 8.65702 54.4405 8.59606Z" fill="#3B2D55"/>
<path fill-rule="evenodd" clip-rule="evenodd" d="M52.9775 43C52.9775 43 55.03 49.3809 55.2332 51.474C55.2332 51.474 55.3754 50.7627 55.3551 50.1734C55.3551 50.1734 56.3102 53.7499 56.2899 55.335C56.2899 55.335 56.7166 51.8804 55.599 47.999C55.599 47.999 55.6193 48.5477 55.4161 49.0354C55.4161 49.0151 54.4203 44.8696 52.9775 43Z" fill="#D2877B"/>
<path fill-rule="evenodd" clip-rule="evenodd" d="M52.9775 43C52.9775 43 55.03 49.3809 55.2332 51.474C55.2332 51.474 55.3754 50.7627 55.3551 50.1734C55.3551 50.1734 56.3102 53.7499 56.2899 55.335C56.3915 54.1157 55.5787 49.0761 55.5787 49.1777C55.5787 49.2589 55.2129 49.5841 55.2129 49.5841C55.1316 47.9381 52.9775 43 52.9775 43Z" fill="#FAC3A5"/>
<path fill-rule="evenodd" clip-rule="evenodd" d="M54.8065 56.0664C54.8065 56.0664 56.8793 57.7937 62.0205 58.0985C67.1821 58.383 70.0068 58.0985 71.1448 57.6718C72.2828 57.245 75.5342 57.0012 76.347 56.4525C76.347 56.4525 75.2294 57.4889 73.563 57.9563C73.563 57.9563 73.4004 58.1595 73.9085 58.0782C74.4165 57.9969 75.6358 57.6108 76.0219 57.5905C76.408 57.5702 76.3267 58.1798 75.6155 58.4034C74.9245 58.6066 73.8881 58.9317 73.8881 58.9317C73.8881 58.9317 75.3106 59.013 75.5545 58.9723C75.778 58.9317 72.8924 60.09 70.5555 60.151C68.2185 60.2119 62.1018 60.5168 58.2001 58.952C58.2001 58.952 66.796 59.9071 71.409 58.7488C71.409 58.7488 71.3886 58.444 70.9212 58.4237C70.4539 58.4034 61.0248 59.8258 56.3712 57.6311C56.3712 57.6311 56.9605 58.1595 57.3466 58.3221C57.7327 58.4846 55.8429 58.505 54.461 56.798C54.5017 56.7777 54.1359 56.1477 54.8065 56.0664Z" fill="#EC8D48"/>
<path fill-rule="evenodd" clip-rule="evenodd" d="M76.2455 56.5542C75.9204 56.8387 74.9247 57.5703 73.6038 57.9564C73.6038 57.9564 73.4412 58.1596 73.9492 58.0783C74.4573 57.997 75.6765 57.6109 76.0626 57.5906C76.4487 57.5703 76.3675 58.1799 75.6562 58.4034C74.9653 58.6066 73.9289 58.9318 73.9289 58.9318C73.9289 58.9318 75.3514 59.0131 75.5953 58.9724C75.8188 58.9318 72.9332 60.0901 70.5962 60.1511C69.5598 60.1714 67.7716 60.2527 65.7598 60.1917C70.4337 60.1104 73.5022 59.3585 73.5835 59.3382C73.6647 59.3179 71.47 59.4805 71.47 59.4805C72.4861 59.3789 74.1524 58.4034 74.1524 58.4034C73.8883 58.4441 72.6487 58.1393 72.6487 58.1393C74.376 57.4687 76.2455 56.5542 76.2455 56.5542Z" fill="#B73C0E"/>
<path fill-rule="evenodd" clip-rule="evenodd" d="M58.3219 58.9521C58.3016 58.9317 58.3016 58.9317 58.2812 58.9317C58.9315 58.9927 67.0194 59.8462 71.4494 58.7285C69.9253 59.4804 65.8408 59.4804 66.4707 59.5007C67.1007 59.5414 67.8322 59.6226 67.8322 59.6226C62 59.8868 58.4438 58.9927 58.3219 58.9521Z" fill="#F6EFC2"/>
<path fill-rule="evenodd" clip-rule="evenodd" d="M54.8066 56.0664C54.8066 56.0664 56.8794 57.7937 62.0206 58.0985C67.1822 58.383 70.0069 58.0985 71.1449 57.6718C72.2829 57.245 75.5343 57.0012 76.3471 56.4525C75.2091 57.2654 69.5801 58.2001 69.5801 58.2001C69.9866 58.2001 70.393 58.1595 70.393 58.1595C65.7191 59.1959 59.6837 57.9563 60.0291 58.0376C60.3949 58.1392 60.9842 58.3424 60.9842 58.3424C56.3307 57.875 54.4814 56.1883 54.4814 56.1883C54.5627 56.1274 54.6643 56.0867 54.8066 56.0664Z" fill="#F6EFC2"/>
<path fill-rule="evenodd" clip-rule="evenodd" d="M69.9654 60.9841C69.9654 60.9841 62.223 61.6141 57.8945 59.2162C57.8945 59.2162 59.0732 60.4151 60.5566 60.8215C60.5566 60.8215 58.2197 60.2932 57.2239 59.521C56.2079 58.7285 55.7608 58.8097 55.5779 58.8504C55.5779 58.8504 55.5982 58.4033 55.5576 58.2611C55.517 58.1188 54.0335 60.6793 53.3223 61.2483C53.3223 61.2483 53.5052 61.5328 54.318 61.9392C54.318 61.9392 55.3341 63.0366 55.4966 63.9307C55.4966 63.9307 55.456 62.8334 54.8464 61.9595C54.2367 61.0857 55.395 60.3338 55.8421 59.9274C55.8421 59.9274 55.2934 60.6793 55.3341 61.1264C55.3341 61.1264 56.4111 60.1916 56.8988 60.2526C57.3662 60.2932 59.1748 61.9799 61.0647 62.0408C61.0647 62.0408 60.1705 62.1221 59.6015 61.9595C59.0325 61.797 62.0198 62.8537 63.6658 62.5489C63.6658 62.5489 61.7556 61.8173 60.8818 61.5734C60.0283 61.3296 58.9106 60.8012 58.7684 60.6996C58.7684 60.6996 60.577 61.2686 61.3288 61.5125C62.0807 61.7563 65.2915 62.4676 66.5921 62.0815C66.5921 62.0815 66.2872 62.4473 65.4744 62.6911C64.6209 62.9756 68.7258 62.4066 69.9654 60.9841Z" fill="#EC8D48"/>
<path fill-rule="evenodd" clip-rule="evenodd" d="M60.5167 61.3094C60.8012 61.411 61.0857 61.4923 61.2686 61.5533C62.0205 61.7971 65.2312 62.5084 66.5318 62.1223C66.5318 62.1223 66.227 62.488 65.4141 62.7319C64.6216 62.9757 68.4623 62.4271 69.8238 61.1062C69.8238 61.1062 67.1008 61.8174 65.2109 61.8378L66.1457 62.0003C66.166 62.0206 62.4675 61.7158 60.5167 61.3094ZM58.7081 61.3297C59.399 61.6955 60.1916 62.041 61.0247 62.0613C61.0247 62.0613 60.1306 62.1426 59.5616 61.98C58.9926 61.8174 61.9798 62.8741 63.6259 62.5693C63.6259 62.5693 61.9595 61.9394 61.0451 61.6549C61.4312 61.919 61.8986 62.2239 61.9798 62.2442C62.1018 62.3051 59.2771 61.6142 58.7081 61.3297ZM58.6472 61.3094L58.6878 61.3297C58.6675 61.3094 58.6675 61.3094 58.6472 61.3094ZM55.8022 59.9479C55.8022 59.9479 55.2535 60.6998 55.2941 61.1468C55.2941 61.1468 56.2899 60.2933 56.7776 60.273C56.7166 60.2324 56.6557 60.2121 56.5947 60.2121C56.2696 60.2121 56.0054 60.3746 55.9038 60.4153C55.8225 60.4559 55.7209 60.1511 55.8022 59.9479ZM55.4974 60.2121C55.6193 60.1104 55.7209 60.0292 55.8022 59.9479C55.8428 59.8869 55.6802 60.0088 55.4974 60.2121Z" fill="#B73C0E"/>
<path fill-rule="evenodd" clip-rule="evenodd" d="M69.9654 60.9841C69.9654 60.9841 62.223 61.6141 57.8945 59.2162C57.8945 59.2162 59.0732 60.4151 60.5566 60.8215C60.5566 60.8215 58.2197 60.2932 57.2239 59.521C56.2079 58.7285 55.7608 58.8097 55.5779 58.8504C55.5779 58.8504 55.5982 58.4033 55.5576 58.2611C55.517 58.1188 54.0335 60.6793 53.3223 61.2483C53.3223 61.2483 53.3629 61.3093 53.4848 61.4109C53.5661 61.3296 53.6068 61.228 53.7287 61.1873C53.9319 61.1467 54.9073 59.4194 55.3544 59.2975C55.8015 59.1755 56.4721 59.582 56.8175 59.6632C56.4111 59.582 56.086 59.5413 56.086 59.5413C57.3865 59.9477 60.008 61.106 60.8818 60.9841C61.7556 60.8622 63.1374 60.9841 62.9139 60.9841C62.6904 60.9841 62.162 61.0857 62.162 61.0857C65.0273 61.5328 69.9654 60.9841 69.9654 60.9841Z" fill="#F6EFC2"/>
<path fill-rule="evenodd" clip-rule="evenodd" d="M76.3473 59.7041C76.3473 59.7041 66.3493 63.3619 63.362 65.7802C63.362 65.7802 60.7203 69.7631 59.9277 70.6166C59.9277 70.6166 61.9395 68.93 64.6219 69.0519C67.3044 69.1738 72.7098 66.9385 73.543 65.7192C73.543 65.7192 69.56 73.0349 65.577 75.4328C65.577 75.4328 73.9494 73.7055 75.128 70.6369C76.3067 67.5684 74.559 63.7887 76.3473 59.7041Z" fill="#EC8D48"/>
<path fill-rule="evenodd" clip-rule="evenodd" d="M61.4727 69.6818C62.2855 69.316 63.3829 68.9705 64.6225 69.0315C67.3049 69.1534 72.7103 66.9181 73.5435 65.6988C73.5435 65.6988 69.5605 73.0145 65.5776 75.4124C69.4792 73.5835 72.1007 68.808 72.1007 68.808L71.9584 69.4786C73.0558 68.0358 73.9499 64.8047 73.9499 64.8047C72.121 66.8368 65.2321 68.5641 65.3947 68.5641C65.5369 68.5641 66.2482 68.1983 66.2482 68.1983C64.1551 68.5235 62.5294 69.1534 61.4727 69.6818Z" fill="#B73C0E"/>
<path fill-rule="evenodd" clip-rule="evenodd" d="M76.3473 59.7041C76.3473 59.7041 66.3493 63.3619 63.362 65.7802C63.362 65.7802 60.7203 69.7631 59.9277 70.6166C59.9277 70.6166 63.2198 67.162 65.9428 65.6379C65.9428 65.6379 64.0936 66.0647 63.6668 66.4304C63.2401 66.7962 66.7963 64.0122 71.6531 62.4272C71.6531 62.4272 70.7183 62.5491 70.3729 62.6304C70.0274 62.7117 74.0307 61.0453 74.8029 60.9031C75.5954 60.7608 75.2296 64.1545 75.0671 64.9876C74.9045 65.8208 75.758 70.007 73.8275 72.2626C74.4371 71.7953 74.9248 71.2669 75.128 70.6979C76.3067 67.5684 74.559 63.7887 76.3473 59.7041Z" fill="#F6EFC2"/>
<path fill-rule="evenodd" clip-rule="evenodd" d="M84.2113 78.9686C84.5162 77.8916 84.7397 76.8146 84.6178 76.144C84.3333 74.4166 83.622 71.084 83.622 71.084C83.622 71.084 85.0039 73.177 84.9429 74.1525C84.8819 75.1279 85.6948 76.6317 85.7761 77.668C85.7964 77.9729 85.7761 78.4606 85.6948 78.9686H84.2113V78.9686ZM80.269 78.9686C81.2038 77.3226 82.1182 75.453 82.1792 74.315C82.3215 71.9578 82.5043 71.0433 82.5043 71.0433C82.5043 71.0433 84.13 74.0509 82.7279 78.9686H80.269ZM78.1353 78.9686C79.5578 76.9162 81.1835 74.4979 81.3054 73.746C81.4883 72.7503 81.2444 75.8391 79.3952 78.9686H78.1353ZM76.8957 60.4966C76.8957 60.4966 80.1877 62.6506 78.9481 68.7877C78.9481 68.7877 80.0048 66.6336 79.9642 65.7191C79.9235 64.8047 80.2284 68.5641 79.7 70.7182C79.7 70.7182 81.1225 67.3652 80.5332 64.5811C80.2893 63.4432 79.761 63.0367 79.0497 62.1832C79.0497 62.1832 81.1428 62.7522 81.4273 64.7844C81.4273 64.7844 81.5086 64.4999 81.5086 64.3373C81.7321 64.7234 82.8905 65.8614 82.3824 67.9342C81.8947 70.0069 80.5738 70.6978 80.2893 73.8273C80.1268 75.6156 78.7449 77.3429 77.2005 79.0092H61.9189C62.3253 78.7451 62.6708 78.4809 62.8943 78.237C64.7029 76.2049 71.6325 74.7215 72.7705 73.9086C73.9085 73.0348 77.1802 73.1364 76.8957 60.4966Z" fill="#EC8D48"/>
<path fill-rule="evenodd" clip-rule="evenodd" d="M83.6221 71.0835C83.6221 71.0835 85.6542 76.5702 84.7601 78.9681H84.2114C84.5162 77.8911 84.7397 76.8141 84.6178 76.1435C84.3333 74.3959 83.6221 71.0835 83.6221 71.0835Z" fill="#F6EFC2"/>
<path fill-rule="evenodd" clip-rule="evenodd" d="M82.5049 71.043C82.5049 71.043 82.6065 75.9404 80.9605 78.9683H80.2695C81.2043 77.3222 82.1188 75.4527 82.1797 74.3147C82.322 71.9574 82.5049 71.043 82.5049 71.043Z" fill="#F6EFC2"/>
<path fill-rule="evenodd" clip-rule="evenodd" d="M81.0409 74.4365C80.6142 75.4729 79.6794 77.4644 78.4398 78.9682H78.1553C79.273 77.3628 80.4923 75.5136 81.0409 74.4365Z" fill="#F6EFC2"/>
<path fill-rule="evenodd" clip-rule="evenodd" d="M82.1384 65.272C82.4432 65.8816 82.6667 66.7351 82.4026 67.8934C81.9149 69.9662 80.594 70.6571 80.3095 73.7866C80.2892 74.3149 79.9234 75.5545 79.2528 76.469C78.7041 77.3225 77.9725 78.1556 77.2206 78.9888H76.4688C79.0699 76.9567 79.8014 73.1973 79.7202 73.3802C79.6389 73.5834 78.8057 73.6646 78.8057 73.6646C82.0368 70.0678 82.1384 65.2923 82.1384 65.272Z" fill="#B73C0E"/>
<path fill-rule="evenodd" clip-rule="evenodd" d="M64.1543 78.9683H61.9189C62.3253 78.7041 62.6708 78.44 62.8943 78.1961C64.7029 76.164 71.6325 74.6805 72.7705 73.8677C73.9085 73.0548 77.1802 73.1564 76.8754 60.5166C76.8754 60.5166 78.2978 68.2996 75.8796 72.811C75.8796 72.811 76.0828 71.5307 76.1438 70.8601C76.1438 70.8601 76.2657 74.9853 67.5885 76.7533L68.3811 76.1843C68.4217 76.1436 66.857 76.611 64.1543 78.9683Z" fill="#B73C0E"/>
<path fill-rule="evenodd" clip-rule="evenodd" d="M77.6064 61.167C78.5006 62.2034 79.8011 64.5403 78.9476 68.7671C78.9476 68.7671 80.0044 66.6131 79.9637 65.6986C79.9231 64.7842 80.2279 68.5436 79.6995 70.6977C79.6995 70.6977 80.9798 67.7104 80.614 65.028C80.6953 65.2109 80.7562 65.4141 80.8375 65.6377C81.5488 67.7714 79.1509 71.8357 79.3947 71.3479C79.6589 70.8602 79.6792 69.2142 79.6386 68.1372C79.2525 69.072 78.3177 70.2709 78.3177 70.2709C78.7038 69.072 78.846 65.1906 78.846 65.1906L78.4599 66.5521C78.7444 64.2152 77.6064 61.1873 77.6064 61.167Z" fill="#F6EFC2"/>
<path fill-rule="evenodd" clip-rule="evenodd" d="M55.7417 78.9687C56.9203 78.5419 59.2369 77.7494 60.6188 77.4649C62.529 77.0788 63.3825 77.0381 63.3825 77.0381C63.3825 77.0381 61.96 77.9729 60.0904 78.9687H55.7417ZM54.3598 63.3213C54.3598 63.3213 55.1524 65.5769 57.0016 66.4914C58.8712 67.4059 61.0659 66.8572 61.899 66.2069C61.899 66.2069 59.5621 70.454 58.7899 71.714C58.7899 71.714 61.7161 70.3524 64.1344 69.9867C66.5526 69.6209 69.9869 68.3 70.1495 68.2187C70.312 68.1577 66.5119 73.929 64.175 75.4531C61.9803 76.8959 57.0829 77.5665 55.2946 78.9687H45.5811C45.642 78.8467 45.6827 78.7248 45.7233 78.6232C46.3736 76.9365 50.1127 73.9696 50.2143 70.9011L49.3202 71.9781C49.3202 71.9781 50.8036 69.0519 51.1491 68.0561C51.4945 67.0807 50.763 71.3279 52.348 75.1686C52.348 75.1686 53.5876 77.2617 53.6079 77.0991C53.6079 76.9365 52.9373 74.9857 52.7341 73.6038C52.7341 73.6038 53.3031 74.6402 53.8112 75.2905C53.8112 75.2905 53.7502 74.7012 53.6892 73.6038C53.6486 72.4862 52.3277 67.3246 54.3598 63.3213Z" fill="#EC8D48"/>
<path fill-rule="evenodd" clip-rule="evenodd" d="M46.0078 78.9683H45.5811C45.642 78.8464 45.6827 78.7245 45.7233 78.6229C46.3736 76.9362 50.1127 73.9693 50.2143 70.9008L49.3202 71.9778C49.3202 71.9778 50.702 69.2751 51.1084 68.1777C51.1084 68.1981 51.1288 68.1981 51.1288 68.2184C51.1288 68.2184 50.5801 70.3318 50.3972 71.104C50.3972 71.104 50.641 70.8398 50.5598 70.8195C50.4785 70.7992 50.1127 74.1522 48.487 75.6356C48.487 75.6356 48.6292 75.1479 48.6496 74.9447C48.6902 74.7618 46.7394 77.7084 46.0078 78.9683Z" fill="#F6EFC2"/>
<path fill-rule="evenodd" clip-rule="evenodd" d="M67.8124 71.6122C66.6541 73.1363 65.2519 74.7417 64.1749 75.4529C61.9802 76.8958 57.0828 77.5664 55.2945 78.9685H54.502C54.9693 78.3995 55.5587 77.7493 55.8838 77.546C56.5138 77.1396 60.7812 76.2658 60.7812 76.2658C60.07 76.3064 57.3469 76.5097 57.3469 76.5097C64.561 75.0465 67.7921 71.5513 67.7921 71.5513C67.8327 71.5716 67.8124 71.5919 67.8124 71.6122Z" fill="#B73C0E"/>
<path fill-rule="evenodd" clip-rule="evenodd" d="M51.1692 68.0356C51.5146 67.0602 50.7831 71.3074 52.3681 75.1481C52.3681 75.1481 53.6077 77.2412 53.6281 77.0786C53.6281 76.916 52.9575 74.9652 52.7542 73.5834C53.181 74.4368 53.9938 78.054 53.9938 78.054C53.4655 77.5054 51.6366 75.331 51.6366 75.331L51.5959 76.3267C50.5189 73.0144 51.1692 68.0356 51.1692 68.0356Z" fill="#B73C0E"/>
<path fill-rule="evenodd" clip-rule="evenodd" d="M58.7891 71.6937C58.7891 71.6937 61.7153 70.3322 64.1336 69.9664C66.5518 69.6006 69.9861 68.2797 70.1487 68.1984C70.2299 68.1578 69.0919 69.9461 67.6695 71.7953C68.0149 71.3279 68.7465 69.3974 68.0556 69.438C67.3443 69.4787 63.3004 70.4338 63.3004 70.4338L64.1742 70.5557C62.5079 70.6979 58.7891 71.6937 58.7891 71.6937Z" fill="#F6EFC2"/>
<path fill-rule="evenodd" clip-rule="evenodd" d="M54.3591 63.3213C54.3591 63.3213 55.1516 65.577 57.0008 66.4914C58.8501 67.4059 61.0244 66.8572 61.8779 66.2069C61.8576 66.2679 61.8373 66.3085 61.7966 66.3695C61.4715 66.9588 60.3945 68.93 59.5613 70.3728C59.5613 70.3728 60.5774 68.2187 59.5207 67.8733C59.5207 67.8733 60.2319 68.0358 60.3132 68.2187C60.3132 68.2187 60.1303 67.3652 57.9559 67.5278C55.7816 67.6904 55.2329 65.8411 54.8468 65.3331L55.4564 65.9021C55.4564 65.9021 55.0906 65.0892 54.6639 64.8454C54.2371 64.6015 54.0542 65.9021 54.0542 66.9588L53.851 66.5117C53.851 66.5117 53.9526 71.8156 53.6072 72.8113C53.3227 70.9214 52.6318 66.7149 54.3591 63.3213Z" fill="#F6EFC2"/>
<path fill-rule="evenodd" clip-rule="evenodd" d="M78.6228 37.4727C78.6228 37.4727 76.5704 43.8535 76.3672 45.9466C76.3672 45.9466 76.2249 45.2354 76.2453 44.6461C76.2453 44.6461 75.2902 48.2226 75.3105 49.8077C75.3105 49.8077 74.8837 46.353 76.0014 42.4717C76.0014 42.4717 75.9811 43.0204 76.1843 43.5081C76.1843 43.4878 77.18 39.3422 78.6228 37.4727Z" fill="#D2877B"/>
<path fill-rule="evenodd" clip-rule="evenodd" d="M78.6228 37.4722C78.6228 37.4722 76.5704 43.853 76.3672 45.9461C76.3672 45.9461 76.2249 45.2349 76.2453 44.6456C76.2453 44.6456 75.2902 48.2221 75.3105 49.8072C75.1276 47.9173 75.9608 43.7108 75.9608 43.7108C76.042 43.853 76.3672 44.0766 76.3672 44.0766C76.4688 43.0402 78.6228 37.4722 78.6228 37.4722Z" fill="#FAC3A5"/>
<path d="M76.8145 56.1882C76.8145 56.4452 69.0924 57.9155 66.4507 57.9155C62.7929 57.9155 61.218 58.0171 59.2366 57.4074C53.9531 55.7817 55.8836 56.2898 55.5788 53.9528C55.335 52.0833 52.9032 45.1131 51.7178 41.8617C52.0903 41.252 52.998 39.6467 53.6483 38.1022C54.2986 36.5578 52.6322 32.2429 51.7178 30.2786C52.1242 30.1431 53.1199 29.9534 53.8515 30.2786C54.766 30.685 57.5093 30.0753 59.4399 29.7705C60.9843 29.5267 61.5397 27.2642 60.9639 24.995C60.9639 24.5886 62.488 23.7758 62.6913 23.8774C62.8945 23.979 63.5041 24.1822 63.9105 24.3854C64.317 24.5886 75.0872 27.5352 75.2904 27.5352C75.4936 27.5352 78.3386 29.4657 78.5418 29.6689C78.745 29.8721 76.8145 29.2625 77.0177 32.1075C77.1803 34.3835 78.7789 37.0523 79.5579 38.1022C78.7112 40.3376 76.9161 45.2553 76.5097 47.0436C76.1033 48.8319 76.3404 52.361 76.5097 53.8512C76.6113 54.6641 76.8145 55.5785 76.8145 56.1882Z" fill="#FAC3A5"/>
<mask id="path-54-outside-1_2_25658" maskUnits="userSpaceOnUse" x="22.4053" y="82.1235" width="87" height="17" fill="black">
<rect fill="white" x="22.4053" y="82.1235" width="87" height="17"/>
<path d="M38.5684 97.1356H35.6226L33.3401 88.2008L31.0771 97.1356H28.1314L24.4053 84.1235H27.5071L29.7896 93.5266L32.2672 84.1235H34.4326L36.8907 93.5266L39.1536 84.1235H42.275L38.5684 97.1356Z"/>
<path d="M54.8584 97.1356H51.698L50.8982 94.9312H45.3187L44.4994 97.1356H41.339L46.3722 84.1235H49.8447L54.8584 97.1356ZM50.1373 92.4926L48.1084 86.8937L46.0796 92.4926H50.1373Z"/>
<path d="M64.3315 97.1356H56.06V84.1235H58.8301V94.6971H64.3315V97.1356Z"/>
<path d="M76.8059 97.1356H73.6261L71.0705 92.5122H69.0416V97.1356H66.2714V84.1235H72.358C73.6976 84.1235 74.7575 84.5137 75.5379 85.294C76.3312 86.0744 76.7279 87.0823 76.7279 88.3178C76.7279 89.3843 76.4483 90.2492 75.889 90.9125C75.3428 91.5757 74.673 91.9984 73.8797 92.1805L76.8059 97.1356ZM71.9483 90.0736C72.5206 90.0736 72.9888 89.9175 73.3529 89.6054C73.7171 89.2803 73.8992 88.8511 73.8992 88.3178C73.8992 87.7846 73.7171 87.3619 73.3529 87.0498C72.9888 86.7247 72.5206 86.5621 71.9483 86.5621H69.0416V90.0736H71.9483Z"/>
<path d="M89.049 95.9066C88.0606 96.882 86.6039 97.3697 84.6791 97.3697C82.7543 97.3697 81.2911 96.882 80.2897 95.9066C79.3013 94.9182 78.8071 93.5981 78.8071 91.9464V84.1235H81.6163V91.8489C81.6163 92.7853 81.8829 93.5331 82.4161 94.0923C82.9493 94.6386 83.7037 94.9117 84.6791 94.9117C85.6545 94.9117 86.4023 94.6386 86.9226 94.0923C87.4558 93.5331 87.7224 92.7853 87.7224 91.8489V84.1235H90.5511V91.9269C90.5511 93.6046 90.0504 94.9312 89.049 95.9066Z"/>
<path d="M107.219 97.1356H104.429V88.0252L100.762 97.1356H99.5523L95.8847 88.0252V97.1356H93.1145V84.1235H96.9967L100.157 91.9854L103.317 84.1235H107.219V97.1356Z"/>
</mask>
<path d="M38.5684 97.1356H35.6226L33.3401 88.2008L31.0771 97.1356H28.1314L24.4053 84.1235H27.5071L29.7896 93.5266L32.2672 84.1235H34.4326L36.8907 93.5266L39.1536 84.1235H42.275L38.5684 97.1356Z" fill="white"/>
<path d="M54.8584 97.1356H51.698L50.8982 94.9312H45.3187L44.4994 97.1356H41.339L46.3722 84.1235H49.8447L54.8584 97.1356ZM50.1373 92.4926L48.1084 86.8937L46.0796 92.4926H50.1373Z" fill="white"/>
<path d="M64.3315 97.1356H56.06V84.1235H58.8301V94.6971H64.3315V97.1356Z" fill="white"/>
<path d="M76.8059 97.1356H73.6261L71.0705 92.5122H69.0416V97.1356H66.2714V84.1235H72.358C73.6976 84.1235 74.7575 84.5137 75.5379 85.294C76.3312 86.0744 76.7279 87.0823 76.7279 88.3178C76.7279 89.3843 76.4483 90.2492 75.889 90.9125C75.3428 91.5757 74.673 91.9984 73.8797 92.1805L76.8059 97.1356ZM71.9483 90.0736C72.5206 90.0736 72.9888 89.9175 73.3529 89.6054C73.7171 89.2803 73.8992 88.8511 73.8992 88.3178C73.8992 87.7846 73.7171 87.3619 73.3529 87.0498C72.9888 86.7247 72.5206 86.5621 71.9483 86.5621H69.0416V90.0736H71.9483Z" fill="white"/>
<path d="M89.049 95.9066C88.0606 96.882 86.6039 97.3697 84.6791 97.3697C82.7543 97.3697 81.2911 96.882 80.2897 95.9066C79.3013 94.9182 78.8071 93.5981 78.8071 91.9464V84.1235H81.6163V91.8489C81.6163 92.7853 81.8829 93.5331 82.4161 94.0923C82.9493 94.6386 83.7037 94.9117 84.6791 94.9117C85.6545 94.9117 86.4023 94.6386 86.9226 94.0923C87.4558 93.5331 87.7224 92.7853 87.7224 91.8489V84.1235H90.5511V91.9269C90.5511 93.6046 90.0504 94.9312 89.049 95.9066Z" fill="white"/>
<path d="M107.219 97.1356H104.429V88.0252L100.762 97.1356H99.5523L95.8847 88.0252V97.1356H93.1145V84.1235H96.9967L100.157 91.9854L103.317 84.1235H107.219V97.1356Z" fill="white"/>
<path d="M38.5684 97.1356V98.5571H39.6415L39.9355 97.5251L38.5684 97.1356ZM35.6226 97.1356L34.2454 97.4875L34.5186 98.5571H35.6226V97.1356ZM33.3401 88.2008L34.7174 87.849L31.9622 87.8518L33.3401 88.2008ZM31.0771 97.1356V98.5571H32.1835L32.4551 97.4846L31.0771 97.1356ZM28.1314 97.1356L26.7648 97.527L27.0598 98.5571H28.1314V97.1356ZM24.4053 84.1235V82.7021H22.5196L23.0387 84.5149L24.4053 84.1235ZM27.5071 84.1235L28.8885 83.7882L28.6248 82.7021H27.5071V84.1235ZM29.7896 93.5266L28.4083 93.8619L31.1641 93.8888L29.7896 93.5266ZM32.2672 84.1235V82.7021H31.1717L30.8926 83.7614L32.2672 84.1235ZM34.4326 84.1235L35.8078 83.764L35.5302 82.7021H34.4326V84.1235ZM36.8907 93.5266L35.5154 93.8861L38.2727 93.8592L36.8907 93.5266ZM39.1536 84.1235V82.7021H38.0337L37.7716 83.7909L39.1536 84.1235ZM42.275 84.1235L43.642 84.513L44.1579 82.7021H42.275V84.1235ZM54.8584 97.1356V98.5571H56.9294L56.1848 96.6246L54.8584 97.1356ZM51.698 97.1356L50.3618 97.6205L50.7016 98.5571H51.698V97.1356ZM50.8981 94.9312L52.2344 94.4464L51.8945 93.5097H50.8981V94.9312ZM45.3187 94.9312V93.5097H44.3306L43.9863 94.436L45.3187 94.9312ZM44.4994 97.1356V98.5571H45.4875L45.8318 97.6309L44.4994 97.1356ZM41.339 97.1356L40.0133 96.6228L39.2651 98.5571H41.339V97.1356ZM46.3722 84.1235V82.7021H45.3979L45.0465 83.6107L46.3722 84.1235ZM49.8447 84.1235L51.1711 83.6125L50.8203 82.7021H49.8447V84.1235ZM50.1373 92.4926V93.9141H52.1643L51.4737 92.0084L50.1373 92.4926ZM48.1084 86.8937L49.4449 86.4095L48.1084 82.7215L46.772 86.4095L48.1084 86.8937ZM46.0796 92.4926L44.7432 92.0084L44.0526 93.9141H46.0796V92.4926ZM64.3315 97.1356V98.5571H65.753V97.1356H64.3315ZM56.06 97.1356H54.6385V98.5571H56.06V97.1356ZM56.06 84.1235V82.7021H54.6385V84.1235H56.06ZM58.8301 84.1235H60.2516V82.7021H58.8301V84.1235ZM58.8301 94.6971H57.4087V96.1185H58.8301V94.6971ZM64.3315 94.6971H65.753V93.2756H64.3315V94.6971ZM76.8059 97.1356V98.5571H79.2962L78.0299 96.4128L76.8059 97.1356ZM73.6261 97.1356L72.382 97.8233L72.7876 98.5571H73.6261V97.1356ZM71.0705 92.5122L72.3145 91.8245L71.9089 91.0907H71.0705V92.5122ZM69.0416 92.5122V91.0907H67.6201V92.5122H69.0416ZM69.0416 97.1356V98.5571H70.463V97.1356H69.0416ZM66.2714 97.1356H64.8499V98.5571H66.2714V97.1356ZM66.2714 84.1235V82.7021H64.8499V84.1235H66.2714ZM75.5379 85.294L74.5327 86.2992L74.5411 86.3074L75.5379 85.294ZM75.889 90.9125L74.8023 89.9962L74.797 90.0025L74.7918 90.0088L75.889 90.9125ZM73.8797 92.1805L73.5617 90.7951L71.6674 91.2298L72.6557 92.9033L73.8797 92.1805ZM73.3529 89.6054L74.278 90.6846L74.2889 90.6753L74.2996 90.6657L73.3529 89.6054ZM73.3529 87.0498L72.4062 88.1101L72.417 88.1197L72.4279 88.129L73.3529 87.0498ZM69.0416 86.5621V85.1406H67.6201V86.5621H69.0416ZM69.0416 90.0736H67.6201V91.4951H69.0416V90.0736ZM89.049 95.9066L88.0571 94.8883L88.0505 94.8949L89.049 95.9066ZM80.2897 95.9066L79.2846 96.9117L79.2912 96.9183L79.2979 96.9249L80.2897 95.9066ZM78.8071 84.1235V82.7021H77.3856V84.1235H78.8071ZM81.6163 84.1235H83.0377V82.7021H81.6163V84.1235ZM82.4161 94.0923L81.3874 95.0732L81.3931 95.0793L81.399 95.0853L82.4161 94.0923ZM86.9226 94.0923L85.8938 93.1114L85.8932 93.112L86.9226 94.0923ZM87.7224 84.1235V82.7021H86.3009V84.1235H87.7224ZM90.5511 84.1235H91.9726V82.7021H90.5511V84.1235ZM107.219 97.1356V98.5571H108.641V97.1356H107.219ZM104.429 97.1356H103.008V98.5571H104.429V97.1356ZM104.429 88.0252H105.851L103.111 87.4944L104.429 88.0252ZM100.762 97.1356V98.5571H101.722L102.08 97.6665L100.762 97.1356ZM99.5523 97.1356L98.2337 97.6665L98.5922 98.5571H99.5523V97.1356ZM95.8847 88.0252L97.2033 87.4944L94.4632 88.0252H95.8847ZM95.8847 97.1356V98.5571H97.3062V97.1356H95.8847ZM93.1145 97.1356H91.693V98.5571H93.1145V97.1356ZM93.1145 84.1235V82.7021H91.693V84.1235H93.1145ZM96.9967 84.1235L98.3156 83.5934L97.9573 82.7021H96.9967V84.1235ZM100.157 91.9854L98.8382 92.5156L100.157 95.7965L101.476 92.5156L100.157 91.9854ZM103.317 84.1235V82.7021H102.357L101.999 83.5934L103.317 84.1235ZM107.219 84.1235H108.641V82.7021H107.219V84.1235ZM38.5684 95.7142H35.6226V98.5571H38.5684V95.7142ZM36.9998 96.7838L34.7174 87.849L31.9629 88.5526L34.2454 97.4875L36.9998 96.7838ZM31.9622 87.8518L29.6992 96.7866L32.4551 97.4846L34.7181 88.5498L31.9622 87.8518ZM31.0771 95.7142H28.1314V98.5571H31.0771V95.7142ZM29.4979 96.7443L25.7718 83.7322L23.0387 84.5149L26.7648 97.527L29.4979 96.7443ZM24.4053 85.545H27.5071V82.7021H24.4053V85.545ZM26.1258 84.4588L28.4083 93.8619L31.1709 93.1913L28.8885 83.7882L26.1258 84.4588ZM31.1641 93.8888L33.6417 84.4857L30.8926 83.7614L28.4151 93.1644L31.1641 93.8888ZM32.2672 85.545H34.4326V82.7021H32.2672V85.545ZM33.0574 84.483L35.5154 93.8861L38.2659 93.1671L35.8078 83.764L33.0574 84.483ZM38.2727 93.8592L40.5356 84.4561L37.7716 83.7909L35.5087 93.194L38.2727 93.8592ZM39.1536 85.545H42.275V82.7021H39.1536V85.545ZM40.9079 83.7341L37.2013 96.7462L39.9355 97.5251L43.642 84.513L40.9079 83.7341ZM54.8584 95.7142H51.698V98.5571H54.8584V95.7142ZM53.0342 96.6508L52.2344 94.4464L49.5619 95.416L50.3618 97.6205L53.0342 96.6508ZM50.8981 93.5097H45.3187V96.3527H50.8981V93.5097ZM43.9863 94.436L43.167 96.6404L45.8318 97.6309L46.6511 95.4264L43.9863 94.436ZM44.4994 95.7142H41.339V98.5571H44.4994V95.7142ZM42.6648 97.6484L47.6979 84.6363L45.0465 83.6107L40.0133 96.6228L42.6648 97.6484ZM46.3722 85.545H49.8447V82.7021H46.3722V85.545ZM48.5183 84.6346L53.532 97.6467L56.1848 96.6246L51.1711 83.6125L48.5183 84.6346ZM51.4737 92.0084L49.4449 86.4095L46.772 87.378L48.8009 92.9769L51.4737 92.0084ZM46.772 86.4095L44.7432 92.0084L47.416 92.9769L49.4449 87.378L46.772 86.4095ZM46.0796 93.9141H50.1373V91.0712H46.0796V93.9141ZM64.3315 95.7142H56.06V98.5571H64.3315V95.7142ZM57.4814 97.1356V84.1235H54.6385V97.1356H57.4814ZM56.06 85.545H58.8301V82.7021H56.06V85.545ZM57.4087 84.1235V94.6971H60.2516V84.1235H57.4087ZM58.8301 96.1185H64.3315V93.2756H58.8301V96.1185ZM62.9101 94.6971V97.1356H65.753V94.6971H62.9101ZM76.8059 95.7142H73.6261V98.5571H76.8059V95.7142ZM74.8701 96.448L72.3145 91.8245L69.8264 93.1998L72.382 97.8233L74.8701 96.448ZM71.0705 91.0907H69.0416V93.9336H71.0705V91.0907ZM67.6201 92.5122V97.1356H70.463V92.5122H67.6201ZM69.0416 95.7142H66.2714V98.5571H69.0416V95.7142ZM67.6928 97.1356V84.1235H64.8499V97.1356H67.6928ZM66.2714 85.545H72.358V82.7021H66.2714V85.545ZM72.358 85.545C73.4066 85.545 74.0742 85.8406 74.5328 86.2992L76.543 84.2889C75.4409 83.1868 73.9886 82.7021 72.358 82.7021V85.545ZM74.5411 86.3074C75.0315 86.7898 75.3064 87.4172 75.3064 88.3178H78.1493C78.1493 86.7474 77.6309 85.3589 76.5347 84.2806L74.5411 86.3074ZM75.3064 88.3178C75.3064 89.1286 75.0991 89.6442 74.8023 89.9962L76.9758 91.8287C77.7975 90.8541 78.1493 89.64 78.1493 88.3178H75.3064ZM74.7918 90.0088C74.4331 90.4443 74.0315 90.6873 73.5617 90.7951L74.1976 93.5659C75.3145 93.3096 76.2525 92.7072 76.9863 91.8161L74.7918 90.0088ZM72.6557 92.9033L75.582 97.8585L78.0299 96.4128L75.1036 91.4577L72.6557 92.9033ZM71.9483 91.4951C72.7912 91.4951 73.6085 91.2585 74.278 90.6846L72.4279 88.5261C72.3691 88.5765 72.2499 88.6521 71.9483 88.6521V91.4951ZM74.2996 90.6657C74.9958 90.0442 75.3206 89.2141 75.3206 88.3178H72.4777C72.4777 88.421 72.4606 88.469 72.454 88.4845C72.4488 88.497 72.4395 88.5154 72.4062 88.5451L74.2996 90.6657ZM75.3206 88.3178C75.3206 87.4218 74.9947 86.5849 74.278 85.9705L72.4279 88.129C72.4424 88.1415 72.4489 88.1496 72.4511 88.1526C72.4533 88.1555 72.455 88.1583 72.4571 88.1633C72.4605 88.1711 72.4777 88.2142 72.4777 88.3178H75.3206ZM74.2996 85.9895C73.6311 85.3925 72.8061 85.1406 71.9483 85.1406V87.9835C72.2351 87.9835 72.3465 88.0568 72.4062 88.1101L74.2996 85.9895ZM71.9483 85.1406H69.0416V87.9835H71.9483V85.1406ZM67.6201 86.5621V90.0736H70.463V86.5621H67.6201ZM69.0416 91.4951H71.9483V88.6521H69.0416V91.4951ZM88.0505 94.8949C87.4169 95.5201 86.3769 95.9483 84.6791 95.9483V98.7912C86.831 98.7912 88.7042 98.2439 90.0474 96.9184L88.0505 94.8949ZM84.6791 95.9483C82.9828 95.9483 81.9307 95.5207 81.2815 94.8884L79.2979 96.9249C80.6516 98.2434 82.5258 98.7912 84.6791 98.7912V95.9483ZM81.2948 94.9015C80.6209 94.2275 80.2285 93.2948 80.2285 91.9464H77.3856C77.3856 93.9015 77.9817 95.6088 79.2846 96.9117L81.2948 94.9015ZM80.2285 91.9464V84.1235H77.3856V91.9464H80.2285ZM78.8071 85.545H81.6163V82.7021H78.8071V85.545ZM80.1948 84.1235V91.8489H83.0377V84.1235H80.1948ZM80.1948 91.8489C80.1948 93.0686 80.5507 94.1957 81.3874 95.0732L83.4449 93.1114C83.2151 92.8704 83.0377 92.5019 83.0377 91.8489H80.1948ZM81.399 95.0853C82.2689 95.9764 83.4327 96.3331 84.6791 96.3331V93.4902C83.9746 93.4902 83.6298 93.3007 83.4333 93.0994L81.399 95.0853ZM84.6791 96.3331C85.9235 96.3331 87.0906 95.977 87.9519 95.0726L85.8932 93.112C85.7141 93.3001 85.3855 93.4902 84.6791 93.4902V96.3331ZM87.9513 95.0732C88.788 94.1957 89.1439 93.0686 89.1439 91.8489H86.3009C86.3009 92.5019 86.1236 92.8704 85.8938 93.1114L87.9513 95.0732ZM89.1439 91.8489V84.1235H86.3009V91.8489H89.1439ZM87.7224 85.545H90.5511V82.7021H87.7224V85.545ZM89.1297 84.1235V91.9269H91.9726V84.1235H89.1297ZM89.1297 91.9269C89.1297 93.3036 88.7299 94.233 88.0572 94.8884L90.0408 96.9249C91.3709 95.6293 91.9726 93.9056 91.9726 91.9269H89.1297ZM107.219 95.7142H104.429V98.5571H107.219V95.7142ZM105.851 97.1356V88.0252H103.008V97.1356H105.851ZM103.111 87.4944L99.4432 96.6048L102.08 97.6665L105.748 88.5561L103.111 87.4944ZM100.762 95.7142H99.5523V98.5571H100.762V95.7142ZM100.871 96.6048L97.2033 87.4944L94.5661 88.5561L98.2337 97.6665L100.871 96.6048ZM94.4632 88.0252V97.1356H97.3062V88.0252H94.4632ZM95.8847 95.7142H93.1145V98.5571H95.8847V95.7142ZM94.5359 97.1356V84.1235H91.693V97.1356H94.5359ZM93.1145 85.545H96.9967V82.7021H93.1145V85.545ZM95.6778 84.6537L98.8382 92.5156L101.476 91.4553L98.3156 83.5934L95.6778 84.6537ZM101.476 92.5156L104.636 84.6537L101.999 83.5934L98.8382 91.4553L101.476 92.5156ZM103.317 85.545H107.219V82.7021H103.317V85.545ZM105.798 84.1235V97.1356H108.641V84.1235H105.798Z" fill="#D27860" mask="url(#path-54-outside-1_2_25658)"/>
<g style="mix-blend-mode:darken">
<rect x="53.6484" y="26.8242" width="24.1823" height="20.118" fill="url(#pattern0)"/>
</g>
<defs>
<pattern id="pattern0" patternContentUnits="objectBoundingBox" width="1" height="1">
<use xlink:href="#image0_2_25658" transform="translate(0 -0.00470584) scale(0.00148368 0.00178341)"/>
</pattern>
</defs>
</svg>
