<svg width="739" height="632" viewBox="0 0 739 632" fill="none" xmlns="http://www.w3.org/2000/svg">
<path d="M699.269 316C699.269 490.522 557.852 632 383.406 632C222.931 632 90.4069 512.276 70.2086 357.241C83.7866 355.495 85.4025 352.989 104.5 350.249L116 347.5C145.706 343.238 144.5 341.5 144.5 341.5L67.543 316.087V316C67.543 315.813 63.9997 315.687 64 315.5L0 305.62H67.7102C69.0396 264.409 78.2567 225.191 93.9005 189.429L159 179L105.215 166.209C105.226 166.188 105.238 166.167 105.249 166.146L60.5853 160.396L112.793 152.933C168.092 61.2816 268.595 0 383.406 0C484.692 0 574.844 47.6944 632.645 121.859L569 124.5L661.109 165.308C678.012 196.419 689.844 230.688 695.495 267.004L739 282.356L702.5 281.88C702.519 282.058 697.43 281.702 697.449 281.88L612 286.5L699.269 315.743L699.269 316Z" fill="#FF0000"/>
</svg>
