<svg width="701" height="662" viewBox="0 0 701 662" fill="none" xmlns="http://www.w3.org/2000/svg">
<path d="M700.637 283.1C701.121 290.889 701.121 298.7 700.637 306.488C700.386 313.907 699.654 321.3 698.447 328.62C698.402 330.676 698.157 332.729 697.711 334.748V350.828C696.426 364.939 694.144 378.941 690.882 392.731C689.238 399.186 687.43 405.595 685.459 411.951C685.73 413.151 685.578 414.521 684.185 415.983C684.141 416.12 684.097 416.257 684.053 416.393V420.991C684.053 425.82 681.058 430.317 678.916 435.03C676.285 443.253 672.982 451.247 669.041 458.932C668.054 461.741 666.362 465.084 664.71 467.229C662.125 472.724 659.303 478.106 656.249 483.359C639.76 511.101 619.022 536.091 594.789 557.421L577.716 571.551L565.522 581.783C564.059 583.245 555.279 590.553 555.279 590.553L537.231 602.247L548.45 594.939L556.254 587.63C527.151 606.774 496.28 623.09 464.063 636.355C473.103 634.728 481.936 632.113 490.404 628.559C494.184 627.424 497.793 625.785 501.135 623.686V633.965C501.918 633.651 502.706 633.349 503.499 633.06C507.045 631.321 513.329 628.559 513.329 628.559L528.451 619.788C527.153 620.825 517.842 626.278 509.415 631.153C509.77 631.054 510.125 630.957 510.481 630.862C511.025 630.639 511.5 630.508 511.866 630.508C511.403 630.622 510.942 630.74 510.481 630.862C507.398 632.129 502.11 636.355 502.11 636.355L486.989 644.151C480.495 646.771 473.809 648.889 466.99 650.485C445.715 655.829 424.003 659.253 402.115 660.717C380.446 661.7 358.733 660.721 337.24 657.794C319.68 655.844 304.559 651.947 288.462 649.023C279.897 647.39 271.549 644.774 263.585 641.227C260.205 639.638 256.574 638.649 252.854 638.304C250.013 636.957 247.079 635.817 244.074 634.893L231.391 629.533L204.076 615.403C181.313 602.252 160.606 585.836 142.615 566.678C145.808 569.702 149.233 572.471 152.859 574.961L172.37 587.63C182.613 595.426 193.345 602.734 204.564 610.043L226.026 622.224C228.861 624.171 231.99 625.652 235.294 626.61C236.434 627.179 239.202 627.97 242.042 628.753C236.068 626.174 228.953 622.712 228.953 622.712C230.872 622.216 232.886 622.216 234.806 622.712C231.392 618.814 223.587 618.814 219.197 615.89L215.295 613.454L200.173 603.709C199.198 602.734 186.028 593.964 186.028 593.964C186.516 592.502 173.833 586.168 173.833 586.168L170.419 583.245L160.276 575.416C160.814 575.864 161.151 576.348 161.151 576.91C159.748 575.883 158.359 574.838 156.983 573.777C156.25 573.347 155.561 572.846 154.928 572.278C154.509 571.976 154.134 571.651 153.831 571.296C144.722 563.985 136.238 555.922 128.47 547.188C118.858 538.327 110.342 528.349 103.105 517.466C106.076 520.039 108.7 522.988 110.909 526.237C110.909 528.327 115.309 532.249 118.376 534.972C117.456 533.506 116.43 531.716 115.3 530.135C112.861 526.724 107.983 523.313 107.983 519.902L94.3249 498.464C89.7822 489.842 83.5472 481.643 79.166 472.686C78.8208 472.021 78.5055 471.355 78.2281 470.69C78.5297 471.36 78.8428 472.025 79.166 472.686C81.856 477.867 86.3655 483.049 88.9593 488.231C86.3263 482.401 83.3959 476.709 80.1793 471.178L75.3014 462.407C71.0008 452.442 67.4146 442.184 64.5702 431.711C61.1591 421.734 58.7091 411.456 57.2535 401.014C55.7726 394.11 54.7945 387.108 54.3268 380.062C53.3184 378.451 52.7269 376.672 52.38 374.831C53.7848 393.094 57.0508 411.173 62.1313 428.787C63.5586 438.87 65.8431 448.814 68.9602 458.509C71.3991 464.843 73.3503 470.69 75.7892 476.537C76.0984 479.425 77.2906 482.147 79.2037 484.333C69.4481 474.101 68.4725 458.509 62.1313 446.815C60.448 442.506 58.9828 438.116 57.7413 433.66C56.7657 428.3 53.839 422.94 53.839 417.581C52.2923 412.673 51.3104 407.605 50.9124 402.476C52.3757 401.014 47.9856 387.858 47.9856 387.858C47.9714 388.054 47.9589 388.249 47.9481 388.444C53.1345 440.538 71.5179 490.686 101.642 534.033C99.795 531.377 97.6692 528.927 95.3005 526.724C93.4639 523.762 91.3399 520.987 88.9593 518.441C91.1211 520.012 92.9456 522 94.3249 524.288C92.6487 521.218 90.51 518.425 87.9838 516.004L82.6181 508.209C81.1548 504.798 74.3258 497.489 77.2525 498.464C80.1792 499.438 80.1793 504.311 80.1793 502.362C80.1793 500.413 75.7892 495.053 75.7892 495.053C73.9649 490.849 71.8458 486.778 69.448 482.872C73.0396 487.874 76.246 493.141 79.0399 498.627C72.8848 486.391 66.3213 474.139 60.6679 461.433C64.0824 471.178 69.4481 485.795 71.887 490.18C74.3259 494.566 76.277 499.438 78.7159 503.823V507.721C78.2281 505.772 73.8381 499.438 74.8137 502.849C74.8537 502.989 74.8995 503.127 74.9506 503.264C75.4503 504.105 75.9559 504.942 76.4671 505.776C78.0843 507.813 80.1793 509.6 80.1793 511.619C78.9103 509.691 77.6727 507.743 76.4671 505.776C75.8395 504.986 75.2838 504.158 74.9506 503.264C69.0409 493.323 63.9377 482.919 59.6924 472.152C53.9179 460.124 49.3432 447.558 46.0345 434.634C47.6275 438.262 48.9323 442.009 49.9368 445.841C50.9123 448.277 54.3268 458.022 54.3268 458.022C54.0629 455.105 54.0629 452.169 54.3268 449.252C53.3513 445.354 50.9124 441.456 50.9124 437.558L46.5223 416.119C46.5223 417.403 46.3105 422.073 46.3056 424.83C46.5333 425.849 46.6385 426.606 46.5223 426.838C46.356 427.171 46.3031 426.256 46.3056 424.83C45.5773 421.57 43.5957 415.632 43.5957 415.632L40.6689 399.552C39.813 393.568 38.4565 387.583 37.4778 381.599C37.318 382.461 36.9543 383.136 36.2789 383.473L36.2789 372.267V368.856V365.932C36.7665 357.656 36.7665 349.359 36.2789 341.083C36.0525 338.652 36.0525 336.205 36.2789 333.774C36.0539 331.506 36.0539 329.221 36.2789 326.952C37.1268 316.481 38.5927 306.068 40.6689 295.769C42.0167 290.978 42.9952 286.091 43.5957 281.151V282.753C44.2568 277.868 47.0101 272.626 47.0101 267.996C44.0834 266.534 47.0101 259.712 47.0101 259.712C47.2871 260.997 47.2871 262.326 47.0101 263.61C48.8537 258.86 50.3216 253.973 51.4002 248.993C52.9136 245.004 54.2161 240.938 55.3024 236.812V234.863C57.2535 233.888 59.6924 223.656 59.6924 223.656L67.0092 206.115C70.9114 197.832 72.8626 194.908 80.1793 182.24C87.496 169.572 96.7638 158.852 105.056 146.671C99.8115 152.247 95.0775 158.28 90.9104 164.699C88.4715 168.11 85.5449 172.982 84.0815 174.931C82.6182 176.88 78.7159 183.215 78.7159 183.215V180.291C77.2526 180.291 72.8625 191.01 72.8625 191.01C71.3732 193.342 70.0685 195.785 68.9602 198.319C67.5335 200.437 66.3859 202.73 65.5458 205.141V198.806C64.0824 199.294 62.6191 205.141 60.6679 209.039C58.7168 212.937 55.7902 220.245 55.3024 221.707C54.8146 223.169 47.9856 240.222 47.9856 240.222V236.812C43.5956 238.761 45.5468 244.12 43.5957 250.455C41.6445 256.789 38.23 263.61 38.23 269.945C35.2054 281.316 32.9243 292.872 31.4011 304.539V301.616C28.9622 312.335 28.9622 323.542 28.9622 333.774L28.9622 352.289C29.7024 355.66 29.7024 359.151 28.9622 362.522V363.496C29.8684 375.601 31.4972 387.641 33.84 399.552C34.8155 406.374 38.23 413.195 38.23 420.017C40.3663 425.041 42.0002 430.264 43.1079 435.609C40.729 430.414 38.7716 425.037 37.2544 419.53C38.1667 423.49 39.3067 427.394 40.6689 431.223V436.096C43.1078 435.121 40.6689 436.096 40.6689 438.532V436.096C38.23 437.07 39.6933 439.019 40.6689 442.43C41.6445 445.841 40.6689 444.866 44.0834 453.15C47.4978 461.433 50.9124 469.716 54.8146 477.999C58.0058 485.016 61.5885 491.848 65.5458 498.464L71.887 508.209C74.3259 509.183 74.3259 512.594 74.3259 512.594L71.3992 509.67C71.3992 510.645 76.7647 517.466 76.7647 517.466C80.8225 522.428 84.5694 527.635 87.9838 533.058L99.6905 547.676C106.143 555.017 112.982 562.011 120.177 568.627C127.238 575.776 134.909 582.298 143.103 588.117L149.444 592.99C151.395 594.451 156.761 598.349 156.761 598.349L151.395 594.939L145.054 590.553L138.713 586.168L143.591 591.528C147.005 594.451 151.395 597.375 154.322 600.298C155.749 601.828 157.392 603.142 159.2 604.196C161.151 605.171 167.492 609.556 167.492 609.556H165.053C166.029 611.505 172.37 614.916 172.37 614.916L182.613 620.763C184.077 621.25 193.832 626.122 193.832 626.122L187.003 623.199L181.638 620.763C190.983 626.852 200.959 631.916 211.392 635.867L231.879 645.612C236.56 648.021 241.46 649.979 246.513 651.459C245.537 652.921 241.147 650.972 234.318 648.536C227.489 646.1 220.66 644.151 213.831 641.227C199.584 636.056 185.728 629.869 172.37 622.712C159.073 615.506 146.206 607.534 133.835 598.836L116.275 585.194L111.616 580.963C111.726 581.168 111.68 581.296 111.397 581.296C109.934 581.296 104.568 573.987 107.007 577.885C109.446 581.783 113.836 584.219 116.763 587.63C108.887 581.062 101.696 573.716 95.3005 565.704C90.4227 559.857 83.1059 550.112 81.1548 547.676C79.2036 545.239 72.3747 540.367 72.3747 537.443C73.7353 539.454 75.378 541.259 77.2525 542.803C73.3503 537.931 69.9358 532.084 66.0336 526.724C63.4833 523.676 61.1987 520.416 59.2047 516.979C57.7413 514.543 52.8634 502.849 52.3756 504.798C51.8879 506.747 55.7902 511.619 55.7902 511.619C55.5787 512.746 55.5787 513.903 55.7902 515.03L62.1313 526.237C63.215 529.579 64.8649 532.71 67.0092 535.494C62.2731 530.857 58.1726 525.615 54.8146 519.902C50.7814 514.962 47.3433 509.565 44.5711 503.823C43.004 499.597 41.5375 495.772 40.1071 491.962L37.7422 487.744C35.7911 483.359 31.8888 478.486 31.8888 474.101L33.1931 476.186C30.2795 470.009 23.1088 450.226 23.1088 450.226C27.9866 456.56 27.4988 466.305 32.8644 472.639C31.4456 469.833 30.3022 466.896 29.4499 463.869C28.53 460.548 27.3893 457.293 26.0355 454.124C24.9539 450.316 23.6509 446.574 22.1332 442.917C18.231 432.685 15.792 422.453 12.3776 411.734L16.7676 423.427C17.389 426.834 18.5411 430.122 20.1821 433.172C18.4669 429.296 17.3171 425.194 16.7676 420.991L14.0738 410.472C14.1665 411.542 14.2515 412.612 14.3287 413.682C12.3441 407.474 10.7134 401.159 9.44452 394.767C9.16064 393.861 8.96311 393.003 8.96311 392.244C9.11733 393.086 9.2778 393.927 9.44452 394.767C10.0803 396.795 11.149 399.061 11.402 400.988V400.04L14.0738 410.472C13.2724 401.234 11.8915 392.054 9.9387 382.986L9.9387 369.343L9.9387 364.471L9.9387 355.213L9.9387 336.21L9.9387 314.284L9.9387 305.026V303.565L9.9387 302.103L9.9387 296.743C9.45463 293.676 9.45463 290.552 9.9387 287.485C9.69331 290.078 9.69331 292.689 9.9387 295.281L9.9387 293.82C10.1557 290.575 10.1557 287.319 9.9387 284.075L9.9387 272.381C9.9387 271.525 9.7504 269.446 9.62198 267.508C8.7577 271.265 7.01204 276.279 7.01204 276.279C5.61417 281.223 4.63509 286.276 4.08528 291.383C0.183026 301.128 0.18303 311.848 0.18303 320.618L0.18303 331.825L0.18303 347.904L0.18303 355.213L0.18303 365.932C-0.0601378 362.363 -0.0601378 358.782 0.18303 355.213L0.18303 347.904L0.18303 331.825L0.18303 320.618L0.18303 307.95L0.18303 299.667C-0.0611727 296.26 -0.0611727 292.841 0.18303 289.434L0.18303 299.667C0.242831 292.937 1.06101 286.236 2.62199 279.689L2.62199 288.947C5.0609 288.46 5.06086 272.868 5.06086 272.868C4.55142 269.803 4.55142 266.675 5.06086 263.61L5.06086 270.432C5.90816 265.816 7.0486 261.26 8.47532 256.789C11.402 251.916 10.4264 245.095 11.402 241.197C12.3775 237.299 16.2798 226.092 16.2798 228.529L16.2798 236.812L20.6131 221.421C20.1711 219.1 20.19 216.714 20.6699 214.398L20.6699 221.22L20.6131 221.421C20.6312 221.517 20.6502 221.612 20.6699 221.707C22.1332 217.809 24.0843 211.962 24.5721 210.5C25.0599 209.039 27.9866 201.73 27.9866 201.73C28.1337 202.699 28.1337 203.684 27.9866 204.653C30.6014 196.843 34.035 189.33 38.23 182.24C34.7821 188.895 31.7864 195.774 29.2629 202.831C30.6213 199.566 34.3278 195.646 34.3278 192.959L38.23 186.625C40.6689 182.24 42.1322 177.368 44.5711 172.982L48.9612 163.725C49.6591 163.306 50.1574 162.768 50.513 162.213C50.9024 161.29 51.2002 160.328 51.4002 159.339C51.4002 159.339 51.4001 160.829 50.513 162.213C49.9921 163.448 49.3072 164.612 48.4734 165.674C49.8905 164.08 51.0433 162.271 51.888 160.314C50.9124 163.725 46.5223 168.11 46.5223 171.521L49.9368 166.161C50.9444 163.732 52.2556 161.44 53.839 159.339C56.1366 154.677 58.9158 150.268 62.1313 146.184C57.4402 151.301 53.1119 156.738 49.1773 162.454C48.7825 163.045 48.3854 163.631 47.9856 164.212C48.3787 163.623 48.776 163.037 49.1773 162.454C54.0808 155.117 58.6289 147.101 63.5947 140.337C68.4086 133.848 73.6217 127.664 79.2037 121.821L92.8615 107.691L106.519 95.0228C107.281 94.3884 108.044 93.4898 108.806 92.5075C96.0919 103.613 84.0859 115.519 72.8625 128.156C62.3887 138.958 53.37 151.079 46.0345 164.212C47.9022 159.439 50.1768 154.84 52.8314 150.464C53.4412 149.002 54.253 147.629 55.245 146.387C57.2012 142.857 59.5069 139.523 62.1313 136.439L64.5844 131.983C64.8878 130.514 65.378 129.575 66.3872 128.281C66.7294 127.734 67.0997 127.204 67.4969 126.694L67.1173 127.383C67.6261 126.777 68.2329 126.08 68.9602 125.232C70.8172 123.068 72.4777 120.904 74.1911 118.864C74.9087 117.928 75.6611 117.043 76.4658 116.235L78.7159 113.538L75.7892 117.923L76.2588 116.516C75.5511 117.275 74.867 118.06 74.1911 118.864C72.3456 121.272 70.7305 124.014 69.0496 126.625L78.6452 115.762C78.9851 115.096 80.2149 113.673 81.5598 112.178C85.8037 106.908 90.0168 101.649 94.3249 96.4845L85.5448 107.691C84.9237 108.518 83.1603 110.399 81.5598 112.178C80.68 113.27 79.7989 114.364 78.9153 115.456L80.1793 114.025V115.329C82.9273 113.12 86.0326 107.691 86.0326 107.691C89.8495 103.877 93.4405 99.8439 96.7875 95.6127C96.5882 95.8371 96.3905 96.0629 96.1943 96.2901L94.8127 97.9463C95.264 97.3863 95.7246 96.8342 96.1943 96.2901L97.2516 95.0228C97.0974 95.2198 96.9427 95.4165 96.7875 95.6127C98.0212 94.2238 99.3152 92.8889 100.666 91.612C98.4899 94.594 96.0403 97.367 93.3493 99.8952C92.6617 100.754 91.6107 102.278 90.5591 103.785C92.1283 102.582 94.1056 101.089 96.2761 98.9207C101.154 94.0483 106.032 88.6885 110.909 84.3033L101.642 92.5865L113.102 82.0191L113.348 81.3798L113.619 81.5423L120.665 75.0456L131.884 65.3007L132.253 65.0795C131.749 64.3482 134.537 62.3772 136.762 62.3772L132.253 65.0795C132.412 65.3102 132.899 65.4175 133.835 65.3007C134.12 65.2652 134.404 65.1986 134.688 65.1047C136.535 63.4657 138.462 61.9174 140.46 60.4653C140.557 60.3821 140.654 60.2991 140.752 60.2162C140.934 60.0202 141.117 59.8242 141.298 59.6294L137.25 62.8644C138.855 61.4091 140.507 60.008 142.204 58.6635C143.183 57.6345 144.136 56.6979 145.054 56.043L143.244 57.8512C144.393 56.9663 145.561 56.107 146.748 55.2739L154.322 49.2215C154.42 49.1205 154.518 49.0204 154.617 48.921L132.372 60.4282L120.665 68.7114C118.714 69.6859 111.397 76.9946 112.373 74.0711C113.348 71.1476 121.153 66.2752 121.153 66.2752L135.299 56.043C142.4 51.036 149.5 46.7437 156.295 41.6361C155.802 41.736 155.306 41.8282 154.81 41.9128C156.043 41.3076 157.256 40.6635 158.446 39.9816C158.861 39.6547 159.275 39.324 159.688 38.9893L159.241 39.5187C161.956 37.9118 164.551 36.1066 167.004 34.1168C170.032 32.6803 172.964 31.0529 175.784 29.2444C175.056 30.0937 173.873 31.1848 172.515 32.3145C172.734 32.2197 172.858 32.1679 172.858 32.1679L183.101 25.8336C185.042 25.5538 187.013 25.5538 188.955 25.8336C187.148 25.8336 184.783 28.2477 182.55 30.0952L196.759 22.4229C193.157 24.7685 189.41 26.8842 185.54 28.7571L192.369 25.8336C194.947 23.8265 197.789 22.1916 200.812 20.973C201.793 20.381 202.736 19.9867 203.588 19.9867C202.648 20.2769 201.722 20.6061 200.812 20.973C198.7 22.2469 196.412 24.4358 194.477 25.5781C199.261 23.8434 203.933 21.8133 208.466 19.4994C214.622 17.3977 220.655 14.9575 226.537 12.1907H226.026C226.193 12.1907 226.364 12.1907 226.539 12.1895C229.163 10.9552 231.757 9.65592 234.318 8.29273C232.046 11.9242 228.927 12.1725 226.539 12.1895C226.538 12.1899 226.537 12.1903 226.537 12.1907H229.928C226.315 12.5917 222.041 16.6233 218.194 18.0377H218.675C222.222 17.3201 225.674 16.1757 228.953 14.627L242.611 11.2162C252.366 8.77999 261.146 9.26723 271.877 5.36925C282.609 1.47127 292.852 1.47127 303.583 1.47127C309.249 0.829302 314.963 0.762722 320.638 1.27153C324.379 0.952251 328.144 1.01883 331.875 1.47127C339.998 1.00738 348.141 1.00738 356.264 1.47127C362.605 1.95852 368.458 4.882 374.799 4.882L386.018 4.882C388.777 4.64688 391.552 4.64688 394.311 4.882L386.018 4.882C393.23 5.37694 400.4 6.35361 407.481 7.80548C404.722 8.0406 401.947 8.0406 399.188 7.80548C401.627 9.26722 431.382 14.1397 431.382 14.1397L426.016 14.1397L436.26 17.0632L450.405 20.4739C457.088 22.6021 463.608 25.2075 469.917 28.2699C469.502 28.3026 469.087 28.3293 468.671 28.3501L477.721 31.6806C480.505 33.1549 483.452 34.2996 486.501 35.0913C485.796 36.8536 482.793 36.0664 481.186 35.4959C483.679 36.5051 486.107 37.6718 488.453 38.9893C489.895 38.9893 493.726 39.3302 496.616 39.6087C497.804 39.5461 498.999 39.6645 500.159 39.9638C500.159 39.9638 498.612 39.8011 496.616 39.6087C495.839 39.6497 495.065 39.768 494.306 39.9638C497.273 41.2163 500.061 42.8546 502.598 44.8363L512.354 50.6832L522.109 56.5302L535.279 64.3262C538.694 66.2752 542.596 71.6349 546.498 71.6349H541.621C541.621 71.6349 541.693 71.7147 541.822 71.8531C544.363 73.3191 547.265 75.4638 546.986 76.0201C546.558 76.8757 542.746 72.8488 541.822 71.8531C539.912 70.7515 538.206 70.0332 538.206 70.6604C538.206 72.1221 543.572 75.5329 543.572 75.5329L551.376 81.8671L563.944 93.3448L568.936 96.9718C569.155 96.753 567.899 95.5519 566.449 94.2947L562.595 91.1248C562.595 91.1248 564.668 92.752 566.449 94.2947L570.888 97.9463C577.229 103.793 582.594 110.615 588.448 116.949C596.412 125.078 603.446 134.066 609.422 143.747C604.544 138.388 601.13 130.105 595.277 126.207C596.684 127.625 597.839 129.273 598.691 131.079C601.224 134.14 603.507 137.399 605.52 140.824L614.788 155.441C619.375 161.893 623.647 168.56 627.592 175.419C628.952 177.634 630.214 179.91 631.372 182.24C630.148 179.946 628.888 177.673 627.592 175.419C625.503 172.018 623.181 168.762 620.641 165.674L631.86 185.164C634.745 188.694 637.354 192.441 639.665 196.37C641.652 201.098 643.536 205.866 645.316 210.672C645.578 210.463 645.841 210.257 646.107 210.052C644.542 207.954 644.542 205.656 644.542 203.679C642.989 197.886 640.694 192.318 637.714 187.113C636.738 184.676 630.885 175.419 633.324 176.393C635.762 177.368 639.177 185.651 639.177 185.651C639.337 186.782 639.337 187.93 639.177 189.061C642.591 195.883 644.543 202.217 647.469 209.039C647.01 209.369 646.556 209.707 646.107 210.052C646.47 210.539 646.918 211.016 647.469 211.475C650.396 213.911 650.396 220.245 651.372 224.143C652.347 228.041 655.762 241.197 657.225 249.48C653.995 236.325 650.018 223.368 645.316 210.672C643.496 212.126 641.771 213.696 640.152 215.373C641.128 219.758 641.616 226.092 644.055 228.529C646.494 230.965 646.494 238.761 646.494 238.761C647.992 239.26 648.724 242.569 649.08 245.615C649.186 245.752 649.3 245.904 649.42 246.069C653.323 251.429 653.323 256.302 653.323 261.174V268.483C653.598 270.748 653.598 273.039 653.323 275.304C652.572 278.838 652.572 282.49 653.323 286.024C655.517 307.895 655.517 329.931 653.323 351.802C652.699 359.503 651.558 367.154 649.908 374.703L649.908 385.909C650.454 389.006 650.596 392.156 650.335 395.281C650.348 395.773 650.354 396.265 650.352 396.757C650.728 399.797 650.58 402.885 649.908 405.887C646.494 408.81 647.469 410.759 646.494 415.144C646.059 417.099 645.721 420.12 645.134 423.04C645.108 423.494 645.073 423.948 645.03 424.402C644.447 427.544 643.632 430.638 642.591 433.66C642.591 432.654 642.591 431.692 642.654 430.746C642.323 431.561 641.977 432.37 641.616 433.172C641.616 433.172 641.616 442.43 638.201 442.917V437.558C637.31 442.181 635.661 446.625 633.324 450.713V447.985C629.927 455.65 622.016 474.5 621.617 474.101C621.303 473.788 625.831 463.802 629.103 456.714C628.449 457.831 627.741 458.918 626.982 459.971L623.08 466.792L623.079 466.794C618.201 474.59 613.324 482.385 608.934 490.18L613.324 483.359C611.373 487.744 606.008 497.489 606.008 496.515C606.008 495.54 609.422 489.693 606.008 493.104C602.593 496.515 600.642 501.874 597.228 505.772C593.894 509.428 590.308 512.847 586.497 516.004L577.716 523.8C574.79 526.237 571.863 532.571 568.449 532.571C572.464 527.827 576.87 523.427 581.619 519.415C582.278 518.757 584.62 515.626 587.04 512.473C581.514 518.205 573.858 525.779 570.557 529.029C567.871 532.125 564.877 534.944 561.62 537.443C557.919 540.478 554.007 543.246 549.913 545.727C541.547 553.91 532.398 561.254 522.597 567.653L514.793 572.525C511.698 574.021 508.757 575.816 506.012 577.885L510.403 574.474C502.11 578.859 493.33 582.757 485.038 587.63C491.576 585.538 497.937 582.931 504.061 579.834L497.72 583.732C514.599 576.912 530.909 568.766 546.498 559.37C555.907 553.58 564.729 546.89 572.839 539.392C580.206 532.623 587.208 525.467 593.813 517.953C592.47 520.687 590.654 523.161 588.448 525.262C592.364 521.833 595.808 517.901 598.691 513.568L603.081 508.209C603.081 506.26 611.861 497.489 611.861 497.489L617.715 490.18C618.69 488.719 621.617 481.41 621.617 484.333C624.547 480.496 626.852 476.221 628.446 471.665C628.934 472.152 631.86 464.843 631.86 464.843C631.267 467.19 630.45 469.474 629.421 471.665C630.943 469.426 632.096 466.959 632.836 464.356C634.787 460.458 638.201 456.073 638.201 451.688C643.221 442.305 647.462 432.527 650.884 422.453C656.757 405.482 661.163 388.04 664.054 370.318C677.315 293.662 662.048 214.808 621.129 148.62C602.131 119.425 579.146 93.0209 552.84 70.1731C541.575 61.6402 529.67 53.9841 517.232 47.2725C511.79 44.0263 506.078 41.255 500.159 38.9893C497.72 38.0148 486.989 34.6041 490.404 34.6041C493.818 34.6041 501.135 38.9893 501.135 38.9893C501.135 38.9893 503.339 39.0811 505.556 39.1849C503.24 37.7291 500.778 36.5202 498.208 35.5786C494.306 32.6551 494.306 32.6551 494.306 32.6551C490.745 30.7735 486.981 29.3023 483.087 28.2699C481.088 27.3944 479.134 26.4186 477.233 25.3464L468.941 22.9102C466.99 19.4994 456.747 19.4994 457.722 19.4994L467.966 19.4994C460.675 16.6469 453.173 14.3662 445.528 12.678L426.504 7.80548L415.773 5.36925L425.041 5.36925L447.479 8.77999C463.015 12.0307 478.33 16.262 493.33 21.4484H492.61C495.628 22.1088 501.135 24.8591 501.135 24.8591L517.232 30.2189C528.451 35.5786 540.157 41.4255 550.888 47.7598C561.011 53.6883 570.783 60.1958 580.155 67.2497L588.935 74.0711C589.911 74.5584 593.325 77.4819 593.325 77.4819C594.789 80.8926 603.081 83.8161 603.081 87.2268C598.756 83.0714 594.196 79.167 589.423 75.5329C597.228 83.3288 607.959 95.51 611.861 99.8952C615.763 104.28 619.666 108.178 623.08 112.564C625.977 116.362 629.108 119.976 632.455 123.385C630.912 121.414 625.519 112.564 625.519 112.564C625.264 112.352 625.013 112.136 624.765 111.917C624.871 113.15 620.538 109.023 620.153 106.717C621.479 108.628 623.027 110.373 624.765 111.917C624.737 111.587 624.391 110.874 623.568 109.64C619.666 103.793 612.837 99.8952 608.934 93.561L625.031 109.64C626.007 110.127 633.811 117.436 632.348 117.436C632.197 117.436 631.983 117.348 631.726 117.193C635.963 122.437 640.533 129.511 638.689 127.668C636.25 125.232 634.299 119.385 631.372 119.385C634.562 122.968 637.528 126.742 640.252 130.686C641.201 131.334 641.765 132.403 642.101 133.445C642.431 133.953 642.757 134.464 643.079 134.977C643.079 135.063 642.819 134.951 642.413 134.711C642.591 135.692 642.591 136.439 642.591 136.439C642.118 135.937 641.63 135.45 641.128 134.977C645.367 139.971 649.123 145.355 652.347 151.056C656.249 152.518 656.249 156.903 656.249 156.903C656.737 160.314 660.152 163.237 662.591 168.11C663.908 170.742 666.222 173.374 668.071 176.006C666.329 172.104 664.46 168.257 662.591 164.212L657.713 154.954C657.225 154.467 654.298 148.133 654.298 148.133C654.298 146.671 650.396 141.799 650.396 141.799L647.469 136.439C644.402 132.422 641.63 128.188 639.177 123.77C637.416 119.895 635.117 116.286 632.348 113.051C635.275 114.025 641.128 122.796 641.128 122.796C644.972 127.127 648.556 131.683 651.859 136.439C662.187 150.017 671.481 164.35 679.663 179.317C684.551 192.251 688.784 205.424 692.345 218.784C696.218 228.684 698.999 238.977 700.637 249.48C701.067 252.225 701.067 255.019 700.637 257.763V264.585C697.711 266.047 700.637 275.304 700.637 275.304C700.874 277.898 700.874 280.507 700.637 283.1Z" fill="#FF0000"/>
<path d="M3.10979 347.904C3.22834 346.879 3.29326 345.849 3.30456 344.819C3.18309 344.615 3.10979 344.493 3.10979 344.493C3.1965 344.132 3.2553 343.766 3.28616 343.399C3.25763 342.625 3.19883 341.853 3.10979 341.083C3.29236 341.843 3.35115 342.625 3.28616 343.399C3.30362 343.872 3.30976 344.346 3.30456 344.819C3.95062 345.901 5.95924 349.289 5.54866 348.879L3.10979 347.904Z" fill="#FF0000"/>
<path d="M15.3043 433.66L15.3043 438.045L17.7432 439.019C18.7188 439.507 15.3043 433.66 15.3043 433.66Z" fill="#FF0000"/>
</svg>
