<svg width="285" height="245" viewBox="0 0 285 245" fill="none" xmlns="http://www.w3.org/2000/svg">
<path d="M269.677 122.5C269.677 190.155 215.139 245 147.863 245C85.9747 245 34.866 198.588 27.0764 138.487C32.3128 137.811 39.0493 136.839 46.4143 135.777L46.4152 135.777C57.8715 134.125 70.8489 132.254 82.0672 130.931L26.0484 122.534V122.5C26.0484 122.427 26.0485 122.355 26.0486 122.282L0 118.476H26.1129C26.6255 102.5 30.1802 87.2971 36.2133 73.4335L85.3207 70.5779L40.5769 64.4323C40.5812 64.4242 40.5855 64.4161 40.5899 64.408L23.3651 62.1789L43.4994 59.2856C64.8256 23.7563 103.585 0 147.863 0C186.925 0 221.692 18.4891 243.984 47.2396L170.184 43.1447L254.961 64.0829C261.48 76.1436 266.043 89.4283 268.222 103.506L285 109.458L268.953 109.066C268.961 109.135 268.968 109.204 268.976 109.273L191.061 107.338L269.677 122.401L269.677 122.5Z" fill="#FF0000"/>
</svg>
