<svg width="482" height="526" viewBox="0 0 482 526" fill="none" xmlns="http://www.w3.org/2000/svg">
<mask id="mask0_2_25732" style="mask-type:alpha" maskUnits="userSpaceOnUse" x="16" y="10" width="455" height="516">
<path d="M372.318 494.765L381.076 500.336L381.524 513.83L421.503 512.503L387.22 476.265L371.513 470.51L372.318 494.765Z" fill="#FFC09E"/>
<path d="M81.3228 500.079C81.9823 501.473 88.3806 523.559 88.3806 523.559L16.9423 525.93L54.2892 497.678L81.3228 500.079Z" fill="#FFC09E"/>
<path d="M142.129 293.453L142.275 297.848L83.1689 343.463L54.725 492.324L43.3997 501.809L146.094 513.793L163.772 443.485L151.27 411.239L177.708 351.946L215.41 329.65L219.369 377.571L211.867 397.5L212.479 409.831L295.351 516.69L375.23 505.559L381.349 450.082L366.901 448.365L357.852 434.217L352.609 436.274L318.253 385.281L310.688 385.01L200.651 281.778L142.129 293.453Z" fill="#424B4F"/>
<path d="M185.247 257.715C182.83 257.087 158.145 273.922 158.145 273.922L166.086 279.278L142.129 293.464L166.53 292.654L102.673 392.751L144.716 371.254L96.5416 490.937L163.778 443.485L167.395 398.56L178.958 404.037L178.445 388.561L208.333 352.397L211.872 397.5L290.959 417.915L275.291 376.564L310.694 385.021L252.698 247.924L185.247 257.715Z" fill="#2C3336"/>
<path d="M200.999 266.847L245.6 331.059L347.858 293.116L337.426 267.972C337.426 267.972 247.072 314.05 246.669 313.434C246.266 312.818 215.334 273.648 215.334 273.648L248.416 293.697L342.632 245.816L334.401 231.59L242.59 282.898L219.579 265.601L259.098 251.257L256.02 240.053L199.904 259.297L200.999 266.847Z" fill="#424B4F"/>
<path d="M183.728 208.066L189.634 247.516L168.847 253.314L155.104 182.317L145.189 172.756L141.07 128.504L179.318 167.386L183.728 208.066Z" fill="#FFC09E"/>
<path d="M193.725 250.757C193.553 250.134 185.689 242.387 185.689 242.387L168.876 253.313L177.296 262.412L193.725 250.757Z" fill="#D19382"/>
<path d="M146.581 149.119C147.036 150.789 149.458 175.126 149.458 175.126L157.5 180.097L164.522 191.665L172.596 195.061L179.08 205.837L184.534 207.117L182.663 194.125L146.581 149.119Z" fill="#D19382"/>
<path d="M180.695 202.772L193.201 253.444L253.778 245.387L238.484 196.667L180.695 202.772Z" fill="#F7F4E8"/>
<path d="M256.233 246.957L220.104 256.636L217.217 241.183L252.503 231.532L256.233 246.957Z" fill="#9ECFFF"/>
<path d="M244.942 231.417L278.885 220.451L356.068 195.906L469.726 141.372L470.492 164.471L356.788 217.579L249.462 250.638L244.942 231.417Z" fill="#6B5D5A"/>
<path d="M219.078 257.294C217.576 257.479 133.407 278.356 133.407 278.356L130.42 266.834L217.423 246.593L219.078 257.294Z" fill="#703232"/>
<path d="M212.304 236.086C212.311 236.322 219.562 265.601 219.562 265.601L225.31 263.527L218.313 234.24L212.304 236.086Z" fill="#91A6B8"/>
<path d="M182.829 257.087L181.597 246.738L196.047 243.774C196.047 243.774 197.984 246.694 198.209 246.687C198.209 246.687 208.824 243.429 208.894 243.348C208.965 243.267 217.994 263.276 217.994 263.276L211.055 269.812L203.658 268.641L191.555 279.956L185.7 272.047L182.829 257.087Z" fill="#FFC09E"/>
<path d="M140.533 267.758L137.014 272.426L142.184 274.452L145.79 270.719L140.533 267.758Z" fill="#FFC370"/>
<path d="M152.677 264.449L149.158 269.118L154.328 271.143L157.928 267.416L152.677 264.449Z" fill="#FFC370"/>
<path d="M164.747 261.301L161.228 265.969L166.398 267.995L169.999 264.268L164.747 261.301Z" fill="#FFC370"/>
<path d="M177.778 257.963L174.259 262.631L179.429 264.657L183.036 260.93L177.778 257.963Z" fill="#FFC370"/>
<path d="M166.807 82.4851L176.49 91.318L195.646 75.1892L223.433 88.0855L232.164 86.565L239.523 92.9968L272.788 104.66C272.788 104.66 303.493 113.273 304.134 114.089C304.774 114.905 307.104 203.606 307.104 203.606L310.223 205.188L314 238.977L295.327 242.53L292.2 246.612L284.771 244.347L278.876 220.463L275.241 221.629L276.377 212.802L285.958 206.201L273.368 128.086L241.041 126.017L216.004 122.246L226.111 143.703L227.098 167.329L238.485 196.678L180.701 202.771L173.921 189.178C173.921 189.178 165.671 186.732 165.022 185.495C164.373 184.257 160.651 176.851 160.651 176.851L153.167 172.907L146.903 150.294L141.077 128.503L147.273 119.925L151.657 108.945L143.772 95.1237L158.317 69.7295L164.401 74.5515L166.807 82.4851Z" fill="#FFC09E"/>
<path d="M137.97 84.4315L144.982 101.788L156.386 107.377L148.15 95.8722L160.332 70.6576L137.97 84.4315Z" fill="#D19382"/>
<path d="M111.129 59.691C110.92 60.5128 106.193 82.1869 106.193 82.1869C106.193 82.1869 117.055 81.2645 117.046 81.0119C117.038 80.7593 114.168 60.3882 114.168 60.3882L111.129 59.691Z" fill="#D19382"/>
<path d="M127.14 32.8943L110.045 51.079L116.576 103.118L160.645 74.6539L173.92 49.9987L153.568 14.6753L127.14 32.8943Z" fill="#FFC09E"/>
<path d="M200.539 41.2588C200.833 40.1251 215.088 21.956 215.088 21.956L266.968 59.5093L261.348 59.6958C261.348 59.6958 279.839 76.2611 278.851 75.479C277.863 74.697 241.152 64.1312 241.152 64.1312L246.69 76.5745L198.593 51.3037L200.539 41.2588Z" fill="#302B27"/>
<path d="M178.467 40.5198L207.491 39.9949L205.608 50.7457L175.493 57.2018L178.467 40.5198Z" fill="#EDE6CB"/>
<path d="M179.095 56.2892C179.104 56.5362 166.987 83.2153 166.806 82.4852L154.161 70.008L159.123 69.8433L170.816 52.9619L161.516 50.2472L149.952 54.2275L136.259 48.4667L152.413 30.909L152.145 20.4487L127.14 32.911L126.717 20.1462L154.104 10.3191L173.713 10.0785L181.341 36.4957L179.095 56.2892Z" fill="#302B27"/>
<path d="M117.908 46.62L108.347 49.7752L108.81 63.7188L118.539 57.6696L117.908 46.62Z" fill="#302B27"/>
<path d="M147.756 62.8081L153.902 61.542L152.501 57.9639L164.049 53.4897C164.049 53.4897 156.962 66.7566 156.791 66.5206C156.62 66.2847 147.756 62.8081 147.756 62.8081Z" fill="#D19382"/>
<path d="M216.004 122.252L205.209 149.252L179.276 166.129C179.276 166.129 209.338 158.219 209.322 157.753C209.307 157.287 219.102 128.819 219.102 128.819L216.004 122.252Z" fill="#D19382"/>
<path d="M174.901 181.924L197.766 181.795L217.94 189.92L206.484 180.039L173.247 178.208L173.5 185.843L174.901 181.924Z" fill="#D19382"/>
<path d="M173.633 106.805L166.337 126.985L171.513 162.93L177.711 165.079L171.628 166.383L163.784 174.651L167.241 163.387L158.861 127.863L150.622 121.854L162.024 121.633L173.633 106.805Z" fill="#D19382"/>
<path d="M203.752 131.453L201.872 136.332L204.607 138.753L207.017 131.345L203.752 131.453Z" fill="#D17979"/>
<path d="M183.846 215.53C183.849 215.597 240.717 203.786 240.717 203.786L241.46 206.155L186.237 218.918L245.014 217.473L245.971 220.526L185.349 221.639L183.846 215.53Z" fill="#CCBBAF"/>
<path d="M188.968 236.31L247.233 224.536L247.869 226.572L190.034 240.624L188.968 236.31Z" fill="#CCBBAF"/>
<path d="M150.354 82.2387L167.287 106.279C167.287 106.279 147.254 87.1575 147.551 86.9398C147.847 86.722 150.354 82.2387 150.354 82.2387Z" fill="#D19382"/>
</mask>
<g mask="url(#mask0_2_25732)">
<rect x="-49.8662" y="-52.8774" width="540.167" height="617.19" transform="rotate(-1.90083 -49.8662 -52.8774)" fill="#292A32"/>
</g>
</svg>
