<svg width="355" height="599" viewBox="0 0 355 599" fill="none" xmlns="http://www.w3.org/2000/svg">
<g clip-path="url(#clip0_2_18455)">
<path d="M291.516 26.6486L305.755 21.9014L344.574 51.52L336.97 54.3121C336.97 54.3121 356.468 85.4788 354.914 84.0339C353.36 82.5891 326.045 68.2557 326.045 68.2557L330.92 82.3827C330.92 82.3827 293.07 61.1234 292.881 59.7818C292.692 58.4402 291.516 26.6486 291.516 26.6486Z" fill="#302B27"/>
<path d="M271.232 37.2325L297.859 35.7132V25.9091L268.497 21.8843L271.232 37.2325Z" fill="#F7F4E8"/>
<path d="M274.266 67.8547L285.569 87.4227L264.356 95.9884L255.18 82.7214L256.31 54.2896L274.266 67.8547Z" fill="#FFC09E"/>
<path d="M258.845 56.9785C259.355 57.8672 276.887 93.3052 276.887 93.3052L276.399 94.75L261.087 74.6832L258.845 56.9785Z" fill="#D19382"/>
<path d="M251.43 87.5255L258.065 94.8528L268.21 99.9096L269.179 95.7816L260.892 84.4295L264.792 70.9102L258.163 55.0116L252.405 52.2939L251.43 87.5255Z" fill="#D19382"/>
<path d="M219.424 67.6367C219.424 67.6367 233.572 93.3051 233.864 92.6859C234.157 92.0667 238.062 85.4618 238.062 85.4618L219.424 67.6367Z" fill="#D19382"/>
<path d="M221.959 40.472L216.66 63.7094L228.514 80.5082L249.727 98.4651L260.99 65.9569L256.041 55.654L264.356 53.7219V20.7492L239.043 6.11768L225.876 19.0464L221.959 40.472Z" fill="#FFC09E"/>
<path d="M274.266 67.8545L256.041 55.6539L259.361 52.1221L257.56 31.0405L250.627 36.1891L245.219 55.6539L240.568 44.3534L245.598 13.0893L231.926 15.1074L221.959 40.4719L219.017 23.375L237.621 0L271.611 13.7945L274.266 67.8545Z" fill="#302B27"/>
<path d="M224.121 50.0869L228.386 52.5231L222.777 70.5652L220.829 69.5918L224.121 50.0869Z" fill="#302B27"/>
<path d="M234.438 61.7773L228.514 73.8518L229.609 74.7004L235.751 62.3965L234.438 61.7773Z" fill="#302B27"/>
<path d="M251.957 52.294L254.59 50.0866L251.957 46.3714L252.325 40.0246L256.127 37.2324L257.44 51.3251L254.114 53.6069L251.957 52.294Z" fill="#D19382"/>
<path d="M154.782 578.199L157.706 599H107.378L144.247 573.865L154.782 578.199Z" fill="#FFC09E"/>
<path d="M284.984 518.337L296.54 539.08L316.29 554.721L284.984 599H265.234L280.74 582.895L284.107 548.219L274.008 530.411L284.984 518.337Z" fill="#FFC09E"/>
<path d="M116.353 241.415C117.718 243.892 166.096 316.041 166.096 316.041C166.096 316.041 157.494 326.98 156.829 326.567C156.164 326.154 109.139 250.824 109.139 250.824L116.353 241.415Z" fill="#703232"/>
<path d="M137.956 243.066L158.876 226.864L175.261 206.224L181.62 213.602L160.534 246.472L137.956 243.066Z" fill="#FFC09E"/>
<path d="M132.101 266.911L171.166 247.556L185.354 218.143L179.504 209.939L159.461 241.983L137.956 243.066L128.298 250.342L132.101 266.911Z" fill="#D19382"/>
<path d="M182.481 216.957L145.807 272.278L138.879 268.666L133.517 272.278L134.492 276.199L125.035 284.456L126.498 290.648L131.47 291.886L139.86 304.683L152.631 295.601L153.755 288.068L197.11 248.02L182.481 216.957Z" fill="#FFC09E"/>
<path d="M218.271 530.412L233.486 568.654L297.56 513.797L257.916 445.053L262.842 440.1L255.823 435.353L258.942 424.499L245.678 416.776L226.168 442.204L218.271 530.412Z" fill="#424B4F"/>
<path d="M288.459 329.824L241.096 450.213L253.087 452.037L239.043 479.012L252.795 480.56L218.271 530.412L193.985 474.678L220.904 358.256L272.402 309.333L288.459 329.824Z" fill="#2C3336"/>
<path d="M289.956 262.537L295.513 319.55L268.302 359.185L279.031 323.575L219.441 425.365L224.413 431.637L197.793 489.848L162.094 586.456L96.2583 560.862L162.678 427.922V420.182L224.121 288.584L222.464 279.915L237.483 262.537H289.956Z" fill="#424B4F"/>
<path d="M175.261 209.939L168.534 203.122L191.501 188.651L193.033 181.53L200.132 181.995L228.95 148.626L238.068 161.945L188.279 212.88L175.261 209.939Z" fill="#F7F4E8"/>
<path d="M182.481 216.957L175.261 209.939L193.549 197.704L196.181 189.396L202.765 188.106L228.955 148.626L240.947 135.933L241.583 145.84C241.583 145.84 198.205 216.699 182.481 216.957Z" fill="#CCBBAF"/>
<path d="M293.076 98.4651C293.076 97.4331 293.862 80.1699 293.862 80.1699L254.699 102.387L248.603 111.858L240.511 120.143L235.757 145.737L203.934 192.596L197.11 193.628L195.745 201.654L178.38 216.309L205.104 267.909L233.761 217.57V225.826L228.107 242.958L237.856 260.301L288.763 256.792L296.178 238.623L287.203 221.285L291.103 213.649L288.958 210.553L304.781 140.17L295.811 109.416L297.566 101.389L293.076 98.4651Z" fill="#F7F4E8"/>
<path d="M233.778 217.576L267.866 152.961V162.048L279.031 162.668L276.887 166.796L264.356 168.447L279.031 175.052L276.887 178.148L262.647 175.052L233.778 225.832V217.576Z" fill="#CCBBAF"/>
<path d="M291.126 213.654L264.402 233.675L279.031 236.462L251.04 242.757L228.124 242.963L236.605 262.061L288.884 257.515L297.176 238.835L291.126 226.761V213.654Z" fill="#CCBBAF"/>
<path d="M293.076 98.4651L248.167 112.305L250.851 108.367L293.231 94.3657L293.076 98.4651Z" fill="#CCBBAF"/>
<path d="M295.513 248.33L224.121 246.008L234.512 260.874L291.275 259.791L295.513 248.33Z" fill="#2C3336"/>
<path d="M290.541 263.609L293.884 302.848L250.747 275.58L222.464 279.915L236.605 262.061L290.541 263.609Z" fill="#2C3336"/>
<path d="M292.663 258.937L230.704 259.636L232.167 266.138L292.663 265.438V258.937Z" fill="#424B4F"/>
<path d="M233.193 262.061L187.55 288.377L193.985 295.808L169.216 307.785L182.67 317.073L206.274 297.459L195.889 288.79L237.093 263.815L233.193 262.061Z" fill="#424B4F"/>
<path d="M131.762 257.417L135.077 251.535L127.96 238.629L122.988 242.138L118.974 240.487L106.587 262.061L111.174 264.744C111.174 264.744 119.851 281.876 120.35 281.463C120.849 281.05 134.114 268.563 134.114 268.563L131.762 257.417Z" fill="#FFC09E"/>
<path d="M120.838 239.122L104.964 257.463L101.018 250.732L117.62 234.397L120.838 239.122Z" fill="#91A6B8"/>
<path d="M113.319 238.629L57.3478 143.982L2.33981 32.2046L7.62939e-06 58.8304L52.37 161.636L106.283 245.624L113.319 238.629Z" fill="#9ECFFF"/>
<path d="M109.855 242.069L56.6596 155.747L9.29035 61.462L10.5004 48.7855L2.33981 32.2046L0 58.8304L52.37 161.636L106.283 245.624L109.855 242.069Z" fill="#CCE5FF"/>
</g>
<defs>
<clipPath id="clip0_2_18455">
<rect width="355" height="599" fill="white" transform="matrix(-1 0 0 1 355 0)"/>
</clipPath>
</defs>
</svg>
