<svg width="26" height="26" viewBox="0 0 26 26" fill="none" xmlns="http://www.w3.org/2000/svg">
<path d="M24.0005 1.97841C23.6252 1.59992 23.1785 1.29978 22.6863 1.09544C22.194 0.891097 21.6661 0.786627 21.1331 0.788101C20.201 0.785647 19.2969 1.10665 18.575 1.69637C17.8531 2.28608 17.3582 3.10797 17.1746 4.02185H11.9283C11.8214 4.02187 11.7156 4.04299 11.6169 4.08398C11.5182 4.12497 11.4285 4.18503 11.3531 4.26073L1.38126 14.2504C0.984881 14.6491 0.76239 15.1885 0.76239 15.7507C0.76239 16.3129 0.984881 16.8523 1.38126 17.251L8.70514 24.5903C8.90155 24.788 9.13528 24.9448 9.39275 25.0515C9.65022 25.1582 9.92631 25.2127 10.205 25.2119C10.4836 25.2127 10.7596 25.1582 11.0169 25.0515C11.2742 24.9448 11.5078 24.788 11.7041 24.5903L21.6726 14.5965C21.8245 14.4443 21.9098 14.238 21.9099 14.0229V8.83592C22.7032 8.68223 23.4318 8.29289 24.0005 7.71873C24.7582 6.9557 25.1835 5.92396 25.1835 4.84857C25.1835 3.77319 24.7582 2.74144 24.0005 1.97841ZM10.5576 23.4422C10.5118 23.4881 10.4573 23.5245 10.3974 23.5494C10.3374 23.5742 10.2732 23.587 10.2083 23.587C10.1434 23.587 10.0791 23.5742 10.0192 23.5494C9.95923 23.5245 9.90476 23.4881 9.85889 23.4422L2.53501 16.1037C2.44208 16.0097 2.38996 15.8829 2.38996 15.7507C2.38996 15.6185 2.44208 15.4917 2.53501 15.3977L12.2688 5.64685H20.2922V7.12967C19.9635 7.01037 19.6649 6.8207 19.4171 6.57392C19.2653 6.42092 19.059 6.3345 18.8434 6.33366C18.6279 6.33282 18.4209 6.41763 18.2679 6.56945C18.1149 6.72126 18.0284 6.92763 18.0276 7.14316C18.0268 7.35869 18.1116 7.56573 18.2634 7.71873C18.8166 8.27508 19.5209 8.657 20.289 8.81723V13.6906L10.5576 23.4422ZM22.85 6.57392C22.5863 6.83488 22.266 7.03147 21.914 7.14835V4.83435C21.914 4.61886 21.8284 4.4122 21.676 4.25983C21.5236 4.10745 21.3169 4.02185 21.1015 4.02185H18.85C18.9875 3.63659 19.2204 3.29244 19.5269 3.02151C19.8334 2.75057 20.2035 2.56167 20.6027 2.47243C21.0019 2.38319 21.4173 2.39652 21.8099 2.51118C22.2026 2.62583 22.5598 2.83807 22.8483 3.1281C23.3039 3.58569 23.5598 4.20499 23.5601 4.85067C23.5604 5.49635 23.3051 6.1159 22.85 6.57392Z" fill="white"/>
<path d="M15.5935 11.7114L16.1679 11.137C16.3159 10.9837 16.3978 10.7785 16.396 10.5654C16.3941 10.3524 16.3087 10.1486 16.158 9.99799C16.0074 9.84734 15.8036 9.76189 15.5906 9.76004C15.3775 9.75819 15.1723 9.84008 15.0191 9.98809L14.4454 10.5625C14.2191 10.3362 13.9503 10.1566 13.6546 10.0341C13.3588 9.91159 13.0418 9.84854 12.7217 9.84854C12.4016 9.84854 12.0846 9.91159 11.7889 10.0341C11.4931 10.1566 11.2244 10.3362 10.998 10.5625C10.7716 10.7889 10.5921 11.0576 10.4696 11.3534C10.3471 11.6491 10.284 11.9661 10.284 12.2862C10.284 12.6064 10.3471 12.9234 10.4696 13.2191C10.5921 13.5149 10.7716 13.7836 10.998 14.01L12.1469 15.158C12.2224 15.2335 12.2823 15.323 12.3231 15.4216C12.364 15.5202 12.3851 15.6259 12.3851 15.7326C12.3851 15.8393 12.3642 15.945 12.3234 16.0436C12.2825 16.1422 12.2227 16.2318 12.1473 16.3073C12.0718 16.3828 11.9823 16.4427 11.8837 16.4836C11.7851 16.5244 11.6794 16.5455 11.5727 16.5455C11.466 16.5456 11.3603 16.5246 11.2617 16.4838C11.1631 16.443 11.0735 16.3831 10.998 16.3077L8.70026 14.01C8.54702 13.862 8.34178 13.7801 8.12874 13.7819C7.91571 13.7838 7.71192 13.8692 7.56128 14.0199C7.41063 14.1705 7.32519 14.3743 7.32333 14.5873C7.32148 14.8004 7.40338 15.0056 7.55138 15.1588L8.70026 16.3077L8.12501 16.8821C8.0474 16.9571 7.98551 17.0468 7.94292 17.1459C7.90034 17.245 7.87793 17.3516 7.87699 17.4595C7.87605 17.5674 7.89661 17.6744 7.93746 17.7742C7.97832 17.8741 8.03865 17.9648 8.11494 18.0411C8.19122 18.1174 8.28194 18.1777 8.38179 18.2186C8.48165 18.2594 8.58864 18.28 8.69652 18.279C8.8044 18.2781 8.91102 18.2557 9.01015 18.2131C9.10927 18.1705 9.19893 18.1086 9.27388 18.031L9.84832 17.4574C10.3055 17.9147 10.9256 18.1716 11.5722 18.1717C12.2188 18.1717 12.8389 17.915 13.2962 17.4578C13.7534 17.0006 14.0104 16.3806 14.0104 15.734C14.0105 15.0874 13.7537 14.4672 13.2966 14.01L12.1469 12.8611C11.9944 12.7087 11.9087 12.5021 11.9087 12.2865C11.9086 12.071 11.9941 11.8643 12.1465 11.7118C12.2988 11.5593 12.5055 11.4737 12.721 11.4736C12.9366 11.4735 13.1433 11.559 13.2958 11.7114L15.5935 14.01C15.6685 14.0876 15.7581 14.1495 15.8572 14.192C15.9564 14.2346 16.063 14.257 16.1709 14.258C16.2787 14.2589 16.3857 14.2384 16.4856 14.1975C16.5854 14.1566 16.6762 14.0963 16.7524 14.02C16.8287 13.9437 16.8891 13.853 16.9299 13.7532C16.9708 13.6533 16.9913 13.5463 16.9904 13.4384C16.9895 13.3306 16.967 13.2239 16.9245 13.1248C16.8819 13.0257 16.82 12.936 16.7424 12.8611L15.5935 11.7114Z" fill="white"/>
</svg>
