<svg width="26" height="26" viewBox="0 0 26 26" fill="none" xmlns="http://www.w3.org/2000/svg">
<g clip-path="url(#clip0_2_27004)">
<path d="M26 8.125V6.60156H21.2706L20.7814 3.42178C20.635 2.46964 20.1516 1.60001 19.4205 0.97258C18.6895 0.345352 17.7564 0 16.7929 0C16.3904 0 15.9911 0.0601044 15.6063 0.178528L13 0.980316L10.3937 0.178528C10.0089 0.0601044 9.60956 0 9.20708 0C8.24362 0 7.31052 0.345352 6.57954 0.97258C5.84837 1.60001 5.36496 2.46964 5.21857 3.42178L4.7294 6.60156H0V8.125H4.62109V14.0664C4.62109 17.2135 6.36531 19.9602 8.9375 21.3924V26H17.0625V21.3924C18.4675 20.61 19.6254 19.4357 20.3869 18.0178C20.8064 18.5197 21.4368 18.8398 22.1406 18.8398H24.4258V16.5547C24.4258 15.8771 24.129 15.2675 23.6589 14.8488C25.0717 13.8776 26 12.2504 26 10.4102V9.64844H25.2383C23.726 9.64844 22.3576 10.2755 21.3789 11.2832V8.125H26ZM6.72415 3.65347C6.91418 2.41925 7.95837 1.52344 9.20708 1.52344C9.45761 1.52344 9.70616 1.56073 9.94579 1.63452L13 2.57437L16.0542 1.63452C16.2938 1.56073 16.5424 1.52344 16.7929 1.52344C18.0416 1.52344 19.0858 2.41925 19.2758 3.65347L19.7293 6.60156H6.27069L6.72415 3.65347ZM18.002 14.8789C16.4059 14.8789 14.8559 14.4181 13.5189 13.5463L13 13.2079L12.4811 13.5463C11.1441 14.4181 9.59409 14.8789 7.99805 14.8789C6.97607 14.8789 6.14453 14.0474 6.14453 13.0254C6.14453 12.0034 6.97607 11.1719 7.99805 11.1719H18.002C19.0239 11.1719 19.8555 12.0034 19.8555 13.0254C19.8555 14.0474 19.0239 14.8789 18.002 14.8789ZM15.5391 24.4766H10.4609V22.0516C11.2621 22.3071 12.1151 22.4453 13 22.4453C13.8849 22.4453 14.7379 22.3071 15.5391 22.0516V24.4766ZM13 20.9219C9.8958 20.9219 7.26747 18.848 6.42661 16.0132C6.89633 16.2611 7.43092 16.4023 7.99805 16.4023C9.76706 16.4023 11.4883 15.9249 13 15.0184C14.5117 15.9249 16.2329 16.4023 18.002 16.4023C18.5691 16.4023 19.1037 16.2611 19.5734 16.0132C18.7325 18.848 16.1042 20.9219 13 20.9219ZM22.9023 17.3164H22.1406C21.7207 17.3164 21.3789 16.9746 21.3789 16.5547V15.793H22.1406C22.5606 15.793 22.9023 16.1348 22.9023 16.5547V17.3164ZM24.3806 11.2679C24.0523 12.7086 22.9156 13.8452 21.4749 14.1735C21.8032 12.7328 22.9398 11.5962 24.3806 11.2679ZM19.8555 10.2047C19.3231 9.85355 18.6861 9.64844 18.002 9.64844H7.99805C7.31389 9.64844 6.67694 9.85355 6.14453 10.2047V8.125H19.8555V10.2047Z" fill="white"/>
</g>
<defs>
<clipPath id="clip0_2_27004">
<rect width="26" height="26" fill="white"/>
</clipPath>
</defs>
</svg>
