<svg width="1240" height="964" viewBox="0 0 1240 964" fill="none" xmlns="http://www.w3.org/2000/svg">
<g opacity="0.5">
<path fill-rule="evenodd" clip-rule="evenodd" d="M0 786.755L45.4579 843.092L47.1779 845.221L52.9933 844.32L60.6925 843.092L98.2055 837.196L179.62 824.422L172.331 816.316L162.666 805.67L160.045 802.804L154.557 796.745L94.9292 792.896L16.3812 787.819L0 786.755Z" fill="url(#paint0_linear_2_25273)"/>
<path opacity="0.5" fill-rule="evenodd" clip-rule="evenodd" d="M0 786.755L45.4579 843.092L47.1779 845.221L52.9933 844.32L60.6925 843.092L98.2055 837.196L179.62 824.422L172.331 816.316L162.666 805.67L160.045 802.804L154.557 796.745L94.9292 792.896L16.3812 787.819L0 786.755Z" fill="url(#paint1_linear_2_25273)"/>
<path fill-rule="evenodd" clip-rule="evenodd" d="M1508.79 589.329L1505.52 589.247L1356.12 584.171L1334.99 583.434L1332.2 583.761L1302.72 587.61L1275.36 591.131L1196.48 601.367L1128.67 610.128L1117.45 611.602L1111.63 612.339L1045.61 620.855L973.864 630.108L967.721 630.927L962.561 631.582H962.233L891.548 640.753L890.811 640.835L864.929 644.193L854.199 645.585L833.722 648.205H833.558L761.153 657.54L759.188 657.786L600.208 678.339L599.553 678.421L298.712 722.639L296.664 722.966H296.582L214.758 735.003L211.4 735.495L206.322 736.232L189.613 738.688H189.531L154.311 743.847L61.5115 757.44L58.9724 757.768H58.8905L47.1779 759.487L0 786.673L46.5227 825.651L47.096 826.142V869.869L141.452 905.898L186.91 923.258L202.963 929.399L223.194 937.097L242.033 944.303L246.046 945.777L251.616 947.906L258.496 944.548L263.41 942.174L275.942 936.032L286.59 930.791L291.094 928.581L301.824 923.258H1508.63V589.329H1508.79ZM593 909.665L586.857 909.911L491.6 913.186L309.769 919.491L382.583 883.626L416.083 867.167L454.743 848.169L616.18 908.928L593 909.665Z" fill="url(#paint2_linear_2_25273)"/>
<path fill-rule="evenodd" clip-rule="evenodd" d="M11.0576 789.703L58.8089 772.671L179.62 748.515L70.4396 805.753L11.0576 789.703Z" fill="#B59AA0"/>
<path opacity="0.5" fill-rule="evenodd" clip-rule="evenodd" d="M97.3857 847.596V867.33L141.451 906.062L186.991 923.422L203.045 929.563L223.276 937.342L242.114 944.548L246.127 946.022L251.697 948.151L258.577 944.794L263.491 942.338L276.023 936.196L286.671 930.955L291.176 928.744L290.193 923.422L289.62 920.228L281.511 876.993L277.907 857.668V843.42L145.219 846.45H144.973L97.3857 847.596Z" fill="url(#paint3_linear_2_25273)"/>
<path opacity="0.5" fill-rule="evenodd" clip-rule="evenodd" d="M47.1787 870.033L141.453 906.062L186.993 923.422L203.046 929.563L223.277 937.342L242.115 944.548L246.129 946.022L251.698 948.151L258.579 944.794L263.493 942.338L276.025 936.196L286.672 930.955L291.177 928.744L290.194 923.422L289.621 920.228L281.512 876.993L277.908 857.668L242.771 859.469L212.547 861.107L194.282 862.09L193.545 862.172L183.634 862.663L97.3872 867.33L54.8779 869.541L47.1787 870.033Z" fill="url(#paint4_linear_2_25273)"/>
<path opacity="0.5" fill-rule="evenodd" clip-rule="evenodd" d="M183.634 862.663L206.158 876.502L209.68 900.412L222.949 934.968L291.177 928.745L290.194 923.422L289.62 920.228L277.908 857.668L183.634 862.663Z" fill="url(#paint5_linear_2_25273)"/>
<path fill-rule="evenodd" clip-rule="evenodd" d="M212.547 861.107L255.548 911.712L274.468 923.422L339.747 963.791L543.038 923.422L616.262 908.846H616.18L454.825 848.169L383.567 851.936L212.547 861.107Z" fill="url(#paint6_linear_2_25273)"/>
<path opacity="0.6" fill-rule="evenodd" clip-rule="evenodd" d="M616.261 908.846L198.704 923.422H361.042L630.022 914.087L733.469 910.484L1038.82 899.921L1044.47 893.943L716.023 905.407L616.261 908.846Z" fill="url(#paint7_linear_2_25273)"/>
<path opacity="0.6" fill-rule="evenodd" clip-rule="evenodd" d="M1508.79 669.249L1485.45 672.606L1330.89 694.47L1243.09 678.42L1029.4 668.758L1059.29 670.723L1243.91 682.678L1247.59 682.924L1255.29 683.415L1258.9 683.661L1334.01 700.284L1330.89 704.05L1304.85 709.455L1295.43 711.42L1293.22 711.911L1190.92 733.202H1171.67L1120.64 723.539L1082.88 716.415L1069.94 713.959L1031.94 713.303L1022.93 713.14L1016.21 713.058L997.453 712.73L951.914 711.911L897.037 708.145L835.935 703.969H835.853L812.018 702.331L799.159 694.142L811.69 691.44L811.936 691.358L871.236 678.502L871.564 678.42H871.646L875.659 677.52L870.99 678.42L809.479 689.966L805.793 690.703L773.113 696.845L761.81 698.974L757.387 699.792L744.118 702.331L724.542 703.559L496.27 718.544L489.062 719.035L221.966 736.559H221.884L189.613 738.688H189.532H212.875L325.004 738.852H351.05H351.706L391.43 738.934H392.331H436.806L509.047 739.016L579.405 730.909L645.339 723.294L710.7 715.76L716.106 715.105L734.207 713.058L751.407 711.011L866.24 710.601L875.659 711.502L891.385 713.058L1010.8 724.522L1023.17 725.75L1038.49 727.224L1048.07 728.125L1120.64 735.085L1161.18 739.016H1179.04L1068.55 783.889L1038.82 786.509L1028.33 787.41L1021.37 787.983L991.392 790.603L971.489 792.323L960.76 793.306L956.91 793.633L937.908 795.271L921.363 796.745L841.996 807.799L831.02 809.355L807.677 812.631L782.532 816.07L768.362 818.117L690.224 829.008L683.425 829.99L647.96 832.529L600.373 836.05L514.207 838.015L491.683 838.588H491.601H491.028L445.898 839.571L444.833 839.653L439.263 839.735L335.406 842.109L296.255 843.01L291.423 843.092L145.22 846.449H144.975L97.3872 847.596L53.076 848.578L47.1787 848.742V870.032L54.8779 869.541L97.3872 867.33L183.634 862.663L193.545 862.171L194.282 862.089L212.547 861.107L242.771 859.469L277.908 857.668V857.586L289.047 857.012L383.567 851.936L440.574 848.906L445.079 848.66L446.143 848.578L454.825 848.169L509.047 845.221L589.233 840.881H589.315L626.419 838.916L690.224 835.477L696.367 835.149L772.867 831.055L1021.37 817.707L1054.3 815.988L1057.65 816.233L1114.58 820.655L1069.94 796.172L1187.31 758.668L1187.89 758.504L1293.22 724.849L1295.43 724.112L1363.74 702.331L1508.79 681.368V669.249Z" fill="url(#paint8_linear_2_25273)"/>
<path fill-rule="evenodd" clip-rule="evenodd" d="M1508.79 922.849V681.369L1363.74 702.331L1069.94 796.172L1063.3 815.988L1114.58 820.656L1069.94 867.249L1038.82 899.921L1114.58 896.4L1197.96 909.829L1304.35 912.695L979.269 922.521L1508.79 922.849Z" fill="#341F3E"/>
<path fill-rule="evenodd" clip-rule="evenodd" d="M1508.79 720.428L1460.96 723.294L1138.82 791.75L1130.96 801.986L1198.04 807.799C1198.04 807.799 1468 796.172 1495.36 796.172C1498.23 796.172 1502.89 795.844 1508.87 795.189V720.428H1508.79Z" fill="url(#paint9_linear_2_25273)"/>
<path opacity="0.5" fill-rule="evenodd" clip-rule="evenodd" d="M600.372 678.421L799.158 684.235L811.935 691.359L744.117 702.331L710.7 715.761L700.052 706.098L651.072 710.274L645.338 723.294L751.407 711.011L866.239 710.602L872.874 706.508L812.017 702.331L799.158 694.143L871.645 678.421H600.372Z" fill="url(#paint10_linear_2_25273)"/>
<path opacity="0.5" fill-rule="evenodd" clip-rule="evenodd" d="M1508.79 681.368V673.508L1470.79 671.952L1455.64 676.046L1348.91 691.359L1330.89 694.47L1243.09 678.421L1258.9 683.661L1334 700.284L1330.89 704.051L1190.91 733.202H1171.67V739.016H1179.04L1068.55 783.889L1054.3 815.988L811.853 826.633L807.676 812.631L690.223 829.008V835.477L1057.65 816.234L1114.58 820.656L1069.94 796.172L1363.74 702.331L1508.79 681.368Z" fill="url(#paint11_linear_2_25273)"/>
<path opacity="0.5" fill-rule="evenodd" clip-rule="evenodd" d="M804.236 908.027L812.836 902.05L1044.47 893.943L1038.82 899.921L804.236 908.027Z" fill="url(#paint12_linear_2_25273)"/>
<path fill-rule="evenodd" clip-rule="evenodd" d="M1190.91 733.202H1171.67L1069.94 713.959L951.912 711.912L812.017 702.331L799.157 694.143L871.644 678.421L1007.36 667.366L1253.65 683.088L1334 700.284L1330.89 704.051L1190.91 733.202Z" fill="#907F82"/>
<path opacity="0.5" fill-rule="evenodd" clip-rule="evenodd" d="M1038.49 727.224L1069.94 713.959L1120.64 723.54V735.085L1038.49 727.224Z" fill="url(#paint13_linear_2_25273)"/>
<path opacity="0.5" fill-rule="evenodd" clip-rule="evenodd" d="M1023.17 725.75L1031.94 713.304L1016.21 713.058L1010.8 724.522L1023.17 725.75Z" fill="url(#paint14_linear_2_25273)"/>
<path fill-rule="evenodd" clip-rule="evenodd" d="M1330.89 694.47L1243.09 678.421L1038.49 668.349H1256.19L1466.86 673.016L1455.63 676.046L1330.89 694.47Z" fill="#725C60"/>
<path fill-rule="evenodd" clip-rule="evenodd" d="M381.438 850.953L383.567 851.936L512.979 912.449L616.18 908.846L1044.47 893.943L1114.58 820.656L1054.3 815.988L772.703 830.564L381.438 850.953Z" fill="#907F82"/>
<path fill-rule="evenodd" clip-rule="evenodd" d="M189.449 738.688L714.058 704.869L774.668 697.418L871.645 678.42H600.372L327.952 716.415L189.449 738.688Z" fill="#725C60"/>
<path opacity="0.5" fill-rule="evenodd" clip-rule="evenodd" d="M1508.79 778.239L1264.96 799.365L1138.74 791.75L1130.88 801.986L1196.48 815.988L1290.02 817.626L1285.93 831.137L1363.66 842.273L1466.78 831.874C1466.78 831.874 1484.79 825.241 1508.71 816.807V778.239H1508.79Z" fill="url(#paint15_linear_2_25273)"/>
<path fill-rule="evenodd" clip-rule="evenodd" d="M1460.96 723.294L1288.63 783.889L1207.71 795.926L1138.74 791.75L1460.96 723.294Z" fill="#755559"/>
<path opacity="0.3" fill-rule="evenodd" clip-rule="evenodd" d="M1508.79 907.946L1264.96 893.943L1134.24 882.397H1066.58L1069.94 867.249L1038.81 899.921L1114.58 896.4L1197.96 909.829L1304.35 912.695H1508.79V907.946Z" fill="url(#paint16_linear_2_25273)"/>
<path opacity="0.5" fill-rule="evenodd" clip-rule="evenodd" d="M1508.79 907.946L1281.26 894.926L1223.92 890.013L1197.96 909.829L1295.26 912.449L1508.79 912.613V907.946Z" fill="url(#paint17_linear_2_25273)"/>
<path fill-rule="evenodd" clip-rule="evenodd" d="M579.403 730.909L937.907 795.271L921.28 796.745L714.057 783.889L841.995 807.8L831.019 809.355L544.593 774.39L526.902 772.261L561.876 783.889L690.304 807.8L315.502 762.844L405.435 734.84L579.403 730.909Z" fill="#341F3E"/>
<path opacity="0.3" fill-rule="evenodd" clip-rule="evenodd" d="M921.279 796.745L709.224 779.222L574.98 766.12L714.057 783.889L921.279 796.745Z" fill="url(#paint18_linear_2_25273)"/>
<path opacity="0.3" fill-rule="evenodd" clip-rule="evenodd" d="M831.019 809.356L653.529 783.889L351.459 751.299L509.046 772.261H526.902L831.019 809.356Z" fill="url(#paint19_linear_2_25273)"/>
<path opacity="0.3" fill-rule="evenodd" clip-rule="evenodd" d="M690.304 807.8L337.207 755.884L315.502 762.845L690.304 807.8Z" fill="url(#paint20_linear_2_25273)"/>
<path fill-rule="evenodd" clip-rule="evenodd" d="M955.763 821.065L960.759 793.306L716.105 715.105L734.207 713.058L972.472 792.733L972.308 819.591L1023.34 817.298L1028.33 787.41L875.659 711.502L891.385 713.058L1038.82 786.509L1032.18 816.889L955.763 821.065Z" fill="#92959B"/>
<path fill-rule="evenodd" clip-rule="evenodd" d="M589.232 840.881L913.089 895.663L982.382 893.943L626.418 838.916L589.232 840.881Z" fill="#92959B"/>
<path fill-rule="evenodd" clip-rule="evenodd" d="M454.824 848.169L616.261 908.846L630.021 914.087L654.921 923.422L669.254 928.826L782.94 924.896L777.944 923.422L733.469 910.484L716.023 905.407L509.046 845.221L454.824 848.169Z" fill="#B59AA0"/>
<path fill-rule="evenodd" clip-rule="evenodd" d="M995.323 669.085L1042.01 713.058L1069.94 713.959L1001.3 669.495L995.323 669.085Z" fill="#B59AA0"/>
<path fill-rule="evenodd" clip-rule="evenodd" d="M973.782 669.085L1031.94 713.304H1023.17L950.849 671.951L973.782 669.085Z" fill="#B59AA0"/>
<path fill-rule="evenodd" clip-rule="evenodd" d="M47.1787 848.742V870.033H54.9598L54.8779 869.541L49.7178 850.953L53.076 848.579L60.6932 843.092L73.6344 833.757L129.331 816.234L162.666 805.671L179.621 800.348L191.252 796.745L233.843 783.316L254.647 782.333L275.697 775.537L315.503 762.845L315.585 762.763L337.208 755.884L351.542 751.299L382.994 741.227L391.43 738.934L392.167 738.688H351.46L351.706 738.852L361.043 745.567L253.173 781.433H232.205L160.045 802.805L114.833 816.152L74.2077 828.189L52.9941 844.321L47.1787 848.742Z" fill="#271624"/>
<path fill-rule="evenodd" clip-rule="evenodd" d="M154.311 743.847L206.158 730.909L398.064 714.123L499.464 718.708L321.563 730.254L323.283 738.688H351.459L291.831 759.978L148.414 755.884L255.547 770.132L241.951 772.671L58.8086 757.849L154.311 743.847Z" fill="#341F3E"/>
<path opacity="0.3" fill-rule="evenodd" clip-rule="evenodd" d="M499.464 718.708L381.191 722.393L295.763 730.909L200.179 736.068L323.284 738.689L338.6 739.917L317.632 748.023L242.688 751.299L308.868 749.989L306.002 753.428L283.969 755.884L132.197 753.428L107.543 755.884H148.414L291.832 759.979L351.459 738.689L323.448 737.624L321.564 730.254L499.464 718.708Z" fill="url(#paint21_linear_2_25273)"/>
<path opacity="0.3" fill-rule="evenodd" clip-rule="evenodd" d="M255.547 770.132L234.251 769.15L61.4296 757.522L58.8086 757.85L241.951 772.671L255.547 770.132Z" fill="url(#paint22_linear_2_25273)"/>
<path opacity="0.5" fill-rule="evenodd" clip-rule="evenodd" d="M975.666 819.427L991.392 790.604L1021.37 787.983V817.708L975.666 819.427Z" fill="url(#paint23_linear_2_25273)"/>
<path opacity="0.5" fill-rule="evenodd" clip-rule="evenodd" d="M289.046 857.013L291.421 843.174L315.501 842.601V855.375L289.046 857.013Z" fill="url(#paint24_linear_2_25273)"/>
<path fill-rule="evenodd" clip-rule="evenodd" d="M206.158 844.402L236.709 838.916L283.068 841.618L325.086 838.916L491.683 838.588L206.158 844.402Z" fill="#866D6A"/>
<path fill-rule="evenodd" clip-rule="evenodd" d="M254.646 782.333L224.177 790.604L191.251 796.745L179.62 800.348L224.505 791.341L271.273 780.286L277.907 773.244L254.646 782.333Z" fill="#271624"/>
<path fill-rule="evenodd" clip-rule="evenodd" d="M73.6334 833.757L110.409 838.916L172.003 845.221L49.7168 850.953L73.6334 833.757Z" fill="#866D6A"/>
<path fill-rule="evenodd" clip-rule="evenodd" d="M289.046 842.355L330.736 833.757L401.257 840.39L289.046 842.355Z" fill="#A59391"/>
<path fill-rule="evenodd" clip-rule="evenodd" d="M440.573 848.906L439.181 838.916L386.27 821.065L271.273 780.286L272.912 778.566L276.106 780.286L444.832 839.489L445.078 848.66L440.573 848.906Z" fill="#271624"/>
<path fill-rule="evenodd" clip-rule="evenodd" d="M271.273 780.286L224.177 790.604L179.62 800.348L73.6334 833.757L49.7168 850.953L439.18 838.916L271.273 780.286Z" fill="#AA9D9F"/>
<path fill-rule="evenodd" clip-rule="evenodd" d="M435.331 813.695L543.857 836.46L647.959 832.529L566.872 813.695L560.402 815.661L474.154 800.348L435.331 813.695Z" fill="#AA9D9F"/>
<path fill-rule="evenodd" clip-rule="evenodd" d="M956.909 793.634L975.666 785.036H1019.24L1068.55 783.889L956.909 793.634Z" fill="#8D7C7F"/>
<path opacity="0.5" fill-rule="evenodd" clip-rule="evenodd" d="M799.157 694.143L835.933 703.969L812.017 702.331L799.157 694.143Z" fill="url(#paint25_linear_2_25273)"/>
<path fill-rule="evenodd" clip-rule="evenodd" d="M1288.63 783.889L1315.08 793.634C1315.08 793.634 1275.52 800.512 1260.94 799.365C1246.36 798.219 1209.92 796.418 1209.92 796.418L1288.63 783.889Z" fill="#8D7C7F"/>
<path fill-rule="evenodd" clip-rule="evenodd" d="M1000.81 893.943L1055.61 882.315L1044.47 893.943H1000.81Z" fill="#8D7C7F"/>
<path opacity="0.8" fill-rule="evenodd" clip-rule="evenodd" d="M363.581 810.993L382.419 815.988L432.71 824.422L445.897 839.571L446.142 848.66H445.078L444.832 839.489L363.581 810.993Z" fill="url(#paint26_linear_2_25273)"/>
<path fill-rule="evenodd" clip-rule="evenodd" d="M432.71 824.422L454.824 821.065L397.572 807.8L363.581 810.993L382.419 815.988L432.71 824.422Z" fill="#AA9D9F"/>
<path fill-rule="evenodd" clip-rule="evenodd" d="M427.632 823.521L440.819 823.194L439.181 831.874L427.632 823.521Z" fill="#8D7C7F"/>
<path fill-rule="evenodd" clip-rule="evenodd" d="M1038.49 727.224L1069.94 713.959L1052 702.331L997.535 668.185L1000.81 667.939L1007.28 673.344L1061.01 706.671L1082.88 716.252L1081.9 717.89L1062.32 719.363L1049.05 724.522L1048.07 728.125L1038.49 727.224Z" fill="#271624"/>
<path opacity="0.8" fill-rule="evenodd" clip-rule="evenodd" d="M1179.04 739.016L1187.72 759.569L1190.92 733.202H1171.67V739.016H1179.04Z" fill="url(#paint27_linear_2_25273)"/>
<path opacity="0.8" fill-rule="evenodd" clip-rule="evenodd" d="M793.015 710.847L799.158 694.142L871.645 678.42H789.575L781.384 683.334L799.158 684.234L806.284 691.194L757.467 699.465L754.601 710.847H793.015Z" fill="url(#paint28_linear_2_25273)"/>
<path fill-rule="evenodd" clip-rule="evenodd" d="M896.79 708.145H928.16H960.677L997.535 712.731H956.909L896.79 708.145Z" fill="#8D7C7F"/>
<path fill-rule="evenodd" clip-rule="evenodd" d="M512.977 838.179L559.828 833.757L607.088 829.827L654.757 831.874L708.078 821.065L782.53 816.07L690.222 829.008L600.371 836.05L512.977 838.179Z" fill="#8D7C7F"/>
<path fill-rule="evenodd" clip-rule="evenodd" d="M255.547 911.712V867.33L260.789 876.993H358.175L491.682 913.186L339.746 963.791L255.547 911.712Z" fill="#B59AA0"/>
<path fill-rule="evenodd" clip-rule="evenodd" d="M1508.79 58.2204C1506.99 52.5703 1505.27 46.8384 1503.63 41.1064L1498.14 0.491211H1444.5L1416.89 20.3894L1394.94 38.7317L1319.34 74.5975L1305.83 69.93L1261.6 53.0616C1261.6 53.0616 1213.28 62.1509 1211.15 64.6075C1209.1 66.9822 1174.45 107.679 1174.45 107.679L1141.94 163.443C1141.94 163.443 1089.76 214.376 1089.76 217.897C1089.76 221.418 1089.76 240.415 1089.76 240.415L1101.06 255.237L1077.97 289.792L997.781 345.147L876.314 390.593C876.314 390.593 815.867 419.499 813.41 420.645C810.953 421.874 758.778 498.109 757.386 502.285C755.994 506.543 717.088 606.198 717.088 606.198L639.196 611.438L630.35 618.399L586.448 678.421H887.453L885.16 669.086L1015.23 657.704L1114.33 636.741L1118.84 629.781L1508.63 611.602V58.2204H1508.79Z" fill="url(#paint29_linear_2_25273)"/>
<path opacity="0.5" fill-rule="evenodd" clip-rule="evenodd" d="M1261.68 52.9795L1256.11 79.756L1188.54 121.681L1163.07 127.086L1142.02 163.197L1190.01 149.031C1190.01 149.031 1284.29 108.498 1295.92 101.21C1307.55 93.9222 1319.34 74.4335 1319.34 74.4335L1261.68 52.9795Z" fill="url(#paint30_linear_2_25273)"/>
<path opacity="0.5" d="M1508.79 284.798C1454.65 299.865 1384.46 305.433 1371.52 305.433C1355.38 305.433 1313.28 300.192 1313.28 300.192L1508.79 191.612V172.861L1469.89 187.354L1508.79 164.263V82.7048C1477.67 76.6453 1448.02 68.293 1450.56 65.3451C1453.42 61.9878 1482.66 32.1815 1500.03 14.4942C1499.46 10.1543 1498.88 5.73251 1498.31 1.39258L1444.17 1.47446L1441.14 64.0349C1441.14 64.0349 1381.67 166.637 1351.37 177.692C1321.15 188.746 1138.25 239.352 1138.25 239.352L1095.49 226.659L1089.84 217.734V240.252L1101.15 255.074L1078.05 289.629L997.862 344.984L1144.56 291.349L1161.18 296.59V314.522C1161.18 314.522 1132.43 372.661 1126.37 379.621C1120.31 386.582 1067.4 399.683 1067.4 399.683C1067.4 399.683 932.01 558.213 927.997 562.881C923.983 567.548 898.019 603.987 898.019 603.987L886.961 666.384L878.361 657.049L806.775 660.816C806.775 660.816 666.634 650.908 660.082 648.615C653.529 646.322 638.376 620.364 638.376 620.364L630.35 618.317L586.448 678.339H887.453L885.16 669.004L1015.23 657.622L1114.33 636.66L1118.84 629.699L1095.41 573.772L1101.97 549.288L1141.53 448.733L1192.23 399.765L1225.48 351.371L1305.75 320.336C1305.75 320.336 1409.28 339.416 1425.17 336.222C1435.73 334.093 1480.29 314.686 1508.71 301.994V284.798H1508.79Z" fill="url(#paint31_linear_2_25273)"/>
<path opacity="0.5" d="M1508.79 591.049L1470.95 570.742L1430.49 572.953L1414.85 583.434H1363.9L1338.67 565.337L1348.67 561.161L1330.16 558.541L1376.68 495.571L1457.6 446.44L1508.63 433.748V350.388C1432.37 354.319 1355.46 357.021 1355.46 357.021L1312.38 377.165L1286.66 422.611L1445.48 411.229L1484.79 406.889L1330.16 462.08L1262.5 475.1L1214.09 497.864L1201.97 552.973L1157.33 583.598L1198.2 562.144L1302.23 540.69L1312.79 548.141L1291.25 580.896L1274.95 591.377L1235.64 601.449H1142.26L1145.29 590.558L1150.21 587.037L1135.46 596.208L1118.84 629.863L1508.63 611.685V591.049H1508.79Z" fill="url(#paint32_linear_2_25273)"/>
<path fill-rule="evenodd" clip-rule="evenodd" d="M757.469 502.203L824.55 490.657H830.119C830.119 490.657 813.574 436.04 813.574 420.481L757.469 502.203Z" fill="#A26E71"/>
<path fill-rule="evenodd" clip-rule="evenodd" d="M856.984 399.765L996.962 360.787L1045.37 351.452L1050.94 346.212L1069.04 325.167L1144.72 291.43L997.945 344.983L876.478 390.512L856.984 399.765Z" fill="#A26E71"/>
<path fill-rule="evenodd" clip-rule="evenodd" d="M1067.56 399.764L1045.37 351.37L1069.04 325.167L1144.64 291.348L1161.27 296.589V314.522L1126.46 379.621C1126.54 379.703 1104.34 391.658 1067.56 399.764Z" fill="#A29396"/>
<path fill-rule="evenodd" clip-rule="evenodd" d="M928.161 563.044L891.139 573.525H881.065L830.119 490.739C830.119 490.739 817.669 452.417 813.574 420.563L856.984 399.764L996.962 360.705L1045.37 351.37L1067.56 399.764L928.161 563.044Z" fill="#907F82"/>
<path fill-rule="evenodd" clip-rule="evenodd" d="M880.982 573.525L887.535 587.773L898.183 604.069L928.16 563.044L891.139 573.525H880.982Z" fill="#A29396"/>
<path fill-rule="evenodd" clip-rule="evenodd" d="M755.01 604.069V530.945L757.467 502.203L717.17 606.116L755.01 604.069Z" fill="#A29396"/>
<path fill-rule="evenodd" clip-rule="evenodd" d="M878.526 657.13L821.519 645.748L757.468 604.068H754.929L717.089 606.115L639.196 611.356L638.459 620.364C638.459 620.364 653.12 644.847 660.164 648.614C667.208 652.381 806.858 660.815 806.858 660.815L878.526 657.13Z" fill="#644E52"/>
<path fill-rule="evenodd" clip-rule="evenodd" d="M639.277 611.356L638.54 620.446L630.431 618.399L639.277 611.356Z" fill="#755559"/>
<path fill-rule="evenodd" clip-rule="evenodd" d="M1211.23 64.5253L1256.11 79.8379L1261.68 52.9795L1211.23 64.5253Z" fill="#755559"/>
<path fill-rule="evenodd" clip-rule="evenodd" d="M1142.02 163.361L1102.05 222.974L1095.49 226.741L1089.84 217.815C1089.84 217.733 1120.97 180.066 1142.02 163.361Z" fill="#A26E71"/>
<path fill-rule="evenodd" clip-rule="evenodd" d="M1225.64 351.452H1293.3H1305.83L1349.98 339.497L1305.83 320.417L1225.64 351.452Z" fill="#755559"/>
<path fill-rule="evenodd" clip-rule="evenodd" d="M1214.26 497.7L1195.34 481.077L1219.34 475.591L1267.33 474.117L1214.26 497.7Z" fill="#755559"/>
<path fill-rule="evenodd" clip-rule="evenodd" d="M1286.83 422.529H1245.22L1189.6 415.978L1192.23 399.765L1141.53 448.732C1141.53 448.732 1167.65 473.625 1195.26 481.077L1219.17 475.509L1267.17 474.035L1330.15 461.916L1484.79 406.725L1286.83 422.529Z" fill="#A29396"/>
<path fill-rule="evenodd" clip-rule="evenodd" d="M1145.46 590.394L1142.43 601.284H1235.8L1275.11 591.294L1291.41 580.813L1312.96 547.977L1302.39 540.525L1198.37 561.979L1145.46 590.394Z" fill="#A29396"/>
<path fill-rule="evenodd" clip-rule="evenodd" d="M1335.89 550.925L1322.05 553.709L1312.96 547.977L1301.82 539.052L1210.49 553.709L1202.14 552.808L1157.58 583.434L1198.37 561.98L1302.39 540.526L1311.97 549.533L1316.15 560.26L1318.03 578.602L1319.75 565.91L1330.32 558.459L1335.89 550.925Z" fill="#271624"/>
<path fill-rule="evenodd" clip-rule="evenodd" d="M1031.28 655.083L1057 593.915L1139.72 442.836L1192.31 399.765L1141.69 448.732L1095.49 573.771L1119 629.699H1142.43L1114.41 636.741L1031.28 655.083Z" fill="#271624"/>
<path opacity="0.5" d="M1218.85 552.317L1255.87 521.528L1330.32 461.997L1484.96 406.807V429.571L1479.39 440.462L1438.11 453.563L1376.84 495.57L1335.89 550.925L1322.05 553.709L1302.39 540.525L1218.85 552.317Z" fill="url(#paint33_linear_2_25273)"/>
<path opacity="0.5" d="M1126.54 379.703L1144.72 421.955L1139.72 442.836L1057 593.915L1031.28 655.083L1015.39 657.704L885.323 669.086L898.182 604.069L1067.56 399.765L1126.54 379.703Z" fill="url(#paint34_linear_2_25273)"/>
<path opacity="0.5" d="M1508.79 80.9027C1479.06 74.0243 1450.56 65.4263 1450.56 65.4263L1500.11 14.6574C1499.54 10.1537 1498.88 5.73188 1498.31 1.22818L1444.58 0.491211L1441.14 64.1162L1370.7 163.361L1351.37 177.773L1138.25 239.351L1136.37 264.817L1305.83 245.902L1370.78 211.346L1405.35 147.394L1438.11 108.089L1508.79 115.54V80.9027Z" fill="url(#paint35_linear_2_25273)"/>
<path opacity="0.5" d="M1161.35 296.671L1172.4 325.413V416.06L1192.31 399.765L1225.64 351.452L1211.23 353.008L1161.35 296.671Z" fill="url(#paint36_linear_2_25273)"/>
<path fill-rule="evenodd" clip-rule="evenodd" d="M1084.85 542.982L1045.37 539.052L993.112 486.973L839.046 505.315L821.764 539.052L805.874 632.483H801.124L811.198 639.034L808.659 632.483L823.566 541.426L837.408 511.538L841.667 509.491L930.945 495.652L939.218 494.424L991.392 491.64L994.177 493.933L1002.04 499.174L1042.58 540.526L1071.58 554.201L1073.87 562.962L1084.85 542.982Z" fill="#271624"/>
<path opacity="0.5" fill-rule="evenodd" clip-rule="evenodd" d="M1221.38 101.374L1228.76 131.672L1242.52 125.53V89.4189L1221.38 101.374Z" fill="url(#paint37_linear_2_25273)"/>
<path fill-rule="evenodd" clip-rule="evenodd" d="M1142.02 163.361L1333.76 181.213L1351.37 177.773L1173.22 154.108L1163.07 127.25L1142.02 163.361Z" fill="#AA8B92"/>
<path fill-rule="evenodd" clip-rule="evenodd" d="M1174.53 107.597L1210.49 108.171L1213.19 139.205L1375.04 154.272L1377.99 198.081L1479.06 208.644L1495.36 198.408L1385.77 183.587L1383.39 149.195L1216.14 137.322L1214.18 105.878L1179.86 101.374L1174.53 107.597Z" fill="#AA8B92"/>
<path fill-rule="evenodd" clip-rule="evenodd" d="M876.478 390.512L1033.82 440.462L1014 462.489L856.984 399.765L876.478 390.512Z" fill="#B59AA0"/>
<path fill-rule="evenodd" clip-rule="evenodd" d="M846.336 403.777L1000.65 478.129L993.112 486.972L826.679 414.258L846.336 403.777Z" fill="#AA8B92"/>
<path fill-rule="evenodd" clip-rule="evenodd" d="M1033.82 440.462L1089.84 533.811L1084.85 542.982L1014 462.489L1033.82 440.462Z" fill="#92959B"/>
<path opacity="0.3" d="M830.119 490.739L883.276 578.52L898.183 604.069L885.324 669.086L878.526 657.13L821.519 645.748L811.199 639.034L808.66 632.483L823.321 539.461L821.765 539.052L785.153 622.083L770.574 610.046L757.469 502.203L830.119 490.739Z" fill="url(#paint38_linear_2_25273)"/>
<path fill-rule="evenodd" clip-rule="evenodd" d="M846.091 516.124L847.401 517.843L863.619 507.526L886.798 502.203L841.75 508.508L846.091 516.124Z" fill="#754D50"/>
<path fill-rule="evenodd" clip-rule="evenodd" d="M968.212 492.868L985.248 494.752L991.391 491.64L968.212 492.868Z" fill="#754D50"/>
<path fill-rule="evenodd" clip-rule="evenodd" d="M1060.19 383.715L1075.51 397.963L1064.29 403.777L1060.19 383.715Z" fill="#754D50"/>
<path fill-rule="evenodd" clip-rule="evenodd" d="M1189.69 415.978L1245.3 422.529H1286.83L1484.96 406.807L1488.81 408.281L1503.55 402.139L1287.81 418.762L1189.69 415.978Z" fill="#271624"/>
<path fill-rule="evenodd" clip-rule="evenodd" d="M1139.89 410.901L1045.37 497.7V505.315L1033.74 527.424L961.66 632.483L904.571 667.366H1119L1392.24 659.423L1333.76 651.562L1349.98 645.503L1261.68 639.034L1119 623.148L1115.97 599.238L1132.35 474.117L1141.69 448.732L1192.31 399.765L1225.64 351.453L1243.09 344.656L1305.83 320.418L1270.53 331.063L1236.45 335.894L1211.23 339.497L1182.4 320.418L1204.68 345.639L1144.72 416.306L1139.89 410.901Z" fill="#7A92D7"/>
<path fill-rule="evenodd" clip-rule="evenodd" d="M672.858 609.146L724.869 586.381L743.871 579.012L793.834 597.354V601.285L861.078 639.034L863.781 643.701L888.517 652.709L952.24 668.676L885.323 671.952L887.043 666.465L871.726 655.984L821.518 645.748L749.195 606.116L713.975 606.607L725.36 611.356L750.341 625.523L672.858 609.146Z" fill="#341F3E"/>
<path fill-rule="evenodd" clip-rule="evenodd" d="M813.573 420.563L856.983 392.231L1089.84 305.269L1144.72 291.43L1061.91 323.284L1031.28 351.452H1047.91L992.702 363.08L889.091 399.765L904.571 396.735L890.565 406.807L816.849 423.839L813.573 420.563Z" fill="#341F3E"/>
<path opacity="0.3" fill-rule="evenodd" clip-rule="evenodd" d="M1204.67 345.639H1218.84L1176.42 392.231L1131.61 440.462L1182.72 392.231L1203.45 377.083L1184.53 404.76L1134.89 453.973L1120.48 497.7L1104.83 527.424L1111.79 486.973L1125.8 448.159L1107.86 489.839L1089.84 520.464L1048.23 557.149L1087.22 499.419L1073.95 505.315L1045.37 497.7V505.315L1025.79 539.052L1045.37 520.055L1067.56 515.223L1025.79 586.382L988.524 616.597L1000.81 595.635L959.775 648.123L971.897 621.838L961.659 632.483L916.938 659.833L952.24 668.677L1267.33 669.086H1259.63L1141.69 655.084L1333.76 651.562L1349.98 645.503L1237.36 649.433L1000.81 642.391L1111.79 625.523L1119 623.148L1115.97 599.238L1132.35 474.117L1140.13 451.353L1192.31 399.765L1225.64 351.453L1305.83 320.418L1267.33 331.554L1272.33 331.145L1240.55 339.497L1209.51 341.217L1211.23 339.497L1182.4 320.418L1204.67 345.639Z" fill="url(#paint39_linear_2_25273)"/>
<path fill-rule="evenodd" clip-rule="evenodd" d="M1119 623.148L1000.81 642.391L1209.18 648.614L1349.98 645.503L1119 623.148Z" fill="#341F3E"/>
<path fill-rule="evenodd" clip-rule="evenodd" d="M1064.53 660.897L1267.33 669.086L1392.24 659.423L1333.76 651.562L1144.72 655.002L1064.53 660.897Z" fill="#341F3E"/>
<path fill-rule="evenodd" clip-rule="evenodd" d="M1045.37 497.7L1073.95 505.315L1087.22 499.42L1136.36 420.564L1139.89 410.901L1045.37 497.7Z" fill="#341F3E"/>
<path fill-rule="evenodd" clip-rule="evenodd" d="M1048.23 557.149L1084.85 514.65L1125.8 448.159L1107.86 489.839L1089.84 520.464L1048.23 557.149Z" fill="#341F3E"/>
<path opacity="0.3" fill-rule="evenodd" clip-rule="evenodd" d="M1144.72 291.43L1057.98 320.418L1006.3 351.452H1031.28L1061.91 323.284L1144.72 291.43Z" fill="url(#paint40_linear_2_25273)"/>
<path opacity="0.3" fill-rule="evenodd" clip-rule="evenodd" d="M889.091 399.765L864.109 403.777L911.615 384.534L992.702 363.08L889.091 399.765Z" fill="url(#paint41_linear_2_25273)"/>
<path opacity="0.3" fill-rule="evenodd" clip-rule="evenodd" d="M890.565 406.807L825.941 418.352L813.573 420.563L816.849 423.839L890.565 406.807Z" fill="url(#paint42_linear_2_25273)"/>
<path opacity="0.3" fill-rule="evenodd" clip-rule="evenodd" d="M793.833 597.354L772.784 601.53L724.705 595.062L746.41 599.729L751.979 604.069H719.954H697.02L713.975 606.607L749.195 606.116L821.518 645.749L871.726 655.984L887.043 666.466L885.322 671.952L952.24 668.677L899.41 663.845L851.741 646.076L863.781 643.701L861.078 639.034H824.63L759.269 605.87L793.833 601.285V597.354Z" fill="url(#paint43_linear_2_25273)"/>
<path fill-rule="evenodd" clip-rule="evenodd" d="M752.225 626.833L761.645 625.522L793.834 640.262L801.123 648.614L761.645 635.84L752.225 626.833Z" fill="#341F3E"/>
<path opacity="0.3" fill-rule="evenodd" clip-rule="evenodd" d="M761.645 625.522L757.467 628.143L759.597 632.483L790.558 642.145L793.834 640.262L801.123 648.614L761.645 635.84L752.225 626.833L761.645 625.522Z" fill="url(#paint44_linear_2_25273)"/>
<path fill-rule="evenodd" clip-rule="evenodd" d="M1295.92 101.374L1190.09 149.195L1230.72 157.22L1330.81 153.289L1305.83 149.359L1281.17 146.001L1370.78 132.736L1398.87 123.647L1403.3 117.423L1363.24 121.19L1409.85 108.17L1431.31 75.0068L1360.21 89.4187L1295.92 110.873L1279.29 113.493L1300.09 101.374H1295.92Z" fill="#341F3E"/>
<path opacity="0.3" fill-rule="evenodd" clip-rule="evenodd" d="M1330.81 153.29H1245.3L1190.09 149.195L1230.72 157.22L1330.81 153.29Z" fill="url(#paint45_linear_2_25273)"/>
<path fill-rule="evenodd" clip-rule="evenodd" d="M1261.68 52.9795L1220.4 60.2673L1210.74 64.034L1174.53 107.597L1163.07 127.25L1177.65 108.17L1218.19 66.9L1230.72 62.3144L1261.68 52.9795Z" fill="#E09C6F"/>
<path fill-rule="evenodd" clip-rule="evenodd" d="M1142.02 163.361L1115.89 195.051L1090.33 218.716L1089.76 217.815L1091.56 213.803C1091.64 213.721 1121.13 179.329 1142.02 163.361Z" fill="#E09C6F"/>
<path fill-rule="evenodd" clip-rule="evenodd" d="M1101.23 255.155V269.976L1078.62 296.671L1014 333.929L1078.13 289.629L1101.23 255.155Z" fill="#E09C6F"/>
<path fill-rule="evenodd" clip-rule="evenodd" d="M813.574 420.563L864.11 393.705L1089.84 305.269L1028.58 325.576L856.984 392.231L813.574 420.563Z" fill="#E1E8FD"/>
<path fill-rule="evenodd" clip-rule="evenodd" d="M813.574 420.563L764.021 502.203L724.87 586.381L752.227 502.203L813.574 420.563Z" fill="#E09C6F"/>
<path fill-rule="evenodd" clip-rule="evenodd" d="M672.859 609.146L638.54 620.446L630.432 618.399L639.278 611.356L672.859 609.146Z" fill="#E09C6F"/>
<path fill-rule="evenodd" clip-rule="evenodd" d="M724.869 586.381L687.028 609.146H672.858L724.869 586.381Z" fill="#E1E8FD"/>
<path fill-rule="evenodd" clip-rule="evenodd" d="M586.612 678.421L279.137 724.522L312.882 721.575L605.287 678.585L586.612 678.421Z" fill="#E09C6F"/>
<path fill-rule="evenodd" clip-rule="evenodd" d="M398.065 714.123L381.192 722.393L200.18 736.068L222.54 736.559L145.794 753.591L132.197 753.428L58.8096 757.849L154.312 743.847L203.456 730.909L398.065 714.123Z" fill="#E1E8FD"/>
<path fill-rule="evenodd" clip-rule="evenodd" d="M405.435 734.84L565.398 755.884L769.262 770.132L782.531 766.12L579.404 730.909L405.435 734.84Z" fill="#C7D4FB"/>
<path fill-rule="evenodd" clip-rule="evenodd" d="M1066.25 749.661L1086.57 747.45L1096.4 755.147L1054.54 753.346L1066.25 749.661Z" fill="#341F3E"/>
<path fill-rule="evenodd" clip-rule="evenodd" d="M1508.79 819.509L1478.65 827.616L1478 827.534L1461.53 826.06L1368.32 817.544L1300.83 829.335L1286.75 828.68L1114.58 820.656L1095.74 835.804L774.669 836.541L772.867 831.137V831.055L772.703 830.564L381.437 850.953L383.567 851.936L212.547 861.107L255.548 911.712L274.468 923.422H1508.79V819.509Z" fill="url(#paint46_linear_2_25273)"/>
<mask id="mask0_2_25273" style="mask-type:alpha" maskUnits="userSpaceOnUse" x="0" y="0" width="1509" height="964">
<path fill-rule="evenodd" clip-rule="evenodd" d="M0 786.755L45.4579 843.092L47.1779 845.221L52.9933 844.32L60.6925 843.092L98.2055 837.196L179.62 824.422L172.331 816.316L162.666 805.67L160.045 802.804L154.557 796.745L94.9292 792.896L16.3812 787.819L0 786.755Z" fill="url(#paint47_linear_2_25273)"/>
<path opacity="0.5" fill-rule="evenodd" clip-rule="evenodd" d="M0 786.755L45.4579 843.092L47.1779 845.221L52.9933 844.32L60.6925 843.092L98.2055 837.196L179.62 824.422L172.331 816.316L162.666 805.67L160.045 802.804L154.557 796.745L94.9292 792.896L16.3812 787.819L0 786.755Z" fill="url(#paint48_linear_2_25273)"/>
<path fill-rule="evenodd" clip-rule="evenodd" d="M1508.79 589.329L1505.52 589.247L1356.12 584.171L1334.99 583.434L1332.2 583.761L1302.72 587.61L1275.36 591.131L1196.48 601.367L1128.67 610.128L1117.45 611.602L1111.63 612.339L1045.61 620.855L973.864 630.108L967.721 630.927L962.561 631.582H962.233L891.548 640.753L890.811 640.835L864.929 644.193L854.199 645.585L833.722 648.205H833.558L761.153 657.54L759.188 657.786L600.208 678.339L599.553 678.421L298.712 722.639L296.664 722.966H296.582L214.758 735.003L211.4 735.495L206.322 736.232L189.613 738.688H189.531L154.311 743.847L61.5115 757.44L58.9724 757.768H58.8905L47.1779 759.487L0 786.673L46.5227 825.651L47.096 826.142V869.869L141.452 905.898L186.91 923.258L202.963 929.399L223.194 937.097L242.033 944.303L246.046 945.777L251.616 947.906L258.496 944.548L263.41 942.174L275.942 936.032L286.59 930.791L291.094 928.581L301.824 923.258H1508.63V589.329H1508.79ZM593 909.665L586.857 909.911L491.6 913.186L309.769 919.491L382.583 883.626L416.083 867.167L454.743 848.169L616.18 908.928L593 909.665Z" fill="url(#paint49_linear_2_25273)"/>
<path fill-rule="evenodd" clip-rule="evenodd" d="M11.0576 789.703L58.8089 772.671L179.62 748.515L70.4396 805.753L11.0576 789.703Z" fill="#B59AA0"/>
<path opacity="0.5" fill-rule="evenodd" clip-rule="evenodd" d="M97.3857 847.596V867.33L141.451 906.062L186.991 923.422L203.045 929.563L223.276 937.342L242.114 944.548L246.127 946.022L251.697 948.151L258.577 944.794L263.491 942.338L276.023 936.196L286.671 930.955L291.176 928.744L290.193 923.422L289.62 920.228L281.511 876.993L277.907 857.668V843.42L145.219 846.45H144.973L97.3857 847.596Z" fill="url(#paint50_linear_2_25273)"/>
<path opacity="0.5" fill-rule="evenodd" clip-rule="evenodd" d="M47.1787 870.033L141.453 906.062L186.993 923.422L203.046 929.563L223.277 937.342L242.115 944.548L246.129 946.022L251.698 948.151L258.579 944.794L263.493 942.338L276.025 936.196L286.672 930.955L291.177 928.744L290.194 923.422L289.621 920.228L281.512 876.993L277.908 857.668L242.771 859.469L212.547 861.107L194.282 862.09L193.545 862.172L183.634 862.663L97.3872 867.33L54.8779 869.541L47.1787 870.033Z" fill="url(#paint51_linear_2_25273)"/>
<path opacity="0.5" fill-rule="evenodd" clip-rule="evenodd" d="M183.634 862.663L206.158 876.502L209.68 900.412L222.949 934.968L291.177 928.745L290.194 923.422L289.62 920.228L277.908 857.668L183.634 862.663Z" fill="url(#paint52_linear_2_25273)"/>
<path fill-rule="evenodd" clip-rule="evenodd" d="M212.547 861.107L255.548 911.712L274.468 923.422L339.747 963.791L543.038 923.422L616.262 908.846H616.18L454.825 848.169L383.567 851.936L212.547 861.107Z" fill="url(#paint53_linear_2_25273)"/>
<path opacity="0.6" fill-rule="evenodd" clip-rule="evenodd" d="M616.261 908.846L198.704 923.422H361.042L630.022 914.087L733.469 910.484L1038.82 899.921L1044.47 893.943L716.023 905.407L616.261 908.846Z" fill="url(#paint54_linear_2_25273)"/>
<path opacity="0.6" fill-rule="evenodd" clip-rule="evenodd" d="M1508.79 669.249L1485.45 672.606L1330.89 694.47L1243.09 678.42L1029.4 668.758L1059.29 670.723L1243.91 682.678L1247.59 682.924L1255.29 683.415L1258.9 683.661L1334.01 700.284L1330.89 704.05L1304.85 709.455L1295.43 711.42L1293.22 711.911L1190.92 733.202H1171.67L1120.64 723.539L1082.88 716.415L1069.94 713.959L1031.94 713.303L1022.93 713.14L1016.21 713.058L997.453 712.73L951.914 711.911L897.037 708.145L835.935 703.969H835.853L812.018 702.331L799.159 694.142L811.69 691.44L811.936 691.358L871.236 678.502L871.564 678.42H871.646L875.659 677.52L870.99 678.42L809.479 689.966L805.793 690.703L773.113 696.845L761.81 698.974L757.387 699.792L744.118 702.331L724.542 703.559L496.27 718.544L489.062 719.035L221.966 736.559H221.884L189.613 738.688H189.532H212.875L325.004 738.852H351.05H351.706L391.43 738.934H392.331H436.806L509.047 739.016L579.405 730.909L645.339 723.294L710.7 715.76L716.106 715.105L734.207 713.058L751.407 711.011L866.24 710.601L875.659 711.502L891.385 713.058L1010.8 724.522L1023.17 725.75L1038.49 727.224L1048.07 728.125L1120.64 735.085L1161.18 739.016H1179.04L1068.55 783.889L1038.82 786.509L1028.33 787.41L1021.37 787.983L991.392 790.603L971.489 792.323L960.76 793.306L956.91 793.633L937.908 795.271L921.363 796.745L841.996 807.799L831.02 809.355L807.677 812.631L782.532 816.07L768.362 818.117L690.224 829.008L683.425 829.99L647.96 832.529L600.373 836.05L514.207 838.015L491.683 838.588H491.601H491.028L445.898 839.571L444.833 839.653L439.263 839.735L335.406 842.109L296.255 843.01L291.423 843.092L145.22 846.449H144.975L97.3872 847.596L53.076 848.578L47.1787 848.742V870.032L54.8779 869.541L97.3872 867.33L183.634 862.663L193.545 862.171L194.282 862.089L212.547 861.107L242.771 859.469L277.908 857.668V857.586L289.047 857.012L383.567 851.936L440.574 848.906L445.079 848.66L446.143 848.578L454.825 848.169L509.047 845.221L589.233 840.881H589.315L626.419 838.916L690.224 835.477L696.367 835.149L772.867 831.055L1021.37 817.707L1054.3 815.988L1057.65 816.233L1114.58 820.655L1069.94 796.172L1187.31 758.668L1187.89 758.504L1293.22 724.849L1295.43 724.112L1363.74 702.331L1508.79 681.368V669.249Z" fill="url(#paint55_linear_2_25273)"/>
<path fill-rule="evenodd" clip-rule="evenodd" d="M1508.79 922.849V681.369L1363.74 702.331L1069.94 796.172L1063.3 815.988L1114.58 820.656L1069.94 867.249L1038.82 899.921L1114.58 896.4L1197.96 909.829L1304.35 912.695L979.269 922.521L1508.79 922.849Z" fill="#AABDF9"/>
<path fill-rule="evenodd" clip-rule="evenodd" d="M1508.79 720.428L1460.96 723.294L1138.82 791.75L1130.96 801.986L1198.04 807.799C1198.04 807.799 1468 796.172 1495.36 796.172C1498.23 796.172 1502.89 795.844 1508.87 795.189V720.428H1508.79Z" fill="url(#paint56_linear_2_25273)"/>
<path opacity="0.5" fill-rule="evenodd" clip-rule="evenodd" d="M600.372 678.421L799.158 684.235L811.935 691.359L744.117 702.331L710.7 715.761L700.052 706.098L651.072 710.274L645.338 723.294L751.407 711.011L866.239 710.602L872.874 706.508L812.017 702.331L799.158 694.143L871.645 678.421H600.372Z" fill="url(#paint57_linear_2_25273)"/>
<path opacity="0.5" fill-rule="evenodd" clip-rule="evenodd" d="M1508.79 681.368V673.508L1470.79 671.952L1455.64 676.046L1348.91 691.359L1330.89 694.47L1243.09 678.421L1258.9 683.661L1334 700.284L1330.89 704.051L1190.91 733.202H1171.67V739.016H1179.04L1068.55 783.889L1054.3 815.988L811.853 826.633L807.676 812.631L690.223 829.008V835.477L1057.65 816.234L1114.58 820.656L1069.94 796.172L1363.74 702.331L1508.79 681.368Z" fill="url(#paint58_linear_2_25273)"/>
<path opacity="0.5" fill-rule="evenodd" clip-rule="evenodd" d="M804.236 908.027L812.836 902.05L1044.47 893.943L1038.82 899.921L804.236 908.027Z" fill="url(#paint59_linear_2_25273)"/>
<path fill-rule="evenodd" clip-rule="evenodd" d="M1190.91 733.202H1171.67L1069.94 713.959L951.912 711.912L812.017 702.331L799.157 694.143L871.644 678.421L1007.36 667.366L1253.65 683.088L1334 700.284L1330.89 704.051L1190.91 733.202Z" fill="#907F82"/>
<path opacity="0.5" fill-rule="evenodd" clip-rule="evenodd" d="M1038.49 727.224L1069.94 713.959L1120.64 723.54V735.085L1038.49 727.224Z" fill="url(#paint60_linear_2_25273)"/>
<path opacity="0.5" fill-rule="evenodd" clip-rule="evenodd" d="M1023.17 725.75L1031.94 713.304L1016.21 713.058L1010.8 724.522L1023.17 725.75Z" fill="url(#paint61_linear_2_25273)"/>
<path fill-rule="evenodd" clip-rule="evenodd" d="M1330.89 694.47L1243.09 678.421L1038.49 668.349H1256.19L1466.86 673.016L1455.63 676.046L1330.89 694.47Z" fill="#725C60"/>
<path fill-rule="evenodd" clip-rule="evenodd" d="M381.438 850.953L383.567 851.936L512.979 912.449L616.18 908.846L1044.47 893.943L1114.58 820.656L1054.3 815.988L772.703 830.564L381.438 850.953Z" fill="#907F82"/>
<path fill-rule="evenodd" clip-rule="evenodd" d="M189.449 738.688L714.058 704.869L774.668 697.418L871.645 678.42H600.372L327.952 716.415L189.449 738.688Z" fill="#725C60"/>
<path opacity="0.5" fill-rule="evenodd" clip-rule="evenodd" d="M1508.79 778.239L1264.96 799.365L1138.74 791.75L1130.88 801.986L1196.48 815.988L1290.02 817.626L1285.93 831.137L1363.66 842.273L1466.78 831.874C1466.78 831.874 1484.79 825.241 1508.71 816.807V778.239H1508.79Z" fill="url(#paint62_linear_2_25273)"/>
<path fill-rule="evenodd" clip-rule="evenodd" d="M1460.96 723.294L1288.63 783.889L1207.71 795.926L1138.74 791.75L1460.96 723.294Z" fill="#755559"/>
<path opacity="0.3" fill-rule="evenodd" clip-rule="evenodd" d="M1508.79 907.946L1264.96 893.943L1134.24 882.397H1066.58L1069.94 867.249L1038.81 899.921L1114.58 896.4L1197.96 909.829L1304.35 912.695H1508.79V907.946Z" fill="url(#paint63_linear_2_25273)"/>
<path opacity="0.5" fill-rule="evenodd" clip-rule="evenodd" d="M1508.79 907.946L1281.26 894.926L1223.92 890.013L1197.96 909.829L1295.26 912.449L1508.79 912.613V907.946Z" fill="url(#paint64_linear_2_25273)"/>
<path fill-rule="evenodd" clip-rule="evenodd" d="M579.403 730.909L937.907 795.271L921.28 796.745L714.057 783.889L841.995 807.8L831.019 809.355L544.593 774.39L526.902 772.261L561.876 783.889L690.304 807.8L315.502 762.844L405.435 734.84L579.403 730.909Z" fill="#AABDF9"/>
<path opacity="0.3" fill-rule="evenodd" clip-rule="evenodd" d="M921.279 796.745L709.224 779.222L574.98 766.12L714.057 783.889L921.279 796.745Z" fill="url(#paint65_linear_2_25273)"/>
<path opacity="0.3" fill-rule="evenodd" clip-rule="evenodd" d="M831.019 809.356L653.529 783.889L351.459 751.299L509.046 772.261H526.902L831.019 809.356Z" fill="url(#paint66_linear_2_25273)"/>
<path opacity="0.3" fill-rule="evenodd" clip-rule="evenodd" d="M690.304 807.8L337.207 755.884L315.502 762.845L690.304 807.8Z" fill="url(#paint67_linear_2_25273)"/>
<path fill-rule="evenodd" clip-rule="evenodd" d="M955.763 821.065L960.759 793.306L716.105 715.105L734.207 713.058L972.472 792.733L972.308 819.591L1023.34 817.298L1028.33 787.41L875.659 711.502L891.385 713.058L1038.82 786.509L1032.18 816.889L955.763 821.065Z" fill="#92959B"/>
<path fill-rule="evenodd" clip-rule="evenodd" d="M589.232 840.881L913.089 895.663L982.382 893.943L626.418 838.916L589.232 840.881Z" fill="#92959B"/>
<path fill-rule="evenodd" clip-rule="evenodd" d="M454.824 848.169L616.261 908.846L630.021 914.087L654.921 923.422L669.254 928.826L782.94 924.896L777.944 923.422L733.469 910.484L716.023 905.407L509.046 845.221L454.824 848.169Z" fill="#B59AA0"/>
<path fill-rule="evenodd" clip-rule="evenodd" d="M995.323 669.085L1042.01 713.058L1069.94 713.959L1001.3 669.495L995.323 669.085Z" fill="#B59AA0"/>
<path fill-rule="evenodd" clip-rule="evenodd" d="M973.782 669.085L1031.94 713.304H1023.17L950.849 671.951L973.782 669.085Z" fill="#B59AA0"/>
<path fill-rule="evenodd" clip-rule="evenodd" d="M47.1787 848.742V870.033H54.9598L54.8779 869.541L49.7178 850.953L53.076 848.579L60.6932 843.092L73.6344 833.757L129.331 816.234L162.666 805.671L179.621 800.348L191.252 796.745L233.843 783.316L254.647 782.333L275.697 775.537L315.503 762.845L315.585 762.763L337.208 755.884L351.542 751.299L382.994 741.227L391.43 738.934L392.167 738.688H351.46L351.706 738.852L361.043 745.567L253.173 781.433H232.205L160.045 802.805L114.833 816.152L74.2077 828.189L52.9941 844.321L47.1787 848.742Z" fill="#271624"/>
<path fill-rule="evenodd" clip-rule="evenodd" d="M154.311 743.847L206.158 730.909L398.064 714.123L499.464 718.708L321.563 730.254L323.283 738.688H351.459L291.831 759.978L148.414 755.884L255.547 770.132L241.951 772.671L58.8086 757.849L154.311 743.847Z" fill="#AABDF9"/>
<path opacity="0.3" fill-rule="evenodd" clip-rule="evenodd" d="M499.464 718.708L381.191 722.393L295.763 730.909L200.179 736.068L323.284 738.689L338.6 739.917L317.632 748.023L242.688 751.299L308.868 749.989L306.002 753.428L283.969 755.884L132.197 753.428L107.543 755.884H148.414L291.832 759.979L351.459 738.689L323.448 737.624L321.564 730.254L499.464 718.708Z" fill="url(#paint68_linear_2_25273)"/>
<path opacity="0.3" fill-rule="evenodd" clip-rule="evenodd" d="M255.547 770.132L234.251 769.15L61.4296 757.522L58.8086 757.85L241.951 772.671L255.547 770.132Z" fill="url(#paint69_linear_2_25273)"/>
<path opacity="0.5" fill-rule="evenodd" clip-rule="evenodd" d="M975.666 819.427L991.392 790.604L1021.37 787.983V817.708L975.666 819.427Z" fill="url(#paint70_linear_2_25273)"/>
<path opacity="0.5" fill-rule="evenodd" clip-rule="evenodd" d="M289.046 857.013L291.421 843.174L315.501 842.601V855.375L289.046 857.013Z" fill="url(#paint71_linear_2_25273)"/>
<path fill-rule="evenodd" clip-rule="evenodd" d="M206.158 844.402L236.709 838.916L283.068 841.618L325.086 838.916L491.683 838.588L206.158 844.402Z" fill="#866D6A"/>
<path fill-rule="evenodd" clip-rule="evenodd" d="M254.646 782.333L224.177 790.604L191.251 796.745L179.62 800.348L224.505 791.341L271.273 780.286L277.907 773.244L254.646 782.333Z" fill="#271624"/>
<path fill-rule="evenodd" clip-rule="evenodd" d="M73.6334 833.757L110.409 838.916L172.003 845.221L49.7168 850.953L73.6334 833.757Z" fill="#866D6A"/>
<path fill-rule="evenodd" clip-rule="evenodd" d="M289.046 842.355L330.736 833.757L401.257 840.39L289.046 842.355Z" fill="#A59391"/>
<path fill-rule="evenodd" clip-rule="evenodd" d="M440.573 848.906L439.181 838.916L386.27 821.065L271.273 780.286L272.912 778.566L276.106 780.286L444.832 839.489L445.078 848.66L440.573 848.906Z" fill="#271624"/>
<path fill-rule="evenodd" clip-rule="evenodd" d="M271.273 780.286L224.177 790.604L179.62 800.348L73.6334 833.757L49.7168 850.953L439.18 838.916L271.273 780.286Z" fill="#AA9D9F"/>
<path fill-rule="evenodd" clip-rule="evenodd" d="M435.331 813.695L543.857 836.46L647.959 832.529L566.872 813.695L560.402 815.661L474.154 800.348L435.331 813.695Z" fill="#AA9D9F"/>
<path fill-rule="evenodd" clip-rule="evenodd" d="M956.909 793.634L975.666 785.036H1019.24L1068.55 783.889L956.909 793.634Z" fill="#8D7C7F"/>
<path opacity="0.5" fill-rule="evenodd" clip-rule="evenodd" d="M799.157 694.143L835.933 703.969L812.017 702.331L799.157 694.143Z" fill="url(#paint72_linear_2_25273)"/>
<path fill-rule="evenodd" clip-rule="evenodd" d="M1288.63 783.889L1315.08 793.634C1315.08 793.634 1275.52 800.512 1260.94 799.365C1246.36 798.219 1209.92 796.418 1209.92 796.418L1288.63 783.889Z" fill="#8D7C7F"/>
<path fill-rule="evenodd" clip-rule="evenodd" d="M1000.81 893.943L1055.61 882.315L1044.47 893.943H1000.81Z" fill="#8D7C7F"/>
<path opacity="0.8" fill-rule="evenodd" clip-rule="evenodd" d="M363.581 810.993L382.419 815.988L432.71 824.422L445.897 839.571L446.142 848.66H445.078L444.832 839.489L363.581 810.993Z" fill="url(#paint73_linear_2_25273)"/>
<path fill-rule="evenodd" clip-rule="evenodd" d="M432.71 824.422L454.824 821.065L397.572 807.8L363.581 810.993L382.419 815.988L432.71 824.422Z" fill="#AA9D9F"/>
<path fill-rule="evenodd" clip-rule="evenodd" d="M427.632 823.521L440.819 823.194L439.181 831.874L427.632 823.521Z" fill="#8D7C7F"/>
<path fill-rule="evenodd" clip-rule="evenodd" d="M1038.49 727.224L1069.94 713.959L1052 702.331L997.535 668.185L1000.81 667.939L1007.28 673.344L1061.01 706.671L1082.88 716.252L1081.9 717.89L1062.32 719.363L1049.05 724.522L1048.07 728.125L1038.49 727.224Z" fill="#271624"/>
<path opacity="0.8" fill-rule="evenodd" clip-rule="evenodd" d="M1179.04 739.016L1187.72 759.569L1190.92 733.202H1171.67V739.016H1179.04Z" fill="url(#paint74_linear_2_25273)"/>
<path opacity="0.8" fill-rule="evenodd" clip-rule="evenodd" d="M793.015 710.847L799.158 694.142L871.645 678.42H789.575L781.384 683.334L799.158 684.234L806.284 691.194L757.467 699.465L754.601 710.847H793.015Z" fill="url(#paint75_linear_2_25273)"/>
<path fill-rule="evenodd" clip-rule="evenodd" d="M896.79 708.145H928.16H960.677L997.535 712.731H956.909L896.79 708.145Z" fill="#8D7C7F"/>
<path fill-rule="evenodd" clip-rule="evenodd" d="M512.977 838.179L559.828 833.757L607.088 829.827L654.757 831.874L708.078 821.065L782.53 816.07L690.222 829.008L600.371 836.05L512.977 838.179Z" fill="#8D7C7F"/>
<path fill-rule="evenodd" clip-rule="evenodd" d="M255.547 911.712V867.33L260.789 876.993H358.175L491.682 913.186L339.746 963.791L255.547 911.712Z" fill="#B59AA0"/>
<path fill-rule="evenodd" clip-rule="evenodd" d="M1508.79 58.2204C1506.99 52.5703 1505.27 46.8384 1503.63 41.1064L1498.14 0.491211H1444.5L1416.89 20.3894L1394.94 38.7317L1319.34 74.5975L1305.83 69.93L1261.6 53.0616C1261.6 53.0616 1213.28 62.1509 1211.15 64.6075C1209.1 66.9822 1174.45 107.679 1174.45 107.679L1141.94 163.443C1141.94 163.443 1089.76 214.376 1089.76 217.897C1089.76 221.418 1089.76 240.415 1089.76 240.415L1101.06 255.237L1077.97 289.792L997.781 345.147L876.314 390.593C876.314 390.593 815.867 419.499 813.41 420.645C810.953 421.874 758.778 498.109 757.386 502.285C755.994 506.543 717.088 606.198 717.088 606.198L639.196 611.438L630.35 618.399L586.448 678.421H887.453L885.16 669.086L1015.23 657.704L1114.33 636.741L1118.84 629.781L1508.63 611.602V58.2204H1508.79Z" fill="url(#paint76_linear_2_25273)"/>
<path opacity="0.5" fill-rule="evenodd" clip-rule="evenodd" d="M1261.68 52.9795L1256.11 79.756L1188.54 121.681L1163.07 127.086L1142.02 163.197L1190.01 149.031C1190.01 149.031 1284.29 108.498 1295.92 101.21C1307.55 93.9222 1319.34 74.4335 1319.34 74.4335L1261.68 52.9795Z" fill="url(#paint77_linear_2_25273)"/>
<path opacity="0.5" d="M1508.79 284.798C1454.65 299.865 1384.46 305.433 1371.52 305.433C1355.38 305.433 1313.28 300.192 1313.28 300.192L1508.79 191.612V172.861L1469.89 187.354L1508.79 164.263V82.7048C1477.67 76.6453 1448.02 68.293 1450.56 65.3451C1453.42 61.9878 1482.66 32.1815 1500.03 14.4942C1499.46 10.1543 1498.88 5.73251 1498.31 1.39258L1444.17 1.47446L1441.14 64.0349C1441.14 64.0349 1381.67 166.637 1351.37 177.692C1321.15 188.746 1138.25 239.352 1138.25 239.352L1095.49 226.659L1089.84 217.734V240.252L1101.15 255.074L1078.05 289.629L997.862 344.984L1144.56 291.349L1161.18 296.59V314.522C1161.18 314.522 1132.43 372.661 1126.37 379.621C1120.31 386.582 1067.4 399.683 1067.4 399.683C1067.4 399.683 932.01 558.213 927.997 562.881C923.983 567.548 898.019 603.987 898.019 603.987L886.961 666.384L878.361 657.049L806.775 660.816C806.775 660.816 666.634 650.908 660.082 648.615C653.529 646.322 638.376 620.364 638.376 620.364L630.35 618.317L586.448 678.339H887.453L885.16 669.004L1015.23 657.622L1114.33 636.66L1118.84 629.699L1095.41 573.772L1101.97 549.288L1141.53 448.733L1192.23 399.765L1225.48 351.371L1305.75 320.336C1305.75 320.336 1409.28 339.416 1425.17 336.222C1435.73 334.093 1480.29 314.686 1508.71 301.994V284.798H1508.79Z" fill="url(#paint78_linear_2_25273)"/>
<path opacity="0.5" d="M1508.79 591.049L1470.95 570.742L1430.49 572.953L1414.85 583.434H1363.9L1338.67 565.337L1348.67 561.161L1330.16 558.541L1376.68 495.571L1457.6 446.44L1508.63 433.748V350.388C1432.37 354.319 1355.46 357.021 1355.46 357.021L1312.38 377.165L1286.66 422.611L1445.48 411.229L1484.79 406.889L1330.16 462.08L1262.5 475.1L1214.09 497.864L1201.97 552.973L1157.33 583.598L1198.2 562.144L1302.23 540.69L1312.79 548.141L1291.25 580.896L1274.95 591.377L1235.64 601.449H1142.26L1145.29 590.558L1150.21 587.037L1135.46 596.208L1118.84 629.863L1508.63 611.685V591.049H1508.79Z" fill="url(#paint79_linear_2_25273)"/>
<path fill-rule="evenodd" clip-rule="evenodd" d="M757.469 502.203L824.55 490.657H830.119C830.119 490.657 813.574 436.04 813.574 420.481L757.469 502.203Z" fill="#A26E71"/>
<path fill-rule="evenodd" clip-rule="evenodd" d="M856.984 399.765L996.962 360.787L1045.37 351.452L1050.94 346.212L1069.04 325.167L1144.72 291.43L997.945 344.983L876.478 390.512L856.984 399.765Z" fill="#A26E71"/>
<path fill-rule="evenodd" clip-rule="evenodd" d="M1067.56 399.764L1045.37 351.37L1069.04 325.167L1144.64 291.348L1161.27 296.589V314.522L1126.46 379.621C1126.54 379.703 1104.34 391.658 1067.56 399.764Z" fill="#A29396"/>
<path fill-rule="evenodd" clip-rule="evenodd" d="M928.161 563.044L891.139 573.525H881.065L830.119 490.739C830.119 490.739 817.669 452.417 813.574 420.563L856.984 399.764L996.962 360.705L1045.37 351.37L1067.56 399.764L928.161 563.044Z" fill="#907F82"/>
<path fill-rule="evenodd" clip-rule="evenodd" d="M880.982 573.525L887.535 587.773L898.183 604.069L928.16 563.044L891.139 573.525H880.982Z" fill="#A29396"/>
<path fill-rule="evenodd" clip-rule="evenodd" d="M755.01 604.069V530.945L757.467 502.203L717.17 606.116L755.01 604.069Z" fill="#A29396"/>
<path fill-rule="evenodd" clip-rule="evenodd" d="M878.526 657.13L821.519 645.748L757.468 604.068H754.929L717.089 606.115L639.196 611.356L638.459 620.364C638.459 620.364 653.12 644.847 660.164 648.614C667.208 652.381 806.858 660.815 806.858 660.815L878.526 657.13Z" fill="#644E52"/>
<path fill-rule="evenodd" clip-rule="evenodd" d="M639.277 611.356L638.54 620.446L630.431 618.399L639.277 611.356Z" fill="#755559"/>
<path fill-rule="evenodd" clip-rule="evenodd" d="M1211.23 64.5253L1256.11 79.8379L1261.68 52.9795L1211.23 64.5253Z" fill="#755559"/>
<path fill-rule="evenodd" clip-rule="evenodd" d="M1142.02 163.361L1102.05 222.974L1095.49 226.741L1089.84 217.815C1089.84 217.733 1120.97 180.066 1142.02 163.361Z" fill="#A26E71"/>
<path fill-rule="evenodd" clip-rule="evenodd" d="M1225.64 351.452H1293.3H1305.83L1349.98 339.497L1305.83 320.417L1225.64 351.452Z" fill="#755559"/>
<path fill-rule="evenodd" clip-rule="evenodd" d="M1214.26 497.7L1195.34 481.077L1219.34 475.591L1267.33 474.117L1214.26 497.7Z" fill="#755559"/>
<path fill-rule="evenodd" clip-rule="evenodd" d="M1286.83 422.529H1245.22L1189.6 415.978L1192.23 399.765L1141.53 448.732C1141.53 448.732 1167.65 473.625 1195.26 481.077L1219.17 475.509L1267.17 474.035L1330.15 461.916L1484.79 406.725L1286.83 422.529Z" fill="#A29396"/>
<path fill-rule="evenodd" clip-rule="evenodd" d="M1145.46 590.394L1142.43 601.284H1235.8L1275.11 591.294L1291.41 580.813L1312.96 547.977L1302.39 540.525L1198.37 561.979L1145.46 590.394Z" fill="#A29396"/>
<path fill-rule="evenodd" clip-rule="evenodd" d="M1335.89 550.925L1322.05 553.709L1312.96 547.977L1301.82 539.052L1210.49 553.709L1202.14 552.808L1157.58 583.434L1198.37 561.98L1302.39 540.526L1311.97 549.533L1316.15 560.26L1318.03 578.602L1319.75 565.91L1330.32 558.459L1335.89 550.925Z" fill="#271624"/>
<path fill-rule="evenodd" clip-rule="evenodd" d="M1031.28 655.083L1057 593.915L1139.72 442.836L1192.31 399.765L1141.69 448.732L1095.49 573.771L1119 629.699H1142.43L1114.41 636.741L1031.28 655.083Z" fill="#271624"/>
<path opacity="0.5" d="M1218.85 552.317L1255.87 521.528L1330.32 461.997L1484.96 406.807V429.571L1479.39 440.462L1438.11 453.563L1376.84 495.57L1335.89 550.925L1322.05 553.709L1302.39 540.525L1218.85 552.317Z" fill="url(#paint80_linear_2_25273)"/>
<path opacity="0.5" d="M1126.54 379.703L1144.72 421.955L1139.72 442.836L1057 593.915L1031.28 655.083L1015.39 657.704L885.323 669.086L898.182 604.069L1067.56 399.765L1126.54 379.703Z" fill="url(#paint81_linear_2_25273)"/>
<path opacity="0.5" d="M1508.79 80.9027C1479.06 74.0243 1450.56 65.4263 1450.56 65.4263L1500.11 14.6574C1499.54 10.1537 1498.88 5.73188 1498.31 1.22818L1444.58 0.491211L1441.14 64.1162L1370.7 163.361L1351.37 177.773L1138.25 239.351L1136.37 264.817L1305.83 245.902L1370.78 211.346L1405.35 147.394L1438.11 108.089L1508.79 115.54V80.9027Z" fill="url(#paint82_linear_2_25273)"/>
<path opacity="0.5" d="M1161.35 296.671L1172.4 325.413V416.06L1192.31 399.765L1225.64 351.452L1211.23 353.008L1161.35 296.671Z" fill="url(#paint83_linear_2_25273)"/>
<path fill-rule="evenodd" clip-rule="evenodd" d="M1084.85 542.982L1045.37 539.052L993.112 486.973L839.046 505.315L821.764 539.052L805.874 632.483H801.124L811.198 639.034L808.659 632.483L823.566 541.426L837.408 511.538L841.667 509.491L930.945 495.652L939.218 494.424L991.392 491.64L994.177 493.933L1002.04 499.174L1042.58 540.526L1071.58 554.201L1073.87 562.962L1084.85 542.982Z" fill="#271624"/>
<path opacity="0.5" fill-rule="evenodd" clip-rule="evenodd" d="M1221.38 101.374L1228.76 131.672L1242.52 125.53V89.4189L1221.38 101.374Z" fill="url(#paint84_linear_2_25273)"/>
<path fill-rule="evenodd" clip-rule="evenodd" d="M1142.02 163.361L1333.76 181.213L1351.37 177.773L1173.22 154.108L1163.07 127.25L1142.02 163.361Z" fill="#AA8B92"/>
<path fill-rule="evenodd" clip-rule="evenodd" d="M1174.53 107.597L1210.49 108.171L1213.19 139.205L1375.04 154.272L1377.99 198.081L1479.06 208.644L1495.36 198.408L1385.77 183.587L1383.39 149.195L1216.14 137.322L1214.18 105.878L1179.86 101.374L1174.53 107.597Z" fill="#AA8B92"/>
<path fill-rule="evenodd" clip-rule="evenodd" d="M876.478 390.512L1033.82 440.462L1014 462.489L856.984 399.765L876.478 390.512Z" fill="#B59AA0"/>
<path fill-rule="evenodd" clip-rule="evenodd" d="M846.336 403.777L1000.65 478.129L993.112 486.972L826.679 414.258L846.336 403.777Z" fill="#AA8B92"/>
<path fill-rule="evenodd" clip-rule="evenodd" d="M1033.82 440.462L1089.84 533.811L1084.85 542.982L1014 462.489L1033.82 440.462Z" fill="#92959B"/>
<path opacity="0.3" d="M830.119 490.739L883.276 578.52L898.183 604.069L885.324 669.086L878.526 657.13L821.519 645.748L811.199 639.034L808.66 632.483L823.321 539.461L821.765 539.052L785.153 622.083L770.574 610.046L757.469 502.203L830.119 490.739Z" fill="url(#paint85_linear_2_25273)"/>
<path fill-rule="evenodd" clip-rule="evenodd" d="M846.091 516.124L847.401 517.843L863.619 507.526L886.798 502.203L841.75 508.508L846.091 516.124Z" fill="#754D50"/>
<path fill-rule="evenodd" clip-rule="evenodd" d="M968.212 492.868L985.248 494.752L991.391 491.64L968.212 492.868Z" fill="#754D50"/>
<path fill-rule="evenodd" clip-rule="evenodd" d="M1060.19 383.715L1075.51 397.963L1064.29 403.777L1060.19 383.715Z" fill="#754D50"/>
<path fill-rule="evenodd" clip-rule="evenodd" d="M1189.69 415.978L1245.3 422.529H1286.83L1484.96 406.807L1488.81 408.281L1503.55 402.139L1287.81 418.762L1189.69 415.978Z" fill="#271624"/>
<path fill-rule="evenodd" clip-rule="evenodd" d="M1139.89 410.901L1045.37 497.7V505.315L1033.74 527.424L961.66 632.483L904.571 667.366H1119L1392.24 659.423L1333.76 651.562L1349.98 645.503L1261.68 639.034L1119 623.148L1115.97 599.238L1132.35 474.117L1141.69 448.732L1192.31 399.765L1225.64 351.453L1243.09 344.656L1305.83 320.418L1270.53 331.063L1236.45 335.894L1211.23 339.497L1182.4 320.418L1204.68 345.639L1144.72 416.306L1139.89 410.901Z" fill="#7A92D7"/>
<path fill-rule="evenodd" clip-rule="evenodd" d="M672.858 609.146L724.869 586.381L743.871 579.012L793.834 597.354V601.285L861.078 639.034L863.781 643.701L888.517 652.709L952.24 668.676L885.323 671.952L887.043 666.465L871.726 655.984L821.518 645.748L749.195 606.116L713.975 606.607L725.36 611.356L750.341 625.523L672.858 609.146Z" fill="#AABDF9"/>
<path fill-rule="evenodd" clip-rule="evenodd" d="M813.573 420.563L856.983 392.231L1089.84 305.269L1144.72 291.43L1061.91 323.284L1031.28 351.452H1047.91L992.702 363.08L889.091 399.765L904.571 396.735L890.565 406.807L816.849 423.839L813.573 420.563Z" fill="#AABDF9"/>
<path opacity="0.3" fill-rule="evenodd" clip-rule="evenodd" d="M1204.67 345.639H1218.84L1176.42 392.231L1131.61 440.462L1182.72 392.231L1203.45 377.083L1184.53 404.76L1134.89 453.973L1120.48 497.7L1104.83 527.424L1111.79 486.973L1125.8 448.159L1107.86 489.839L1089.84 520.464L1048.23 557.149L1087.22 499.419L1073.95 505.315L1045.37 497.7V505.315L1025.79 539.052L1045.37 520.055L1067.56 515.223L1025.79 586.382L988.524 616.597L1000.81 595.635L959.775 648.123L971.897 621.838L961.659 632.483L916.938 659.833L952.24 668.677L1267.33 669.086H1259.63L1141.69 655.084L1333.76 651.562L1349.98 645.503L1237.36 649.433L1000.81 642.391L1111.79 625.523L1119 623.148L1115.97 599.238L1132.35 474.117L1140.13 451.353L1192.31 399.765L1225.64 351.453L1305.83 320.418L1267.33 331.554L1272.33 331.145L1240.55 339.497L1209.51 341.217L1211.23 339.497L1182.4 320.418L1204.67 345.639Z" fill="url(#paint86_linear_2_25273)"/>
<path fill-rule="evenodd" clip-rule="evenodd" d="M1119 623.148L1000.81 642.391L1209.18 648.614L1349.98 645.503L1119 623.148Z" fill="#AABDF9"/>
<path fill-rule="evenodd" clip-rule="evenodd" d="M1064.53 660.897L1267.33 669.086L1392.24 659.423L1333.76 651.562L1144.72 655.002L1064.53 660.897Z" fill="#AABDF9"/>
<path fill-rule="evenodd" clip-rule="evenodd" d="M1045.37 497.7L1073.95 505.315L1087.22 499.42L1136.36 420.564L1139.89 410.901L1045.37 497.7Z" fill="#AABDF9"/>
<path fill-rule="evenodd" clip-rule="evenodd" d="M1048.23 557.149L1084.85 514.65L1125.8 448.159L1107.86 489.839L1089.84 520.464L1048.23 557.149Z" fill="#AABDF9"/>
<path opacity="0.3" fill-rule="evenodd" clip-rule="evenodd" d="M1144.72 291.43L1057.98 320.418L1006.3 351.452H1031.28L1061.91 323.284L1144.72 291.43Z" fill="url(#paint87_linear_2_25273)"/>
<path opacity="0.3" fill-rule="evenodd" clip-rule="evenodd" d="M889.091 399.765L864.109 403.777L911.615 384.534L992.702 363.08L889.091 399.765Z" fill="url(#paint88_linear_2_25273)"/>
<path opacity="0.3" fill-rule="evenodd" clip-rule="evenodd" d="M890.565 406.807L825.941 418.352L813.573 420.563L816.849 423.839L890.565 406.807Z" fill="url(#paint89_linear_2_25273)"/>
<path opacity="0.3" fill-rule="evenodd" clip-rule="evenodd" d="M793.833 597.354L772.784 601.53L724.705 595.062L746.41 599.729L751.979 604.069H719.954H697.02L713.975 606.607L749.195 606.116L821.518 645.749L871.726 655.984L887.043 666.466L885.322 671.952L952.24 668.677L899.41 663.845L851.741 646.076L863.781 643.701L861.078 639.034H824.63L759.269 605.87L793.833 601.285V597.354Z" fill="url(#paint90_linear_2_25273)"/>
<path fill-rule="evenodd" clip-rule="evenodd" d="M752.225 626.833L761.645 625.522L793.834 640.262L801.123 648.614L761.645 635.84L752.225 626.833Z" fill="#AABDF9"/>
<path opacity="0.3" fill-rule="evenodd" clip-rule="evenodd" d="M761.645 625.522L757.467 628.143L759.597 632.483L790.558 642.145L793.834 640.262L801.123 648.614L761.645 635.84L752.225 626.833L761.645 625.522Z" fill="url(#paint91_linear_2_25273)"/>
<path fill-rule="evenodd" clip-rule="evenodd" d="M1295.92 101.374L1190.09 149.195L1230.72 157.22L1330.81 153.289L1305.83 149.359L1281.17 146.001L1370.78 132.736L1398.87 123.647L1403.3 117.423L1363.24 121.19L1409.85 108.17L1431.31 75.0068L1360.21 89.4187L1295.92 110.873L1279.29 113.493L1300.09 101.374H1295.92Z" fill="#AABDF9"/>
<path opacity="0.3" fill-rule="evenodd" clip-rule="evenodd" d="M1330.81 153.29H1245.3L1190.09 149.195L1230.72 157.22L1330.81 153.29Z" fill="url(#paint92_linear_2_25273)"/>
<path fill-rule="evenodd" clip-rule="evenodd" d="M1261.68 52.9795L1220.4 60.2673L1210.74 64.034L1174.53 107.597L1163.07 127.25L1177.65 108.17L1218.19 66.9L1230.72 62.3144L1261.68 52.9795Z" fill="#E09C6F"/>
<path fill-rule="evenodd" clip-rule="evenodd" d="M1142.02 163.361L1115.89 195.051L1090.33 218.716L1089.76 217.815L1091.56 213.803C1091.64 213.721 1121.13 179.329 1142.02 163.361Z" fill="#E09C6F"/>
<path fill-rule="evenodd" clip-rule="evenodd" d="M1101.23 255.155V269.976L1078.62 296.671L1014 333.929L1078.13 289.629L1101.23 255.155Z" fill="#E09C6F"/>
<path fill-rule="evenodd" clip-rule="evenodd" d="M813.574 420.563L864.11 393.705L1089.84 305.269L1028.58 325.576L856.984 392.231L813.574 420.563Z" fill="#E1E8FD"/>
<path fill-rule="evenodd" clip-rule="evenodd" d="M813.574 420.563L764.021 502.203L724.87 586.381L752.227 502.203L813.574 420.563Z" fill="#E09C6F"/>
<path fill-rule="evenodd" clip-rule="evenodd" d="M672.859 609.146L638.54 620.446L630.432 618.399L639.278 611.356L672.859 609.146Z" fill="#E09C6F"/>
<path fill-rule="evenodd" clip-rule="evenodd" d="M724.869 586.381L687.028 609.146H672.858L724.869 586.381Z" fill="#E1E8FD"/>
<path fill-rule="evenodd" clip-rule="evenodd" d="M586.612 678.421L279.137 724.522L312.882 721.575L605.287 678.585L586.612 678.421Z" fill="#E09C6F"/>
<path fill-rule="evenodd" clip-rule="evenodd" d="M398.065 714.123L381.192 722.393L200.18 736.068L222.54 736.559L145.794 753.591L132.197 753.428L58.8096 757.849L154.312 743.847L203.456 730.909L398.065 714.123Z" fill="#E1E8FD"/>
<path fill-rule="evenodd" clip-rule="evenodd" d="M405.435 734.84L565.398 755.884L769.262 770.132L782.531 766.12L579.404 730.909L405.435 734.84Z" fill="#C7D4FB"/>
<path fill-rule="evenodd" clip-rule="evenodd" d="M1066.25 749.661L1086.57 747.45L1096.4 755.147L1054.54 753.346L1066.25 749.661Z" fill="#AABDF9"/>
<path fill-rule="evenodd" clip-rule="evenodd" d="M1508.79 819.509L1478.65 827.616L1478 827.534L1461.53 826.06L1368.32 817.544L1300.83 829.335L1286.75 828.68L1114.58 820.656L1095.74 835.804L774.669 836.541L772.867 831.137V831.055L772.703 830.564L381.437 850.953L383.567 851.936L212.547 861.107L255.548 911.712L274.468 923.422H1508.79V819.509Z" fill="url(#paint93_linear_2_25273)"/>
</mask>
<g mask="url(#mask0_2_25273)">
<rect opacity="0.75" x="-143.023" y="19.8418" width="1588.97" height="1064" fill="black"/>
</g>
</g>
<defs>
<linearGradient id="paint0_linear_2_25273" x1="179.654" y1="815.999" x2="-0.029731" y2="815.999" gradientUnits="userSpaceOnUse">
<stop stop-color="#6A625E"/>
<stop offset="1" stop-color="#695C69"/>
</linearGradient>
<linearGradient id="paint1_linear_2_25273" x1="179.654" y1="815.999" x2="-0.029731" y2="815.999" gradientUnits="userSpaceOnUse">
<stop stop-color="#9D7C90"/>
<stop offset="1" stop-color="#775477"/>
</linearGradient>
<linearGradient id="paint2_linear_2_25273" x1="754.386" y1="948.166" x2="754.386" y2="583.412" gradientUnits="userSpaceOnUse">
<stop stop-color="#6A625E"/>
<stop offset="1" stop-color="#695C69"/>
</linearGradient>
<linearGradient id="paint3_linear_2_25273" x1="188.834" y1="941.757" x2="199.665" y2="835.481" gradientUnits="userSpaceOnUse">
<stop stop-color="#9D7C90"/>
<stop offset="1" stop-color="#775477"/>
</linearGradient>
<linearGradient id="paint4_linear_2_25273" x1="165.09" y1="939.337" x2="174.492" y2="847.088" gradientUnits="userSpaceOnUse">
<stop stop-color="#9D7C90"/>
<stop offset="1" stop-color="#775477"/>
</linearGradient>
<linearGradient id="paint5_linear_2_25273" x1="233.305" y1="936.027" x2="241.672" y2="853.935" gradientUnits="userSpaceOnUse">
<stop stop-color="#9D7C90"/>
<stop offset="1" stop-color="#775477"/>
</linearGradient>
<linearGradient id="paint6_linear_2_25273" x1="616.23" y1="905.971" x2="212.587" y2="905.971" gradientUnits="userSpaceOnUse">
<stop stop-color="#6A625E"/>
<stop offset="1" stop-color="#695C69"/>
</linearGradient>
<linearGradient id="paint7_linear_2_25273" x1="1044.43" y1="908.691" x2="198.697" y2="908.691" gradientUnits="userSpaceOnUse">
<stop stop-color="#9D7C90"/>
<stop offset="1" stop-color="#775477"/>
</linearGradient>
<linearGradient id="paint8_linear_2_25273" x1="1674.83" y1="769.38" x2="47.1354" y2="769.38" gradientUnits="userSpaceOnUse">
<stop stop-color="#9D7C90"/>
<stop offset="1" stop-color="#775477"/>
</linearGradient>
<linearGradient id="paint9_linear_2_25273" x1="1338.26" y1="941.737" x2="1313.78" y2="701.606" gradientUnits="userSpaceOnUse">
<stop stop-color="#382C44"/>
<stop offset="1" stop-color="#594C4C"/>
</linearGradient>
<linearGradient id="paint10_linear_2_25273" x1="740.587" y1="723.412" x2="734.606" y2="664.726" gradientUnits="userSpaceOnUse">
<stop stop-color="#9D7C90"/>
<stop offset="1" stop-color="#775477"/>
</linearGradient>
<linearGradient id="paint11_linear_2_25273" x1="1106.33" y1="821.458" x2="1093.3" y2="693.674" gradientUnits="userSpaceOnUse">
<stop stop-color="#9D7C90"/>
<stop offset="1" stop-color="#775477"/>
</linearGradient>
<linearGradient id="paint12_linear_2_25273" x1="925.398" y1="911.44" x2="923.291" y2="890.767" gradientUnits="userSpaceOnUse">
<stop stop-color="#9D7C90"/>
<stop offset="1" stop-color="#775477"/>
</linearGradient>
<linearGradient id="paint13_linear_2_25273" x1="1080.95" y1="739.158" x2="1078.3" y2="713.11" gradientUnits="userSpaceOnUse">
<stop stop-color="#9D7C90"/>
<stop offset="1" stop-color="#775477"/>
</linearGradient>
<linearGradient id="paint14_linear_2_25273" x1="1022.09" y1="725.839" x2="1020.73" y2="712.566" gradientUnits="userSpaceOnUse">
<stop stop-color="#9D7C90"/>
<stop offset="1" stop-color="#775477"/>
</linearGradient>
<linearGradient id="paint15_linear_2_25273" x1="1130.9" y1="810.223" x2="1906.41" y2="810.223" gradientUnits="userSpaceOnUse">
<stop stop-color="#9D7C90"/>
<stop offset="1" stop-color="#775477"/>
</linearGradient>
<linearGradient id="paint16_linear_2_25273" x1="1273.79" y1="912.707" x2="1273.79" y2="867.263" gradientUnits="userSpaceOnUse">
<stop stop-color="#9D7C90"/>
<stop offset="1" stop-color="#775477"/>
</linearGradient>
<linearGradient id="paint17_linear_2_25273" x1="1353.37" y1="912.707" x2="1353.37" y2="889.985" gradientUnits="userSpaceOnUse">
<stop stop-color="#9D7C90"/>
<stop offset="1" stop-color="#775477"/>
</linearGradient>
<linearGradient id="paint18_linear_2_25273" x1="748.166" y1="796.722" x2="748.166" y2="766.123" gradientUnits="userSpaceOnUse">
<stop stop-color="#9D7C90"/>
<stop offset="1" stop-color="#775477"/>
</linearGradient>
<linearGradient id="paint19_linear_2_25273" x1="591.261" y1="809.329" x2="591.261" y2="751.298" gradientUnits="userSpaceOnUse">
<stop stop-color="#9D7C90"/>
<stop offset="1" stop-color="#775477"/>
</linearGradient>
<linearGradient id="paint20_linear_2_25273" x1="502.928" y1="807.796" x2="502.928" y2="755.873" gradientUnits="userSpaceOnUse">
<stop stop-color="#9D7C90"/>
<stop offset="1" stop-color="#775477"/>
</linearGradient>
<linearGradient id="paint21_linear_2_25273" x1="303.486" y1="760.003" x2="303.486" y2="718.718" gradientUnits="userSpaceOnUse">
<stop stop-color="#9D7C90"/>
<stop offset="1" stop-color="#775477"/>
</linearGradient>
<linearGradient id="paint22_linear_2_25273" x1="157.161" y1="772.68" x2="157.161" y2="757.497" gradientUnits="userSpaceOnUse">
<stop stop-color="#9D7C90"/>
<stop offset="1" stop-color="#775477"/>
</linearGradient>
<linearGradient id="paint23_linear_2_25273" x1="998.534" y1="819.416" x2="998.534" y2="788.005" gradientUnits="userSpaceOnUse">
<stop stop-color="#9D7C90"/>
<stop offset="1" stop-color="#775477"/>
</linearGradient>
<linearGradient id="paint24_linear_2_25273" x1="302.974" y1="856.655" x2="301.492" y2="842.109" gradientUnits="userSpaceOnUse">
<stop stop-color="#9D7C90"/>
<stop offset="1" stop-color="#775477"/>
</linearGradient>
<linearGradient id="paint25_linear_2_25273" x1="799.177" y1="699.043" x2="835.904" y2="699.043" gradientUnits="userSpaceOnUse">
<stop stop-color="#9D7C90"/>
<stop offset="1" stop-color="#775477"/>
</linearGradient>
<linearGradient id="paint26_linear_2_25273" x1="363.578" y1="829.841" x2="446.173" y2="829.841" gradientUnits="userSpaceOnUse">
<stop stop-color="#9D7C90"/>
<stop offset="1" stop-color="#775477"/>
</linearGradient>
<linearGradient id="paint27_linear_2_25273" x1="1171.71" y1="746.394" x2="1190.94" y2="746.394" gradientUnits="userSpaceOnUse">
<stop stop-color="#9D7C90"/>
<stop offset="1" stop-color="#775477"/>
</linearGradient>
<linearGradient id="paint28_linear_2_25273" x1="754.57" y1="694.645" x2="871.615" y2="694.645" gradientUnits="userSpaceOnUse">
<stop stop-color="#9D7C90"/>
<stop offset="1" stop-color="#775477"/>
</linearGradient>
<linearGradient id="paint29_linear_2_25273" x1="1047.7" y1="678.405" x2="1047.7" y2="0.491453" gradientUnits="userSpaceOnUse">
<stop stop-color="#382C44"/>
<stop offset="1" stop-color="#594C4C"/>
</linearGradient>
<linearGradient id="paint30_linear_2_25273" x1="1142.04" y1="108.171" x2="1319.38" y2="108.171" gradientUnits="userSpaceOnUse">
<stop stop-color="#9D7C90"/>
<stop offset="1" stop-color="#775477"/>
</linearGradient>
<linearGradient id="paint31_linear_2_25273" x1="1119.44" y1="339.926" x2="2058.74" y2="339.926" gradientUnits="userSpaceOnUse">
<stop stop-color="#9D7C90"/>
<stop offset="1" stop-color="#775477"/>
</linearGradient>
<linearGradient id="paint32_linear_2_25273" x1="1118.98" y1="490.045" x2="2057.45" y2="490.045" gradientUnits="userSpaceOnUse">
<stop stop-color="#9D7C90"/>
<stop offset="1" stop-color="#775477"/>
</linearGradient>
<linearGradient id="paint33_linear_2_25273" x1="1315.18" y1="480.24" x2="1484.99" y2="480.24" gradientUnits="userSpaceOnUse">
<stop stop-color="#9D7C90"/>
<stop offset="1" stop-color="#775477"/>
</linearGradient>
<linearGradient id="paint34_linear_2_25273" x1="979.187" y1="524.39" x2="1144.69" y2="524.39" gradientUnits="userSpaceOnUse">
<stop stop-color="#9D7C90"/>
<stop offset="1" stop-color="#775477"/>
</linearGradient>
<linearGradient id="paint35_linear_2_25273" x1="1376.7" y1="132.687" x2="1800.34" y2="132.687" gradientUnits="userSpaceOnUse">
<stop stop-color="#9D7C90"/>
<stop offset="1" stop-color="#775477"/>
</linearGradient>
<linearGradient id="paint36_linear_2_25273" x1="1184.59" y1="356.372" x2="1225.6" y2="356.372" gradientUnits="userSpaceOnUse">
<stop stop-color="#9D7C90"/>
<stop offset="1" stop-color="#775477"/>
</linearGradient>
<linearGradient id="paint37_linear_2_25273" x1="1231.94" y1="131.709" x2="1231.94" y2="89.4471" gradientUnits="userSpaceOnUse">
<stop stop-color="#9D7C90"/>
<stop offset="1" stop-color="#775477"/>
</linearGradient>
<linearGradient id="paint38_linear_2_25273" x1="808.411" y1="579.906" x2="898.158" y2="579.906" gradientUnits="userSpaceOnUse">
<stop stop-color="#9D7C90"/>
<stop offset="1" stop-color="#775477"/>
</linearGradient>
<linearGradient id="paint39_linear_2_25273" x1="1133.48" y1="669.08" x2="1133.48" y2="320.409" gradientUnits="userSpaceOnUse">
<stop stop-color="#9D7C90"/>
<stop offset="1" stop-color="#775477"/>
</linearGradient>
<linearGradient id="paint40_linear_2_25273" x1="1075.49" y1="351.445" x2="1075.49" y2="291.401" gradientUnits="userSpaceOnUse">
<stop stop-color="#9D7C90"/>
<stop offset="1" stop-color="#775477"/>
</linearGradient>
<linearGradient id="paint41_linear_2_25273" x1="928.406" y1="403.743" x2="928.406" y2="363.09" gradientUnits="userSpaceOnUse">
<stop stop-color="#9D7C90"/>
<stop offset="1" stop-color="#775477"/>
</linearGradient>
<linearGradient id="paint42_linear_2_25273" x1="852.073" y1="423.851" x2="852.073" y2="406.803" gradientUnits="userSpaceOnUse">
<stop stop-color="#9D7C90"/>
<stop offset="1" stop-color="#775477"/>
</linearGradient>
<linearGradient id="paint43_linear_2_25273" x1="824.613" y1="671.978" x2="824.613" y2="595.06" gradientUnits="userSpaceOnUse">
<stop stop-color="#9D7C90"/>
<stop offset="1" stop-color="#775477"/>
</linearGradient>
<linearGradient id="paint44_linear_2_25273" x1="776.679" y1="648.574" x2="776.679" y2="625.504" gradientUnits="userSpaceOnUse">
<stop stop-color="#9D7C90"/>
<stop offset="1" stop-color="#775477"/>
</linearGradient>
<linearGradient id="paint45_linear_2_25273" x1="1260.42" y1="157.194" x2="1260.42" y2="149.188" gradientUnits="userSpaceOnUse">
<stop stop-color="#9D7C90"/>
<stop offset="1" stop-color="#775477"/>
</linearGradient>
<linearGradient id="paint46_linear_2_25273" x1="2355.19" y1="870.49" x2="212.588" y2="870.49" gradientUnits="userSpaceOnUse">
<stop stop-color="#776D90"/>
<stop offset="1" stop-color="#775477"/>
</linearGradient>
<linearGradient id="paint47_linear_2_25273" x1="179.654" y1="815.999" x2="-0.029731" y2="815.999" gradientUnits="userSpaceOnUse">
<stop stop-color="#6A625E"/>
<stop offset="1" stop-color="#695C69"/>
</linearGradient>
<linearGradient id="paint48_linear_2_25273" x1="179.654" y1="815.999" x2="-0.029731" y2="815.999" gradientUnits="userSpaceOnUse">
<stop stop-color="#9D7C90"/>
<stop offset="1" stop-color="#775477"/>
</linearGradient>
<linearGradient id="paint49_linear_2_25273" x1="754.386" y1="948.166" x2="754.386" y2="583.412" gradientUnits="userSpaceOnUse">
<stop stop-color="#6A625E"/>
<stop offset="1" stop-color="#695C69"/>
</linearGradient>
<linearGradient id="paint50_linear_2_25273" x1="188.834" y1="941.757" x2="199.665" y2="835.481" gradientUnits="userSpaceOnUse">
<stop stop-color="#9D7C90"/>
<stop offset="1" stop-color="#775477"/>
</linearGradient>
<linearGradient id="paint51_linear_2_25273" x1="165.09" y1="939.337" x2="174.492" y2="847.088" gradientUnits="userSpaceOnUse">
<stop stop-color="#9D7C90"/>
<stop offset="1" stop-color="#775477"/>
</linearGradient>
<linearGradient id="paint52_linear_2_25273" x1="233.305" y1="936.027" x2="241.672" y2="853.935" gradientUnits="userSpaceOnUse">
<stop stop-color="#9D7C90"/>
<stop offset="1" stop-color="#775477"/>
</linearGradient>
<linearGradient id="paint53_linear_2_25273" x1="616.23" y1="905.971" x2="212.587" y2="905.971" gradientUnits="userSpaceOnUse">
<stop stop-color="#6A625E"/>
<stop offset="1" stop-color="#695C69"/>
</linearGradient>
<linearGradient id="paint54_linear_2_25273" x1="1044.43" y1="908.691" x2="198.697" y2="908.691" gradientUnits="userSpaceOnUse">
<stop stop-color="#9D7C90"/>
<stop offset="1" stop-color="#775477"/>
</linearGradient>
<linearGradient id="paint55_linear_2_25273" x1="1674.83" y1="769.38" x2="47.1354" y2="769.38" gradientUnits="userSpaceOnUse">
<stop stop-color="#9D7C90"/>
<stop offset="1" stop-color="#775477"/>
</linearGradient>
<linearGradient id="paint56_linear_2_25273" x1="1338.26" y1="941.737" x2="1313.78" y2="701.606" gradientUnits="userSpaceOnUse">
<stop stop-color="#382C44"/>
<stop offset="1" stop-color="#594C4C"/>
</linearGradient>
<linearGradient id="paint57_linear_2_25273" x1="740.587" y1="723.412" x2="734.606" y2="664.726" gradientUnits="userSpaceOnUse">
<stop stop-color="#9D7C90"/>
<stop offset="1" stop-color="#775477"/>
</linearGradient>
<linearGradient id="paint58_linear_2_25273" x1="1106.33" y1="821.458" x2="1093.3" y2="693.674" gradientUnits="userSpaceOnUse">
<stop stop-color="#9D7C90"/>
<stop offset="1" stop-color="#775477"/>
</linearGradient>
<linearGradient id="paint59_linear_2_25273" x1="925.398" y1="911.44" x2="923.291" y2="890.767" gradientUnits="userSpaceOnUse">
<stop stop-color="#9D7C90"/>
<stop offset="1" stop-color="#775477"/>
</linearGradient>
<linearGradient id="paint60_linear_2_25273" x1="1080.95" y1="739.158" x2="1078.3" y2="713.11" gradientUnits="userSpaceOnUse">
<stop stop-color="#9D7C90"/>
<stop offset="1" stop-color="#775477"/>
</linearGradient>
<linearGradient id="paint61_linear_2_25273" x1="1022.09" y1="725.839" x2="1020.73" y2="712.566" gradientUnits="userSpaceOnUse">
<stop stop-color="#9D7C90"/>
<stop offset="1" stop-color="#775477"/>
</linearGradient>
<linearGradient id="paint62_linear_2_25273" x1="1130.9" y1="810.223" x2="1906.41" y2="810.223" gradientUnits="userSpaceOnUse">
<stop stop-color="#9D7C90"/>
<stop offset="1" stop-color="#775477"/>
</linearGradient>
<linearGradient id="paint63_linear_2_25273" x1="1273.79" y1="912.707" x2="1273.79" y2="867.263" gradientUnits="userSpaceOnUse">
<stop stop-color="#9D7C90"/>
<stop offset="1" stop-color="#775477"/>
</linearGradient>
<linearGradient id="paint64_linear_2_25273" x1="1353.37" y1="912.707" x2="1353.37" y2="889.985" gradientUnits="userSpaceOnUse">
<stop stop-color="#9D7C90"/>
<stop offset="1" stop-color="#775477"/>
</linearGradient>
<linearGradient id="paint65_linear_2_25273" x1="748.166" y1="796.722" x2="748.166" y2="766.123" gradientUnits="userSpaceOnUse">
<stop stop-color="#9D7C90"/>
<stop offset="1" stop-color="#775477"/>
</linearGradient>
<linearGradient id="paint66_linear_2_25273" x1="591.261" y1="809.329" x2="591.261" y2="751.298" gradientUnits="userSpaceOnUse">
<stop stop-color="#9D7C90"/>
<stop offset="1" stop-color="#775477"/>
</linearGradient>
<linearGradient id="paint67_linear_2_25273" x1="502.928" y1="807.796" x2="502.928" y2="755.873" gradientUnits="userSpaceOnUse">
<stop stop-color="#9D7C90"/>
<stop offset="1" stop-color="#775477"/>
</linearGradient>
<linearGradient id="paint68_linear_2_25273" x1="303.486" y1="760.003" x2="303.486" y2="718.718" gradientUnits="userSpaceOnUse">
<stop stop-color="#9D7C90"/>
<stop offset="1" stop-color="#775477"/>
</linearGradient>
<linearGradient id="paint69_linear_2_25273" x1="157.161" y1="772.68" x2="157.161" y2="757.497" gradientUnits="userSpaceOnUse">
<stop stop-color="#9D7C90"/>
<stop offset="1" stop-color="#775477"/>
</linearGradient>
<linearGradient id="paint70_linear_2_25273" x1="998.534" y1="819.416" x2="998.534" y2="788.005" gradientUnits="userSpaceOnUse">
<stop stop-color="#9D7C90"/>
<stop offset="1" stop-color="#775477"/>
</linearGradient>
<linearGradient id="paint71_linear_2_25273" x1="302.974" y1="856.655" x2="301.492" y2="842.109" gradientUnits="userSpaceOnUse">
<stop stop-color="#9D7C90"/>
<stop offset="1" stop-color="#775477"/>
</linearGradient>
<linearGradient id="paint72_linear_2_25273" x1="799.177" y1="699.043" x2="835.904" y2="699.043" gradientUnits="userSpaceOnUse">
<stop stop-color="#9D7C90"/>
<stop offset="1" stop-color="#775477"/>
</linearGradient>
<linearGradient id="paint73_linear_2_25273" x1="363.578" y1="829.841" x2="446.173" y2="829.841" gradientUnits="userSpaceOnUse">
<stop stop-color="#9D7C90"/>
<stop offset="1" stop-color="#775477"/>
</linearGradient>
<linearGradient id="paint74_linear_2_25273" x1="1171.71" y1="746.394" x2="1190.94" y2="746.394" gradientUnits="userSpaceOnUse">
<stop stop-color="#9D7C90"/>
<stop offset="1" stop-color="#775477"/>
</linearGradient>
<linearGradient id="paint75_linear_2_25273" x1="754.57" y1="694.645" x2="871.615" y2="694.645" gradientUnits="userSpaceOnUse">
<stop stop-color="#9D7C90"/>
<stop offset="1" stop-color="#775477"/>
</linearGradient>
<linearGradient id="paint76_linear_2_25273" x1="1047.7" y1="678.405" x2="1047.7" y2="0.491453" gradientUnits="userSpaceOnUse">
<stop stop-color="#382C44"/>
<stop offset="1" stop-color="#594C4C"/>
</linearGradient>
<linearGradient id="paint77_linear_2_25273" x1="1142.04" y1="108.171" x2="1319.38" y2="108.171" gradientUnits="userSpaceOnUse">
<stop stop-color="#9D7C90"/>
<stop offset="1" stop-color="#775477"/>
</linearGradient>
<linearGradient id="paint78_linear_2_25273" x1="1119.44" y1="339.926" x2="2058.74" y2="339.926" gradientUnits="userSpaceOnUse">
<stop stop-color="#9D7C90"/>
<stop offset="1" stop-color="#775477"/>
</linearGradient>
<linearGradient id="paint79_linear_2_25273" x1="1118.98" y1="490.045" x2="2057.45" y2="490.045" gradientUnits="userSpaceOnUse">
<stop stop-color="#9D7C90"/>
<stop offset="1" stop-color="#775477"/>
</linearGradient>
<linearGradient id="paint80_linear_2_25273" x1="1315.18" y1="480.24" x2="1484.99" y2="480.24" gradientUnits="userSpaceOnUse">
<stop stop-color="#9D7C90"/>
<stop offset="1" stop-color="#775477"/>
</linearGradient>
<linearGradient id="paint81_linear_2_25273" x1="979.187" y1="524.39" x2="1144.69" y2="524.39" gradientUnits="userSpaceOnUse">
<stop stop-color="#9D7C90"/>
<stop offset="1" stop-color="#775477"/>
</linearGradient>
<linearGradient id="paint82_linear_2_25273" x1="1376.7" y1="132.687" x2="1800.34" y2="132.687" gradientUnits="userSpaceOnUse">
<stop stop-color="#9D7C90"/>
<stop offset="1" stop-color="#775477"/>
</linearGradient>
<linearGradient id="paint83_linear_2_25273" x1="1184.59" y1="356.372" x2="1225.6" y2="356.372" gradientUnits="userSpaceOnUse">
<stop stop-color="#9D7C90"/>
<stop offset="1" stop-color="#775477"/>
</linearGradient>
<linearGradient id="paint84_linear_2_25273" x1="1231.94" y1="131.709" x2="1231.94" y2="89.4471" gradientUnits="userSpaceOnUse">
<stop stop-color="#9D7C90"/>
<stop offset="1" stop-color="#775477"/>
</linearGradient>
<linearGradient id="paint85_linear_2_25273" x1="808.411" y1="579.906" x2="898.158" y2="579.906" gradientUnits="userSpaceOnUse">
<stop stop-color="#9D7C90"/>
<stop offset="1" stop-color="#775477"/>
</linearGradient>
<linearGradient id="paint86_linear_2_25273" x1="1133.48" y1="669.08" x2="1133.48" y2="320.409" gradientUnits="userSpaceOnUse">
<stop stop-color="#9D7C90"/>
<stop offset="1" stop-color="#775477"/>
</linearGradient>
<linearGradient id="paint87_linear_2_25273" x1="1075.49" y1="351.445" x2="1075.49" y2="291.401" gradientUnits="userSpaceOnUse">
<stop stop-color="#9D7C90"/>
<stop offset="1" stop-color="#775477"/>
</linearGradient>
<linearGradient id="paint88_linear_2_25273" x1="928.406" y1="403.743" x2="928.406" y2="363.09" gradientUnits="userSpaceOnUse">
<stop stop-color="#9D7C90"/>
<stop offset="1" stop-color="#775477"/>
</linearGradient>
<linearGradient id="paint89_linear_2_25273" x1="852.073" y1="423.851" x2="852.073" y2="406.803" gradientUnits="userSpaceOnUse">
<stop stop-color="#9D7C90"/>
<stop offset="1" stop-color="#775477"/>
</linearGradient>
<linearGradient id="paint90_linear_2_25273" x1="824.613" y1="671.978" x2="824.613" y2="595.06" gradientUnits="userSpaceOnUse">
<stop stop-color="#9D7C90"/>
<stop offset="1" stop-color="#775477"/>
</linearGradient>
<linearGradient id="paint91_linear_2_25273" x1="776.679" y1="648.574" x2="776.679" y2="625.504" gradientUnits="userSpaceOnUse">
<stop stop-color="#9D7C90"/>
<stop offset="1" stop-color="#775477"/>
</linearGradient>
<linearGradient id="paint92_linear_2_25273" x1="1260.42" y1="157.194" x2="1260.42" y2="149.188" gradientUnits="userSpaceOnUse">
<stop stop-color="#9D7C90"/>
<stop offset="1" stop-color="#775477"/>
</linearGradient>
<linearGradient id="paint93_linear_2_25273" x1="2355.19" y1="870.49" x2="212.588" y2="870.49" gradientUnits="userSpaceOnUse">
<stop stop-color="#776D90"/>
<stop offset="1" stop-color="#775477"/>
</linearGradient>
</defs>
</svg>
