<svg width="1422" height="840" viewBox="0 0 1422 840" fill="none" xmlns="http://www.w3.org/2000/svg">
<path d="M389.16 819C389.16 819 656.834 507.284 710.094 452.903C763.354 398.522 787.815 381.915 814.627 369.388C842.592 355.577 868.666 338.756 892.296 319.279C912.261 302.576 932.279 254.578 1009.95 231.587C1087.62 208.597 1089.86 208.645 1129.85 189.83C1169.83 171.015 1196.43 162.711 1231.98 125.129C1267.52 87.5473 1271.91 85.4353 1311.89 52.0292C1351.88 18.623 1440.47 0 1458.24 0C1476.01 0 1467.12 47.9974 1551.48 60.5247C1635.84 73.052 1638.04 95.9948 1642.32 106.41C1646.61 116.826 1646.76 185.75 1664.53 185.75C1682.3 185.75 1750.15 225.588 1771.26 239.987C1792.38 254.386 1851.39 306.847 1884.47 315.199C1917.56 323.55 2073.15 638.845 2126.47 665.964C2179.78 693.082 2300 779.286 2300 779.286H8.34465e-05" fill="url(#paint0_linear_244_25)"/>
<path fill-rule="evenodd" clip-rule="evenodd" d="M1176.58 301.385L950.706 455.347L1043.49 409.586L1174.87 329.82L1075 417.199L1172.45 369.818L1110.13 500.374L1134.85 507.005L1183.54 567.217L1189.94 307.139L1365.57 184.766L1310.24 234.313L1335.12 222.499L1461.72 130.457L1435.4 169.201L1457.29 159.679L1373.83 362.967L1386.05 352.861L1333.43 458.318L1366.92 477.276L1434.76 532.368L1123.64 790.005L914.568 798.103L1159.53 589.739L844.32 801.656L817.401 803.073L975.583 689.158L819.578 767.055L837.549 469.814L1176.58 301.385Z" fill="#26272F"/>
<defs>
<linearGradient id="paint0_linear_244_25" x1="1153.79" y1="1590.36" x2="2104.34" y2="474.242" gradientUnits="userSpaceOnUse">
<stop stop-color="#292A32" stop-opacity="0"/>
<stop offset="1" stop-color="#1B1C23"/>
</linearGradient>
</defs>
</svg>
