<svg width="783" height="964" viewBox="0 0 783 964" fill="none" xmlns="http://www.w3.org/2000/svg">
<path fill-rule="evenodd" clip-rule="evenodd" d="M782.875 786.755L737.417 843.092L735.697 845.221L729.882 844.32L722.183 843.092L684.67 837.196L603.255 824.422L610.544 816.316L620.209 805.67L622.83 802.804L628.318 796.745L687.946 792.896L766.494 787.819L782.875 786.755Z" fill="url(#paint0_linear_2_24890)"/>
<path opacity="0.5" fill-rule="evenodd" clip-rule="evenodd" d="M782.875 786.755L737.417 843.092L735.697 845.221L729.882 844.32L722.183 843.092L684.67 837.196L603.255 824.422L610.544 816.316L620.209 805.67L622.83 802.804L628.318 796.745L687.946 792.896L766.494 787.819L782.875 786.755Z" fill="url(#paint1_linear_2_24890)"/>
<path fill-rule="evenodd" clip-rule="evenodd" d="M-725.917 589.329L-722.641 589.247L-573.244 584.171L-552.113 583.434L-549.328 583.761L-519.842 587.61L-492.485 591.131L-413.609 601.367L-345.791 610.128L-334.57 611.602L-328.755 612.339L-262.739 620.855L-190.989 630.108L-184.846 630.927L-179.686 631.582H-179.358L-108.673 640.753L-107.936 640.835L-82.0535 644.193L-71.3237 645.585L-50.8473 648.205H-50.6835L21.7216 657.54L23.6873 657.786L182.667 678.339L183.322 678.421L484.163 722.639L486.211 722.966H486.293L568.117 735.003L571.475 735.495L576.553 736.232L593.262 738.688H593.344L628.564 743.847L721.364 757.44L723.903 757.768H723.984L735.697 759.487L782.875 786.673L736.352 825.651L735.779 826.142V869.869L641.423 905.898L595.965 923.258L579.912 929.399L559.681 937.097L540.842 944.303L536.829 945.777L531.259 947.906L524.379 944.548L519.465 942.174L506.933 936.032L496.285 930.791L491.781 928.581L481.051 923.258H-725.754V589.329H-725.917ZM189.875 909.665L196.018 909.911L291.275 913.186L473.106 919.491L400.292 883.626L366.792 867.167L328.132 848.169L166.695 908.928L189.875 909.665Z" fill="url(#paint2_linear_2_24890)"/>
<path fill-rule="evenodd" clip-rule="evenodd" d="M771.817 789.703L724.066 772.671L603.255 748.515L712.435 805.753L771.817 789.703Z" fill="#B59AA0"/>
<path opacity="0.5" fill-rule="evenodd" clip-rule="evenodd" d="M685.489 847.596V867.33L641.424 906.062L595.884 923.422L579.83 929.563L559.599 937.342L540.761 944.548L536.748 946.022L531.178 948.151L524.298 944.794L519.384 942.338L506.852 936.196L496.204 930.955L491.699 928.744L492.682 923.422L493.255 920.228L501.364 876.993L504.968 857.668V843.42L637.656 846.45H637.902L685.489 847.596Z" fill="url(#paint3_linear_2_24890)"/>
<path opacity="0.5" fill-rule="evenodd" clip-rule="evenodd" d="M735.696 870.033L641.422 906.062L595.882 923.422L579.829 929.563L559.598 937.342L540.76 944.548L536.746 946.022L531.177 948.151L524.296 944.794L519.382 942.338L506.85 936.196L496.203 930.955L491.698 928.744L492.681 923.422L493.254 920.228L501.363 876.993L504.967 857.668L540.104 859.469L570.328 861.107L588.593 862.09L589.33 862.172L599.241 862.663L685.488 867.33L727.997 869.541L735.696 870.033Z" fill="url(#paint4_linear_2_24890)"/>
<path opacity="0.5" fill-rule="evenodd" clip-rule="evenodd" d="M599.241 862.663L576.717 876.502L573.195 900.412L559.926 934.968L491.698 928.745L492.681 923.422L493.255 920.228L504.967 857.668L599.241 862.663Z" fill="url(#paint5_linear_2_24890)"/>
<path fill-rule="evenodd" clip-rule="evenodd" d="M570.328 861.107L527.327 911.712L508.407 923.422L443.128 963.791L239.837 923.422L166.613 908.846H166.695L328.05 848.169L399.308 851.936L570.328 861.107Z" fill="url(#paint6_linear_2_24890)"/>
<path opacity="0.6" fill-rule="evenodd" clip-rule="evenodd" d="M166.614 908.846L584.171 923.422H421.833L152.853 914.087L49.4059 910.484L-255.94 899.921L-261.592 893.943L66.8519 905.407L166.614 908.846Z" fill="url(#paint7_linear_2_24890)"/>
<path opacity="0.6" fill-rule="evenodd" clip-rule="evenodd" d="M-725.918 669.249L-702.575 672.606L-548.018 694.47L-460.215 678.42L-246.522 668.758L-276.418 670.723L-461.034 682.678L-464.72 682.924L-472.419 683.415L-476.023 683.661L-551.131 700.284L-548.018 704.05L-521.972 709.455L-512.553 711.42L-510.341 711.911L-408.041 733.202H-388.793L-337.765 723.539L-300.007 716.415L-287.065 713.959L-249.061 713.303L-240.051 713.14L-233.335 713.058L-214.578 712.73L-169.039 711.911L-114.162 708.145L-53.0596 703.969H-52.9777L-29.1429 702.331L-16.2838 694.142L-28.8154 691.44L-29.0611 691.358L-88.3611 678.502L-88.6888 678.42H-88.7706L-92.7841 677.52L-88.1154 678.42L-26.6039 689.966L-22.9181 690.703L9.76245 696.845L21.0654 698.974L25.4884 699.792L38.7571 702.331L58.3327 703.559L286.605 718.544L293.813 719.035L560.909 736.559H560.991L593.262 738.688H593.343H570L457.871 738.852H431.825H431.169L391.445 738.934H390.544H346.069L273.828 739.016L203.47 730.909L137.536 723.294L72.1749 715.76L66.7691 715.105L48.6678 713.058L31.4676 711.011L-83.3649 710.601L-92.7841 711.502L-108.51 713.058L-227.929 724.522L-240.297 725.75L-255.613 727.224L-265.196 728.125L-337.765 735.085L-378.309 739.016H-396.164L-285.673 783.889L-255.941 786.509L-245.457 787.41L-238.495 787.983L-208.517 790.603L-188.614 792.323L-177.885 793.306L-174.035 793.633L-155.033 795.271L-138.488 796.745L-59.1207 807.799L-48.1453 809.355L-24.802 812.631L0.343262 816.07L14.5129 818.117L92.6514 829.008L99.4496 829.99L134.915 832.529L182.502 836.05L268.668 838.015L291.192 838.588H291.274H291.847L336.977 839.571L338.042 839.653L343.612 839.735L447.469 842.109L486.62 843.01L491.452 843.092L637.655 846.449H637.9L685.488 847.596L729.799 848.578L735.696 848.742V870.032L727.997 869.541L685.488 867.33L599.241 862.663L589.33 862.171L588.593 862.089L570.328 861.107L540.104 859.469L504.967 857.668V857.586L493.828 857.012L399.308 851.936L342.301 848.906L337.796 848.66L336.732 848.578L328.05 848.169L273.828 845.221L193.642 840.881H193.56L156.456 838.916L92.6514 835.477L86.5084 835.149L10.0081 831.055L-238.495 817.707L-271.421 815.988L-274.779 816.233L-331.704 820.655L-287.065 796.172L-404.437 758.668L-405.01 758.504L-510.341 724.849L-512.553 724.112L-580.863 702.331L-725.918 681.368V669.249Z" fill="url(#paint8_linear_2_24890)"/>
<path opacity="0.5" fill-rule="evenodd" clip-rule="evenodd" d="M182.503 678.421L-16.2831 684.235L-29.0604 691.359L38.7577 702.331L72.1755 715.761L82.8233 706.098L131.803 710.274L137.537 723.294L31.4682 711.011L-83.3642 710.602L-89.9986 706.508L-29.1423 702.331L-16.2831 694.143L-88.77 678.421H182.503Z" fill="url(#paint9_linear_2_24890)"/>
<path opacity="0.5" fill-rule="evenodd" clip-rule="evenodd" d="M-725.917 681.368V673.508L-687.913 671.952L-672.76 676.046L-566.037 691.359L-548.017 694.47L-460.214 678.421L-476.022 683.661L-551.13 700.284L-548.017 704.051L-408.04 733.202H-388.792V739.016H-396.163L-285.672 783.889L-271.42 815.988L-28.9782 826.633L-24.801 812.631L92.6523 829.008V835.477L-274.778 816.234L-331.703 820.656L-287.064 796.172L-580.862 702.331L-725.917 681.368Z" fill="url(#paint10_linear_2_24890)"/>
<path fill-rule="evenodd" clip-rule="evenodd" d="M401.438 850.953L399.308 851.936L269.896 912.449L166.695 908.846L-261.593 893.943L-331.704 820.656L-271.421 815.988L10.172 830.564L401.438 850.953Z" fill="#907F82"/>
<path fill-rule="evenodd" clip-rule="evenodd" d="M593.426 738.688L68.8171 704.869L8.2066 697.418L-88.7703 678.42H182.503L454.923 716.415L593.426 738.688Z" fill="#725C60"/>
<path fill-rule="evenodd" clip-rule="evenodd" d="M203.472 730.909L-155.032 795.271L-138.405 796.745L68.8179 783.889L-59.1195 807.8L-48.144 809.355L238.282 774.39L255.973 772.261L220.999 783.889L92.5707 807.8L467.373 762.844L377.44 734.84L203.472 730.909Z" fill="#AABDF9"/>
<path opacity="0.3" fill-rule="evenodd" clip-rule="evenodd" d="M-138.404 796.745L73.6505 779.222L207.895 766.12L68.8181 783.889L-138.404 796.745Z" fill="url(#paint11_linear_2_24890)"/>
<path opacity="0.3" fill-rule="evenodd" clip-rule="evenodd" d="M-48.1442 809.356L129.346 783.889L431.416 751.299L273.829 772.261H255.973L-48.1442 809.356Z" fill="url(#paint12_linear_2_24890)"/>
<path opacity="0.3" fill-rule="evenodd" clip-rule="evenodd" d="M92.5706 807.8L445.668 755.884L467.373 762.845L92.5706 807.8Z" fill="url(#paint13_linear_2_24890)"/>
<path fill-rule="evenodd" clip-rule="evenodd" d="M-172.888 821.065L-177.884 793.306L66.7695 715.105L48.6683 713.058L-189.597 792.733L-189.433 819.591L-240.46 817.298L-245.457 787.41L-92.7836 711.502L-108.51 713.058L-255.94 786.509L-249.306 816.889L-172.888 821.065Z" fill="#92959B"/>
<path fill-rule="evenodd" clip-rule="evenodd" d="M193.643 840.881L-130.214 895.663L-199.507 893.943L156.457 838.916L193.643 840.881Z" fill="#92959B"/>
<path fill-rule="evenodd" clip-rule="evenodd" d="M328.051 848.169L166.614 908.846L152.854 914.087L127.954 923.422L113.621 928.826L-0.065094 924.896L4.93115 923.422L49.4061 910.484L66.8521 905.407L273.829 845.221L328.051 848.169Z" fill="#B59AA0"/>
<path fill-rule="evenodd" clip-rule="evenodd" d="M735.696 848.742V870.033H727.915L727.997 869.541L733.157 850.953L729.799 848.579L722.182 843.092L709.241 833.757L653.544 816.234L620.209 805.671L603.254 800.348L591.623 796.745L549.032 783.316L528.228 782.333L507.178 775.537L467.372 762.845L467.29 762.763L445.667 755.884L431.333 751.299L399.881 741.227L391.445 738.934L390.708 738.688H431.415L431.169 738.852L421.832 745.567L529.702 781.433H550.67L622.83 802.805L668.042 816.152L708.667 828.189L729.881 844.321L735.696 848.742Z" fill="#271624"/>
<path fill-rule="evenodd" clip-rule="evenodd" d="M628.564 743.847L576.717 730.909L384.811 714.123L283.411 718.708L461.312 730.254L459.592 738.688H431.416L491.044 759.978L634.461 755.884L527.328 770.132L540.924 772.671L724.066 757.849L628.564 743.847Z" fill="#AABDF9"/>
<path opacity="0.3" fill-rule="evenodd" clip-rule="evenodd" d="M283.411 718.708L401.684 722.393L487.112 730.909L582.696 736.068L459.591 738.689L444.275 739.917L465.243 748.023L540.187 751.299L474.007 749.989L476.873 753.428L498.906 755.884L650.678 753.428L675.332 755.884H634.461L491.043 759.979L431.416 738.689L459.427 737.624L461.311 730.254L283.411 718.708Z" fill="url(#paint14_linear_2_24890)"/>
<path opacity="0.3" fill-rule="evenodd" clip-rule="evenodd" d="M527.328 770.132L548.624 769.15L721.445 757.522L724.066 757.85L540.924 772.671L527.328 770.132Z" fill="url(#paint15_linear_2_24890)"/>
<path opacity="0.5" fill-rule="evenodd" clip-rule="evenodd" d="M493.829 857.013L491.454 843.174L467.374 842.601V855.375L493.829 857.013Z" fill="url(#paint16_linear_2_24890)"/>
<path fill-rule="evenodd" clip-rule="evenodd" d="M576.717 844.402L546.166 838.916L499.807 841.618L457.789 838.916L291.192 838.588L576.717 844.402Z" fill="#866D6A"/>
<path fill-rule="evenodd" clip-rule="evenodd" d="M528.229 782.333L558.698 790.604L591.624 796.745L603.255 800.348L558.37 791.341L511.602 780.286L504.968 773.244L528.229 782.333Z" fill="#271624"/>
<path fill-rule="evenodd" clip-rule="evenodd" d="M709.242 833.757L672.466 838.916L610.872 845.221L733.158 850.953L709.242 833.757Z" fill="#866D6A"/>
<path fill-rule="evenodd" clip-rule="evenodd" d="M493.829 842.355L452.139 833.757L381.618 840.39L493.829 842.355Z" fill="#A59391"/>
<path fill-rule="evenodd" clip-rule="evenodd" d="M342.302 848.906L343.694 838.916L396.605 821.065L511.602 780.286L509.963 778.566L506.769 780.286L338.043 839.489L337.797 848.66L342.302 848.906Z" fill="#271624"/>
<path fill-rule="evenodd" clip-rule="evenodd" d="M511.602 780.286L558.698 790.604L603.255 800.348L709.242 833.757L733.158 850.953L343.695 838.916L511.602 780.286Z" fill="#AA9D9F"/>
<path fill-rule="evenodd" clip-rule="evenodd" d="M347.544 813.695L239.018 836.46L134.916 832.529L216.003 813.695L222.473 815.661L308.721 800.348L347.544 813.695Z" fill="#AA9D9F"/>
<path opacity="0.8" fill-rule="evenodd" clip-rule="evenodd" d="M419.294 810.993L400.456 815.988L350.165 824.422L336.978 839.571L336.733 848.66H337.797L338.043 839.489L419.294 810.993Z" fill="url(#paint17_linear_2_24890)"/>
<path fill-rule="evenodd" clip-rule="evenodd" d="M350.165 824.422L328.051 821.065L385.303 807.8L419.294 810.993L400.456 815.988L350.165 824.422Z" fill="#AA9D9F"/>
<path fill-rule="evenodd" clip-rule="evenodd" d="M355.243 823.521L342.056 823.194L343.694 831.874L355.243 823.521Z" fill="#8D7C7F"/>
<path opacity="0.8" fill-rule="evenodd" clip-rule="evenodd" d="M-10.1398 710.847L-16.2827 694.142L-88.7696 678.42H-6.69973L1.49088 683.334L-16.2827 684.234L-23.4085 691.194L25.4075 699.465L28.2742 710.847H-10.1398Z" fill="url(#paint18_linear_2_24890)"/>
<path fill-rule="evenodd" clip-rule="evenodd" d="M269.898 838.179L223.047 833.757L175.787 829.827L128.118 831.874L74.7972 821.065L0.344635 816.07L92.6528 829.008L182.504 836.05L269.898 838.179Z" fill="#8D7C7F"/>
<path fill-rule="evenodd" clip-rule="evenodd" d="M527.328 911.712V867.33L522.086 876.993H424.7L291.193 913.186L443.129 963.791L527.328 911.712Z" fill="#B59AA0"/>
<path fill-rule="evenodd" clip-rule="evenodd" d="M-725.918 58.2204C-724.116 52.5703 -722.396 46.8384 -720.758 41.1064L-715.27 0.491211H-661.621L-634.019 20.3894L-612.068 38.7317L-536.469 74.5975L-522.954 69.93L-478.725 53.0616C-478.725 53.0616 -430.4 62.1509 -428.271 64.6075C-426.223 66.9822 -391.577 107.679 -391.577 107.679L-359.06 163.443C-359.06 163.443 -306.886 214.376 -306.886 217.897C-306.886 221.418 -306.886 240.415 -306.886 240.415L-318.189 255.237L-295.092 289.792L-214.906 345.147L-93.4387 390.593C-93.4387 390.593 -32.9921 419.499 -30.5349 420.645C-28.0777 421.874 24.0965 498.109 25.4889 502.285C26.8813 506.543 65.7867 606.198 65.7867 606.198L143.679 611.438L152.525 618.399L196.427 678.421H-104.578L-102.285 669.086L-232.352 657.704L-331.458 636.741L-335.963 629.781L-725.754 611.602V58.2204H-725.918Z" fill="url(#paint19_linear_2_24890)"/>
<path opacity="0.5" d="M-725.918 284.798C-671.778 299.865 -601.584 305.433 -588.643 305.433C-572.508 305.433 -530.408 300.192 -530.408 300.192L-725.918 191.612V172.861L-687.012 187.354L-725.918 164.263V82.7048C-694.793 76.6453 -665.143 68.293 -667.682 65.3451C-670.549 61.9878 -699.79 32.1815 -717.154 14.4942C-716.58 10.1543 -716.007 5.73251 -715.434 1.39258L-661.294 1.47446L-658.263 64.0349C-658.263 64.0349 -598.799 166.637 -568.494 177.692C-538.271 188.746 -355.375 239.352 -355.375 239.352L-312.62 226.659L-306.968 217.734V240.252L-318.271 255.074L-295.173 289.629L-214.987 344.984L-361.681 291.349L-378.308 296.59V314.522C-378.308 314.522 -349.559 372.661 -343.498 379.621C-337.437 386.582 -284.526 399.683 -284.526 399.683C-284.526 399.683 -149.135 558.213 -145.122 562.881C-141.108 567.548 -115.144 603.987 -115.144 603.987L-104.086 666.384L-95.4864 657.049L-23.9005 660.816C-23.9005 660.816 116.241 650.908 122.793 648.615C129.346 646.322 144.499 620.364 144.499 620.364L152.525 618.317L196.427 678.339H-104.578L-102.285 669.004L-232.352 657.622L-331.458 636.66L-335.963 629.699L-312.538 573.772L-319.09 549.288L-358.651 448.733L-409.351 399.765L-442.604 351.371L-522.872 320.336C-522.872 320.336 -626.402 339.416 -642.292 336.222C-652.858 334.093 -697.414 314.686 -725.836 301.994V284.798H-725.918Z" fill="url(#paint20_linear_2_24890)"/>
<path fill-rule="evenodd" clip-rule="evenodd" d="M25.4064 502.203L-41.6747 490.657H-47.2443C-47.2443 490.657 -30.6993 436.04 -30.6993 420.481L25.4064 502.203Z" fill="#A26E71"/>
<path fill-rule="evenodd" clip-rule="evenodd" d="M27.8647 604.069V530.945L25.4075 502.203L65.7053 606.116L27.8647 604.069Z" fill="#A29396"/>
<path fill-rule="evenodd" clip-rule="evenodd" d="M-95.6506 657.13L-38.6439 645.748L25.4067 604.068H27.9458L65.7863 606.115L143.679 611.356L144.416 620.364C144.416 620.364 129.755 644.847 122.711 648.614C115.667 652.381 -23.9827 660.815 -23.9827 660.815L-95.6506 657.13Z" fill="#644E52"/>
<path fill-rule="evenodd" clip-rule="evenodd" d="M143.598 611.356L144.335 620.446L152.444 618.399L143.598 611.356Z" fill="#755559"/>
<path opacity="0.3" d="M-47.2444 490.739L-100.401 578.52L-115.308 604.069L-102.449 669.086L-95.6509 657.13L-38.6443 645.748L-28.324 639.034L-25.7849 632.483L-40.4462 539.461L-38.8899 539.052L-2.2779 622.083L12.3014 610.046L25.4064 502.203L-47.2444 490.739Z" fill="url(#paint21_linear_2_24890)"/>
<path fill-rule="evenodd" clip-rule="evenodd" d="M110.017 609.146L58.0063 586.381L39.0042 579.012L-10.9586 597.354V601.285L-78.2035 639.034L-80.9064 643.701L-105.642 652.709L-169.365 668.676L-102.448 671.952L-104.168 666.465L-88.8513 655.984L-38.6429 645.748L33.6803 606.116L68.8999 606.607L57.5149 611.356L32.5336 625.523L110.017 609.146Z" fill="#AABDF9"/>
<path opacity="0.3" fill-rule="evenodd" clip-rule="evenodd" d="M-10.9584 597.354L10.0915 601.53L58.1704 595.062L36.4653 599.729L30.8956 604.069H62.9209H85.8546L68.9001 606.607L33.6805 606.116L-38.6427 645.749L-88.851 655.984L-104.168 666.466L-102.447 671.952L-169.365 668.677L-116.535 663.845L-68.8659 646.076L-80.9062 643.701L-78.2032 639.034H-41.755L23.606 605.87L-10.9584 601.285V597.354Z" fill="url(#paint22_linear_2_24890)"/>
<path fill-rule="evenodd" clip-rule="evenodd" d="M30.6495 626.833L21.2303 625.522L-10.9588 640.262L-18.2485 648.614L21.2303 635.84L30.6495 626.833Z" fill="#AABDF9"/>
<path opacity="0.3" fill-rule="evenodd" clip-rule="evenodd" d="M21.2303 625.522L25.4075 628.143L23.278 632.483L-7.68257 642.145L-10.9588 640.262L-18.2485 648.614L21.2303 635.84L30.6495 626.833L21.2303 625.522Z" fill="url(#paint23_linear_2_24890)"/>
<path fill-rule="evenodd" clip-rule="evenodd" d="M-30.6995 420.563L18.8538 502.203L58.0049 586.381L30.6483 502.203L-30.6995 420.563Z" fill="#E09C6F"/>
<path fill-rule="evenodd" clip-rule="evenodd" d="M110.016 609.146L144.335 620.446L152.443 618.399L143.597 611.356L110.016 609.146Z" fill="#E09C6F"/>
<path fill-rule="evenodd" clip-rule="evenodd" d="M58.0062 586.381L95.8469 609.146H110.017L58.0062 586.381Z" fill="#E1E8FD"/>
<path fill-rule="evenodd" clip-rule="evenodd" d="M196.263 678.421L503.738 724.522L469.993 721.575L177.588 678.585L196.263 678.421Z" fill="#E09C6F"/>
<path fill-rule="evenodd" clip-rule="evenodd" d="M384.81 714.123L401.683 722.393L582.695 736.068L560.335 736.559L637.081 753.591L650.678 753.428L724.065 757.849L628.563 743.847L579.419 730.909L384.81 714.123Z" fill="#E1E8FD"/>
<path fill-rule="evenodd" clip-rule="evenodd" d="M377.44 734.84L217.477 755.884L13.6127 770.132L0.343964 766.12L203.471 730.909L377.44 734.84Z" fill="#C7D4FB"/>
<path fill-rule="evenodd" clip-rule="evenodd" d="M-725.918 819.509L-695.777 827.616L-695.121 827.534L-678.658 826.06L-585.449 817.544L-517.958 829.335L-503.871 828.68L-331.704 820.656L-312.866 835.804L8.20642 836.541L10.0084 831.137V831.055L10.1722 830.564L401.438 850.953L399.308 851.936L570.328 861.107L527.327 911.712L508.407 923.422H-725.918V819.509Z" fill="url(#paint24_linear_2_24890)"/>
<mask id="mask0_2_24890" style="mask-type:alpha" maskUnits="userSpaceOnUse" x="-726" y="0" width="1509" height="964">
<path fill-rule="evenodd" clip-rule="evenodd" d="M782.875 786.755L737.417 843.092L735.697 845.221L729.882 844.32L722.183 843.092L684.67 837.196L603.255 824.422L610.544 816.316L620.209 805.67L622.83 802.804L628.318 796.745L687.946 792.896L766.494 787.819L782.875 786.755Z" fill="url(#paint25_linear_2_24890)"/>
<path opacity="0.5" fill-rule="evenodd" clip-rule="evenodd" d="M782.875 786.755L737.417 843.092L735.697 845.221L729.882 844.32L722.183 843.092L684.67 837.196L603.255 824.422L610.544 816.316L620.209 805.67L622.83 802.804L628.318 796.745L687.946 792.896L766.494 787.819L782.875 786.755Z" fill="url(#paint26_linear_2_24890)"/>
<path fill-rule="evenodd" clip-rule="evenodd" d="M-725.917 589.329L-722.641 589.247L-573.244 584.171L-552.113 583.434L-549.328 583.761L-519.842 587.61L-492.485 591.131L-413.609 601.367L-345.791 610.128L-334.57 611.602L-328.755 612.339L-262.739 620.855L-190.989 630.108L-184.846 630.927L-179.686 631.582H-179.358L-108.673 640.753L-107.936 640.835L-82.0535 644.193L-71.3237 645.585L-50.8473 648.205H-50.6835L21.7216 657.54L23.6873 657.786L182.667 678.339L183.322 678.421L484.163 722.639L486.211 722.966H486.293L568.117 735.003L571.475 735.495L576.553 736.232L593.262 738.688H593.344L628.564 743.847L721.364 757.44L723.903 757.768H723.984L735.697 759.487L782.875 786.673L736.352 825.651L735.779 826.142V869.869L641.423 905.898L595.965 923.258L579.912 929.399L559.681 937.097L540.842 944.303L536.829 945.777L531.259 947.906L524.379 944.548L519.465 942.174L506.933 936.032L496.285 930.791L491.781 928.581L481.051 923.258H-725.754V589.329H-725.917ZM189.875 909.665L196.018 909.911L291.275 913.186L473.106 919.491L400.292 883.626L366.792 867.167L328.132 848.169L166.695 908.928L189.875 909.665Z" fill="url(#paint27_linear_2_24890)"/>
<path fill-rule="evenodd" clip-rule="evenodd" d="M771.817 789.703L724.066 772.671L603.255 748.515L712.435 805.753L771.817 789.703Z" fill="#B59AA0"/>
<path opacity="0.5" fill-rule="evenodd" clip-rule="evenodd" d="M685.489 847.596V867.33L641.424 906.062L595.884 923.422L579.83 929.563L559.599 937.342L540.761 944.548L536.748 946.022L531.178 948.151L524.298 944.794L519.384 942.338L506.852 936.196L496.204 930.955L491.699 928.744L492.682 923.422L493.255 920.228L501.364 876.993L504.968 857.668V843.42L637.656 846.45H637.902L685.489 847.596Z" fill="url(#paint28_linear_2_24890)"/>
<path opacity="0.5" fill-rule="evenodd" clip-rule="evenodd" d="M735.696 870.033L641.422 906.062L595.882 923.422L579.829 929.563L559.598 937.342L540.76 944.548L536.746 946.022L531.177 948.151L524.296 944.794L519.382 942.338L506.85 936.196L496.203 930.955L491.698 928.744L492.681 923.422L493.254 920.228L501.363 876.993L504.967 857.668L540.104 859.469L570.328 861.107L588.593 862.09L589.33 862.172L599.241 862.663L685.488 867.33L727.997 869.541L735.696 870.033Z" fill="url(#paint29_linear_2_24890)"/>
<path opacity="0.5" fill-rule="evenodd" clip-rule="evenodd" d="M599.241 862.663L576.717 876.502L573.195 900.412L559.926 934.968L491.698 928.745L492.681 923.422L493.255 920.228L504.967 857.668L599.241 862.663Z" fill="url(#paint30_linear_2_24890)"/>
<path fill-rule="evenodd" clip-rule="evenodd" d="M570.328 861.107L527.327 911.712L508.407 923.422L443.128 963.791L239.837 923.422L166.613 908.846H166.695L328.05 848.169L399.308 851.936L570.328 861.107Z" fill="url(#paint31_linear_2_24890)"/>
<path opacity="0.6" fill-rule="evenodd" clip-rule="evenodd" d="M166.614 908.846L584.171 923.422H421.833L152.853 914.087L49.4059 910.484L-255.94 899.921L-261.592 893.943L66.8519 905.407L166.614 908.846Z" fill="url(#paint32_linear_2_24890)"/>
<path opacity="0.6" fill-rule="evenodd" clip-rule="evenodd" d="M-725.918 669.249L-702.575 672.606L-548.018 694.47L-460.215 678.42L-246.522 668.758L-276.418 670.723L-461.034 682.678L-464.72 682.924L-472.419 683.415L-476.023 683.661L-551.131 700.284L-548.018 704.05L-521.972 709.455L-512.553 711.42L-510.341 711.911L-408.041 733.202H-388.793L-337.765 723.539L-300.007 716.415L-287.065 713.959L-249.061 713.303L-240.051 713.14L-233.335 713.058L-214.578 712.73L-169.039 711.911L-114.162 708.145L-53.0596 703.969H-52.9777L-29.1429 702.331L-16.2838 694.142L-28.8154 691.44L-29.0611 691.358L-88.3611 678.502L-88.6888 678.42H-88.7706L-92.7841 677.52L-88.1154 678.42L-26.6039 689.966L-22.9181 690.703L9.76245 696.845L21.0654 698.974L25.4884 699.792L38.7571 702.331L58.3327 703.559L286.605 718.544L293.813 719.035L560.909 736.559H560.991L593.262 738.688H593.343H570L457.871 738.852H431.825H431.169L391.445 738.934H390.544H346.069L273.828 739.016L203.47 730.909L137.536 723.294L72.1749 715.76L66.7691 715.105L48.6678 713.058L31.4676 711.011L-83.3649 710.601L-92.7841 711.502L-108.51 713.058L-227.929 724.522L-240.297 725.75L-255.613 727.224L-265.196 728.125L-337.765 735.085L-378.309 739.016H-396.164L-285.673 783.889L-255.941 786.509L-245.457 787.41L-238.495 787.983L-208.517 790.603L-188.614 792.323L-177.885 793.306L-174.035 793.633L-155.033 795.271L-138.488 796.745L-59.1207 807.799L-48.1453 809.355L-24.802 812.631L0.343262 816.07L14.5129 818.117L92.6514 829.008L99.4496 829.99L134.915 832.529L182.502 836.05L268.668 838.015L291.192 838.588H291.274H291.847L336.977 839.571L338.042 839.653L343.612 839.735L447.469 842.109L486.62 843.01L491.452 843.092L637.655 846.449H637.9L685.488 847.596L729.799 848.578L735.696 848.742V870.032L727.997 869.541L685.488 867.33L599.241 862.663L589.33 862.171L588.593 862.089L570.328 861.107L540.104 859.469L504.967 857.668V857.586L493.828 857.012L399.308 851.936L342.301 848.906L337.796 848.66L336.732 848.578L328.05 848.169L273.828 845.221L193.642 840.881H193.56L156.456 838.916L92.6514 835.477L86.5084 835.149L10.0081 831.055L-238.495 817.707L-271.421 815.988L-274.779 816.233L-331.704 820.655L-287.065 796.172L-404.437 758.668L-405.01 758.504L-510.341 724.849L-512.553 724.112L-580.863 702.331L-725.918 681.368V669.249Z" fill="url(#paint33_linear_2_24890)"/>
<path opacity="0.5" fill-rule="evenodd" clip-rule="evenodd" d="M182.503 678.421L-16.2831 684.235L-29.0604 691.359L38.7577 702.331L72.1755 715.761L82.8233 706.098L131.803 710.274L137.537 723.294L31.4682 711.011L-83.3642 710.602L-89.9986 706.508L-29.1423 702.331L-16.2831 694.143L-88.77 678.421H182.503Z" fill="url(#paint34_linear_2_24890)"/>
<path opacity="0.5" fill-rule="evenodd" clip-rule="evenodd" d="M-725.917 681.368V673.508L-687.913 671.952L-672.76 676.046L-566.037 691.359L-548.017 694.47L-460.214 678.421L-476.022 683.661L-551.13 700.284L-548.017 704.051L-408.04 733.202H-388.792V739.016H-396.163L-285.672 783.889L-271.42 815.988L-28.9782 826.633L-24.801 812.631L92.6523 829.008V835.477L-274.778 816.234L-331.703 820.656L-287.064 796.172L-580.862 702.331L-725.917 681.368Z" fill="url(#paint35_linear_2_24890)"/>
<path fill-rule="evenodd" clip-rule="evenodd" d="M401.438 850.953L399.308 851.936L269.896 912.449L166.695 908.846L-261.593 893.943L-331.704 820.656L-271.421 815.988L10.172 830.564L401.438 850.953Z" fill="#907F82"/>
<path fill-rule="evenodd" clip-rule="evenodd" d="M593.426 738.688L68.8171 704.869L8.2066 697.418L-88.7703 678.42H182.503L454.923 716.415L593.426 738.688Z" fill="#725C60"/>
<path fill-rule="evenodd" clip-rule="evenodd" d="M203.472 730.909L-155.032 795.271L-138.405 796.745L68.8179 783.889L-59.1195 807.8L-48.144 809.355L238.282 774.39L255.973 772.261L220.999 783.889L92.5707 807.8L467.373 762.844L377.44 734.84L203.472 730.909Z" fill="#AABDF9"/>
<path opacity="0.3" fill-rule="evenodd" clip-rule="evenodd" d="M-138.404 796.745L73.6505 779.222L207.895 766.12L68.8181 783.889L-138.404 796.745Z" fill="url(#paint36_linear_2_24890)"/>
<path opacity="0.3" fill-rule="evenodd" clip-rule="evenodd" d="M-48.1442 809.356L129.346 783.889L431.416 751.299L273.829 772.261H255.973L-48.1442 809.356Z" fill="url(#paint37_linear_2_24890)"/>
<path opacity="0.3" fill-rule="evenodd" clip-rule="evenodd" d="M92.5706 807.8L445.668 755.884L467.373 762.845L92.5706 807.8Z" fill="url(#paint38_linear_2_24890)"/>
<path fill-rule="evenodd" clip-rule="evenodd" d="M-172.888 821.065L-177.884 793.306L66.7695 715.105L48.6683 713.058L-189.597 792.733L-189.433 819.591L-240.46 817.298L-245.457 787.41L-92.7836 711.502L-108.51 713.058L-255.94 786.509L-249.306 816.889L-172.888 821.065Z" fill="#92959B"/>
<path fill-rule="evenodd" clip-rule="evenodd" d="M193.643 840.881L-130.214 895.663L-199.507 893.943L156.457 838.916L193.643 840.881Z" fill="#92959B"/>
<path fill-rule="evenodd" clip-rule="evenodd" d="M328.051 848.169L166.614 908.846L152.854 914.087L127.954 923.422L113.621 928.826L-0.065094 924.896L4.93115 923.422L49.4061 910.484L66.8521 905.407L273.829 845.221L328.051 848.169Z" fill="#B59AA0"/>
<path fill-rule="evenodd" clip-rule="evenodd" d="M735.696 848.742V870.033H727.915L727.997 869.541L733.157 850.953L729.799 848.579L722.182 843.092L709.241 833.757L653.544 816.234L620.209 805.671L603.254 800.348L591.623 796.745L549.032 783.316L528.228 782.333L507.178 775.537L467.372 762.845L467.29 762.763L445.667 755.884L431.333 751.299L399.881 741.227L391.445 738.934L390.708 738.688H431.415L431.169 738.852L421.832 745.567L529.702 781.433H550.67L622.83 802.805L668.042 816.152L708.667 828.189L729.881 844.321L735.696 848.742Z" fill="#271624"/>
<path fill-rule="evenodd" clip-rule="evenodd" d="M628.564 743.847L576.717 730.909L384.811 714.123L283.411 718.708L461.312 730.254L459.592 738.688H431.416L491.044 759.978L634.461 755.884L527.328 770.132L540.924 772.671L724.066 757.849L628.564 743.847Z" fill="#AABDF9"/>
<path opacity="0.3" fill-rule="evenodd" clip-rule="evenodd" d="M283.411 718.708L401.684 722.393L487.112 730.909L582.696 736.068L459.591 738.689L444.275 739.917L465.243 748.023L540.187 751.299L474.007 749.989L476.873 753.428L498.906 755.884L650.678 753.428L675.332 755.884H634.461L491.043 759.979L431.416 738.689L459.427 737.624L461.311 730.254L283.411 718.708Z" fill="url(#paint39_linear_2_24890)"/>
<path opacity="0.3" fill-rule="evenodd" clip-rule="evenodd" d="M527.328 770.132L548.624 769.15L721.445 757.522L724.066 757.85L540.924 772.671L527.328 770.132Z" fill="url(#paint40_linear_2_24890)"/>
<path opacity="0.5" fill-rule="evenodd" clip-rule="evenodd" d="M493.829 857.013L491.454 843.174L467.374 842.601V855.375L493.829 857.013Z" fill="url(#paint41_linear_2_24890)"/>
<path fill-rule="evenodd" clip-rule="evenodd" d="M576.717 844.402L546.166 838.916L499.807 841.618L457.789 838.916L291.192 838.588L576.717 844.402Z" fill="#866D6A"/>
<path fill-rule="evenodd" clip-rule="evenodd" d="M528.229 782.333L558.698 790.604L591.624 796.745L603.255 800.348L558.37 791.341L511.602 780.286L504.968 773.244L528.229 782.333Z" fill="#271624"/>
<path fill-rule="evenodd" clip-rule="evenodd" d="M709.242 833.757L672.466 838.916L610.872 845.221L733.158 850.953L709.242 833.757Z" fill="#866D6A"/>
<path fill-rule="evenodd" clip-rule="evenodd" d="M493.829 842.355L452.139 833.757L381.618 840.39L493.829 842.355Z" fill="#A59391"/>
<path fill-rule="evenodd" clip-rule="evenodd" d="M342.302 848.906L343.694 838.916L396.605 821.065L511.602 780.286L509.963 778.566L506.769 780.286L338.043 839.489L337.797 848.66L342.302 848.906Z" fill="#271624"/>
<path fill-rule="evenodd" clip-rule="evenodd" d="M511.602 780.286L558.698 790.604L603.255 800.348L709.242 833.757L733.158 850.953L343.695 838.916L511.602 780.286Z" fill="#AA9D9F"/>
<path fill-rule="evenodd" clip-rule="evenodd" d="M347.544 813.695L239.018 836.46L134.916 832.529L216.003 813.695L222.473 815.661L308.721 800.348L347.544 813.695Z" fill="#AA9D9F"/>
<path opacity="0.8" fill-rule="evenodd" clip-rule="evenodd" d="M419.294 810.993L400.456 815.988L350.165 824.422L336.978 839.571L336.733 848.66H337.797L338.043 839.489L419.294 810.993Z" fill="url(#paint42_linear_2_24890)"/>
<path fill-rule="evenodd" clip-rule="evenodd" d="M350.165 824.422L328.051 821.065L385.303 807.8L419.294 810.993L400.456 815.988L350.165 824.422Z" fill="#AA9D9F"/>
<path fill-rule="evenodd" clip-rule="evenodd" d="M355.243 823.521L342.056 823.194L343.694 831.874L355.243 823.521Z" fill="#8D7C7F"/>
<path opacity="0.8" fill-rule="evenodd" clip-rule="evenodd" d="M-10.1398 710.847L-16.2827 694.142L-88.7696 678.42H-6.69973L1.49088 683.334L-16.2827 684.234L-23.4085 691.194L25.4075 699.465L28.2742 710.847H-10.1398Z" fill="url(#paint43_linear_2_24890)"/>
<path fill-rule="evenodd" clip-rule="evenodd" d="M269.898 838.179L223.047 833.757L175.787 829.827L128.118 831.874L74.7972 821.065L0.344635 816.07L92.6528 829.008L182.504 836.05L269.898 838.179Z" fill="#8D7C7F"/>
<path fill-rule="evenodd" clip-rule="evenodd" d="M527.328 911.712V867.33L522.086 876.993H424.7L291.193 913.186L443.129 963.791L527.328 911.712Z" fill="#B59AA0"/>
<path fill-rule="evenodd" clip-rule="evenodd" d="M-725.918 58.2204C-724.116 52.5703 -722.396 46.8384 -720.758 41.1064L-715.27 0.491211H-661.621L-634.019 20.3894L-612.068 38.7317L-536.469 74.5975L-522.954 69.93L-478.725 53.0616C-478.725 53.0616 -430.4 62.1509 -428.271 64.6075C-426.223 66.9822 -391.577 107.679 -391.577 107.679L-359.06 163.443C-359.06 163.443 -306.886 214.376 -306.886 217.897C-306.886 221.418 -306.886 240.415 -306.886 240.415L-318.189 255.237L-295.092 289.792L-214.906 345.147L-93.4387 390.593C-93.4387 390.593 -32.9921 419.499 -30.5349 420.645C-28.0777 421.874 24.0965 498.109 25.4889 502.285C26.8813 506.543 65.7867 606.198 65.7867 606.198L143.679 611.438L152.525 618.399L196.427 678.421H-104.578L-102.285 669.086L-232.352 657.704L-331.458 636.741L-335.963 629.781L-725.754 611.602V58.2204H-725.918Z" fill="url(#paint44_linear_2_24890)"/>
<path opacity="0.5" d="M-725.918 284.798C-671.778 299.865 -601.584 305.433 -588.643 305.433C-572.508 305.433 -530.408 300.192 -530.408 300.192L-725.918 191.612V172.861L-687.012 187.354L-725.918 164.263V82.7048C-694.793 76.6453 -665.143 68.293 -667.682 65.3451C-670.549 61.9878 -699.79 32.1815 -717.154 14.4942C-716.58 10.1543 -716.007 5.73251 -715.434 1.39258L-661.294 1.47446L-658.263 64.0349C-658.263 64.0349 -598.799 166.637 -568.494 177.692C-538.271 188.746 -355.375 239.352 -355.375 239.352L-312.62 226.659L-306.968 217.734V240.252L-318.271 255.074L-295.173 289.629L-214.987 344.984L-361.681 291.349L-378.308 296.59V314.522C-378.308 314.522 -349.559 372.661 -343.498 379.621C-337.437 386.582 -284.526 399.683 -284.526 399.683C-284.526 399.683 -149.135 558.213 -145.122 562.881C-141.108 567.548 -115.144 603.987 -115.144 603.987L-104.086 666.384L-95.4864 657.049L-23.9005 660.816C-23.9005 660.816 116.241 650.908 122.793 648.615C129.346 646.322 144.499 620.364 144.499 620.364L152.525 618.317L196.427 678.339H-104.578L-102.285 669.004L-232.352 657.622L-331.458 636.66L-335.963 629.699L-312.538 573.772L-319.09 549.288L-358.651 448.733L-409.351 399.765L-442.604 351.371L-522.872 320.336C-522.872 320.336 -626.402 339.416 -642.292 336.222C-652.858 334.093 -697.414 314.686 -725.836 301.994V284.798H-725.918Z" fill="url(#paint45_linear_2_24890)"/>
<path fill-rule="evenodd" clip-rule="evenodd" d="M25.4064 502.203L-41.6747 490.657H-47.2443C-47.2443 490.657 -30.6993 436.04 -30.6993 420.481L25.4064 502.203Z" fill="#A26E71"/>
<path fill-rule="evenodd" clip-rule="evenodd" d="M27.8647 604.069V530.945L25.4075 502.203L65.7053 606.116L27.8647 604.069Z" fill="#A29396"/>
<path fill-rule="evenodd" clip-rule="evenodd" d="M-95.6506 657.13L-38.6439 645.748L25.4067 604.068H27.9458L65.7863 606.115L143.679 611.356L144.416 620.364C144.416 620.364 129.755 644.847 122.711 648.614C115.667 652.381 -23.9827 660.815 -23.9827 660.815L-95.6506 657.13Z" fill="#644E52"/>
<path fill-rule="evenodd" clip-rule="evenodd" d="M143.598 611.356L144.335 620.446L152.444 618.399L143.598 611.356Z" fill="#755559"/>
<path opacity="0.3" d="M-47.2444 490.739L-100.401 578.52L-115.308 604.069L-102.449 669.086L-95.6509 657.13L-38.6443 645.748L-28.324 639.034L-25.7849 632.483L-40.4462 539.461L-38.8899 539.052L-2.2779 622.083L12.3014 610.046L25.4064 502.203L-47.2444 490.739Z" fill="url(#paint46_linear_2_24890)"/>
<path fill-rule="evenodd" clip-rule="evenodd" d="M110.017 609.146L58.0063 586.381L39.0042 579.012L-10.9586 597.354V601.285L-78.2035 639.034L-80.9064 643.701L-105.642 652.709L-169.365 668.676L-102.448 671.952L-104.168 666.465L-88.8513 655.984L-38.6429 645.748L33.6803 606.116L68.8999 606.607L57.5149 611.356L32.5336 625.523L110.017 609.146Z" fill="#AABDF9"/>
<path opacity="0.3" fill-rule="evenodd" clip-rule="evenodd" d="M-10.9584 597.354L10.0915 601.53L58.1704 595.062L36.4653 599.729L30.8956 604.069H62.9209H85.8546L68.9001 606.607L33.6805 606.116L-38.6427 645.749L-88.851 655.984L-104.168 666.466L-102.447 671.952L-169.365 668.677L-116.535 663.845L-68.8659 646.076L-80.9062 643.701L-78.2032 639.034H-41.755L23.606 605.87L-10.9584 601.285V597.354Z" fill="url(#paint47_linear_2_24890)"/>
<path fill-rule="evenodd" clip-rule="evenodd" d="M30.6495 626.833L21.2303 625.522L-10.9588 640.262L-18.2485 648.614L21.2303 635.84L30.6495 626.833Z" fill="#AABDF9"/>
<path opacity="0.3" fill-rule="evenodd" clip-rule="evenodd" d="M21.2303 625.522L25.4075 628.143L23.278 632.483L-7.68257 642.145L-10.9588 640.262L-18.2485 648.614L21.2303 635.84L30.6495 626.833L21.2303 625.522Z" fill="url(#paint48_linear_2_24890)"/>
<path fill-rule="evenodd" clip-rule="evenodd" d="M-30.6995 420.563L18.8538 502.203L58.0049 586.381L30.6483 502.203L-30.6995 420.563Z" fill="#E09C6F"/>
<path fill-rule="evenodd" clip-rule="evenodd" d="M110.016 609.146L144.335 620.446L152.443 618.399L143.597 611.356L110.016 609.146Z" fill="#E09C6F"/>
<path fill-rule="evenodd" clip-rule="evenodd" d="M58.0062 586.381L95.8469 609.146H110.017L58.0062 586.381Z" fill="#E1E8FD"/>
<path fill-rule="evenodd" clip-rule="evenodd" d="M196.263 678.421L503.738 724.522L469.993 721.575L177.588 678.585L196.263 678.421Z" fill="#E09C6F"/>
<path fill-rule="evenodd" clip-rule="evenodd" d="M384.81 714.123L401.683 722.393L582.695 736.068L560.335 736.559L637.081 753.591L650.678 753.428L724.065 757.849L628.563 743.847L579.419 730.909L384.81 714.123Z" fill="#E1E8FD"/>
<path fill-rule="evenodd" clip-rule="evenodd" d="M377.44 734.84L217.477 755.884L13.6127 770.132L0.343964 766.12L203.471 730.909L377.44 734.84Z" fill="#C7D4FB"/>
<path fill-rule="evenodd" clip-rule="evenodd" d="M-725.918 819.509L-695.777 827.616L-695.121 827.534L-678.658 826.06L-585.449 817.544L-517.958 829.335L-503.871 828.68L-331.704 820.656L-312.866 835.804L8.20642 836.541L10.0084 831.137V831.055L10.1722 830.564L401.438 850.953L399.308 851.936L570.328 861.107L527.327 911.712L508.407 923.422H-725.918V819.509Z" fill="url(#paint49_linear_2_24890)"/>
</mask>
<g mask="url(#mask0_2_24890)">
<rect opacity="0.75" width="1588.97" height="1064" transform="matrix(-1 0 0 1 925.898 19.8418)" fill="black"/>
</g>
<defs>
<linearGradient id="paint0_linear_2_24890" x1="603.221" y1="815.999" x2="782.905" y2="815.999" gradientUnits="userSpaceOnUse">
<stop stop-color="#6A625E"/>
<stop offset="1" stop-color="#695C69"/>
</linearGradient>
<linearGradient id="paint1_linear_2_24890" x1="603.221" y1="815.999" x2="782.905" y2="815.999" gradientUnits="userSpaceOnUse">
<stop stop-color="#9D7C90"/>
<stop offset="1" stop-color="#775477"/>
</linearGradient>
<linearGradient id="paint2_linear_2_24890" x1="28.4891" y1="948.166" x2="28.4891" y2="583.412" gradientUnits="userSpaceOnUse">
<stop stop-color="#6A625E"/>
<stop offset="1" stop-color="#695C69"/>
</linearGradient>
<linearGradient id="paint3_linear_2_24890" x1="594.041" y1="941.757" x2="583.21" y2="835.481" gradientUnits="userSpaceOnUse">
<stop stop-color="#9D7C90"/>
<stop offset="1" stop-color="#775477"/>
</linearGradient>
<linearGradient id="paint4_linear_2_24890" x1="617.785" y1="939.337" x2="608.383" y2="847.088" gradientUnits="userSpaceOnUse">
<stop stop-color="#9D7C90"/>
<stop offset="1" stop-color="#775477"/>
</linearGradient>
<linearGradient id="paint5_linear_2_24890" x1="549.57" y1="936.027" x2="541.203" y2="853.935" gradientUnits="userSpaceOnUse">
<stop stop-color="#9D7C90"/>
<stop offset="1" stop-color="#775477"/>
</linearGradient>
<linearGradient id="paint6_linear_2_24890" x1="166.645" y1="905.971" x2="570.288" y2="905.971" gradientUnits="userSpaceOnUse">
<stop stop-color="#6A625E"/>
<stop offset="1" stop-color="#695C69"/>
</linearGradient>
<linearGradient id="paint7_linear_2_24890" x1="-261.557" y1="908.691" x2="584.178" y2="908.691" gradientUnits="userSpaceOnUse">
<stop stop-color="#9D7C90"/>
<stop offset="1" stop-color="#775477"/>
</linearGradient>
<linearGradient id="paint8_linear_2_24890" x1="-891.955" y1="769.38" x2="735.74" y2="769.38" gradientUnits="userSpaceOnUse">
<stop stop-color="#9D7C90"/>
<stop offset="1" stop-color="#775477"/>
</linearGradient>
<linearGradient id="paint9_linear_2_24890" x1="42.288" y1="723.412" x2="48.269" y2="664.726" gradientUnits="userSpaceOnUse">
<stop stop-color="#9D7C90"/>
<stop offset="1" stop-color="#775477"/>
</linearGradient>
<linearGradient id="paint10_linear_2_24890" x1="-323.451" y1="821.458" x2="-310.428" y2="693.674" gradientUnits="userSpaceOnUse">
<stop stop-color="#9D7C90"/>
<stop offset="1" stop-color="#775477"/>
</linearGradient>
<linearGradient id="paint11_linear_2_24890" x1="34.7088" y1="796.722" x2="34.7088" y2="766.123" gradientUnits="userSpaceOnUse">
<stop stop-color="#9D7C90"/>
<stop offset="1" stop-color="#775477"/>
</linearGradient>
<linearGradient id="paint12_linear_2_24890" x1="191.614" y1="809.329" x2="191.614" y2="751.298" gradientUnits="userSpaceOnUse">
<stop stop-color="#9D7C90"/>
<stop offset="1" stop-color="#775477"/>
</linearGradient>
<linearGradient id="paint13_linear_2_24890" x1="279.947" y1="807.796" x2="279.947" y2="755.873" gradientUnits="userSpaceOnUse">
<stop stop-color="#9D7C90"/>
<stop offset="1" stop-color="#775477"/>
</linearGradient>
<linearGradient id="paint14_linear_2_24890" x1="479.389" y1="760.003" x2="479.389" y2="718.718" gradientUnits="userSpaceOnUse">
<stop stop-color="#9D7C90"/>
<stop offset="1" stop-color="#775477"/>
</linearGradient>
<linearGradient id="paint15_linear_2_24890" x1="625.714" y1="772.68" x2="625.714" y2="757.497" gradientUnits="userSpaceOnUse">
<stop stop-color="#9D7C90"/>
<stop offset="1" stop-color="#775477"/>
</linearGradient>
<linearGradient id="paint16_linear_2_24890" x1="479.901" y1="856.655" x2="481.383" y2="842.109" gradientUnits="userSpaceOnUse">
<stop stop-color="#9D7C90"/>
<stop offset="1" stop-color="#775477"/>
</linearGradient>
<linearGradient id="paint17_linear_2_24890" x1="419.297" y1="829.841" x2="336.702" y2="829.841" gradientUnits="userSpaceOnUse">
<stop stop-color="#9D7C90"/>
<stop offset="1" stop-color="#775477"/>
</linearGradient>
<linearGradient id="paint18_linear_2_24890" x1="28.3045" y1="694.645" x2="-88.7404" y2="694.645" gradientUnits="userSpaceOnUse">
<stop stop-color="#9D7C90"/>
<stop offset="1" stop-color="#775477"/>
</linearGradient>
<linearGradient id="paint19_linear_2_24890" x1="-264.821" y1="678.405" x2="-264.821" y2="0.491453" gradientUnits="userSpaceOnUse">
<stop stop-color="#382C44"/>
<stop offset="1" stop-color="#594C4C"/>
</linearGradient>
<linearGradient id="paint20_linear_2_24890" x1="-336.566" y1="339.926" x2="-1275.87" y2="339.926" gradientUnits="userSpaceOnUse">
<stop stop-color="#9D7C90"/>
<stop offset="1" stop-color="#775477"/>
</linearGradient>
<linearGradient id="paint21_linear_2_24890" x1="-25.5358" y1="579.906" x2="-115.283" y2="579.906" gradientUnits="userSpaceOnUse">
<stop stop-color="#9D7C90"/>
<stop offset="1" stop-color="#775477"/>
</linearGradient>
<linearGradient id="paint22_linear_2_24890" x1="-41.7375" y1="671.978" x2="-41.7375" y2="595.06" gradientUnits="userSpaceOnUse">
<stop stop-color="#9D7C90"/>
<stop offset="1" stop-color="#775477"/>
</linearGradient>
<linearGradient id="paint23_linear_2_24890" x1="6.19643" y1="648.574" x2="6.19643" y2="625.504" gradientUnits="userSpaceOnUse">
<stop stop-color="#9D7C90"/>
<stop offset="1" stop-color="#775477"/>
</linearGradient>
<linearGradient id="paint24_linear_2_24890" x1="-1572.32" y1="870.49" x2="570.287" y2="870.49" gradientUnits="userSpaceOnUse">
<stop stop-color="#776D90"/>
<stop offset="1" stop-color="#775477"/>
</linearGradient>
<linearGradient id="paint25_linear_2_24890" x1="603.221" y1="815.999" x2="782.905" y2="815.999" gradientUnits="userSpaceOnUse">
<stop stop-color="#6A625E"/>
<stop offset="1" stop-color="#695C69"/>
</linearGradient>
<linearGradient id="paint26_linear_2_24890" x1="603.221" y1="815.999" x2="782.905" y2="815.999" gradientUnits="userSpaceOnUse">
<stop stop-color="#9D7C90"/>
<stop offset="1" stop-color="#775477"/>
</linearGradient>
<linearGradient id="paint27_linear_2_24890" x1="28.4891" y1="948.166" x2="28.4891" y2="583.412" gradientUnits="userSpaceOnUse">
<stop stop-color="#6A625E"/>
<stop offset="1" stop-color="#695C69"/>
</linearGradient>
<linearGradient id="paint28_linear_2_24890" x1="594.041" y1="941.757" x2="583.21" y2="835.481" gradientUnits="userSpaceOnUse">
<stop stop-color="#9D7C90"/>
<stop offset="1" stop-color="#775477"/>
</linearGradient>
<linearGradient id="paint29_linear_2_24890" x1="617.785" y1="939.337" x2="608.383" y2="847.088" gradientUnits="userSpaceOnUse">
<stop stop-color="#9D7C90"/>
<stop offset="1" stop-color="#775477"/>
</linearGradient>
<linearGradient id="paint30_linear_2_24890" x1="549.57" y1="936.027" x2="541.203" y2="853.935" gradientUnits="userSpaceOnUse">
<stop stop-color="#9D7C90"/>
<stop offset="1" stop-color="#775477"/>
</linearGradient>
<linearGradient id="paint31_linear_2_24890" x1="166.645" y1="905.971" x2="570.288" y2="905.971" gradientUnits="userSpaceOnUse">
<stop stop-color="#6A625E"/>
<stop offset="1" stop-color="#695C69"/>
</linearGradient>
<linearGradient id="paint32_linear_2_24890" x1="-261.557" y1="908.691" x2="584.178" y2="908.691" gradientUnits="userSpaceOnUse">
<stop stop-color="#9D7C90"/>
<stop offset="1" stop-color="#775477"/>
</linearGradient>
<linearGradient id="paint33_linear_2_24890" x1="-891.955" y1="769.38" x2="735.74" y2="769.38" gradientUnits="userSpaceOnUse">
<stop stop-color="#9D7C90"/>
<stop offset="1" stop-color="#775477"/>
</linearGradient>
<linearGradient id="paint34_linear_2_24890" x1="42.288" y1="723.412" x2="48.269" y2="664.726" gradientUnits="userSpaceOnUse">
<stop stop-color="#9D7C90"/>
<stop offset="1" stop-color="#775477"/>
</linearGradient>
<linearGradient id="paint35_linear_2_24890" x1="-323.451" y1="821.458" x2="-310.428" y2="693.674" gradientUnits="userSpaceOnUse">
<stop stop-color="#9D7C90"/>
<stop offset="1" stop-color="#775477"/>
</linearGradient>
<linearGradient id="paint36_linear_2_24890" x1="34.7088" y1="796.722" x2="34.7088" y2="766.123" gradientUnits="userSpaceOnUse">
<stop stop-color="#9D7C90"/>
<stop offset="1" stop-color="#775477"/>
</linearGradient>
<linearGradient id="paint37_linear_2_24890" x1="191.614" y1="809.329" x2="191.614" y2="751.298" gradientUnits="userSpaceOnUse">
<stop stop-color="#9D7C90"/>
<stop offset="1" stop-color="#775477"/>
</linearGradient>
<linearGradient id="paint38_linear_2_24890" x1="279.947" y1="807.796" x2="279.947" y2="755.873" gradientUnits="userSpaceOnUse">
<stop stop-color="#9D7C90"/>
<stop offset="1" stop-color="#775477"/>
</linearGradient>
<linearGradient id="paint39_linear_2_24890" x1="479.389" y1="760.003" x2="479.389" y2="718.718" gradientUnits="userSpaceOnUse">
<stop stop-color="#9D7C90"/>
<stop offset="1" stop-color="#775477"/>
</linearGradient>
<linearGradient id="paint40_linear_2_24890" x1="625.714" y1="772.68" x2="625.714" y2="757.497" gradientUnits="userSpaceOnUse">
<stop stop-color="#9D7C90"/>
<stop offset="1" stop-color="#775477"/>
</linearGradient>
<linearGradient id="paint41_linear_2_24890" x1="479.901" y1="856.655" x2="481.383" y2="842.109" gradientUnits="userSpaceOnUse">
<stop stop-color="#9D7C90"/>
<stop offset="1" stop-color="#775477"/>
</linearGradient>
<linearGradient id="paint42_linear_2_24890" x1="419.297" y1="829.841" x2="336.702" y2="829.841" gradientUnits="userSpaceOnUse">
<stop stop-color="#9D7C90"/>
<stop offset="1" stop-color="#775477"/>
</linearGradient>
<linearGradient id="paint43_linear_2_24890" x1="28.3045" y1="694.645" x2="-88.7404" y2="694.645" gradientUnits="userSpaceOnUse">
<stop stop-color="#9D7C90"/>
<stop offset="1" stop-color="#775477"/>
</linearGradient>
<linearGradient id="paint44_linear_2_24890" x1="-264.821" y1="678.405" x2="-264.821" y2="0.491453" gradientUnits="userSpaceOnUse">
<stop stop-color="#382C44"/>
<stop offset="1" stop-color="#594C4C"/>
</linearGradient>
<linearGradient id="paint45_linear_2_24890" x1="-336.566" y1="339.926" x2="-1275.87" y2="339.926" gradientUnits="userSpaceOnUse">
<stop stop-color="#9D7C90"/>
<stop offset="1" stop-color="#775477"/>
</linearGradient>
<linearGradient id="paint46_linear_2_24890" x1="-25.5358" y1="579.906" x2="-115.283" y2="579.906" gradientUnits="userSpaceOnUse">
<stop stop-color="#9D7C90"/>
<stop offset="1" stop-color="#775477"/>
</linearGradient>
<linearGradient id="paint47_linear_2_24890" x1="-41.7375" y1="671.978" x2="-41.7375" y2="595.06" gradientUnits="userSpaceOnUse">
<stop stop-color="#9D7C90"/>
<stop offset="1" stop-color="#775477"/>
</linearGradient>
<linearGradient id="paint48_linear_2_24890" x1="6.19643" y1="648.574" x2="6.19643" y2="625.504" gradientUnits="userSpaceOnUse">
<stop stop-color="#9D7C90"/>
<stop offset="1" stop-color="#775477"/>
</linearGradient>
<linearGradient id="paint49_linear_2_24890" x1="-1572.32" y1="870.49" x2="570.287" y2="870.49" gradientUnits="userSpaceOnUse">
<stop stop-color="#776D90"/>
<stop offset="1" stop-color="#775477"/>
</linearGradient>
</defs>
</svg>
