<svg width="21" height="21" viewBox="0 0 21 21" fill="none" xmlns="http://www.w3.org/2000/svg">
<path fill-rule="evenodd" clip-rule="evenodd" d="M10.5 21C16.2987 21 21 16.2987 21 10.5C21 4.70133 16.2999 0 10.5 0C4.70133 0 0 4.70133 0 10.5C0 16.2987 4.70133 21 10.5 21ZM17.3555 11.6468V12.3231C17.3555 12.362 17.3317 12.3965 17.2972 12.4116C17.0858 12.5022 16.3619 12.8345 16.061 13.2531C15.8935 13.4861 15.7347 13.741 15.5751 13.9971C15.0026 14.9159 14.4201 15.8508 13.3942 15.8508H7.92157C5.98194 15.8508 4.41016 14.2736 4.41016 12.3275V12.2649C4.41016 12.2131 4.45222 12.171 4.504 12.171H7.5548C7.6152 12.171 7.65942 12.2271 7.65405 12.2865C7.63246 12.485 7.66915 12.6878 7.763 12.8722C7.94423 13.2401 8.31964 13.4699 8.72526 13.4699H10.2356V12.2908H8.74252C8.66593 12.2908 8.62064 12.2023 8.66486 12.1398C8.67383 12.126 8.68348 12.1119 8.69361 12.0971C8.70173 12.0852 8.71015 12.0729 8.71879 12.0599C8.86012 11.8593 9.06184 11.5475 9.2625 11.1926C9.3995 10.9531 9.53218 10.6974 9.63899 10.4407C9.6588 10.3981 9.67495 10.3546 9.69081 10.3119L9.69508 10.3004C9.7027 10.279 9.71039 10.2579 9.71798 10.2371C9.73942 10.1784 9.76006 10.1218 9.77599 10.0653C9.79361 10.0124 9.80833 9.95747 9.82253 9.90444L9.83208 9.86892C9.8828 9.651 9.90436 9.42015 9.90436 9.18067C9.90436 9.08682 9.90006 8.98864 9.89143 8.89479C9.8871 8.79231 9.87417 8.68981 9.86121 8.58733C9.85258 8.49672 9.83641 8.40718 9.81915 8.31333C9.79758 8.17632 9.76736 8.04041 9.73284 7.90338L9.72097 7.85162C9.71328 7.82373 9.70597 7.79623 9.6987 7.76888L9.69866 7.76871L9.69865 7.7687L9.69864 7.76868L9.69864 7.76866C9.68146 7.70403 9.66452 7.64027 9.64331 7.57438C9.55807 7.27985 9.45992 6.99291 9.35635 6.7243C9.31859 6.61749 9.27544 6.51501 9.23228 6.41253C9.18229 6.29134 9.13162 6.17881 9.08343 6.07179L9.08337 6.07167L9.04458 5.98533C9.01439 5.92491 8.98849 5.86989 8.9626 5.8138C8.93347 5.75015 8.90327 5.6865 8.87306 5.6261C8.86458 5.60788 8.85561 5.59015 8.84679 5.57273C8.83315 5.54581 8.81988 5.51961 8.8094 5.4934L8.62494 5.15251C8.59905 5.10612 8.6422 5.0511 8.6929 5.06513L9.8472 5.37797H9.85044C9.85169 5.37797 9.85259 5.37834 9.85333 5.37865C9.85385 5.37887 9.8543 5.37906 9.85474 5.37906L10.0068 5.42112L10.1741 5.4686L10.2356 5.48584V4.79975C10.2356 4.46856 10.5009 4.19995 10.8289 4.19995C10.9929 4.19995 11.1417 4.26684 11.2485 4.37578C11.3553 4.48475 11.4222 4.63362 11.4222 4.79975V5.81813L11.5452 5.85263C11.5549 5.85589 11.5646 5.86019 11.5732 5.86666L11.6142 5.89769L11.6142 5.89773C11.6387 5.91642 11.6679 5.93867 11.7016 5.96376C11.7191 5.97773 11.7371 5.99293 11.756 6.00895L11.756 6.00896L11.756 6.00896C11.7839 6.03252 11.8139 6.05782 11.8472 6.0835C11.9584 6.17303 12.0911 6.28846 12.2367 6.42116C12.2755 6.4546 12.3133 6.48912 12.3478 6.52364C12.5355 6.69841 12.7459 6.90337 12.9465 7.12991C13.0026 7.19356 13.0576 7.25829 13.1137 7.32624C13.1336 7.35066 13.1538 7.37493 13.174 7.39912L13.1741 7.39922L13.1741 7.39925C13.2109 7.44343 13.2475 7.48732 13.2809 7.53122L13.319 7.58167C13.3756 7.65658 13.434 7.73378 13.4859 7.81386C13.499 7.83402 13.513 7.85439 13.5269 7.87478L13.527 7.87485C13.5451 7.90135 13.5633 7.9279 13.5798 7.9541C13.6617 8.07815 13.734 8.20654 13.8031 8.33491C13.8322 8.39424 13.8624 8.45896 13.8883 8.52261C13.9649 8.69414 14.0253 8.8689 14.0641 9.04366C14.076 9.08142 14.0846 9.12241 14.089 9.1591V9.16773C14.1019 9.2195 14.1062 9.27452 14.1105 9.33061C14.1278 9.5097 14.1191 9.68876 14.0803 9.86892C14.0641 9.94553 14.0426 10.0178 14.0167 10.0944L14.008 10.119C13.9849 10.1848 13.9612 10.2524 13.9315 10.3166C13.8667 10.4666 13.7901 10.6165 13.6995 10.7568C13.6704 10.8085 13.6359 10.8636 13.6013 10.9154C13.583 10.9421 13.5644 10.968 13.5462 10.9935L13.546 10.9937L13.5459 10.9938C13.5267 11.0206 13.5079 11.0469 13.4902 11.0729C13.4428 11.1376 13.3921 11.2055 13.3403 11.2659C13.2939 11.3296 13.2464 11.3932 13.1946 11.4493C13.1224 11.5346 13.0533 11.6155 12.981 11.6931C12.9379 11.7438 12.8915 11.7956 12.844 11.842C12.8043 11.8864 12.7637 11.9268 12.7257 11.9647L12.7257 11.9647L12.707 11.9833C12.6348 12.0556 12.5743 12.1117 12.5236 12.1581L12.405 12.2671C12.3877 12.2822 12.3651 12.2908 12.3413 12.2908H11.4222V13.4699H12.5787C12.8376 13.4699 13.0835 13.3782 13.282 13.2099L13.2874 13.2052C13.3644 13.1381 13.6551 12.8844 13.9972 12.5065C14.0091 12.4936 14.0242 12.4839 14.0415 12.4796L17.2357 11.5561C17.2951 11.5389 17.3555 11.5842 17.3555 11.6468ZM5.18004 10.8528L5.22534 10.7816L7.95681 6.50858C7.99673 6.44602 8.09058 6.45249 8.12078 6.52045C8.5771 7.54313 8.97085 8.81501 8.78639 9.60684C8.70764 9.93263 8.49189 10.3738 8.24915 10.7816C8.21788 10.841 8.18336 10.8992 8.14667 10.9553C8.12941 10.9812 8.10028 10.9963 8.06899 10.9963H5.25986C5.18435 10.9963 5.14012 10.9143 5.18004 10.8528Z" fill="white"/>
</svg>
