<?xml version="1.0" encoding="utf-8"?><svg viewBox="0 0 1044 1107" xmlns="http://www.w3.org/2000/svg" xmlns:xlink="http://www.w3.org/1999/xlink"><style>:root>svg{display:none}:root>svg:target{display:block}</style><svg fill="none" viewBox="0 0 1044 1107" id="road" xmlns="http://www.w3.org/2000/svg"><path d="M283.5 9c154 76.5 268.233 376.966-22.499 413.5C-21.499 458-51.001 836.897 172 917.5c170.999 61.807 326.166-9.975 504.789-105.5C915.93 684.11 1066.51 914.708 1004.5 1097.5" stroke="#9C38DA" stroke-width="17" stroke-linecap="round"/><rect x="309.004" y="56.805" width="51" height="10" rx="5" transform="rotate(-41.72 309.004 56.805)" fill="#fff"/><rect x="403" y="196.934" width="51" height="10" rx="5" transform="rotate(-19.392 403 196.934)" fill="#fff"/><rect x="155.678" y="427.182" width="51" height="10" rx="5" transform="rotate(50.361 155.678 427.182)" fill="#fff"/><rect x="23.443" y="569.4" width="51" height="10" rx="5" transform="rotate(26.666 23.443 569.4)" fill="#fff"/><rect x="387.715" y="341.737" width="51" height="10" rx="5" transform="rotate(37.617 387.715 341.737)" fill="#fff"/><rect x=".861" y="740.156" width="51" height="10" rx="5" transform="rotate(-12.881 .861 740.156)" fill="#fff"/><rect x="100.761" y="907.233" width="51" height="10" rx="5" transform="rotate(-52.816 100.761 907.233)" fill="#fff"/><rect x="326.215" y="964.791" width="51" height="10" rx="5" transform="rotate(-94.48 326.215 964.791)" fill="#fff"/><rect x="579.238" y="892.435" width="51" height="10" rx="5" transform="rotate(-120.376 579.238 892.435)" fill="#fff"/><rect x="785.568" y="799.639" width="51" height="10" rx="5" transform="rotate(-97.574 785.568 799.639)" fill="#fff"/><rect x="946.944" y="866.46" width="51" height="10" rx="5" transform="rotate(-38.855 946.944 866.46)" fill="#fff"/><rect x="992.372" y="1007.44" width="51" height="10" rx="5" transform="rotate(.862 992.372 1007.44)" fill="#fff"/></svg></svg>