<svg width="372" height="211" viewBox="0 0 372 211" fill="none" xmlns="http://www.w3.org/2000/svg">
<path d="M192.214 88.9863C193.464 87.6716 194.169 85.9327 194.188 84.1193C194.088 83.2726 193.817 82.4549 193.393 81.715C192.969 80.9751 192.4 80.3283 191.721 79.813L190.509 81.383L189.051 80.3288C188.556 81.0691 188.238 81.9133 188.121 82.7961C188.004 83.6789 188.092 84.5767 188.378 85.4202C188.723 86.2556 189.244 87.0067 189.906 87.6221C190.568 88.2376 191.356 88.7029 192.214 88.9863Z" fill="white"/>
<path d="M100.834 62.3746C100.834 62.3746 99.174 59.257 96.8632 58.9654C96.0216 58.8166 95.1586 58.8392 94.3259 59.0319C93.4932 59.2246 92.7079 59.5834 92.0173 60.0868L93.1615 61.7017L91.748 62.7783C92.3109 63.4653 93.0249 64.0131 93.8343 64.3788C94.6438 64.7445 95.5268 64.9183 96.4146 64.8866C97.2908 64.8191 98.1413 64.5589 98.9054 64.1247C99.6694 63.6904 100.328 63.0928 100.834 62.3746Z" fill="white"/>
<path d="M108.075 89.5061C108.075 89.5061 106.415 86.4109 104.105 86.0969C103.261 85.9564 102.398 85.9851 101.566 86.1815C100.734 86.3779 99.9499 86.738 99.2586 87.2407L100.403 88.8332L98.9893 89.9322C99.5522 90.6192 100.266 91.1669 101.076 91.5327C101.885 91.8984 102.768 92.0721 103.656 92.0405C104.534 91.9703 105.386 91.7067 106.15 91.2685C106.914 90.8303 107.572 90.2285 108.075 89.5061Z" fill="white"/>
<path d="M101.93 117.557C101.93 117.557 100.27 114.461 97.959 114.147C97.1172 114.004 96.2553 114.029 95.4233 114.222C94.5914 114.414 93.806 114.77 93.113 115.269L94.2572 116.884L92.8438 117.96C93.4066 118.649 94.12 119.199 94.9291 119.568C95.7381 119.938 96.6213 120.117 97.5103 120.091C98.3885 120.021 99.2401 119.757 100.004 119.319C100.768 118.881 101.426 118.279 101.93 117.557Z" fill="white"/>
<path d="M45.1476 68.7745C45.1476 68.7745 43.4874 65.6793 41.1766 65.3653C40.3349 65.2165 39.4719 65.2391 38.6392 65.4318C37.8065 65.6245 37.0213 65.9833 36.3306 66.4867L37.4748 68.1016L36.0614 69.1782C36.6243 69.8667 37.3377 70.4169 38.1467 70.7863C38.9557 71.1557 39.8389 71.3345 40.7279 71.3089C41.6061 71.2388 42.4577 70.9751 43.2219 70.5369C43.986 70.0987 44.6437 69.4969 45.1476 68.7745Z" fill="white"/>
<path d="M56.3232 26.9377C56.3232 26.9377 54.663 23.8426 52.3522 23.5286C51.5105 23.3849 50.6485 23.41 49.8165 23.6026C48.9846 23.7951 48.1993 24.1512 47.5063 24.65L48.6504 26.2649L47.2371 27.3639C47.8032 28.047 48.5178 28.592 49.3264 28.9573C50.1351 29.3227 51.0165 29.4988 51.9035 29.4722C52.7816 29.402 53.6334 29.1384 54.3975 28.7002C55.1617 28.262 55.8193 27.6601 56.3232 26.9377Z" fill="white"/>
<path d="M15.5112 27.999C13.8451 28.2601 12.3431 29.1515 11.3159 30.4887C10.8653 31.21 10.5655 32.0151 10.4344 32.8554C10.3033 33.6957 10.3437 34.5538 10.5531 35.3781L12.4825 34.952L12.9312 36.6789C13.7836 36.4333 14.5675 35.9937 15.2214 35.3944C15.8753 34.7951 16.3815 34.0526 16.7002 33.225C16.9289 32.3219 16.9403 31.3775 16.7337 30.4692C16.527 29.5609 16.1081 28.7144 15.5112 27.999Z" fill="white"/>
<path d="M238.533 66.318C238.279 68.2192 238.683 70.1502 239.677 71.7906C240.236 72.4475 240.921 72.9849 241.692 73.3703C242.463 73.7558 243.304 73.9813 244.164 74.0335C244.164 73.1139 244.322 72.0597 244.322 72.0597H246.116C246.12 71.1695 245.92 70.2902 245.531 69.4893C245.142 68.6884 244.575 67.9872 243.873 67.4394C242.298 66.406 240.391 66.0054 238.533 66.318Z" fill="white"/>
<path d="M244.164 124.531C244.164 124.531 243.558 120.785 241.584 119.551C240.871 119.08 240.072 118.754 239.233 118.592C238.393 118.431 237.53 118.436 236.693 118.609L237.074 120.538L235.347 120.942C235.577 121.802 236.002 122.598 236.589 123.267C237.177 123.936 237.911 124.461 238.735 124.8C240.514 125.397 242.453 125.301 244.164 124.531Z" fill="white"/>
<path d="M231.186 209.743C231.186 209.743 230.58 205.997 228.606 204.764C227.893 204.292 227.094 203.966 226.254 203.804C225.415 203.643 224.552 203.648 223.715 203.822L224.096 205.75L222.369 206.154C222.599 207.014 223.024 207.81 223.611 208.479C224.199 209.148 224.933 209.673 225.757 210.012C227.536 210.609 229.475 210.513 231.186 209.743Z" fill="white"/>
<path d="M363.91 198.725C363.91 198.725 363.304 194.979 361.33 193.745C360.617 193.274 359.818 192.948 358.978 192.786C358.139 192.625 357.276 192.63 356.439 192.803L356.82 194.732L355.093 195.136C355.323 195.996 355.748 196.792 356.335 197.461C356.923 198.13 357.657 198.655 358.48 198.994C360.259 199.591 362.198 199.495 363.91 198.725Z" fill="white"/>
<path d="M303.505 189.294C303.505 189.294 302.9 185.549 300.925 184.315C300.212 183.844 299.413 183.518 298.574 183.356C297.735 183.194 296.871 183.2 296.034 183.373L296.416 185.302L294.688 185.706C294.918 186.566 295.343 187.362 295.931 188.031C296.518 188.7 297.253 189.224 298.076 189.564C299.855 190.161 301.794 190.065 303.505 189.294Z" fill="white"/>
<path d="M0.726118 0.949652C0.472365 2.85808 0.875906 4.79605 1.87032 6.44472C2.43089 7.09875 3.11663 7.6341 3.8872 8.01928C4.65777 8.40446 5.49761 8.63169 6.35731 8.6876C6.35731 7.76802 6.51438 6.71386 6.51438 6.71386H8.28669C8.29717 5.82247 8.09988 4.9409 7.71048 4.13895C7.32107 3.33699 6.75025 2.6367 6.04319 2.09354C4.47754 1.05792 2.57929 0.649524 0.726118 0.949652Z" fill="white"/>
<path d="M133.492 78.3087C133.492 78.3087 136.812 80.2375 138.809 79.0264C140.372 78.2258 141.574 76.8637 142.174 75.2135C141.299 74.9892 140.11 74.6304 140.11 74.6304L140.716 72.8809C139.792 72.6893 138.837 72.7025 137.918 72.9195C137 73.1364 136.14 73.552 135.399 74.1369C134.785 74.6415 134.294 75.2795 133.963 76.0024C133.633 76.7254 133.472 77.5142 133.492 78.3087Z" fill="white"/>
<path d="M54.727 90.2835C54.727 90.2835 58.0249 92.2123 60.0216 91.0012C61.5836 90.1927 62.7906 88.8344 63.4093 87.1883L61.3229 86.5827L61.9286 84.8557C61.0046 84.6578 60.0482 84.6678 59.1286 84.8851C58.2089 85.1023 57.3492 85.5213 56.6115 86.1117C56.0027 86.6196 55.5168 87.2588 55.1904 87.9813C54.864 88.7039 54.7056 89.491 54.727 90.2835Z" fill="white"/>
<path d="M302.94 109.385C302.94 109.385 306.238 111.314 308.235 110.103C309.807 109.309 311.019 107.945 311.622 106.29L309.536 105.685L310.142 103.957C309.221 103.758 308.268 103.768 307.352 103.985C306.435 104.202 305.58 104.622 304.847 105.213C304.233 105.718 303.742 106.356 303.411 107.079C303.081 107.802 302.92 108.591 302.94 109.385Z" fill="white"/>
<path d="M362.485 137.193C362.485 137.193 365.782 139.122 367.779 137.911C369.352 137.117 370.563 135.753 371.167 134.098L369.08 133.493L369.686 131.766C368.766 131.566 367.812 131.576 366.896 131.793C365.98 132.01 365.124 132.43 364.391 133.022C363.777 133.526 363.286 134.164 362.956 134.887C362.625 135.61 362.464 136.399 362.485 137.193Z" fill="white"/>
<path d="M50.641 53.2789C50.641 53.2789 53.9614 55.2302 55.9581 54.019C57.5212 53.2184 58.7234 51.8563 59.3233 50.2062L57.2593 49.6006L57.8651 47.8511C56.9408 47.6595 55.9858 47.6727 55.0672 47.8897C54.1486 48.1067 53.2887 48.5222 52.548 49.1071C51.935 49.6128 51.4449 50.2511 51.1145 50.9738C50.7842 51.6964 50.6223 52.4846 50.641 53.2789Z" fill="white"/>
<path d="M143.977 170.283C143.977 170.283 147.275 172.212 149.272 171.001C150.844 170.206 152.056 168.843 152.659 167.188L150.573 166.605L151.178 164.855C150.258 164.664 149.306 164.677 148.391 164.894C147.476 165.111 146.62 165.527 145.884 166.111C145.27 166.616 144.779 167.254 144.448 167.977C144.118 168.7 143.956 169.488 143.977 170.283Z" fill="white"/>
<path d="M192.083 142.287C192.083 142.287 192.689 138.496 190.827 137.083C189.516 135.912 187.806 135.286 186.048 135.334C186.16 136.253 186.25 137.577 186.25 137.577H184.41C184.565 138.506 184.923 139.389 185.458 140.165C185.993 140.94 186.692 141.588 187.506 142.063C188.202 142.445 188.976 142.664 189.769 142.703C190.562 142.742 191.353 142.599 192.083 142.287Z" fill="white"/>
</svg>
