<svg width="330" height="237" viewBox="0 0 330 237" fill="none" xmlns="http://www.w3.org/2000/svg">
<path d="M163.376 103.999C162.662 102.728 162.456 101.234 162.799 99.8179C163.045 99.1783 163.417 98.5948 163.894 98.1022C164.37 97.6097 164.941 97.2182 165.572 96.951L166.206 98.4133L167.55 97.8802C167.789 98.5546 167.87 99.2751 167.787 99.9858C167.703 100.696 167.457 101.378 167.068 101.979C166.634 102.562 166.08 103.044 165.443 103.392C164.805 103.741 164.1 103.948 163.376 103.999Z" fill="white"/>
<path d="M239.812 101.321C239.812 101.321 241.721 99.2204 243.578 99.4498C244.263 99.5001 244.931 99.6882 245.542 100.003C246.152 100.317 246.693 100.752 247.132 101.281L245.921 102.312L246.81 103.43C246.236 103.854 245.571 104.14 244.868 104.265C244.166 104.39 243.444 104.351 242.758 104.151C242.089 103.925 241.478 103.554 240.969 103.065C240.459 102.576 240.064 101.98 239.812 101.321Z" fill="white"/>
<path d="M228.812 121.024C228.812 121.024 230.716 118.941 232.578 119.153C233.263 119.21 233.929 119.403 234.539 119.72C235.148 120.038 235.688 120.473 236.127 121.001L234.921 122.016L235.805 123.151C235.231 123.575 234.567 123.861 233.864 123.986C233.161 124.111 232.439 124.072 231.754 123.871C231.084 123.643 230.472 123.27 229.964 122.778C229.455 122.285 229.062 121.687 228.812 121.024Z" fill="white"/>
<path d="M228.058 144.088C228.058 144.088 229.963 142.005 231.825 142.217C232.509 142.271 233.175 142.461 233.785 142.775C234.395 143.09 234.937 143.522 235.378 144.047L234.168 145.079L235.056 146.197C234.481 146.622 233.817 146.91 233.114 147.038C232.411 147.166 231.688 147.131 231 146.935C230.33 146.707 229.719 146.333 229.21 145.841C228.701 145.349 228.308 144.75 228.058 144.088Z" fill="white"/>
<path d="M281.924 117.306C281.924 117.306 283.829 115.223 285.691 115.435C286.376 115.485 287.044 115.673 287.654 115.988C288.265 116.302 288.805 116.737 289.244 117.266L288.034 118.298L288.922 119.415C288.348 119.84 287.683 120.128 286.98 120.256C286.277 120.384 285.554 120.349 284.866 120.153C284.196 119.925 283.585 119.552 283.076 119.059C282.567 118.567 282.174 117.968 281.924 117.306Z" fill="white"/>
<path d="M281.483 82.5102C281.483 82.5102 283.387 80.4272 285.249 80.6391C285.933 80.6935 286.6 80.8833 287.21 81.1976C287.82 81.5119 288.361 81.9444 288.803 82.4699L287.592 83.5018L288.476 84.637C287.9 85.0573 287.236 85.3406 286.534 85.4655C285.832 85.5903 285.111 85.5534 284.425 85.3574C283.755 85.1293 283.143 84.7558 282.635 84.2635C282.126 83.7712 281.733 83.1724 281.483 82.5102Z" fill="white"/>
<path d="M313.064 91.3987C314.31 91.9312 315.304 92.9222 315.84 94.1666C316.049 94.8176 316.123 95.5039 316.059 96.1843C315.995 96.8648 315.794 97.5252 315.468 98.1259L314.05 97.4128L313.359 98.6694C312.744 98.3097 312.22 97.8124 311.829 97.2164C311.438 96.6205 311.19 95.9421 311.105 95.2345C311.106 94.4859 311.283 93.748 311.624 93.0813C311.964 92.4146 312.458 91.838 313.064 91.3987Z" fill="white"/>
<path d="M131.774 77.1923C131.597 78.7234 130.901 80.1478 129.802 81.2291C129.238 81.6306 128.598 81.9138 127.921 82.0617C127.244 82.2097 126.545 82.2192 125.864 82.0898C126.046 81.3735 126.132 80.5214 126.132 80.5214L124.733 80.1669C124.907 79.4727 125.236 78.8274 125.697 78.2803C126.158 77.7333 126.739 77.2992 127.394 77.0111C128.824 76.5172 130.389 76.5819 131.774 77.1923Z" fill="white"/>
<path d="M115.889 121.424C115.889 121.424 117.101 118.626 118.882 118.055C119.531 117.829 120.218 117.733 120.903 117.773C121.589 117.813 122.26 117.988 122.878 118.288L122.2 119.715L123.466 120.371C123.117 120.995 122.629 121.531 122.039 121.936C121.449 122.341 120.773 122.605 120.065 122.706C118.561 122.82 117.07 122.362 115.889 121.424Z" fill="white"/>
<path d="M109.165 190.363C109.165 190.363 110.377 187.565 112.159 186.994C112.807 186.767 113.494 186.671 114.18 186.711C114.865 186.751 115.537 186.926 116.154 187.226L115.476 188.653L116.742 189.309C116.393 189.934 115.905 190.469 115.315 190.875C114.725 191.28 114.05 191.543 113.341 191.645C111.838 191.759 110.346 191.301 109.165 190.363Z" fill="white"/>
<path d="M7.95846 155.563C7.95846 155.563 9.17017 152.765 10.9517 152.194C11.6001 151.967 12.287 151.871 12.9727 151.911C13.6584 151.951 14.3296 152.126 14.9475 152.426L14.2693 153.853L15.5352 154.509C15.1863 155.134 14.6979 155.67 14.1081 156.075C13.5182 156.48 12.8428 156.743 12.1344 156.845C10.6306 156.959 9.13923 156.501 7.95846 155.563Z" fill="white"/>
<path d="M56.8725 160.149C56.8725 160.149 58.0842 157.351 59.8657 156.78C60.5142 156.554 61.201 156.458 61.8868 156.498C62.5725 156.538 63.2437 156.713 63.8615 157.013L63.1834 158.44L64.4492 159.096C64.1004 159.72 63.612 160.256 63.0221 160.661C62.4323 161.066 61.7569 161.33 61.0484 161.431C59.5447 161.545 58.0533 161.087 56.8725 160.149Z" fill="white"/>
<path d="M329.923 73.2495C329.744 74.7862 329.047 76.216 327.947 77.3038C327.381 77.7025 326.741 77.9841 326.065 78.1319C325.388 78.2797 324.689 78.2908 324.009 78.1645C324.19 77.4482 324.276 76.5961 324.276 76.5961L322.896 76.246C323.063 75.5496 323.391 74.9018 323.853 74.3541C324.315 73.8063 324.898 73.3736 325.556 73.0902C326.98 72.5928 328.539 72.6496 329.923 73.2495Z" fill="white"/>
<path d="M211.226 107.282C211.226 107.282 208.259 108.128 206.943 106.79C205.883 105.858 205.216 104.56 205.075 103.156C205.8 103.154 206.797 103.109 206.797 103.109L206.671 101.627C207.429 101.66 208.17 101.859 208.843 102.209C209.516 102.56 210.103 103.053 210.565 103.655C210.944 104.17 211.2 104.764 211.315 105.392C211.429 106.02 211.399 106.667 211.226 107.282Z" fill="white"/>
<path d="M270.214 132.168C270.214 132.168 267.264 133.019 265.948 131.681C264.891 130.743 264.219 129.446 264.062 128.042L265.807 127.982L265.676 126.517C266.435 126.546 267.178 126.743 267.852 127.093C268.525 127.444 269.112 127.941 269.57 128.546C269.944 129.062 270.196 129.656 270.308 130.283C270.419 130.91 270.387 131.555 270.214 132.168Z" fill="white"/>
<path d="M73.0985 98.0164C73.0985 98.0164 70.1486 98.8674 68.8325 97.5296C67.7642 96.6002 67.09 95.2989 66.9469 93.8904L68.6918 93.8309L68.5611 92.3659C69.3173 92.3925 70.058 92.5882 70.7287 92.9385C71.3995 93.2887 71.9833 93.7848 72.4372 94.3902C72.816 94.9046 73.0724 95.4985 73.187 96.1269C73.3016 96.7553 73.2713 97.4015 73.0985 98.0164Z" fill="white"/>
<path d="M21.2235 107.916C21.2235 107.916 18.2736 108.767 16.9575 107.429C15.8892 106.499 15.215 105.198 15.0719 103.79L16.8168 103.73L16.6861 102.265C17.4423 102.292 18.183 102.487 18.8537 102.838C19.5245 103.188 20.1083 103.684 20.5622 104.289C20.941 104.804 21.1974 105.398 21.312 106.026C21.4266 106.654 21.3963 107.301 21.2235 107.916Z" fill="white"/>
<path d="M280.707 104.151C280.707 104.151 277.735 105.015 276.419 103.677C275.359 102.744 274.692 101.446 274.551 100.042L276.278 99.978L276.152 98.4957C276.91 98.529 277.651 98.7279 278.324 99.0783C278.996 99.4288 279.584 99.9224 280.045 100.524C280.423 101.039 280.679 101.633 280.793 102.261C280.908 102.89 280.878 103.536 280.707 104.151Z" fill="white"/>
<path d="M184.891 176.852C184.891 176.852 181.941 177.703 180.625 176.366C179.557 175.436 178.883 174.135 178.74 172.726L180.48 172.684L180.354 171.202C181.109 171.235 181.847 171.433 182.517 171.783C183.187 172.133 183.772 172.625 184.23 173.226C184.609 173.741 184.865 174.335 184.98 174.963C185.094 175.591 185.064 176.238 184.891 176.852Z" fill="white"/>
<path d="M152.949 145.543C152.949 145.543 153.226 142.471 154.956 141.738C156.208 141.084 157.664 140.934 159.024 141.319C158.755 142.013 158.423 143.026 158.423 143.026L159.856 143.39C159.552 144.083 159.099 144.7 158.529 145.198C157.959 145.697 157.286 146.063 156.559 146.272C155.941 146.433 155.295 146.45 154.67 146.324C154.044 146.198 153.456 145.93 152.949 145.543Z" fill="white"/>
</svg>
