<svg width="383" height="255" viewBox="0 0 383 255" fill="none" xmlns="http://www.w3.org/2000/svg">
<path d="M160.393 238.534C161.706 239.913 162.448 241.736 162.472 243.637C162.364 244.525 162.079 245.382 161.633 246.159C161.188 246.935 160.592 247.615 159.879 248.158C159.295 247.389 158.595 246.527 158.595 246.527L157.076 247.622C156.554 246.847 156.218 245.963 156.092 245.038C155.967 244.113 156.056 243.171 156.352 242.286C156.715 241.407 157.264 240.616 157.961 239.969C158.659 239.321 159.488 238.832 160.393 238.534Z" fill="white"/>
<path opacity="0.7" d="M190.085 185.492C190.085 185.492 190.716 189.476 188.754 190.945C187.375 192.176 185.581 192.842 183.732 192.809C183.732 191.83 183.942 190.479 183.942 190.479L182.003 190.479C182.174 189.511 182.556 188.592 183.121 187.787C183.686 186.982 184.42 186.31 185.273 185.818C185.999 185.406 186.809 185.163 187.642 185.107C188.475 185.05 189.31 185.182 190.085 185.492Z" fill="white"/>
<path opacity="0.5" d="M275.016 254.194C274.739 252.196 275.159 250.163 276.207 248.438C276.792 247.76 277.506 247.204 278.308 246.804C279.11 246.404 279.984 246.167 280.879 246.108C280.879 247.063 281.042 248.182 281.042 248.182L282.911 248.182C282.924 249.118 282.72 250.045 282.315 250.89C281.91 251.735 281.314 252.475 280.575 253.052C278.933 254.12 276.947 254.528 275.016 254.194Z" fill="white"/>
<path opacity="0.5" d="M274.64 210.366C274.64 210.366 274.009 214.281 271.93 215.563C271.186 216.068 270.348 216.419 269.465 216.595C268.582 216.772 267.673 216.769 266.791 216.588L267.188 214.538L265.366 214.118C265.606 213.216 266.052 212.381 266.667 211.677C267.283 210.974 268.053 210.422 268.917 210.063C270.795 209.443 272.838 209.552 274.64 210.366Z" fill="white"/>
<path d="M52.8685 206.225C52.8685 206.225 51.1165 209.465 48.6871 209.791C47.8033 209.947 46.8972 209.924 46.0224 209.724C45.1477 209.523 44.3221 209.15 43.5946 208.626L44.786 206.925L43.291 205.783C43.8866 205.06 44.6412 204.485 45.496 204.101C46.3509 203.717 47.283 203.535 48.2199 203.569C49.1431 203.643 50.0386 203.919 50.8422 204.378C51.6459 204.837 52.3378 205.468 52.8685 206.225Z" fill="white"/>
<path opacity="0.7" d="M222.329 224.676C222.329 224.676 220.577 227.915 218.148 228.241C217.261 228.396 216.351 228.373 215.473 228.173C214.594 227.973 213.764 227.6 213.032 227.076C213.616 226.283 214.247 225.375 214.247 225.375L212.752 224.233C213.339 223.493 214.089 222.898 214.944 222.494C215.799 222.09 216.735 221.888 217.681 221.902C218.613 221.994 219.513 222.291 220.316 222.77C221.12 223.249 221.807 223.9 222.329 224.676Z" fill="white"/>
<path d="M139.649 192.541C139.649 192.541 137.897 195.803 135.467 196.129C134.582 196.282 133.675 196.255 132.8 196.051C131.925 195.847 131.101 195.469 130.375 194.941L131.566 193.263L130.071 192.121C130.659 191.382 131.409 190.787 132.263 190.383C133.118 189.979 134.054 189.776 135 189.791C135.931 189.875 136.832 190.166 137.636 190.642C138.44 191.117 139.128 191.766 139.649 192.541Z" fill="white"/>
<path d="M116.416 218.508C116.416 218.508 114.664 221.77 112.212 222.096C111.326 222.247 110.42 222.22 109.545 222.016C108.67 221.812 107.845 221.435 107.119 220.908L108.334 219.207L106.839 218.088C107.419 217.346 108.164 216.75 109.016 216.345C109.867 215.941 110.802 215.739 111.744 215.758C112.678 215.844 113.582 216.135 114.389 216.61C115.197 217.086 115.889 217.734 116.416 218.508Z" fill="white"/>
<path d="M72.0481 163.428C70.2936 163.158 68.7074 162.233 67.6097 160.841C67.1164 160.089 66.7813 159.245 66.6247 158.359C66.4681 157.474 66.4933 156.566 66.6987 155.691L68.731 156.134L69.1749 154.316C70.0745 154.578 70.9022 155.042 71.5945 155.672C72.2869 156.302 72.8256 157.082 73.1694 157.951C73.4235 158.888 73.4545 159.871 73.2598 160.822C73.0651 161.773 72.6502 162.666 72.0481 163.428Z" fill="white"/>
<path d="M74.7255 186.28C74.7255 186.28 78.2295 184.252 80.3085 185.511C81.9626 186.351 83.2387 187.782 83.8825 189.519L81.6868 190.148L82.3175 191.989C81.3461 192.187 80.343 192.171 79.3785 191.942C78.4141 191.712 77.5116 191.275 76.7345 190.661C76.0869 190.132 75.5693 189.462 75.2211 188.703C74.873 187.943 74.7034 187.115 74.7255 186.28Z" fill="white"/>
<path opacity="0.5" d="M373.331 249.136C373.331 249.136 376.812 247.108 378.914 248.39C380.567 249.225 381.837 250.659 382.465 252.398C381.53 252.631 380.269 253.027 380.269 253.027L380.923 254.845C379.952 255.051 378.947 255.039 377.981 254.809C377.016 254.58 376.113 254.138 375.34 253.517C374.693 252.987 374.175 252.318 373.827 251.558C373.479 250.799 373.309 249.97 373.331 249.136Z" fill="white"/>
<path d="M19.3766 179.46C19.3766 179.46 22.8572 177.409 24.9596 178.691C26.6078 179.532 27.8762 180.964 28.5103 182.699L26.3145 183.328L26.9686 185.146C25.9991 185.352 24.9958 185.342 24.0307 185.117C23.0655 184.891 22.1623 184.455 21.3855 183.841C20.7394 183.311 20.2226 182.641 19.8746 181.882C19.5265 181.123 19.3563 180.294 19.3766 179.46Z" fill="white"/>
<path d="M24.1601 152.106C24.1601 152.106 27.6408 150.078 29.7431 151.36C31.3884 152.194 32.6567 153.617 33.2938 155.345L31.098 155.974L31.752 157.815C30.781 158.022 29.7761 158.009 28.8103 157.78C27.8446 157.55 26.9423 157.108 26.1691 156.487C25.5216 155.958 25.0039 155.288 24.6557 154.528C24.3075 153.769 24.138 152.94 24.1601 152.106Z" fill="white"/>
</svg>
