<svg width="111" height="69" viewBox="0 0 111 69" fill="none" xmlns="http://www.w3.org/2000/svg">
<path d="M109.721 6.68166C110.08 5.47288 110.822 4.37374 111.864 3.50699C112.895 2.63892 113.897 1.29962 115.245 0.788697C116.973 0.128964 118.649 0.709327 120.199 1.62204C122.465 2.67925 124.525 4.03492 126.304 5.63997C127.975 7.12809 130.653 9.45452 131.074 11.5478C131.909 15.6451 125.193 15.6451 122.128 14.3107L121.886 15.2185C121.864 15.2911 121.82 15.3573 121.758 15.4105C121.696 15.4636 121.619 15.5018 121.535 15.5211C115.107 17.1729 107.953 12.7383 109.721 6.68166Z" fill="#999698"/>
<path d="M115.044 15.5063C115.074 15.4198 115.136 15.3439 115.22 15.2895C115.304 15.2351 115.405 15.2051 115.51 15.2037C115.706 15.2037 115.896 15.2037 116.086 15.2037C116.793 15.5063 117.558 15.6946 118.344 15.7593C119.011 15.8438 119.692 15.7467 120.291 15.4815C120.477 15.43 120.651 15.3493 120.804 15.2434L120.971 15.05C121.302 14.7582 121.578 14.4234 121.789 14.0579L122.18 14.1769C122.247 14.1539 122.319 14.145 122.39 14.151C122.461 14.1571 122.529 14.1779 122.589 14.2116L122.808 14.3505C124.041 14.673 126.592 14.792 127.992 13.9686C130.141 12.7136 131.016 10.3376 131.287 11.4884C131.652 12.9368 131.603 14.4401 131.143 15.8684C130.175 19.6284 128.217 25.4569 127.18 28.9143C126.725 30.447 125.112 35.6158 125.112 35.6158C125.191 35.594 125.275 35.5902 125.356 35.6047C125.437 35.6192 125.512 35.6515 125.574 35.6985C125.636 35.7454 125.683 35.8055 125.71 35.8727C125.737 35.9399 125.743 36.012 125.728 36.082C125.331 38.1456 122.877 38.9244 120.85 39.5543C117.352 40.6363 113.717 41.354 110.021 41.6923C109.892 41.691 109.769 41.646 109.678 41.567C109.588 41.4881 109.537 41.3816 109.537 41.2706C110.741 32.5912 112.58 23.986 115.044 15.5063Z" fill="#999698"/>
<path d="M106.45 17.6343C106.779 14.5886 106.825 11.3792 107.602 8.39306C108.357 5.55572 110.724 4.25114 112.924 2.24714C112.969 2.20669 113.026 2.17815 113.088 2.16498C113.151 2.15182 113.217 2.15459 113.278 2.17296C113.339 2.19133 113.392 2.22451 113.432 2.26848C113.471 2.31246 113.495 2.36535 113.5 2.42075C113.788 2.21738 114.076 2.01896 114.37 1.83047C114.474 1.76102 114.606 1.90982 114.508 1.98919C112.533 3.58147 110.643 5.79878 110.298 8.09049C111.462 10.2653 112.848 12.3469 114.439 14.3108C115.283 14.7279 116.191 15.0418 117.135 15.2434C117.711 15.3674 117.458 16.0767 116.899 15.9924C115.211 15.7345 115.419 17.1531 115.263 18.1452C115.09 19.2563 114.914 20.3675 114.733 21.4786C114.347 23.815 113.904 26.1513 113.454 28.4827C112.671 32.5849 111.784 36.6773 110.903 40.7646C111.387 40.8142 111.974 41.1516 112.752 40.2686C113.109 39.8619 116.409 39.2765 117.187 38.84C117.964 38.4035 119.376 36.7517 120.067 36.0423C120.205 35.8985 121.219 34.2268 122.273 34.083C121.893 35.0255 121.518 35.963 121.121 36.9104C121.174 36.9863 121.192 37.0764 121.173 37.1634C121.065 37.6708 120.807 38.1457 120.424 38.5424C120.424 38.6614 120.505 38.721 120.747 38.7259C120.889 38.7861 121.044 38.8202 121.203 38.8262C121.362 38.8322 121.52 38.8098 121.668 38.7606C121.986 38.5568 122.287 38.3329 122.567 38.091C122.627 38.0498 122.7 38.0245 122.777 38.0184C122.853 38.0122 122.93 38.0254 122.999 38.0563C123.504 37.5405 123.909 36.9575 124.197 36.33C124.49 35.4967 125.447 34.3757 125.746 33.5473C126.526 35.9038 126.793 38.3641 126.535 40.8043C124.963 41.9055 123.079 41.1813 121.829 41.0821C121.749 41.0954 121.667 41.0954 121.587 41.0821C120.443 40.9269 119.276 40.9269 118.131 41.0821C117.216 41.2607 116.403 41.7071 115.522 41.9254C114.416 42.1982 111.623 42.2726 110.01 42.1982C108.756 40.8702 107.056 39.9086 105.143 39.4452C105.102 37.9918 105.661 24.7971 106.45 17.6343Z" fill="#6D696D"/>
<path d="M113.914 1.81554C114.742 1.32024 115.71 1.0277 116.715 0.969167C117.72 0.910634 118.725 1.0883 119.623 1.48319C122.151 2.43559 126.079 4.70249 127.531 6.76601C126.079 7.80274 120.106 4.14196 117.935 4.64296C113.54 5.63504 115.216 10.154 115.591 12.6094C115.591 12.6094 110.856 8.51704 110.873 8.52696C111.121 8.72538 110.931 3.46736 113.914 1.81554Z" fill="#A5A0A4"/>
<path d="M115.309 0.600078C117.29 0.00482991 120.078 1.04155 121.789 2.4255C119.324 1.53263 115.338 0.937385 113.558 2.83226C112.302 4.30308 111.604 6.07172 111.559 7.89682C111.507 8.97323 111.807 8.8641 113.569 9.55359C114.854 10.0496 114.836 10.5457 115.355 12.2074C115.539 12.7729 116.772 13.3731 117.008 13.6955C117.688 14.6876 117.814 14.3553 118.419 14.39C118.915 14.4197 119.156 14.9455 119.571 15.0398C119.986 15.134 121.299 14.7174 121.564 13.5219C123.252 14.3751 123.868 14.4049 124.94 14.1023C125.746 13.9181 126.521 13.6429 127.244 13.2838C127.902 12.9353 128.436 12.4377 128.787 11.8453C129.323 10.63 129.409 9.28574 128.108 7.24701C128.954 7.93155 130.832 9.81155 131.16 10.8979C131.489 11.9842 131.684 13.14 130.769 13.9336C129.375 15.1341 127.399 15.0398 126.673 15.2977C126.078 15.4636 125.547 15.7653 125.135 16.1708C123.442 18.9585 123.229 22.6689 122.054 25.1342C121.887 25.4963 121.42 25.5112 121.363 25.1342C121.118 23.5264 121.257 21.8924 121.772 20.3326C122.042 18.7651 122.538 17.1232 123.597 16.0567L122.607 15.0646L122.25 15.1737C122.257 15.3027 122.233 15.4316 122.177 15.5514C122.121 15.6713 122.036 15.7794 121.927 15.8682C121.818 15.9773 121.674 16.647 121.426 16.6073C120.787 16.8751 120.003 16.523 119.306 16.3692C119.139 16.3295 117.832 15.7541 117.428 16.9496C117.233 17.5448 115.925 19.2363 115.793 19.9704C114.991 24.1983 113.933 28.3873 112.625 32.5203C112.341 31.7744 112.288 30.9778 112.469 30.2087C113.759 24.9854 114.733 19.6679 113.898 14.3057C113.759 13.4277 110.321 10.0645 110.205 7.4603C110.113 5.00491 112.757 1.35902 115.309 0.600078Z" fill="#BCB7BB"/>
<path d="M111.271 10.2185C111.905 10.025 112.798 10.2185 113.575 10.3822C113.316 10.66 112.527 11.4883 112.233 11.7314C111.346 16.4686 110.551 20.7395 109.762 25.4866C108.938 30.4718 108.766 35.7794 108.351 40.7994C107.775 40.4819 107.038 40.1049 106.669 39.9263C107.182 30.0452 110.759 12.2324 111.271 10.2185Z" fill="#5B575B"/>
<path d="M108.679 17.3565C108.432 15.2632 100.489 13.3039 97.7354 12.654C94.6627 11.9021 91.5279 11.3532 88.3582 11.0121C85.2981 10.704 82.2084 10.679 79.1422 10.9377C76.2622 11.1907 72.7428 11.6173 70.1969 12.9219C69.3855 13.3068 68.7423 13.9095 68.3652 14.6382C70.2948 19.6383 77.1147 21.3496 82.7076 22.5401C88.1738 23.7009 94.049 24.812 99.475 23.3536C100.42 22.9469 103.3 22.0094 104.267 21.7018C105.051 23.3586 102.217 24.7773 101.335 25.2584C97.7066 27.2426 97.4878 31.2754 97.2516 34.6336C97.0961 36.8013 96.5892 38.9094 96.3934 41.0821C96.2666 42.5355 96.209 43.9939 96.163 45.4572C98.5361 44.8669 100.8 44.0137 101.871 43.0663C105.563 39.7974 107.239 30.695 107.769 27.7337C108.414 23.939 109.129 21.1066 108.679 17.3565Z" fill="#6D696D"/>
<path d="M102.798 12.8624C102.118 12.6045 101.427 12.3664 100.73 12.1829C100.499 12.6233 100.089 12.9761 99.5779 13.1749C96.5367 14.3853 92.4701 13.3287 89.3943 12.8575C88.202 12.6739 83.6343 11.7711 82.6666 12.7682C81.6989 13.7652 83.5882 14.3059 84.2621 14.797C84.7408 15.1343 85.1481 15.5405 85.466 15.9974C85.6183 16.2291 85.6597 16.5029 85.5811 16.7605C85.5026 17.0181 85.3104 17.239 85.0455 17.3764C82.8452 18.428 80.7485 19.807 78.3697 20.5312L77.4941 21.1314C82.3383 22.6989 87.8621 23.309 92.6948 23.3388C96.0989 23.3388 99.7565 23.1553 102.982 22.1384C105.154 21.4539 108.5 20.0104 108.742 17.7484C109.013 15.1889 105.015 13.7107 102.798 12.8624Z" fill="#999698"/>
<path d="M85.017 17.3564C85.2819 17.219 85.4741 16.998 85.5526 16.7405C85.6311 16.4829 85.5898 16.2091 85.4374 15.9774C85.1195 15.5204 84.7123 15.1143 84.2336 14.777C83.5597 14.2809 81.6474 13.7849 82.6381 12.7482C83.6288 11.7114 88.1734 12.6539 89.3658 12.8375C92.4416 13.3087 96.5081 14.3652 99.5494 13.1549C100.061 12.9561 100.471 12.6033 100.701 12.1628C98.2104 11.4947 95.6509 11.0329 93.0579 10.7838C88.5329 10.1925 83.9604 9.91218 79.3837 9.94553C76.5037 10.0199 71.1296 9.86121 69.7645 12.6043C69.7288 12.6783 69.6999 12.7546 69.6781 12.8325C69.524 13.0521 69.3966 13.2848 69.2979 13.5269C68.4512 15.6301 69.9661 17.4953 71.9015 18.651C73.6231 19.6574 75.4822 20.4771 77.4368 21.0916L78.3123 20.4913C80.72 19.787 82.8166 18.408 85.017 17.3564Z" fill="#A5A0A4"/>
<path d="M80.127 23.3534C80.0611 23.1029 80.0979 22.8405 80.2313 22.6108C80.3647 22.3811 80.5863 22.1983 80.8585 22.0934C75.6745 20.9079 70.0643 19.0626 68.3421 14.5983C67.7661 15.7888 69.0506 19.2313 69.1888 19.6628C70.3005 23.1996 71.9882 26.6917 73.4051 30.0797C75.3511 34.4636 77.7491 38.6885 80.5705 42.7039C81.7298 43.3679 82.9382 43.966 84.1878 44.4946C83.5663 42.9265 83.1037 41.315 82.8054 39.6781C82.0048 34.9508 81.0313 28.0707 80.127 23.3534Z" fill="#878286"/>
<path d="M104.244 21.6621C103.276 21.9697 100.396 22.9072 99.4516 23.3139C94.3194 24.6929 88.7841 23.7703 83.5713 22.684C84.0025 23.1013 84.281 23.619 84.3719 24.1721C84.85 26.558 84.3719 29.2118 84.6714 31.6474C85.1857 36.3552 86.0729 41.0272 87.3268 45.6308C88.4944 46.0191 89.7329 46.2257 90.9844 46.2409C92.7314 46.1185 94.4589 45.8409 96.1396 45.4125C96.1857 43.9492 96.2433 42.4908 96.37 41.0374C96.5658 38.8747 97.0727 36.7665 97.2282 34.5889C97.4644 31.2307 97.6833 27.2178 101.312 25.2138C102.193 24.7376 105.027 23.309 104.244 21.6621Z" fill="#878286"/>
<path d="M83.5714 22.6838C83.2379 22.3969 82.8241 22.1891 82.37 22.0805C81.9158 21.9718 81.4368 21.9661 80.9794 22.0637C80.9381 22.0707 80.8977 22.0806 80.8584 22.0935C81.4747 22.2373 82.091 22.3713 82.6843 22.5002L83.5714 22.6838Z" fill="#6D696D"/>
<path d="M84.3718 24.1672C84.2808 23.6141 84.0023 23.0964 83.5711 22.679L82.6841 22.4955C82.1081 22.3665 81.4745 22.2326 80.8582 22.0887C80.586 22.1936 80.3643 22.3764 80.2309 22.6061C80.0976 22.8358 80.0607 23.0982 80.1267 23.3487C81.0022 28.066 82.0044 34.9461 82.8051 39.6734C83.1034 41.3103 83.5659 42.9218 84.1875 44.4899C85.205 44.9237 86.2535 45.3015 87.3266 45.6209C86.0727 41.0173 85.1855 36.3453 84.6713 31.6375C84.3891 29.2069 84.8499 26.5531 84.3718 24.1672Z" fill="#6D696D"/>
<path d="M103.633 21.6371C101.854 23.4129 99.8087 24.1173 97.0612 24.0627C95.9092 24.0627 94.7572 23.9784 93.5649 23.8991L93.4785 23.785C93.3321 23.611 93.1415 23.4681 92.9213 23.3671C92.7012 23.2661 92.4572 23.2096 92.2078 23.2019C91.9585 23.1943 91.7105 23.2356 91.4825 23.3229C91.2545 23.4102 91.0527 23.5411 90.8922 23.7056L89.5847 23.6163C88.7322 23.5618 86.4052 24.4447 91.5431 26.1808C93.5361 29.4894 94.1466 33.4776 93.9738 37.188C93.8414 40.1295 93.6282 42.9817 93.9738 45.8687C95.385 45.7078 96.7622 45.3737 98.0634 44.8766C98.1095 42.1781 97.4874 39.5789 97.7754 36.8904C97.9784 34.7181 98.3731 32.5624 98.9562 30.4418C99.3191 29.1224 99.7972 27.912 100.39 26.1808C101.411 25.8402 102.325 25.2992 103.06 24.6008C103.795 23.9024 104.331 23.066 104.624 22.158C104.774 21.6619 104.037 21.2353 103.633 21.6371Z" fill="#5B575B"/>
<path d="M98.6563 22.3762C95.7763 22.4555 85.2355 22.6391 83.329 20.4912C82.2047 20.8749 81.0497 21.1882 79.873 21.4287C79.873 21.4287 80.5066 20.3771 81.1805 19.4793C79.1234 19.4955 77.0682 19.3694 75.0346 19.1023C73.2605 18.4277 71.2675 17.6638 70.1328 16.3096C68.6986 14.5983 69.9139 12.8373 70.8067 12.0982C72.3965 10.8085 76.8375 10.501 79.7462 9.96029C76.8375 9.90573 73.7558 9.80653 70.9738 10.8978C67.8691 12.128 67.1031 15.9376 69.5395 17.8721C70.9623 18.9981 73.4218 21.5031 78.6576 22.7036C78.763 25.3285 79.3161 27.9257 80.2992 30.412C80.6643 31.9333 81.2066 33.419 81.9178 34.8466C82.1712 33.6512 81.624 24.1074 81.6355 23.3831C83.3488 23.8948 85.1103 24.2782 86.9002 24.529C89.9587 25.0796 93.4032 24.6629 96.4675 24.3405C100.499 23.9139 108.258 22.153 108.702 17.7283C106.162 18.7799 103.322 22.2422 98.6563 22.3762Z" fill="#BCB7BB"/>
<path d="M94.3999 34.3011C94.2386 32.8129 94.5036 32.0639 93.9737 30.6552C93.3574 28.9885 92.8217 27.5747 91.543 26.1908C92.7986 28.9339 92.5452 30.7395 93.1039 33.681C93.6799 36.8408 93.1039 42.6444 93.9737 45.0006C94.279 41.821 94.757 37.4509 94.3999 34.3011Z" fill="#BCB7BB"/>
<path d="M34.272 41.6622C34.6348 41.8706 35.3376 41.5233 35.7811 40.6702C37.8604 36.563 37.9526 31.1264 41.5007 27.8575C42.5951 26.8654 42.1631 28.0261 42.0767 28.4577C41.3913 32.9617 42.9407 35.2088 42.8255 39.2217C42.8255 40.0104 41.9097 42.3121 41.7772 43.2595C41.5699 44.8171 41.6678 46.3498 41.3049 47.8776L41.3395 47.9024C41.5212 48.0378 41.7137 48.1621 41.9155 48.2744C42.3126 47.7352 42.663 47.1715 42.9638 46.5879C43.7126 45.2188 44.8876 45.2833 44.8012 45.5958C44.7551 45.8339 44.7033 46.0919 44.6457 46.33C44.5123 47.0191 44.5025 47.7217 44.6169 48.4133C45.3779 48.4542 46.1356 48.532 46.8863 48.6465C47.1686 48.6862 48.2803 49.5542 49.1558 50.3132C50.6687 50.6869 52.1855 51.0539 53.7062 51.4144C53.5202 46.0361 52.529 40.7009 50.7571 35.5411C49.0291 30.4865 45.6307 25.0846 46.5523 17.9912C43.7529 20.3077 38.5171 25.4715 36.1843 28.7702C33.3685 32.7996 31.6951 37.3438 31.2998 42.0343C31.3016 42.1822 31.3585 42.3257 31.4622 42.4436C31.5659 42.5615 31.7109 42.6476 31.8758 42.689C32.139 42.2228 32.4763 41.7904 32.878 41.4043C33.2236 41.0769 33.7478 41.3349 34.272 41.6622Z" fill="#878286"/>
<path d="M46.9035 48.607C46.1527 48.4925 45.395 48.4147 44.6341 48.3738C44.5197 47.6822 44.5294 46.9796 44.6629 46.2905C44.7205 46.0424 44.7723 45.7944 44.8184 45.5563C44.9048 45.2339 43.7297 45.1694 42.9809 46.5484C42.6801 47.132 42.3297 47.6957 41.9326 48.235C43.3093 49.0038 45.0488 49.2816 46.5925 49.6586L49.1729 50.2836C48.2974 49.5197 47.1857 48.6516 46.9035 48.607Z" fill="#6D696D"/>
<path d="M37.8716 44.4006C39.4728 45.2141 39.974 46.8113 41.3275 47.8332C41.6904 46.3054 41.5925 44.7726 41.7999 43.215C41.9323 42.2676 42.8251 39.966 42.8482 39.1772C42.9634 35.1643 41.4139 32.9172 42.0994 28.4132C42.1685 27.9816 42.6005 26.801 41.5234 27.813C37.9752 31.0819 37.8831 36.5185 35.8037 40.6257C35.3602 41.5037 34.6517 41.8509 34.2946 41.6178C33.7704 41.3102 33.2405 41.0523 32.9007 41.3549C32.4989 41.7409 32.1616 42.1734 31.8984 42.6396C33.7992 43.1803 36.1032 43.5126 37.8716 44.4006Z" fill="#6D696D"/>
<path d="M60.3868 34.1225C61.5337 33.4135 62.7542 32.7975 64.0329 32.2822C65.5881 31.6523 67.7481 30.5759 68.9347 29.306C68.8943 29.2613 68.854 29.2117 68.8079 29.1671C64.6128 26.2442 60.2094 23.5504 55.6233 21.1015C53.2617 19.8663 49.512 17.7235 46.6493 17.9268L46.5686 17.9913C45.647 25.0847 49.0224 30.4866 50.7734 35.5412C51.6468 38.093 52.326 40.6912 52.8067 43.3191C53.7579 41.5751 54.8134 39.8747 55.9689 38.2248C57.128 36.6297 58.627 35.2378 60.3868 34.1225Z" fill="#999698"/>
<path d="M59.8855 27.0192C59.3722 26.7492 58.7788 26.6134 58.1775 26.6284C57.5763 26.6434 56.993 26.8084 56.4986 27.1035C55.8782 26.7867 55.2196 26.5289 54.5345 26.3347C53.6417 26.3 50.3354 27.0639 49.4023 26.0073C48.7226 25.2384 48.521 25.3773 48.6766 26.3297C48.8827 28.1842 49.8293 29.9198 51.355 31.2405C51.7236 31.5679 52.3457 31.1512 52.8295 30.9528C54.9377 30.0748 57.4836 28.4429 60.0065 28.5371C60.1338 28.4394 60.2335 28.3179 60.2979 28.182C60.3623 28.046 60.3897 27.8991 60.378 27.7526C60.3664 27.6061 60.3159 27.4638 60.2305 27.3367C60.1452 27.2096 60.0271 27.101 59.8855 27.0192Z" fill="#878286"/>
<path d="M74.3842 37.8824C72.9672 35.0351 71.2392 31.6918 68.9352 29.2612C68.649 29.5651 68.3329 29.8473 67.9906 30.1045C68.049 30.1341 68.0968 30.177 68.1288 30.2285C68.7048 31.3843 69.661 32.2722 69.6206 33.5867C69.5803 34.9012 68.843 36.0421 68.3765 37.2276C68.1729 37.9819 68.0324 38.7478 67.956 39.5193C67.7717 40.3279 67.38 40.8835 67.5989 41.7466C67.9263 43.2686 68.4101 44.7626 69.0446 46.2109C70.9858 45.6157 72.8981 44.8865 74.3381 43.6662C76.4232 41.945 75.4094 39.9013 74.3842 37.8824Z" fill="#6D696D"/>
<path d="M61.6713 33.7655C61.6355 33.7652 61.6003 33.7582 61.568 33.7451C61.5357 33.732 61.5071 33.713 61.4841 33.6894C61.4611 33.6658 61.4443 33.6383 61.4348 33.6086C61.4254 33.5789 61.4235 33.5478 61.4293 33.5175C61.078 33.7109 60.7266 33.9093 60.3868 34.1226C58.6352 35.2398 57.1442 36.6316 55.9919 38.2249C54.8285 39.8744 53.7653 41.5748 52.8066 43.3192C53.3002 45.9873 53.5984 48.6795 53.6994 51.3799C55.9113 50.229 59.615 49.0187 62.8693 48.0366C62.2933 46.2012 62.3509 44.2716 62.2933 42.342C62.2415 39.5592 61.1471 36.5433 61.6713 33.7655Z" fill="#6D696D"/>
<path d="M67.9906 30.1244C67.9467 30.0957 67.8916 30.0827 67.8368 30.0883C67.782 30.0938 67.7318 30.1175 67.6969 30.1542C66.8847 30.9677 65.4735 31.2505 64.4021 31.7465C63.3829 32.2279 62.4187 32.7909 61.5221 33.4281C61.4856 33.4492 61.4591 33.4808 61.4473 33.5174C62.2837 33.0584 63.1533 32.6458 64.0508 32.2822C65.47 31.7175 66.795 30.9918 67.9906 30.1244Z" fill="#5B575B"/>
<path d="M67.9561 39.5395C68.0325 38.7679 68.173 38.002 68.3766 37.2478C68.8432 36.0622 69.5862 34.8916 69.6208 33.6068C69.6553 32.3221 68.6877 31.4044 68.1289 30.2486C68.097 30.1971 68.0491 30.1542 67.9907 30.1246C66.7897 30.9932 65.4588 31.7189 64.0336 32.2824C63.1361 32.646 62.2665 33.0586 61.4301 33.5175C61.4242 33.5479 61.4261 33.579 61.4356 33.6087C61.445 33.6384 61.4618 33.6659 61.4848 33.6895C61.5078 33.713 61.5364 33.732 61.5687 33.7452C61.601 33.7583 61.6363 33.7653 61.672 33.7656C61.1478 36.5434 62.248 39.5593 62.3229 42.3421C62.3747 44.2717 62.3229 46.2013 62.8989 48.0366L65.9632 47.1339C66.9597 46.8461 68.008 46.5684 69.0505 46.2509C68.416 44.8026 67.9322 43.3086 67.6048 41.7865C67.4089 40.9036 67.7833 40.348 67.9561 39.5395Z" fill="#5B575B"/>
<path d="M66.3541 27.4657C65.0866 27.3955 63.8158 27.3823 62.5467 27.426C60.9526 27.5846 59.3886 27.918 57.8926 28.4181C56.6024 28.8199 55.5887 29.559 54.356 29.9906C52.6568 30.5809 50.9634 29.8021 50.0591 28.8894C49.0683 27.6294 48.6651 24.7623 48.2619 23.0708C48.0603 22.2325 46.413 19.3555 46.6491 17.8872C45.86 17.8872 40.5551 22.9518 39.5586 24.7028C41.1541 24.0431 43.1701 20.7345 44.8463 22.8526C45.8715 24.1472 46.4245 26.6373 46.7471 27.9419C47.2712 30.0451 48.2159 33.572 50.2031 35.9976C51.1016 37.0939 51.8965 39.7626 51.7928 40.591C51.5624 42.4015 51.5855 43.8103 53.2789 46.1168C53.5669 44.6833 54.3042 44.1079 54.8802 41.8856C55.4101 39.8469 57.1842 38.1504 58.5032 36.4887C60.3867 34.1077 64.5282 32.5204 66.8667 31.3845C67.5234 31.062 68.8539 30.6602 69.6257 30.0303C68.5659 28.438 67.2066 28.0213 66.3541 27.4657Z" fill="#A5A0A4"/>
<path d="M68.3994 28.6067C67.5239 28.0115 54.6964 19.8715 52.5191 19.1026C51.7473 18.8298 48.6311 17.1631 46.1831 17.9568C44.8583 18.3833 43.257 20.3675 42.3066 21.5084C43.1246 20.928 45.0254 19.9707 46.0103 20.1046C46.9953 20.2385 47.41 21.7812 47.8305 22.5551C48.5793 24.5839 48.9076 26.7714 49.8004 28.7506C50.5316 30.1196 51.6435 31.3122 53.0375 32.2229C53.3025 32.4064 54.3047 33.1455 54.0225 34.1822C53.7971 34.9831 53.817 35.8206 54.0801 36.6128C54.1549 36.8311 54.3047 36.7021 54.3969 36.4839C54.9037 35.2934 54.9729 34.0731 55.7332 32.9173C55.7751 32.8527 55.7859 32.7765 55.7633 32.7051C55.7407 32.6337 55.6864 32.5727 55.6122 32.5354C54.8058 32.1832 55.6468 31.6028 56.1191 31.2209C56.6951 30.7248 56.8737 30.0254 57.5361 29.6286C58.354 29.1325 60.6637 28.2049 62.8928 28.577C64.0909 28.7754 64.857 28.3885 65.9341 28.6762C67.3741 29.0631 68.9696 29.9064 69.6263 30.0353C69.8164 29.9262 68.6413 28.7655 68.3994 28.6067ZM60.1453 27.6147C58.8839 27.8875 55.4164 29.4401 54.898 29.6633C53.1066 30.4371 51.4017 29.8816 50.6701 28.8597C49.5642 26.3398 49.2071 24.0233 48.0148 21.558C47.9169 21.3249 47.6807 20.7048 47.5713 20.3378C47.4618 19.9707 47.6404 19.0976 48.0206 18.934C49.449 18.3139 53.2045 19.926 54.1722 20.4221C56.5338 21.6423 62.6855 25.8488 63.5149 26.4589C63.567 26.5098 63.6026 26.5716 63.6182 26.6381C63.6338 26.7047 63.6288 26.7735 63.6037 26.8379C63.5786 26.9022 63.5343 26.9597 63.4753 27.0046C63.4162 27.0496 63.3445 27.0803 63.2672 27.0938C62.4378 27.2774 61.1591 27.5006 60.1453 27.6345V27.6147Z" fill="#BCB7BB"/>
<path d="M72.287 50.2589C72.6739 50.1205 73.0725 50.0078 73.4793 49.9216C74.487 49.7255 75.4721 49.4516 76.4227 49.1031L76.5955 49.0337H76.63L76.8028 48.9593C76.7321 48.33 76.5105 47.7203 76.152 47.1686C75.5241 46.2955 74.3145 46.3501 73.2432 46.2162C72.9572 46.1617 72.6614 46.1574 72.3735 46.2034C72.0855 46.2494 71.8113 46.3448 71.567 46.484C71.2214 46.7519 71.2099 46.4295 71.3136 46.2509C71.5209 45.8789 71.8896 45.983 72.2409 45.7301C72.5923 45.4771 72.6153 45.1001 73.0128 44.9265C73.4102 44.7529 73.6579 44.986 74.3318 44.7727C75.2649 44.48 76.4572 45.6209 77.2118 46.0823C77.3785 46.1829 77.5364 46.2939 77.6841 46.4146C77.0403 45.3681 76.2554 44.3908 75.3456 43.5028C75.0675 43.3581 74.7789 43.2288 74.4816 43.1159C73.4102 42.7042 71.3539 41.4244 70.1558 41.3203C69.7699 41.2855 68.687 41.4195 67.6905 42.9473C67.2473 43.8125 67.0499 44.7563 67.1145 45.7003C67.08 47.4612 68.1456 53.5824 68.399 54.376C68.7101 55.3681 69.0441 56.5189 69.816 57.2977C70.1846 57.2977 70.5533 57.2977 70.9219 57.2977L70.8125 57.0398C70.1558 55.5219 69.5107 50.626 72.287 50.2589Z" fill="#878286"/>
<path d="M76.8085 48.959L76.6357 49.0334L76.8085 48.959Z" fill="#6D696D"/>
<path d="M76.6015 49.0483L76.4287 49.1178L76.6015 49.0483Z" fill="#6D696D"/>
<path d="M64.9028 42.7735C63.7969 45.1148 63.8545 49.2915 64.7531 51.3996C65.1386 50.4089 65.2741 49.3587 65.1505 48.3192C65.0872 47.0742 65.0065 45.2487 65.306 44.5344C65.8187 43.3191 67.1723 42.1931 68.2206 41.2705C69.5396 40.1098 70.6859 40.9778 71.1409 41.2159C72.1309 41.7078 73.163 42.134 74.2283 42.4908C73.9864 42.2923 73.7387 42.0939 73.4795 41.9054C71.354 40.3379 68.6123 39.4004 65.882 40.3379C64.4244 40.9206 63.024 41.6041 61.6945 42.3816C60.3114 43.0254 58.9833 43.7531 57.7201 44.5592C57.6297 44.6232 57.5432 44.691 57.4609 44.7626C59.4078 44.1326 60.4965 44.2418 62.5816 43.6713C62.7889 43.6068 64.6552 42.8429 64.9028 42.7735Z" fill="#BCB7BB"/>
<path d="M70.1556 41.315C71.3537 41.4191 73.41 42.6989 74.4814 43.1106C74.7787 43.2235 75.0673 43.3528 75.3454 43.4976C74.994 43.1503 74.6139 42.818 74.1934 42.5055C73.1282 42.1487 72.0961 41.7225 71.106 41.2306C70.651 40.9925 69.5047 40.1245 68.1857 41.2852C67.1374 42.2078 65.7838 43.3339 65.2712 44.5492C64.9716 45.2635 65.0523 47.0889 65.1156 48.3339C65.2392 49.3734 65.1037 50.4236 64.7182 51.4143C63.8196 49.3062 63.762 45.1295 64.868 42.7882C64.6376 42.8576 62.7713 43.6215 62.564 43.686C60.4788 44.2565 59.3902 44.1474 57.4433 44.7773C56.4929 45.5908 56.2049 46.6623 56.0436 47.8081C55.7902 49.579 55.2373 53.0711 55.94 54.0533C56.0295 54.171 56.1276 54.2836 56.2337 54.3906C56.084 53.8301 56.5275 53.2199 57.0747 52.4858C58.1057 51.0969 59.1195 49.832 60.7668 48.9441C61.1528 48.448 61.5041 47.952 61.9188 47.4559C61.9211 47.4517 61.9243 47.4479 61.9283 47.4447C61.9323 47.4416 61.9369 47.4391 61.942 47.4375C61.9471 47.4359 61.9525 47.4352 61.9579 47.4353C61.9633 47.4355 61.9686 47.4366 61.9736 47.4386C61.9785 47.4405 61.9829 47.4433 61.9866 47.4467C61.9902 47.4502 61.9931 47.4542 61.995 47.4585C61.9968 47.4629 61.9977 47.4676 61.9975 47.4722C61.9973 47.4769 61.996 47.4815 61.9937 47.4857C61.7172 48.7704 60.4443 50.0403 59.5976 51.087C59.1137 51.6822 58.6011 52.2675 58.1518 52.8826C57.586 53.5404 57.3196 54.3539 57.403 55.1694C57.6863 55.3034 57.9786 55.4227 58.2785 55.5265C58.3464 55.0867 58.55 54.6706 58.8681 54.3216C59.1862 53.9726 59.6072 53.7035 60.0872 53.5424C60.7691 53.3441 61.4633 53.1785 62.1665 53.0463C62.6272 52.8684 63.1314 52.79 63.6353 52.8181C65.0753 52.9818 65.2827 53.6564 66.0545 54.5543C66.3886 54.9313 67.0279 54.4303 67.2929 53.9937C67.4935 53.7341 67.7897 53.5402 68.1339 53.4432C67.7364 51.459 67.028 47.1186 67.0568 45.6801C66.9921 44.7361 67.1895 43.7923 67.6328 42.9271C68.6868 41.4142 69.7697 41.2802 70.1556 41.315Z" fill="#A5A0A4"/>
<path d="M62.5985 45.1346C61.8382 45.3231 60.98 45.3032 60.2945 45.6951C59.8337 45.963 59.7531 46.34 59.4881 46.7318C59.1483 47.2279 58.5205 47.5106 58.0769 47.9273C57.1841 48.7755 56.9768 50.0504 56.6715 51.1218C56.4929 51.7766 55.8997 53.0415 56.8443 53.473C56.8584 53.4795 56.8741 53.4832 56.8901 53.4839C56.9061 53.4846 56.922 53.4823 56.9369 53.477C56.9517 53.4718 56.965 53.4639 56.9759 53.4538C56.9868 53.4436 56.9949 53.4316 56.9998 53.4185C57.7049 52.1277 58.6814 50.9606 59.8798 49.9759C60.5998 49.3559 61.723 48.3886 61.9822 47.4957C62.2472 46.7048 62.6554 45.9549 63.1918 45.2735C63.5489 44.9411 62.8808 45.0453 62.5985 45.1346Z" fill="#969295"/>
<path d="M58.1868 52.8777C58.636 52.2626 59.1487 51.6773 59.6325 51.0821C60.4792 50.0354 61.7522 48.7656 62.0287 47.4808C62.0309 47.4766 62.0322 47.472 62.0324 47.4673C62.0326 47.4627 62.0318 47.458 62.0299 47.4537C62.0281 47.4493 62.0252 47.4453 62.0215 47.4418C62.0179 47.4384 62.0134 47.4356 62.0085 47.4337C62.0036 47.4317 61.9983 47.4306 61.9929 47.4304C61.9875 47.4303 61.9821 47.431 61.977 47.4326C61.9719 47.4342 61.9672 47.4367 61.9633 47.4398C61.9593 47.443 61.9561 47.4468 61.9538 47.4511C61.516 47.9223 61.1647 48.4431 60.8018 48.9392C59.1544 49.8271 58.1407 51.092 57.1096 52.4809C56.5624 53.215 56.1189 53.8252 56.2687 54.3857C56.6135 54.7097 57.0208 54.9799 57.4725 55.1843C57.3734 54.366 57.6277 53.5449 58.1868 52.8777Z" fill="#878286"/>
<path d="M67.3279 54.0087C67.0629 54.4452 66.4235 54.9462 66.0895 54.5692C65.3176 53.6714 65.1103 52.9968 63.6703 52.8331C63.1664 52.805 62.6622 52.8833 62.2015 53.0613C61.4983 53.1935 60.8041 53.3591 60.1221 53.5573C59.6421 53.7185 59.2211 53.9876 58.903 54.3366C58.5849 54.6856 58.3813 55.1017 58.3135 55.5415L58.4863 55.606C59.5404 54.4204 61.3663 54.5742 62.8812 54.8024C63.6397 54.8654 64.3488 55.155 64.8856 55.6209C65.3867 56.1169 66.1759 56.4344 66.7058 56.2657C67.3451 56.0623 67.7368 56.6526 68.2034 57.228C68.7333 57.2677 69.2632 57.2925 69.7874 57.3074C69.0155 56.5286 68.6815 55.3728 68.3704 54.3857C68.3243 54.2419 68.2495 53.9145 68.1631 53.473C67.8235 53.5671 67.5298 53.7555 67.3279 54.0087Z" fill="#969295"/>
<path d="M79.7696 51.6775C79.5161 49.8124 78.1453 47.1536 77.6845 46.4096C77.5367 46.2889 77.3789 46.1779 77.2121 46.0772C76.4691 45.6159 75.2768 44.475 74.3322 44.7677C73.6582 44.981 73.3357 44.7677 73.0131 44.9215C72.6906 45.0752 72.5523 45.4919 72.2413 45.725C71.9302 45.9582 71.5213 45.8739 71.3139 46.2459C71.2102 46.4245 71.2218 46.7419 71.5674 46.479C71.8116 46.3398 72.0859 46.2444 72.3738 46.1984C72.6618 46.1523 72.9575 46.1567 73.2435 46.2112C74.3149 46.3451 75.5475 46.2905 76.1523 47.1636C76.5108 47.7153 76.7324 48.325 76.8032 48.9543L76.6304 49.0287H76.5958L76.423 49.0981C75.47 49.4417 74.483 49.7107 73.4739 49.9017C73.0671 49.9879 72.6685 50.1007 72.2816 50.239C69.4938 50.6061 70.1504 55.502 70.784 57.0248L70.8934 57.2828C71.3082 57.2828 71.7286 57.2828 72.1491 57.2332C72.8636 57.1648 73.5681 57.0335 74.2515 56.8413C76.4057 54.6339 77.1315 49.1477 77.1776 49.1428C77.4788 48.903 77.8453 48.7324 78.2432 48.6467C78.3238 48.6219 78.3872 48.6914 78.3929 48.7509C78.3987 48.8104 78.3929 48.8947 78.3929 48.9642C78.9729 50.9822 79.1674 53.0681 78.9689 55.1399C79.2698 55.0026 79.5407 54.8213 79.7696 54.6042C79.9064 53.6322 79.9064 52.6495 79.7696 51.6775Z" fill="#6D696D"/>
<path d="M78.4276 48.964C78.4276 48.8945 78.4276 48.8201 78.4276 48.7507C78.4276 48.6812 78.3585 48.6217 78.2778 48.6465C77.8799 48.7321 77.5134 48.9027 77.2122 49.1425C77.2122 49.1425 76.4404 54.6337 74.2861 56.8411C75.6628 56.5782 77.1316 56.9651 77.9207 56.6823C78.8308 56.3599 79.4183 55.9036 79.3607 55.596C79.6314 53.7855 78.8768 50.4322 78.4276 48.964Z" fill="#5B575B"/>
<path d="M66.7117 56.2509C66.1818 56.4195 65.3927 56.0872 64.8915 55.606C64.3547 55.1401 63.6456 54.8506 62.8871 54.7876C61.3549 54.5594 59.5463 54.4056 58.4922 55.5911C59.9112 56.0577 61.3848 56.3904 62.8871 56.5832C64.6151 56.8362 66.4122 57.0793 68.192 57.2082C67.7427 56.6378 67.3511 56.0475 66.7117 56.2509Z" fill="#878286"/>
<path d="M78.4273 48.7063C78.1377 48.4864 77.7651 48.3647 77.379 48.364C77.1371 48.364 76.6993 48.1309 76.4516 48.1706C75.8756 48.2648 75.2478 48.6666 73.6868 48.6666C72.6961 48.6666 71.6651 48.5079 70.8068 48.9593C70.5128 49.1317 70.2844 49.375 70.1502 49.6587C69.7182 50.3085 69.2113 50.2291 69.05 50.5764C68.8369 51.0278 69.2286 51.7569 69.1134 52.1439C69.0788 52.2629 69.2113 52.2877 69.2977 52.1786C69.8737 51.504 70.4843 50.6458 71.3425 50.2291C72.1596 49.8318 73.0981 49.6587 74.0324 49.7331C75.1383 49.7331 75.7604 49.4107 76.6187 49.3561C77.8283 49.2668 77.6727 48.7559 78.4273 48.7063Z" fill="#A5A0A4"/>
<path d="M8.50724 41.474C8.64831 41.4859 8.79073 41.472 8.92508 41.433C9.05944 41.3941 9.18266 41.3311 9.28664 41.2481C9.39061 41.1651 9.47297 41.0641 9.52826 40.9517C9.58355 40.8392 9.61053 40.718 9.6074 40.596C9.6074 38.6912 8.5706 36.8806 9.67652 35.1395C10.4253 33.9441 11.9114 33.3191 11.9056 31.6673C11.8632 31.4407 11.7956 31.2181 11.704 31.0026C10.0452 31.1315 8.53028 31.9946 6.98085 32.7189C6.40485 32.9917 3.11013 34.7477 2.00997 36.9253C1.33141 38.3678 1.02103 39.9191 1.0999 41.474C2.16549 42.8827 7.00388 41.5037 8.50724 41.474Z" fill="#A5A0A4"/>
<path d="M17.5326 34.956C16.5362 36.9005 18.005 37.5255 16.8126 38.8499C16.3691 39.5047 16.1099 40.3381 16.4498 40.725C17.141 41.474 20.0728 42.0742 21.4321 41.598C22.9067 41.102 23.6267 39.6734 24.6174 38.6218C25.4238 37.7487 26.0113 36.8906 27.1057 36.2358C27.8478 35.9252 28.6184 35.668 29.4097 35.467C30.3717 34.9709 31.8001 34.3409 32.2897 33.3935C31.1953 32.6693 25.7579 31.9699 22.5669 32.3667C20.8043 32.585 19.059 33.1504 17.3022 32.7437C17.5156 33.0789 17.6463 33.4484 17.6859 33.8291C17.7256 34.2098 17.6734 34.5935 17.5326 34.956Z" fill="#A5A0A4"/>
<path d="M44.8987 50.3878C44.8526 46.9651 44.5185 44.8569 43.0555 42.7884C44.1729 45.1297 43.1764 46.9353 40.9416 48.3143C40.2043 48.7707 39.899 49.6883 38.9544 49.8372C37.5662 50.0604 36.2817 50.3778 35.2853 51.8213C34.9627 52.3174 34.0181 52.0545 33.4709 52.5307C32.5319 53.276 31.4702 53.8978 30.3201 54.3759C26.5819 55.9434 16.4616 59.1925 12.3029 56.6577C12.0955 56.5287 10.3099 54.7728 10.621 54.7628C14.077 54.6091 17.2334 53.0961 19.7333 51.2062C20.5339 50.601 21.7205 49.4502 22.717 49.1229C26.5186 47.8828 24.5832 47.3818 25.0958 46.0821C25.6373 44.7031 27.3653 44.5394 28.8456 44.0434C29.9976 43.6614 32.8085 43.2944 33.108 42.1981C33.3614 41.2606 33.9835 40.085 33.5169 39.2219C33.2347 38.701 31.8811 38.6564 31.2533 38.5026C30.6052 38.2923 29.9388 38.1265 29.2603 38.0066C29.1674 37.9804 29.085 37.932 29.0226 37.8672C28.9602 37.8023 28.9203 37.7236 28.9077 37.6401C28.895 37.5566 28.9101 37.4717 28.9511 37.3952C28.9921 37.3188 29.0573 37.2538 29.1394 37.208C30.1738 36.543 31.4442 36.2081 32.7336 36.2605C31.6565 35.953 30.5505 35.6851 29.4331 35.4272C28.6418 35.6283 27.8711 35.8854 27.1291 36.1961C26.0347 36.8508 25.4472 37.709 24.6408 38.582C23.6501 39.6535 23.0568 41.2309 21.5822 41.7467C20.2286 42.2428 17.1643 41.4541 16.4731 40.7051C16.1333 40.333 16.3925 39.4848 16.836 38.83C18.0283 37.5056 16.5595 36.8806 17.556 34.9361C17.6992 34.5693 17.7516 34.1808 17.7099 33.7955C17.6683 33.4102 17.5334 33.0367 17.3141 32.699L17.0664 32.6394C15.8683 32.3021 14.8834 31.5779 13.7026 31.191C13.0691 30.9784 12.386 30.8985 11.7096 30.9579C11.8027 31.1798 11.8702 31.4091 11.9112 31.6424C11.9112 33.3141 10.4309 33.9391 9.6821 35.1147C8.57618 36.8607 9.61298 38.6713 9.61298 40.5711C9.61585 40.6918 9.5893 40.8117 9.53504 40.923C9.48078 41.0342 9.40002 41.1345 9.29797 41.2172C9.19592 41.3 9.07485 41.3634 8.94259 41.4033C8.81032 41.4433 8.6698 41.4589 8.5301 41.4491C7.02674 41.4789 2.19411 42.8579 1.10547 41.4243C1.14018 42.8758 1.43152 44.3143 1.96947 45.6903C1.88883 46.598 1.80819 47.5058 1.74483 48.4135C1.57203 50.7747 1.31859 53.2152 2.24019 55.492C3.76083 59.2718 8.00018 61.3602 11.8594 63.1112C11.967 63.1627 12.0856 63.195 12.2081 63.2061C12.3306 63.2172 12.4544 63.207 12.5721 63.1759C12.6899 63.1449 12.7992 63.0938 12.8935 63.0255C12.9877 62.9573 13.0651 62.8734 13.1208 62.7788C13.3408 62.7823 13.5578 62.7343 13.7487 62.6399C14.9698 62.0645 16.692 63.503 18.4603 64.8324C24.6235 64.505 31.3397 62.764 36.9326 60.4871C39.1387 59.5893 44.8756 55.7698 44.8756 55.2985C44.8526 55.3233 44.9044 50.8193 44.8987 50.3878Z" fill="#999698"/>
<path d="M29.1396 37.2276C29.0576 37.2735 28.9923 37.3384 28.9513 37.4149C28.9103 37.4914 28.8953 37.5762 28.9079 37.6598C28.9206 37.7433 28.9604 37.822 29.0228 37.8868C29.0852 37.9517 29.1676 38 29.2606 38.0263C29.939 38.1461 30.6054 38.312 31.2535 38.5223C31.8814 38.6761 33.235 38.7207 33.5172 39.2416C33.9838 40.1146 33.3617 41.2902 33.1082 42.2178C32.8087 43.314 29.9863 43.6811 28.8458 44.0631C27.3655 44.5591 25.6375 44.7228 25.0961 46.1018C24.5835 47.4014 26.5188 47.9024 22.7172 49.1425C21.7207 49.4699 20.5342 50.6306 19.7335 51.2259C17.2337 53.1158 14.1003 54.6287 10.6212 54.7825C10.3102 54.7825 12.0958 56.5484 12.3032 56.6774C16.4619 59.2121 26.5822 55.9631 30.3204 54.3956C31.4704 53.9175 32.5321 53.2957 33.4711 52.5503C34.0183 52.0543 34.963 52.3172 35.2855 51.841C36.282 50.3528 37.5895 50.0552 38.9546 49.8568C39.8993 49.708 40.2045 48.7903 40.9418 48.334C43.1767 46.955 44.1732 45.1494 43.0557 42.8081C42.437 41.9559 41.7149 41.1627 40.9015 40.442C38.5975 38.3189 35.7521 37.1582 32.7338 36.3C31.4472 36.242 30.1771 36.5698 29.1396 37.2276Z" fill="#A5A0A4"/>
<path d="M17.7057 60.5118C16.3924 57.9819 13.3684 56.1764 11.0241 54.4105C6.35275 50.8886 2.29196 44.6087 2.32652 41.2307C2.32652 40.0699 1.84268 38.5868 1.99244 36.925C0.903799 38.9489 0.805879 41.7962 0.759799 42.7932C0.725263 45.277 0.842545 47.7606 1.11116 50.2338C1.307 52.714 1.25516 55.5265 3.10988 57.5901C5.09061 59.7962 7.53491 61.6622 10.3156 63.0912C12.8212 64.3263 18.4372 64.8571 18.4372 64.8571C18.4372 64.8571 18.2759 61.5882 17.7057 60.5118Z" fill="#878286"/>
<path d="M34.5015 49.2965C33.3548 49.8244 32.2468 50.4125 31.1838 51.0574C30.6539 51.4691 29.2311 51.7667 28.6091 52.0793C26.8274 52.9946 24.9369 53.743 22.97 54.3114C19.6753 55.249 14.5201 56.7321 11.45 54.7182C12.723 57.0248 16.634 61.0427 17.1467 64.381C17.1442 64.3908 17.1442 64.401 17.1467 64.4108C15.9947 64.009 14.0766 63.136 13.1147 62.0745C12.0664 60.9336 9.76237 59.1379 8.54702 58.7014C8.17838 58.5675 6.91693 58.2748 6.53678 57.8928C5.02766 56.37 4.6763 56.7073 4.07726 56.3551C2.46446 55.4226 1.52559 53.7708 1.19727 52.0644C1.58895 55.5863 2.6027 57.2182 3.29966 57.9672C6.65198 61.5735 9.28429 63.1112 12.6654 63.9545C14.5562 64.422 16.4802 64.7832 18.4254 65.0358C20.976 64.9025 23.5073 64.5704 25.9883 64.0437C28.0331 63.5477 37.0475 60.8244 38.8503 60.0258C41.7937 58.7113 47.0238 56.7569 47.3405 56.3154C47.549 54.7747 47.549 53.2182 47.3405 51.6775C47.23 50.8024 47.0374 49.9364 46.7645 49.0881C44.305 49.5147 40.4689 50.2191 38.5969 51.4691C37.179 50.8214 35.8111 50.0957 34.5015 49.2965Z" fill="#6D696D"/>
<path d="M38.4533 46.8559C37.2605 47.8091 35.9329 48.629 34.502 49.2964C35.8092 50.1005 37.1752 50.8312 38.5915 51.4839C40.4635 50.2339 44.2997 49.5295 46.7592 49.1029C45.9125 46.4491 44.2191 43.076 42.6351 41.7665C42.036 44.083 40.1007 45.3429 38.4533 46.8559Z" fill="#5B575B"/>
<path d="M33.7993 49.5296C32.8518 49.2729 31.8744 49.1065 30.8848 49.0336C31.1233 49.7866 31.3156 50.5499 31.4608 51.3203C31.9158 54.0783 32.8662 58.4335 32.9468 58.6568C33.0736 58.9941 34.6748 58.4881 34.8304 57.7887C34.9859 57.0893 34.0988 51.4443 33.7993 49.5296Z" fill="#5B575B"/>
<path d="M64.0327 56.871C59.897 53.4681 53.6647 48.0911 47.4036 48.6764C44.0533 49.0345 40.8082 49.9207 37.8305 51.2905C34.409 52.8828 30.5786 55.7896 28.2286 57.868C27.8945 58.1657 29.1329 58.5972 29.4382 58.6567C40.7701 60.9294 52.593 60.6303 63.7504 57.7887C63.8577 57.7628 63.9553 57.7133 64.0335 57.645C64.1117 57.5768 64.1679 57.4921 64.1964 57.3993C64.2249 57.3066 64.2248 57.2091 64.1961 57.1164C64.1674 57.0238 64.111 56.9391 64.0327 56.871Z" fill="#999698"/>
<path d="M55.3873 59.5495C54.8632 59.0833 53.9243 59.3065 53.308 59.3511C51.6376 59.4751 49.9672 59.5644 48.291 59.5892C44.6795 59.6438 40.8837 59.8224 37.3125 59.361C34.4325 58.9841 29.6114 58.2003 28.229 57.8729C28.0792 59.4156 27.82 60.7946 27.8027 62.3373C27.8027 62.9226 28.1483 64.7282 28.1483 64.7282C28.1483 64.7282 30.2738 65.6062 31.0283 65.8542L32.1803 66.2213C32.8658 65.5814 33.2114 65.3978 34.5189 65.5119C36.8229 65.7153 38.3781 66.4048 39.173 64.257C39.6683 62.9176 39.5013 61.1914 39.2421 59.8373C39.2349 59.8103 39.237 59.7822 39.2479 59.7562C39.2588 59.7303 39.2782 59.7075 39.3037 59.6908C39.3292 59.6741 39.3598 59.664 39.3917 59.6618C39.4237 59.6596 39.4557 59.6654 39.484 59.6785C40.9413 60.3035 41.4366 59.7182 42.5253 60.5466C43.3569 61.2051 43.9254 62.0732 44.1496 63.0268C44.3788 63.8735 44.687 64.703 45.0712 65.507C45.1241 65.5888 45.1818 65.6683 45.244 65.7451C47.1275 66.504 49.3451 65.249 51.004 66.7372H51.3841C51.4417 66.7372 51.4533 66.8165 51.3841 66.8265L51.0789 66.8661C51.0975 66.897 51.1092 66.9307 51.1134 66.9653L52.2654 66.7669C52.5073 66.7272 55.2261 64.624 55.2261 64.4157C55.2261 62.8829 55.6696 62.7192 55.6408 61.1815C55.6869 60.6954 55.802 59.9216 55.3873 59.5495Z" fill="#878286"/>
<path d="M51.4421 66.7917C51.4997 66.7917 51.4882 66.6974 51.4421 66.7024H51.0619C49.4031 65.2143 47.1855 66.4494 45.3019 65.7103C45.2397 65.6335 45.182 65.554 45.1291 65.4722C44.745 64.6682 44.4368 63.8387 44.2076 62.992C43.862 61.9999 44.2075 60.4572 43.8274 59.9314C43.0613 58.8749 40.9992 60.2786 39.542 59.6536C39.5137 59.6406 39.4817 59.6348 39.4497 59.637C39.4177 59.6391 39.3872 59.6492 39.3616 59.6659C39.3361 59.6827 39.3168 59.7054 39.3058 59.7314C39.2949 59.7573 39.2929 59.7854 39.3 59.8124C39.5592 61.1666 39.7263 62.8928 39.2309 64.2321C38.436 66.3799 36.8636 65.6905 34.5768 65.4871C33.2693 65.373 32.9237 65.5565 32.2383 66.1964C33.5148 66.5967 34.8191 66.9281 36.1436 67.1885C42.1109 68.3343 45.6015 67.8631 51.1829 66.9058C51.1787 66.8711 51.167 66.8375 51.1483 66.8065L51.4421 66.7917Z" fill="#6D696D"/>
<path d="M33.6032 36.5384C33.5168 36.3846 32.7622 33.8052 32.2784 33.3687C31.6045 33.9837 29.1795 34.321 28.5575 34.7328C26.2535 36.2655 25.4471 37.5255 23.3101 39.1971C22.5037 39.8321 22.0314 41.5037 20.5453 41.2359C19.0592 40.968 16.6516 40.2934 15.6436 41.5781C17.6884 42.0741 18.6906 42.5355 20.7181 42.7438C21.5591 42.8281 23.4023 42.4561 23.9264 41.9055C25.1879 40.5761 26.0922 39.589 27.8663 38.6564C29.6403 37.7239 32.4051 38.3191 33.6032 36.5384Z" fill="#6D696D"/>
<path d="M64.6907 57.0694C64.1788 56.9582 63.6516 56.9081 63.124 56.9206C60.5896 57.3521 58.7752 57.7787 56.2408 58.1954L55.9873 58.24C55.4113 57.9325 54.8353 57.6448 54.2305 57.362C54.1389 57.3195 54.0319 57.3086 53.9313 57.3316C53.8307 57.3547 53.7441 57.4099 53.6891 57.486C53.3992 57.8602 53.2172 58.2885 53.1581 58.7354C53.0989 59.1822 53.1645 59.6348 53.3492 60.0555C53.2974 60.1746 53.2513 60.2986 53.1937 60.4375L53.1419 60.5714C53.0645 60.622 53.0048 60.69 52.9692 60.7678C52.9337 60.8457 52.9237 60.9305 52.9403 61.0129C52.1051 62.7689 53.7064 65.4525 53.7294 65.1995C55.2155 65.4673 56.2638 66.6578 57.6116 66.385C59.8663 65.8087 62.0735 65.1027 64.2183 64.2719C64.7573 61.9009 64.9162 59.4775 64.6907 57.0694Z" fill="#6D696D"/>
<path d="M62.5992 56.5833C62.0232 55.244 61.0671 54.4553 60.1916 54.4008C58.1007 54.6141 55.2725 55.4474 53.1413 55.1399C51.8741 54.9563 50.3593 54.5099 49.0575 54.6736C48.5327 54.716 48.0408 54.9121 47.6636 55.2292C47.4735 55.373 47.5138 55.6756 47.3871 55.8244C46.7472 56.5597 45.8243 57.075 44.7836 57.2778C41.1011 58.2682 37.2593 58.7488 33.4018 58.7014C33.2521 58.7014 44.8009 60.4028 48.3317 60.1251C50.4629 59.9564 52.5365 59.5199 53.3314 57.7639C54.7788 58.257 56.3366 58.4631 57.8891 58.3669C59.4417 58.2708 60.9491 57.8748 62.2997 57.2083C62.4232 57.1477 62.5198 57.0533 62.574 56.9401C62.6282 56.8269 62.6371 56.7014 62.5992 56.5833Z" fill="#A5A0A4"/>
<path d="M64.6902 57.0693C62.0835 54.8659 59.2472 52.8733 56.2172 51.1168C55.9004 51.9899 59.5292 53.7756 61.5394 56.0772C61.839 56.4245 61.6662 57.0693 60.1974 57.2479C59.702 57.3074 57.3174 57.9126 55.7046 57.0693C54.5987 56.4989 53.9766 56.5733 52.6979 56.2707C52.6287 57.2082 52.4847 58.5574 51.5459 59.0733C51.2024 59.249 50.8214 59.3633 50.4255 59.4093C50.0297 59.4553 49.6271 59.4322 49.2419 59.3412C46.9881 59.423 44.731 59.4031 42.4796 59.2816C38.6032 59.0336 34.1161 58.6765 30.2627 58.235C35.037 59.4199 39.9391 60.1827 44.8931 60.5118C46.5289 60.5962 51.1599 59.9811 51.183 61.3402C51.183 62.243 50.5724 64.4206 51.8166 65.9435C53.1471 65.9683 52.2428 62.8482 52.6575 61.4097C52.7497 61.2261 52.8534 61.0475 52.9628 60.864C52.9948 60.8105 53.0088 60.7504 53.0031 60.6904L53.2854 60.5168C53.3493 60.4978 53.4053 60.463 53.4466 60.4169C53.4878 60.3707 53.5124 60.3151 53.5173 60.257C53.5222 60.199 53.5072 60.1409 53.4742 60.0901C53.4411 60.0393 53.3915 59.9979 53.3315 59.9711C53.4268 59.9752 53.5201 59.9468 53.5913 59.892C53.6624 59.8372 53.7057 59.7605 53.7116 59.6785C53.7808 59.1195 53.7808 58.5558 53.7116 57.9969C53.9776 58.1832 54.2698 58.3399 54.5814 58.4632C54.6336 58.4855 54.6903 58.499 54.7484 58.5029C54.9788 58.6368 54.9039 58.7856 55.1516 58.9146C55.3993 59.0435 63.7513 57.7886 64.6902 57.0693Z" fill="#BCB7BB"/>
<path d="M39.5879 39.3558C40.7399 40.1396 41.9898 42.1436 40.9991 43.7755C39.7204 45.8688 36.0686 47.8381 35.5387 48.1853C34.0641 47.9075 33.3499 47.6545 33.2865 48.0415C33.2865 48.1208 33.7127 48.5375 33.7819 48.6367C33.851 48.7359 33.5227 48.9591 33.2462 48.8401C32.4801 48.5226 31.3857 47.9968 30.7751 47.6794C30.6599 47.6198 29.6231 47.0643 29.4331 47.6794C29.1047 48.9244 29.5022 49.5891 28.4942 50.5762C27.3577 51.5684 26.0381 52.3915 24.5889 53.0118C23.2008 53.6864 18.2241 55.7152 15.1828 55.3928C13.7149 55.1454 12.3224 54.6387 11.0933 53.9047C9.26158 52.7737 6.61774 49.9363 5.26414 48.0564C3.97612 46.3023 3.05227 44.3687 2.53391 42.342C3.10991 42.6545 8.05198 42.7686 9.51501 40.958C7.6603 41.5037 5.16046 41.9501 3.68591 40.8241C3.51835 40.688 3.38919 40.5207 3.30832 40.335C3.22745 40.1492 3.19702 39.95 3.21935 39.7526C3.32879 38.5969 4.4923 37.4461 5.08558 36.6921C5.8747 35.7 6.60622 34.4351 7.55086 33.4281C8.78926 32.8626 10.7707 31.94 11.5195 31.0074C5.7595 31.5035 3.41518 35.2238 1.83119 36.9153C0.754069 39.956 1.61807 43.8598 3.26542 46.9105C4.48309 49.0128 6.09659 50.927 8.04046 52.5753C8.69134 53.1556 12.994 57.6547 13.9444 58.4732C14.3534 58.9345 16.0987 61.7024 16.2484 61.7768C16.2484 60.8443 15.851 58.4732 16.9742 56.7817C20.8818 55.6154 24.7139 54.2692 28.4539 52.7489C29.5469 52.2799 30.5589 51.6823 31.4606 50.9731C31.6564 50.3927 31.138 49.2766 31.1323 49.2121C31.9387 49.5296 33.5975 50.0256 33.8798 49.9165C34.162 49.8074 42.9057 45.3827 43.0958 43.0563C43.2167 41.7566 40.8666 39.7576 39.5879 39.3558Z" fill="#BCB7BB"/>
<path d="M32.2783 33.3685C29.623 31.3297 24.0473 31.8803 20.839 32.6194C22.855 32.7831 26.3168 32.3565 28.7993 32.9369C29.8015 33.175 29.9513 33.7802 28.7417 34.2861C28.0851 34.5639 27.4399 35.3576 26.8928 35.7743C26.0345 36.434 23.9091 38.5025 23.8457 38.5521C22.8953 39.3309 22.4979 39.9906 21.2652 40.3527C20.8153 40.4394 20.3593 40.5007 19.9001 40.5363C18.7481 40.6255 17.5558 40.5363 16.7148 40.938C17.9417 41.0075 19.9635 42.0541 21.9392 41.5283C22.8723 41.2754 23.8169 40.5362 24.6233 39.4251C25.3287 38.4706 26.1121 37.5605 26.9676 36.7019C28.0802 35.9444 29.2741 35.28 30.5331 34.7177C31.0698 34.5432 31.5931 34.3394 32.0998 34.1076C32.3129 34.0084 32.4627 33.5074 32.2783 33.3685Z" fill="#BCB7BB"/>
<path d="M55.2432 58.2797C55.1453 57.9771 53.233 57.2628 53.256 57.6199C53.2791 57.9771 53.1178 59.1081 53.0487 59.986C52.369 60.7648 51.9658 62.3522 51.8967 62.8333C51.6271 64.1514 51.684 65.5038 52.0637 66.8016C52.9623 66.6494 53.8405 66.4184 54.6845 66.1121C55.4564 66.3056 56.4125 66.6578 57.2708 66.5536C56.9655 64.5744 55.8711 60.2985 55.2432 58.2797Z" fill="#5B575B"/>
<path opacity="0.5" d="M92.3727 13.3435C88.1564 12.7829 83.0243 12.029 78.9174 13.398C78.4837 13.4721 78.0742 13.6274 77.7179 13.8528C77.3616 14.0783 77.0671 14.3684 76.8553 14.7026C76.2793 15.8286 77.2931 16.9596 78.3932 17.5598C81.7571 19.3803 86.6358 19.9011 90.5871 19.7721C92.5925 19.7419 94.5818 19.4578 96.4911 18.9289C97.7526 18.5469 99.9183 17.7582 100.385 16.6025C101.364 14.1669 93.8588 13.5419 92.3727 13.3435Z" fill="#6D696D"/>
<path opacity="0.5" d="M50.3598 51.8906C46.5755 51.335 41.9559 50.586 38.2638 51.9452C37.8618 52.0276 37.4864 52.1867 37.1654 52.4108C36.8444 52.6349 36.5859 52.9182 36.4091 53.2398C35.9022 54.351 36.8065 55.472 37.7972 56.0673C40.8212 57.8728 45.2046 58.3838 48.7412 58.2597C50.5522 58.2271 52.3453 57.9441 54.0519 57.4214C55.2039 57.0444 57.1335 56.2657 57.5482 55.1198C58.4468 52.7091 51.6961 52.0791 50.3598 51.8906Z" fill="#6D696D"/>
<path d="M78.612 12.9616C79.2381 11.3532 80.2005 9.85702 81.4516 8.54681C81.8949 8.11657 82.3785 7.7184 82.8974 7.35632C83.0267 7.40209 83.1622 7.43376 83.3006 7.45057C83.6001 7.5349 83.8766 7.63906 84.1876 7.74323C84.212 7.75299 84.2385 7.75805 84.2654 7.75805C84.2923 7.75805 84.3188 7.75299 84.3432 7.74323H84.3892C84.4222 7.75076 84.4567 7.75174 84.4901 7.74609C84.5235 7.74045 84.5551 7.72832 84.5822 7.71064C84.6094 7.69296 84.6316 7.67018 84.6471 7.64403C84.6625 7.61788 84.6709 7.58904 84.6715 7.5597C84.6611 7.35073 84.6185 7.14389 84.5448 6.94461C84.4945 6.74427 84.4732 6.53933 84.4814 6.33448C85.426 5.78884 86.4168 5.30272 87.3614 4.84636C89.1758 3.97333 93.2366 2.05366 95.46 4.42969C96.6119 6.80572 95.7652 10.2532 94.6651 12.2026C93.8166 13.6818 92.6042 14.9841 91.1121 16.019C89.62 17.0538 87.8841 17.7963 86.0251 18.1948C83.3121 17.9269 81.1867 17.3615 79.8331 16.6025C78.2664 15.7543 78.0187 14.3803 78.612 12.9616Z" fill="#999698"/>
<path d="M96.6117 13.2094C95.5633 13.9138 95.1429 15.0993 94.1233 15.8483C92.5854 16.9743 91.5083 17.7581 90.5982 18.3881C89.0595 18.4176 87.5201 18.3597 85.9902 18.2145C87.8493 17.8159 89.5852 17.0734 91.0773 16.0386C92.5694 15.0038 93.7818 13.7015 94.6302 12.2223C95.7304 10.2728 96.5483 6.82537 95.4251 4.44934C95.5636 4.5945 95.6888 4.74874 95.7995 4.91065C97.8048 7.14854 99.1685 9.76243 99.7797 12.5398C99.684 12.5074 99.5859 12.4809 99.4859 12.4604C98.9729 12.4112 98.4536 12.4522 97.9595 12.581C97.4655 12.7097 97.0069 12.9235 96.6117 13.2094Z" fill="#878286"/>
<path d="M94.3369 18.1897C93.0313 18.3055 91.7852 18.3716 90.5986 18.3881C91.5087 17.7582 92.5858 16.9744 94.1237 15.8484C95.1433 15.0994 95.5637 13.9139 96.6121 13.2095C97.008 12.923 97.4676 12.7088 97.9627 12.58C98.4578 12.4513 98.9781 12.4106 99.4921 12.4605C99.592 12.481 99.6902 12.5075 99.7858 12.5398C100.032 13.6004 100.192 14.6744 100.264 15.7542C99.4633 16.275 96.422 18.0062 94.3369 18.1897Z" fill="#6D696D"/>
<path d="M85.2764 6.27469C85.956 5.49094 87.4191 5.03459 88.4328 4.69232C89.8784 4.1734 91.4349 3.92322 93.0005 3.95817C93.5765 3.95817 95.3736 4.81633 95.1375 5.12884C96.1051 6.86002 94.9992 7.41557 94.141 9.56839C93.3576 11.5277 92.1826 12.996 90.2357 11.5525C89.2104 10.7936 87.1253 9.12691 85.9676 8.54654C84.3432 7.73304 84.5967 7.06339 85.2764 6.27469Z" fill="#A5A0A4"/>
<path d="M80.3809 9.77194C81.0698 8.72454 81.987 7.80155 83.0823 7.05365C83.4433 7.21947 83.8144 7.36849 84.194 7.50008C84.1767 7.09971 84.1882 6.6988 84.2285 6.29966C85.3755 5.62435 86.5832 5.02887 87.8401 4.51888C89.522 3.85418 91.6589 2.72322 93.5597 3.19446C94.1985 3.38401 94.7962 3.66397 95.328 4.02284C96.0826 4.5536 98.8301 8.53681 99.072 10.1489C98.496 9.08245 97.01 7.09829 96.5146 7.60425C96.1172 8.00108 95.76 10.0844 95.4836 10.8087C94.3316 13.7849 90.6106 17.8326 86.6132 18.0757C87.678 17.6685 88.7095 17.1994 89.7005 16.6719C91.8951 15.5111 93.4618 13.3285 94.3085 11.1509C94.9133 9.60825 95.5124 7.43064 94.5677 5.89292C94.2702 5.38715 93.803 4.97007 93.2268 4.69586C92.6506 4.42164 91.9919 4.30295 91.3364 4.35519C89.7984 4.44944 87.3044 5.5804 86.3828 5.91275C85.4612 6.2451 84.7239 6.46832 85.081 7.54969C85.3296 7.9071 85.6232 8.23981 85.9565 8.54177C85.2308 8.54177 84.05 8.04573 83.2897 7.9366C83.1053 8.15982 81.3773 9.82154 80.3809 9.77194Z" fill="#BCB7BB"/>
<path d="M85.7021 54.361C86.0636 54.9669 86.5084 55.5331 87.0269 56.0475C87.0269 56.0475 86.4106 55.358 85.7021 54.361Z" fill="#6D696D"/>
<path d="M88.5713 55.7994L87.0276 56.0475C86.3537 56.7568 85.7949 58.0763 85.2305 59.1378C86.2212 58.0366 87.0852 56.6576 87.3905 56.3848C87.7493 56.1417 88.147 55.9446 88.5713 55.7994Z" fill="#6D696D"/>
<path d="M93.3751 54.8175C93.7265 54.2172 90.4548 55.0704 88.5713 55.8095C89.9882 55.5863 92.0273 55.254 93.2542 55.0506C93.2895 54.971 93.3299 54.8932 93.3751 54.8175Z" fill="#5B575B"/>
<path d="M78.6638 61.8263C77.9956 61.9156 77.385 62.9176 77.195 63.5476C77.0243 64.0803 76.9068 64.6246 76.8436 65.1746C76.8033 65.998 78.2548 65.9633 79.0094 66.0178C79.1785 66.0188 79.347 66.0005 79.5105 65.9633C79.3895 65.2192 78.6062 64.7579 78.5428 64.1726C78.4794 63.5872 78.3239 62.4563 78.6638 61.8263Z" fill="#999698"/>
<path d="M80.8405 64.6588C80.5813 63.2748 79.3256 61.8115 78.7669 61.8065C78.7324 61.8042 78.6978 61.8042 78.6632 61.8065C78.3234 62.4365 78.4732 63.508 78.5423 64.1528C78.6114 64.7977 79.389 65.1995 79.51 65.9435C80.1263 65.8294 80.9903 65.4723 80.8405 64.6588Z" fill="#6D696D"/>
<path d="M79.7179 62.3821C79.5935 62.1521 79.3932 61.9589 79.1419 61.8265C78.9403 61.7174 78.7445 61.5983 78.4507 61.7868C78.0348 62.0581 77.7123 62.4216 77.5176 62.8384C77.6789 62.8384 77.8401 62.4515 78.2433 62.1489C77.9669 62.8235 78.3413 63.9694 78.6293 64.4605C78.6293 64.0984 78.4968 63.523 78.5198 63.146C78.5437 62.8069 78.6252 62.4726 78.7617 62.1539C78.8942 61.9108 79.0497 62.1787 79.2225 62.2382C79.3771 62.3007 79.5175 62.3864 79.6373 62.4912C79.7409 62.6152 79.9656 63.0617 80.1672 63.0617C80.1441 63.0368 79.8158 62.4962 79.7179 62.3821Z" fill="#BCB7BB"/>
<path d="M40.1353 54.4753C40.3945 54.257 40.6422 53.4286 40.9302 53.1905C41.5062 52.6945 41.3103 53.4237 41.3622 53.7957C41.4313 54.2917 41.3218 54.6886 41.6559 55.0556C41.7538 55.1648 42.1167 54.9217 42.5545 55.3433C43.2226 55.9832 43.7929 56.4297 46.2351 56.6033C45.7693 55.7924 45.5156 54.9035 45.4921 53.9991C45.481 53.5718 45.5783 53.1475 45.7773 52.756C45.9762 52.3645 46.2721 52.0151 46.6441 51.7322C49.2994 49.6041 52.5653 48.0962 55.5721 46.3501C55.3799 45.6445 55.0466 44.9731 54.5871 44.366C52.8479 42.983 50.9376 41.7687 48.8905 40.7449C45.9961 41.3676 43.2987 42.5367 40.9935 44.1675C40.2266 44.8437 39.5036 45.5558 38.8278 46.3005C38.8278 46.3005 38.3324 50.9931 38.367 52.7193C38.367 53.0318 38.367 53.5278 38.367 53.8999C38.9314 54.0983 40.0374 54.5596 40.1353 54.4753Z" fill="#878286"/>
<path d="M53.2855 43.0067C52.1335 42.2478 50.1233 40.7448 48.7524 40.2983L48.5162 40.3331C48.518 40.3604 48.5077 40.3874 48.4874 40.4085C48.4671 40.4297 48.4383 40.4434 48.4068 40.4471C47.8033 40.5599 47.2118 40.7159 46.6385 40.9134C46.0625 41.1366 45.4461 41.4095 44.8414 41.6922C44.5072 41.8685 44.186 42.0623 43.8794 42.2726C43.8865 42.2945 43.8865 42.3176 43.8794 42.3394C43.8723 42.3613 43.8584 42.3811 43.8391 42.3966C43.6954 42.5001 43.5434 42.5945 43.3841 42.6793L43.027 42.9273C42.9057 42.9185 42.7907 42.8769 42.6986 42.8083C42.1979 43.0839 41.724 43.3941 41.2817 43.7359C40.579 44.3262 39.45 45.0454 38.8164 46.2806C40.5479 49.006 42.8233 51.4474 45.5383 53.493C46.9553 52.6349 52.9457 48.478 55.5607 46.35C55.1921 45.1347 54.8119 43.9839 53.2855 43.0067Z" fill="#999698"/>
<path d="M51.2919 42.6544C50.4394 41.836 49.3566 40.8935 48.0951 40.5215C46.6206 40.834 45.6817 42.456 46.1598 43.0017C46.8452 43.7705 46.0964 44.2219 46.0388 44.7329C46.0317 44.9416 46.0758 45.1493 46.1681 45.3425C46.2604 45.5356 46.3988 45.7099 46.5745 45.8539C46.7997 45.9979 47.0456 46.1163 47.306 46.2061C47.6163 46.2865 47.898 46.4333 48.1246 46.6328C48.3512 46.8323 48.5155 47.078 48.602 47.347C48.9476 48.2349 49.2183 49.1427 49.4602 50.0504C49.4673 50.073 49.4803 50.0938 49.4981 50.1114C49.5159 50.129 49.5382 50.1429 49.5632 50.152C49.5881 50.161 49.6152 50.1651 49.6423 50.1638C49.6693 50.1626 49.6957 50.156 49.7194 50.1447C51.0903 49.3708 52.5994 48.468 53.0717 47.0295C53.5844 45.3827 52.5015 43.8102 51.2919 42.6544Z" fill="#A5A0A4"/>
<path d="M47.9973 52.486C47.7635 52.0538 47.5709 51.6058 47.4213 51.1467C47.1621 51.3352 46.9029 51.5287 46.6494 51.7321C46.2774 52.0149 45.9816 52.3644 45.7826 52.7559C45.5837 53.1474 45.4863 53.5717 45.4974 53.999C45.521 54.9034 45.7746 55.7923 46.2405 56.6032C43.7982 56.4296 43.228 55.9831 42.5598 55.3432C42.1221 54.9216 41.7592 55.1647 41.6613 55.0555C41.3272 54.6885 41.4366 54.3115 41.3675 53.7956C41.3157 53.4236 41.5288 52.7043 40.9355 53.1904C40.6475 53.4285 40.3998 54.2569 40.1406 54.4752C40.0312 54.5694 38.9253 54.0982 38.3435 53.8799C38.3266 54.0488 38.3562 54.2188 38.4299 54.376C41.0737 57.5754 45.3073 57.8879 49.42 57.0198C49.1112 56.2407 48.9365 55.4268 48.9016 54.6041C48.8718 53.8328 48.5548 53.0902 47.9973 52.486Z" fill="#6D696D"/>
<path d="M54.5637 48.8848C53.7631 49.8521 53.6594 51.1319 53.5154 52.3125C53.4102 53.4678 53.3986 54.628 53.4808 55.7847C54.9259 55.2314 56.3184 54.5813 57.6453 53.8403C57.3976 52.8085 56.453 48.8402 55.5602 46.3451L54.8459 46.7518C54.9208 47.5455 54.9093 48.4632 54.5637 48.8848Z" fill="#6D696D"/>
<path d="M53.5156 52.3122C53.6596 51.1317 53.7633 49.832 54.564 48.8846C54.9096 48.463 54.9211 47.5453 54.8462 46.7566C52.3291 48.1703 49.691 49.4749 47.4043 51.1465C47.5539 51.6057 47.7465 52.0536 47.9803 52.4859C48.5364 53.0854 48.8553 53.8223 48.8904 54.5891C48.9253 55.4118 49.1 56.2257 49.4088 57.0048C50.7916 56.7024 52.1408 56.2957 53.4408 55.7895C53.3717 54.6303 53.3967 53.4684 53.5156 52.3122Z" fill="#5B575B"/>
<path d="M53.6192 43.081C52.1734 42.1237 50.4512 40.8538 48.7923 40.2189C47.7083 40.3476 46.6465 40.5891 45.6301 40.9381C43.9021 41.8856 41.9897 42.7487 40.7571 44.1574C41.9494 43.4828 43.1533 43.3539 44.0749 42.5999C44.8467 41.9699 46.8339 40.7794 47.9974 40.834C48.6828 41.33 49.7254 42.4163 50.4512 42.8479C50.9235 43.5969 51.9315 44.5443 51.9776 45.4124C52.0352 46.4888 52.1158 47.4958 51.2057 48.344C50.1286 49.3361 47.9629 50.1298 46.8569 50.854C45.9181 51.4691 45.0713 51.9155 44.2477 51.5187C43.0957 50.9581 41.9897 49.351 41.7766 49.1228C42.2088 48.6454 42.7424 48.2431 43.3491 47.9373C42.5756 47.9377 41.8197 48.1363 41.1776 48.5077C40.4864 48.1555 40.6534 47.6744 39.3574 47.1188C39.3574 47.5851 41.1949 49.3559 42.8134 51.3351C43.4643 52.1238 44.5126 52.7092 44.7661 53.4929C45.0255 54.1608 45.3432 54.8108 45.7165 55.4374C45.9133 55.335 46.0744 55.1888 46.1828 55.0142C46.2913 54.8397 46.3431 54.6431 46.3328 54.4453C46.3328 53.984 46.7129 53.9889 46.9088 53.731C47.1046 53.4731 47.0701 53.235 47.1449 53.0167C47.2661 52.7371 47.435 52.4746 47.6461 52.2379C48.6137 51.4145 51.0675 50.3431 51.6205 49.9462C53.0086 48.9541 54.8633 47.8728 55.5142 46.3301C55.8022 45.7795 54.8806 43.9144 53.6192 43.081Z" fill="#BCB7BB"/>
<path d="M73.7159 67.6796C73.6064 67.6796 73.6525 67.1835 73.5431 67.1488C73.1927 67.0368 72.8325 66.9488 72.466 66.8859C71.7287 66.7222 70.8071 66.8859 70.0525 66.8611C68.9234 66.814 67.8014 66.6795 66.7002 66.4593C67.2244 66.499 67.3741 66.256 67.2762 66.1617C67.7543 65.1944 67.9732 64.6736 69.2231 64.6736C70.8249 64.7343 72.3944 65.0824 73.8311 65.6954C74.1536 65.8145 74.6835 65.9633 75.1559 66.1915C75.2307 66.4296 75.3459 66.6875 75.3747 66.8611C75.5245 67.3373 74.2112 67.7193 73.7159 67.6796Z" fill="#878286"/>
<path d="M76.1988 67.2183C76.1988 67.9474 74.9835 68.3294 74.3556 68.5427C72.9099 69.0387 71.4123 68.9792 69.9031 68.999C69.0391 68.999 67.7719 69.0387 67.0231 68.6022C66.6757 68.3781 66.4389 68.0495 66.3599 67.6819C66.2809 67.3142 66.3655 66.9344 66.5969 66.6181C67.7387 66.7835 68.8951 66.8632 70.0529 66.8562C70.8075 66.881 71.7291 66.7173 72.4663 66.881C72.8329 66.9439 73.1931 67.0318 73.5435 67.1439C73.6529 67.1835 73.6068 67.6697 73.7163 67.6746C74.2116 67.7143 75.5249 67.3324 75.4443 66.8264C75.4155 66.6577 75.3003 66.3948 75.2254 66.1567C75.7495 66.4097 76.2103 66.7371 76.1988 67.2183Z" fill="#6D696D"/>
<path d="M67.6218 65.5515C68.6298 65.7698 69.6723 66.3849 70.7149 66.4394C71.239 66.4642 72.1779 66.3303 72.633 66.5783C72.8632 66.8426 73.1803 67.0413 73.543 67.1488C72.8979 67.5952 71.4349 67.1736 70.663 67.1488C70.0734 67.1962 69.4809 67.2128 68.889 67.1984C68.0914 67.109 67.3144 66.9149 66.585 66.623C66.6829 66.37 67.161 66.3005 67.305 66.1616C67.386 65.9495 67.4922 65.745 67.6218 65.5515Z" fill="#999698"/>
<path d="M67.9102 65.1399C68.7569 64.1479 70.9975 64.6836 71.6657 64.8622C72.708 65.109 73.7089 65.4708 74.6436 65.9386C75.041 66.1618 74.1713 65.9138 74.0676 65.889C73.146 65.6905 71.7981 65.1846 70.8593 65.0209C70.3063 64.9266 68.2615 65.3185 67.9102 65.1399Z" fill="#BCB7BB"/>
</svg>
