<svg width="161" height="96" viewBox="0 0 161 96" fill="none" xmlns="http://www.w3.org/2000/svg">
<path d="M130.627 66.0335C130.387 60.67 128.325 45.7106 127.492 40.8701C126.292 41 125.16 41.4219 124.229 42.0863C122.224 43.3877 120.798 44.7985 118.722 45.4187C119.851 51.293 119.654 57.5809 119.837 63.4916C119.964 67.7605 120.106 72.0051 120.247 76.2861C123.566 74.924 128.636 72.0659 130.57 71.8956C130.669 69.9254 130.712 67.8578 130.627 66.0335Z" fill="#878286"/>
<path d="M144.41 64.4769C144.41 63.1634 144.311 61.8621 144.212 60.5607C143.224 55.9634 142.037 50.3689 140.992 46.4405C140.456 44.446 139.425 39.5811 139.382 39.423L138.69 38.7297C137.132 39.5297 135.442 40.1202 133.677 40.4811C134.383 46.0878 136.642 54.1513 137.504 58.7242C137.899 60.8769 138.521 63.0296 138.831 65.1945C139.142 67.3593 138.351 70.3147 138.323 72.5769C139.51 72.7004 140.712 72.6552 141.882 72.4431C143.012 72.1877 143.506 70.935 144.255 70.0107C143.845 68.2472 144.438 65.7296 144.41 64.4769Z" fill="#878286"/>
<path d="M140.992 46.4408C142.15 50.7584 143.463 57.1069 144.494 61.911C145.278 58.2712 145.516 54.5597 145.201 50.8678C144.729 45.6475 143.784 40.467 142.376 35.3733C140.963 35.6607 139.52 35.8277 138.069 35.8719C138.069 37.2949 137.645 38.0854 138.859 38.6449L138.69 38.73L139.382 39.4111C139.424 39.5814 140.455 44.4462 140.992 46.4408Z" fill="#5B575B"/>
<path d="M138.832 65.2312C138.521 63.0664 137.9 60.9137 137.504 58.761C136.643 54.1515 134.383 46.0881 133.677 40.5178C132.319 40.7759 130.929 40.8903 129.539 40.8584C128.856 40.8449 128.172 40.8652 127.491 40.9192C128.324 45.784 130.386 60.7191 130.626 66.0826C130.711 67.8947 130.626 69.9623 130.626 71.9569H130.739C133.301 72.0548 135.852 72.2905 138.38 72.6623C138.394 70.3515 139.142 67.3231 138.832 65.2312Z" fill="#6D696D"/>
<path d="M118.72 45.4433C117.778 45.7262 116.777 45.834 115.783 45.7595C113.198 45.6014 107.606 44.6406 107.634 44.7379C108.044 46.2703 107.804 47.4987 106.222 47.9122C105.589 48.0463 104.939 48.1157 104.287 48.1189C106.344 55.178 107.509 62.4078 107.761 69.6823C107.888 72.0296 107.945 74.3891 107.973 76.7364C107.825 78.1808 107.825 79.6338 107.973 81.0782L108.411 80.9445C110.529 80.2512 112.266 77.4418 112.266 77.4418C114.555 77.5991 116.858 77.3507 119.031 76.712C119.446 76.582 119.851 76.4317 120.246 76.262C120.104 71.9931 119.963 67.7486 119.836 63.4675C119.652 57.5811 119.85 51.3176 118.72 45.4433Z" fill="#6D696D"/>
<path d="M150.37 58.0794C150.512 55.2456 150.031 53.4943 152.757 54.2118C154.169 54.5767 153.52 50.7578 153.816 48.6416C154.085 46.7565 155.553 44.9322 155.483 43.047C155.356 39.6173 155.158 36.1998 155.186 32.7822C150.568 33.7065 145.837 34.7647 142.377 35.3728C143.785 40.4664 144.73 45.647 145.201 50.8673C145.516 54.5592 145.279 58.2706 144.495 61.9104C144.411 61.4848 144.312 61.0226 144.213 60.5605C144.312 61.8618 144.396 63.1632 144.411 64.4767C144.425 65.7902 143.846 68.2469 144.255 70.0956C144.523 69.7265 144.925 69.4443 145.399 69.2928L150.173 67.955C150.102 64.8172 150.215 60.9253 150.37 58.0794Z" fill="#6D696D"/>
<path d="M160.383 48.2286C160.199 43.8259 160.383 37.5503 159.988 31.8584C158.434 32.1381 156.81 32.4544 155.186 32.7827C155.186 36.2003 155.355 39.6178 155.483 43.0475C155.483 44.9327 154.07 46.6962 153.816 48.6421C153.52 50.7583 154.127 54.5772 152.757 54.2123C150.031 53.4948 150.511 55.2461 150.37 58.0799C150.229 60.9137 150.102 64.7934 150.172 67.9555C153.604 66.9825 157.05 66.0217 160.637 65.3042C160.694 59.6123 160.637 53.8718 160.383 48.2286Z" fill="#5B575B"/>
<path d="M138.069 35.8715C141.218 35.981 151.711 33.3296 159.987 31.858V31.7728C153.67 29.813 147.497 27.5265 141.5 24.9256C139.309 24.1083 137.23 23.0845 135.301 21.8729C131.826 22.2743 128.381 20.7783 125.245 19.5499C122.11 18.3216 118.41 16.8743 115.021 18.577C112.803 19.6837 111.32 21.508 108.906 22.3837C105.855 23.4783 102.437 23.1986 99.5846 24.8161C97.1565 26.1988 95.4298 28.3249 94.7547 30.7634C93.4978 35.4823 96.9437 39.6782 101.745 41.3566C102.748 41.2958 106.434 44.239 107.719 46.5376C107.85 45.9277 107.821 45.3002 107.634 44.7012C107.634 44.6039 113.199 45.5647 115.783 45.7228C119.766 45.9782 121.432 43.9106 124.257 42.0741C124.996 41.5633 125.847 41.186 126.76 40.9645C127.672 40.743 128.627 40.6819 129.567 40.785C132.857 40.8831 136.106 40.1244 138.888 38.608C137.645 38.0607 138.111 37.2945 138.069 35.8715Z" fill="#999698"/>
<path d="M101.746 41.3934C96.9443 39.715 93.4984 35.5191 94.7553 30.8002C95.4138 28.3457 97.1366 26.2008 99.5711 24.8043C102.396 23.1989 105.841 23.4786 108.892 22.3719C111.307 21.4962 112.79 19.6719 115.007 18.5651C118.396 16.8624 122.068 18.2732 125.232 19.5381C128.395 20.8029 131.813 22.2624 135.287 21.861C134.767 21.5004 134.294 21.0926 133.875 20.6448C131.827 18.2975 134.468 15.9016 133.31 13.4692C131.898 10.5381 127.152 10.5868 124.13 10.6233C117.069 10.6962 110.008 11.0125 102.946 11.4746C89.2702 12.3835 75.6664 13.9712 62.2028 16.23C55.6358 17.3246 49.0688 18.5408 42.5865 20.0002C39.8863 20.4028 37.4094 21.5461 35.5252 23.2597C34.3531 27.1394 44.2954 30.4961 47.2611 31.7731C52.091 33.8529 57.1469 35.6285 62.1463 37.2826C71.5236 40.3353 89.0921 45.6014 98.6531 48.2285C101.026 47.9487 104.373 48.3987 106.138 47.9366C106.507 47.8544 106.842 47.6859 107.106 47.4497C107.37 47.2136 107.553 46.919 107.635 46.5987C106.435 44.2758 102.749 41.3326 101.746 41.3934Z" fill="#A5A0A4"/>
<path d="M100.009 75.368C99.886 74.7565 99.5843 74.1821 99.1321 73.699C98.6799 73.2159 98.092 72.8401 97.4242 72.6072L96.9158 72.4734C96.8028 75.3193 96.704 78.1653 96.6475 80.9869C99.8392 81.072 102.296 81.6558 104.923 81.5828C102.475 80.0835 100.732 77.8788 100.009 75.368Z" fill="#6D696D"/>
<path d="M96.563 81.0116H96.6477C96.6477 78.1657 96.803 75.3198 96.916 72.4982C95.5235 72.2919 94.0912 72.5204 92.8769 73.1427C92.1829 73.4978 91.5663 73.9547 91.0552 74.4928C90.5546 75.0676 89.8681 75.5024 89.0817 75.7426C88.2953 75.9827 87.4441 76.0176 86.6348 75.8427C79.7865 75.2599 73.0073 74.1817 66.3689 72.6198C63.0925 71.8536 59.8443 70.9779 56.6526 69.9928C53.4609 69.0076 50.1138 67.8036 48.631 64.9698C48.3344 64.4104 48.1226 61.9293 47.4306 64.009C46.2019 67.6577 43.7728 67.6576 40.9624 67.2563C40.0586 67.1347 39.1406 67.0495 38.2227 66.9887C45.4534 69.2387 54.9296 72.1455 60.96 73.9333C70.6057 76.7792 86.2817 80.7319 96.563 81.0116Z" fill="#6D696D"/>
<path d="M107.973 76.7851C107.973 74.4378 107.889 72.0784 107.762 69.7311C107.513 62.4402 106.348 55.1939 104.288 48.119C102.536 48.119 100.404 48.0095 98.7374 48.2041C89.1764 45.6015 71.6079 40.3353 62.2305 37.2582C57.9937 35.8718 53.757 34.3758 49.619 32.6853C49.3828 33.1228 49.3328 33.6179 49.4778 34.084C49.958 35.0326 50.2122 36.942 51.003 37.5745C51.568 38.0245 51.5538 39.0096 50.7065 38.5839C49.8591 38.1582 49.2095 38.7055 48.9129 39.5326C48.2845 40.6664 47.4608 41.712 46.4697 42.6339C44.9757 44.6093 44.1538 46.9054 44.0971 49.2622C43.6169 53.3001 41.5268 56.7906 39.3096 60.3176C39.2522 60.39 39.1727 60.4473 39.0798 60.4832C38.9869 60.519 38.8842 60.532 38.7833 60.5207C38.6823 60.5093 38.587 60.4742 38.5079 60.419C38.4288 60.3638 38.369 60.2908 38.3351 60.2081C36.8472 56.886 36.2066 53.3272 36.4568 49.7731C36.7533 45.8197 36.3243 41.8507 35.1858 38.0123C35.1858 37.9671 35.2066 37.9238 35.2437 37.8919C35.2808 37.86 35.3311 37.842 35.3835 37.842C35.4359 37.842 35.4862 37.86 35.5233 37.8919C35.5604 37.9238 35.5812 37.9671 35.5812 38.0123C35.6176 38.1242 35.6459 38.2379 35.6659 38.3528C37.3324 35.215 39.1542 32.1623 41.1314 29.1583C37.9114 27.565 34.9175 25.5096 35.5953 23.2961C34.7641 24.1583 34.1745 25.1737 33.8724 26.2637C32.0506 32.4299 31.528 39.0704 30.4547 45.3582C29.6356 50.0649 28.647 58.9676 28.0256 63.723C27.6443 63.723 32.1071 65.1216 38.1374 67.0067C39.0554 67.0676 39.9733 67.1527 40.8772 67.2743C43.7017 67.6513 46.1166 67.6392 47.3453 64.0271C48.0373 61.9473 48.2492 64.4284 48.5457 64.9879C50.0286 67.8216 53.3756 69.0135 56.5673 70.0108C59.759 71.0081 63.0072 71.8716 66.2837 72.6378C72.9459 74.1949 79.7489 75.2649 86.6202 75.8364C87.4295 76.0113 88.2807 75.9764 89.067 75.7362C89.8534 75.4961 90.54 75.0613 91.0405 74.4865C91.5517 73.9484 92.1683 73.4915 92.8624 73.1365C94.0766 72.5141 95.5089 72.2856 96.9014 72.4919L97.4098 72.6257C98.0777 72.8586 98.6655 73.2344 99.1177 73.7175C99.5699 74.2006 99.8716 74.775 99.9942 75.3864C100.711 77.9062 102.455 80.1203 104.909 81.6256C105.946 81.598 106.973 81.4424 107.959 81.1634C107.813 79.7065 107.818 78.2413 107.973 76.7851Z" fill="#878286"/>
<path d="M35.1865 38.0607C36.325 41.8991 36.754 45.8681 36.4575 49.8215C36.2073 53.3756 36.8479 56.9345 38.3358 60.2566C38.3697 60.3393 38.4295 60.4122 38.5086 60.4674C38.5877 60.5226 38.683 60.5578 38.784 60.5691C38.8849 60.5805 38.9875 60.5675 39.0805 60.5316C39.1734 60.4958 39.2529 60.4385 39.3103 60.366C41.5275 56.839 43.547 53.3485 44.0978 49.3107C44.1545 46.9538 44.9764 44.6577 46.4704 42.6823C47.4615 41.7604 48.2851 40.7148 48.9136 39.581C49.2102 38.754 49.7045 38.1945 50.7072 38.6324C51.7099 39.0702 51.5687 38.0729 51.0037 37.6229C50.2129 36.9905 49.9587 35.081 49.4785 34.1324C49.3335 33.6663 49.3835 33.1712 49.6197 32.7337C48.8712 32.4297 48.0945 32.1256 47.346 31.7973C46.075 31.25 43.547 30.3257 41.1462 29.1459C39.1549 32.1378 35.1865 37.8297 35.1865 38.0607Z" fill="#6D696D"/>
<path d="M152.743 29.0248C148.065 27.5614 143.519 25.8011 139.143 23.7586C138.014 23.1992 135.09 21.3262 134.356 20.0492C133.863 19.1688 133.714 18.1746 133.932 17.2154C134.215 15.683 134.285 13.9803 133.353 13.4695C133.664 15.5249 131.164 18.3343 130.416 19.5505C130.133 20.0005 130.288 21.01 134.073 22.3357C136.383 23.2515 138.623 24.2914 140.782 25.4492C144.425 27.0302 148.182 27.9789 151.727 29.7424C152.8 30.2653 153.746 31.968 150.922 32.5761C150.498 32.6613 148.224 33.2572 147.786 33.318C145.117 33.537 142.462 33.8045 139.821 33.8775C135.966 33.9991 137.237 31.8343 137.519 30.1316C134.695 30.5329 134.765 31.5667 134.695 32.6491C134.778 33.774 135.245 34.8529 136.036 35.7505C136.253 35.9973 136.404 36.2821 136.479 36.5847C136.554 36.8873 136.551 37.2004 136.47 37.5019C136.389 37.8034 136.233 38.086 136.011 38.3297C135.79 38.5734 135.509 38.7724 135.189 38.9126C133.692 39.4964 129.427 39.2896 128.043 39.3991C124.682 39.6667 122.578 41.722 120.911 43.2666C120.615 43.522 120.346 43.7775 120.078 44.045C119.584 44.356 119.065 44.6364 118.524 44.8842C114.118 46.1004 101.577 40.6153 99.1765 40.3112C101.055 41.2842 102.665 42.5247 104.303 43.4855C105.941 44.4463 105.249 45.2977 104.981 45.6018C103.498 47.195 98.2585 46.9882 96.1119 46.7085C89.9968 45.9301 84.1783 43.9842 78.2892 42.2937C66.6663 38.9613 56.0885 33.7802 44.9317 29.3897C42.9676 28.4943 41.1411 27.3912 39.4945 26.1059C38.0823 24.5613 39.1838 21.764 41.4434 20.2681C40.3368 20.435 39.2626 20.7339 38.2517 21.1559C37.136 21.6667 35.5261 22.8465 35.4272 23.4789C35.4135 24.0787 35.5459 24.6743 35.8159 25.2274C36.0859 25.7804 36.4875 26.2785 36.9948 26.6897C37.1502 26.8235 37.5456 27.2005 37.828 27.5046C38.2862 28.2153 38.4268 29.0458 38.2235 29.8397C37.8304 31.678 37.2004 33.4729 36.3452 35.191C35.9921 36.0667 35.2295 38.0126 35.2295 38.0126C38.0942 36.1556 40.2683 33.6197 41.4858 30.7153C41.5705 30.5086 41.966 29.6937 42.6297 29.9491C46.8665 31.5059 62.938 38.3896 71.8917 41.3329C77.6396 43.218 83.4581 44.8964 89.3613 46.3193C93.4568 47.2923 102.891 47.8274 104.698 51.9747C105.584 54.5859 106.226 57.2538 106.619 59.953C107.438 64.7327 107.17 70.0233 107.947 74.7908C108.695 69.5956 108.666 64.3393 107.862 59.1503C107.353 56.2557 106.69 53.9328 107.212 51.0139C107.603 49.4287 107.882 47.8243 108.045 46.2099C109.458 46.7937 116.237 46.9518 117.762 46.5139C119.192 46.2815 120.504 45.674 121.518 44.7747C123.397 43.6315 125.36 41.3815 127.52 40.9923C128.823 40.786 130.158 40.786 131.461 40.9923C131.983 40.9923 134.116 41.1018 134.568 41.0775C136.319 40.9802 138.706 40.5788 139.383 39.4234C139.157 38.0126 138.098 36.7721 138.127 36.0545C138.819 36.0545 139.398 35.9086 140.852 35.7505C142.759 35.5559 145.414 35.0572 147.066 34.8018C151.303 34.1207 155.723 32.564 159.988 31.8586C158.279 31.0315 153.238 29.1951 152.743 29.0248Z" fill="#BCB7BB"/>
<path d="M103.935 64.5618C103.935 62.6159 104.133 58.6875 101.986 57.9456C99.8393 57.2037 100.842 55.1483 98.6813 53.543C97.1843 52.424 95.2212 53.6645 94.7693 53.02C93.6678 51.4389 92.3967 50.2227 91.2246 50.4051C90.6738 54.4551 91.041 57.0578 93.5124 60.5605C93.922 61.1443 95.5461 61.9348 95.9697 62.5186C96.5911 63.3699 95.6732 65.1091 97.4809 65.8875C99.7264 66.8483 100.687 67.0186 100.786 69.0861C100.899 71.5185 101.393 74.8388 104.288 74.8388C104.768 74.8388 103.299 72.4064 103.78 70.0956C104.128 68.266 104.18 66.4037 103.935 64.5618Z" fill="#6D696D"/>
<path opacity="0.5" d="M104.4 22.1042C93.2718 20.7299 79.686 18.8691 68.8257 22.238C66.5237 22.7853 64.3206 23.6974 63.3744 25.4366C61.8774 28.1974 64.5324 30.9704 67.4558 32.4298C76.3389 36.9055 89.2469 38.1703 99.6835 37.8541C104.976 37.7874 110.232 37.0916 115.303 35.7866C118.636 34.8623 124.37 32.9163 125.584 30.0947C128.169 24.1231 108.341 22.5907 104.4 22.1042Z" fill="#6D696D"/>
<path d="M57.2321 60.5792C51.8584 58.7798 46.341 57.3165 40.7228 56.2008C37.1225 55.4127 33.3951 55.1455 29.6931 55.4103C25.8517 56.517 21.0783 58.4022 22.5612 62.1481C24.3161 66.2063 26.5597 70.095 29.2553 73.7507C29.2553 73.7507 45.5527 71.1359 48.7444 70.5521C55.0263 69.0776 61.1647 67.1826 67.1038 64.8846C66.9411 64.6081 66.7521 64.3437 66.5388 64.094C64.9571 62.4035 59.7459 61.4184 57.2321 60.5792Z" fill="#A5A0A4"/>
<path d="M27.2355 80.926C28.6478 78.3233 32.2773 74.7233 33.9297 72.9842C32.6163 71.6342 29.2127 70.6369 28.3936 69.2139C26.7772 66.9815 25.4376 64.609 24.3969 62.1356C22.914 58.4018 25.8092 56.5167 29.6929 55.4099C25.9394 55.7164 22.3972 57.0456 19.5811 59.2045C14.4829 62.1842 10.5003 66.8544 7.30859 71.9017C11.0535 74.8486 15.3889 77.1852 20.1037 78.7976C22.1232 79.503 25.0042 81.1693 27.2355 80.926Z" fill="#878286"/>
<path d="M71.7636 85.5111C72.1166 85.4016 71.0151 77.3381 69.3204 70.9895C69.1791 70.9895 69.0379 70.9895 68.8967 70.9895C63.982 72.5584 59.3357 74.6381 54.6046 76.6327C50.3679 78.3962 44.8318 79.7827 41.1458 82.3002C37.4599 84.8178 35.0167 90.8989 35.3273 95.2772H36.0758C47.6846 94.3772 60.7197 88.5881 71.7636 85.5111Z" fill="#5B575B"/>
<path d="M27.2352 80.9264C25.0038 81.1696 22.1228 79.5034 20.1739 78.798C15.4592 77.1856 11.1238 74.849 7.37888 71.9021C4.70666 76.2481 2.39423 80.7511 0.458832 85.3777C0.289362 85.8034 12.11 90.8263 23.0549 93.5871C23.9729 91.2277 24.6508 87.652 25.3004 85.8399C25.9501 84.0277 26.0065 82.2885 27.2352 80.9264Z" fill="#6D696D"/>
<path d="M67.0894 64.8354C61.1504 67.1335 55.0119 69.0285 48.7301 70.503L46.8942 70.8314C45.6373 73.0813 44.0697 76.4867 42.036 78.1286C40.3413 79.5029 37.2908 79.8678 35.8927 80.4638C34.8476 80.9138 32.6304 81.5948 31.6559 82.1056C29.1703 85.8151 28.3795 89.4029 27.4191 93.6475C27.3565 93.9278 27.2716 94.2041 27.1649 94.4745C29.8282 95.0538 32.5669 95.3359 35.3136 95.3137C35.003 90.9353 37.432 84.8664 41.1322 82.3367C44.8323 79.807 50.3259 78.4327 54.591 76.6692C59.322 74.7233 63.9683 72.5949 68.883 71.026C69.0242 71.026 69.1654 71.026 69.3067 71.026C68.8318 68.899 68.0883 66.8232 67.0894 64.8354Z" fill="#6D696D"/>
<path d="M31.642 82.1663C32.6447 81.6555 34.8619 80.9501 35.8787 80.5245C37.291 79.9285 40.3273 79.5637 42.022 78.1894C44.0557 76.5353 45.6233 73.1299 46.8802 70.8921C43.8862 71.3907 38.8727 72.2056 35.3986 72.7529C34.3583 73.1087 33.3832 73.5921 32.5034 74.188C31.7549 74.8569 29.6789 78.238 27.2075 80.938C25.9788 82.3001 25.7952 84.2096 25.2162 85.8028C24.6372 87.396 23.8887 91.1906 22.9707 93.5501C24.383 93.9028 25.7952 94.2312 27.2075 94.4987C27.3141 94.2284 27.399 93.952 27.4617 93.6717C28.3655 89.4636 29.1564 85.8758 31.642 82.1663Z" fill="#5B575B"/>
<path d="M65.9875 65.3098C58.206 65.9301 49.9867 68.4962 42.9819 70.0408C36.8809 71.3665 31.6838 70.7462 27.2776 66.5746C25.4699 64.8354 23.5492 60.5666 25.7665 57.1733C22.4477 57.5382 23.6199 63.4611 24.3542 65.0544C24.8373 66.5318 25.5854 67.9352 26.5715 69.2138C27.5674 70.3197 28.1882 71.6415 28.365 73.0327C28.5486 76.5354 26.5715 78.08 27.207 80.9259C31.4438 76.4989 33.0961 74.1759 39.536 72.5827C43.9705 71.4759 56.1017 68.776 56.7937 68.5935C60.0346 67.9084 63.1349 66.801 65.9875 65.3098Z" fill="#BCB7BB"/>
<path d="M56.921 72.7408C53.8847 73.884 55.0145 74.5165 52.2464 76.0732C51.1873 76.6692 47.3318 78.2381 45.9195 79.1016C44.3096 79.7097 40.2705 80.3178 39.5361 81.2908C39.4232 81.461 37.1353 85.8637 37.22 87.1772C38.943 85.8151 40.2988 83.3583 42.8691 81.8502C45.8765 81.458 48.7165 80.4068 51.1166 78.7976C56.2996 75.5259 61.2143 74.3948 66.9904 71.9624C63.5445 71.8408 60.0986 71.5611 56.921 72.7408Z" fill="#BCB7BB"/>
<path d="M120.246 20.6447C119.935 15.938 120.557 9.88127 117.831 5.56372C115.283 6.69067 113.118 8.36672 111.546 10.4286C110.657 11.8029 111.391 13.761 110.431 14.9772C111.207 17.6407 111.914 20.6204 113.043 23.3447C113.961 25.5947 116.094 28.8785 117.28 32.4541C121.799 29.8879 120.5 24.6825 120.246 20.6447Z" fill="#6D696D"/>
<path d="M117.295 32.4789C116.095 28.9033 113.962 25.6195 113.058 23.3695C111.929 20.6452 111.222 17.6655 110.446 15.002C110.244 15.2563 109.978 15.4682 109.669 15.6223C107.817 16.3588 105.853 16.8665 103.836 17.1304C103.639 19.9398 102.777 22.7128 103.836 25.5709C104.509 27.3993 105.31 29.1905 106.237 30.9344C106.933 32.0572 107.551 33.2146 108.087 34.4005C111.166 34.4877 114.221 33.9064 116.97 32.71L117.295 32.4789Z" fill="#878286"/>
<path d="M103.766 25.5704C102.763 22.7123 103.625 19.9393 103.766 17.1299L102.876 17.288C100.657 17.7124 98.3814 17.876 96.1113 17.7745C96.7468 21.2407 97.5236 24.6947 98.3427 28.1366C98.7523 29.9609 99.2324 31.7852 99.5714 33.6217C99.5714 33.7676 99.5714 33.9014 99.642 34.0474C102.099 34.2055 105.037 34.4365 107.96 34.4C107.424 33.2141 106.806 32.0567 106.11 30.9339C105.203 29.1888 104.42 27.3977 103.766 25.5704Z" fill="#6D696D"/>
<path d="M99.6976 34.048C99.6976 33.902 99.6976 33.7682 99.627 33.6223C99.288 31.7858 98.8078 29.9737 98.3983 28.1372C97.6357 24.6953 96.8025 21.2413 96.1669 17.7751C91.5347 17.5926 87.9335 16.4859 85.0384 16.5589C80.8016 16.717 76.706 16.7413 72.5399 16.8264C69.8283 16.8264 64.716 16.1697 62.9789 17.5927C62.1372 18.4248 61.4425 19.3591 60.917 20.3656C61.1523 20.8497 61.4309 21.3173 61.7502 21.7642C62.1515 21.7662 62.5524 21.7458 62.9506 21.7034C65.0549 21.4358 65.7752 20.0615 68.0771 20.3413C71.6784 20.7913 73.8815 24.148 76.7908 25.7169C80.9117 27.701 85.4049 29.0471 90.066 29.6939C91.2382 29.9007 92.721 29.9372 93.413 30.9101C93.8933 31.7482 94.1628 32.6641 94.2039 33.5979C96.0822 33.7682 97.9323 33.902 99.6835 34.0115L99.6976 34.048Z" fill="#878286"/>
<path d="M90.0667 29.7299C85.4056 29.083 80.9124 27.737 76.7915 25.7529C73.8823 24.184 71.6791 20.8272 68.0779 20.3772C65.8042 20.0975 65.0557 21.4718 62.9514 21.7393C62.5532 21.7818 62.1522 21.8021 61.751 21.8002C62.2037 22.4285 62.7238 23.0189 63.3045 23.5637C70.6906 30.4109 83.2455 32.6488 94.2046 33.6339C94.1635 32.7 93.894 31.7841 93.4137 30.9461C92.7217 29.9731 91.2389 29.9366 90.0667 29.7299Z" fill="#6D696D"/>
<path d="M60.9175 20.4199C61.1576 19.982 61.4259 19.5807 61.666 19.2037C61.2313 19.1444 60.8018 19.059 60.3809 18.9482C60.5096 19.4513 60.6892 19.9437 60.9175 20.4199Z" fill="#A5A0A4"/>
<path d="M117.719 5.36943C115.092 1.41675 110.163 0.905964 105.333 0.869478C96.4205 0.669861 87.5164 1.48778 78.8532 3.3019C77.8082 4.17757 76.9891 5.21133 76.0287 6.17214C74.8142 7.38835 72.7805 8.17888 71.9049 9.5532C68.7274 14.5518 78.9662 15.2207 82.1297 16.5464C82.1412 16.5607 82.1474 16.5777 82.1474 16.5951C82.1474 16.6125 82.1412 16.6295 82.1297 16.6437L84.9542 16.5586C89.1203 16.4005 94.7552 18.7843 102.847 17.2518C105.164 16.9559 107.425 16.3955 109.57 15.5856C111.66 14.5275 110.403 12.0586 111.462 10.4167C113.034 8.35485 115.199 6.6788 117.747 5.55186L117.719 5.36943Z" fill="#A5A0A4"/>
<path d="M62.9794 17.629C62.4717 18.1058 62.0308 18.6323 61.666 19.1979L62.3439 19.2587C65.2444 19.2564 68.1366 18.9914 70.9728 18.4682L81.3953 17.106C81.4433 17.1002 81.4895 17.086 81.5309 17.0642C81.5723 17.0424 81.608 17.0134 81.6358 16.9792C81.6637 16.945 81.683 16.9062 81.6926 16.8652C81.7023 16.8242 81.702 16.782 81.6918 16.7411H82.0449C82.0449 16.7411 82.1437 16.7411 82.1578 16.656C78.952 16.7411 75.7462 16.7776 72.5404 16.8384C69.8288 16.9114 64.7165 16.1695 62.9794 17.629Z" fill="#999698"/>
<path d="M71.8772 9.58968C72.7528 8.21536 74.7865 7.4005 76.001 6.20862C76.9896 5.24781 77.8087 4.21405 78.8255 3.33838C75.0148 4.19193 71.3181 5.38624 67.7958 6.90187C65.7198 7.81402 61.6242 10.21 60.8334 12.3383C59.9841 14.462 59.8181 16.744 60.3532 18.9423C60.7742 19.0531 61.2036 19.1384 61.6383 19.1977C62.0032 18.6322 62.444 18.1056 62.9517 17.6288C64.6888 16.2059 69.8012 16.9113 72.5127 16.8626C75.7186 16.8018 78.9244 16.7653 82.1302 16.6802C82.1417 16.6659 82.1479 16.6489 82.1479 16.6315C82.1479 16.6141 82.1417 16.5972 82.1302 16.5829C78.9244 15.2572 68.6996 14.5883 71.8772 9.58968Z" fill="#999698"/>
<path d="M117.832 5.56395C115.982 1.80586 111.646 1.34371 109.499 1.0883C104.768 0.358586 99.9242 0.358586 95.1931 1.0883C98.4048 1.69483 101.705 1.87529 104.98 1.62344C107.353 1.30722 108.2 1.8302 109.612 1.81804C111.007 1.82936 112.378 2.12972 113.609 2.69371C114.047 2.9856 115.332 4.10448 114.372 4.63962C112.583 5.40203 111.177 6.69891 110.417 8.28824C109.575 10.2056 108.103 11.8705 106.18 13.0801C104.31 14.281 102.172 15.1364 99.8995 15.5926C97.6273 16.0488 95.2702 16.0961 92.9759 15.7315C90.3144 15.6121 87.646 15.6771 84.9966 15.926C84.2481 15.926 83.5844 15.926 82.7511 15.926C81.9179 15.926 81.0705 16.0233 80.2232 16.0842L78.4014 16.1571C76.9044 16.1571 72.7524 15.7436 69.0381 16.0112C65.6911 16.2544 64.5048 16.3396 63.3891 15.7315C60.0138 14.0409 63.2761 9.58959 65.8605 7.91122C65.7876 7.88793 65.7075 7.88793 65.6346 7.91122C64.4573 8.33838 63.3933 8.96728 62.5071 9.7597C61.6209 10.5521 60.9312 11.4915 60.4798 12.5207C59.527 15.188 59.774 18.0664 61.1719 20.5841C61.7161 19.52 62.6032 18.6125 63.728 17.9693C64.1867 17.6518 64.7306 17.4385 65.3098 17.349C65.8464 17.2882 68.2472 17.5679 69.0522 17.6044C73.5871 17.6508 78.1217 17.4966 82.6381 17.1422C84.3328 17.0693 86.0276 16.899 87.7223 16.9355C89.7428 17.105 91.7512 17.3689 93.7385 17.726C94.2045 18.3706 95.1507 20.2436 95.4332 20.7423C97.368 24.2936 97.1562 27.9665 99.2463 31.5057C99.0897 28.6357 98.6169 25.7851 97.834 22.9922C97.3821 21.5936 97.3115 19.7693 96.8313 17.9571C99.8253 18.176 103.737 18.3342 107.183 16.8261C108.059 16.2788 108.85 16.2058 109.259 17.349C110.011 19.6854 111.194 21.9027 112.762 23.9165C113.952 25.4531 114.973 27.0818 115.812 28.7814C114.993 26.0084 113.51 23.1625 112.846 20.3287C112.267 17.8963 111.434 15.1963 111.123 12.7274C110.855 10.4531 112.86 8.89635 115.36 7.60717C116.631 7.01123 118.397 7.09637 117.832 5.56395Z" fill="#BCB7BB"/>
</svg>
