<svg width="993" height="356" viewBox="0 0 993 356" fill="none" xmlns="http://www.w3.org/2000/svg">
<mask id="mask0_2_26610" style="mask-type:alpha" maskUnits="userSpaceOnUse" x="0" y="0" width="993" height="356">
<rect width="993" height="356" fill="#C4C4C4"/>
</mask>
<g mask="url(#mask0_2_26610)">
<circle cx="483.453" cy="124.453" r="114.453" fill="#1C181F"/>
<circle cx="483.5" cy="124.5" r="82.5" stroke="white" stroke-opacity="0.03" stroke-width="2"/>
<circle cx="483.5" cy="124.5" r="50.5" stroke="white" stroke-opacity="0.03" stroke-width="2"/>
<circle cx="483.453" cy="124.453" r="113.453" stroke="white" stroke-opacity="0.06" stroke-width="2"/>
<circle cx="483.454" cy="124.453" r="21.3643" stroke="white" stroke-opacity="0.06" stroke-width="2"/>
<circle cx="366.638" cy="188.37" r="114.453" fill="#1C181F"/>
<circle cx="366.638" cy="188.37" r="113.453" stroke="white" stroke-opacity="0.06" stroke-width="2"/>
<circle cx="366.5" cy="188.5" r="82.5" stroke="white" stroke-opacity="0.03" stroke-width="2"/>
<circle cx="366.5" cy="188.5" r="50.5" stroke="white" stroke-opacity="0.03" stroke-width="2"/>
<circle cx="366.639" cy="188.37" r="21.3643" stroke="white" stroke-opacity="0.06" stroke-width="2"/>
<circle cx="600.804" cy="188.37" r="114.453" fill="#1C181F"/>
<circle cx="600.5" cy="188.5" r="82.5" stroke="white" stroke-opacity="0.03" stroke-width="2"/>
<circle cx="600.5" cy="188.5" r="50.5" stroke="white" stroke-opacity="0.03" stroke-width="2"/>
<circle cx="600.804" cy="188.37" r="113.453" stroke="white" stroke-opacity="0.06" stroke-width="2"/>
<circle cx="600.805" cy="188.37" r="21.3643" stroke="white" stroke-opacity="0.06" stroke-width="2"/>
<circle cx="250.869" cy="251.516" r="114.453" fill="#1C181F"/>
<circle cx="250.5" cy="251.5" r="82.5" stroke="white" stroke-opacity="0.03" stroke-width="2"/>
<circle cx="250.5" cy="251.5" r="50.5" stroke="white" stroke-opacity="0.03" stroke-width="2"/>
<circle cx="250.869" cy="251.516" r="113.453" stroke="white" stroke-opacity="0.06" stroke-width="2"/>
<circle cx="250.87" cy="251.516" r="21.3643" stroke="white" stroke-opacity="0.06" stroke-width="2"/>
<circle cx="485.039" cy="251.516" r="114.453" fill="#1C181F"/>
<circle cx="484.5" cy="251.5" r="82.5" stroke="white" stroke-opacity="0.03" stroke-width="2"/>
<circle cx="484.5" cy="251.5" r="50.5" stroke="white" stroke-opacity="0.03" stroke-width="2"/>
<circle cx="485.039" cy="251.516" r="113.453" stroke="white" stroke-opacity="0.06" stroke-width="2"/>
<circle cx="485.039" cy="251.516" r="21.3643" stroke="white" stroke-opacity="0.06" stroke-width="2"/>
<circle cx="716.574" cy="251.516" r="114.453" fill="#1C181F"/>
<circle cx="716.5" cy="251.5" r="82.5" stroke="white" stroke-opacity="0.03" stroke-width="2"/>
<circle cx="716.5" cy="251.5" r="50.5" stroke="white" stroke-opacity="0.03" stroke-width="2"/>
<circle cx="716.574" cy="251.516" r="113.453" stroke="white" stroke-opacity="0.06" stroke-width="2"/>
<circle cx="716.575" cy="251.516" r="21.3643" stroke="white" stroke-opacity="0.06" stroke-width="2"/>
<circle cx="829.712" cy="312.453" r="114.453" fill="#1C181F"/>
<circle cx="829.5" cy="312.5" r="82.5" stroke="white" stroke-opacity="0.03" stroke-width="2"/>
<circle cx="829.5" cy="312.5" r="50.5" stroke="white" stroke-opacity="0.03" stroke-width="2"/>
<circle cx="829.712" cy="312.453" r="113.453" stroke="white" stroke-opacity="0.06" stroke-width="2"/>
<circle cx="829.712" cy="312.453" r="21.3643" stroke="white" stroke-opacity="0.06" stroke-width="2"/>
<circle cx="135.101" cy="312.453" r="114.453" fill="#1C181F"/>
<circle cx="134.5" cy="312.5" r="82.5" stroke="white" stroke-opacity="0.03" stroke-width="2"/>
<circle cx="134.5" cy="312.5" r="50.5" stroke="white" stroke-opacity="0.03" stroke-width="2"/>
<circle cx="135.101" cy="312.453" r="113.453" stroke="white" stroke-opacity="0.06" stroke-width="2"/>
<circle cx="135.102" cy="312.453" r="21.3643" stroke="white" stroke-opacity="0.06" stroke-width="2"/>
<circle cx="369.269" cy="312.453" r="114.453" fill="#1C181F"/>
<circle cx="369.5" cy="312.5" r="82.5" stroke="white" stroke-opacity="0.03" stroke-width="2"/>
<circle cx="369.5" cy="312.5" r="50.5" stroke="white" stroke-opacity="0.03" stroke-width="2"/>
<circle cx="369.269" cy="312.453" r="113.453" stroke="white" stroke-opacity="0.06" stroke-width="2"/>
<circle cx="369.27" cy="312.453" r="21.3643" stroke="white" stroke-opacity="0.06" stroke-width="2"/>
<circle cx="600.804" cy="312.453" r="114.453" fill="#1C181F"/>
<circle cx="600.5" cy="312.5" r="82.5" stroke="white" stroke-opacity="0.03" stroke-width="2"/>
<circle cx="600.5" cy="312.5" r="50.5" stroke="white" stroke-opacity="0.03" stroke-width="2"/>
<circle cx="600.804" cy="312.453" r="113.453" stroke="white" stroke-opacity="0.06" stroke-width="2"/>
<circle cx="600.805" cy="312.453" r="21.3643" stroke="white" stroke-opacity="0.06" stroke-width="2"/>
<circle cx="250.869" cy="384.453" r="114.453" fill="#1C181F"/>
<circle cx="250.5" cy="384.5" r="82.5" stroke="white" stroke-opacity="0.03" stroke-width="2"/>
<circle cx="250.5" cy="384.5" r="50.5" stroke="white" stroke-opacity="0.03" stroke-width="2"/>
<circle cx="250.869" cy="384.453" r="113.453" stroke="white" stroke-opacity="0.06" stroke-width="2"/>
<circle cx="485.039" cy="384.453" r="114.453" fill="#1C181F"/>
<circle cx="484.5" cy="384.5" r="82.5" stroke="white" stroke-opacity="0.03" stroke-width="2"/>
<circle cx="484.5" cy="384.5" r="50.5" stroke="white" stroke-opacity="0.03" stroke-width="2"/>
<circle cx="485.039" cy="384.453" r="113.453" stroke="white" stroke-opacity="0.06" stroke-width="2"/>
<circle cx="716.574" cy="384.453" r="114.453" fill="#1C181F"/>
<circle cx="716.5" cy="384.5" r="82.5" stroke="white" stroke-opacity="0.03" stroke-width="2"/>
<circle cx="716.5" cy="384.5" r="50.5" stroke="white" stroke-opacity="0.03" stroke-width="2"/>
<circle cx="716.574" cy="384.453" r="113.453" stroke="white" stroke-opacity="0.06" stroke-width="2"/>
</g>
</svg>
