<svg width="35" height="35" viewBox="0 0 35 35" fill="none" xmlns="http://www.w3.org/2000/svg">
<rect width="35" height="35" rx="6" fill="#9C38DA"/>
<path d="M32.3067 11.3675C31.381 11.7718 30.4017 12.0404 29.3992 12.165C30.456 11.5383 31.246 10.5455 31.6192 9.37498C30.6301 9.96207 29.5478 10.3755 28.4192 10.5975C27.7276 9.85785 26.8295 9.34346 25.8416 9.1212C24.8537 8.89894 23.8218 8.9791 22.88 9.35126C21.9383 9.72342 21.1304 10.3704 20.5613 11.2079C19.9922 12.0455 19.6884 13.0349 19.6892 14.0475C19.6857 14.434 19.7251 14.8197 19.8067 15.1975C17.7992 15.0989 15.835 14.5779 14.0425 13.6685C12.25 12.7591 10.6695 11.4818 9.40422 9.91998C8.75387 11.031 8.55238 12.3485 8.84094 13.6031C9.12951 14.8577 9.88633 15.9547 10.9567 16.67C10.1578 16.6484 9.37576 16.4349 8.67672 16.0475V16.1025C8.67897 17.267 9.08206 18.3953 9.81825 19.2977C10.5544 20.2001 11.5788 20.8215 12.7192 21.0575C12.2877 21.1709 11.8429 21.2264 11.3967 21.2225C11.0754 21.2284 10.7544 21.1999 10.4392 21.1375C10.7659 22.139 11.3949 23.0148 12.2397 23.6442C13.0845 24.2736 14.1036 24.6259 15.1567 24.6525C13.372 26.0474 11.1719 26.8052 8.90672 26.805C8.50311 26.8084 8.09972 26.785 7.69922 26.735C10.0089 28.2241 12.7011 29.011 15.4492 29C24.7367 29 29.8142 21.3075 29.8142 14.64C29.8142 14.4175 29.8142 14.2025 29.7967 13.9875C30.7856 13.2738 31.6361 12.386 32.3067 11.3675Z" fill="white"/>
</svg>
