<svg width="1920" height="154" viewBox="0 0 1920 154" fill="none" xmlns="http://www.w3.org/2000/svg">
<path fill-rule="evenodd" clip-rule="evenodd" d="M1551.04 105.936C1551.28 106.269 1551.46 106.65 1551.54 107.055C1551.59 107.269 1551.61 107.486 1551.61 107.703C1551.6 107.898 1551.58 108.093 1551.54 108.284C1552.71 122.134 1526.39 127.701 1516.08 126.929C1500.91 125.823 1489.96 118.009 1481.33 105.836C1481.79 106.473 1473.45 112.845 1472.85 113.213C1460.93 120.988 1443.19 120.343 1435.14 108C1433.9 109.019 1432.44 110.054 1431.67 110.603C1431.49 110.732 1431.34 110.835 1431.25 110.904C1431.15 110.979 1431.1 111.014 1431.13 111C1427.78 112.55 1424.17 113.449 1420.48 113.649C1407.68 114.387 1398.44 101.107 1402.22 91.617C1405.04 84.5745 1413.48 81.1539 1420.92 81.5564C1416.37 80.0728 1411.44 80.263 1407.01 82.0931C1404.81 82.7561 1402.78 83.8794 1401.05 85.3885C1399.32 86.8973 1397.92 88.7574 1396.96 90.8455C1394.48 96.815 1397.4 101.242 1400.65 105.936C1400.79 106.12 1400.9 106.32 1400.99 106.53C1401.06 106.699 1401.12 106.875 1401.16 107.055C1401.2 107.246 1401.22 107.44 1401.22 107.635C1401.22 107.789 1401.21 107.943 1401.19 108.095L1401.18 108.16C1401.17 108.201 1401.16 108.242 1401.15 108.284C1402.32 122.134 1375.89 127.701 1365.54 126.929C1350.3 125.823 1339.31 118.009 1330.63 105.836C1331.1 106.473 1322.73 112.845 1322.13 113.213C1312.46 119.487 1298.99 120.279 1289.91 113.865C1287.63 113.207 1285.45 112.211 1283.45 110.9C1283.01 110.543 1282.25 109.445 1281.46 108.309C1280.7 107.204 1279.91 106.063 1279.36 105.534C1279.36 106.553 1275.19 109.521 1273.67 110.603L1273.65 110.613C1273.28 110.878 1273.07 111.027 1273.13 111C1269.78 112.55 1266.17 113.449 1262.48 113.649C1249.68 114.387 1240.44 101.107 1244.22 91.617C1247.04 84.5745 1255.48 81.1539 1262.92 81.5564C1258.37 80.0728 1253.44 80.263 1249.01 82.0931C1246.81 82.7561 1244.78 83.8794 1243.05 85.3885C1242.75 85.6514 1242.46 85.9251 1242.17 86.2088C1242.24 86.305 1242.31 86.4041 1242.37 86.5057C1242.81 87.2552 1243.03 88.1177 1243 88.9895C1242.89 89.8428 1242.29 89.96 1241.47 90.1219C1240.7 90.2745 1239.72 90.4666 1238.76 91.3543C1236.65 97.0686 1239.49 101.376 1242.65 105.936C1242.9 106.269 1243.07 106.65 1243.16 107.055C1243.24 107.46 1243.24 107.879 1243.15 108.284C1244.14 119.957 1225.52 125.746 1213.44 126.816C1211.16 127.496 1208.78 127.831 1206.37 127.8C1201.86 127.74 1197.45 126.387 1193.66 123.9C1193.56 123.814 1193.44 123.687 1193.3 123.526C1191.39 122.7 1189.56 121.737 1187.81 120.646C1186.49 121.772 1184.78 122.99 1183.93 123.603C1183.54 123.874 1183.33 124.027 1183.39 124C1180.05 125.55 1176.45 126.449 1172.78 126.649C1165.27 127.084 1158.99 122.65 1155.87 116.992C1154.69 117.34 1153.49 117.621 1152.28 117.833C1152.53 118.2 1152.78 118.567 1153.04 118.936C1153.28 119.269 1153.46 119.65 1153.54 120.055C1153.56 120.153 1153.58 120.251 1153.59 120.35C1153.6 120.462 1153.61 120.575 1153.61 120.687C1153.6 120.887 1153.58 121.087 1153.54 121.284C1154.71 135.134 1128.39 140.701 1118.08 139.929C1102.91 138.823 1091.96 131.009 1083.33 118.836C1083.79 119.473 1075.45 125.845 1074.85 126.213C1065.46 132.337 1052.46 133.238 1043.43 127.313C1034.36 133.238 1021.3 132.337 1011.87 126.213C1011.27 125.845 1002.92 119.492 1003.36 118.839C1003.04 119.292 1002.71 119.739 1002.38 120.179L1002.21 120.414C1002.22 120.485 1002.22 120.557 1002.22 120.629C1002.22 120.848 1002.2 121.068 1002.15 121.284C1003.29 134.724 978.431 140.365 967.5 139.981C956.569 140.365 931.711 134.724 932.849 121.284C932.785 120.998 932.766 120.704 932.791 120.414C932.402 119.897 932.017 119.372 931.637 118.839C932.079 119.492 923.728 125.845 923.126 126.213C912.897 132.856 898.398 133.353 889.353 125.659C886.358 127.022 883.101 127.756 879.784 127.8C877.451 127.83 875.138 127.518 872.917 126.883C860.836 126.015 841.22 120.232 842.236 108.284C842.146 107.879 842.145 107.46 842.232 107.055C842.319 106.65 842.492 106.269 842.741 105.936C845.791 101.548 848.547 97.3948 846.862 91.9966C845.202 96.3199 842.86 100.338 839.934 103.898C837.681 108.002 833.753 111.477 828.889 112.939C825.89 114.204 822.653 114.843 819.375 114.8C814.855 114.74 810.447 113.387 806.665 110.9C806.225 110.543 805.468 109.445 804.685 108.309C804.532 108.086 804.377 107.862 804.224 107.641C804.069 107.862 803.914 108.086 803.759 108.309C802.969 109.445 802.206 110.543 801.762 110.9C797.948 113.387 793.501 114.74 788.943 114.8C784.96 114.851 781.036 113.914 777.521 112.084C774.69 110.781 772.273 108.772 770.45 106.399C766.715 102.552 763.737 98.0423 761.666 93.1082C760.664 97.9751 763.225 101.854 766.038 105.936C766.284 106.269 766.456 106.65 766.543 107.055C766.629 107.46 766.628 107.879 766.538 108.284C767.552 120.306 747.857 126.087 735.899 126.899C733.685 127.523 731.381 127.83 729.057 127.8C724.499 127.74 720.052 126.387 716.238 123.9C715.998 123.707 715.665 123.297 715.285 122.783C713.733 122.027 712.237 121.177 710.795 120.239C709.432 121.465 707.385 122.915 706.414 123.603C706.03 123.874 705.814 124.027 705.875 124C702.509 125.55 698.879 126.449 695.176 126.649C687.763 127.075 681.536 122.836 678.323 117.351C677.11 117.655 675.881 117.889 674.646 118.05C674.849 118.345 675.053 118.64 675.259 118.936C675.508 119.269 675.681 119.65 675.768 120.055C675.855 120.46 675.854 120.879 675.764 121.284C676.941 135.134 650.396 140.701 640 139.929C624.692 138.823 613.657 131.009 604.943 118.836C605.414 119.473 597.004 125.845 596.398 126.213C584.594 133.846 567.126 133.364 558.815 121.666C557.798 122.446 556.773 123.169 556.164 123.598L556.158 123.603C555.773 123.874 555.556 124.027 555.617 124C552.237 125.55 548.591 126.449 544.872 126.649C531.965 127.387 522.64 114.107 526.458 104.617C529.296 97.5745 537.811 94.1539 545.312 94.5564C540.722 93.0728 535.75 93.263 531.29 95.0931C529.072 95.7561 527.021 96.8794 525.274 98.3885C523.526 99.8973 522.122 101.757 521.153 103.846C518.653 109.815 521.592 114.242 524.87 118.936C525.119 119.269 525.294 119.65 525.381 120.055C525.468 120.46 525.467 120.879 525.377 121.284C526.559 135.134 499.9 140.701 489.46 139.929C474.086 138.823 463.003 131.009 454.252 118.836C454.725 119.473 446.278 125.845 445.67 126.213C435.777 132.583 421.922 133.301 412.756 126.565C410.819 125.919 408.964 125.025 407.238 123.9C406.794 123.543 406.031 122.445 405.241 121.309C404.473 120.204 403.68 119.063 403.133 118.534C403.133 119.553 398.942 122.521 397.414 123.603L397.104 123.822L396.97 123.919C396.916 123.959 396.882 123.985 396.87 123.997C396.862 124.004 396.864 124.005 396.875 124C393.509 125.55 389.879 126.449 386.176 126.649C373.324 127.387 364.039 114.107 367.84 104.617C370.667 97.5745 379.145 94.1539 386.614 94.5564C382.044 93.0728 377.093 93.263 372.652 95.0931C370.443 95.7561 368.402 96.8794 366.662 98.3885C366.204 98.7857 365.769 99.2071 365.36 99.6507L365.364 99.6565C365.809 100.418 366.029 101.294 365.997 102.18C365.886 103.047 365.289 103.166 364.465 103.33C363.888 103.445 363.199 103.582 362.489 104.014C360.124 109.899 363.027 114.286 366.259 118.936C366.508 119.269 366.681 119.65 366.768 120.055C366.855 120.46 366.854 120.879 366.764 121.284C367.7 132.289 351.131 138.064 339.07 139.585C335.975 140.957 332.617 141.651 329.216 141.606C324.677 141.545 320.249 140.171 316.451 137.644C316.102 137.357 315.555 136.601 314.953 135.727C313.689 135.113 312.462 134.436 311.27 133.701C309.925 134.991 307.693 136.603 306.668 137.344C306.287 137.619 306.073 137.773 306.133 137.746C302.782 139.321 299.167 140.234 295.48 140.438C287.763 140.89 281.336 136.162 278.281 130.223C277.055 130.548 275.811 130.803 274.561 130.983C274.914 131.521 275.279 132.06 275.649 132.602C275.896 132.939 276.069 133.327 276.156 133.739C276.242 134.15 276.241 134.576 276.151 134.987C277.324 149.057 250.893 154.712 240.541 153.928C225.299 152.804 214.311 144.866 205.635 132.5C206.104 133.147 197.729 139.62 197.126 139.995C185.432 147.71 168.155 147.263 159.83 135.553C158.892 136.279 157.974 136.939 157.414 137.342L157.412 137.344L157.409 137.346L157.128 137.548L156.988 137.651C156.886 137.726 156.844 137.76 156.875 137.746C153.509 139.321 149.879 140.234 146.176 140.438C133.324 141.187 124.039 127.696 127.84 118.055C130.667 110.901 139.145 107.426 146.614 107.835C142.044 106.328 137.093 106.521 132.652 108.38C130.443 109.054 128.402 110.195 126.662 111.728C124.922 113.261 123.523 115.15 122.558 117.272C120.069 123.336 122.996 127.833 126.259 132.602C126.508 132.939 126.681 133.327 126.768 133.739C126.855 134.15 126.854 134.576 126.764 134.987C127.941 149.057 101.396 154.712 91.0004 153.928C75.6924 152.804 64.6572 144.866 55.9435 132.5C56.4145 133.147 48.0035 139.62 47.3979 139.995C34.2768 148.614 14.1578 147.047 7.39535 130.967L4.87206 131.273C0.928617 131.777 -3.07559 131.417 -6.86967 130.217C-12.9592 128.071 -19.5534 117.442 -13.7667 111.923C-13.384 111.542 -12.881 111.309 -12.3459 111.266C-11.8108 111.222 -11.2776 111.37 -10.8396 111.685C-10.4014 111.529 -9.93597 111.466 -9.47274 111.502C-9.00952 111.537 -8.55855 111.669 -8.14816 111.889C0.625172 116.678 6.34013 109.467 11.7305 102.665C14.0091 99.7896 16.2297 96.9876 18.5988 95.1961C21.9503 92.6412 25.9088 91.0279 30.0738 90.5193C34.2387 90.011 38.4625 90.6253 42.3177 92.3003C54.665 98.0918 49.4165 112.025 39.1551 114.989C38.3813 115.194 41.5439 117.885 42.5195 117.851C45.2111 117.851 48.8783 114.24 50.5605 112.264C52.9008 109.671 54.362 106.388 54.7311 102.895C55.1003 99.4024 54.3581 95.8814 52.6127 92.8455C51.5834 90.9998 49.6795 89.514 47.3538 87.6998L47.3523 87.6983L47.3509 87.6976L47.3497 87.6968L47.3487 87.6961C46.0267 86.6651 44.5688 85.5279 43.0579 84.1582C38.886 80.3768 57.0537 68.2828 57.0537 68.7937C60.4181 84.4649 72.1935 102.384 90.6976 98.9434C103.28 96.5928 111.725 83.034 111.389 77.992C111.893 71.1785 109.572 68.4874 105.434 69.7818C108.63 85.2144 94.6676 100.102 78.5186 93.629C59.2406 85.8958 56.3472 60.6517 66.474 44.3336C71.5465 35.9324 79.6177 29.8306 89.0138 27.2935C98.4099 24.7564 108.41 25.9786 116.94 30.7066C128.412 36.7706 143.855 54.3152 143.653 69.9522C151.088 66.1707 163.839 70.3951 170.064 75.471C175.198 79.6582 177.035 84.8186 179.07 90.5323L179.104 90.6272C179.241 90.6058 179.379 90.5853 179.517 90.5662L179.69 90.5428L179.876 90.5193C184.023 90.011 188.229 90.6253 192.067 92.3003C195.605 93.9668 197.692 96.3077 198.627 98.8672C199.764 98.3055 200.951 97.7749 202.194 97.3423C202.775 97.1407 203.364 96.9722 203.958 96.837C203.588 95.4473 203.039 94.1048 202.318 92.8455C201.293 90.9986 199.395 89.512 197.077 87.6961C195.761 86.6651 194.309 85.5279 192.804 84.1582C188.65 80.3768 206.74 68.2828 206.74 68.7937C209.26 80.5821 216.519 93.6426 227.804 97.9263C228.288 97.9192 228.763 98.0652 229.16 98.3457C229.599 98.1924 230.064 98.1309 230.527 98.1656C230.99 98.2002 231.441 98.3301 231.852 98.5472C232.359 98.8196 232.856 99.0528 233.343 99.2486C235.524 99.4786 237.824 99.3946 240.24 98.9434C241.293 98.7459 242.317 98.4688 243.309 98.1246C246.404 96.0835 249.106 92.7276 251.731 89.4671C254.009 86.6368 256.23 83.8785 258.599 82.1148C259.174 81.6829 259.768 81.2784 260.377 80.9021C260.733 79.7745 260.894 78.7793 260.842 77.992C261.344 71.1785 259.033 68.4874 254.913 69.7818C258.095 85.2144 244.193 100.102 228.113 93.629C208.918 85.8958 206.037 60.6517 216.12 44.3336C221.171 35.9324 229.207 29.8306 238.563 27.2935C247.919 24.7564 257.876 25.9786 266.369 30.7066C275.388 35.494 286.87 47.4368 291.206 59.9473C294.314 57.6058 297.054 55.9298 297.054 56.1251C297.956 60.2611 299.462 64.556 301.541 68.5623C302.703 68.6468 303.885 68.8143 305.068 69.0516C298.71 58.1678 299.539 43.0472 306.474 32.0469C311.547 23.7772 319.618 17.7708 329.014 15.2733C338.41 12.7757 348.41 13.9788 356.94 18.6329C368.412 24.6021 383.855 41.8729 383.653 57.2654C391.088 53.543 403.839 57.7012 410.064 62.6981C415.198 66.8199 417.035 71.8997 419.07 77.524L419.076 77.5408C419.377 78.3721 419.682 79.2149 420.002 80.0682C422.57 78.7286 425.371 77.8584 428.272 77.5113C432.454 77.0108 436.696 77.6155 440.568 79.2645C443.004 80.3843 444.758 81.8138 445.926 83.4097C448.184 83.1783 450.473 83.4041 452.652 84.0809C452.281 82.5882 451.696 81.1463 450.907 79.8011C449.873 77.983 447.959 76.5196 445.621 74.732C444.293 73.7171 442.829 72.5977 441.311 71.2496C437.122 67.5271 455.367 55.6221 455.367 56.1251C458.746 71.5513 470.572 89.1907 489.156 85.8038C501.792 83.4898 510.273 70.1429 509.935 65.1797C510.442 58.4727 508.111 55.8233 503.955 57.0977C507.165 72.2891 493.143 86.9439 476.924 80.5723C457.564 72.9598 454.658 48.1104 464.828 32.0469C469.922 23.7772 478.028 17.7708 487.465 15.2733C496.901 12.7757 506.944 13.9788 515.51 18.6329C527.032 24.6021 542.541 41.8729 542.338 57.2654C549.806 53.543 562.611 57.7012 568.862 62.6981C574.018 66.8199 575.864 71.8995 577.907 77.5237L577.961 77.6717C578.33 77.6097 578.701 77.556 579.074 77.5113C583.239 77.0108 587.462 77.6155 591.318 79.2645C594.802 80.8733 596.886 83.1209 597.85 85.5838C598.9 85.0848 599.992 84.616 601.13 84.2276C601.824 83.9917 602.528 83.8018 603.239 83.6582C602.869 82.316 602.324 81.0188 601.613 79.8011C600.583 77.983 598.677 76.5196 596.349 74.732C595.027 73.7171 593.569 72.5977 592.058 71.2496C587.886 67.5271 606.054 55.6221 606.054 56.1251C608.642 67.9942 616.21 81.1736 627.991 85.0777C628.039 85.0594 628.087 85.0425 628.135 85.0274C628.19 85.0108 628.245 84.9959 628.3 84.9832C628.359 84.9698 628.419 84.9585 628.479 84.9498C628.527 84.9427 628.575 84.9373 628.623 84.9334C629.153 84.8904 629.682 85.0364 630.116 85.3457C630.265 85.2933 630.416 85.2515 630.57 85.2207C630.866 85.1617 631.169 85.1429 631.471 85.1656C631.93 85.2002 632.378 85.3301 632.784 85.5472C633.25 85.7996 633.707 86.0184 634.156 86.2049C635.93 86.2803 637.777 86.1553 639.698 85.8038C642.019 85.377 644.199 84.5745 646.209 83.5188C648.444 81.5396 650.491 78.9751 652.493 76.4671C654.752 73.6368 656.953 70.8785 659.302 69.1148C659.41 69.0332 659.518 68.9527 659.627 68.8731C660.189 67.4209 660.454 66.1426 660.389 65.1797C660.893 58.4727 658.572 55.8233 654.434 57.0977C657.63 72.2891 643.668 86.9439 627.519 80.5723C608.241 72.9598 605.347 48.1104 615.474 32.0469C620.547 23.7772 628.618 17.7708 638.014 15.2733C647.41 12.7757 657.41 13.9788 665.94 18.6329C675.017 23.356 686.58 35.1541 690.912 47.4991C694.276 44.8748 697.427 42.9146 697.427 43.1251C698.351 47.4014 699.917 51.8477 702.087 55.9691C703.274 56.0909 704.477 56.293 705.675 56.5623C699.044 45.6448 699.783 30.2203 706.766 19.0469C711.795 10.7772 719.797 4.77081 729.112 2.27325C738.428 -0.224308 748.342 0.978817 756.799 5.63287C768.173 11.6021 783.483 28.8729 783.283 44.2654C788.93 41.4139 797.67 43.1871 804.224 46.4193C810.835 43.1871 819.651 41.4139 825.347 44.2654C825.145 28.8729 840.588 11.6021 852.06 5.63287C860.59 0.978817 870.59 -0.224308 879.986 2.27325C889.382 4.77081 897.453 10.7772 902.526 19.0469C909.54 30.1732 910.308 45.5142 903.711 56.4234C904.906 56.1788 906.101 56.0035 907.276 55.911C909.449 51.806 911.018 47.3814 911.946 43.1251C911.946 42.9271 914.765 44.6539 917.926 47.0474C922.36 34.8673 933.703 23.2982 942.631 18.6329C950.241 14.4629 959.025 13.0633 967.5 14.6136C975.975 13.0633 984.759 14.4629 992.369 18.6329C1003.79 24.6021 1019.17 41.8729 1018.97 57.2654C1026.37 53.543 1039.07 57.7012 1045.27 62.6981C1050.38 66.8199 1052.21 71.8999 1054.23 77.5242L1054.45 78.1336C1055.51 77.8521 1056.59 77.6436 1057.68 77.5113C1061.81 77.0108 1065.99 77.6155 1069.82 79.2645C1072.87 80.6861 1074.84 82.6065 1075.91 84.7334C1076.35 84.554 1076.8 84.3843 1077.26 84.2276C1078.66 83.7476 1080.1 83.4593 1081.55 83.3604C1081.19 82.1241 1080.68 80.9285 1080.02 79.8011C1079 77.983 1077.11 76.5196 1074.8 74.732C1073.49 73.7171 1072.05 72.5977 1070.55 71.2496C1066.41 67.5271 1084.43 55.6221 1084.43 56.1251C1087.02 68.1404 1094.68 81.4986 1106.61 85.2178C1106.9 85.1609 1107.2 85.1431 1107.5 85.1656C1107.74 85.1839 1107.99 85.2293 1108.22 85.3003C1108.43 85.3628 1108.63 85.4454 1108.82 85.5472C1109.07 85.6807 1109.31 85.805 1109.55 85.9197C1112.12 86.3494 1114.87 86.3416 1117.78 85.8038C1117.88 85.7864 1117.97 85.7686 1118.06 85.7498L1118.23 85.7161L1118.41 85.6773C1118.95 85.5591 1119.49 85.4205 1120.01 85.2625C1123.18 83.2371 1125.94 79.802 1128.61 76.4671C1130.88 73.6368 1133.09 70.8785 1135.45 69.1148C1136.27 68.4974 1137.13 67.9358 1138.01 67.4324C1138.24 66.573 1138.34 65.8091 1138.3 65.1797C1138.8 58.4727 1136.49 55.8233 1132.39 57.0977C1135.56 72.2891 1121.72 86.9439 1105.71 80.5723C1086.59 72.9598 1083.73 48.1104 1093.77 32.0469C1098.8 23.7772 1106.8 17.7708 1116.11 15.2733C1125.43 12.7757 1135.34 13.9788 1143.8 18.6329C1152.6 23.2523 1163.76 34.6395 1168.26 46.6868C1171.21 44.4827 1173.74 42.9371 1173.74 43.1251C1174.66 47.3668 1176.22 51.7757 1178.37 55.869C1179.52 55.9305 1180.69 56.0748 1181.86 56.2891C1175.38 45.3887 1176.16 30.1275 1183.12 19.0469C1188.17 10.7772 1196.21 4.77081 1205.56 2.27325C1214.92 -0.224308 1224.88 0.978817 1233.37 5.63287C1244.79 11.6021 1260.17 28.8729 1259.97 44.2654C1267.37 40.543 1280.07 44.7012 1286.27 49.6981C1291.38 53.8199 1293.21 58.8999 1295.23 64.5242L1295.24 64.5411C1295.57 65.4471 1295.9 66.3672 1296.25 67.2999C1298.91 65.8287 1301.84 64.878 1304.88 64.5113C1309.02 64.0108 1313.23 64.6155 1317.07 66.2645C1319.47 67.3763 1321.2 68.793 1322.35 70.375C1324.62 70.1939 1326.91 70.4756 1329.08 71.2144C1328.71 69.6741 1328.12 68.1863 1327.32 66.8011C1326.29 64.983 1324.39 63.5196 1322.08 61.732C1320.76 60.7171 1319.31 59.5977 1317.8 58.2496C1313.65 54.5272 1331.74 42.6221 1331.74 43.1251C1335.09 58.5513 1346.81 76.1907 1365.24 72.8038C1377.77 70.4898 1386.18 57.1429 1385.84 52.1798C1386.34 45.4727 1384.03 42.8233 1379.91 44.0977C1383.09 59.2891 1369.19 73.9439 1353.11 67.5723C1333.92 59.9598 1331.04 35.1104 1341.12 19.0469C1346.17 10.7772 1354.21 4.77081 1363.56 2.27325C1372.92 -0.224308 1382.88 0.978817 1391.37 5.63287C1402.79 11.6021 1418.17 28.8729 1417.97 44.2654C1425.37 40.543 1438.07 44.7012 1444.27 49.6981C1449.38 53.8199 1451.21 58.8999 1453.23 64.5242L1453.37 64.9085C1454.13 64.7383 1454.9 64.6055 1455.68 64.5113C1459.81 64.0108 1463.99 64.6155 1467.82 66.2645C1471.04 67.7645 1473.05 69.8191 1474.08 72.0862C1474.79 71.7747 1475.51 71.4837 1476.26 71.2276C1477.34 70.855 1478.46 70.5977 1479.58 70.4551C1479.21 69.1851 1478.69 67.9573 1478.02 66.8011C1477 64.983 1475.11 63.5196 1472.8 61.732C1471.94 61.0623 1471.02 60.3472 1470.06 59.5511C1469.82 59.3499 1469.57 59.1436 1469.33 58.9315C1469.07 58.7105 1468.81 58.4835 1468.55 58.2496C1464.41 54.5272 1482.43 42.6221 1482.43 43.1251C1485.1 55.5108 1493.16 69.3235 1505.72 72.534C1505.89 72.5069 1506.06 72.4927 1506.23 72.492C1506.28 72.4917 1506.32 72.4922 1506.36 72.4937C1506.41 72.4952 1506.45 72.4978 1506.5 72.5015C1506.96 72.5369 1507.41 72.6687 1507.82 72.8892C1507.88 72.9236 1507.94 72.9573 1508.01 72.9905C1510.44 73.3465 1513.04 73.3101 1515.78 72.8038C1517.58 72.4703 1519.29 71.9073 1520.91 71.1731C1523.31 69.1211 1525.48 66.3609 1527.61 63.6648C1529.88 60.7896 1532.09 57.9876 1534.45 56.1961C1534.68 56.0184 1534.92 55.8453 1535.16 55.6768C1535.36 55.5352 1535.56 55.3968 1535.76 55.2618C1536.17 54.0621 1536.35 53.0049 1536.3 52.1798C1536.8 45.4727 1534.49 42.8233 1530.39 44.0977C1533.56 59.2891 1519.72 73.9439 1503.71 67.5723C1484.59 59.9598 1481.73 35.1104 1491.77 19.0469C1496.8 10.7772 1504.8 4.77081 1514.11 2.27325C1523.43 -0.224308 1533.34 0.978817 1541.8 5.63287C1550.69 10.3016 1562.09 34.8844 1566.5 47.0741C1569.8 44.4909 1572.83 42.5851 1572.83 42.7944C1573.77 47.1772 1575.36 51.736 1577.57 55.954C1578.76 56.0702 1579.97 56.2692 1581.17 56.5375C1574.45 45.4416 1575.18 29.7165 1582.21 18.3342C1587.26 9.93303 1595.3 3.83122 1604.66 1.29412C1614.01 -1.24299 1623.97 -0.0208259 1632.46 4.7072C1643.89 10.7712 1659.26 28.3158 1659.06 43.9528C1664.73 41.0558 1673.51 42.8573 1680.09 46.1408C1686.68 42.8573 1695.45 41.0558 1701.13 43.9528C1700.93 28.3158 1716.3 10.7712 1727.72 4.7072C1736.22 -0.0208259 1746.18 -1.24299 1755.53 1.29412C1764.89 3.83122 1772.92 9.93303 1777.97 18.3342C1784.98 29.6764 1785.73 45.331 1779.08 56.4203C1780.27 56.1784 1781.47 56.0048 1782.64 55.9125C1784.84 51.706 1786.42 47.1628 1787.35 42.7944C1787.35 42.591 1790.22 44.3864 1793.41 46.8598C1797.91 34.7487 1809.23 23.2748 1818.15 18.6335C1826.68 13.9794 1836.68 12.7763 1846.08 15.2739C1855.48 17.7714 1863.55 23.7778 1868.62 32.0475C1878.75 48.111 1875.85 72.9604 1856.58 80.5729C1840.43 86.9445 1826.46 72.2897 1829.66 57.0983C1825.52 55.8239 1823.2 58.4733 1823.71 65.1803C1823.65 65.9882 1823.83 67.0185 1824.22 68.1869C1824.7 68.5051 1825.18 68.8417 1825.64 69.1967C1828 70.9882 1830.21 73.7902 1832.48 76.6655C1834.6 79.3449 1836.76 82.0878 1839.14 84.1357C1840.79 84.8884 1842.55 85.465 1844.4 85.8044C1847.09 86.2968 1849.63 86.3447 1852.03 86.0199C1852.11 85.9777 1852.19 85.9342 1852.28 85.8898C1852.68 85.6694 1853.13 85.5375 1853.59 85.5021C1853.86 85.4821 1854.12 85.4938 1854.38 85.5361C1854.41 85.5412 1854.44 85.5466 1854.47 85.5524C1867.19 82.3757 1875.33 68.5346 1878.04 56.1257C1878.04 55.6227 1896.21 67.5278 1892.04 71.2502C1890.53 72.5983 1889.07 73.7177 1887.75 74.7326C1885.42 76.5202 1883.51 77.9836 1882.48 79.8017C1880.74 82.7902 1879.99 86.256 1880.36 89.6945C1880.73 93.1327 1882.19 96.3639 1884.53 98.9167C1886.22 100.861 1889.88 104.416 1892.57 104.416C1893.55 104.45 1896.71 101.801 1895.94 101.599C1885.68 98.6818 1880.43 84.966 1892.78 79.2651C1896.63 77.6161 1900.86 77.0114 1905.02 77.5119C1909.19 78.0124 1913.14 79.6005 1916.5 82.1154C1918.86 83.8791 1921.08 86.6374 1923.36 89.4677C1928.75 96.1633 1934.47 103.262 1943.24 98.5478C1943.65 98.3307 1944.1 98.2009 1944.57 98.1662C1945.03 98.1315 1945.5 98.193 1945.93 98.3464C1946.22 98.1457 1946.54 98.0136 1946.88 97.9574C1947.06 97.9272 1947.25 97.9189 1947.44 97.934C1947.97 97.977 1948.48 98.206 1948.86 98.5812C1954.65 104.014 1948.05 114.477 1941.96 116.59C1938.17 117.77 1934.17 118.125 1930.22 117.629L1927.7 117.327C1920.94 133.156 1900.82 134.698 1887.7 126.214C1887.09 125.845 1878.68 119.474 1879.15 118.836C1870.44 131.01 1859.4 138.823 1844.09 139.93C1833.7 140.701 1807.15 135.134 1808.33 121.284C1808.24 120.88 1808.24 120.461 1808.33 120.056C1808.41 119.651 1808.59 119.269 1808.83 118.937C1808.89 118.864 1808.94 118.791 1808.99 118.719C1807.79 118.513 1806.61 118.239 1805.44 117.897C1802.14 123.115 1796.08 127.061 1788.92 126.65C1785.22 126.45 1781.58 125.551 1778.22 124.001C1778.23 124.008 1778.23 124.002 1778.21 123.985C1778.16 123.94 1777.98 123.819 1777.73 123.639L1777.68 123.603C1776.9 123.049 1775.42 122.003 1774.16 120.976C1771.11 123.014 1767.82 124.648 1764.26 125.831C1761.36 127.084 1758.23 127.758 1755.04 127.8C1755.02 127.8 1755.01 127.801 1755 127.801C1754.52 127.85 1754.04 127.893 1753.55 127.929C1743.2 128.712 1716.77 123.057 1717.94 108.987C1717.85 108.577 1717.85 108.151 1717.94 107.739C1717.99 107.497 1718.07 107.264 1718.18 107.043C1718.25 106.889 1718.34 106.742 1718.45 106.603C1721.38 102.295 1724.04 98.2096 1722.7 92.9914C1720.86 97.6625 1718.23 101.972 1714.95 105.728C1712.79 109.125 1709.5 111.97 1705.52 113.424C1702.33 114.903 1698.84 115.653 1695.31 115.607C1690.77 115.546 1686.34 114.172 1682.55 111.645C1682.1 111.282 1681.34 110.166 1680.56 109.012C1680.4 108.786 1680.25 108.558 1680.09 108.335C1679.94 108.558 1679.78 108.786 1679.63 109.012C1678.84 110.166 1678.08 111.282 1677.64 111.645C1673.84 114.172 1669.42 115.546 1664.88 115.607C1661.35 115.653 1657.86 114.903 1654.67 113.424C1650.68 111.969 1647.39 109.124 1645.24 105.728C1641.95 101.972 1639.33 97.6625 1637.48 92.9914C1636.15 98.2096 1638.81 102.295 1641.74 106.603C1641.83 106.719 1641.9 106.841 1641.97 106.968C1642.02 107.06 1642.06 107.155 1642.1 107.252C1642.17 107.409 1642.21 107.572 1642.25 107.739C1642.34 108.151 1642.33 108.577 1642.25 108.987C1643.42 123.057 1616.99 128.712 1606.64 127.929C1606.39 127.911 1606.15 127.891 1605.91 127.87C1605.66 127.848 1605.42 127.824 1605.17 127.799C1605.08 127.801 1604.98 127.802 1604.89 127.802C1604.75 127.803 1604.61 127.802 1604.47 127.8C1600.62 127.749 1596.85 126.759 1593.47 124.928C1590.73 123.818 1588.16 122.429 1585.74 120.783C1584.97 121.425 1584.1 122.088 1583.35 122.643C1582.82 123.028 1582.36 123.362 1582.02 123.603L1581.71 123.822C1581.61 123.897 1581.54 123.95 1581.5 123.979C1581.47 124.001 1581.47 124.009 1581.49 124.001C1578.15 125.551 1576.5 124.727 1572.83 124.928C1565.76 125.337 1557.72 110.145 1554.44 104.958C1553.28 105.289 1552.1 105.554 1550.91 105.752L1551.04 105.936ZM1757.59 73.3595C1758.18 71.9003 1758.83 70.4899 1759.59 69.1366C1746.44 70.0529 1736.43 57.1213 1739.18 43.7824C1735.06 42.488 1732.75 45.1791 1733.25 51.9926C1732.92 57.0346 1741.33 70.5934 1753.85 72.944C1755.13 73.1825 1756.38 73.3185 1757.59 73.3595ZM884.381 69.0318C883.615 70.3743 882.972 71.7737 882.382 73.2215C881.061 73.1956 879.701 73.0599 878.302 72.8038C865.72 70.4898 857.275 57.1429 857.611 52.1798C857.107 45.4727 859.428 42.8233 863.566 44.0977C860.782 57.3321 871.02 70.159 884.381 69.0318ZM962.11 82.0987C963.135 83.1402 964.195 84.0835 965.305 84.8621C966.02 85.1209 966.752 85.3453 967.5 85.5311C970.337 84.8267 972.945 83.565 975.265 81.9881C972.522 82.2845 969.906 81.9871 967.5 81.2134C965.799 81.7605 963.992 82.0694 962.11 82.0987ZM1601.94 73.3725C1603.36 73.3642 1604.82 73.2258 1606.33 72.944C1618.86 70.5934 1627.27 57.0346 1626.94 51.9926C1627.44 45.1791 1625.13 42.488 1621.01 43.7824C1623.8 57.3493 1613.4 70.4948 1599.92 69.0773C1600.7 70.4526 1601.35 71.8871 1601.94 73.3725ZM730.782 72.8038C729.294 73.0784 727.849 73.2149 726.45 73.2254C725.852 71.7649 725.201 70.3538 724.423 69.0005C737.832 70.3731 748.175 57.4425 745.391 44.0977C749.494 42.8233 751.795 45.4727 751.295 52.1798C751.629 57.1429 743.257 70.4898 730.782 72.8038ZM1325.79 85.3218C1327.55 83.1976 1328.74 80.6612 1329.24 77.9549C1327.97 78.836 1326.67 80.7308 1325.83 85.1446L1325.79 85.3218ZM1201.82 69.075C1202.57 70.3982 1203.2 71.7767 1203.78 73.202C1204.91 73.1514 1206.06 73.0208 1207.24 72.8038C1219.77 70.4898 1228.18 57.1429 1227.84 52.1798C1228.34 45.4727 1226.03 42.8233 1221.91 44.0977C1224.64 57.1207 1214.81 69.7493 1201.82 69.075ZM1008.24 98.3577C1007.54 97.5201 1006.93 96.6177 1006.42 95.6658C1006.94 95.4476 1007.47 95.2564 1008.01 95.0931C1008.99 94.6875 1010 94.3626 1011.02 94.1185C1011.37 94.823 1011.78 95.5054 1012.26 96.1551C1010.82 96.7356 1009.46 97.4705 1008.24 98.3577ZM449.895 97.6553C451.306 95.7718 452.29 93.6062 452.777 91.3091C451.699 92.272 450.637 94.0848 449.895 97.6553ZM326.642 86.221C326.065 84.7767 325.437 83.3794 324.693 82.0379C338.018 83.1116 348.213 70.3074 345.434 57.0977C349.572 55.8233 351.893 58.4727 351.389 65.1797C351.725 70.1429 343.28 83.4898 330.698 85.8038C329.307 86.0582 327.955 86.1941 326.642 86.221Z" fill="#211C25"/>
</svg>
