<svg version="1.0" xmlns="http://www.w3.org/2000/svg" width="933.333" height="933.333" viewBox="0 0 700 700"><path d="M338 14.6c-19 4-37 20.3-42.5 38.6-3.6 11.9-3 27.9 1.5 38.2l1.8 4.3-24.7 18.4c-13.5 10.1-24.8 18.6-25.1 18.9-.3.3-3.9 3-8 6s-8.2 6-9 6.7c-.8.7-9.8 7.4-20 15-10.2 7.5-18.9 14.1-19.5 14.5-1.2 1.1-49.9 37.4-54.6 40.8-1.9 1.3-3.8 2.8-4.4 3.3-.5.4-3.4 2.6-6.4 4.7l-5.3 4H0v458.9h700V228H578.2l-42.4-31.6c-23.3-17.4-48.6-36.4-56.3-42.1-7.7-5.8-15.3-11.5-16.9-12.6-1.6-1.2-14.2-10.6-28-21-13.8-10.3-25.9-19.4-26.8-20.2-.9-.7-2.8-2.1-4.1-3l-2.4-1.6 2.5-6.7c3.1-8.2 3.9-25.1 1.6-32.9-5.8-19.7-21.1-35.5-39.5-40.7-7.7-2.3-20.1-2.7-27.9-1zm-15.5 105.7c9.5 5.1 16.6 6.9 27 7 12.7 0 24.5-3.8 34.9-11.4 4.4-3.2 5.1-3.4 6.9-1.8.7.6 13.6 10.3 28.7 21.5 15.1 11.3 28.6 21.3 30 22.4 1.4 1 5.4 4 9 6.7 3.6 2.6 7.2 5.3 8 6 .8.7 4 3 7 5.2s6 4.4 6.5 4.8c.6.5 14.9 11.2 31.8 23.8l30.8 23-120.8.5-120.8.5v4.7c0 3.6-.4 4.8-1.5 4.9-5.2.3-18 0-18.7-.4-.5-.3-.8-2.6-.6-5.1l.4-4.6H260v10l-3.7.1c-8.9.2-14.4.1-15.7-.4-1.1-.4-1.5-1.9-1.3-4.9l.2-4.3-40.7-.3c-22.5-.1-40.8-.6-40.8-1 .1-.4 4.4-3.9 9.6-7.7 5.3-3.9 10.3-7.6 11.2-8.3 1-.7 7.8-5.7 15.2-11.2 7.4-5.6 15.5-11.6 18-13.5 2.5-1.9 24.8-18.6 49.5-37 24.8-18.5 46.1-34.5 47.4-35.5 2.4-1.9 2.4-1.9 6.5 1.4 2.3 1.8 5.5 4 7.1 4.9z"/></svg>