<svg width="15" height="15" fill="none" xmlns="http://www.w3.org/2000/svg"><path d="M6.235 8.76a8.955 8.955 0 003.26 2.154l1.66-1.35a.29.29 0 01.335 0l3.083 2.03a.89.89 0 01.422.677.916.916 0 01-.277.752l-1.444 1.458a1.756 1.756 0 01-.74.446 1.726 1.726 0 01-.86.035 15.352 15.352 0 01-7.553-4.048 15.29 15.29 0 01-4.083-7.57 1.735 1.735 0 01.037-.863c.084-.28.239-.533.447-.734L2.02.272a.88.88 0 01.72-.267.869.869 0 01.653.411l2.053 3.108a.287.287 0 010 .337l-1.353 1.66A8.895 8.895 0 006.235 8.76z" fill="#fff"/></svg>