<svg width="24" height="24" fill="none" xmlns="http://www.w3.org/2000/svg"><path d="M24 5.46a15.126 15.126 0 00-.12-1.548 5.147 5.147 0 00-.444-1.296 4.392 4.392 0 00-.852-1.2 4.693 4.693 0 00-1.2-.852 5.136 5.136 0 00-1.296-.432A12.251 12.251 0 0018.552 0H5.46c-.518.013-1.034.054-1.548.12a5.16 5.16 0 00-1.296.444c-.445.214-.85.503-1.2.852a4.692 4.692 0 00-.852 1.2c-.201.41-.346.847-.432 1.296C.056 4.421.012 4.934 0 5.448V18.54c.013.518.054 1.034.12 1.548.09.45.239.886.444 1.296.214.445.503.85.852 1.2a4.69 4.69 0 001.2.852c.41.201.847.346 1.296.432.509.076 1.022.12 1.536.132H18.54a15.126 15.126 0 001.548-.12 5.16 5.16 0 001.296-.444 4.39 4.39 0 001.2-.852 4.71 4.71 0 00.852-1.2c.201-.41.346-.847.432-1.296.076-.509.12-1.022.132-1.536V5.46zM12.276 20.4a8.544 8.544 0 01-4.116-1.08l-4.56 1.2 1.2-4.464a8.532 8.532 0 01-1.2-4.296 8.616 8.616 0 118.676 8.64zm0-15.756A7.2 7.2 0 006.216 15.6l.168.276-.72 2.628L8.4 17.76l.264.156a7.2 7.2 0 003.6.996 7.2 7.2 0 000-14.4l.012.132zm4.2 10.224a2.184 2.184 0 01-1.452 1.02c-.448.082-.91.053-1.344-.084-.409-.128-.81-.28-1.2-.456a9.6 9.6 0 01-3.672-3.24 4.176 4.176 0 01-.876-2.22 2.4 2.4 0 01.756-1.8.78.78 0 01.576-.264H9.6c.132 0 .312 0 .48.372.168.372.612 1.488.672 1.596a.408.408 0 010 .372c-.053.13-.126.252-.216.36-.108.132-.228.288-.324.384-.096.096-.216.216-.096.432.327.551.73 1.052 1.2 1.488a6 6 0 001.728 1.068c.216.108.348.096.468 0 .12-.096.54-.624.684-.84.144-.216.288-.18.48-.108s1.26.588 1.476.696c.216.108.348.156.408.252.052.314.023.636-.084.936v.036z" fill="#fff"/></svg>