<svg width="24" height="24" fill="none" xmlns="http://www.w3.org/2000/svg"><path d="M15.684 0H8.317C1.594 0 0 1.594 0 8.317v7.367c0 6.723 1.594 8.317 8.317 8.317h7.367c6.723 0 8.317-1.594 8.317-8.317V8.317C24 1.594 22.39 0 15.684 0zm3.691 17.121h-1.742c-.66 0-.863-.523-2.05-1.726-1.031-1-1.488-1.133-1.742-1.133-.36 0-.462.101-.462.594v1.574c0 .422-.133.676-1.25.676-1.848 0-3.899-1.118-5.336-3.2C4.625 10.857 4.03 8.57 4.03 8.098c0-.255.102-.492.59-.492h1.746c.442 0 .61.203.781.675.864 2.493 2.301 4.676 2.895 4.676.219 0 .32-.101.32-.66V9.723c-.067-1.187-.692-1.29-.692-1.71 0-.204.168-.407.438-.407h2.745c.372 0 .508.203.508.64v3.473c0 .375.168.508.27.508.218 0 .406-.133.812-.54 1.253-1.406 2.152-3.574 2.152-3.574.117-.254.32-.492.762-.492h1.746c.524 0 .64.269.524.644-.22 1.015-2.356 4.031-2.356 4.031-.184.305-.255.438 0 .777.187.255.797.782 1.203 1.254.746.848 1.32 1.559 1.473 2.05.171.489-.082.743-.575.743l.002.001z" fill="#fff"/></svg>