<svg width="24" height="24" viewBox="0 0 24 24" fill="none" xmlns="http://www.w3.org/2000/svg">
<mask id="path-1-inside-1_2316_1694" fill="white">
<path fill-rule="evenodd" clip-rule="evenodd" d="M4 0C1.79086 0 0 1.79086 0 4V20C0 22.2091 1.79086 24 4 24H20C22.2091 24 24 22.2091 24 20V4C24 1.79086 22.2091 0 20 0H4ZM18.827 8.72822L10.1859 17.3706L5 12.1847L6.72822 10.4564L10.1859 13.9141L17.0988 7L18.827 8.72822Z"/>
</mask>
<path fill-rule="evenodd" clip-rule="evenodd" d="M4 0C1.79086 0 0 1.79086 0 4V20C0 22.2091 1.79086 24 4 24H20C22.2091 24 24 22.2091 24 20V4C24 1.79086 22.2091 0 20 0H4ZM18.827 8.72822L10.1859 17.3706L5 12.1847L6.72822 10.4564L10.1859 13.9141L17.0988 7L18.827 8.72822Z" fill="#FFC10B"/>
<path d="M10.1859 17.3706L9.47878 18.0777L10.1859 18.7848L10.893 18.0776L10.1859 17.3706ZM18.827 8.72822L19.5342 9.43528L20.2412 8.72817L19.5341 8.02112L18.827 8.72822ZM5 12.1847L4.29289 11.4776L3.58579 12.1847L4.29289 12.8918L5 12.1847ZM6.72822 10.4564L7.43533 9.74934L6.72822 9.04223L6.02112 9.74934L6.72822 10.4564ZM10.1859 13.9141L9.47878 14.6212L10.186 15.3284L10.8931 14.6212L10.1859 13.9141ZM17.0988 7L17.8059 6.29289L17.0987 5.58572L16.3916 6.29296L17.0988 7ZM1 4C1 2.34315 2.34315 1 4 1V-1C1.23858 -1 -1 1.23858 -1 4H1ZM1 20V4H-1V20H1ZM4 23C2.34315 23 1 21.6569 1 20H-1C-1 22.7614 1.23858 25 4 25V23ZM20 23H4V25H20V23ZM23 20C23 21.6569 21.6569 23 20 23V25C22.7614 25 25 22.7614 25 20H23ZM23 4V20H25V4H23ZM20 1C21.6569 1 23 2.34315 23 4H25C25 1.23858 22.7614 -1 20 -1V1ZM4 1H20V-1H4V1ZM10.893 18.0776L19.5342 9.43528L18.1198 8.02116L9.47873 16.6635L10.893 18.0776ZM4.29289 12.8918L9.47878 18.0777L10.893 16.6634L5.70711 11.4776L4.29289 12.8918ZM6.02112 9.74934L4.29289 11.4776L5.70711 12.8918L7.43533 11.1636L6.02112 9.74934ZM10.893 13.207L7.43533 9.74934L6.02112 11.1636L9.47878 14.6212L10.893 13.207ZM16.3916 6.29296L9.47872 13.2071L10.8931 14.6212L17.8059 7.70704L16.3916 6.29296ZM19.5341 8.02112L17.8059 6.29289L16.3917 7.70711L18.1199 9.43533L19.5341 8.02112Z" fill="#FFC10B" mask="url(#path-1-inside-1_2316_1694)"/>
</svg>
