<svg width="60" height="60" viewBox="0 0 60 60" fill="none" xmlns="http://www.w3.org/2000/svg">
<rect width="60" height="60" rx="8" fill="#FFC10B" fill-opacity="0.8"/>
<g clip-path="url(#clip0_2391_1492)">
<path d="M35 24H40V26H38V39C38 39.2652 37.8946 39.5196 37.7071 39.7071C37.5196 39.8946 37.2652 40 37 40H23C22.7348 40 22.4804 39.8946 22.2929 39.7071C22.1054 39.5196 22 39.2652 22 39V26H20V24H25V21C25 20.7348 25.1054 20.4804 25.2929 20.2929C25.4804 20.1054 25.7348 20 26 20H34C34.2652 20 34.5196 20.1054 34.7071 20.2929C34.8946 20.4804 35 20.7348 35 21V24ZM36 26H24V38H36V26ZM31.414 32L33.182 33.768L31.768 35.182L30 33.414L28.232 35.182L26.818 33.768L28.586 32L26.818 30.232L28.232 28.818L30 30.586L31.768 28.818L33.182 30.232L31.414 32ZM27 22V24H33V22H27Z" fill="black"/>
</g>
<defs>
<clipPath id="clip0_2391_1492">
<rect width="24" height="24" fill="white" transform="translate(18 18)"/>
</clipPath>
</defs>
</svg>
