<svg width="30" height="19" viewBox="0 0 30 19" fill="none" xmlns="http://www.w3.org/2000/svg">
<path d="M19.0462 2.02301H10.9277V16.8912H19.0462V2.02301Z" fill="#FF5A00"/>
<path d="M11.4692 9.45715C11.4692 6.43637 12.8623 3.75532 15 2.02303C13.4267 0.762081 11.4422 0 9.27742 0C4.14932 0 0 4.2297 0 9.45715C0 14.6846 4.14932 18.9143 9.27742 18.9143C11.4422 18.9143 13.4267 18.1522 15 16.8913C12.8593 15.1835 11.4692 12.4779 11.4692 9.45715Z" fill="#EB001B"/>
<path d="M30 9.45715C30 14.6846 25.8507 18.9143 20.7226 18.9143C18.5578 18.9143 16.5733 18.1522 15 16.8913C17.1647 15.1559 18.5308 12.4779 18.5308 9.45715C18.5308 6.43637 17.1377 3.75532 15 2.02303C16.5703 0.762081 18.5548 0 20.7196 0C25.8507 0 30 4.25725 30 9.45715Z" fill="#F79E1B"/>
</svg>
