<svg width="25" height="25" viewBox="0 0 25 25" fill="none" xmlns="http://www.w3.org/2000/svg">
<path fill-rule="evenodd" clip-rule="evenodd" d="M20.0315 7.4016C20.1071 7.3775 20.2066 7.4257 20.3061 7.55823C20.3061 7.55823 20.3061 7.55823 24.8023 12C25.0649 12.2651 25.0649 12.6667 24.8023 12.8634C24.8023 12.8634 24.8023 12.8634 20.3061 17.3735C20.2066 17.506 20.1071 17.5381 20.0315 17.498C19.956 17.4578 19.9082 17.3414 19.9082 17.1727V7.69076C19.9082 7.5261 19.956 7.4257 20.0315 7.4016Z" fill="#ED1C24"/>
<path fill-rule="evenodd" clip-rule="evenodd" d="M12.3423 0H12.6606L12.967 0.128515C12.967 0.128515 12.967 0.128514 17.5945 4.77108C17.7934 5.03614 17.7258 5.23695 17.3955 5.23695C17.3955 5.23695 17.3955 5.23695 15.4777 5.23695C15.1474 5.23695 14.8848 5.50201 14.8848 5.83534C14.8848 5.83534 14.8848 5.83534 14.8848 9.28112C14.8848 9.61446 14.6182 9.87952 14.2203 9.87952C14.2203 9.87952 14.2203 9.87952 10.8502 9.87952C10.5199 9.87952 10.2534 9.61446 10.2534 9.28112C10.2534 9.28112 10.2534 9.28113 10.2534 5.83534C10.2534 5.50201 9.99075 5.23695 9.65652 5.23695H7.60738C7.27713 5.23695 7.20949 5.03614 7.40843 4.77108C7.40843 4.77108 7.40843 4.77108 12.0399 0.128515L12.3423 0Z" fill="#ED1C24"/>
<path fill-rule="evenodd" clip-rule="evenodd" d="M5.09102 7.30121C5.17458 7.34137 5.2263 7.45784 5.2263 7.62651V17.3052C5.2263 17.4739 5.17458 17.5743 5.09102 17.6064C5.01144 17.6386 4.89605 17.6064 4.76077 17.506C4.76077 17.506 4.76077 17.506 0.196956 12.8635C-0.0656521 12.6667 -0.0656521 12.2651 0.196956 12C0.196956 12 0.196957 12 4.76077 7.42571C4.89605 7.29318 5.01144 7.26105 5.09102 7.30121Z" fill="#ED1C24"/>
<path fill-rule="evenodd" clip-rule="evenodd" d="M10.8494 14.9197C10.8494 14.9197 10.8494 14.9197 14.2196 14.9197C14.6175 14.9197 14.8841 15.1847 14.8841 15.5181C14.8841 15.5181 14.8841 15.5181 14.8841 19.1647C14.8841 19.5622 15.1467 19.8273 15.4769 19.8273H17.2635C17.5937 19.8273 17.725 20.0241 17.4624 20.2249C17.4624 20.2249 17.4624 20.2249 12.9662 24.7992C12.8309 24.9317 12.6678 25 12.5007 25C12.3376 25 12.1704 24.9317 12.0391 24.7992C12.0391 24.7992 12.0391 24.7992 7.54297 20.2249C7.27638 20.0241 7.40768 19.8273 7.73793 19.8273C7.73793 19.8273 7.73793 19.8273 9.65577 19.8273C9.99 19.8273 10.2526 19.5622 10.2526 19.1647C10.2526 19.1647 10.2526 19.1647 10.2526 15.5181C10.2526 15.1847 10.5192 14.9197 10.8494 14.9197Z" fill="#ED1C24"/>
</svg>
