<svg width="52" height="46" viewBox="0 0 52 46" fill="none" xmlns="http://www.w3.org/2000/svg">
<path d="M2.17178 5L1.17905 11H50.8209L49.8282 5H2.17178Z" stroke="#282828" stroke-width="2"/>
<path d="M4.99462 1L4.21402 5H47.786L47.0054 1H4.99462Z" stroke="#282828" stroke-width="2"/>
<mask id="path-3-inside-1_2136_2136" fill="white">
<path fill-rule="evenodd" clip-rule="evenodd" d="M48 10H4L6 41C6 43.7614 14.9543 46 26 46C37.0457 46 46 43.7614 46 41L48 10Z"/>
</mask>
<path fill-rule="evenodd" clip-rule="evenodd" d="M48 10H4L6 41C6 43.7614 14.9543 46 26 46C37.0457 46 46 43.7614 46 41L48 10Z" fill="white"/>
<path d="M4 10V8H1.86681L2.00415 10.1288L4 10ZM48 10L49.9959 10.1288L50.1332 8H48V10ZM6 41H8V40.9356L7.99585 40.8712L6 41ZM46 41L44.0041 40.8712L44 40.9356V41H46ZM4 12H48V8H4V12ZM7.99585 40.8712L5.99585 9.87124L2.00415 10.1288L4.00415 41.1288L7.99585 40.8712ZM26 44C20.5914 44 15.762 43.45 12.3429 42.5952C10.618 42.164 9.36398 41.6823 8.58936 41.2245C7.68085 40.6875 8 40.5467 8 41H4C4 42.834 5.43844 44.0086 6.55404 44.668C7.80353 45.4065 9.47843 46.0022 11.3728 46.4758C15.1923 47.4307 20.3629 48 26 48V44ZM44 41C44 40.5467 44.3192 40.6875 43.4106 41.2245C42.636 41.6823 41.382 42.164 39.6571 42.5952C36.238 43.45 31.4086 44 26 44V48C31.6371 48 36.8077 47.4307 40.6272 46.4758C42.5216 46.0022 44.1965 45.4065 45.446 44.668C46.5616 44.0086 48 42.834 48 41H44ZM46.0041 9.87124L44.0041 40.8712L47.9959 41.1288L49.9959 10.1288L46.0041 9.87124Z" fill="#282828" mask="url(#path-3-inside-1_2136_2136)"/>
<path d="M13.0571 32.4062L13.2056 31.5527C13.3045 31.5651 13.5828 31.6208 14.0405 31.7197C14.5106 31.8187 14.925 31.8929 15.2837 31.9424C15.6548 31.9919 15.9826 32.0166 16.2671 32.0166C16.9722 32.0166 17.5226 31.7507 17.9185 31.2188C18.3267 30.6868 18.5308 30.0684 18.5308 29.3633C18.5308 28.3984 18.1968 27.5697 17.5288 26.877C16.8732 26.1719 15.9207 25.8193 14.6714 25.8193C14.4735 25.8193 14.325 25.8255 14.2261 25.8379V24.9287C14.3374 24.9411 14.5106 24.9473 14.7456 24.9473C15.8713 24.9473 16.7866 24.7493 17.4917 24.3535C18.2091 23.9577 18.5679 23.3268 18.5679 22.4609C18.5679 21.8053 18.3823 21.2796 18.0112 20.8838C17.6401 20.488 17.1577 20.29 16.564 20.29C16.2918 20.29 15.995 20.3086 15.6733 20.3457C15.3641 20.3704 15.0239 20.4076 14.6528 20.457C14.2817 20.5065 14.0467 20.5374 13.9478 20.5498L13.6509 19.7148C13.7993 19.6777 14.0405 19.6097 14.3745 19.5107C14.7085 19.4118 14.9683 19.3376 15.1538 19.2881C15.3517 19.2386 15.5991 19.1953 15.896 19.1582C16.1929 19.1087 16.4712 19.084 16.731 19.084C17.6834 19.084 18.438 19.418 18.9946 20.0859C19.5513 20.7415 19.8296 21.6445 19.8296 22.7949C19.8296 23.5247 19.6502 24.1247 19.2915 24.5947C18.9451 25.0648 18.4132 25.3555 17.6958 25.4668C18.438 25.7637 19.0008 26.2523 19.3843 26.9326C19.7801 27.6006 19.978 28.3923 19.978 29.3076C19.978 30.359 19.7306 31.262 19.2358 32.0166C18.741 32.7588 17.9927 33.1299 16.9907 33.1299C15.5435 33.1299 14.2323 32.8887 13.0571 32.4062ZM21.481 26.8213C21.4933 24.1494 21.8397 22.2259 22.52 21.0508C23.2004 19.8633 24.2332 19.2324 25.6187 19.1582C26.2248 19.1582 26.7629 19.3252 27.2329 19.6592C27.703 19.9932 28.0741 20.4199 28.3462 20.9395C28.6307 21.4466 28.8657 22.0589 29.0513 22.7764C29.2368 23.4814 29.3605 24.1556 29.4224 24.7988C29.4966 25.4297 29.5461 26.1038 29.5708 26.8213C29.5708 27.7985 29.4224 28.8005 29.1255 29.8271C28.841 30.8415 28.3957 31.7321 27.7896 32.499C27.1958 33.2536 26.5278 33.6309 25.7856 33.6309C22.9159 33.6309 21.481 31.361 21.481 26.8213ZM25.3589 20.5869C25.062 20.6488 24.7961 20.7477 24.561 20.8838C24.326 21.0199 24.1281 21.1745 23.9673 21.3477C23.8188 21.5208 23.689 21.7497 23.5776 22.0342C23.4663 22.3187 23.3797 22.5846 23.3179 22.832C23.2684 23.0671 23.2189 23.3763 23.1694 23.7598C23.1323 24.1432 23.1076 24.4772 23.0952 24.7617C23.0828 25.0339 23.0643 25.3988 23.0396 25.8564C23.0272 26.3018 23.0086 26.6667 22.9839 26.9512C22.9839 27.5202 23.0148 28.0645 23.0767 28.584C23.1385 29.0911 23.2498 29.623 23.4106 30.1797C23.5838 30.7363 23.8498 31.1878 24.2085 31.5342C24.5672 31.8805 25.0002 32.0785 25.5073 32.1279C26.2743 32.1279 26.9051 31.596 27.3999 30.5322C27.9071 29.4684 28.1606 28.3923 28.1606 27.3037C28.1606 22.8753 27.2267 20.6364 25.3589 20.5869ZM31.0923 26.8213C31.1047 24.1494 31.451 22.2259 32.1313 21.0508C32.8117 19.8633 33.8446 19.2324 35.23 19.1582C35.8361 19.1582 36.3742 19.3252 36.8442 19.6592C37.3143 19.9932 37.6854 20.4199 37.9575 20.9395C38.242 21.4466 38.4771 22.0589 38.6626 22.7764C38.8481 23.4814 38.9718 24.1556 39.0337 24.7988C39.1079 25.4297 39.1574 26.1038 39.1821 26.8213C39.1821 27.7985 39.0337 28.8005 38.7368 29.8271C38.4523 30.8415 38.007 31.7321 37.4009 32.499C36.8071 33.2536 36.1392 33.6309 35.397 33.6309C32.5272 33.6309 31.0923 31.361 31.0923 26.8213ZM34.9702 20.5869C34.6733 20.6488 34.4074 20.7477 34.1724 20.8838C33.9373 21.0199 33.7394 21.1745 33.5786 21.3477C33.4302 21.5208 33.3003 21.7497 33.189 22.0342C33.0776 22.3187 32.991 22.5846 32.9292 22.832C32.8797 23.0671 32.8302 23.3763 32.7808 23.7598C32.7437 24.1432 32.7189 24.4772 32.7065 24.7617C32.6942 25.0339 32.6756 25.3988 32.6509 25.8564C32.6385 26.3018 32.62 26.6667 32.5952 26.9512C32.5952 27.5202 32.6261 28.0645 32.688 28.584C32.7498 29.0911 32.8612 29.623 33.022 30.1797C33.1951 30.7363 33.4611 31.1878 33.8198 31.5342C34.1785 31.8805 34.6115 32.0785 35.1187 32.1279C35.8856 32.1279 36.5164 31.596 37.0112 30.5322C37.5184 29.4684 37.772 28.3923 37.772 27.3037C37.772 22.8753 36.8381 20.6364 34.9702 20.5869Z" fill="#282828"/>
</svg>
