<svg width="52" height="55" viewBox="0 0 52 55" fill="none" xmlns="http://www.w3.org/2000/svg">
<path d="M2.17178 5L1.17905 11H50.8209L49.8282 5H2.17178Z" fill="#FFC10B" stroke="#282828" stroke-width="2"/>
<path d="M4.99462 1L4.21402 5H47.786L47.0054 1H4.99462Z" fill="#FFC10B" stroke="#282828" stroke-width="2"/>
<mask id="path-3-inside-1_2136_2143" fill="white">
<path fill-rule="evenodd" clip-rule="evenodd" d="M48 10H4L6 50C6 52.7614 14.9543 55 26 55C37.0457 55 46 52.7614 46 50L48 10Z"/>
</mask>
<path fill-rule="evenodd" clip-rule="evenodd" d="M48 10H4L6 50C6 52.7614 14.9543 55 26 55C37.0457 55 46 52.7614 46 50L48 10Z" fill="#FFC10B"/>
<path d="M4 10V8H1.8975L2.0025 10.0999L4 10ZM48 10L49.9975 10.0999L50.1025 8H48V10ZM6 50H8V49.95L7.9975 49.9001L6 50ZM46 50L44.0025 49.9001L44 49.95V50H46ZM4 12H48V8H4V12ZM7.9975 49.9001L5.9975 9.90012L2.0025 10.0999L4.0025 50.0999L7.9975 49.9001ZM26 53C20.5914 53 15.762 52.45 12.3429 51.5952C10.618 51.164 9.36398 50.6823 8.58936 50.2245C7.68085 49.6875 8 49.5467 8 50H4C4 51.834 5.43844 53.0086 6.55404 53.668C7.80353 54.4065 9.47843 55.0022 11.3728 55.4758C15.1923 56.4307 20.3629 57 26 57V53ZM44 50C44 49.5467 44.3191 49.6875 43.4106 50.2245C42.636 50.6823 41.382 51.164 39.6571 51.5952C36.238 52.45 31.4086 53 26 53V57C31.6371 57 36.8077 56.4307 40.6272 55.4758C42.5216 55.0022 44.1965 54.4065 45.446 53.668C46.5616 53.0086 48 51.834 48 50H44ZM46.0025 9.90012L44.0025 49.9001L47.9975 50.0999L49.9975 10.0999L46.0025 9.90012Z" fill="#282828" mask="url(#path-3-inside-1_2136_2143)"/>
<path d="M19.8691 23.1328L20.084 24.0117C19.446 24.1289 18.7168 24.1875 17.8965 24.1875C16.6725 24.1875 15.8913 24.207 15.5527 24.2461C15.3574 25.7435 15.1035 27.332 14.791 29.0117C15.1686 28.9336 15.5332 28.8945 15.8848 28.8945C17.0306 28.8945 18.0462 29.3503 18.9316 30.2617C19.8171 31.1602 20.2598 32.2018 20.2598 33.3867C20.2598 34.5065 19.8236 35.4635 18.9512 36.2578C18.0788 37.0521 17.0046 37.4492 15.7285 37.4492C14.4915 37.4492 13.2871 37.0391 12.1152 36.2188C12.1283 36.2057 12.2259 35.9974 12.4082 35.5938C12.6035 35.1901 12.7923 34.9883 12.9746 34.9883C13.0658 34.9883 13.1504 35.0208 13.2285 35.0859C14.127 35.763 14.9733 36.1016 15.7676 36.1016C16.5749 36.1016 17.2389 35.7826 17.7598 35.1445C18.2806 34.5065 18.541 33.7904 18.541 32.9961C18.541 32.2539 18.2936 31.6224 17.7988 31.1016C17.3171 30.5807 16.6074 30.3203 15.6699 30.3203C15.3314 30.3203 15.0124 30.3464 14.7129 30.3984C14.4525 30.2552 14.166 30.112 13.8535 29.9688C13.541 29.8255 13.2806 29.7018 13.0723 29.5977C13.3717 28.4258 13.6191 27.2539 13.8145 26.082C14.0098 24.9102 14.2702 23.862 14.5957 22.9375C15.0514 22.9766 15.8913 22.9961 17.1152 22.9961C18.3392 22.9961 19.2572 23.0417 19.8691 23.1328ZM21.4512 30.4961C21.4642 27.6836 21.8288 25.6589 22.5449 24.4219C23.2611 23.1719 24.3483 22.5078 25.8066 22.4297C26.4447 22.4297 27.0111 22.6055 27.5059 22.957C28.0007 23.3086 28.3913 23.7578 28.6777 24.3047C28.9772 24.8385 29.2246 25.4831 29.4199 26.2383C29.6152 26.9805 29.7454 27.6901 29.8105 28.3672C29.8887 29.0312 29.9408 29.7409 29.9668 30.4961C29.9668 31.5247 29.8105 32.5794 29.498 33.6602C29.1986 34.7279 28.7298 35.6654 28.0918 36.4727C27.4668 37.2669 26.7637 37.6641 25.9824 37.6641C22.9616 37.6641 21.4512 35.2747 21.4512 30.4961ZM25.5332 23.9336C25.2207 23.9987 24.9408 24.1029 24.6934 24.2461C24.446 24.3893 24.2376 24.5521 24.0684 24.7344C23.9121 24.9167 23.7754 25.1576 23.6582 25.457C23.541 25.7565 23.4499 26.0365 23.3848 26.2969C23.3327 26.5443 23.2806 26.8698 23.2285 27.2734C23.1895 27.6771 23.1634 28.0286 23.1504 28.3281C23.1374 28.6146 23.1178 28.9987 23.0918 29.4805C23.0788 29.9492 23.0592 30.3333 23.0332 30.6328C23.0332 31.2318 23.0658 31.8047 23.1309 32.3516C23.196 32.8854 23.3132 33.4453 23.4824 34.0312C23.6647 34.6172 23.9447 35.0924 24.3223 35.457C24.6999 35.8216 25.1556 36.0299 25.6895 36.082C26.4967 36.082 27.1608 35.5221 27.6816 34.4023C28.2155 33.2826 28.4824 32.1497 28.4824 31.0039C28.4824 26.3424 27.4993 23.9857 25.5332 23.9336ZM31.5684 30.4961C31.5814 27.6836 31.946 25.6589 32.6621 24.4219C33.3783 23.1719 34.4655 22.5078 35.9238 22.4297C36.5618 22.4297 37.1283 22.6055 37.623 22.957C38.1178 23.3086 38.5085 23.7578 38.7949 24.3047C39.0944 24.8385 39.3418 25.4831 39.5371 26.2383C39.7324 26.9805 39.8626 27.6901 39.9277 28.3672C40.0059 29.0312 40.0579 29.7409 40.084 30.4961C40.084 31.5247 39.9277 32.5794 39.6152 33.6602C39.3158 34.7279 38.847 35.6654 38.209 36.4727C37.584 37.2669 36.8809 37.6641 36.0996 37.6641C33.0788 37.6641 31.5684 35.2747 31.5684 30.4961ZM35.6504 23.9336C35.3379 23.9987 35.0579 24.1029 34.8105 24.2461C34.5632 24.3893 34.3548 24.5521 34.1855 24.7344C34.0293 24.9167 33.8926 25.1576 33.7754 25.457C33.6582 25.7565 33.5671 26.0365 33.502 26.2969C33.4499 26.5443 33.3978 26.8698 33.3457 27.2734C33.3066 27.6771 33.2806 28.0286 33.2676 28.3281C33.2546 28.6146 33.235 28.9987 33.209 29.4805C33.196 29.9492 33.1764 30.3333 33.1504 30.6328C33.1504 31.2318 33.1829 31.8047 33.248 32.3516C33.3132 32.8854 33.4303 33.4453 33.5996 34.0312C33.7819 34.6172 34.0618 35.0924 34.4395 35.457C34.8171 35.8216 35.2728 36.0299 35.8066 36.082C36.6139 36.082 37.278 35.5221 37.7988 34.4023C38.3327 33.2826 38.5996 32.1497 38.5996 31.0039C38.5996 26.3424 37.6165 23.9857 35.6504 23.9336Z" fill="#282828"/>
</svg>
