<svg width="24" height="24" viewBox="0 0 24 24" fill="none" xmlns="http://www.w3.org/2000/svg">
<g clip-path="url(#clip0_2378_1442)">
<path d="M12.0009 0.5L16.2269 6.683L23.4139 8.792L18.8389 14.722L19.0539 22.208L12.0009 19.69L4.94789 22.208L5.16289 14.722L0.587891 8.792L7.77489 6.683L12.0009 0.5ZM10.0009 12H8.00089C8.00087 13.0436 8.40868 14.0458 9.13729 14.7929C9.86591 15.54 10.8576 15.9727 11.9009 15.9988C12.9441 16.0249 13.9562 15.6423 14.7213 14.9326C15.4863 14.2228 15.9437 13.2422 15.9959 12.2L16.0009 12H14.0009C14.0032 12.519 13.8037 13.0185 13.4445 13.3932C13.0853 13.7678 12.5946 13.9881 12.076 14.0075C11.5573 14.027 11.0514 13.8441 10.6652 13.4975C10.2789 13.1509 10.0425 12.6677 10.0059 12.15L10.0009 12Z" fill="#FFC10B"/>
</g>
<defs>
<clipPath id="clip0_2378_1442">
<rect width="24" height="24" fill="white"/>
</clipPath>
</defs>
</svg>
