<svg width="40" height="40" viewBox="0 0 40 40" fill="none" xmlns="http://www.w3.org/2000/svg">
<path d="M20.0002 0.833252L27.0435 11.1383L39.0218 14.6533L31.3968 24.5366L31.7552 37.0133L20.0002 32.8166L8.24518 37.0133L8.60352 24.5366L0.978516 14.6533L12.9568 11.1383L20.0002 0.833252ZM20.0002 6.73992L15.0368 14.0033L6.59518 16.4783L11.9702 23.4416L11.7152 32.2333L20.0002 29.2766L28.2835 32.2333L28.0302 23.4416L33.4035 16.4783L24.9635 14.0033L20.0002 6.73992ZM16.6668 19.9999C16.6668 20.884 17.018 21.7318 17.6432 22.3569C18.2683 22.9821 19.1161 23.3333 20.0002 23.3333C20.8842 23.3333 21.7321 22.9821 22.3572 22.3569C22.9823 21.7318 23.3335 20.884 23.3335 19.9999H26.6668C26.6668 21.768 25.9645 23.4637 24.7142 24.714C23.464 25.9642 21.7683 26.6666 20.0002 26.6666C18.2321 26.6666 16.5364 25.9642 15.2861 24.714C14.0359 23.4637 13.3335 21.768 13.3335 19.9999H16.6668Z" fill="#FFC10B"/>
</svg>
