<svg width="40" height="13" viewBox="0 0 40 13" fill="none" xmlns="http://www.w3.org/2000/svg">
<path d="M26.0535 0C23.2133 0 20.6752 1.47662 20.6752 4.20478C20.6752 7.33346 25.1766 7.54956 25.1766 9.12132C25.1766 9.78313 24.4205 10.3755 23.1291 10.3755C21.2963 10.3755 19.9265 9.54776 19.9265 9.54776L19.3404 12.3008C19.3404 12.3008 20.9184 13 23.0134 13C26.1186 13 28.562 11.4509 28.562 8.67607C28.562 5.37005 24.0419 5.16038 24.0419 3.70152C24.0419 3.18309 24.6626 2.61505 25.9503 2.61505C27.4032 2.61505 28.5886 3.21708 28.5886 3.21708L29.1622 0.558128C29.1622 0.558128 27.8724 0 26.0535 0ZM0.0687715 0.200676L0 0.602026C0 0.602026 1.19486 0.821374 2.27102 1.25892C3.65667 1.76066 3.75538 2.05275 3.98875 2.95996L6.53173 12.7931H9.94061L15.1922 0.200676H11.7912L8.41669 8.7623L7.0397 1.50507C6.91342 0.674481 6.27376 0.200676 5.49078 0.200676H0.0687715ZM16.5599 0.200676L13.8918 12.7931H17.135L19.7937 0.200676H16.5599ZM34.6483 0.200676C33.8663 0.200676 33.4519 0.620655 33.1479 1.35456L28.3964 12.7931H31.7974L32.4555 10.8866H36.5989L36.9991 12.7931H40L37.382 0.200676H34.6483ZM35.0907 3.60275L36.0988 8.32803H33.3979L35.0907 3.60275Z" fill="#1434CB"/>
</svg>
