<svg width="40" height="40" viewBox="0 0 40 40" fill="none" xmlns="http://www.w3.org/2000/svg">
<rect width="40" height="40" rx="20" fill="white"/>
<path fill-rule="evenodd" clip-rule="evenodd" d="M28.5036 27.8805C28.9168 27.9488 29.2267 27.9829 29.4161 27.9829L29.4333 27.9317C29.8809 27.9317 30.2597 27.7609 30.5696 27.4364C30.8623 27.129 31 26.7875 31 26.3776C31 25.814 30.5868 25.3529 29.7776 24.9943C29.1234 24.704 28.4519 24.5674 27.7805 24.5674C27.0746 24.5674 25.8694 24.6186 24.1994 24.704C23.3558 24.7723 22.7188 24.8406 22.2884 24.8918C22.3917 23.6622 23.1836 22.5693 24.6815 21.5958C25.6628 20.9981 26.6442 20.3833 27.6255 19.7685C28.6585 19.0683 29.4161 18.351 29.8981 17.6167C30.5007 16.6774 30.8106 15.5503 30.8106 14.2353C30.8106 12.9203 30.1736 11.8615 28.934 11.0588C27.8494 10.3586 26.627 10 25.2669 10C24.1822 10 23.1148 10.2903 22.099 10.8368C21.3931 11.2296 20.5667 11.8273 19.6198 12.6641C19.2238 13.0057 19.0344 13.4156 19.0344 13.8937C19.0344 14.3378 19.2238 14.6793 19.6198 14.9355C19.9469 15.1404 20.3085 15.2429 20.7217 15.2429C21.066 15.2429 21.703 14.8672 22.6327 14.1328C23.5624 13.3814 24.4405 13.0228 25.2669 13.0228C25.7317 13.0228 26.2138 13.1765 26.7131 13.4668C27.2123 13.7742 27.4534 14.0645 27.4534 14.3548C27.4534 15.482 26.8336 16.5066 25.594 17.3947C24.5438 18.0778 23.4935 18.7609 22.4261 19.4611C21.2898 20.2296 20.4806 20.981 19.9813 21.7324C19.3271 22.7059 19 23.9355 19 25.3871C19 26.1385 19.0861 26.685 19.241 27.0436C19.4821 27.6072 19.9641 27.8975 20.67 27.8975C20.7561 27.8975 20.8766 27.8975 21.0488 27.9488C21.2209 28 21.3415 28 21.4275 28C21.7202 28 22.1851 27.9488 22.7877 27.8805C23.3902 27.7951 23.8551 27.778 24.1478 27.778H27.6083C27.7977 27.778 28.0904 27.8121 28.5036 27.8805ZM15.8472 18.4365C16.0026 18.297 16.1423 18.1717 16.2664 18.0622L16.2838 18.0444C16.7555 17.5822 17 17.1911 17 16.8889C17 16.6578 16.8952 16.4444 16.7031 16.2667C16.5109 16.0889 16.2838 16 16.0393 16C15.7249 16 15.4803 16.1422 15.2882 16.4267C15.0786 16.7289 14.7467 17.0844 14.2576 17.5111C13.8734 17.8311 13.4716 18.1689 13.0873 18.5067L12.0044 17.0844C11.4279 16.4267 10.9913 16.0889 10.6594 16.0889C10.4148 16.0889 10.1878 16.1956 10.0131 16.3733C9.83843 16.5511 9.75109 16.7644 9.75109 17.0133C9.75109 17.2622 9.8559 17.4933 10.1004 17.6889C10.3799 17.92 10.6769 18.2578 10.9913 18.6844C11.1223 18.8622 11.2489 19.0444 11.3755 19.2267C11.5022 19.4089 11.6288 19.5911 11.7598 19.7689C11.42 20.1147 11.1288 20.405 10.8897 20.6433C10.7232 20.8092 10.582 20.9499 10.4672 21.0667C10.1528 21.3156 9.8559 21.5822 9.55895 21.8489C9.19214 22.2044 9 22.5067 9 22.7733C9 23.0222 9.1048 23.2356 9.27948 23.4133C9.45415 23.5911 9.66376 23.68 9.92576 23.68C10.1878 23.68 10.4148 23.5733 10.607 23.36C10.7103 23.2399 10.8634 23.1071 11.0558 22.9402C11.0912 22.9095 11.1279 22.8776 11.1659 22.8444C11.9345 22.1333 12.5109 21.5822 12.8777 21.2089C13.821 22.4 14.5022 23.2178 14.9039 23.6622C15.0961 23.8933 15.3231 24 15.5852 24C15.8472 24 16.0568 23.9289 16.2489 23.7333C16.441 23.5378 16.5284 23.3422 16.5284 23.0933C16.5284 22.8978 16.4585 22.72 16.3013 22.5244L14.2227 19.9289L15.2707 18.9511C15.4823 18.7639 15.6744 18.5915 15.8472 18.4365Z" fill="#282828"/>
</svg>
