<svg width="28" height="28" viewBox="0 0 28 28" fill="none" xmlns="http://www.w3.org/2000/svg">
<path d="M14.2615 20.8232L14 20.6626L13.7384 20.8232L3.50005 27.1064V3.28158C3.50005 1.84892 5.0139 0.500051 7.12498 0.500051H20.8749C22.986 0.500051 24.4999 1.84892 24.4999 3.28158V27.1064L14.2615 20.8232ZM23.2495 25.4328L24.0001 25.8673V25V3.78158C24.0001 3.00494 23.6942 2.29804 23.1325 1.78948C22.5728 1.2829 21.7904 0.999949 20.8749 0.999949H7.12498C6.50151 0.999949 5.75658 1.13634 5.14859 1.47262C4.52826 1.81574 3.99995 2.40409 3.99995 3.28158V25V25.8673L4.75054 25.4328L14 20.0778L23.2495 25.4328Z" stroke="#78A1CF" stroke-width="1.0001"/>
</svg>
