<svg width="28" height="28" viewBox="0 0 28 28" fill="none" xmlns="http://www.w3.org/2000/svg">
<g clip-path="url(#clip0_1_166)">
<path d="M18.2578 6.5625C18.2578 8.90983 16.3473 10.8203 14 10.8203C11.6527 10.8203 9.74219 8.90983 9.74219 6.5625C9.74219 4.21517 11.6527 2.30469 14 2.30469C16.3473 2.30469 18.2578 4.21517 18.2578 6.5625ZM17.6172 6.5625C17.6172 4.56753 15.995 2.94531 14 2.94531C12.005 2.94531 10.3828 4.56753 10.3828 6.5625C10.3828 8.55747 12.005 10.1797 14 10.1797C15.995 10.1797 17.6172 8.55747 17.6172 6.5625Z" stroke="#78A1CF"/>
<path d="M26.1328 8.3125C26.1328 9.69487 25.0074 10.8203 23.625 10.8203C22.2426 10.8203 21.1172 9.69487 21.1172 8.3125C21.1172 6.93013 22.2426 5.80469 23.625 5.80469C25.0074 5.80469 26.1328 6.93013 26.1328 8.3125ZM25.4922 8.3125C25.4922 7.28249 24.655 6.44531 23.625 6.44531C22.595 6.44531 21.7578 7.28249 21.7578 8.3125C21.7578 9.34251 22.595 10.1797 23.625 10.1797C24.655 10.1797 25.4922 9.34251 25.4922 8.3125Z" stroke="#78A1CF"/>
<path d="M19.2754 15.6695L19.7822 16.2227L20.0978 15.542C20.6068 14.4438 21.7243 13.6797 23.018 13.6797H24.2867C26.0609 13.6797 27.5 15.1144 27.5001 16.8705V22.7861C27.5001 23.423 26.9785 23.9453 26.3343 23.9453H21.3753H20.9164L20.8771 24.4025C20.8149 25.1255 20.2057 25.6953 19.4676 25.6953H8.53245C7.79426 25.6953 7.18507 25.1255 7.12295 24.4025L7.08367 23.9453H6.62479H1.60847C0.995891 23.9453 0.5 23.4486 0.5 22.843V16.8705C0.5 15.1144 1.93906 13.6797 3.71328 13.6797H4.98203C6.2757 13.6797 7.39317 14.4438 7.9023 15.542L8.21784 16.2227L8.72461 15.6695C9.84508 14.4463 11.4525 13.6797 13.2356 13.6797H14.7645C16.5476 13.6797 18.155 14.4463 19.2754 15.6695ZM7.52145 17.6115L7.55469 17.525V17.4322V16.8705C7.55469 15.4588 6.39589 14.3203 4.98203 14.3203H3.71328C2.29942 14.3203 1.14062 15.4588 1.14062 16.8705V22.8047V23.3047H1.64062H6.61719H7.11719V22.8047C7.11719 22.2957 7.11442 21.85 7.11197 21.4548C7.09933 19.4164 7.09502 18.7218 7.52145 17.6115ZM20.8828 22.8047V23.3047H21.3828C22.749 23.3047 23.7419 23.3053 24.463 23.3058C25.1351 23.3062 25.5711 23.3065 25.8529 23.306C26.1375 23.3054 26.2819 23.3042 26.3531 23.3001C26.3704 23.2991 26.4021 23.2971 26.4365 23.2912C26.4529 23.2885 26.4882 23.2819 26.5302 23.2666C26.5612 23.2553 26.6661 23.2155 26.7525 23.1076C26.8481 22.9882 26.872 22.8516 26.8594 22.7375V16.8705C26.8594 15.4588 25.7006 14.3203 24.2867 14.3203H23.018C21.6041 14.3203 20.4453 15.4588 20.4453 16.8705V17.4322V17.525L20.4786 17.6115C20.9046 18.7207 20.9004 19.4011 20.8879 21.4515C20.8855 21.8472 20.8828 22.294 20.8828 22.8047ZM26.7781 22.5143C26.7782 22.5144 26.78 22.5172 26.7828 22.5217L26.7825 22.5212L26.7825 22.5211C26.7793 22.5163 26.7781 22.5142 26.7781 22.5143ZM19.4676 25.0547C19.8952 25.0547 20.2422 24.7077 20.2422 24.2801V19.798C20.2422 16.7772 17.7853 14.3203 14.7644 14.3203H13.2355C10.2147 14.3203 7.75781 16.7772 7.75781 19.7981V24.2801C7.75781 24.7076 8.10476 25.0547 8.5324 25.0547H19.4676ZM25.9368 23.0548C25.9348 23.0516 25.9322 23.0474 25.9293 23.0423C25.932 23.0469 25.9346 23.0512 25.9368 23.0548Z" stroke="#78A1CF"/>
<path d="M6.88281 8.3125C6.88281 9.69487 5.75737 10.8203 4.375 10.8203C2.99263 10.8203 1.86719 9.69487 1.86719 8.3125C1.86719 6.93013 2.99263 5.80469 4.375 5.80469C5.75737 5.80469 6.88281 6.93013 6.88281 8.3125ZM6.24219 8.3125C6.24219 7.28249 5.40501 6.44531 4.375 6.44531C3.34499 6.44531 2.50781 7.28249 2.50781 8.3125C2.50781 9.34251 3.34499 10.1797 4.375 10.1797C5.40501 10.1797 6.24219 9.34251 6.24219 8.3125Z" stroke="#78A1CF"/>
</g>
<defs>
<clipPath id="clip0_1_166">
<rect width="28" height="28" fill="white"/>
</clipPath>
</defs>
</svg>
