<svg width="28" height="28" viewBox="0 0 28 28" fill="none" xmlns="http://www.w3.org/2000/svg">
<g clip-path="url(#clip0_1_130)">
<mask id="path-1-inside-1_1_130" fill="white">
<path d="M19.9062 1.75C18.7989 1.75129 17.7035 1.97944 16.6877 2.42037C15.6719 2.86131 14.7572 3.50568 14 4.31375C12.8904 3.12948 11.4504 2.30614 9.86691 1.9506C8.28345 1.59507 6.62968 1.72376 5.12028 2.31997C3.61088 2.91618 2.31558 3.95238 1.40251 5.29404C0.489448 6.6357 0.000799006 8.22087 0 9.84375C0 17.9025 12.9981 25.8125 13.5625 26.1231C13.6986 26.2049 13.8544 26.2481 14.0131 26.2481C14.1719 26.2481 14.3277 26.2049 14.4638 26.1231C15.0019 25.8125 28 17.9025 28 9.84375C27.9977 7.69787 27.1442 5.64053 25.6268 4.12316C24.1095 2.60579 22.0521 1.75232 19.9062 1.75ZM14 24.3425C11.7381 22.8988 1.75 16.1525 1.75 9.84375C1.75112 8.49623 2.18131 7.18407 2.97822 6.09744C3.77512 5.01081 4.89734 4.20616 6.18224 3.80013C7.46713 3.39409 8.84794 3.40775 10.1246 3.83913C11.4012 4.27051 12.5072 5.09719 13.2825 6.19938C13.3633 6.31402 13.4704 6.40758 13.5949 6.47215C13.7194 6.53673 13.8576 6.57044 13.9978 6.57044C14.1381 6.57044 14.2762 6.53673 14.4007 6.47215C14.5252 6.40758 14.6324 6.31402 14.7131 6.19938C15.4877 5.0953 16.5941 4.26683 17.8715 3.83423C19.149 3.40164 20.531 3.38744 21.8171 3.79369C23.1032 4.19995 24.2263 5.00551 25.0234 6.09344C25.8205 7.18137 26.2502 8.49504 26.25 9.84375C26.25 16.1481 16.2619 22.8944 14 24.3425Z"/>
</mask>
<path d="M14 4.31375L8.16216 9.78364L13.9998 16.014L19.8377 9.78379L14 4.31375ZM0 9.84375L-8 9.83981V9.84375H0ZM13.5625 26.1231L17.6825 19.2656L17.5526 19.1876L17.4199 19.1145L13.5625 26.1231ZM14.4638 26.1231L10.4643 19.1946L10.4037 19.2296L10.3438 19.2656L14.4638 26.1231ZM28 9.84375H36L36 9.83512L28 9.84375ZM14 24.3425L9.69572 31.0859L14.0065 33.8375L18.3135 31.08L14 24.3425ZM1.75 9.84375L-6.25 9.83709V9.84375H1.75ZM13.2825 6.19938L6.73905 10.8019L6.7425 10.8068L13.2825 6.19938ZM14.7131 6.19938L21.2531 10.8068L21.2576 10.8004L21.2621 10.7941L14.7131 6.19938ZM26.25 9.84375L18.25 9.84256V9.84375H26.25ZM19.8969 -6.24999C17.6968 -6.24744 15.5205 -5.79415 13.5023 -4.91809L19.8731 9.75883C19.8865 9.75302 19.901 9.75001 19.9156 9.74999L19.8969 -6.24999ZM13.5023 -4.91809C11.484 -4.04203 9.66668 -2.76178 8.16231 -1.15629L19.8377 9.78379C19.8477 9.77314 19.8597 9.76464 19.8731 9.75883L13.5023 -4.91809ZM19.8378 -1.15613C17.6314 -3.51095 14.7681 -5.1481 11.6195 -5.85506L8.11429 9.75626C8.13263 9.76038 8.14931 9.76992 8.16216 9.78364L19.8378 -1.15613ZM11.6195 -5.85506C8.47095 -6.56201 5.18257 -6.30612 2.18125 -5.1206L8.05931 9.76054C8.07679 9.75363 8.09595 9.75214 8.11429 9.75626L11.6195 -5.85506ZM2.18125 -5.1206C-0.820056 -3.93509 -3.39567 -1.8747 -5.21122 0.79309L8.01624 9.79499C8.02682 9.77945 8.04182 9.76745 8.05931 9.76054L2.18125 -5.1206ZM-5.21122 0.79309C-7.02677 3.46088 -7.99841 6.61284 -8 9.83981L8 9.84769C8.00001 9.82889 8.00567 9.81053 8.01624 9.79499L-5.21122 0.79309ZM-8 9.84375C-8 13.9854 -6.35531 17.5191 -4.65864 20.1174C-2.93057 22.7639 -0.763897 25.0307 1.18294 26.8037C5.03567 30.3125 8.95833 32.7207 9.70506 33.1317L17.4199 19.1145C17.6023 19.2149 14.7437 17.5128 11.9563 14.9743C10.583 13.7236 9.46491 12.4825 8.73819 11.3696C7.98007 10.2086 8 9.7315 8 9.84375H-8ZM9.4425 32.9806C10.8228 33.8099 12.4028 34.2481 14.0131 34.2481V18.2481C15.3059 18.2481 16.5744 18.5998 17.6825 19.2656L9.4425 32.9806ZM14.0131 34.2481C15.6235 34.2481 17.2034 33.8099 18.5838 32.9806L10.3438 19.2656C11.4519 18.5998 12.7203 18.2481 14.0131 18.2481V34.2481ZM18.4632 33.0517C19.0503 32.7128 22.9505 30.3315 26.8232 26.801C28.7674 25.0287 30.9326 22.7623 32.6597 20.1164C34.3554 17.5187 36 13.9852 36 9.84375H20C20 9.73167 20.0198 10.209 19.2616 11.3706C18.5347 12.4841 17.4168 13.7256 16.0441 14.9769C13.2832 17.4938 10.4153 19.2229 10.4643 19.1946L18.4632 33.0517ZM36 9.83512C35.9954 5.57049 34.2992 1.48186 31.2837 -1.53369L19.97 9.78002C19.9892 9.79921 20 9.82524 20 9.85239L36 9.83512ZM31.2837 -1.53369C28.2681 -4.54924 24.1795 -6.24539 19.9149 -6.25L19.8976 9.75C19.9248 9.75002 19.9508 9.76082 19.97 9.78002L31.2837 -1.53369ZM18.3043 17.5991C17.3526 16.9917 14.7869 15.2671 12.553 13.133C11.4363 12.0661 10.6133 11.0946 10.1144 10.3029C9.58184 9.45764 9.75 9.34789 9.75 9.84375H-6.25C-6.25 13.494 -4.83332 16.5933 -3.42245 18.8324C-1.97788 21.125 -0.162448 23.1133 1.50058 24.702C4.82622 27.8792 8.38554 30.2496 9.69572 31.0859L18.3043 17.5991ZM9.75 9.85042C9.7497 10.2022 9.63739 10.5448 9.42933 10.8285L-3.4729 1.36636C-5.27477 3.82332 -6.24746 6.79022 -6.25 9.83709L9.75 9.85042ZM9.42933 10.8285C9.22127 11.1122 8.92828 11.3223 8.59281 11.4283L3.77166 -3.82805C0.866408 -2.90997 -1.67103 -1.0906 -3.4729 1.36636L9.42933 10.8285ZM8.59281 11.4283C8.25735 11.5343 7.89684 11.5308 7.56354 11.4181L12.6856 -3.73987C9.79905 -4.71525 6.67692 -4.74614 3.77166 -3.82805L8.59281 11.4283ZM7.56354 11.4181C7.23023 11.3055 6.94145 11.0897 6.73905 10.8019L19.826 1.59685C18.073 -0.895278 15.5721 -2.76448 12.6856 -3.73987L7.56354 11.4181ZM6.7425 10.8068C7.56172 11.9696 8.64844 12.9185 9.91111 13.5735L17.2787 -0.629236C18.2924 -0.103392 19.1648 0.658401 19.8225 1.59195L6.7425 10.8068ZM9.91111 13.5735C11.1738 14.2285 12.5754 14.5704 13.9978 14.5704V-1.42956C15.1398 -1.42956 16.265 -1.15508 17.2787 -0.629236L9.91111 13.5735ZM13.9978 14.5704C15.4203 14.5704 16.8219 14.2285 18.0845 13.5735L10.7169 -0.629236C11.7306 -1.15507 12.8558 -1.42956 13.9978 -1.42956V14.5704ZM18.0845 13.5735C19.3472 12.9186 20.4339 11.9697 21.2531 10.8068L8.17313 1.59195C8.83082 0.658384 9.70327 -0.103402 10.7169 -0.629236L18.0845 13.5735ZM21.2621 10.7941C21.0599 11.0823 20.771 11.2986 20.4375 11.4116L15.3055 -3.74309C12.4171 -2.76496 9.91561 -0.891715 8.16416 1.6047L21.2621 10.7941ZM20.4375 11.4116C20.104 11.5245 19.7431 11.5282 19.4074 11.4221L24.2268 -3.83475C21.3189 -4.75333 18.194 -4.72122 15.3055 -3.74309L20.4375 11.4116ZM19.4074 11.4221C19.0716 11.3161 18.7784 11.1057 18.5702 10.8217L31.4766 1.36518C29.6742 -1.09472 27.1348 -2.91617 24.2268 -3.83475L19.4074 11.4221ZM18.5702 10.8217C18.3621 10.5377 18.2499 10.1947 18.25 9.84256L34.25 9.84494C34.2505 6.7954 33.279 3.82508 31.4766 1.36518L18.5702 10.8217ZM18.25 9.84375C18.25 9.34559 18.4191 9.45403 17.8863 10.2993C17.3873 11.0909 16.5642 12.0624 15.447 13.1297C13.2126 15.2643 10.6462 16.9906 9.68646 17.605L18.3135 31.08C19.6156 30.2463 23.1743 27.8754 26.4994 24.6988C28.162 23.1104 29.9773 21.1228 31.4218 18.8311C32.8324 16.5931 34.25 13.4941 34.25 9.84375H18.25Z" fill="#78A1CF" mask="url(#path-1-inside-1_1_130)"/>
</g>
<defs>
<clipPath id="clip0_1_130">
<rect width="28" height="28" fill="white"/>
</clipPath>
</defs>
</svg>
