<svg width="28" height="28" viewBox="0 0 28 28" fill="none" xmlns="http://www.w3.org/2000/svg">
<path d="M18.7135 10.8909V10.1524V7.84944C18.7135 6.70431 17.7811 5.77185 16.6359 5.77185H2.57764C1.4325 5.77185 0.5 6.70432 0.5 7.84944V20.1505C0.5 21.2956 1.4325 22.2281 2.57764 22.2281H16.6359C17.7811 22.2281 18.7135 21.2957 18.7135 20.1505V17.8476V17.1091L19.3992 17.3833L27.0607 20.4479C27.0607 20.4479 27.0607 20.4479 27.0607 20.4479C27.0992 20.4633 27.1395 20.4708 27.1796 20.4708C27.2429 20.4708 27.3055 20.4521 27.3592 20.4158L27.6396 20.8298L27.3592 20.4158C27.4473 20.3561 27.5 20.2568 27.5 20.1505V7.84944C27.5 7.74322 27.4473 7.64387 27.3593 7.58423L18.7135 10.8909ZM18.7135 10.8909L19.3992 10.6166M18.7135 10.8909L19.3992 10.6166M19.3992 10.6166L27.0606 7.55207M19.3992 10.6166L27.0606 7.55207M27.0606 7.55207C27.1594 7.51259 27.2712 7.52463 27.3592 7.58418L27.0606 7.55207ZM26.1737 19.4032L26.8594 19.6774V18.9389V9.06104V8.32252L26.1737 8.5968L19.0278 11.4552L18.7135 11.5809V11.9194V16.0806V16.4191L19.0278 16.5448L26.1737 19.4032ZM16.6359 21.5875C17.4287 21.5875 18.0729 20.9433 18.0729 20.1505V7.84944C18.0729 7.05666 17.4287 6.41248 16.6359 6.41248H2.57764C1.7849 6.41248 1.14062 7.05662 1.14062 7.84944V20.1505C1.14062 20.9433 1.7849 21.5875 2.57764 21.5875H16.6359Z" stroke="#78A1CF"/>
</svg>
