<svg width="38" height="38" viewBox="0 0 38 38" fill="none" xmlns="http://www.w3.org/2000/svg">
<path d="M30.207 38H7.79297C3.49593 38 0 34.5041 0 30.207V7.79297C0 3.49593 3.49593 0 7.79297 0H30.207C34.5041 0 38 3.49593 38 7.79297V30.207C38 34.5041 34.5041 38 30.207 38Z" fill="#00C3FF"/>
<path d="M30.207 0H19V38H30.207C34.5041 38 38 34.5041 38 30.207V7.79297C38 3.49593 34.5041 0 30.207 0Z" fill="#00AAF0"/>
<path d="M11.7003 29.2804C11.357 29.875 10.732 30.2077 10.0903 30.2078C9.77566 30.2078 9.45711 30.1278 9.16565 29.9596C8.27963 29.4481 7.97496 28.311 8.48648 27.425L8.85141 26.793H13.1364L11.7003 29.2804Z" fill="white"/>
<path d="M8.20117 25.3086C7.17807 25.3086 6.3457 24.4762 6.3457 23.4531C6.3457 22.43 7.17807 21.5976 8.20117 21.5976H11.8511L16.8575 12.9263L15.5007 10.5763C14.9891 9.69026 15.2937 8.55323 16.1798 8.04164H16.1798C17.0659 7.53012 18.2029 7.83486 18.7144 8.72081L19 9.21548L19.2856 8.72089C19.7973 7.83479 20.9344 7.53019 21.8202 8.04171C22.2494 8.28953 22.5564 8.68964 22.6847 9.16835C22.813 9.64706 22.7471 10.1471 22.4993 10.5764L16.1361 21.5976H20.1498L22.2923 25.3086H8.20117Z" fill="white"/>
<path d="M29.7974 25.3086H28.2899L29.5118 27.4249C30.0234 28.3109 29.7187 29.4479 28.8327 29.9595C28.5468 30.1245 28.2294 30.2089 27.9079 30.2089C27.7467 30.2089 27.5846 30.1878 27.4247 30.1449C26.9459 30.0165 26.5458 29.7095 26.298 29.2802L19.8555 18.1216L21.9979 14.4106L26.1474 21.5976H29.7974C30.8205 21.5976 31.6528 22.43 31.6528 23.4531C31.6528 24.4762 30.8205 25.3086 29.7974 25.3086Z" fill="#F2F2F2"/>
<path d="M19 21.5977V25.3086H22.2923L20.1499 21.5977H19Z" fill="#F2F2F2"/>
<path d="M22.6847 9.16832C22.5563 8.68961 22.2494 8.28943 21.8202 8.04168C20.9343 7.53017 19.7973 7.83469 19.2856 8.72086L19 9.21545V16.6373L22.4993 10.5763C22.7471 10.1471 22.813 9.64711 22.6847 9.16832Z" fill="#F2F2F2"/>
</svg>
