<svg width="38" height="38" viewBox="0 0 38 38" fill="none" xmlns="http://www.w3.org/2000/svg">
<g clip-path="url(#clip0_1_67)">
<path fill-rule="evenodd" clip-rule="evenodd" d="M28.5 38H9.5C8.2524 38.0001 7.017 37.7545 5.86434 37.2771C4.71168 36.7998 3.66436 36.1 2.78217 35.2178C1.89999 34.3356 1.20023 33.2883 0.722859 32.1357C0.245489 30.983 -0.000140318 29.7476 6.01363e-08 28.5V9.5C-0.000140318 8.2524 0.245489 7.017 0.722859 5.86434C1.20023 4.71168 1.89999 3.66436 2.78217 2.78217C3.66436 1.89999 4.71168 1.20023 5.86434 0.722859C7.017 0.245489 8.2524 -0.000140318 9.5 6.01363e-08H28.5C29.7476 -0.000140318 30.983 0.245489 32.1357 0.722859C33.2883 1.20023 34.3356 1.89999 35.2178 2.78217C36.1 3.66436 36.7998 4.71168 37.2771 5.86434C37.7545 7.017 38.0001 8.2524 38 9.5V28.5C38.0001 29.7476 37.7545 30.983 37.2771 32.1357C36.7998 33.2883 36.1 34.3356 35.2178 35.2178C34.3356 36.1 33.2883 36.7998 32.1357 37.2771C30.983 37.7545 29.7476 38.0001 28.5 38Z" fill="#7387DC"/>
<path fill-rule="evenodd" clip-rule="evenodd" d="M17.8125 10.6875H28.5C29.8699 10.6874 31.1875 10.1612 32.1807 9.21762C33.1738 8.274 33.7667 6.98503 33.8368 5.61688C33.9069 4.24873 33.4489 2.90591 32.5574 1.86572C31.6659 0.825532 30.409 0.167427 29.0462 0.0273126C28.8622 0.0172188 28.6841 6.01363e-08 28.5 6.01363e-08H9.5C8.2524 -0.000140318 7.017 0.245489 5.86434 0.722859C4.71168 1.20023 3.66436 1.89999 2.78217 2.78217C1.89999 3.66436 1.20023 4.71168 0.722859 5.86434C0.245489 7.017 -0.000140318 8.2524 6.01363e-08 9.5V28.5C6.01363e-08 23.7758 1.87667 19.2452 5.21716 15.9047C8.55765 12.5642 13.0883 10.6875 17.8125 10.6875Z" fill="#8CA0F5"/>
<path fill-rule="evenodd" clip-rule="evenodd" d="M28.5 19C26.6211 19 24.7844 19.5572 23.2221 20.601C21.6598 21.6449 20.4422 23.1286 19.7231 24.8645C19.0041 26.6004 18.816 28.5105 19.1825 30.3534C19.5491 32.1962 20.4539 33.8889 21.7825 35.2175C23.1111 36.5461 24.8038 37.4509 26.6466 37.8175C28.4895 38.184 30.3996 37.9959 32.1355 37.2769C33.8714 36.5578 35.3551 35.3402 36.399 33.7779C37.4428 32.2156 38 30.3789 38 28.5V9.5C38.0001 10.7476 37.7545 11.983 37.2771 13.1357C36.7998 14.2883 36.1 15.3356 35.2178 16.2178C34.3356 17.1 33.2883 17.7998 32.1357 18.2771C30.983 18.7545 29.7476 19.0001 28.5 19Z" fill="#5A6EC3"/>
<path d="M16.5249 18.6811C16.2216 18.6553 15.9174 18.7216 15.6524 18.8715C15.3874 19.0214 15.1738 19.2478 15.0395 19.5211C14.9053 19.7944 14.8568 20.1019 14.9002 20.4032C14.9437 20.7046 15.0771 20.9858 15.2831 21.2101C15.4891 21.4343 15.7579 21.5912 16.0545 21.6601C16.3511 21.7289 16.6616 21.7067 16.9453 21.5962C17.229 21.4856 17.4728 21.292 17.6446 21.0407C17.8164 20.7893 17.9084 20.4919 17.9084 20.1875C17.9246 19.8043 17.788 19.4303 17.5286 19.1478C17.2692 18.8653 16.9081 18.6975 16.5249 18.6811Z" fill="white"/>
<path d="M21.4761 18.6812C21.1727 18.6554 20.8686 18.7217 20.6036 18.8716C20.3385 19.0215 20.1249 19.2479 19.9907 19.5212C19.8565 19.7945 19.808 20.102 19.8514 20.4034C19.8949 20.7047 20.0283 20.9859 20.2343 21.2102C20.4402 21.4345 20.7091 21.5913 21.0057 21.6602C21.3023 21.7291 21.6128 21.7068 21.8965 21.5963C22.1802 21.4858 22.4239 21.2922 22.5958 21.0408C22.7676 20.7894 22.8596 20.4921 22.8596 20.1876C22.8758 19.8044 22.7392 19.4304 22.4798 19.1479C22.2203 18.8655 21.8593 18.6976 21.4761 18.6812Z" fill="white"/>
<path d="M30.875 10.0902C30.876 9.72372 30.8047 9.36067 30.6652 9.02179C30.5257 8.68292 30.3208 8.37486 30.0621 8.11524C29.8035 7.85562 29.4962 7.64952 29.1579 7.50875C28.8196 7.36797 28.4568 7.29527 28.0903 7.2948H9.9097C9.54324 7.29527 9.18047 7.36797 8.84213 7.50875C8.50379 7.64952 8.19652 7.85562 7.93789 8.11524C7.67926 8.37486 7.47435 8.68292 7.33486 9.02179C7.19538 9.36067 7.12407 9.72372 7.12501 10.0902V28.079C7.12402 28.4455 7.19529 28.8086 7.33474 29.1476C7.4742 29.4865 7.6791 29.7946 7.93773 30.0543C8.19636 30.314 8.50365 30.5201 8.84202 30.6609C9.18039 30.8018 9.5432 30.8745 9.9097 30.875H24.4566C24.5486 30.8753 24.6394 30.8541 24.7217 30.8132C24.8041 30.7723 24.8758 30.7127 24.9312 30.6392C24.9865 30.5657 25.0239 30.4804 25.0405 30.3899C25.0571 30.2994 25.0523 30.2063 25.0266 30.118C24.8247 29.4227 24.5635 28.5 24.5635 28.5C24.5635 28.5 28.0963 31.822 29.8716 33.4964C29.956 33.5763 30.062 33.6297 30.1765 33.65C30.2909 33.6703 30.4088 33.6566 30.5156 33.6106C30.6224 33.5646 30.7133 33.4883 30.7772 33.3912C30.8411 33.2941 30.8751 33.1804 30.875 33.0641V10.0902ZM22.9663 25.0099C22.9064 25.0127 22.8467 25.0013 22.7921 24.9768C22.7374 24.9522 22.6893 24.9152 22.6516 24.8686L22.23 24.3503C22.1916 24.303 22.165 24.2474 22.1522 24.1879C22.1395 24.1283 22.141 24.0667 22.1566 24.0078C22.1722 23.949 22.2016 23.8947 22.2422 23.8494C22.2828 23.8041 22.3336 23.769 22.3903 23.747C23.1689 23.4741 23.846 22.9709 24.3319 22.3042C22.7355 23.3104 20.887 23.8444 19 23.8444C17.113 23.8444 15.2645 23.3104 13.6681 22.3042C14.154 22.9709 14.8312 23.4741 15.6097 23.747C15.6665 23.769 15.7172 23.8041 15.7579 23.8494C15.7985 23.8947 15.8278 23.949 15.8434 24.0078C15.8591 24.0667 15.8606 24.1283 15.8478 24.1879C15.835 24.2474 15.8084 24.303 15.77 24.3503L15.3485 24.8686C15.3107 24.9152 15.2626 24.9522 15.208 24.9768C15.1533 25.0013 15.0936 25.0127 15.0338 25.0099C14.2585 25.0039 13.4957 24.8147 12.8074 24.4578C12.1192 24.1009 11.525 23.5863 11.0734 22.9561C11.1175 20.2049 11.7854 17.4995 13.0269 15.0438C14.1057 14.206 15.4105 13.7099 16.7735 13.6194C16.7948 13.619 16.8159 13.6233 16.8354 13.6319C16.8549 13.6405 16.8722 13.6533 16.8863 13.6693C16.9025 13.6872 16.914 13.709 16.9195 13.7326C16.9251 13.7561 16.9246 13.7807 16.918 13.804C16.9115 13.8273 16.8992 13.8486 16.8822 13.8658C16.8652 13.8831 16.8442 13.8958 16.821 13.9026C15.6626 14.2342 14.5838 14.7981 13.6503 15.5598C15.29 14.6604 17.1299 14.1888 19 14.1888C20.8701 14.1888 22.7101 14.6604 24.3497 15.5598C23.4162 14.7981 22.3374 14.2342 21.1791 13.9026C21.1559 13.8958 21.1348 13.8831 21.1178 13.8658C21.1008 13.8486 21.0885 13.8273 21.082 13.804C21.0755 13.7807 21.075 13.7561 21.0805 13.7326C21.0861 13.709 21.0975 13.6872 21.1138 13.6693C21.1278 13.6533 21.1452 13.6405 21.1647 13.6319C21.1841 13.6233 21.2053 13.619 21.2266 13.6194C22.5896 13.7099 23.8943 14.206 24.9731 15.0438C26.2146 17.4995 26.8825 20.2049 26.9266 22.9561C26.475 23.5863 25.8809 24.1009 25.1926 24.4578C24.5044 24.8147 23.7415 25.0039 22.9663 25.0099Z" fill="white"/>
</g>
<defs>
<clipPath id="clip0_1_67">
<rect width="38" height="38" fill="white"/>
</clipPath>
</defs>
</svg>
