<svg width="38" height="38" viewBox="0 0 38 38" fill="none" xmlns="http://www.w3.org/2000/svg">
<g clip-path="url(#clip0_1_75)">
<path fill-rule="evenodd" clip-rule="evenodd" d="M0.0429688 29.9547C0.0429688 34.373 3.62469 37.9547 8.04297 37.9547H29.9686C34.3869 37.9547 37.9686 34.373 37.9686 29.9547V8.02853C37.9686 3.61026 34.3869 0.0285263 29.9686 0.0285263H8.04297C3.62469 0.0285263 0.0429688 3.61025 0.0429688 8.02853V29.9547Z" fill="#4F535B" stroke="#4F535B" stroke-width="0.5669"/>
<path fill-rule="evenodd" clip-rule="evenodd" d="M11.9102 19.8195L28.116 3.61368C29.7717 4.50969 30.9678 5.78555 31.6639 7.23921L15.4947 23.4089L11.9102 19.8195Z" fill="#FF8434" stroke="#FF8434" stroke-width="0.5669"/>
<path fill-rule="evenodd" clip-rule="evenodd" d="M15.4961 23.4089L31.6653 7.23922C33.009 10.0474 32.4886 13.5183 29.8124 16.1961L19.0343 26.9467L15.4961 23.4089Z" fill="#FFCB3A" stroke="#FFCB3A" stroke-width="0.5669"/>
<path fill-rule="evenodd" clip-rule="evenodd" d="M8.29688 16.202L19.576 4.92241C22.069 2.7597 24.8696 2.26293 28.0011 3.55118C28.0275 3.56519 28.0528 3.57974 28.0787 3.59321L11.8815 19.7904L8.29688 16.202Z" fill="#FF474C" stroke="#FF474C" stroke-width="0.5669"/>
<path fill-rule="evenodd" clip-rule="evenodd" d="M8.15059 16.0732L7.48141 15.4041C5.55684 13.1966 5.05576 9.84641 6.35425 7.10395L11.8381 12.5873L8.25889 16.167C8.22225 16.1357 8.18669 16.1045 8.15059 16.0732Z" fill="#9330FD" stroke="#9330FD" stroke-width="0.5669"/>
<path fill-rule="evenodd" clip-rule="evenodd" d="M11.8217 12.6045L6.34375 7.12712C7.01994 5.68639 8.18966 4.4116 9.90948 3.55492L9.93481 3.54415L15.4084 9.01775L11.8217 12.6045Z" fill="#C43FF8" stroke="#C43FF8" stroke-width="0.5669"/>
<path fill-rule="evenodd" clip-rule="evenodd" d="M15.4072 9.01782L9.93359 3.54422C13.2326 2.10241 16.1286 2.77644 18.7396 5.17677L18.9939 5.43162L15.4072 9.01782Z" fill="#DD48E2" stroke="#DD48E2" stroke-width="0.5669"/>
<path fill-rule="evenodd" clip-rule="evenodd" d="M6.96944 26.8778H8.07505V33.2037C8.06266 33.6676 8.25824 33.9678 8.73938 34.0432L11.9673 34.0421V35.1919H8.61384C7.64294 35.1919 6.94358 34.3891 6.96944 33.6202V26.8778Z" fill="white" stroke="white" stroke-width="0.216"/>
<path fill-rule="evenodd" clip-rule="evenodd" d="M12.8965 35.1918H14.0021V29.841H12.8965V35.1918Z" fill="white" stroke="white" stroke-width="0.216"/>
<path fill-rule="evenodd" clip-rule="evenodd" d="M15.1523 26.922H16.2579V31.5653L18.6453 28.6472H20.0618L17.5839 31.8094L20.1944 35.1919H18.7353L16.2579 32.0044V35.1919H15.1523V26.922Z" fill="white" stroke="white" stroke-width="0.216"/>
<path fill-rule="evenodd" clip-rule="evenodd" d="M13.4764 26.8777C13.0981 26.8777 12.791 27.1848 12.791 27.563C12.791 27.9407 13.0981 28.2478 13.4764 28.2478C13.8546 28.2478 14.1612 27.9407 14.1612 27.563C14.1612 27.1848 13.8546 26.8777 13.4764 26.8777Z" fill="white" stroke="white" stroke-width="0.216"/>
<path fill-rule="evenodd" clip-rule="evenodd" d="M22.3137 28.3874C23.9694 28.4451 24.8849 29.5475 25.2507 31.3001L20.6128 32.6859C20.8784 34.492 23.4032 34.6843 24.0837 32.8045L25.0864 32.9941C23.5993 36.4817 19.6704 35.5361 19.4668 31.7899C19.4129 30.1902 20.5018 28.5124 22.3137 28.3874ZM24.0885 30.7182L20.5664 31.7409C20.1823 29.4629 22.9765 28.4149 24.0885 30.7182Z" fill="white" stroke="white" stroke-width="0.216"/>
<path fill-rule="evenodd" clip-rule="evenodd" d="M28.177 28.3874C29.8327 28.4451 30.7481 29.5475 31.114 31.3001L26.4761 32.6859C26.7417 34.492 29.2665 34.6843 29.947 32.8045L30.9497 32.9941C29.4626 36.4817 25.5337 35.5361 25.33 31.7899C25.2762 30.1902 26.3645 28.5124 28.177 28.3874ZM29.9518 30.7182L26.4297 31.7409C26.0456 29.4629 28.8397 28.4149 29.9518 30.7182Z" fill="white" stroke="white" stroke-width="0.216"/>
</g>
<defs>
<clipPath id="clip0_1_75">
<rect width="38" height="38" fill="white"/>
</clipPath>
</defs>
</svg>
