<svg width="38" height="38" viewBox="0 0 38 38" fill="none" xmlns="http://www.w3.org/2000/svg">
<g clip-path="url(#clip0_1_90)">
<path fill-rule="evenodd" clip-rule="evenodd" d="M28.5 38H9.5C6.98048 37.9999 4.56418 36.999 2.78261 35.2174C1.00104 33.4358 0.000110222 31.0195 0 28.5L0 9.5C0.000110222 6.98048 1.00104 4.56418 2.78261 2.78261C4.56418 1.00104 6.98048 0.000110222 9.5 0L28.5 0C31.0196 0 33.4359 1.00089 35.2175 2.78249C36.9991 4.56408 38 6.98044 38 9.5V28.5C38 31.0196 36.9991 33.4359 35.2175 35.2175C33.4359 36.9991 31.0196 38 28.5 38Z" fill="#FF9600"/>
<path fill-rule="evenodd" clip-rule="evenodd" d="M17.8125 10.6875H28.5C29.8699 10.6874 31.1875 10.1612 32.1807 9.21762C33.1738 8.274 33.7667 6.98503 33.8368 5.61688C33.9069 4.24873 33.4489 2.90591 32.5574 1.86572C31.6659 0.825532 30.409 0.167427 29.0462 0.0273125C28.8646 0.0172187 28.6847 0 28.5 0H9.5C6.98048 0.000110222 4.56418 1.00104 2.78261 2.78261C1.00104 4.56418 0.000110222 6.98048 0 9.5L0 28.5C0.000110226 23.7759 1.87681 19.2452 5.21728 15.9048C8.55775 12.5643 13.0884 10.6876 17.8125 10.6875Z" fill="#FFB400"/>
<path fill-rule="evenodd" clip-rule="evenodd" d="M28.5 19C26.6211 19 24.7844 19.5572 23.2221 20.601C21.6598 21.6449 20.4422 23.1286 19.7231 24.8645C19.0041 26.6004 18.816 28.5105 19.1825 30.3534C19.5491 32.1962 20.4539 33.8889 21.7825 35.2175C23.1111 36.5461 24.8038 37.4509 26.6466 37.8175C28.4895 38.184 30.3996 37.9959 32.1355 37.2769C33.8714 36.5578 35.3551 35.3402 36.399 33.7779C37.4428 32.2156 38 30.3789 38 28.5V9.5C38 12.0196 36.9991 14.4359 35.2175 16.2175C33.4359 17.9991 31.0196 19 28.5 19Z" fill="#FF7800"/>
<path d="M19.0005 15.4446C18.4162 15.4447 17.845 15.2715 17.3592 14.9469C16.8733 14.6224 16.4946 14.161 16.271 13.6212C16.0473 13.0814 15.9888 12.4874 16.1027 11.9144C16.2166 11.3413 16.4979 10.8149 16.911 10.4017C17.3242 9.9885 17.8505 9.70709 18.4236 9.59304C18.9966 9.47899 19.5906 9.53744 20.1304 9.76098C20.6703 9.98452 21.1317 10.3631 21.4564 10.8489C21.781 11.3347 21.9543 11.9058 21.9544 12.4901C21.9544 12.8781 21.8781 13.2622 21.7296 13.6207C21.5812 13.9791 21.3637 14.3048 21.0894 14.5792C20.8151 14.8535 20.4894 15.0712 20.131 15.2197C19.7726 15.3681 19.3884 15.4446 19.0005 15.4446ZM19.0005 5.34375C17.587 5.34369 16.2052 5.76279 15.0299 6.54806C13.8546 7.33332 12.9385 8.44948 12.3976 9.75537C11.8566 11.0613 11.7151 12.4982 11.9908 13.8846C12.2666 15.2709 12.9472 16.5444 13.9467 17.5439C14.9462 18.5434 16.2197 19.224 17.606 19.4998C18.9924 19.7755 20.4293 19.634 21.7352 19.093C23.0411 18.5521 24.1573 17.636 24.9426 16.4607C25.7278 15.2854 26.1469 13.9036 26.1469 12.4901C26.1468 10.5948 25.3939 8.77714 24.0537 7.43694C22.7135 6.09675 20.8958 5.34381 19.0005 5.34375Z" fill="white"/>
<path d="M21.6392 25.3235C23.3238 25.0055 24.9173 24.319 26.3055 23.313C26.7076 22.9906 26.9651 22.5216 27.0215 22.0093C27.0778 21.497 26.9283 20.9833 26.6059 20.5812C26.2835 20.1791 25.8145 19.9215 25.3022 19.8652C24.7899 19.8088 24.2762 19.9583 23.874 20.2807C22.4389 21.2392 20.7444 21.7345 19.019 21.6998C17.2824 21.7294 15.5771 21.2349 14.1259 20.2807C13.7238 19.9583 13.21 19.8088 12.6977 19.8652C12.1854 19.9215 11.7164 20.1791 11.394 20.5812C11.0716 20.9833 10.9221 21.497 10.9785 22.0093C11.0348 22.5216 11.2923 22.9906 11.6945 23.313C13.1298 24.3398 14.7757 25.0343 16.5127 25.346L12.4135 29.6299C12.0578 30.0013 11.8638 30.4985 11.874 31.0127C11.8843 31.5268 12.0979 32.016 12.4681 32.3729C12.8383 32.7298 13.3349 32.9254 13.8491 32.9169C14.3633 32.9084 14.8531 32.6964 15.2112 32.3273L19.0195 28.2708L23.212 32.3535C23.5767 32.7176 24.0711 32.922 24.5865 32.9216C25.1019 32.9212 25.596 32.7161 25.9602 32.3514C26.3243 31.9867 26.5287 31.4922 26.5283 30.9769C26.5279 30.4615 26.3228 29.9674 25.9581 29.6032L21.6392 25.3235Z" fill="white"/>
</g>
<defs>
<clipPath id="clip0_1_90">
<rect width="38" height="38" fill="white"/>
</clipPath>
</defs>
</svg>
