<svg width="38" height="38" viewBox="0 0 38 38" fill="none" xmlns="http://www.w3.org/2000/svg">
<path d="M19 0L9.5 19L19 38C29.4935 38 38 29.4935 38 19C38 8.50645 29.4935 0 19 0Z" fill="#2CB3CD"/>
<path d="M0 19C0 29.4935 8.50645 38 19 38V0C8.50645 0 0 8.50645 0 19Z" fill="#44BFD7"/>
<path d="M19 4.45312L14.5469 15.6602L19 33.0273L27.5934 22.8533C29.2787 20.8418 30.207 18.2871 30.207 15.6602C30.207 9.48058 25.1796 4.45312 19 4.45312Z" fill="#DEF4F8"/>
<path d="M7.79297 15.6602C7.79297 18.2871 8.72128 20.8418 10.4077 22.855L19 33.0273V4.45312C12.8204 4.45312 7.79297 9.48058 7.79297 15.6602Z" fill="white"/>
<path d="M17.4107 10.248C17.6655 10.6687 17.8125 11.1618 17.8125 11.6895C17.8125 13.2266 16.5664 14.4727 15.0293 14.4727C14.5016 14.4727 14.0085 14.3257 13.5878 14.0708C13.4403 14.575 13.3594 15.1082 13.3594 15.6602C13.3594 18.7753 15.8848 21.3008 19 21.3008L21.2266 15.6602L19 10.0195C18.448 10.0195 17.9148 10.1004 17.4107 10.248Z" fill="#FB5858"/>
<path d="M19 10.0195V21.3008C22.1152 21.3008 24.6406 18.7753 24.6406 15.6602C24.6406 12.545 22.1152 10.0195 19 10.0195Z" fill="#F44545"/>
</svg>
