<svg width="38" height="38" viewBox="0 0 38 38" fill="none" xmlns="http://www.w3.org/2000/svg">
<path d="M38 19C38 29.4935 29.4935 38 19 38C8.50645 38 0 29.4935 0 19C0 8.50645 8.50645 0 19 0C29.4935 0 38 8.50645 38 19Z" fill="#FF0335"/>
<path d="M37.9985 19.118L27.5641 8.68364C26.7286 7.77098 25.6399 7.0314 24.3078 6.44548C22.4355 5.62183 20.2364 5.2803 17.9751 5.53021C14.5344 5.91029 11.6535 7.49759 9.82553 10.3298C8.469 12.4314 8.04718 14.8983 8.6647 17.618C8.8601 18.4782 9.29382 19.2044 9.88873 19.7805L14.0145 23.9034C13.8806 24.5366 13.7496 25.1706 13.6252 25.8021C13.2805 27.5511 13.2178 29.3904 13.4385 31.2688C13.4634 31.4807 13.6078 32.4015 13.6078 32.4015L19.2038 37.9974C29.5637 37.8884 37.9353 29.489 37.9985 19.118Z" fill="#C2001B"/>
<path d="M29.5657 13.7212C29.3483 10.2014 27.5465 7.86984 24.3078 6.44548C22.4355 5.62183 20.2365 5.2803 17.9751 5.53021C14.5341 5.91029 11.6535 7.49759 9.82558 10.3298C8.46877 12.4314 8.04723 14.8983 8.66475 17.618C9.08281 19.4581 10.5898 20.6877 12.4354 21.1359C12.6384 21.1849 12.8578 20.9092 12.979 20.67C13.4464 19.746 13.3631 19.1572 12.8468 18.3361L12.7761 18.2239C12.5383 17.8485 12.2931 17.4603 12.1699 17.0506C11.7631 15.6947 11.8518 14.2956 12.434 12.8927C13.1547 11.1555 14.417 9.83316 16.1858 8.96254C18.4193 7.86317 20.5705 7.81679 22.5799 8.82483C23.9327 9.50382 26.4126 10.598 25.8507 15.6959C25.6365 17.6398 24.8578 19.2331 23.9147 20.4693C23.0084 21.6574 21.8647 22.1694 20.5157 21.9923C19.9422 21.9169 19.2366 21.7374 18.8649 21.0153C18.6393 20.5766 18.5843 20.0658 18.6968 19.4535C18.8089 18.8426 18.9588 18.2265 19.1038 17.6308C19.1821 17.3084 19.2632 16.9753 19.3378 16.6459C19.3902 16.4128 19.4453 16.1803 19.5001 15.9475C19.6599 15.2723 19.8251 14.5739 19.9269 13.8761C20.0657 12.9237 19.7744 12.1977 19.0835 11.7768C18.2596 11.2746 17.3249 11.1824 16.5325 11.575C15.8993 11.8884 15.3102 12.4195 14.9519 13.2153C14.2857 14.6942 14.4445 16.1873 14.9858 17.5644C15.1864 18.0749 15.2195 18.4892 15.0954 18.949L15.0919 18.9621C15.0876 18.9783 15.0832 18.9942 15.0795 19.0108C14.9328 19.6909 14.7832 20.3708 14.6339 21.0503C14.2918 22.6052 13.9381 24.213 13.6249 25.8021C13.2802 27.5511 13.2176 29.3901 13.4382 31.2688C13.4632 31.4804 13.6078 32.4015 13.6078 32.4015C13.6078 32.4015 13.8099 32.3267 13.9653 32.1936C15.0606 31.254 15.8164 30.0395 16.4592 28.2014C17.0213 26.5944 17.4205 24.9926 17.6873 23.4639C17.747 23.5007 19.3897 24.5917 20.8819 24.8607C23.552 25.342 24.8763 24.7714 26.2685 23.541C28.0674 21.9508 28.6864 20.3676 29.2947 18.0735C29.6365 16.7839 29.6594 15.2401 29.5657 13.7212Z" fill="white"/>
<path d="M19.1038 17.6311C19.069 17.7734 19.0342 17.9163 19 18.0607V11.7286C19.0284 11.7437 19.056 11.7605 19.0835 11.7773C19.7747 12.198 20.0663 12.924 19.9269 13.8763C19.8248 14.5739 19.6601 15.2726 19.5004 15.9478C19.4453 16.1806 19.3902 16.4134 19.338 16.6462C19.2632 16.9756 19.1821 17.3084 19.1038 17.6311Z" fill="#FFF5CB"/>
<path d="M29.2944 18.0734C28.6867 20.3678 28.0672 21.951 26.2685 23.541C24.8766 24.7717 23.552 25.3419 20.8821 24.8609C20.2359 24.745 19.5613 24.4745 19 24.2017V21.2352C19.3908 21.7762 20.0054 21.925 20.516 21.9925C21.865 22.1694 23.009 21.6574 23.9147 20.4693C24.8578 19.2334 25.6368 17.6397 25.8507 15.6958C26.4129 10.5976 23.9329 9.50405 22.5802 8.82506C21.4298 8.24783 20.2324 8.01619 19 8.13013V5.45738C20.8966 5.39505 22.7202 5.74672 24.3078 6.44542C27.5465 7.86978 29.348 10.2016 29.5657 13.7209C29.6591 15.2398 29.6368 16.7839 29.2944 18.0734Z" fill="#FFF5CB"/>
</svg>
