<svg width="38" height="38" viewBox="0 0 38 38" fill="none" xmlns="http://www.w3.org/2000/svg">
<g clip-path="url(#clip0_1_5843)">
<path fill-rule="evenodd" clip-rule="evenodd" d="M28.5 38H9.5C6.98048 37.9999 4.56418 36.999 2.78261 35.2174C1.00104 33.4358 0.000110222 31.0195 0 28.5L0 9.5C0.000110222 6.98048 1.00104 4.56418 2.78261 2.78261C4.56418 1.00104 6.98048 0.000110222 9.5 0L28.5 0C31.0196 0 33.4359 1.00089 35.2175 2.78249C36.9991 4.56408 38 6.98044 38 9.5V28.5C38 31.0196 36.9991 33.4359 35.2175 35.2175C33.4359 36.9991 31.0196 38 28.5 38Z" fill="#1ED764"/>
<path fill-rule="evenodd" clip-rule="evenodd" d="M17.8125 10.6875H28.5C29.8699 10.6874 31.1875 10.1612 32.1807 9.21762C33.1738 8.274 33.7667 6.98503 33.8368 5.61688C33.9069 4.24873 33.4489 2.90591 32.5574 1.86572C31.6659 0.825532 30.409 0.167427 29.0462 0.0273125C28.8646 0.0172187 28.6847 0 28.5 0H9.5C6.98048 0.000110222 4.56418 1.00104 2.78261 2.78261C1.00104 4.56418 0.000110222 6.98048 0 9.5L0 28.5C0.000110226 23.7759 1.87681 19.2452 5.21728 15.9048C8.55775 12.5643 13.0884 10.6876 17.8125 10.6875Z" fill="#37F07D"/>
<path fill-rule="evenodd" clip-rule="evenodd" d="M28.5 19C26.6211 19 24.7844 19.5572 23.2221 20.601C21.6598 21.6449 20.4422 23.1286 19.7231 24.8645C19.0041 26.6004 18.816 28.5105 19.1825 30.3534C19.5491 32.1962 20.4539 33.8889 21.7825 35.2175C23.1111 36.5461 24.8038 37.4509 26.6466 37.8175C28.4895 38.184 30.3996 37.9959 32.1355 37.2769C33.8714 36.5578 35.3551 35.3402 36.399 33.7779C37.4428 32.2156 38 30.3789 38 28.5V9.5C38 12.0196 36.9991 14.4359 35.2175 16.2175C33.4359 17.9991 31.0196 19 28.5 19Z" fill="#05BE4B"/>
<path d="M27.6634 27.9353C27.5829 28.0674 27.4772 28.1824 27.3523 28.2736C27.2273 28.3648 27.0857 28.4305 26.9353 28.4669C26.785 28.5033 26.629 28.5097 26.4762 28.4857C26.3233 28.4617 26.1768 28.4079 26.0448 28.3272C21.6101 25.6167 16.0282 25.0046 9.45484 26.5061C9.15096 26.5746 8.83232 26.5198 8.56879 26.3537C8.30526 26.1876 8.11835 25.9238 8.04903 25.6201C7.97971 25.3165 8.03364 24.9977 8.199 24.7337C8.36436 24.4697 8.62765 24.2821 8.93115 24.2119C16.1244 22.5672 22.2953 23.275 27.2727 26.3167C27.539 26.4796 27.7298 26.7416 27.8031 27.0451C27.8764 27.3487 27.8261 27.6688 27.6634 27.9353ZM29.9736 22.7928C29.8725 22.9577 29.7399 23.101 29.5834 23.2146C29.4269 23.3282 29.2495 23.4098 29.0615 23.4549C28.8734 23.4999 28.6783 23.5075 28.4873 23.4771C28.2963 23.4468 28.1132 23.3791 27.9484 23.2779C22.8736 20.1584 15.1352 19.2553 9.13124 21.0775C8.94609 21.1343 8.75155 21.1539 8.55878 21.1354C8.366 21.1169 8.17878 21.0605 8.00784 20.9695C7.83689 20.8785 7.68558 20.7546 7.56258 20.605C7.43957 20.4555 7.34729 20.2831 7.29101 20.0978C7.23474 19.9125 7.21558 19.7179 7.23463 19.5251C7.25368 19.3324 7.31056 19.1453 7.40203 18.9746C7.4935 18.8039 7.61774 18.653 7.76766 18.5304C7.91757 18.4078 8.09019 18.3159 8.27565 18.2601C15.1341 16.1791 23.6609 17.1872 29.4891 20.7687C29.8217 20.973 30.0596 21.3009 30.1504 21.6805C30.2413 22.06 30.1777 22.4601 29.9736 22.7928ZM30.1731 17.439C24.086 13.8236 14.0451 13.4912 8.23409 15.2552C8.01196 15.3231 7.77861 15.3466 7.54739 15.3243C7.31618 15.3019 7.09165 15.2342 6.88665 15.1249C6.68165 15.0157 6.50023 14.867 6.35275 14.6876C6.20528 14.5081 6.09466 14.3013 6.02723 14.079C5.95979 13.8567 5.93687 13.6233 5.95978 13.3921C5.98268 13.161 6.05096 12.9366 6.16071 12.7319C6.27045 12.5271 6.41951 12.3461 6.59934 12.199C6.77916 12.052 6.98623 11.9419 7.20868 11.875C13.8795 9.85027 24.9683 10.2416 31.9758 14.4014C32.3786 14.6404 32.6699 15.0297 32.7857 15.4835C32.9015 15.9374 32.8323 16.4187 32.5933 16.8215C32.3542 17.2243 31.9649 17.5157 31.5111 17.6315C31.0572 17.7473 30.576 17.678 30.1731 17.439Z" fill="white"/>
</g>
<defs>
<clipPath id="clip0_1_5843">
<rect width="38" height="38" fill="white"/>
</clipPath>
</defs>
</svg>
