<svg width="38" height="38" viewBox="0 0 38 38" fill="none" xmlns="http://www.w3.org/2000/svg">
<g clip-path="url(#clip0_1_40)">
<path d="M18.9998 37.9998C29.4931 37.9998 37.9996 29.4933 37.9996 19C37.9996 8.50673 29.4931 0.000244141 18.9998 0.000244141C8.50649 0.000244141 0 8.50673 0 19C0 29.4933 8.50649 37.9998 18.9998 37.9998Z" fill="#41B4E6"/>
<path d="M38.0013 19.0002C38.0013 18.5373 37.9839 18.0785 37.9513 17.6238L30.0768 9.74939L7.92578 18.4626L16.4009 26.9378L16.5121 27.338L16.656 27.1929L16.6566 27.1935L16.5121 27.338L25.8872 36.7131C32.9765 33.9551 38.0013 27.0649 38.0013 19.0002Z" fill="#0091C8"/>
<path d="M17.1561 21.7684L25.7426 28.2512L30.0769 9.74939L7.92578 18.4626L14.6661 20.6952L26.9674 12.4438L17.1561 21.7684Z" fill="white"/>
<path d="M14.6641 20.6952L16.5101 27.3381L17.1541 21.7684L26.9653 12.4438L14.6641 20.6952Z" fill="#D2D2D7"/>
<path d="M19.9463 23.8752L16.5117 27.338L17.1557 21.7683L19.9463 23.8752Z" fill="#B9B9BE"/>
</g>
<defs>
<clipPath id="clip0_1_40">
<rect width="38" height="38" fill="white"/>
</clipPath>
</defs>
</svg>
