<svg width="38" height="38" viewBox="0 0 38 38" fill="none" xmlns="http://www.w3.org/2000/svg">
<path d="M13.5131 19.6976C10.4998 19.6976 8.06545 22.132 8.10998 25.1156C8.13966 27.0304 9.19357 28.6929 10.7447 29.6207C10.2178 28.8117 9.90607 27.8542 9.89123 26.8226C9.8467 23.839 12.2811 21.4046 15.2944 21.4046C15.8881 21.4046 16.4596 21.5011 16.994 21.6718V15.6972C16.4373 15.6156 15.8658 15.571 15.2944 15.571C15.2647 15.571 15.2424 15.571 15.2127 15.571V19.9648C14.6783 19.7941 14.1069 19.6976 13.5131 19.6976Z" fill="#F00044"/>
<path d="M26.5395 1.78125H26.4949H24.9512C25.3965 4.01523 26.6508 5.95977 28.4023 7.28086C27.252 5.75937 26.5543 3.85938 26.5395 1.78125Z" fill="#F00044"/>
<path d="M35.6242 10.873C35.0379 10.873 34.4738 10.8136 33.9172 10.7097V14.9921C31.8984 14.9921 29.9391 14.5988 28.0984 13.8121C26.9109 13.3074 25.8051 12.6617 24.7883 11.8824L24.818 25.0859C24.8031 28.0546 23.6305 30.8379 21.5078 32.9382C19.7785 34.6453 17.5891 35.7363 15.2141 36.0851C14.6574 36.1668 14.0859 36.2113 13.5145 36.2113C10.9762 36.2113 8.55664 35.3875 6.58984 33.866C6.8125 34.1332 7.05 34.3929 7.30977 34.6453C9.44726 36.7531 12.2824 37.9183 15.3031 37.9183C15.8746 37.9183 16.4461 37.8738 17.0027 37.7922C19.3777 37.4433 21.5672 36.3523 23.2965 34.6453C25.4191 32.5449 26.5918 29.7617 26.6066 26.7929L26.4953 13.5894C27.5047 14.3687 28.6105 15.0218 29.8055 15.5191C31.6535 16.2984 33.6129 16.6992 35.6242 16.6992" fill="#F00044"/>
<path d="M7.28753 18.8589C9.40277 16.7585 12.2157 15.5933 15.2141 15.571V13.9902C14.6575 13.9085 14.086 13.864 13.5145 13.864C10.4864 13.864 7.64378 15.0292 5.50628 17.1519C3.40589 19.2375 2.20355 22.0875 2.21097 25.0488C2.21097 28.0324 3.39105 30.8304 5.52113 32.9457C5.86253 33.2796 6.21136 33.5914 6.58245 33.8734C4.90511 31.8769 3.99222 29.3832 3.9848 26.7558C3.99222 23.7945 5.18714 20.9445 7.28753 18.8589Z" fill="#08FFF9"/>
<path d="M33.9172 10.7098V9.12151H33.9023C31.8391 9.12151 29.9391 8.4387 28.4102 7.28088C29.7387 9.03245 31.6832 10.2793 33.9172 10.7098Z" fill="#08FFF9"/>
<path d="M14.9914 32.0773C15.6965 32.1145 16.3719 32.018 16.9953 31.8176C19.1477 31.1125 20.6988 29.1086 20.6988 26.7484L20.7063 17.9164V1.78125H24.9516C24.8402 1.22461 24.7809 0.660547 24.7734 0.0742188H18.925V16.202L18.9176 25.034C18.9176 27.3941 17.3664 29.398 15.2141 30.1031C14.5906 30.3109 13.9152 30.4074 13.2102 30.3629C12.3121 30.3109 11.4734 30.0438 10.7461 29.6133C11.659 31.0234 13.2176 31.9809 14.9914 32.0773Z" fill="#08FFF9"/>
<path d="M15.2141 36.0852C17.5891 35.7363 19.7786 34.6453 21.5078 32.9383C23.6305 30.8379 24.8032 28.0547 24.818 25.0859L24.7883 11.8824C25.7977 12.6617 26.9036 13.3148 28.0985 13.8121C29.9465 14.5914 31.9059 14.9922 33.9172 14.9922V10.7098C31.6832 10.2793 29.7387 9.03242 28.4102 7.28086C26.6586 5.95977 25.3969 4.01523 24.959 1.78125H20.7063V17.909L20.6989 26.741C20.6989 29.1012 19.1477 31.1051 16.9953 31.8102C16.3719 32.018 15.6965 32.1145 14.9914 32.0699C13.2102 31.9734 11.659 31.016 10.7461 29.6133C9.19496 28.693 8.14105 27.023 8.11136 25.1082C8.06683 22.1246 10.5012 19.6902 13.5145 19.6902C14.1082 19.6902 14.6797 19.7867 15.2141 19.9574V15.5637C12.2157 15.5859 9.40277 16.7512 7.28753 18.8516C5.18714 20.9371 3.9848 23.7871 3.99222 26.741C3.99222 29.3684 4.90511 31.8621 6.58988 33.8586C8.5641 35.3801 10.9762 36.2039 13.5145 36.2039C14.086 36.2113 14.6575 36.1668 15.2141 36.0852Z" fill="black"/>
</svg>
