<svg width="38" height="38" viewBox="0 0 38 38" fill="none" xmlns="http://www.w3.org/2000/svg">
<path d="M35 0H3C1.34315 0 0 1.34315 0 3V35C0 36.6569 1.34315 38 3 38H35C36.6569 38 38 36.6569 38 35V3C38 1.34315 36.6569 0 35 0Z" fill="#03A9F4"/>
<path d="M31.3067 11.3675C30.381 11.7718 29.4017 12.0404 28.3992 12.165C29.456 11.5383 30.246 10.5455 30.6192 9.37498C29.6301 9.96207 28.5478 10.3755 27.4192 10.5975C26.7276 9.85785 25.8295 9.34346 24.8416 9.1212C23.8537 8.89894 22.8218 8.9791 21.88 9.35126C20.9383 9.72342 20.1304 10.3704 19.5613 11.2079C18.9922 12.0455 18.6884 13.0349 18.6892 14.0475C18.6857 14.434 18.7251 14.8197 18.8067 15.1975C16.7992 15.0989 14.835 14.5779 13.0425 13.6685C11.25 12.7591 9.66947 11.4818 8.40422 9.91998C7.75387 11.031 7.55238 12.3485 7.84094 13.6031C8.12951 14.8577 8.88633 15.9547 9.95672 16.67C9.15778 16.6484 8.37576 16.4349 7.67672 16.0475V16.1025C7.67897 17.267 8.08206 18.3953 8.81825 19.2977C9.55443 20.2001 10.5788 20.8215 11.7192 21.0575C11.2877 21.1709 10.8429 21.2264 10.3967 21.2225C10.0754 21.2284 9.75443 21.1999 9.43922 21.1375C9.76594 22.139 10.3949 23.0148 11.2397 23.6442C12.0845 24.2736 13.1036 24.6259 14.1567 24.6525C12.372 26.0474 10.1719 26.8052 7.90672 26.805C7.50311 26.8084 7.09972 26.785 6.69922 26.735C9.0089 28.2241 11.7011 29.011 14.4492 29C23.7367 29 28.8142 21.3075 28.8142 14.64C28.8142 14.4175 28.8142 14.2025 28.7967 13.9875C29.7856 13.2738 30.6361 12.386 31.3067 11.3675Z" fill="white"/>
</svg>
