<svg width="38" height="38" viewBox="0 0 38 38" fill="none" xmlns="http://www.w3.org/2000/svg">
<path d="M34.4742 0H3.5258C1.57855 0 0 1.57855 0 3.5258V34.4742C0 36.4214 1.57855 38 3.5258 38H34.4742C36.4214 38 38 36.4214 38 34.4742V3.5258C38 1.57855 36.4214 0 34.4742 0Z" fill="#00A8E8"/>
<path d="M38.0008 18.3134V34.4742C38.0008 35.4093 37.6294 36.3061 36.9682 36.9674C36.3069 37.6286 35.4101 38 34.475 38H26.4648L16.6258 28.1632V25.188L7.75195 16.3141L16.6884 9.97717L21.188 14.4789L29.8913 10.2039L38.0008 18.3134Z" fill="url(#paint0_linear_1_5849)"/>
<path d="M30.8749 13.9218C30.7735 16.1629 29.1757 19.2374 26.194 23.1173C23.2987 26.8871 20.9798 28.7309 19.0107 29.1347C18.7492 29.1874 18.483 29.2142 18.2162 29.2146C16.1715 29.2146 14.1808 23.4887 12.8681 18.6825C12.1815 16.2104 11.6029 15.1719 10.9379 15.2021C10.3139 15.2345 9.49993 15.811 8.63629 16.422L8.61038 16.4414C8.47763 16.5352 8.31387 16.5743 8.15307 16.5506C7.99227 16.5268 7.84677 16.4421 7.74675 16.314L7.25447 15.6663C7.15602 15.5385 7.11013 15.3779 7.12619 15.2173C7.14224 15.0568 7.21903 14.9085 7.34084 14.8027L7.75322 14.4658C10.4067 12.1513 13.6389 9.49994 15.0877 9.49994C16.9898 9.49994 17.2835 10.5385 17.8686 12.6112C17.8966 12.7105 18.4148 15.0013 18.9999 17.2791C19.585 19.557 20.2436 21.8499 20.5264 21.8499C20.697 21.8499 21.2886 21.0942 22.3573 19.4166C23.2361 18.0348 23.9443 16.7329 24.0846 16.2449C24.2465 15.6685 24.2185 15.2258 23.9939 14.93C23.7024 14.5544 23.1173 14.4658 22.6704 14.4658C22.3294 14.4676 21.9902 14.5155 21.6621 14.6083C21.5777 14.6293 21.4893 14.6271 21.4061 14.602C21.3229 14.5769 21.248 14.5299 21.1892 14.4658C21.1282 14.4009 21.0865 14.3202 21.0689 14.2328C21.0514 14.1454 21.0587 14.0549 21.0899 13.9714C22.2774 10.7177 24.4063 9.11346 27.4182 9.22142C28.4848 9.25164 29.3161 9.58198 29.8904 10.2016C30.6137 10.9789 30.9419 12.2312 30.8749 13.9218Z" fill="white"/>
<defs>
<linearGradient id="paint0_linear_1_5849" x1="14.9914" y1="10.9142" x2="36.7486" y2="32.6736" gradientUnits="userSpaceOnUse">
<stop stop-color="#007299"/>
<stop offset="1" stop-color="#007299" stop-opacity="0"/>
</linearGradient>
</defs>
</svg>
