<svg width="38" height="38" viewBox="0 0 38 38" fill="none" xmlns="http://www.w3.org/2000/svg">
<g clip-path="url(#clip0_1_61)">
<path fill-rule="evenodd" clip-rule="evenodd" d="M28.5 38H9.5C6.98048 37.9999 4.56418 36.999 2.78261 35.2174C1.00104 33.4358 0.000110222 31.0195 0 28.5L0 9.5C0.000110222 6.98048 1.00104 4.56418 2.78261 2.78261C4.56418 1.00104 6.98048 0.000110222 9.5 0L28.5 0C31.0196 0 33.4359 1.00089 35.2175 2.78249C36.9991 4.56408 38 6.98044 38 9.5V28.5C38 31.0196 36.9991 33.4359 35.2175 35.2175C33.4359 36.9991 31.0196 38 28.5 38Z" fill="#4682C3"/>
<path fill-rule="evenodd" clip-rule="evenodd" d="M17.8125 10.6875H28.5C29.8699 10.6874 31.1875 10.1612 32.1807 9.21762C33.1738 8.274 33.7667 6.98503 33.8368 5.61688C33.9069 4.24873 33.4489 2.90591 32.5574 1.86572C31.6659 0.825532 30.409 0.167427 29.0462 0.0273125C28.8646 0.0172187 28.6847 0 28.5 0H9.5C6.98048 0.000110222 4.56418 1.00104 2.78261 2.78261C1.00104 4.56418 0.000110222 6.98048 0 9.5L0 28.5C0.000110226 23.7759 1.87681 19.2452 5.21728 15.9048C8.55775 12.5643 13.0884 10.6876 17.8125 10.6875Z" fill="#5F9BDC"/>
<path fill-rule="evenodd" clip-rule="evenodd" d="M28.5 19C26.6211 19 24.7844 19.5572 23.2221 20.601C21.6598 21.6449 20.4422 23.1286 19.7231 24.8645C19.0041 26.6004 18.816 28.5105 19.1825 30.3534C19.5491 32.1962 20.4539 33.8889 21.7825 35.2175C23.1111 36.5461 24.8038 37.4509 26.6466 37.8175C28.4895 38.184 30.3996 37.9959 32.1355 37.2769C33.8714 36.5578 35.3551 35.3402 36.399 33.7779C37.4428 32.2156 38 30.3789 38 28.5V9.5C38 12.0196 36.9991 14.4359 35.2175 16.2175C33.4359 17.9991 31.0196 19 28.5 19Z" fill="#2D69AA"/>
<path fill-rule="evenodd" clip-rule="evenodd" d="M31.5388 12.9462C31.7312 12.3417 31.5388 11.903 30.6868 11.903H27.8576C27.5939 11.8883 27.3324 11.9574 27.1105 12.1005C26.8886 12.2435 26.7176 12.4531 26.622 12.6992C25.7372 14.7855 24.5624 16.7366 23.1325 18.4948C22.4734 19.1538 22.1718 19.3741 21.8144 19.3741C21.622 19.3741 21.375 19.1538 21.375 18.5494V12.9189C21.375 12.2046 21.1547 11.8751 20.5509 11.8751H16.2129C16.1226 11.8707 16.0323 11.8844 15.9473 11.9153C15.8623 11.9461 15.7842 11.9936 15.7178 12.055C15.6513 12.1163 15.5977 12.1903 15.5601 12.2725C15.5224 12.3548 15.5016 12.4437 15.4987 12.5341C15.4987 13.2211 16.5152 13.3856 16.625 15.3087V19.4834C16.625 20.39 16.4599 20.5551 16.1031 20.5551C15.1412 20.5551 12.4201 17.0116 11.0188 12.9735C10.7439 12.1767 10.4702 11.8751 9.75531 11.8751H6.89878C6.07466 11.8751 5.9375 12.2592 5.9375 12.6713C5.9375 14.4858 11.0663 27.2847 19.3426 27.2847C21.1547 27.2847 21.375 26.8732 21.375 26.1862V23.6319C21.375 22.8072 21.5401 22.67 22.1166 22.67C23.5897 22.67 26.2556 25.9606 26.9444 26.6499C27.1034 26.8506 27.3044 27.0139 27.5334 27.1284C27.7624 27.2429 28.0137 27.3058 28.2696 27.3126H31.0988C31.923 27.3126 32.2098 26.812 31.9907 26.0158C31.4812 24.3771 27.9371 21.0057 27.7483 20.7475C27.3357 20.1977 27.4455 19.9786 27.7483 19.4834C27.7204 19.4834 31.1814 14.5944 31.5388 12.9462Z" fill="white"/>
</g>
<defs>
<clipPath id="clip0_1_61">
<rect width="38" height="38" fill="white"/>
</clipPath>
</defs>
</svg>
