<svg width="38" height="38" viewBox="0 0 38 38" fill="none" xmlns="http://www.w3.org/2000/svg">
<path d="M30.6248 12.0872C31.9102 7.81687 27.1405 4.38982 23.5124 6.75999C22.5583 2.87902 19.056 0 14.8807 0C8.69079 0 4.42336 6.16929 6.52791 11.9365C3.01989 11.5737 0 14.3236 0 17.8174C0 21.0829 2.64731 23.7303 5.91286 23.7303H32.0871C35.3527 23.7303 38 21.0829 38 17.8174C38 13.9578 34.3603 11.1367 30.6248 12.0872Z" fill="#6EA7EF"/>
<path d="M38 17.8177C38 21.0833 35.3526 23.73 32.087 23.73H19V1.01086C21.2266 2.17758 22.898 4.2609 23.5125 6.75985C27.1403 4.39004 31.9104 7.81673 30.6249 12.0873C34.3603 11.1365 38 13.9576 38 17.8177Z" fill="#2F85E8"/>
<path d="M19 38C25.4764 38 30.7266 32.7498 30.7266 26.2734C30.7266 19.797 25.4764 14.5469 19 14.5469C12.5236 14.5469 7.27344 19.797 7.27344 26.2734C7.27344 32.7498 12.5236 38 19 38Z" fill="#393D9D"/>
<path d="M30.7266 26.2734C30.7266 32.7394 25.4659 38 19 38V14.5469C25.4659 14.5469 30.7266 19.8075 30.7266 26.2734Z" fill="#182084"/>
<path d="M26.6865 27.492C26.2519 27.0572 25.547 27.0572 25.1121 27.492L24.567 28.037V24.5682C24.567 23.9534 24.0686 23.455 23.4538 23.455C22.8389 23.455 22.3405 23.9534 22.3405 24.5682V28.0369L21.797 27.4934C21.3623 27.0587 20.6573 27.0587 20.2226 27.4934C19.7878 27.9281 19.7878 28.6331 20.2226 29.0678L22.6666 31.5119C23.1012 31.9466 23.8062 31.9467 24.241 31.5119L26.6865 29.0664C27.1213 28.6316 27.1213 27.9268 26.6865 27.492Z" fill="#CD0000"/>
<path d="M15.3362 21.035C14.9015 20.6003 14.1965 20.6003 13.7617 21.035L11.3163 23.4804C10.8815 23.9151 10.8815 24.6201 11.3163 25.0548C11.7512 25.4897 12.4559 25.4896 12.8907 25.0548L13.4357 24.5099V27.9785C13.4357 28.5934 13.9342 29.0918 14.549 29.0918C15.1638 29.0918 15.6623 28.5934 15.6623 27.9785V24.5098L16.2058 25.0534C16.6405 25.4882 17.3455 25.4881 17.7802 25.0534C18.215 24.6186 18.215 23.9137 17.7802 23.479L15.3362 21.035Z" fill="#00ED89"/>
</svg>
