<svg width="38" height="38" viewBox="0 0 38 38" fill="none" xmlns="http://www.w3.org/2000/svg">
<g clip-path="url(#clip0_1_56)">
<path d="M31.2043 37.3522C23.0948 38.2174 14.9162 38.2174 6.80662 37.3522C5.23182 37.1859 3.7616 36.4848 2.64107 35.3659C1.52053 34.2469 0.817402 32.7777 0.648891 31.2031C-0.216297 23.0936 -0.216297 14.915 0.648891 6.8054C0.815192 5.23059 1.51626 3.76038 2.63522 2.63984C3.75418 1.51931 5.22341 0.816182 6.79798 0.64767C14.9075 -0.217518 23.0861 -0.217518 31.1957 0.64767C32.7705 0.813972 34.2407 1.51504 35.3613 2.634C36.4818 3.75296 37.1849 5.22219 37.3534 6.79676C38.2186 14.9063 38.2186 23.0849 37.3534 31.1945C37.1871 32.7693 36.4861 34.2395 35.3671 35.36C34.2481 36.4806 32.7789 37.1837 31.2043 37.3522Z" fill="#E60000"/>
<path d="M30.3206 13.2869C29.8456 11.8252 28.2738 10.94 26.8272 10.7371C21.6241 10.1843 16.377 10.1843 11.1738 10.7371C9.72723 10.94 8.1511 11.8166 7.68042 13.2869C6.93986 17.0603 6.93986 20.9417 7.68042 24.715C8.15542 26.1746 9.72723 27.0619 11.1738 27.2649C16.377 27.8176 21.6241 27.8176 26.8272 27.2649C28.2738 27.0619 29.85 26.1854 30.3206 24.715C31.0612 20.9417 31.0612 17.0603 30.3206 13.2869ZM16.1592 23.5513V14.4485L23.5692 18.9999C21.0711 20.535 18.6464 22.0226 16.1592 23.5513Z" fill="white"/>
</g>
<defs>
<clipPath id="clip0_1_56">
<rect width="38" height="38" fill="white"/>
</clipPath>
</defs>
</svg>
