<svg width="30" height="30" fill="none" xmlns="http://www.w3.org/2000/svg"><circle cx="15" cy="15" r="14.5" stroke="#F8C479"/><path d="M23 10.127c-.588.26-1.22.437-1.885.516a3.29 3.29 0 001.443-1.815 6.556 6.556 0 01-2.084.795 3.284 3.284 0 00-5.594 2.994 9.325 9.325 0 01-6.766-3.429 3.278 3.278 0 00-.056 3.198c.254.477.623.883 1.072 1.183a3.276 3.276 0 01-1.487-.41v.041a3.28 3.28 0 002.634 3.218c-.484.13-.99.15-1.483.056a3.283 3.283 0 003.067 2.278A6.59 6.59 0 017 20.11a9.288 9.288 0 005.031 1.474c6.04 0 9.34-4.999 9.34-9.335 0-.14-.003-.283-.01-.424A6.672 6.672 0 0023 10.13l.001-.002z" fill="#fff"/></svg>