<svg width="75" height="72" fill="none" xmlns="http://www.w3.org/2000/svg"><path d="M.82 71.75v-7.972h1.526l4.408 5.956h-.32c-.03-.235-.056-.463-.079-.683l-.068-.683-.046-.718-.023-.786c-.007-.28-.011-.584-.011-.91v-2.176h1.674v7.972H6.332l-4.498-6.013.432.011c.038.395.069.733.092 1.014a19.945 19.945 0 01.102 1.252c.015.152.023.297.023.433.007.137.011.281.011.433v2.87H.82zM12.97 71.75v-7.972h5.386v1.503h-3.724v4.966h3.804v1.503h-5.467zm.796-3.337v-1.458h4.043v1.458h-4.043zM26.747 71.864a4.175 4.175 0 01-1.617-.308 4.065 4.065 0 01-1.299-.854 3.884 3.884 0 01-.842-1.31 4.526 4.526 0 01-.296-1.65c0-.6.098-1.147.296-1.64.197-.502.478-.939.842-1.31.373-.373.805-.661 1.299-.866a4.175 4.175 0 011.617-.308 4.12 4.12 0 011.617.308c.494.205.923.493 1.287.865a3.8 3.8 0 01.854 1.31c.198.501.297 1.048.297 1.64 0 .592-.1 1.14-.297 1.64a3.8 3.8 0 01-.854 1.31c-.364.372-.793.66-1.287.865a4.12 4.12 0 01-1.617.308zm0-1.617c.334 0 .642-.061.923-.183.288-.121.535-.296.74-.523a2.48 2.48 0 00.478-.798c.122-.303.182-.637.182-1.002 0-.364-.06-.698-.182-1.002a2.35 2.35 0 00-.478-.786 2.057 2.057 0 00-.74-.524 2.184 2.184 0 00-.923-.193c-.334 0-.642.064-.922.193-.281.122-.528.296-.74.524-.213.22-.377.482-.49.786-.107.304-.16.638-.16 1.002 0 .365.053.699.16 1.002.114.304.277.57.49.798.212.227.459.402.74.523.28.122.588.183.922.183zM35.366 71.75v-7.972h1.56l2.904 4.726-1.025-.011 2.938-4.715h1.492v7.972h-1.674v-2.733c0-.684.016-1.299.046-1.845.038-.547.099-1.09.182-1.629l.205.535L39.66 69.7h-.751l-2.29-3.599.194-.558c.084.509.14 1.033.171 1.572.038.531.057 1.165.057 1.902v2.733h-1.674zM48.122 71.75v-1.47h1.332v-5.033h-1.332v-1.47h4.373v1.47h-1.332v5.034h1.332v1.47h-4.373zM57.384 71.75v-7.972h1.526l4.408 5.956h-.32c-.03-.235-.056-.463-.079-.683l-.068-.683-.046-.718-.023-.786c-.007-.28-.01-.584-.01-.91v-2.176h1.673v7.972h-1.549l-4.498-6.013.432.011c.038.395.069.733.092 1.014a19.938 19.938 0 01.102 1.252c.015.152.023.297.023.433.008.137.011.281.011.433v2.87h-1.674zM69.533 71.75v-7.972h5.387v1.503h-3.724v4.966H75v1.503h-5.467zm.797-3.337v-1.458h4.044v1.458H70.33z" fill="#fff"/><path fill-rule="evenodd" clip-rule="evenodd" d="M31.81.287l-.29.29.037 3.006.037 3.006.428.864c.514 1.04 1.177 1.69 2.24 2.193l.765.362 4.578.058c5.17.064 5.053.045 5.876.98.508.577.704 1.143.704 2.036v.644h1.831V3.306l-.28-.281c-.372-.372-.898-.372-1.27 0-.265.264-.281.354-.281 1.56 0 1.643-.131 2.073-.854 2.796-.81.808-1.665 1.032-2.738.715-.628-.186-1.576-1.133-1.762-1.762-.092-.31-.139-1.375-.139-3.122V.56l-.281-.281c-.372-.372-.898-.372-1.27 0-.278.279-.28.298-.28 2.475 0 2.632-.067 2.925-.854 3.712-1.158 1.157-2.627 1.157-3.785 0-.787-.787-.854-1.08-.854-3.712 0-2.177-.002-2.196-.281-2.475-.375-.375-.897-.372-1.278.008zm21.98 2.738c-.265.264-.281.354-.281 1.56 0 1.642-.131 2.072-.854 2.798-.675.677-1.345.922-2.238.816l-.57-.068v1.934h.645c.993 0 1.514.206 2.163.855.648.648.854 1.169.854 2.162v.644h1.831V3.306l-.28-.281a.922.922 0 00-.636-.281.922.922 0 00-.634.28zm-3.943 9.786v.915h1.831v-.634c0-.888-.308-1.196-1.196-1.196h-.635v.915zm-8.088 2.973c-1.328.348-1.728.597-4.032 2.504-2.327 1.926-1.555 1.773-9.28 1.846-5.887.056-6.517.08-7.038.27-1.776.65-3.1 1.798-3.833 3.326-.243.507-.498 1.227-.565 1.6-.075.42-.122 2.77-.122 6.16v5.482l-.329.304c-.18.167-1.208.998-2.283 1.847l-1.955 1.545-.005 5.291-.006 5.291h.973c.885 0 .973-.02.973-.22 0-.122.18-2.185.4-4.585.22-2.4.4-4.43.4-4.514 0-.427.442-.643 2.69-1.319 1.259-.379 2.618-.85 3.02-1.046.994-.487 2.128-1.628 2.685-2.701.646-1.247.757-1.971.759-4.977l.002-2.603h1.831v4l.543.272c3.088 1.545 7.318 1.578 10.619.082l.74-.336v-4.018h1.831V51.25h1.831l.003-3.289.003-3.289 1.417-5.648c.81-3.229 1.492-5.724 1.592-5.825.097-.096.497-.219.89-.273.87-.119 1.597-.524 2.043-1.14.207-.285.62-1.325 1.097-2.766.42-1.27.922-2.608 1.114-2.974.89-1.698 2.98-2.715 4.878-2.376 1.115.2 1.759.585 3.796 2.279l1.836 1.525 1.244-.038c1.194-.037 1.257-.052 1.592-.373.427-.41.538-.928.38-1.78-.236-1.267-.494-1.627-2.955-4.12-1.995-2.023-2.37-2.461-2.732-3.184-.53-1.061-1.162-1.75-1.925-2.095-.576-.26-.719-.271-3.79-.305l-3.19-.036.053.55c.112 1.16.85 2.006 1.887 2.161.574.086 1.294-.084 1.762-.416l.296-.21.613.62.614.621-.26.277c-.144.153-.578.424-.967.603-.6.277-.852.326-1.679.326-.826 0-1.076-.048-1.66-.32a4.225 4.225 0 01-2.433-3.473l-.058-.725-2.244.006c-1.815.005-2.402.047-3.066.221zm16.785-.162c0 .035.123.228.274.429.15.2.428.673.617 1.05.188.378.44.774.557.88.199.18.244.18.593.01.655-.317 1.163-1.213 1.163-2.05v-.384h-1.602c-.88 0-1.602.029-1.602.065zM15.108 22.07c-.545.13-1.527.704-1.84 1.076a6.395 6.395 0 00-.591.92c-.3.569-.31.646-.346 2.844-.02 1.243-.007 2.26.03 2.26.182 0 1.091-.498 1.45-.793.544-.449 1.126-1.567 1.208-2.322a10.2 10.2 0 01.943-3.206l.445-.887-.474.012c-.261.006-.632.05-.825.096zm37.846 3.537c-.337.12-.715.32-.84.444-.225.225-.223.233.303 2.032.29.993.63 1.949.755 2.124.535.752 1.665 1.087 2.54.753.335-.128.86-.56 1.667-1.369l1.178-1.182-1.435-1.193c-.79-.656-1.657-1.31-1.927-1.452a2.754 2.754 0 00-2.242-.157zm-6.197 8.888l-.744.26-.307 1.166-.307 1.166 1.766 2.352c.972 1.293 1.767 2.443 1.767 2.554 0 .111-.18 2.166-.401 4.566-.22 2.4-.4 4.436-.4 4.526 0 .118.143.164.509.164.478 0 .516-.023.61-.372l1.232-4.526 1.13-4.154-1.997-3.997c-1.099-2.198-2.023-3.99-2.056-3.98-.032.008-.393.132-.802.275zm-21.054 1.67c-.787 2.591-2.656 4.57-5.189 5.495-.514.187-.955.361-.98.386-.025.025.747 2.106 1.715 4.624l1.762 4.579h.9c.669 0 .886-.036.85-.143-.028-.079-.584-1.932-1.236-4.119-.97-3.246-1.167-4.032-1.08-4.282.08-.226.452-.505 1.425-1.07 2.191-1.272 3.607-2.8 4.3-4.642.157-.418.271-.773.253-.79-.018-.017-.497-.186-1.063-.376a52.462 52.462 0 01-1.217-.42c-.151-.06-.235.085-.44.758z" fill="#fff"/><path fill-rule="evenodd" clip-rule="evenodd" d="M31.81.287l-.29.29.037 3.006.037 3.006.428.864c.514 1.04 1.177 1.69 2.24 2.193l.765.362 4.578.058c5.17.064 5.053.045 5.876.98.508.577.704 1.143.704 2.036v.644h1.831V3.306l-.28-.281c-.372-.372-.898-.372-1.27 0-.265.264-.281.354-.281 1.56 0 1.643-.131 2.073-.854 2.796-.81.808-1.665 1.032-2.738.715-.628-.186-1.576-1.133-1.762-1.762-.092-.31-.139-1.375-.139-3.122V.56l-.281-.281c-.372-.372-.898-.372-1.27 0-.278.279-.28.298-.28 2.475 0 2.632-.067 2.925-.854 3.712-1.158 1.157-2.627 1.157-3.785 0-.787-.787-.854-1.08-.854-3.712 0-2.177-.002-2.196-.281-2.475-.375-.375-.897-.372-1.278.008zm21.98 2.738c-.265.264-.281.354-.281 1.56 0 1.642-.131 2.072-.854 2.798-.675.677-1.345.922-2.238.816l-.57-.068v1.934h.645c.993 0 1.514.206 2.163.855.648.648.854 1.169.854 2.162v.644h1.831V3.306l-.28-.281a.922.922 0 00-.636-.281.922.922 0 00-.634.28zm-3.943 9.786v.915h1.831v-.634c0-.888-.308-1.196-1.196-1.196h-.635v.915z" fill="#F8C479"/></svg>