<svg width="124" height="47" fill="none" xmlns="http://www.w3.org/2000/svg"><path d="M34.225 16.15l-7.156-2.423V3.23l7.165 2.154-.009 10.768v-.002zm1.867-10.766l7.165-2.154-.026 10.49-7.14 2.43V5.384zm5.705-3.29L35.12 0l-6.59 2.093 6.6 1.795 6.668-1.795h-.001zM52.27 16.15l-7.156-2.423V3.23l7.165 2.154-.009 10.768v-.002zm1.867-10.766l7.165-2.154-.026 10.49-7.14 2.43V5.384zm5.705-3.29L53.164 0l-6.59 2.093 6.6 1.795 6.669-1.795zM7.165 20.725L0 18.573V29.07l7.156 2.424.01-10.768zm1.858 0l7.165-2.153-.026 10.49-7.139 2.43V20.726zm5.706-3.29l-6.678-2.092-6.592 2.093L8.06 19.23l6.668-1.794h.001zm10.473 14.057l-7.156-2.422V18.572l7.165 2.153-.009 10.768v-.001zm1.867-10.767l7.165-2.153-.026 10.49-7.14 2.43V20.726zm5.706-3.29l-6.68-2.092-6.588 2.093 6.6 1.794 6.667-1.794h.001zm-16.596 29.4l-7.156-2.423V33.916l7.165 2.154-.009 10.766zm1.867-10.766l7.165-2.154-.026 10.49-7.14 2.43V36.068v.002zm5.705-3.291l-6.677-2.093-6.592 2.093 6.601 1.795 6.668-1.795zm24.121 4.777l-.526.002c-.194 0-.44.132-.5.347l-1.599 5.707-1.578-5.694c-.049-.18-.214-.36-.44-.36h-.623c-.225 0-.389.183-.433.364l-1.47 5.635-1.52-5.654c-.059-.206-.312-.345-.51-.345h-.756a.48.48 0 00-.393.183.268.268 0 00-.046.24l2.346 8.423c.052.178.203.356.424.356h.754a.459.459 0 00.433-.364l1.444-5.61 1.572 5.617c.047.172.199.357.421.357h.742c.206 0 .38-.144.43-.357l2.258-8.418a.276.276 0 00-.042-.248.476.476 0 00-.388-.18zm6.515 3.577h-3.981c.091-1.134.817-2.307 2.046-2.353 1.307.043 1.906 1.192 1.935 2.352zm-1.94-3.637c-2.687 0-3.912 2.41-3.912 4.65 0 2.796 1.522 4.602 3.878 4.602 1.687 0 2.972-.864 3.527-2.373a.323.323 0 00-.026-.265.44.44 0 00-.29-.207l-.747-.144a.493.493 0 00-.506.262c-.362.838-1.022 1.315-1.852 1.34a2.148 2.148 0 01-1.867-1.225c-.273-.585-.313-1.164-.317-1.753h5.404a.448.448 0 00.313-.137.35.35 0 00.104-.246c-.013-2.177-.993-4.504-3.707-4.504h-.001zm10.357 4.663c0 .517-.091 3.092-1.895 3.157-.604-.023-1.216-.383-1.556-.916-.252-.403-.399-.96-.437-1.65v-1.514c.03-1.16.836-2.435 1.988-2.484 1.809.072 1.9 2.85 1.9 3.407zm-1.61-4.742h-.145c-.892 0-1.594.377-2.133 1.148v-3.551c0-.2-.203-.382-.428-.382h-.777c-.203 0-.43.163-.43.38V46.1c0 .201.204.385.428.385l.228-.002c.216 0 .369-.176.42-.34l.244-.782c.564.812 1.415 1.291 2.325 1.291h.14c2.397 0 3.471-2.365 3.471-4.71 0-1.166-.284-2.282-.779-3.06-.571-.903-1.555-1.464-2.566-1.464h.001zm11.85 4.494c-.504-.369-1.113-.492-1.721-.616l-1.166-.219c-.838-.139-1.323-.367-1.323-1.116 0-.792.81-1.095 1.496-1.113.838.02 1.469.4 1.775 1.067a.45.45 0 00.4.262.399.399 0 00.086-.009l.728-.162a.454.454 0 00.289-.218.32.32 0 00.03-.262c-.446-1.315-1.576-2.012-3.288-2.012-1.546.004-3.2.702-3.2 2.65 0 1.331.826 2.176 2.454 2.513l1.306.252c.717.14 1.45.387 1.45 1.168 0 1.156-1.325 1.274-1.726 1.283-.9-.02-1.92-.428-2.167-1.289-.048-.19-.284-.323-.49-.28l-.762.159a.44.44 0 00-.28.203.342.342 0 00-.042.267c.393 1.43 1.754 2.292 3.641 2.305l.041.002c1.686 0 3.486-.733 3.486-2.785 0-.836-.37-1.583-1.017-2.05zm7.704-.77h-3.982c.092-1.134.817-2.309 2.046-2.352 1.307.042 1.906 1.19 1.936 2.351zm-1.939-3.637c-2.689 0-3.914 2.41-3.914 4.65 0 2.796 1.524 4.6 3.879 4.6 1.687 0 2.972-.864 3.528-2.371a.323.323 0 00-.027-.265.438.438 0 00-.29-.207l-.747-.144c-.175-.03-.42.061-.506.262-.362.838-1.024 1.315-1.852 1.34a2.148 2.148 0 01-1.865-1.225c-.274-.584-.315-1.163-.319-1.754H82.1a.447.447 0 00.313-.135.352.352 0 00.105-.247c-.012-2.178-.992-4.504-3.708-4.504zm8.811.102a2.753 2.753 0 00-.305-.017c-.908 0-1.644.5-2.155 1.454l.003-.836c-.002-.203-.2-.38-.427-.38h-.675c-.223 0-.417.179-.42.384v8.127c0 .203.196.383.419.383h.787c.204 0 .436-.164.438-.383v-4.097c0-.676.062-1.184.38-1.787.455-.858 1.09-1.279 1.94-1.285a.415.415 0 00.402-.406v-.76c0-.198-.17-.373-.387-.397zm8.266-.16h-.621c-.195 0-.445.143-.506.351l-2.014 6.426-2.06-6.42c-.06-.213-.31-.357-.507-.357h-.886a.498.498 0 00-.403.188.268.268 0 00-.041.243l2.816 8.476c.055.167.198.364.426.364h1.074c.196 0 .359-.136.432-.364l2.733-8.473a.267.267 0 00-.04-.244.497.497 0 00-.403-.19zm2.044-3.258a1.05 1.05 0 00-1.04 1.058 1.048 1.048 0 001.04 1.055 1.048 1.048 0 001.038-1.055 1.047 1.047 0 00-1.038-1.058zm.426 3.206h-.851c-.233 0-.444.19-.444.4l-.004 8.628a.38.38 0 00.144.286c.085.07.191.11.301.11l.858.001c.236-.003.443-.187.443-.396v-8.63c0-.212-.21-.398-.445-.398l-.002-.001zm7.969 5.853l-.711.002c-.199 0-.367.122-.44.332-.26 1.138-.849 1.729-1.743 1.754-1.739-.053-1.874-2.513-1.874-3.265 0-1.5.512-3.12 1.942-3.163.865.026 1.492.655 1.681 1.678.035.21.194.367.41.394l.761.008c.228-.026.406-.2.406-.416-.271-1.85-1.534-3.045-3.222-3.045h-.125c-2.456 0-3.555 2.324-3.555 4.628 0 2.113.926 4.579 3.541 4.579h.126c1.646 0 2.888-1.17 3.244-3.068a.341.341 0 00-.086-.254.508.508 0 00-.354-.164h-.001zm7.033-2.107h-3.982c.092-1.133.816-2.308 2.046-2.351 1.307.042 1.906 1.19 1.936 2.351zm-1.939-3.636c-2.689 0-3.914 2.41-3.914 4.65 0 2.796 1.524 4.6 3.879 4.6 1.686 0 2.971-.862 3.526-2.371a.31.31 0 00.015-.136.314.314 0 00-.041-.13.435.435 0 00-.291-.206l-.746-.144c-.176-.03-.419.061-.505.262-.364.838-1.025 1.315-1.853 1.341a2.148 2.148 0 01-1.866-1.226c-.273-.585-.314-1.166-.318-1.754h5.404a.45.45 0 00.314-.136.351.351 0 00.105-.246c-.013-2.178-.993-4.504-3.709-4.504zm10.477 4.407c-.505-.369-1.113-.492-1.721-.616l-1.167-.219c-.837-.139-1.32-.367-1.32-1.116 0-1.022 1.249-1.107 1.493-1.113.838.02 1.47.4 1.775 1.067a.455.455 0 00.402.262.405.405 0 00.086-.009l.727-.162a.455.455 0 00.29-.218.323.323 0 00.029-.262c-.446-1.315-1.576-2.012-3.288-2.012-1.546.004-3.199.702-3.199 2.65 0 1.331.825 2.176 2.453 2.513l1.306.252c.718.14 1.451.387 1.451 1.168 0 1.156-1.326 1.274-1.727 1.283-.834-.02-1.902-.368-2.165-1.289-.049-.19-.283-.323-.493-.28l-.76.159a.448.448 0 00-.283.204.348.348 0 00-.04.266c.392 1.43 1.753 2.292 3.639 2.305l.042.002c1.686 0 3.487-.733 3.487-2.785 0-.836-.371-1.584-1.017-2.05z" fill="#fff"/><path fill-rule="evenodd" clip-rule="evenodd" d="M87.234 20.781v-1.96a.48.48 0 01.491-.496h8.655a.483.483 0 01.498.494v1.68c-.002.282-.236.65-.651 1.233l-4.483 6.494c1.664-.04 3.424.212 4.936 1.074.34.194.432.482.46.764v2.092c0 .288-.31.62-.637.446-2.664-1.415-6.2-1.57-9.146.017-.301.163-.616-.165-.616-.453v-1.987c0-.317.005-.862.321-1.347l5.195-7.558h-4.523a.485.485 0 01-.5-.493zM55.66 33.015h-2.633a.5.5 0 01-.471-.452l.002-13.709a.5.5 0 01.509-.492l2.452-.002a.503.503 0 01.48.46v1.79h.048c.639-1.73 1.843-2.537 3.466-2.537 1.646 0 2.679.807 3.416 2.538.64-1.73 2.09-2.538 3.64-2.538 1.105 0 2.309.462 3.046 1.5.836 1.153.663 2.826.663 4.297l-.001 8.651a.5.5 0 01-.507.494h-2.63a.497.497 0 01-.474-.493v-7.267c0-.577.049-2.02-.074-2.568-.197-.923-.786-1.181-1.549-1.181-.639 0-1.303.432-1.573 1.123-.27.694-.246 1.848-.246 2.626v7.266a.5.5 0 01-.507.494h-2.63a.497.497 0 01-.473-.493l-.004-7.267c0-1.53.247-3.778-1.62-3.778-1.894 0-1.82 2.191-1.82 3.778l-.002 7.266a.5.5 0 01-.508.494zm48.694-12.145c-1.943 0-2.066 2.683-2.066 4.357 0 1.672-.024 5.25 2.042 5.25 2.04 0 2.138-2.885 2.138-4.645 0-1.154-.048-2.538-.393-3.635-.296-.952-.885-1.327-1.721-1.327zm-.024-2.797c3.908 0 6.022 3.404 6.022 7.73 0 4.183-2.337 7.5-6.022 7.5-3.835 0-5.925-3.405-5.925-7.645 0-4.269 2.113-7.585 5.925-7.585zm11.09 14.942h-2.623a.499.499 0 01-.472-.493l-.004-13.715a.503.503 0 01.504-.445l2.443-.002c.231.014.42.17.468.384v2.097h.05c.736-1.874 1.77-2.768 3.588-2.768 1.179 0 2.335.433 3.073 1.614.688 1.097.688 2.942.688 4.27v8.626a.501.501 0 01-.503.432h-2.641a.501.501 0 01-.469-.432v-7.444c0-1.5.171-3.692-1.648-3.692-.638 0-1.228.433-1.524 1.096-.368.836-.417 1.673-.417 2.596v7.382a.512.512 0 01-.511.494h-.002zM82.99 32.98a.54.54 0 01-.623.062c-.873-.737-1.03-1.08-1.509-1.78-1.446 1.493-2.469 1.941-4.341 1.941-2.218 0-3.942-1.388-3.942-4.163 0-2.168 1.158-3.641 2.808-4.364 1.429-.637 3.425-.752 4.951-.926v-.348c0-.635.05-1.387-.32-1.936-.319-.491-.936-.694-1.478-.694-1.005 0-1.897.524-2.117 1.605-.045.24-.219.48-.457.49l-2.552-.28c-.215-.05-.455-.223-.393-.557.587-3.142 3.383-4.09 5.89-4.09 1.28 0 2.955.346 3.965 1.33 1.28 1.214 1.158 2.833 1.158 4.596v4.16c0 1.253.512 1.802.995 2.476.167.244.204.532-.01.71-.537.459-1.494 1.299-2.019 1.774l-.006-.005v-.002zm-2.656-6.512c0 1.041.025 1.908-.492 2.833-.42.752-1.085 1.214-1.824 1.214-1.008 0-1.6-.78-1.6-1.937 0-2.274 2.013-2.688 3.918-2.688v.578h-.002zM48.47 32.98a.542.542 0 01-.623.062c-.875-.737-1.03-1.08-1.509-1.78-1.444 1.493-2.469 1.941-4.342 1.941-2.217 0-3.942-1.388-3.942-4.163 0-2.168 1.16-3.641 2.81-4.364 1.428-.637 3.424-.752 4.952-.926v-.348c0-.635.048-1.387-.321-1.936-.32-.491-.937-.694-1.478-.694-1.005 0-1.898.524-2.117 1.605-.046.24-.218.48-.458.49l-2.552-.28c-.215-.05-.455-.223-.393-.557.587-3.142 3.384-4.09 5.888-4.09 1.283 0 2.957.346 3.967 1.33 1.28 1.214 1.158 2.833 1.158 4.596v4.16c0 1.253.513 1.802.994 2.476.168.244.206.532-.01.71-.536.459-1.492 1.299-2.018 1.774l-.006-.005v-.002zm-2.656-6.512c0 1.041.025 1.908-.49 2.833-.42.752-1.085 1.214-1.824 1.214-1.012 0-1.601-.78-1.601-1.937 0-2.274 2.01-2.688 3.917-2.688v.578h-.002z" fill="#fff"/></svg>