<svg width="127" height="27" fill="none" xmlns="http://www.w3.org/2000/svg"><path fill-rule="evenodd" clip-rule="evenodd" d="M2.551 5.133a2.564 2.564 0 01-1.797-.757A2.593 2.593 0 010 2.57C0 1.145 1.177 0 2.551 0a2.554 2.554 0 012.55 2.566 2.553 2.553 0 01-2.55 2.565v.002zm2.08 21.393H.51V7.462h4.12v19.064zm18.682 0H10.085V.199h12.872c4.788 0 7.457 3 7.457 6.71 0 3.316-2.12 5.526-4.552 6.039 2.786.435 5.062 3.238 5.062 6.473 0 4.066-2.707 7.105-7.615 7.105h.004zm-1.297-15.434c2.355 0 3.69-1.42 3.69-3.394 0-1.973-1.335-3.434-3.69-3.434H14.68v6.83h7.338l-.002-.002zm.196 11.369c2.513 0 4.004-1.383 4.004-3.67 0-1.974-1.374-3.632-4.004-3.632H14.68v7.302h7.534-.002zm21.94 4.537c-5.691 0-9.93-3.986-9.93-10.024 0-5.526 4.004-9.986 9.616-9.986 5.69 0 9.34 4.38 9.34 10.38v.987H38.54c.313 2.881 2.472 5.25 6.042 5.25 1.845 0 4.042-.75 5.377-2.092l1.884 2.724C49.959 26.052 47.173 27 44.15 27v-.002zm5.023-11.562c-.08-2.25-1.61-5.054-5.337-5.054-3.532 0-5.142 2.724-5.339 5.054h10.675zm24.332 11.09h-16.13V.199h4.593v22.262h11.538v4.065h-.001zM79.59 5.133a2.564 2.564 0 01-1.796-.757 2.593 2.593 0 01-.753-1.807c0-1.422 1.175-2.567 2.549-2.567a2.553 2.553 0 012.55 2.565 2.552 2.552 0 01-2.548 2.566h-.002zm2.08 21.393h-4.121V7.462h4.12v19.064zm22.252 0h-4.12v-11.92c0-2.96-1.492-3.947-3.808-3.947-2.118 0-3.924 1.263-4.865 2.565v13.302h-4.121V7.462h4.12v2.605c1.257-1.5 3.69-3.079 6.673-3.079 4.08 0 6.121 2.21 6.121 6.118v13.42zm23.078 0h-5.182l-5.808-7.855-2.629 2.724v5.131h-4.12V.199h4.12v16.46l8.359-9.197h5.102l-7.889 8.643L127 26.526z" fill="#fff"/></svg>