<svg width="12" height="10" viewBox="0 0 12 10" fill="none" xmlns="http://www.w3.org/2000/svg">
<path d="M1.6968 9.9889L1.6848 10L1.6722 9.9889H0.5952C0.437288 9.98875 0.285898 9.93063 0.174294 9.8273C0.0626892 9.72398 -8.00731e-08 9.5839 0 9.43785V0.551054C0.00109803 0.405315 0.0641402 0.265825 0.175508 0.162718C0.286875 0.0596104 0.437628 0.0011624 0.5952 0H11.4048C11.7336 0 12 0.246948 12 0.551054V9.43785C11.9989 9.58359 11.9359 9.72308 11.8245 9.82618C11.7131 9.92929 11.5624 9.98774 11.4048 9.9889H1.6968ZM10.8 6.65927V1.10988H1.2V8.87902L7.2 3.32963L10.8 6.65927ZM10.8 8.22863L7.2 4.899L2.8968 8.87902H10.8V8.22863ZM3.6 4.43951C3.28174 4.43951 2.97652 4.32258 2.75147 4.11444C2.52643 3.90629 2.4 3.62399 2.4 3.32963C2.4 3.03528 2.52643 2.75297 2.75147 2.54483C2.97652 2.33669 3.28174 2.21976 3.6 2.21976C3.91826 2.21976 4.22348 2.33669 4.44853 2.54483C4.67357 2.75297 4.8 3.03528 4.8 3.32963C4.8 3.62399 4.67357 3.90629 4.44853 4.11444C4.22348 4.32258 3.91826 4.43951 3.6 4.43951Z" fill="#43705E"/>
</svg>
