<svg  viewBox="0 0 21642 8362" fill="none" xmlns="http://www.w3.org/2000/svg">
<path d="M6028.78 4833.86C6224.04 4858.27 6443.72 4866.41 6700 4866.41C7265.45 4866.41 7717 4711.82 7989.56 4431.13C8282.45 4126.03 8412.63 3707.03 8412.63 3214.8C8412.63 2454.08 8054.64 1717.78 6809.84 1717.78C6521.01 1717.78 6256.59 1746.25 6028.78 1782.86V4833.86ZM6366.42 2031.01C6472.19 2010.67 6626.78 1990.33 6822.04 1990.33C7627.5 1990.33 8058.71 2425.61 8058.71 3231.07C8058.71 4117.9 7599.03 4593.85 6761.02 4593.85C6614.57 4593.85 6468.12 4589.78 6366.42 4573.51V2031.01ZM10096.4 1693.37C9319.44 1693.37 8745.85 2307.64 8745.85 3316.5C8745.85 4284.68 9290.97 4890.82 10059.8 4890.82C10792.1 4890.82 11402.3 4353.84 11402.3 3263.62C11402.3 2327.98 10889.7 1693.37 10096.4 1693.37ZM10080.2 1974.06C10743.2 1974.06 11048.3 2657.48 11048.3 3279.89C11048.3 3987.72 10710.7 4610.12 10072 4610.12C9441.48 4610.12 9099.77 3967.38 9099.77 3308.36C9099.77 2649.35 9396.73 1974.06 10080.2 1974.06ZM14100.8 1742.18H13779.4V3092.76C13779.4 3580.92 13787.5 3951.11 13820.1 4382.32L13811.9 4386.38C13669.6 4065.01 13490.6 3743.64 13270.9 3373.45L12270.2 1742.18H11916.3V4842H12233.6V3475.15C12233.6 2938.18 12229.5 2576.12 12201 2181.53L12217.3 2177.46C12367.8 2519.17 12567.1 2864.95 12774.6 3210.73L13763.1 4842H14100.8V1742.18ZM17001.4 3243.28H16041.3V3515.83H16667.8V4508.42C16578.3 4557.24 16403.4 4597.92 16143 4597.92C15435.2 4597.92 14967.4 4130.1 14967.4 3292.09C14967.4 2470.36 15459.6 1998.47 16191.9 1998.47C16480.7 1998.47 16675.9 2055.42 16826.5 2124.58L16916 1843.88C16761.4 1770.66 16497 1713.71 16200 1713.71C15227.7 1713.71 14613.5 2368.66 14613.5 3312.43C14613.5 3967.38 14902.3 4874.54 16118.6 4874.54C16509.2 4874.54 16834.6 4780.98 17001.4 4715.89V3243.28ZM18550.6 4842H18888.2V1742.18H18550.6V4842ZM21202.5 4553.17H19921.1V1742.18H19583.5V4842H21202.5V4553.17Z" fill="white"/>
<path d="M6031.16 6722V5306.3H6844.94V5397.38H6142.04V5949.8H6712.28V6040.88H6142.04V6630.92H6880.58V6722H6031.16ZM7152.64 6722V5306.3H7303.12L8095.12 6569.54V5306.3H8200.06V6722H8069.38L7259.56 5429.06V6722H7152.64ZM8880.97 6722V5397.38H8441.41V5306.3H9429.43V5397.38H8989.87V6722H8880.97ZM9670.18 6722V5306.3H10484V5397.38H9781.06V5949.8H10351.3V6040.88H9781.06V6630.92H10519.6V6722H9670.18ZM10791.7 6722V5306.3H11179.7C11326.3 5306.3 11443.1 5337.32 11530.2 5399.36C11617.3 5460.08 11660.9 5555.78 11660.9 5686.46V5694.38C11660.9 5909.54 11538.8 6034.28 11294.6 6068.6L11744 6722H11621.3L11177.8 6076.52H10902.5V6722H10791.7ZM10902.5 5987.42H11185.7C11428.6 5987.42 11550 5889.74 11550 5694.38V5686.46C11550 5582.18 11518.3 5508.26 11455 5464.7C11392.9 5419.82 11303.2 5397.38 11185.7 5397.38H10902.5V5987.42ZM12270.6 6722V5397.38H11831V5306.3H12819V5397.38H12379.5V6722H12270.6ZM12803.7 6722L13312.6 5306.3H13459.1L13968 6722H13857.1L13700.7 6288.38H13063.1L12908.7 6722H12803.7ZM13381.9 5397.38L13094.8 6199.28H13669L13381.9 5397.38ZM14226 6722V5306.3H14336.8V6722H14226ZM14711.1 6722V5306.3H14861.5L15653.5 6569.54V5306.3H15758.5V6722H15627.8L14818 5429.06V6722H14711.1ZM16122.6 6722V5306.3H16281L16779.9 6522.02L17280.9 5306.3H17435.3V6722H17326.4V5444.9L16793.8 6722H16758.2L16225.5 5444.9V6722H16122.6ZM17806.7 6722V5306.3H18620.5V5397.38H17917.6V5949.8H18487.9V6040.88H17917.6V6630.92H18656.2V6722H17806.7ZM18928.2 6722V5306.3H19078.7L19870.7 6569.54V5306.3H19975.7V6722H19845L19035.2 5429.06V6722H18928.2ZM20656.6 6722V5397.38H20217V5306.3H21205V5397.38H20765.5V6722H20656.6Z" fill="white"/>
<g clip-path="url(#clip0_105_74)">
<path d="M3104.66 6580.25L3121.24 6616.65L3104.66 6580.25C2991.1 6631.97 2869.4 6658.81 2775.29 6672.63C2728.4 6679.52 2688.76 6683.12 2660.94 6684.99C2647.04 6685.93 2636.12 6686.43 2628.75 6686.7C2625.07 6686.84 2622.27 6686.91 2620.44 6686.95L2619.39 6686.98L2618.42 6686.99L2618.3 6687H568V6432.21H3346.67C3271.29 6491.76 3189.65 6541.54 3104.66 6580.25ZM1237.73 2652.22L1237.73 2652.22C1236.74 2657.78 1235.78 2663.32 1234.84 2668.84H568V2414.05H1305.21C1275.61 2489.6 1252.53 2569.18 1237.73 2652.22ZM3679.06 6017.3H568V5762.51H3766.15C3747.19 5850.03 3718.18 5935.19 3679.06 6017.3ZM3782.79 5347.62H568V5092.83H3719.48C3743.3 5153.87 3760.86 5214.87 3771.57 5274.21C3771.57 5274.21 3771.57 5274.21 3771.57 5274.21C3776 5298.76 3779.74 5323.24 3782.79 5347.62ZM3451.04 4677.92H568V4423.13H3087.51C3144.55 4447.67 3202.14 4478.75 3261.31 4518.39C3329.65 4564.19 3393.3 4618.2 3451.04 4677.92ZM1480.01 3753.44C1540.86 3845.37 1623.15 3931.88 1716.66 4008.23H568V3753.44H1480.01ZM1219.24 3083.74C1229.05 3173.8 1247.72 3258.23 1273.5 3338.53H568V3083.74H1219.24ZM1847.98 1744.36C1748.37 1810.43 1648.83 1896.53 1559.34 1999.15H568V1744.36H1847.98Z" fill="white" stroke="white" stroke-width="80"/>
<path d="M4759.89 5631.93V2838.29C4935.87 3219.89 5009.17 3663.94 5014.68 4118.14V4238.16C5010.33 4716.66 4967 5230.31 4759.89 5631.93ZM1631.5 3596.43L1631.5 3596.43C1425.79 3294.88 1296.4 2757.37 1666.24 2227.37V3644.62C1654.29 3628.91 1642.7 3612.85 1631.5 3596.43ZM4090.21 6369.16V2056.33C4181.08 2116.19 4266.49 2184.22 4345 2258.37V6175.81C4269.06 6246.03 4185.02 6310.84 4090.21 6369.16ZM3420.52 4364.85V1799.62C3442.17 1803.2 3463.39 1806.81 3484.15 1810.4C3548.89 1821.58 3612.72 1837.26 3675.31 1856.99V4597.45C3597.2 4505.56 3510.18 4427.94 3420.52 4364.85ZM2750.84 4115.62V1738.14C2836.55 1737.23 2922 1740.73 3005.63 1747.13V4160.25C2929.92 4138.57 2848.81 4124.52 2750.84 4115.62ZM2081.15 3985.45V1871.41C2161.99 1833.37 2247.52 1804.89 2335.94 1784.24V4076.63C2248.73 4056.51 2163.01 4025.88 2081.15 3985.45ZM3475.45 6610.76C3536.76 6562.53 3607.19 6497.61 3675.31 6413.42V6556.49C3612.38 6576.57 3545.88 6594.71 3475.45 6610.76Z" fill="white" stroke="white" stroke-width="80"/>
</g>
<defs>
<clipPath id="clip0_105_74">
<rect width="4526.74" height="5029" fill="white" transform="translate(528 1698)"/>
</clipPath>
</defs>
</svg>
