<svg width="229" height="179" viewBox="0 0 229 179" fill="none" xmlns="http://www.w3.org/2000/svg">
<path d="M30.2151 176.142V27.2787H0L14.5866 2.85776H56.7835V176.142H30.2151Z" fill="#111A21"/>
<path d="M206.86 160.295C195.92 172.765 182.809 179 167.528 179C152.247 179 139.136 172.765 128.196 160.295C113.436 143.494 106.056 119.94 106.056 89.6299C106.056 59.1471 113.436 35.5056 128.196 18.7054C139.136 6.23513 152.247 0 167.528 0C182.809 0 195.92 6.23513 206.86 18.7054C221.62 35.5056 229 59.1471 229 89.6299C229 119.94 221.62 143.494 206.86 160.295ZM190.971 37.6705C184.719 28.1447 176.905 23.3817 167.528 23.3817C158.151 23.3817 150.337 28.1447 144.085 37.6705C136.097 49.448 132.103 66.6812 132.103 89.3701C132.103 111.886 136.097 129.206 144.085 141.329C150.337 150.855 158.151 155.618 167.528 155.618C176.905 155.618 184.719 150.855 190.971 141.329C198.959 129.206 202.953 111.886 202.953 89.3701C202.953 66.6812 198.959 49.448 190.971 37.6705Z" fill="#111A21"/>
</svg>
