<svg width="206" height="176" viewBox="0 0 206 176" fill="none" xmlns="http://www.w3.org/2000/svg">
<path d="M30.1961 176V27.2566H0L14.5774 2.85545H56.7479V176H30.1961Z" fill="#111A21"/>
<path d="M206 151.599V176H89.3804L149.512 103.316C158.537 92.413 165.478 83.414 170.337 76.3186C176.411 67.3196 179.448 59.0128 179.448 51.3982C179.448 43.6106 176.932 37.0344 171.899 31.6696C166.867 26.1318 159.751 23.3628 150.554 23.3628C141.356 23.3628 134.067 26.3914 128.687 32.4484C123.308 38.5054 120.357 45.9469 119.837 54.7729H94.3263C95.0205 39.5438 99.8796 26.9105 108.904 16.8732C118.969 5.62439 132.505 0 149.512 0C167.04 0 180.75 5.10521 190.642 15.3156C200.533 25.5261 205.479 37.8132 205.479 52.177C205.479 64.118 201.314 76.232 192.984 88.5192C188.472 95.2684 180.229 105.652 168.255 119.67L141.182 151.599H206Z" fill="#111A21"/>
</svg>
