<svg width="372" height="583" viewBox="0 0 372 583" fill="none" xmlns="http://www.w3.org/2000/svg">
<path d="M370.852 583H0L209.089 341.373C244.654 299.526 267.025 271.723 276.203 257.965C297.428 227.582 308.04 198.346 308.04 170.257C308.04 137.581 297.428 110.925 276.203 90.2876C254.979 69.0772 227.445 58.472 193.6 58.472C152.299 58.472 120.463 75.383 98.0909 109.205C86.0446 127.549 79.7347 150.193 79.1611 177.136H15.488C17.7826 128.409 32.1233 88.8545 58.5104 58.472C92.9282 19.4907 138.245 0 194.461 0C245.514 0 287.676 16.3378 320.947 49.0133C354.791 81.1155 371.713 121.817 371.713 171.117C371.713 209.525 356.512 250.512 326.109 294.08C310.621 315.29 284.521 347.106 247.809 389.527L128.207 524.528H370.852V583Z" fill="#FBFBFB"/>
</svg>
