<svg width="343" height="583" viewBox="0 0 343 583" fill="none" xmlns="http://www.w3.org/2000/svg">
<path d="M81.0871 148.707H18.5825C20.2718 118.853 28.9999 91.2522 44.7668 65.9044C72.9221 21.9681 116.563 0 175.689 0C225.805 0 264.659 14.9271 292.251 44.7812C320.407 74.6353 334.484 110.404 334.484 152.087C334.484 211.232 310.271 252.915 261.844 277.136C269.164 279.953 276.203 283.896 282.96 288.965C290.28 293.471 299.009 300.794 309.144 310.933C319.28 321.072 327.445 335.155 333.64 353.18C339.834 370.642 342.931 390.638 342.931 413.17C342.931 464.428 326.319 505.548 293.096 536.529C260.436 567.51 219.329 583 169.776 583C136.553 583 105.582 575.396 76.8638 560.187C48.1455 544.415 26.7475 519.63 12.6699 485.833C5.3495 467.808 1.12621 448.093 0 426.688H62.5046C65.3202 449.783 72.0774 468.653 82.7764 483.299C101.922 511.463 130.922 525.545 169.776 525.545C200.747 525.545 226.931 514.561 248.329 492.593C269.727 470.061 280.426 443.024 280.426 411.48C280.426 365.29 261.844 333.746 224.679 316.848C206.096 307.835 184.698 303.892 160.485 305.019V249.254C184.698 250.943 206.096 247 224.679 237.425C256.213 221.089 271.98 193.207 271.98 153.777C271.98 126.176 264.096 103.363 248.329 85.3377C232.562 66.7493 208.349 57.4551 175.689 57.4551C144.155 57.4551 119.941 68.1575 103.048 89.5623C90.0968 106.461 82.7764 126.176 81.0871 148.707Z" fill="#FBFBFB"/>
</svg>
