<svg width="385" height="581" viewBox="0 0 385 581" fill="none" xmlns="http://www.w3.org/2000/svg">
<path d="M379.98 0V58.1856H197.248L160.531 181.402C170.208 179.12 182.163 177.979 196.394 177.979C252.751 177.979 298.007 196.804 332.162 234.454C366.887 272.103 384.249 319.165 384.249 375.639C384.249 437.247 364.041 486.876 323.623 524.526C283.775 562.175 234.819 581 176.755 581C127.799 581 85.3888 566.168 49.5255 536.505C29.0322 518.821 12.5237 499.426 0 478.32L50.3794 442.381C58.9182 459.495 71.7266 474.897 88.8043 488.588C116.698 511.405 147.438 522.814 181.024 522.814C220.872 522.814 254.174 508.553 280.929 480.031C307.684 451.509 321.062 416.997 321.062 376.495C321.062 335.423 307.684 301.766 280.929 275.526C254.743 249.285 221.442 236.165 181.024 236.165C145.161 236.165 108.444 249.285 70.8727 275.526L153.7 0H379.98Z" fill="#FBFBFB"/>
</svg>
