<svg width="122" height="182" viewBox="0 0 122 182" fill="none" xmlns="http://www.w3.org/2000/svg">
<path d="M77.6838 0L96.9744 14.2796L55.5256 66.4651C59.0014 65.7727 62.651 65.4265 66.4744 65.4265C82.8105 65.4265 96.1923 70.7922 106.62 81.5236C116.873 92.2549 122 105.756 122 122.026C122 139.854 116.265 154.393 104.795 165.643C93.6724 176.548 78.7265 182 59.9573 182C41.0142 182 26.0684 176.375 15.1197 165.124C5.03989 154.566 0 141.498 0 125.92C0 114.496 2.78063 103.419 8.34188 92.6876C9.5584 90.2644 10.7749 88.0143 11.9915 85.9372C13.3818 83.6871 14.859 81.3505 16.4231 78.9273C18.161 76.5041 19.4644 74.7732 20.3333 73.7347C21.2023 72.5231 22.7664 70.446 25.0256 67.5036C27.4587 64.388 28.9359 62.4841 29.4573 61.7917L77.6838 0ZM85.765 97.6206C79.3348 91.2164 71.1667 88.0143 61.2607 88.0143C51.3547 88.0143 43.0128 91.2164 36.235 97.6206C29.4573 104.025 26.0684 112.593 26.0684 123.324C26.0684 134.055 29.4573 142.623 36.235 149.027C43.0128 155.431 51.3547 158.633 61.2607 158.633C71.1667 158.633 79.3348 155.431 85.765 149.027C92.5427 142.277 95.9316 133.709 95.9316 123.324C95.9316 112.939 92.5427 104.371 85.765 97.6206Z" fill="#111A21"/>
</svg>
