<svg width="110" height="179" viewBox="0 0 110 179" fill="none" xmlns="http://www.w3.org/2000/svg">
<path d="M75.6905 105.478C70.2778 100.108 63.381 97.4238 55 97.4238C46.6191 97.4238 39.7222 100.108 34.3095 105.478C28.8968 110.847 26.1905 117.861 26.1905 126.521C26.1905 134.315 28.8095 141.07 34.0476 146.785C39.2857 152.674 46.2698 155.618 55 155.618C63.7302 155.618 70.7143 152.674 75.9524 146.785C81.1905 141.07 83.8095 134.315 83.8095 126.521C83.8095 117.861 81.1032 110.847 75.6905 105.478ZM74.1191 30.3962C69.0556 25.7199 62.6825 23.3817 55 23.3817C47.3175 23.3817 40.9444 25.7199 35.881 30.3962C30.9921 35.2458 28.5476 41.6541 28.5476 49.6212C28.5476 57.0687 30.9048 63.1306 35.619 67.807C40.5079 73.0029 46.9683 75.6009 55 75.6009C63.0318 75.6009 69.4921 73.0029 74.381 67.807C79.0952 63.1306 81.4524 57.0687 81.4524 49.6212C81.4524 41.6541 79.0079 35.2458 74.1191 30.3962ZM83.8095 85.9928C91.6667 89.2835 97.7778 93.9598 102.143 100.022C107.381 106.95 110 115.61 110 126.001C110 141.07 105.373 153.367 96.1191 162.893C85.9921 173.631 72.2857 179 55 179C37.7143 179 24.0079 173.631 13.881 162.893C4.62698 153.367 0 141.07 0 126.001C0 115.61 2.61905 106.95 7.85714 100.022C12.2222 93.9598 18.3333 89.2835 26.1905 85.9928C19.9048 83.3948 14.754 79.0648 10.7381 73.0029C6.54762 66.4214 4.45238 58.5409 4.45238 49.3614C4.45238 34.6396 9.34127 22.6023 19.119 13.2496C28.5476 4.41655 40.5079 0 55 0C69.4921 0 81.4524 4.41655 90.881 13.2496C100.659 22.6023 105.548 34.6396 105.548 49.3614C105.548 58.5409 103.452 66.4214 99.2619 73.0029C95.246 79.0648 90.0952 83.3948 83.8095 85.9928Z" fill="#111A21"/>
</svg>
