<svg width="720" height="130" viewBox="0 0 720 130" fill="none" xmlns="http://www.w3.org/2000/svg">
<path d="M23.4797 75.1923V130H0V2.6923H23.4797V13.4615C29.7666 4.48718 38.812 0 50.616 0C62.1634 0 71.6579 3.71795 79.0995 11.1538C87.4393 19.4872 91.6092 30.5128 91.6092 44.2308C91.6092 58.3333 87.2469 69.5513 78.5222 77.8846C70.8239 85.0641 61.3936 88.6539 50.2311 88.6539C39.0686 88.6539 30.1515 84.1667 23.4797 75.1923ZM44.2649 20.7692C38.2346 20.7692 33.1666 22.6282 29.0609 26.3462C23.8004 30.8333 21.1702 36.7949 21.1702 44.2308C21.1702 51.7949 23.7363 57.8205 28.8684 62.3077C33.1025 66.0256 38.2346 67.8846 44.2649 67.8846C50.5519 67.8846 55.8123 65.8974 60.0464 61.9231C64.9219 57.4359 67.3597 51.5385 67.3597 44.2308C67.3597 37.0513 64.9861 31.2179 60.2388 26.7308C55.8765 22.7564 50.5519 20.7692 44.2649 20.7692Z" fill="white"/>
<path d="M169.999 59.2308L191.554 62.6923C190.656 65 189.437 67.3077 187.897 69.6154C186.486 71.7949 184.241 74.5513 181.162 77.8846C178.082 81.0897 173.912 83.7179 168.652 85.7692C163.391 87.6923 157.361 88.6539 150.561 88.6539C137.474 88.6539 126.825 84.7436 118.613 76.9231C109.889 68.718 105.526 57.8846 105.526 44.4231C105.526 31.0897 109.76 20.1923 118.228 11.7308C126.183 3.91025 136.64 0 149.599 0C163.712 0 174.554 4.55128 182.124 13.6538C188.796 21.6026 192.132 32.5 192.132 46.3462V48.2692H129.776C129.776 53.9103 131.123 58.5897 133.817 62.3077C137.666 67.5641 143.248 70.1923 150.561 70.1923C159.286 70.1923 165.765 66.5385 169.999 59.2308ZM130.546 33.2692H169.999C169.101 27.8846 166.727 23.782 162.878 20.9615C159.157 18.0128 154.923 16.5385 150.176 16.5385C145.557 16.5385 141.323 18.0128 137.474 20.9615C133.753 23.9102 131.444 28.0128 130.546 33.2692Z" fill="white"/>
<path d="M210.311 2.6923H233.791V35L264.969 2.6923H294.222L256.501 39.8077L296.147 85.9615H266.123L237.255 51.5385L233.791 55V85.9615H210.311V2.6923Z" fill="white"/>
<path d="M385.141 2.6923V85.9615H361.661V22.6923H338.952V53.2692C338.952 64.0385 336.321 72.2436 331.061 77.8846C325.8 83.7821 318.295 86.7308 308.543 86.7308C305.977 86.7308 303.668 86.4744 301.615 85.9615V65.9615C303.155 66.2179 304.374 66.3462 305.272 66.3462C309.506 66.3462 312.713 65 314.895 62.3077C316.819 60 317.781 56.4744 317.781 51.7308V2.6923H385.141Z" fill="white"/>
<path d="M471.362 13.4615V2.6923H494.841V85.9615H471.362V75.1923C465.075 84.1667 456.542 88.6539 445.765 88.6539C433.191 88.6539 422.927 84.359 414.972 75.7692C407.145 67.1795 403.232 56.6667 403.232 44.2308C403.232 31.6667 407.081 21.1538 414.779 12.6923C422.478 4.23076 432.421 0 444.61 0C456.671 0 465.588 4.48718 471.362 13.4615ZM467.128 27.5C462.765 23.0128 457.248 20.7692 450.576 20.7692C443.904 20.7692 438.387 23.0128 434.025 27.5C429.663 31.9872 427.482 37.5641 427.482 44.2308C427.482 50.8974 429.663 56.5385 434.025 61.1538C438.387 65.641 443.904 67.8846 450.576 67.8846C457.248 67.8846 462.765 65.641 467.128 61.1538C471.49 56.5385 473.671 50.8974 473.671 44.2308C473.671 37.5641 471.49 31.9872 467.128 27.5Z" fill="white"/>
<path d="M508.373 85.9615L523.577 2.6923H540.898L563.801 50.5769L586.703 2.6923H604.024L619.228 85.9615H595.748L588.82 40.7692L568.035 85.9615H559.567L538.781 40.7692L531.853 85.9615H508.373Z" fill="white"/>
<path d="M696.52 13.4615V2.6923H720V85.9615H696.52V75.1923C690.233 84.1667 681.701 88.6539 670.924 88.6539C658.35 88.6539 648.086 84.359 640.131 75.7692C632.304 67.1795 628.391 56.6667 628.391 44.2308C628.391 31.6667 632.24 21.1538 639.938 12.6923C647.636 4.23076 657.58 0 669.769 0C681.83 0 690.747 4.48718 696.52 13.4615ZM692.286 27.5C687.924 23.0128 682.407 20.7692 675.735 20.7692C669.063 20.7692 663.546 23.0128 659.184 27.5C654.821 31.9872 652.64 37.5641 652.64 44.2308C652.64 50.8974 654.821 56.5385 659.184 61.1538C663.546 65.641 669.063 67.8846 675.735 67.8846C682.407 67.8846 687.924 65.641 692.286 61.1538C696.649 56.5385 698.83 50.8974 698.83 44.2308C698.83 37.5641 696.649 31.9872 692.286 27.5Z" fill="white"/>
</svg>
