<svg width="1025" height="900" viewBox="0 0 1025 900" fill="none" xmlns="http://www.w3.org/2000/svg">
<path d="M185.395 12.676V900H16.3973V150.845H-176V12.676H185.395Z" fill="#FBFBFB"/>
<path d="M1025 760.563V900H354.21V789.718L715.604 455.07C756.337 417.042 783.637 384.085 797.503 356.197C812.236 327.465 819.603 299.155 819.603 271.268C819.603 229.859 805.303 198.169 776.704 176.197C748.104 154.225 706.071 143.239 650.605 143.239C557.873 143.239 486.808 174.085 437.408 235.775L319.11 147.042C354.643 100.563 402.309 64.6479 462.108 39.2958C522.774 13.0986 590.373 0 664.905 0C763.704 0 842.569 22.8169 901.502 68.4507C960.434 114.084 989.901 176.197 989.901 254.789C989.901 302.958 979.501 348.169 958.701 390.423C937.901 432.676 898.035 480.845 839.103 534.93L596.006 760.563H1025Z" fill="#FBFBFB"/>
</svg>
