<svg width="614" height="702" viewBox="0 0 614 702" fill="none" xmlns="http://www.w3.org/2000/svg">
<g clip-path="url(#clip0_274_2804)">
<path d="M297.954 702C433.359 702 543.126 686.462 543.126 667.295C543.126 648.128 433.359 632.59 297.954 632.59C162.549 632.59 52.7812 648.128 52.7812 667.295C52.7812 686.462 162.549 702 297.954 702Z" fill="#EBEBEB"/>
<path d="M146.019 303.301L135.824 263.168L55.2511 283.728L44.3984 241.621L108.857 94.7402L140.757 86.6807L171.835 209.054L197.652 202.474L208.34 244.746L182.524 251.325L192.719 291.458L146.019 303.301ZM90.7691 229.614L130.727 219.416L117.572 167.44L90.7691 229.614Z" fill="#263238"/>
<path d="M376.889 169.085C376.889 182.408 374.916 194.58 370.805 205.929C366.694 217.113 361.267 226.818 354.197 235.042C347.126 243.266 338.74 249.516 329.203 254.121C319.665 258.727 309.142 260.865 297.96 260.865C286.614 260.865 276.255 258.562 266.553 254.121C256.851 249.516 248.465 243.266 241.394 235.042C234.324 226.818 228.897 217.113 224.951 205.929C221.004 194.744 219.031 182.408 219.031 169.085C219.031 155.762 221.004 143.591 224.951 132.242C228.897 121.057 234.324 111.353 241.394 103.129C248.465 94.9049 256.851 88.4902 266.553 83.8847C276.255 79.2793 286.778 76.9766 297.96 76.9766C309.306 76.9766 319.665 79.2793 329.203 83.8847C338.74 88.4902 347.126 94.9049 354.197 103.129C361.267 111.353 366.858 121.057 370.805 132.242C374.916 143.591 376.889 155.762 376.889 169.085ZM328.216 169.085C328.216 154.94 325.421 143.591 319.665 134.709C314.075 125.992 306.839 121.551 297.96 121.551C288.752 121.551 281.188 125.992 275.761 134.709C270.171 143.426 267.375 154.94 267.375 169.085C267.375 183.231 270.171 194.58 275.761 203.297C281.352 212.015 288.752 216.291 297.96 216.291C306.839 216.291 314.075 212.015 319.665 203.297C325.421 194.58 328.216 183.231 328.216 169.085Z" fill="#263238"/>
<path d="M463.71 295.57L470.287 254.614L388.234 241.291L395.141 198.527L512.712 89.4766L545.27 94.7399L525.044 219.251L551.354 223.528L544.448 266.621L518.138 262.345L511.561 303.3L463.71 295.57ZM442.333 205.928L482.949 212.507L491.499 159.709L442.333 205.928Z" fill="#263238"/>
<path d="M230.044 48.0277C226.591 48.0277 223.467 47.3698 220.671 46.0539C217.876 44.7381 215.409 42.9288 213.436 40.6261C211.463 38.3234 209.818 35.8562 208.832 32.8956C207.681 29.9349 207.188 27.1388 207.188 24.0136C207.188 20.8885 207.845 17.9279 208.996 14.9672C210.147 12.0066 211.792 9.53941 213.765 7.40118C215.903 5.26294 218.205 3.45366 221.164 2.13782C223.96 0.821982 227.084 0.164062 230.373 0.164062C233.826 0.164062 236.95 0.821982 239.746 2.3023C242.541 3.61814 245.008 5.5919 246.981 7.73014C248.954 10.0329 250.598 12.5001 251.585 15.4607C252.736 18.4213 253.229 21.2175 253.229 24.1781C253.229 27.3032 252.572 30.2639 251.421 33.2245C250.269 36.0207 248.625 38.6523 246.652 40.7906C244.679 42.9288 242.212 44.7381 239.417 46.0539C236.293 47.3698 233.333 48.0277 230.044 48.0277ZM216.231 24.0136C216.231 25.9874 216.56 27.9612 217.218 29.9349C217.876 31.9087 218.698 33.5535 219.849 35.0338C221 36.5141 222.48 37.6655 224.124 38.4879C225.769 39.3103 227.742 39.8037 229.88 39.8037C232.017 39.8037 233.99 39.3103 235.799 38.4879C237.444 37.501 238.923 36.3496 240.074 34.8693C241.226 33.389 242.212 31.7442 242.705 29.7704C243.363 27.9612 243.528 25.9874 243.528 24.0136C243.528 22.0399 243.199 20.0661 242.541 18.0924C241.883 16.1186 241.061 14.4738 239.746 12.9935C238.595 11.5132 237.115 10.3618 235.47 9.53941C233.826 8.71702 231.853 8.22358 229.715 8.22358C227.577 8.22358 225.604 8.71702 223.795 9.53941C221.987 10.5263 220.671 11.6777 219.52 13.158C218.369 14.6383 217.547 16.2831 216.889 18.2568C216.56 20.2306 216.231 22.0399 216.231 24.0136Z" fill="#263238"/>
<path d="M275.26 48.3574C272.465 48.3574 269.834 47.864 267.696 46.8771C265.394 45.8902 263.585 44.5744 261.941 42.9296C260.297 41.2848 259.145 39.311 258.323 37.1728C257.501 35.0346 257.008 32.7319 257.008 30.2647C257.008 27.7975 257.501 25.4947 258.323 23.3565C259.145 21.2183 260.297 19.2445 261.941 17.5997C263.585 15.9549 265.394 14.6391 267.696 13.6522C269.998 12.6653 272.465 12.1719 275.26 12.1719C278.055 12.1719 280.686 12.6653 282.824 13.6522C285.126 14.6391 286.935 15.9549 288.579 17.5997C290.224 19.2445 291.375 21.2183 292.197 23.3565C293.019 25.4947 293.512 27.7975 293.512 30.2647C293.512 32.7319 293.019 34.8701 292.197 37.1728C291.375 39.311 290.224 41.2848 288.579 42.9296C287.099 44.5744 285.126 45.8902 282.824 46.8771C280.686 47.864 278.055 48.3574 275.26 48.3574ZM266.216 30.2647C266.216 31.745 266.381 33.2253 266.874 34.5411C267.367 35.857 268.025 36.8438 268.847 37.8307C269.669 38.8176 270.656 39.4755 271.807 39.969C272.958 40.4624 274.109 40.7914 275.425 40.7914C276.74 40.7914 277.891 40.4624 279.042 39.969C280.193 39.4755 281.18 38.8176 282.002 37.8307C282.824 36.8438 283.482 35.857 283.975 34.5411C284.468 33.2253 284.633 31.9095 284.633 30.2647C284.633 28.7843 284.468 27.304 283.975 26.1527C283.482 24.8368 282.824 23.6855 282.002 22.8631C281.18 21.8762 280.193 21.2183 279.042 20.7248C277.891 20.2314 276.74 19.9024 275.425 19.9024C274.109 19.9024 272.958 20.2314 271.807 20.7248C270.656 21.2183 269.669 22.0407 268.847 22.8631C268.025 23.8499 267.367 24.8368 266.874 26.1527C266.381 27.4685 266.216 28.7843 266.216 30.2647Z" fill="#263238"/>
<path d="M320.321 48.3574C317.525 48.3574 315.223 47.6995 313.086 46.5482C311.112 45.3968 309.468 43.752 308.317 41.6138V61.8448H299.438V12.8298H307.166V18.7511C308.481 16.7773 310.126 15.1325 312.099 13.9812C314.072 12.8298 316.539 12.1719 319.17 12.1719C321.472 12.1719 323.609 12.6653 325.747 13.6522C327.72 14.6391 329.529 15.9549 330.845 17.4352C332.325 19.08 333.476 20.8893 334.298 23.192C335.12 25.3303 335.449 27.633 335.449 30.1002C335.449 32.5674 335.12 35.0346 334.298 37.1728C333.476 39.3111 332.489 41.2848 331.173 42.9296C329.858 44.5744 328.214 45.8902 326.405 46.7126C324.596 47.864 322.458 48.3574 320.321 48.3574ZM317.361 40.7914C318.676 40.7914 319.992 40.4624 320.978 39.969C322.13 39.4755 323.116 38.6531 323.938 37.6663C324.761 36.6794 325.418 35.528 325.747 34.2122C326.24 32.8963 326.405 31.5805 326.405 30.2647C326.405 28.7843 326.24 27.4685 325.747 26.1527C325.254 24.8368 324.596 23.8499 323.774 22.8631C322.952 21.8762 321.965 21.2183 320.65 20.7248C319.499 20.2314 318.183 19.9024 316.868 19.9024C316.045 19.9024 315.223 20.0669 314.237 20.3959C313.414 20.7248 312.592 21.0538 311.77 21.5472C310.948 22.0407 310.29 22.6986 309.797 23.3565C309.139 24.0144 308.81 24.8368 308.481 25.6592V33.8832C309.304 35.857 310.455 37.5018 312.099 38.8176C313.579 40.1335 315.388 40.7914 317.361 40.7914Z" fill="#263238"/>
<path d="M354.684 48.357C351.724 48.357 348.929 47.8636 346.134 47.0412C343.338 46.0543 340.872 44.7385 338.898 43.0937L342.187 37.5014C344.325 38.9817 346.462 40.133 348.436 40.9554C350.409 41.7778 352.382 42.1068 354.52 42.1068C356.329 42.1068 357.644 41.7778 358.631 41.1199C359.617 40.462 360.111 39.4751 360.111 38.3238C360.111 37.0079 359.453 36.1855 358.302 35.5276C357.151 34.8697 355.177 34.2118 352.382 33.5538C350.08 32.8959 348.271 32.4025 346.627 31.7446C344.983 31.2511 343.667 30.5932 342.845 29.7708C341.858 29.1129 341.201 28.126 340.707 27.3036C340.214 26.3167 340.049 25.1654 340.049 23.8495C340.049 22.0402 340.378 20.5599 341.036 19.0796C341.694 17.5993 342.68 16.4479 343.996 15.4611C345.311 14.4742 346.627 13.6518 348.271 13.1583C349.916 12.6649 351.724 12.3359 353.698 12.3359C356.329 12.3359 358.795 12.6649 361.097 13.4873C363.399 14.3097 365.537 15.4611 367.346 17.1059L363.728 22.5337C361.919 21.2178 360.275 20.231 358.631 19.5731C356.986 18.9151 355.342 18.5862 353.698 18.5862C352.218 18.5862 350.902 18.9151 349.916 19.5731C348.929 20.231 348.436 21.2178 348.436 22.5337C348.436 23.1916 348.6 23.685 348.765 24.014C348.929 24.343 349.422 24.8364 349.916 25.0009C350.409 25.3298 351.067 25.6588 352.053 25.8233C352.875 26.1522 354.026 26.4812 355.342 26.6457C357.808 27.3036 359.782 27.9615 361.426 28.455C363.07 29.1129 364.55 29.7708 365.537 30.5932C366.688 31.4156 367.346 32.238 368.003 33.3894C368.497 34.3762 368.826 35.6921 368.826 37.1724C368.826 40.6265 367.51 43.2582 365.044 45.2319C362.413 47.3701 359.124 48.357 354.684 48.357Z" fill="#263238"/>
<path d="M376.227 29.9353V0H385.106V29.9353H376.227ZM376.227 47.6992V37.6659H385.106V47.6992H376.227Z" fill="#263238"/>
<path d="M331.828 445.083H273.453V449.853H331.828V445.083Z" fill="#37474F"/>
<path d="M331.827 451.169H273.453V455.939H331.827V451.169Z" fill="#37474F"/>
<path d="M331.827 457.419H273.453V462.189H331.827V457.419Z" fill="#37474F"/>
<path d="M331.827 463.669H273.453V468.439H331.827V463.669Z" fill="#37474F"/>
<path d="M331.827 469.92H273.453V474.69H331.827V469.92Z" fill="#37474F"/>
<path d="M356.986 594.266H245.992V599.036H356.986V594.266Z" fill="#37474F"/>
<path d="M356.986 600.516H245.992V605.286H356.986V600.516Z" fill="#37474F"/>
<path d="M356.986 606.766H245.992V611.536H356.986V606.766Z" fill="#37474F"/>
<path d="M356.986 613.017H245.992V617.787H356.986V613.017Z" fill="#37474F"/>
<path d="M356.986 619.267H245.992V624.036H356.986V619.267Z" fill="#37474F"/>
<path d="M197.321 405.443C197.321 404.785 172.984 396.561 172.984 396.561L174.464 312.841L206.694 305.933L197.321 405.443Z" fill="#D82D42"/>
<path opacity="0.2" d="M197.321 405.443C197.321 404.785 172.984 396.561 172.984 396.561L174.464 312.841L206.694 305.933L197.321 405.443Z" fill="black"/>
<path d="M420.461 438.339C420.625 437.681 446.277 438.503 446.277 438.503L473.738 359.388L445.784 341.789L420.461 438.339Z" fill="#D82D42"/>
<path opacity="0.2" d="M420.461 438.339C420.625 437.681 446.277 438.503 446.277 438.503L473.738 359.388L445.784 341.789L420.461 438.339Z" fill="black"/>
<path d="M192.719 436.201C192.719 436.201 201.763 300.834 209.656 256.26C209.656 256.26 373.104 268.596 461.405 302.314C461.405 302.314 415.857 460.379 413.555 468.274C413.555 468.439 298.286 445.741 192.719 436.201Z" fill="#D82D42"/>
<path opacity="0.1" d="M338.564 274.517C335.933 290.8 333.137 307.084 330.506 323.367L322.12 372.218L321.627 371.56L376.384 384.554L403.68 391.133L430.976 397.877L403.515 391.791L376.055 385.541L321.298 372.711L320.805 372.547L320.969 372.053L329.684 323.367C332.48 306.919 335.439 290.636 338.564 274.517Z" fill="black"/>
<path opacity="0.1" d="M332.483 283.728C332.483 285.208 331.332 286.688 329.688 286.853C328.866 286.853 327.879 286.688 327.221 286.03C326.564 285.372 326.07 284.55 326.07 283.563C326.07 282.576 326.399 281.754 327.221 281.096C327.879 280.438 328.866 280.273 329.688 280.273C331.332 280.767 332.648 282.247 332.483 283.728ZM332.483 283.728C332.483 282.905 332.154 282.247 331.661 281.754C331.168 281.26 330.346 281.096 329.688 281.096C328.372 281.26 327.386 282.412 327.386 283.728C327.386 284.879 328.208 286.195 329.688 286.359C330.346 286.359 331.168 286.195 331.661 285.701C332.154 285.208 332.483 284.55 332.483 283.728Z" fill="black"/>
<path opacity="0.1" d="M329.686 303.959C329.686 305.439 328.535 306.92 326.891 307.084C326.069 307.084 325.082 306.92 324.424 306.262C323.767 305.604 323.273 304.781 323.273 303.794C323.273 302.808 323.602 301.985 324.424 301.327C325.082 300.669 326.069 300.505 326.891 300.505C328.535 300.834 329.686 302.314 329.686 303.959ZM329.686 303.959C329.686 303.137 329.358 302.479 328.864 301.985C328.371 301.492 327.549 301.327 326.891 301.327C325.576 301.492 324.589 302.643 324.589 303.959C324.589 305.11 325.411 306.426 326.891 306.591C327.549 306.591 328.371 306.426 328.864 305.933C329.358 305.439 329.686 304.617 329.686 303.959Z" fill="black"/>
<path opacity="0.1" d="M326.069 325.177C326.069 326.657 324.918 328.137 323.274 328.302C322.452 328.302 321.465 328.137 320.807 327.479C320.15 326.822 319.656 325.999 319.656 325.012C319.656 324.025 319.985 323.203 320.807 322.545C321.465 321.887 322.452 321.723 323.274 321.723C324.918 322.216 326.234 323.696 326.069 325.177ZM326.069 325.177C326.069 324.354 325.74 323.696 325.247 323.203C324.754 322.71 323.932 322.545 323.274 322.545C321.958 322.71 320.972 323.861 320.972 325.177C320.972 326.328 321.794 327.644 323.274 327.808C323.932 327.808 324.754 327.644 325.247 327.15C325.74 326.657 326.069 325.999 326.069 325.177Z" fill="black"/>
<path opacity="0.1" d="M322.616 346.395C322.616 347.875 321.465 349.355 319.821 349.52C318.999 349.52 318.012 349.355 317.354 348.697C316.696 348.039 316.203 347.217 316.203 346.23C316.203 345.243 316.532 344.421 317.354 343.763C318.012 343.105 318.999 342.94 319.821 342.94C321.465 343.434 322.616 344.914 322.616 346.395ZM322.616 346.395C322.616 345.572 322.287 344.914 321.794 344.421C321.301 343.927 320.478 343.763 319.821 343.763C318.505 343.927 317.519 345.079 317.519 346.395C317.519 347.546 318.341 348.862 319.821 349.026C320.478 349.026 321.301 348.862 321.794 348.368C322.287 347.875 322.616 347.217 322.616 346.395Z" fill="black"/>
<path opacity="0.1" d="M334.624 380.441C334.624 381.922 333.473 383.402 331.829 383.566C331.006 383.566 330.02 383.402 329.362 382.744C328.704 382.086 328.211 381.264 328.211 380.277C328.211 379.29 328.54 378.468 329.362 377.81C330.02 377.152 331.006 376.987 331.829 376.987C333.473 377.316 334.624 378.961 334.624 380.441ZM334.624 380.441C334.624 379.619 334.295 378.961 333.802 378.468C333.308 377.974 332.486 377.81 331.829 377.81C330.513 377.974 329.526 379.126 329.526 380.441C329.526 381.593 330.349 382.909 331.829 383.073C332.486 383.073 333.308 382.909 333.802 382.415C334.295 381.922 334.624 381.099 334.624 380.441Z" fill="black"/>
<path opacity="0.1" d="M354.679 385.212C354.679 386.692 353.528 388.173 351.883 388.337C351.061 388.337 350.074 388.173 349.417 387.515C348.759 386.857 348.266 386.034 348.266 385.047C348.266 384.061 348.594 383.238 349.417 382.58C350.074 381.922 351.061 381.758 351.883 381.758C353.528 382.251 354.843 383.732 354.679 385.212ZM354.679 385.212C354.679 384.389 354.35 383.732 353.856 383.238C353.363 382.745 352.541 382.58 351.883 382.58C350.568 382.745 349.581 383.896 349.581 385.212C349.581 386.363 350.403 387.679 351.883 387.844C352.541 387.844 353.363 387.679 353.856 387.186C354.35 386.857 354.679 386.034 354.679 385.212Z" fill="black"/>
<path opacity="0.1" d="M374.905 390.145C374.905 391.626 373.754 393.106 372.11 393.271C371.288 393.271 370.301 393.106 369.643 392.448C368.985 391.79 368.492 390.968 368.492 389.981C368.492 388.994 368.821 388.172 369.643 387.514C370.301 386.856 371.288 386.691 372.11 386.691C373.59 387.185 374.905 388.665 374.905 390.145ZM374.905 390.145C374.905 389.323 374.576 388.665 374.083 388.172C373.59 387.678 372.767 387.514 372.11 387.514C370.794 387.678 369.808 388.83 369.808 390.145C369.808 391.297 370.63 392.613 372.11 392.777C372.767 392.777 373.59 392.613 374.083 392.119C374.412 391.626 374.741 390.968 374.905 390.145Z" fill="black"/>
<path opacity="0.1" d="M394.968 395.08C394.968 396.56 393.817 398.041 392.172 398.205C391.35 398.205 390.363 398.041 389.706 397.383C389.048 396.725 388.555 395.902 388.555 394.916C388.555 393.929 388.884 393.106 389.706 392.448C390.363 391.79 391.35 391.626 392.172 391.626C393.817 392.119 394.968 393.6 394.968 395.08ZM394.968 395.08C394.968 394.258 394.639 393.6 394.145 393.106C393.652 392.613 392.83 392.448 392.172 392.448C390.857 392.613 389.87 393.764 389.87 395.08C389.87 396.231 390.692 397.547 392.172 397.712C392.83 397.712 393.652 397.547 394.145 397.054C394.639 396.56 394.968 395.902 394.968 395.08Z" fill="black"/>
<path opacity="0.1" d="M415.033 400.18C414.868 401.66 413.717 403.14 411.908 403.14C411.086 403.14 410.264 402.811 409.606 402.153C408.949 401.496 408.62 400.509 408.784 399.686C408.784 398.699 409.277 397.877 410.1 397.384C410.757 396.89 411.744 396.726 412.566 396.726C414.046 397.055 415.197 398.699 415.033 400.18ZM415.033 400.18C415.033 399.357 414.868 398.699 414.21 398.206C413.717 397.712 412.895 397.384 412.237 397.384C410.922 397.384 409.935 398.535 409.771 399.686C409.606 400.838 410.428 402.153 411.744 402.482C412.402 402.647 413.224 402.482 413.717 401.989C414.539 401.66 414.868 401.002 415.033 400.18Z" fill="black"/>
<path opacity="0.1" d="M318.999 367.776C318.999 369.257 317.848 370.737 316.204 370.901C315.381 370.901 314.395 370.737 313.737 370.079C313.079 369.421 312.586 368.599 312.586 367.612C312.586 366.625 312.915 365.803 313.737 365.145C314.395 364.487 315.381 364.322 316.204 364.322C317.848 364.651 319.163 366.296 318.999 367.776ZM318.999 367.776C318.999 366.954 318.67 366.296 318.177 365.803C317.683 365.309 316.861 365.145 316.204 365.145C314.888 365.309 313.901 366.461 313.901 367.776C313.901 368.928 314.724 370.244 316.204 370.408C316.861 370.408 317.683 370.244 318.177 369.75C318.67 369.257 318.999 368.434 318.999 367.776Z" fill="black"/>
<path opacity="0.2" d="M285.199 402.948C304.242 385.82 305.8 356.494 288.677 337.445C271.554 318.397 242.236 316.839 223.192 333.967C204.149 351.094 202.592 380.42 219.714 399.469C236.837 418.518 266.156 420.075 285.199 402.948Z" fill="black"/>
<path d="M288.937 381.632C296.203 362.432 286.533 340.976 267.339 333.709C248.144 326.441 226.694 336.114 219.429 355.313C212.163 374.513 221.833 395.969 241.028 403.236C260.222 410.504 281.672 400.831 288.937 381.632Z" fill="#263238"/>
<path d="M252.077 354.722L243.312 353.302L241.893 362.069L250.658 363.489L252.077 354.722Z" fill="#D82D42"/>
<path d="M244.827 344.698L236.062 343.277L234.643 352.045L243.408 353.465L244.827 344.698Z" fill="#D82D42"/>
<path d="M279.531 350.271L270.766 348.851L269.346 357.618L278.111 359.038L279.531 350.271Z" fill="#D82D42"/>
<path d="M239.093 379.215L230.328 377.795L228.908 386.562L237.673 387.982L239.093 379.215Z" fill="#D82D42"/>
<path d="M273.929 384.977L265.164 383.557L263.744 392.324L272.509 393.744L273.929 384.977Z" fill="#D82D42"/>
<path d="M249.273 371.991L240.508 370.57L239.088 379.338L247.853 380.758L249.273 371.991Z" fill="#D82D42"/>
<path d="M259.312 364.742L250.547 363.322L249.127 372.09L257.892 373.51L259.312 364.742Z" fill="#D82D42"/>
<path d="M269.484 357.684L260.719 356.264L259.299 365.031L268.064 366.451L269.484 357.684Z" fill="#D82D42"/>
<path d="M266.718 374.786L257.953 373.366L256.533 382.134L265.298 383.554L266.718 374.786Z" fill="#D82D42"/>
<path d="M414.649 417.216C430.88 397.401 427.98 368.177 408.171 351.941C388.361 335.705 359.145 338.606 342.913 358.42C326.682 378.235 329.582 407.46 349.391 423.696C369.2 439.932 398.417 437.03 414.649 417.216Z" fill="#D82D42"/>
<path opacity="0.2" d="M414.649 417.216C430.88 397.401 427.98 368.177 408.171 351.941C388.361 335.705 359.145 338.606 342.913 358.42C326.682 378.235 329.582 407.46 349.391 423.696C369.2 439.932 398.417 437.03 414.649 417.216Z" fill="black"/>
<path opacity="0.2" d="M423.909 398.7C423.745 399.686 423.416 400.509 423.252 401.331L332.812 382.087C332.977 380.442 333.306 378.798 333.635 377.153C339.554 352.152 364.548 336.855 389.543 342.776C414.537 348.698 429.829 373.699 423.909 398.7Z" fill="black"/>
<path d="M393.145 422.136C412.083 414.222 421.021 392.45 413.108 373.507C405.196 354.564 383.43 345.624 364.493 353.538C345.555 361.452 336.617 383.224 344.529 402.167C352.441 421.11 374.207 430.05 393.145 422.136Z" fill="#263238"/>
<path d="M388.256 367.594L379.617 365.54L369.467 408.266L378.105 410.32L388.256 367.594Z" fill="#D82D42"/>
<path d="M426.707 397.713L331.664 375.179C337.913 348.862 364.222 332.743 390.532 338.993C416.677 345.244 432.956 371.56 426.707 397.713Z" fill="#D82D42"/>
<path opacity="0.2" d="M426.707 397.713L331.664 375.179C337.913 348.862 364.222 332.743 390.532 338.993C416.677 345.244 432.956 371.56 426.707 397.713Z" fill="black"/>
<path opacity="0.1" d="M297.953 415.476C298.118 411.693 299.597 408.075 302.228 404.95C303.544 403.469 305.353 402.318 307.326 401.496C309.299 400.838 311.437 400.673 313.41 400.838C315.383 401.002 317.521 401.825 319.165 403.14C320.81 404.456 322.125 406.101 322.947 408.075C324.427 411.693 324.592 415.641 323.934 419.259C323.276 415.641 322.454 412.022 320.645 409.226C319.001 406.265 316.205 404.456 313.081 404.127C309.792 403.798 306.668 404.621 304.037 406.759C301.571 409.062 299.597 412.187 297.953 415.476Z" fill="black"/>
<path d="M205.375 320.736C205.704 315.801 206.362 310.867 206.855 305.932C207.348 300.998 208.006 296.064 208.499 291.129C208.993 286.195 209.65 281.26 210.308 276.326C210.966 271.392 211.624 266.457 212.281 261.523L212.446 260.207L213.761 260.372C224.449 261.029 235.138 261.852 245.826 263.003C251.088 263.497 256.514 264.155 261.776 264.812C267.038 265.635 272.464 266.293 277.726 267.28L245.662 265.306L213.597 263.168L215.077 262.016C214.419 266.951 213.597 271.885 212.939 276.82C212.117 281.754 211.459 286.688 210.637 291.458C209.815 296.393 208.993 301.327 208.17 306.097C207.184 311.031 206.362 315.966 205.375 320.736Z" fill="white"/>
<path d="M213.102 358.401C214.253 352.48 216.884 346.723 220.501 341.789C221.488 340.473 222.474 339.321 223.461 338.17C224.612 337.019 225.599 336.032 226.75 334.881C227.901 333.894 229.216 332.907 230.367 331.92C231.683 331.097 232.998 330.275 234.314 329.453C235.794 328.795 237.109 328.137 238.589 327.479L243.029 325.999L247.633 325.012C249.113 324.847 250.757 324.683 252.237 324.683C258.486 324.518 264.57 325.834 270.16 328.137C264.241 326.985 258.321 326.328 252.402 326.985C246.646 327.479 240.891 329.288 235.794 332.084C230.696 334.881 226.092 338.664 222.31 343.105C218.528 347.71 215.239 352.644 213.102 358.401Z" fill="white"/>
<path d="M341.195 370.902C343.004 365.145 346.622 359.882 350.897 355.441C351.884 354.289 353.199 353.303 354.35 352.316C355.501 351.329 356.817 350.506 358.132 349.519C359.448 348.697 360.763 347.875 362.079 347.217C363.558 346.559 364.874 345.901 366.354 345.243C367.834 344.75 369.314 344.256 370.794 343.763L375.398 342.94L380.002 342.611C381.482 342.611 383.126 342.776 384.606 342.94C390.69 343.598 396.61 345.736 401.872 348.862C396.117 346.888 390.361 345.572 384.442 345.243C378.522 344.914 372.767 345.901 367.34 348.039C361.914 350.013 356.817 353.303 352.541 357.25C347.937 361.033 344.155 365.639 341.195 370.902Z" fill="white"/>
<path d="M197.82 519.757C185.981 519.757 159.835 517.125 143.063 495.578C121.687 467.945 129.415 415.147 129.744 412.845L139.117 414.325C139.117 414.818 131.717 465.478 150.627 489.821C169.208 513.671 202.753 510.217 203.082 510.217L204.068 519.592C203.74 519.428 201.438 519.757 197.82 519.757Z" fill="#D82D42"/>
<path opacity="0.4" d="M197.82 519.757C185.981 519.757 159.835 517.125 143.063 495.578C121.687 467.945 129.415 415.147 129.744 412.845L139.117 414.325C139.117 414.818 131.717 465.478 150.627 489.821C169.208 513.671 202.753 510.217 203.082 510.217L204.068 519.592C203.74 519.428 201.438 519.757 197.82 519.757Z" fill="white"/>
<path d="M141.909 420.576C140.265 420.576 138.456 420.411 136.647 420.082C121.026 417.615 113.955 408.075 110.996 400.673C107.871 393.272 107.214 384.226 108.858 373.863L128.755 377.153C127.768 383.568 128.097 389.16 129.577 392.943C130.728 395.739 132.865 399.029 139.936 400.016C143.06 400.509 146.514 400.18 150.131 394.752C152.926 390.476 154.571 384.883 155.229 381.265L175.125 384.554C174.632 387.351 172.659 397.384 166.903 405.937C160.655 415.641 151.94 420.576 141.909 420.576Z" fill="#D82D42"/>
<path d="M217.549 546.567C217.549 546.074 200.612 543.442 200.612 543.442L192.391 488.506L212.781 480.446L217.549 546.567Z" fill="#D82D42"/>
<path opacity="0.2" d="M217.549 546.567C217.549 546.074 200.612 543.442 200.612 543.442L192.391 488.506L212.781 480.446L217.549 546.567Z" fill="black"/>
<path d="M383.961 546.731C383.961 546.238 400.898 543.935 400.898 543.935L410.271 489.163L390.045 480.61L383.961 546.731Z" fill="#D82D42"/>
<path opacity="0.2" d="M383.961 546.731C383.961 546.238 400.898 543.935 400.898 543.935L410.271 489.163L390.045 480.61L383.961 546.731Z" fill="black"/>
<path d="M210.478 468.275C210.478 468.275 346.63 462.518 392.672 470.084C392.672 470.084 379.189 601.833 378.366 604.464C378.366 604.464 242.872 604.135 221.824 604.464C221.824 604.3 210.314 516.797 210.478 468.275Z" fill="#D82D42"/>
<path opacity="0.2" d="M251.914 504.295C251.914 504.295 326.239 501.335 351.397 505.282C351.397 505.282 343.998 571.732 343.669 573.048C343.669 573.048 269.673 572.883 258.163 573.048C257.998 573.048 252.901 527.487 251.914 504.295Z" fill="black"/>
<path opacity="0.2" d="M261.945 572.883C260.301 572.883 258.821 572.883 257.999 572.883C257.999 572.883 252.901 527.323 251.75 504.295C251.75 504.295 253.394 504.295 256.354 504.131L261.945 572.883Z" fill="black"/>
<path d="M283.981 520.743C279.87 519.428 275.43 521.73 274.115 525.842C272.799 529.954 275.102 534.395 279.212 535.711C283.323 537.027 287.763 534.724 289.079 530.612C290.394 526.5 288.092 522.059 283.981 520.743ZM288.256 530.283C287.105 533.902 283.159 536.04 279.541 534.889C275.924 533.737 273.786 529.79 274.937 526.171C276.088 522.553 280.035 520.414 283.652 521.566C287.27 522.717 289.407 526.665 288.256 530.283ZM283.981 520.743C279.87 519.428 275.43 521.73 274.115 525.842C272.799 529.954 275.102 534.395 279.212 535.711C283.323 537.027 287.763 534.724 289.079 530.612C290.394 526.5 288.092 522.059 283.981 520.743ZM288.256 530.283C287.105 533.902 283.159 536.04 279.541 534.889C275.924 533.737 273.786 529.79 274.937 526.171C276.088 522.553 280.035 520.414 283.652 521.566C287.27 522.717 289.407 526.665 288.256 530.283ZM283.981 520.743C279.87 519.428 275.43 521.73 274.115 525.842C272.799 529.954 275.102 534.395 279.212 535.711C283.323 537.027 287.763 534.724 289.079 530.612C290.394 526.5 288.092 522.059 283.981 520.743ZM288.256 530.283C287.105 533.902 283.159 536.04 279.541 534.889C275.924 533.737 273.786 529.79 274.937 526.171C276.088 522.553 280.035 520.414 283.652 521.566C287.27 522.717 289.407 526.665 288.256 530.283ZM286.612 512.355C277.897 509.559 268.524 514.493 265.729 523.211C262.933 531.928 267.866 541.303 276.581 544.1C285.297 546.896 294.669 541.961 297.465 533.244C300.26 524.526 295.327 515.151 286.612 512.355ZM290.23 530.941C288.75 535.711 283.652 538.507 278.719 536.862C273.951 535.382 271.32 530.283 272.799 525.349C274.279 520.579 279.377 517.947 284.31 519.428C289.079 521.072 291.709 526.171 290.23 530.941ZM289.079 530.612C290.394 526.5 288.092 522.059 283.981 520.743C279.87 519.428 275.43 521.73 274.115 525.842C272.799 529.954 275.102 534.395 279.212 535.711C283.323 537.027 287.763 534.724 289.079 530.612ZM288.256 530.283C287.105 533.902 283.159 536.04 279.541 534.889C275.924 533.737 273.786 529.79 274.937 526.171C276.088 522.553 280.035 520.414 283.652 521.566C287.27 522.717 289.407 526.665 288.256 530.283ZM283.981 520.743C279.87 519.428 275.43 521.73 274.115 525.842C272.799 529.954 275.102 534.395 279.212 535.711C283.323 537.027 287.763 534.724 289.079 530.612C290.394 526.5 288.092 522.059 283.981 520.743ZM288.256 530.283C287.105 533.902 283.159 536.04 279.541 534.889C275.924 533.737 273.786 529.79 274.937 526.171C276.088 522.553 280.035 520.414 283.652 521.566C287.27 522.717 289.407 526.665 288.256 530.283ZM283.981 520.743C279.87 519.428 275.43 521.73 274.115 525.842C272.799 529.954 275.102 534.395 279.212 535.711C283.323 537.027 287.763 534.724 289.079 530.612C290.394 526.5 288.092 522.059 283.981 520.743ZM288.256 530.283C287.105 533.902 283.159 536.04 279.541 534.889C275.924 533.737 273.786 529.79 274.937 526.171C276.088 522.553 280.035 520.414 283.652 521.566C287.27 522.717 289.407 526.665 288.256 530.283Z" fill="#D82D42"/>
<path d="M279.868 544.429L273.784 542.455L272.633 546.896L278.059 548.705L279.868 544.429Z" fill="#D82D42"/>
<path d="M268.852 538.671L265.892 533.079L261.945 535.382L264.576 540.481L268.852 538.671Z" fill="#D82D42"/>
<path d="M265.072 526.829L267.045 520.744L262.605 519.757L260.961 525.185L265.072 526.829Z" fill="#D82D42"/>
<path d="M270.824 515.974L276.58 513.013L274.113 509.065L269.016 511.697L270.824 515.974Z" fill="#D82D42"/>
<path d="M282.664 512.191L288.748 514.164L289.735 509.723L284.308 507.914L282.664 512.191Z" fill="#D82D42"/>
<path d="M293.68 517.947L296.639 523.539L300.422 521.237L297.791 516.138L293.68 517.947Z" fill="#D82D42"/>
<path d="M297.301 529.79L295.492 535.876L299.932 536.863L301.576 531.435L297.301 529.79Z" fill="#D82D42"/>
<path d="M291.544 540.646L285.953 543.606L288.42 547.554L293.353 544.922L291.544 540.646Z" fill="#D82D42"/>
<path d="M310.784 543.935C308.317 542.29 305.028 542.948 303.384 545.416C301.74 547.883 302.398 551.172 304.864 552.817C307.331 554.462 310.619 553.804 312.264 551.337C313.908 548.87 313.25 545.58 310.784 543.935ZM311.77 551.008C310.29 553.146 307.495 553.804 305.357 552.324C303.22 550.843 302.562 548.047 304.042 545.909C305.522 543.771 308.317 543.113 310.455 544.593C312.593 545.909 313.25 548.87 311.77 551.008ZM310.784 543.935C308.317 542.29 305.028 542.948 303.384 545.416C301.74 547.883 302.398 551.172 304.864 552.817C307.331 554.462 310.619 553.804 312.264 551.337C313.908 548.87 313.25 545.58 310.784 543.935ZM311.77 551.008C310.29 553.146 307.495 553.804 305.357 552.324C303.22 550.843 302.562 548.047 304.042 545.909C305.522 543.771 308.317 543.113 310.455 544.593C312.593 545.909 313.25 548.87 311.77 551.008ZM310.784 543.935C308.317 542.29 305.028 542.948 303.384 545.416C301.74 547.883 302.398 551.172 304.864 552.817C307.331 554.462 310.619 553.804 312.264 551.337C313.908 548.87 313.25 545.58 310.784 543.935ZM311.77 551.008C310.29 553.146 307.495 553.804 305.357 552.324C303.22 550.843 302.562 548.047 304.042 545.909C305.522 543.771 308.317 543.113 310.455 544.593C312.593 545.909 313.25 548.87 311.77 551.008ZM314.072 539.001C308.81 535.547 301.904 537.027 298.616 542.29C295.162 547.554 296.642 554.462 301.904 557.752C307.166 561.206 314.072 559.725 317.361 554.462C320.65 549.363 319.17 542.455 314.072 539.001ZM313.086 551.83C311.277 554.626 307.495 555.449 304.535 553.64C301.74 551.83 300.918 548.047 302.726 545.087C304.535 542.29 308.317 541.468 311.277 543.277C314.072 545.087 314.895 548.87 313.086 551.83ZM312.428 551.337C314.072 548.87 313.415 545.58 310.948 543.935C308.482 542.29 305.193 542.948 303.549 545.416C301.904 547.883 302.562 551.172 305.028 552.817C307.495 554.462 310.784 553.804 312.428 551.337ZM311.77 551.008C310.29 553.146 307.495 553.804 305.357 552.324C303.22 550.843 302.562 548.047 304.042 545.909C305.522 543.771 308.317 543.113 310.455 544.593C312.593 545.909 313.25 548.87 311.77 551.008ZM310.784 543.935C308.317 542.29 305.028 542.948 303.384 545.416C301.74 547.883 302.398 551.172 304.864 552.817C307.331 554.462 310.619 553.804 312.264 551.337C313.908 548.87 313.25 545.58 310.784 543.935ZM311.77 551.008C310.29 553.146 307.495 553.804 305.357 552.324C303.22 550.843 302.562 548.047 304.042 545.909C305.522 543.771 308.317 543.113 310.455 544.593C312.593 545.909 313.25 548.87 311.77 551.008ZM310.784 543.935C308.317 542.29 305.028 542.948 303.384 545.416C301.74 547.883 302.398 551.172 304.864 552.817C307.331 554.462 310.619 553.804 312.264 551.337C313.908 548.87 313.25 545.58 310.784 543.935ZM311.77 551.008C310.29 553.146 307.495 553.804 305.357 552.324C303.22 550.843 302.562 548.047 304.042 545.909C305.522 543.771 308.317 543.113 310.455 544.593C312.593 545.909 313.25 548.87 311.77 551.008Z" fill="#DBDBDB"/>
<path d="M303.871 558.574L300.253 556.271L298.773 558.903L301.898 561.041L303.871 558.574Z" fill="#DBDBDB"/>
<path d="M297.79 552.982L296.804 548.705L293.844 549.527L294.666 553.311L297.79 552.982Z" fill="#DBDBDB"/>
<path d="M297.459 544.593L299.761 540.974L297.13 539.494L294.992 542.784L297.459 544.593Z" fill="#DBDBDB"/>
<path d="M303.22 538.508L307.331 537.521L306.509 534.725L302.727 535.383L303.22 538.508Z" fill="#DBDBDB"/>
<path d="M311.438 538.179L315.055 540.646L316.535 537.85L313.411 535.712L311.438 538.179Z" fill="#DBDBDB"/>
<path d="M317.523 543.936L318.51 548.212L321.47 547.225L320.648 543.442L317.523 543.936Z" fill="#DBDBDB"/>
<path d="M317.849 552.324L315.547 555.943L318.178 557.259L320.315 554.134L317.849 552.324Z" fill="#DBDBDB"/>
<path d="M312.095 558.41L307.984 559.233L308.807 562.193L312.589 561.371L312.095 558.41Z" fill="#DBDBDB"/>
<path d="M389.383 589.003L394.645 589.99L409.608 488.67L403.524 487.519L389.383 589.003Z" fill="#D82D42"/>
<path d="M343.508 573.048L351.236 505.282L403.527 487.519C403.527 487.519 389.221 590.154 389.221 589.003L343.508 573.048Z" fill="#D82D42"/>
<path opacity="0.4" d="M343.508 573.048L351.236 505.282L403.527 487.519C403.527 487.519 389.221 590.154 389.221 589.003L343.508 573.048Z" fill="white"/>
<path d="M216.726 507.914C215.904 502.322 215.411 496.565 215.082 490.973C214.917 488.177 214.917 485.381 214.753 482.42C214.753 479.624 214.588 476.828 214.753 473.867V473.045H215.41C225.77 472.551 236.129 471.729 246.653 471.4C257.013 470.906 267.372 470.413 277.896 470.084C267.536 471.071 257.177 471.893 246.818 472.551C236.458 473.374 226.099 473.867 215.739 474.689L216.562 473.867V482.256L216.726 490.808C216.726 493.605 216.726 496.401 216.89 499.361L216.726 507.914Z" fill="white"/>
<path d="M358.633 506.27C361.922 504.79 365.21 503.309 368.499 501.993C371.788 500.678 375.241 499.362 378.529 498.21C381.983 497.059 385.271 495.908 388.724 494.921C392.178 493.934 395.631 493.111 399.248 492.454L400.07 492.289L399.906 493.111C399.084 497.552 398.262 501.829 397.275 506.27C397.604 501.829 398.262 497.388 398.755 492.947L399.413 493.605C395.96 494.427 392.506 495.414 389.053 496.401C385.6 497.388 382.311 498.539 378.858 499.526L358.633 506.27Z" fill="white"/>
<path opacity="0.1" d="M239.422 468.439L240.244 485.381L241.066 502.322L242.382 536.205L243.368 570.253L243.697 587.194L244.026 604.135L243.204 587.194L242.382 570.253L241.066 536.37L240.08 502.322L239.751 485.381L239.422 468.439Z" fill="black"/>
<path opacity="0.1" d="M234.487 478.637C234.816 480.117 233.994 481.762 232.35 482.256C231.527 482.42 230.541 482.42 229.883 481.927C229.061 481.433 228.567 480.611 228.403 479.788C228.239 478.966 228.403 477.979 229.061 477.157C229.554 476.499 230.376 476.005 231.198 475.841C232.843 476.005 234.323 477.157 234.487 478.637ZM234.487 478.637C234.323 477.979 233.829 477.321 233.172 476.828C232.514 476.499 231.692 476.499 231.198 476.663C229.883 477.157 229.225 478.473 229.554 479.624C229.719 480.775 230.87 481.762 232.35 481.762C233.007 481.762 233.665 481.433 234.158 480.775C234.487 480.282 234.652 479.459 234.487 478.637Z" fill="black"/>
<path opacity="0.1" d="M235.636 499.032C235.964 500.513 235.142 502.158 233.498 502.651C232.676 502.816 231.689 502.816 231.031 502.322C230.209 501.829 229.716 501.006 229.551 500.184C229.387 499.361 229.551 498.375 230.209 497.552C230.703 496.894 231.525 496.401 232.347 496.236C233.991 496.236 235.471 497.552 235.636 499.032ZM235.636 499.032C235.471 498.375 234.978 497.717 234.32 497.223C233.662 496.894 232.84 496.894 232.347 497.059C231.031 497.552 230.374 498.868 230.703 500.019C230.867 501.171 232.018 502.158 233.498 502.158C234.156 502.158 234.813 501.829 235.307 501.171C235.636 500.513 235.8 499.69 235.636 499.032Z" fill="black"/>
<path opacity="0.1" d="M236.464 520.579C236.793 522.06 235.97 523.705 234.326 524.198C233.504 524.362 232.517 524.362 231.86 523.869C231.037 523.376 230.544 522.553 230.38 521.731C230.215 520.908 230.38 519.921 231.037 519.099C231.531 518.441 232.353 517.948 233.175 517.783C234.655 517.783 236.135 519.099 236.464 520.579ZM236.464 520.579C236.299 519.921 235.806 519.264 235.148 518.77C234.49 518.441 233.668 518.441 233.175 518.606C231.86 519.099 231.202 520.415 231.531 521.566C231.695 522.718 232.846 523.704 234.326 523.704C234.984 523.704 235.642 523.376 236.135 522.718C236.464 522.06 236.628 521.237 236.464 520.579Z" fill="black"/>
<path opacity="0.1" d="M237.12 542.126C237.449 543.607 236.627 545.251 234.982 545.745C234.16 545.909 233.174 545.909 232.516 545.416C231.694 544.922 231.2 544.1 231.036 543.278C230.871 542.455 231.036 541.468 231.694 540.646C232.187 539.988 233.009 539.495 233.831 539.33C235.476 539.33 236.956 540.646 237.12 542.126ZM237.12 542.126C236.956 541.468 236.462 540.81 235.804 540.317C235.147 539.988 234.325 539.988 233.831 540.152C232.516 540.646 231.858 541.962 232.187 543.113C232.351 544.265 233.502 545.251 234.982 545.251C235.64 545.251 236.298 544.922 236.791 544.265C237.12 543.607 237.284 542.949 237.12 542.126Z" fill="black"/>
<path opacity="0.1" d="M237.94 563.673C238.269 565.153 237.447 566.798 235.803 567.292C234.98 567.456 233.994 567.456 233.336 566.963C232.514 566.469 232.021 565.647 231.856 564.824C231.692 564.002 231.856 563.015 232.514 562.193C233.007 561.535 233.829 561.041 234.652 560.877C236.131 560.877 237.611 562.193 237.94 563.673ZM237.94 563.673C237.776 563.015 237.283 562.357 236.625 561.864C235.967 561.535 235.145 561.535 234.652 561.699C233.336 562.193 232.678 563.509 233.007 564.66C233.172 565.811 234.323 566.798 235.803 566.798C236.46 566.798 237.118 566.469 237.611 565.811C237.94 565.153 238.105 564.496 237.94 563.673Z" fill="black"/>
<path opacity="0.1" d="M238.597 585.22C238.925 586.7 238.103 588.345 236.459 588.839C235.637 589.003 234.65 589.003 233.992 588.51C233.17 588.016 232.677 587.194 232.512 586.371C232.348 585.549 232.512 584.562 233.17 583.74C233.663 583.082 234.486 582.588 235.308 582.424C236.952 582.588 238.432 583.74 238.597 585.22ZM238.597 585.22C238.432 584.562 237.939 583.904 237.281 583.411C236.623 583.082 235.801 583.082 235.308 583.246C233.992 583.74 233.335 585.055 233.663 586.207C233.828 587.358 234.979 588.345 236.459 588.345C237.117 588.345 237.774 588.016 238.268 587.358C238.597 586.865 238.761 586.042 238.597 585.22Z" fill="black"/>
<path d="M245.312 618.148L168.203 641.521L170.921 650.493L248.03 627.12L245.312 618.148Z" fill="#D82D42"/>
<path opacity="0.4" d="M245.312 618.148L168.203 641.521L170.921 650.493L248.03 627.12L245.312 618.148Z" fill="white"/>
<path d="M208.339 626.449L199.406 629.291L203.643 642.615L212.575 639.773L208.339 626.449Z" fill="#D82D42"/>
<path d="M170.353 663.841L150.456 577.653L90.4375 591.799L120.036 675.848L170.353 663.841Z" fill="#D82D42"/>
<path d="M183.669 659.4L170.35 663.841L150.453 577.653L169.692 582.259L183.669 659.4Z" fill="#D82D42"/>
<path opacity="0.2" d="M183.669 659.4L170.35 663.841L150.453 577.653L169.692 582.259L183.669 659.4Z" fill="black"/>
<path d="M246.648 632.919C252.279 632.919 256.843 628.353 256.843 622.721C256.843 617.089 252.279 612.523 246.648 612.523C241.018 612.523 236.453 617.089 236.453 622.721C236.453 628.353 241.018 632.919 246.648 632.919Z" fill="#D82D42"/>
<path d="M351.807 618.028L349.07 626.994L426.13 650.528L428.867 641.561L351.807 618.028Z" fill="#D82D42"/>
<path opacity="0.4" d="M351.807 618.028L349.07 626.994L426.13 650.528L428.867 641.561L351.807 618.028Z" fill="white"/>
<path d="M388.703 626.138L384.438 639.452L393.363 642.314L397.629 629L388.703 626.138Z" fill="#D82D42"/>
<path d="M426.703 663.676L446.764 577.653L506.783 591.963L477.02 675.848L426.703 663.676Z" fill="#D82D42"/>
<path d="M413.383 659.235L426.702 663.676L446.763 577.653L427.689 582.094L413.383 659.235Z" fill="#D82D42"/>
<path opacity="0.2" d="M413.383 659.235L426.702 663.676L446.763 577.653L427.689 582.094L413.383 659.235Z" fill="black"/>
<path d="M340.211 622.392C340.211 627.984 344.815 632.59 350.406 632.59C355.997 632.59 360.601 627.984 360.601 622.392C360.601 616.8 355.997 612.194 350.406 612.194C344.815 612.194 340.211 616.8 340.211 622.392Z" fill="#D82D42"/>
<path d="M417.335 516.138C417.5 515.973 442.329 492.946 471.434 500.841C501.197 508.9 525.862 553.803 526.027 554.132L534.248 549.691C533.097 547.718 507.446 500.841 473.736 491.795C439.369 482.584 411.909 508.243 410.758 509.394L417.335 516.138Z" fill="#D82D42"/>
<path opacity="0.4" d="M417.335 516.138C417.5 515.973 442.329 492.946 471.434 500.841C501.197 508.9 525.862 553.803 526.027 554.132L534.248 549.691C533.097 547.718 507.446 500.841 473.736 491.795C439.369 482.584 411.909 508.243 410.758 509.394L417.335 516.138Z" fill="white"/>
<path d="M515.172 599.365L532.931 589.989C531.287 586.7 529.149 581.107 528.82 576.173C528.492 569.594 530.958 567.291 533.918 565.811C540.166 562.521 543.948 563.837 546.415 565.317C550.033 567.456 553.65 571.732 556.61 577.489L574.369 568.113C569.436 558.903 563.516 552.159 556.61 548.047C549.704 543.935 538.522 540.645 524.381 548.047C513.364 553.804 507.773 564.33 508.595 577.489C509.417 587.687 513.857 596.897 515.172 599.365Z" fill="#D82D42"/>
<path d="M421.117 484.723C425.064 482.091 429.01 479.459 432.956 476.992C436.903 474.525 441.014 472.058 444.96 469.755C449.071 467.452 453.018 464.985 457.128 462.847L463.377 459.557C465.515 458.406 467.488 457.419 469.625 456.268C467.652 457.583 465.679 458.899 463.706 460.215L457.786 463.998C453.84 466.465 449.729 468.933 445.782 471.235C441.672 473.538 437.725 476.005 433.614 478.143C429.503 480.446 425.392 482.749 421.117 484.723Z" fill="#263238"/>
<path d="M410.922 523.211C416.513 526.336 421.775 529.955 426.872 533.573C431.97 537.192 437.067 541.139 441.836 545.251C436.245 542.126 430.983 538.508 425.885 534.889C420.788 531.27 415.69 527.487 410.922 523.211Z" fill="#263238"/>
<path d="M419.969 518.605C424.244 519.921 428.519 521.402 432.63 522.882C436.906 524.362 441.016 526.007 445.127 527.487C449.238 529.132 453.349 530.777 457.46 532.586L463.544 535.218C465.517 536.205 467.655 537.027 469.628 538.014C467.49 537.356 465.353 536.698 463.215 536.04L456.967 533.902C452.691 532.422 448.58 530.777 444.47 529.297C440.359 527.652 436.248 526.007 432.137 524.198C428.19 522.224 424.08 520.415 419.969 518.605Z" fill="#263238"/>
<path d="M432.133 488.341C436.244 487.354 440.355 486.367 444.465 485.545C448.576 484.722 452.687 483.9 456.962 483.242C461.073 482.584 465.349 481.762 469.46 481.268L475.708 480.446C477.846 480.282 479.819 479.953 481.957 479.788C479.983 480.282 477.846 480.775 475.872 481.268L469.624 482.584C465.513 483.407 461.402 484.229 457.127 484.887C453.016 485.545 448.741 486.367 444.63 486.861C440.519 487.354 436.408 488.012 432.133 488.341Z" fill="#263238"/>
<path d="M333.477 513.999C334.134 510.71 335.285 507.42 336.765 504.295C338.245 501.17 340.054 498.209 342.192 495.578C344.494 492.946 347.125 490.643 350.413 489.327C353.702 488.176 357.484 488.176 360.773 489.492C364.061 490.808 366.692 493.604 368.172 496.893C368.83 498.538 369.323 500.183 369.488 501.992C369.652 503.802 369.652 505.611 368.83 507.42C368.501 508.243 367.843 509.229 367.021 509.723C366.528 510.052 366.035 510.216 365.541 510.216C365.048 510.216 364.555 510.216 363.897 510.052C362.746 509.558 362.253 508.736 361.759 507.914C361.266 507.091 360.937 506.269 360.773 505.446C359.786 501.992 359.786 498.538 359.951 495.084C360.444 488.176 362.253 481.268 365.87 475.347C367.679 472.386 370.146 469.754 372.941 467.781C375.901 465.807 379.189 464.491 382.643 463.998C384.287 463.669 386.096 463.669 387.74 463.504C388.562 463.34 389.549 463.669 390.371 463.669C391.193 463.833 392.18 463.833 393.002 463.998C396.455 464.655 399.579 465.971 402.704 467.616C405.663 469.261 408.294 471.564 410.761 473.866C413.227 476.334 415.365 478.965 417.174 481.926C413.227 476.333 408.294 471.564 402.375 468.274C399.415 466.794 396.291 465.478 393.002 464.984C392.18 464.82 391.358 464.82 390.535 464.655C389.713 464.655 388.891 464.491 388.069 464.491C386.425 464.655 384.78 464.655 383.136 464.984C379.847 465.478 376.723 466.794 374.092 468.603C371.297 470.412 369.159 473.044 367.35 475.84C363.897 481.432 362.088 488.176 361.759 494.755C361.595 498.045 361.595 501.499 362.417 504.624C362.746 506.104 363.568 507.749 364.555 508.243C364.719 508.243 364.719 508.407 364.884 508.407C365.048 508.407 365.212 508.407 365.377 508.407C365.706 508.407 366.035 508.243 366.199 508.078C366.692 507.749 367.186 507.091 367.515 506.433C368.172 505.117 368.172 503.308 368.008 501.828C367.843 500.183 367.515 498.703 366.692 497.222C365.377 494.262 363.075 491.63 360.115 490.479C357.155 489.163 353.702 489.163 350.578 490.15C347.454 491.301 344.823 493.439 342.52 495.907C338.245 501.17 335.285 507.42 333.477 513.999Z" fill="#263238"/>
<path d="M181.539 556.599C183.183 553.639 185.486 551.007 188.116 549.033C190.912 547.059 194.036 545.415 197.325 544.592C200.614 543.77 204.231 543.77 207.684 544.757C210.973 545.744 214.097 547.717 216.399 550.185C218.866 552.652 220.675 555.777 221.826 558.902C222.977 562.192 223.799 565.646 223.47 569.1C223.306 570.909 222.977 572.718 221.497 574.199C220.839 575.021 219.688 575.35 218.701 575.515C217.715 575.515 216.728 575.35 215.906 574.857C215.084 574.363 214.262 573.541 213.933 572.718C213.439 571.896 213.275 570.909 213.275 569.922C213.275 568.113 213.604 566.304 214.097 564.659C215.248 561.369 217.057 558.244 219.195 555.612C221.332 552.816 223.799 550.514 226.594 548.375C232.185 544.263 239.256 542.125 246.162 542.948C249.615 543.441 252.904 544.428 256.028 546.073C258.988 547.717 261.619 550.02 263.757 552.816C265.894 555.448 267.539 558.573 268.854 561.698C270.17 564.823 271.156 568.113 271.485 571.403C270.17 564.823 267.374 558.409 263.099 553.31C260.961 550.678 258.33 548.54 255.535 547.06C252.575 545.415 249.451 544.592 246.162 544.263C239.585 543.605 232.843 545.579 227.581 549.527C222.319 553.474 217.879 558.902 215.742 564.988C215.248 566.468 214.919 568.113 214.919 569.593C214.919 571.074 215.413 572.554 216.728 573.212C217.386 573.541 218.044 573.705 218.866 573.705C219.524 573.705 220.181 573.376 220.675 572.883C221.661 571.896 221.99 570.251 222.155 568.606C222.483 565.317 221.826 562.027 220.675 559.067C219.524 555.941 217.715 553.145 215.577 550.678C213.275 548.211 210.48 546.402 207.355 545.415C204.231 544.428 200.778 544.263 197.654 544.921C191.076 546.895 185.157 550.843 181.539 556.599Z" fill="#263238"/>
<path d="M105.401 159.38C105.237 152.636 103.757 145.728 100.633 139.807C98.9883 136.846 97.0151 134.215 94.2197 132.405C91.4243 130.596 88.1356 129.938 84.8469 130.432C81.7226 130.925 78.7628 132.899 76.7896 135.366C75.8029 136.682 74.9808 138.162 74.4875 139.643C73.9942 141.123 73.6653 142.768 73.8297 144.248C73.9942 144.906 74.1586 145.728 74.6519 146.057C74.8163 146.222 75.1452 146.386 75.4741 146.551C75.6385 146.551 75.8029 146.551 75.9674 146.715C76.1318 146.715 76.2963 146.715 76.2963 146.715C77.4473 146.551 78.4339 145.07 79.2561 143.59C80.736 140.794 81.7226 137.504 82.3803 134.215C83.5314 127.636 83.5314 120.727 81.3937 114.477C80.4071 111.352 78.7628 108.391 76.6251 105.924C74.4875 103.457 71.6921 101.483 68.7322 100.167C67.2523 99.345 65.608 99.016 64.1281 98.5226C63.3059 98.1936 62.4837 98.1936 61.6615 98.0291C60.8394 97.8646 60.0172 97.7002 59.195 97.7002C55.9063 97.3712 52.4532 97.8646 49.3289 98.687C42.7515 100.332 36.8319 103.95 31.7344 108.391C34.2009 105.924 36.8319 103.95 39.7917 102.141C42.7515 100.332 45.8758 98.8515 49.1645 97.8646C52.4532 97.0422 55.9063 96.3843 59.3594 96.5488C60.1816 96.5488 61.0038 96.7133 61.9904 96.8778C62.8126 97.0423 63.7992 97.0423 64.6214 97.3712C66.2657 97.8646 67.9101 98.1936 69.5544 99.016C72.8431 100.167 75.8029 102.306 78.105 104.937C80.4071 107.569 82.0515 110.694 83.2025 113.984C85.3402 120.563 85.5046 127.8 84.3536 134.544C83.6958 137.998 82.7092 141.287 81.0649 144.412C80.5716 145.235 80.0783 145.893 79.5849 146.715C78.9272 147.373 78.2695 148.031 76.954 148.36C76.2962 148.36 75.8029 148.36 75.3096 148.195C74.8163 148.031 74.323 147.702 73.9942 147.373C73.3364 146.551 73.0075 145.564 72.8431 144.741C72.5142 142.932 73.0076 141.123 73.5009 139.314C74.1586 137.669 74.9808 136.024 76.1318 134.708C78.2695 131.912 81.5582 129.774 85.0113 129.28C88.4644 128.787 92.2464 129.609 95.0418 131.583C98.0017 133.557 99.9749 136.517 101.619 139.478C103.099 142.603 104.086 145.893 104.743 149.182C105.237 152.636 105.566 155.926 105.401 159.38Z" fill="#263238"/>
<path d="M468.478 245.239C461.901 243.758 454.83 243.594 448.417 245.403C445.129 246.226 442.004 247.706 439.702 249.844C437.4 252.147 435.756 255.272 435.591 258.397C435.263 261.687 436.578 264.812 438.551 267.443C439.538 268.759 440.853 269.746 442.169 270.733C443.484 271.555 444.964 272.213 446.609 272.378C447.431 272.378 448.088 272.378 448.582 272.049C448.911 271.884 449.075 271.72 449.24 271.391C449.404 271.226 449.404 271.062 449.404 270.898C449.404 270.733 449.404 270.569 449.568 270.569C449.568 269.417 448.417 267.937 447.266 266.95C444.8 264.812 441.84 263.167 438.88 261.851C432.796 259.219 426.054 257.575 419.477 258.068C416.188 258.397 412.899 259.055 409.94 260.7C406.98 262.18 404.513 264.318 402.54 267.114C401.389 268.43 400.731 269.911 399.745 271.226C399.251 271.884 399.087 272.707 398.758 273.529C398.429 274.352 398.1 275.01 397.936 275.832C396.949 278.957 396.62 282.411 396.62 285.701C396.785 292.444 398.758 299.024 401.882 305.109C400.073 302.149 398.758 299.024 397.771 295.734C396.785 292.444 395.963 289.155 395.798 285.701C395.634 282.247 395.963 278.793 396.949 275.503C397.114 274.681 397.607 273.858 397.771 273.036C398.1 272.213 398.265 271.391 398.758 270.733C399.58 269.253 400.402 267.608 401.553 266.292C403.527 263.496 406.158 261.029 409.282 259.384C412.406 257.739 415.859 256.917 419.312 256.588C426.219 255.93 433.289 257.575 439.538 260.206C442.662 261.687 445.786 263.331 448.417 265.799C449.075 266.457 449.733 267.114 450.226 267.772C450.719 268.595 451.213 269.417 451.213 270.569C451.048 271.226 450.884 271.72 450.555 272.049C450.226 272.542 449.897 272.871 449.404 273.036C448.417 273.529 447.431 273.694 446.444 273.529C444.635 273.365 442.827 272.542 441.347 271.555C439.867 270.569 438.551 269.417 437.4 267.937C435.098 265.141 433.947 261.522 434.276 257.904C434.605 254.285 436.414 250.995 438.88 248.693C441.511 246.39 444.8 244.91 448.089 244.252C451.377 243.429 454.83 243.265 458.283 243.429C461.901 243.758 465.354 244.252 468.478 245.239Z" fill="#263238"/>
<path d="M366.691 138.821C365.54 134.874 365.375 130.762 366.033 126.65C366.691 122.702 368.006 118.59 370.308 115.136C372.446 111.682 375.57 108.721 379.188 106.747C382.806 104.774 387.081 103.951 391.192 104.116C395.303 104.28 399.413 105.267 403.195 107.076C406.977 108.886 410.431 111.188 413.226 114.314C414.541 115.958 415.857 117.768 415.857 120.235C415.857 121.386 415.364 122.702 414.541 123.524C413.719 124.347 412.733 125.005 411.582 125.334C410.431 125.663 409.115 125.663 408.128 125.169C406.977 124.84 406.155 124.018 405.333 123.36C403.689 121.88 402.702 120.07 401.716 118.097C399.907 114.314 398.92 110.202 398.427 106.254C397.934 102.142 398.098 98.0301 398.756 93.9181C400.071 85.8585 404.346 77.9635 410.924 73.0291C414.213 70.5619 417.995 68.5882 421.941 67.6013C425.887 66.4499 430.163 66.2854 434.109 66.7789C438.22 67.2723 442.167 68.4237 445.784 70.0685C449.566 71.7133 453.019 73.687 456.308 76.1542C449.566 71.7133 442.002 68.4237 433.945 67.6013C429.998 67.2723 425.888 67.4368 422.105 68.5882C418.323 69.575 414.706 71.5488 411.582 74.016C408.457 76.4832 405.826 79.6083 404.018 83.0624C402.044 86.5165 400.893 90.2995 400.071 94.247C398.756 101.978 399.578 110.366 402.867 117.603C403.689 119.412 404.84 121.057 406.155 122.373C407.471 123.689 409.28 124.511 410.924 124.018C411.746 123.853 412.568 123.195 413.226 122.702C413.884 122.044 414.048 121.386 414.048 120.564C414.048 118.755 413.062 117.11 411.746 115.629C409.28 112.669 405.826 110.366 402.373 108.721C398.756 107.076 394.809 106.09 390.863 105.925C386.916 105.761 382.97 106.583 379.352 108.228C375.735 110.037 372.775 112.833 370.637 116.123C366.691 122.373 365.047 130.926 366.691 138.821Z" fill="#263238"/>
<path d="M176.109 556.929C172.491 555.778 168.545 557.751 167.394 561.534C166.243 565.153 168.216 569.101 171.998 570.252C175.615 571.403 179.562 569.429 180.713 565.646C181.7 562.028 179.726 558.08 176.109 556.929ZM179.726 565.482C178.74 568.772 175.287 570.581 171.998 569.43C168.709 568.443 166.9 564.989 168.051 561.699C169.038 558.409 172.491 556.6 175.78 557.751C179.069 558.738 180.877 562.192 179.726 565.482ZM176.109 556.929C172.491 555.778 168.545 557.751 167.394 561.534C166.243 565.153 168.216 569.101 171.998 570.252C175.615 571.403 179.562 569.429 180.713 565.646C181.7 562.028 179.726 558.08 176.109 556.929ZM179.726 565.482C178.74 568.772 175.287 570.581 171.998 569.43C168.709 568.443 166.9 564.989 168.051 561.699C169.038 558.409 172.491 556.6 175.78 557.751C179.069 558.738 180.877 562.192 179.726 565.482ZM176.109 556.929C172.491 555.778 168.545 557.751 167.394 561.534C166.243 565.153 168.216 569.101 171.998 570.252C175.615 571.403 179.562 569.429 180.713 565.646C181.7 562.028 179.726 558.08 176.109 556.929ZM179.726 565.482C178.74 568.772 175.287 570.581 171.998 569.43C168.709 568.443 166.9 564.989 168.051 561.699C169.038 558.409 172.491 556.6 175.78 557.751C179.069 558.738 180.877 562.192 179.726 565.482ZM178.411 549.528C170.682 547.06 162.296 551.337 159.994 559.232C157.528 566.962 161.803 575.351 169.696 577.653C177.424 580.121 185.81 575.844 188.112 567.949C190.415 560.383 186.139 551.995 178.411 549.528ZM181.7 566.14C180.384 570.416 175.78 572.719 171.505 571.403C167.229 570.087 164.927 565.482 166.243 561.206C167.558 556.929 172.162 554.626 176.438 555.942C180.548 557.258 183.015 561.863 181.7 566.14ZM180.548 565.811C181.7 562.192 179.726 558.245 175.944 557.094C172.327 555.942 168.38 557.916 167.229 561.699C166.078 565.318 168.051 569.265 171.833 570.416C175.451 571.403 179.397 569.429 180.548 565.811ZM179.726 565.482C178.74 568.772 175.287 570.581 171.998 569.43C168.709 568.443 166.9 564.989 168.051 561.699C169.038 558.409 172.491 556.6 175.78 557.751C179.069 558.738 180.877 562.192 179.726 565.482ZM176.109 556.929C172.491 555.778 168.545 557.751 167.394 561.534C166.243 565.153 168.216 569.101 171.998 570.252C175.615 571.403 179.562 569.429 180.713 565.646C181.7 562.028 179.726 558.08 176.109 556.929ZM179.726 565.482C178.74 568.772 175.287 570.581 171.998 569.43C168.709 568.443 166.9 564.989 168.051 561.699C169.038 558.409 172.491 556.6 175.78 557.751C179.069 558.738 180.877 562.192 179.726 565.482ZM176.109 556.929C172.491 555.778 168.545 557.751 167.394 561.534C166.243 565.153 168.216 569.101 171.998 570.252C175.615 571.403 179.562 569.429 180.713 565.646C181.7 562.028 179.726 558.08 176.109 556.929ZM179.726 565.482C178.74 568.772 175.287 570.581 171.998 569.43C168.709 568.443 166.9 564.989 168.051 561.699C169.038 558.409 172.491 556.6 175.78 557.751C179.069 558.738 180.877 562.192 179.726 565.482Z" fill="#455A64"/>
<path d="M172.327 577.982L166.9 576.337L166.078 580.12L170.847 581.765L172.327 577.982Z" fill="#455A64"/>
<path d="M162.623 572.884L159.992 567.949L156.703 570.087L159.005 574.528L162.623 572.884Z" fill="#455A64"/>
<path d="M159.336 562.521L161.145 557.093L157.199 556.106L155.719 560.876L159.336 562.521Z" fill="#455A64"/>
<path d="M164.433 552.817L169.531 550.186L167.393 546.731L162.789 549.034L164.433 552.817Z" fill="#455A64"/>
<path d="M174.961 549.527L180.223 551.172L181.209 547.225L176.441 545.744L174.961 549.527Z" fill="#455A64"/>
<path d="M184.656 554.462L187.287 559.561L190.576 557.422L188.274 552.981L184.656 554.462Z" fill="#455A64"/>
<path d="M187.949 564.988L186.141 570.416L190.087 571.239L191.567 566.469L187.949 564.988Z" fill="#455A64"/>
<path d="M182.847 574.692L177.75 577.324L179.888 580.778L184.327 578.311L182.847 574.692Z" fill="#455A64"/>
<path d="M448.742 510.052C456.141 500.019 454.004 485.873 444.138 478.472C434.107 471.07 419.966 473.208 412.566 483.077C405.167 493.11 407.304 507.256 417.17 514.657C427.201 522.059 441.178 519.921 448.742 510.052ZM439.04 502.815C435.587 507.42 429.01 508.407 424.405 504.953C419.801 501.499 418.815 494.92 422.268 490.15C425.721 485.544 432.298 484.557 436.902 488.011C441.507 491.63 442.493 498.209 439.04 502.815Z" fill="#263238"/>
<path d="M421.117 516.467L414.211 511.368L410.922 516.467L417.17 521.072L421.117 516.467Z" fill="#263238"/>
<path d="M409.61 504.295L408.459 495.742L402.375 497.058L403.526 504.789L409.61 504.295Z" fill="#263238"/>
<path d="M410.104 487.518L415.366 480.61L410.104 477.32L405.5 483.571L410.104 487.518Z" fill="#263238"/>
<path d="M422.274 476.005L430.825 474.853L429.509 468.768L421.945 469.919L422.274 476.005Z" fill="#263238"/>
<path d="M439.047 476.498L445.953 481.761L449.242 476.498L443.158 471.893L439.047 476.498Z" fill="#263238"/>
<path d="M450.555 488.67L451.87 497.223L457.79 495.907L456.639 488.341L450.555 488.67Z" fill="#263238"/>
<path d="M450.058 505.446L444.961 512.354L450.058 515.644L454.663 509.558L450.058 505.446Z" fill="#263238"/>
<path d="M437.894 516.96L429.344 518.276L430.659 524.197L438.388 523.046L437.894 516.96Z" fill="#263238"/>
<path d="M422.438 497.551L427.206 503.637L434.77 502.486L437.566 495.249L432.797 489.163L425.233 490.314L422.438 497.551ZM431.646 494.591C432.797 495.413 432.961 496.894 432.139 498.045C431.317 499.196 429.837 499.361 428.686 498.538C427.535 497.716 427.371 496.236 428.193 495.084C429.015 493.933 430.495 493.769 431.646 494.591Z" fill="#263238"/>
<path d="M465.52 71.2196C462.231 70.2327 458.778 72.042 457.791 75.1671C456.805 78.4567 458.614 81.9108 461.738 82.8976C465.027 83.8845 468.315 82.0752 469.466 78.9501C470.617 75.6605 468.809 72.2065 465.52 71.2196ZM468.809 78.6212C467.986 81.4173 464.862 83.0621 462.067 82.0752C459.271 81.2528 457.627 78.1277 458.614 75.3316C459.436 72.5354 462.56 70.8906 465.356 71.8775C468.151 72.8644 469.795 75.825 468.809 78.6212ZM465.52 71.2196C462.231 70.2327 458.778 72.042 457.791 75.1671C456.805 78.4567 458.614 81.9108 461.738 82.8976C465.027 83.8845 468.315 82.0752 469.466 78.9501C470.617 75.6605 468.809 72.2065 465.52 71.2196ZM468.809 78.6212C467.986 81.4173 464.862 83.0621 462.067 82.0752C459.271 81.2528 457.627 78.1277 458.614 75.3316C459.436 72.5354 462.56 70.8906 465.356 71.8775C468.151 72.8644 469.795 75.825 468.809 78.6212ZM465.52 71.2196C462.231 70.2327 458.778 72.042 457.791 75.1671C456.805 78.4567 458.614 81.9108 461.738 82.8976C465.027 83.8845 468.315 82.0752 469.466 78.9501C470.617 75.6605 468.809 72.2065 465.52 71.2196ZM468.809 78.6212C467.986 81.4173 464.862 83.0621 462.067 82.0752C459.271 81.2528 457.627 78.1277 458.614 75.3316C459.436 72.5354 462.56 70.8906 465.356 71.8775C468.151 72.8644 469.795 75.825 468.809 78.6212ZM467.658 64.8049C460.916 62.6666 453.681 66.4497 451.543 73.1933C449.405 79.937 453.187 87.1741 459.929 89.3124C466.671 91.4506 473.906 87.6676 476.044 80.9239C478.181 74.1802 474.399 66.9431 467.658 64.8049ZM470.453 79.1146C469.302 82.8976 465.356 84.8714 461.574 83.72C457.792 82.5687 455.818 78.6212 456.969 74.8381C458.12 71.0551 462.067 69.0813 465.849 70.2327C469.631 71.5485 471.604 75.496 470.453 79.1146ZM469.631 78.9501C470.617 75.6605 468.809 72.3709 465.684 71.2196C462.396 70.2327 458.943 72.042 457.956 75.1671C456.969 78.4567 458.778 81.9108 461.902 82.8976C465.027 83.8845 468.48 82.0752 469.631 78.9501ZM468.809 78.6212C467.986 81.4173 464.862 83.0621 462.067 82.0752C459.271 81.2528 457.627 78.1277 458.614 75.3316C459.436 72.5354 462.56 70.8906 465.356 71.8775C468.151 72.8644 469.795 75.825 468.809 78.6212ZM465.52 71.2196C462.231 70.2327 458.778 72.042 457.791 75.1671C456.805 78.4567 458.614 81.9108 461.738 82.8976C465.027 83.8845 468.315 82.0752 469.466 78.9501C470.617 75.6605 468.809 72.2065 465.52 71.2196ZM468.809 78.6212C467.986 81.4173 464.862 83.0621 462.067 82.0752C459.271 81.2528 457.627 78.1277 458.614 75.3316C459.436 72.5354 462.56 70.8906 465.356 71.8775C468.151 72.8644 469.795 75.825 468.809 78.6212ZM465.52 71.2196C462.231 70.2327 458.778 72.042 457.791 75.1671C456.805 78.4567 458.614 81.9108 461.738 82.8976C465.027 83.8845 468.315 82.0752 469.466 78.9501C470.617 75.6605 468.809 72.2065 465.52 71.2196ZM468.809 78.6212C467.986 81.4173 464.862 83.0621 462.067 82.0752C459.271 81.2528 457.627 78.1277 458.614 75.3316C459.436 72.5354 462.56 70.8906 465.356 71.8775C468.151 72.8644 469.795 75.825 468.809 78.6212Z" fill="#263238"/>
<path d="M462.396 89.6415L457.627 88.1611L456.805 91.6152L461.08 92.931L462.396 89.6415Z" fill="#263238"/>
<path d="M453.84 85.1997L451.538 80.7588L448.578 82.5681L450.551 86.5156L453.84 85.1997Z" fill="#263238"/>
<path d="M451.047 75.9894L452.526 71.2194L449.073 70.5615L447.758 74.6735L451.047 75.9894Z" fill="#263238"/>
<path d="M455.488 67.6007L459.763 65.298L457.954 62.1729L454.008 64.3111L455.488 67.6007Z" fill="#263238"/>
<path d="M464.531 64.6402L469.3 66.1205L470.122 62.6664L465.847 61.3506L464.531 64.6402Z" fill="#263238"/>
<path d="M473.078 69.0815L475.38 73.5224L478.34 71.5487L476.367 67.7656L473.078 69.0815Z" fill="#263238"/>
<path d="M475.878 78.292L474.398 82.8974L477.852 83.7198L479.167 79.6078L475.878 78.292Z" fill="#263238"/>
<path d="M471.439 86.6807L467.164 88.9834L468.973 91.944L472.919 89.9703L471.439 86.6807Z" fill="#263238"/>
<path d="M402.708 306.261C399.419 305.274 396.13 307.083 394.979 310.209C393.993 313.498 395.802 316.952 398.926 317.939C402.215 318.926 405.503 317.117 406.654 313.992C407.805 310.702 405.997 307.248 402.708 306.261ZM405.997 313.663C405.174 316.459 402.05 318.104 399.255 317.117C396.459 316.294 394.815 313.169 395.802 310.373C396.624 307.577 399.748 305.932 402.543 306.919C405.339 307.741 406.819 310.866 405.997 313.663ZM402.708 306.261C399.419 305.274 396.13 307.083 394.979 310.209C393.993 313.498 395.802 316.952 398.926 317.939C402.215 318.926 405.503 317.117 406.654 313.992C407.805 310.702 405.997 307.248 402.708 306.261ZM405.997 313.663C405.174 316.459 402.05 318.104 399.255 317.117C396.459 316.294 394.815 313.169 395.802 310.373C396.624 307.577 399.748 305.932 402.543 306.919C405.339 307.741 406.819 310.866 405.997 313.663ZM402.708 306.261C399.419 305.274 396.13 307.083 394.979 310.209C393.993 313.498 395.802 316.952 398.926 317.939C402.215 318.926 405.503 317.117 406.654 313.992C407.805 310.702 405.997 307.248 402.708 306.261ZM405.997 313.663C405.174 316.459 402.05 318.104 399.255 317.117C396.459 316.294 394.815 313.169 395.802 310.373C396.624 307.577 399.748 305.932 402.543 306.919C405.339 307.741 406.819 310.866 405.997 313.663ZM404.681 299.682C397.939 297.544 390.704 301.327 388.566 308.07C386.429 314.814 390.211 322.051 396.953 324.189C403.694 326.328 410.93 322.544 413.067 315.801C415.369 309.057 411.587 301.82 404.681 299.682ZM407.641 314.156C406.49 317.939 402.543 319.913 398.761 318.761C394.979 317.61 393.006 313.663 394.157 309.88C395.308 306.097 399.255 304.123 403.037 305.274C406.654 306.425 408.792 310.537 407.641 314.156ZM406.654 313.827C407.641 310.537 405.832 307.248 402.708 306.097C399.419 305.11 396.13 306.919 394.979 310.044C393.993 313.334 395.802 316.788 398.926 317.775C402.215 318.926 405.668 317.117 406.654 313.827ZM405.997 313.663C405.174 316.459 402.05 318.104 399.255 317.117C396.459 316.294 394.815 313.169 395.802 310.373C396.624 307.577 399.748 305.932 402.543 306.919C405.339 307.741 406.819 310.866 405.997 313.663ZM402.708 306.261C399.419 305.274 396.13 307.083 394.979 310.209C393.993 313.498 395.802 316.952 398.926 317.939C402.215 318.926 405.503 317.117 406.654 313.992C407.805 310.702 405.997 307.248 402.708 306.261ZM405.997 313.663C405.174 316.459 402.05 318.104 399.255 317.117C396.459 316.294 394.815 313.169 395.802 310.373C396.624 307.577 399.748 305.932 402.543 306.919C405.339 307.741 406.819 310.866 405.997 313.663ZM402.708 306.261C399.419 305.274 396.13 307.083 394.979 310.209C393.993 313.498 395.802 316.952 398.926 317.939C402.215 318.926 405.503 317.117 406.654 313.992C407.805 310.702 405.997 307.248 402.708 306.261ZM405.997 313.663C405.174 316.459 402.05 318.104 399.255 317.117C396.459 316.294 394.815 313.169 395.802 310.373C396.624 307.577 399.748 305.932 402.543 306.919C405.339 307.741 406.819 310.866 405.997 313.663Z" fill="#263238"/>
<path d="M399.583 324.518L394.814 323.038L393.992 326.492L398.267 327.808L399.583 324.518Z" fill="#263238"/>
<path d="M391.028 320.077L388.725 315.801L385.766 317.61L387.739 321.558L391.028 320.077Z" fill="#263238"/>
<path d="M388.07 311.031L389.714 306.261L386.261 305.438L384.945 309.715L388.07 311.031Z" fill="#263238"/>
<path d="M392.511 302.478L396.951 300.175L395.142 297.215L391.195 299.189L392.511 302.478Z" fill="#263238"/>
<path d="M401.719 299.682L406.487 301.163L407.31 297.708L403.034 296.393L401.719 299.682Z" fill="#263238"/>
<path d="M410.266 304.123L412.568 308.399L415.528 306.59L413.39 302.643L410.266 304.123Z" fill="#263238"/>
<path d="M413.066 313.17L411.586 317.94L415.039 318.762L416.355 314.486L413.066 313.17Z" fill="#263238"/>
<path d="M408.627 321.723L404.352 324.025L406.16 326.986L410.107 325.012L408.627 321.723Z" fill="#263238"/>
<path d="M43.0835 121.221C45.55 110.858 39.3015 100.332 28.7776 97.7001C18.4182 95.2329 7.89439 101.483 5.26343 112.01C2.79691 122.372 9.04543 132.899 19.5693 135.53C30.0931 137.998 40.6169 131.583 43.0835 121.221ZM33.0529 118.754C31.9019 123.688 26.9688 126.649 22.0358 125.333C17.1027 124.181 14.1429 119.247 15.4584 114.313C16.6094 109.378 21.5425 106.418 26.4755 107.733C31.2442 109.049 34.204 113.984 33.0529 118.754Z" fill="#263238"/>
<path d="M23.5108 135.531L16.2757 133.886L15.2891 138.985L21.8665 140.629L23.5108 135.531Z" fill="#263238"/>
<path d="M10.1979 129.774L6.41593 123.359L2.14062 126.484L5.59376 132.241L10.1979 129.774Z" fill="#263238"/>
<path d="M5.09748 116.287L6.74183 109.05L1.64435 108.228L0 114.642L5.09748 116.287Z" fill="#263238"/>
<path d="M10.8493 103.128L17.2623 99.1808L14.138 94.9043L8.38281 98.3584L10.8493 103.128Z" fill="#263238"/>
<path d="M24.3359 97.8651L31.5711 99.6743L32.3933 94.411L25.9803 92.9307L24.3359 97.8651Z" fill="#263238"/>
<path d="M37.4922 103.787L41.2742 110.037L45.7139 106.912L42.2608 101.319L37.4922 103.787Z" fill="#263238"/>
<path d="M42.7541 117.109L40.9453 124.346L46.2072 125.169L47.6871 118.754L42.7541 117.109Z" fill="#263238"/>
<path d="M36.8345 130.268L30.5859 134.215L33.5458 138.492L39.301 135.037L36.8345 130.268Z" fill="#263238"/>
<path d="M18.2504 120.234L24.0056 123.36L29.5964 119.905L29.4319 113.326L23.6767 110.201L18.0859 113.491L18.2504 120.234ZM24.3345 114.642C25.4855 114.971 26.1432 116.122 25.8144 117.109C25.4855 118.261 24.3345 118.919 23.3479 118.59C22.1968 118.261 21.5391 117.109 21.8679 116.122C22.0324 115.136 23.1834 114.478 24.3345 114.642Z" fill="#263238"/>
<path d="M481.466 321.723C477.026 314.979 474.56 307.413 474.56 299.353C474.56 271.063 505.638 248.2 543.951 248.2C582.265 248.2 613.179 271.063 613.179 299.353C613.179 327.644 582.1 350.507 543.951 350.507C525.37 350.507 508.598 345.079 496.101 336.361L472.258 342.447L481.466 321.723Z" fill="white"/>
<path d="M481.467 321.723C477.356 315.473 474.725 308.236 474.396 300.67C474.232 293.103 476.041 285.537 479.987 278.958C483.769 272.379 489.195 266.787 495.279 262.346C501.364 257.905 508.27 254.451 515.341 252.148C522.576 249.681 529.975 248.365 537.539 247.707C545.103 247.214 552.667 247.543 560.067 248.858C561.876 249.187 563.849 249.516 565.658 250.01L571.084 251.49L576.51 253.299C578.319 253.957 579.963 254.78 581.772 255.602C588.679 258.892 594.927 263.168 600.353 268.432C605.78 273.859 610.055 280.274 612.357 287.676C614.659 294.913 614.824 302.972 612.522 310.374C610.384 317.775 606.109 324.355 600.847 329.782C595.585 335.21 589.172 339.487 582.43 342.941C575.688 346.23 568.289 348.533 560.889 349.849C553.489 351.165 545.925 351.658 538.361 351.165C530.797 350.671 523.398 349.356 516.163 346.888C508.928 344.586 502.186 341.296 495.937 336.855H496.266L472.259 342.776L471.93 342.941L472.094 342.612L481.467 321.723ZM481.467 321.723L472.423 342.612L472.259 342.283L496.102 336.033H496.266L496.43 336.197C508.763 344.75 523.562 349.027 538.361 349.849C545.761 350.342 553.325 349.685 560.56 348.369C567.795 347.053 575.03 344.915 581.772 341.461C588.35 338.171 594.598 333.895 599.696 328.631C604.793 323.368 608.904 316.953 610.877 309.88C613.015 302.808 612.85 295.242 610.548 288.169C608.411 281.096 604.3 274.846 599.038 269.583C593.776 264.32 587.527 260.208 580.95 256.918C579.306 256.26 577.661 255.273 575.853 254.615L570.591 252.806L565.164 251.326C563.356 250.832 561.547 250.668 559.738 250.174C552.338 248.858 544.939 248.529 537.539 249.023C530.14 249.516 522.74 250.832 515.669 253.135C508.599 255.438 501.857 258.727 495.773 263.004C489.689 267.28 484.427 272.708 480.645 279.123C476.698 285.537 474.725 292.939 474.889 300.341C474.889 308.236 477.356 315.473 481.467 321.723Z" fill="#263238"/>
<path d="M508.105 307.907V311.69H492.648V289.32H507.941V293.103H497.088V298.531H506.461V301.985H497.088V307.742H508.105V307.907Z" fill="#263238"/>
<path d="M511.555 311.69V289.32H521.421C522.407 289.32 523.394 289.485 524.216 289.978C525.038 290.472 525.861 290.965 526.518 291.623C527.176 292.281 527.669 293.103 527.998 294.09C528.327 294.913 528.491 295.9 528.491 296.722C528.491 298.202 528.163 299.518 527.34 300.669C526.683 301.821 525.696 302.643 524.381 303.301L529.478 311.69H524.545L519.941 304.124H515.666V311.69H511.555ZM515.83 300.34H521.256C521.585 300.34 522.079 300.176 522.407 300.012C522.736 299.847 523.065 299.518 523.23 299.189C523.558 298.86 523.723 298.531 523.887 298.038C524.052 297.544 524.052 297.051 524.052 296.557C524.052 296.064 523.887 295.571 523.723 295.077C523.558 294.584 523.394 294.255 523.065 293.926C522.736 293.597 522.407 293.268 522.079 293.103C521.75 292.939 521.256 292.774 520.927 292.774H515.666V300.34H515.83Z" fill="#263238"/>
<path d="M532.445 311.69V289.32H542.311C543.298 289.32 544.285 289.485 545.107 289.978C545.929 290.472 546.751 290.965 547.409 291.623C548.067 292.281 548.56 293.103 548.889 294.09C549.218 294.913 549.382 295.9 549.382 296.722C549.382 298.202 549.053 299.518 548.231 300.669C547.573 301.821 546.587 302.643 545.271 303.301L550.369 311.69H545.436L540.832 304.124H536.556V311.69H532.445ZM536.885 300.34H542.311C542.64 300.34 543.134 300.176 543.462 300.012C543.791 299.847 544.12 299.518 544.285 299.189C544.614 298.86 544.778 298.531 544.942 298.038C545.107 297.544 545.107 297.051 545.107 296.557C545.107 296.064 544.942 295.571 544.778 295.077C544.614 294.584 544.449 294.255 544.12 293.926C543.791 293.597 543.462 293.268 543.134 293.103C542.805 292.939 542.311 292.774 541.983 292.774H536.721V300.34H536.885Z" fill="#263238"/>
<path d="M563.025 311.854C561.38 311.854 559.9 311.525 558.585 310.868C557.269 310.21 556.118 309.387 555.132 308.236C554.145 307.249 553.487 305.933 552.994 304.617C552.501 303.301 552.172 301.821 552.172 300.505C552.172 299.025 552.501 297.545 552.994 296.229C553.487 294.913 554.31 293.597 555.296 292.61C556.283 291.623 557.434 290.801 558.749 290.143C560.065 289.485 561.545 289.156 563.189 289.156C564.833 289.156 566.313 289.485 567.629 290.143C568.944 290.801 570.095 291.623 571.082 292.775C572.068 293.926 572.726 295.078 573.22 296.393C573.713 297.709 574.042 299.19 574.042 300.505C574.042 301.986 573.713 303.466 573.22 304.782C572.726 306.098 571.904 307.413 570.917 308.4C569.931 309.387 568.78 310.21 567.464 310.868C565.984 311.525 564.505 311.854 563.025 311.854ZM556.447 300.505C556.447 301.492 556.612 302.479 556.941 303.301C557.269 304.124 557.598 304.946 558.256 305.769C558.914 306.591 559.571 307.085 560.229 307.413C561.051 307.907 561.874 308.071 563.025 308.071C564.011 308.071 564.998 307.907 565.82 307.413C566.642 306.92 567.3 306.427 567.793 305.769C568.286 305.111 568.78 304.288 569.109 303.301C569.438 302.479 569.602 301.492 569.602 300.505C569.602 299.518 569.438 298.532 569.109 297.709C568.78 296.887 568.451 296.064 567.793 295.242C567.3 294.584 566.478 293.926 565.82 293.597C564.998 293.268 564.176 292.939 563.025 292.939C562.038 292.939 561.051 293.104 560.229 293.597C559.407 294.091 558.749 294.584 558.256 295.242C557.763 295.9 557.269 296.722 556.941 297.709C556.612 298.696 556.447 299.518 556.447 300.505Z" fill="#263238"/>
<path d="M577.164 311.69V289.32H587.03C588.017 289.32 589.003 289.485 589.826 289.978C590.648 290.472 591.47 290.965 592.128 291.623C592.785 292.281 593.279 293.103 593.608 294.09C593.936 294.913 594.101 295.9 594.101 296.722C594.101 298.202 593.772 299.518 592.95 300.669C592.292 301.821 591.305 302.643 589.99 303.301L595.087 311.69H590.154L585.55 304.124H581.275V311.69H577.164ZM581.604 300.34H587.03C587.359 300.34 587.852 300.176 588.181 300.012C588.51 299.847 588.839 299.518 589.003 299.189C589.332 298.86 589.497 298.531 589.661 298.038C589.826 297.544 589.826 297.051 589.826 296.557C589.826 296.064 589.661 295.571 589.497 295.077C589.332 294.584 589.168 294.255 588.839 293.926C588.51 293.597 588.181 293.268 587.852 293.103C587.523 292.939 587.03 292.774 586.701 292.774H581.439V300.34H581.604Z" fill="#263238"/>
</g>
<defs>
<clipPath id="clip0_274_2804">
<rect width="614" height="702" fill="white"/>
</clipPath>
</defs>
</svg>
