<svg width="1460" height="184" viewBox="0 0 1460 184" fill="none" xmlns="http://www.w3.org/2000/svg">
<path d="M19.4399 136.973V26.6964H0V0H50.953V136.973H19.4399Z" fill="#FBFBFB"/>
<path d="M103.97 136.973V26.6964H84.53V0H135.483V136.973H103.97Z" fill="#FBFBFB"/>
<path d="M327.837 45.3839V136.973H298.37V69.2054H274.429V97.3393C274.429 111.304 271.427 121.708 265.425 128.554C259.559 134.988 251.169 138.205 240.255 138.205C236.299 138.205 232.479 137.726 228.796 136.768V113.357C235.071 115.137 239.778 114.247 242.916 110.687C245.371 107.402 246.599 102.542 246.599 96.1071V45.3839H327.837Z" fill="#FBFBFB"/>
<path d="M377.123 78.6518H417.026C415.934 74.2708 413.956 70.7113 411.091 67.9732C407.408 64.5506 402.77 62.8393 397.177 62.8393C391.174 62.8393 386.195 64.8244 382.239 68.7946C379.51 71.6696 377.805 74.9554 377.123 78.6518ZM444.242 93.2321V96.3125H376.1C376.1 102.61 377.941 107.812 381.625 111.92C385.172 115.753 390.219 117.67 396.767 117.67C401.678 117.67 405.635 116.78 408.636 115C410.955 113.768 413.07 111.235 414.979 107.402L442.809 110.277C439.671 120.271 433.805 127.937 425.211 133.277C417.708 137.795 408.09 140.054 396.358 140.054C380.806 140.054 368.665 135.673 359.934 126.911C350.794 117.738 346.224 105.964 346.224 91.5893C346.224 77.0774 350.862 65.0298 360.138 55.4464C368.869 46.6845 380.533 42.3036 395.13 42.3036C410.546 42.3036 422.619 46.8899 431.35 56.0625C439.944 65.2351 444.242 77.625 444.242 93.2321Z" fill="#FBFBFB"/>
<path d="M531.389 69.2054H506.833V136.973H477.366V69.2054H452.81V45.3839H531.389V69.2054Z" fill="#FBFBFB"/>
<path d="M592.325 136.973V45.3839H621.792V77.2143H654.738V45.3839H684.204V136.973H654.738V101.036H621.792V136.973H592.325Z" fill="#FBFBFB"/>
<path d="M777.014 55.6518V45.3839H806.481V136.973H777.014V125.884C770.875 135.33 761.871 140.054 750.003 140.054C735.951 140.054 724.56 135.399 715.829 126.089C706.962 116.643 702.528 105.211 702.528 91.7946C702.528 76.5982 707.235 64.2768 716.648 54.8304C724.969 46.4792 735.542 42.3036 748.366 42.3036C760.916 42.3036 770.466 46.753 777.014 55.6518ZM755.732 67.7679C749.32 67.7679 743.932 69.9583 739.566 74.3393C735.065 78.8571 732.814 84.4018 732.814 90.9732C732.814 97.5446 734.86 103.021 738.953 107.402C743.454 112.193 749.252 114.589 756.346 114.589C762.349 114.589 767.464 112.467 771.693 108.223C776.468 103.705 778.856 97.9554 778.856 90.9732C778.856 83.9911 776.605 78.378 772.103 74.1339C767.737 69.8899 762.28 67.7679 755.732 67.7679Z" fill="#FBFBFB"/>
<path d="M906.556 126.5V184H877.089V45.3839H906.556V56.2679C913.65 46.9583 923.131 42.3036 935 42.3036C947.96 42.3036 958.737 46.6161 967.331 55.2411C976.472 64.4137 981.042 76.3244 981.042 90.9732C981.042 105.759 976.199 118.012 966.513 127.732C958.328 135.946 948.028 140.054 935.614 140.054C922.654 140.054 912.968 135.536 906.556 126.5ZM927.838 67.7679C921.426 67.7679 915.969 70.0268 911.467 74.5446C906.829 79.1994 904.51 84.8125 904.51 91.3839C904.51 97.5446 906.693 102.952 911.058 107.607C915.696 112.262 921.289 114.589 927.838 114.589C933.84 114.589 939.092 112.467 943.594 108.223C948.369 103.705 950.756 97.8869 950.756 90.7679C950.756 84.0595 948.437 78.5149 943.799 74.1339C939.297 69.8899 933.977 67.7679 927.838 67.7679Z" fill="#FBFBFB"/>
<path d="M1091.27 45.3839H1120.32V136.973H1091.27V45.3839ZM1028.85 76.8036H1049.11C1059.89 76.8036 1068.14 79.6786 1073.87 85.4286C1078.92 90.494 1081.44 97.4762 1081.44 106.375C1081.44 116.095 1078.72 123.625 1073.26 128.964C1067.8 134.304 1059.41 136.973 1048.09 136.973H999.388V45.3839H1028.85V76.8036ZM1028.85 116.027H1040.93C1045.16 116.027 1048.16 115.205 1049.93 113.562C1051.84 111.92 1052.8 109.592 1052.8 106.58C1052.8 103.705 1051.84 101.515 1049.93 100.009C1048.02 98.503 1045.09 97.75 1041.13 97.75H1028.85V116.027Z" fill="#FBFBFB"/>
<path d="M1143.27 136.973V45.3839H1172.74V77.2143H1205.68V45.3839H1235.15V136.973H1205.68V101.036H1172.74V136.973H1143.27Z" fill="#FBFBFB"/>
<path d="M1257.97 136.973V45.3839H1287.44V81.7321L1317.32 45.3839H1353.95L1314.86 87.8929L1356.61 136.973H1318.54L1287.44 96.3125V136.973H1257.97Z" fill="#FBFBFB"/>
<path d="M1392.88 78.6518H1432.78C1431.69 74.2708 1429.71 70.7113 1426.85 67.9732C1423.17 64.5506 1418.53 62.8393 1412.94 62.8393C1406.93 62.8393 1401.95 64.8244 1398 68.7946C1395.27 71.6696 1393.56 74.9554 1392.88 78.6518ZM1460 93.2321V96.3125H1391.86C1391.86 102.61 1393.7 107.812 1397.38 111.92C1400.93 115.753 1405.98 117.67 1412.53 117.67C1417.44 117.67 1421.39 116.78 1424.39 115C1426.71 113.768 1428.83 111.235 1430.74 107.402L1458.57 110.277C1455.43 120.271 1449.56 127.937 1440.97 133.277C1433.47 137.795 1423.85 140.054 1412.12 140.054C1396.56 140.054 1384.42 135.673 1375.69 126.911C1366.55 117.738 1361.98 105.964 1361.98 91.5893C1361.98 77.0774 1366.62 65.0298 1375.9 55.4464C1384.63 46.6845 1396.29 42.3036 1410.89 42.3036C1426.3 42.3036 1438.38 46.8899 1447.11 56.0625C1455.7 65.2351 1460 77.625 1460 93.2321Z" fill="#FBFBFB"/>
</svg>
