<svg width="1756" height="941" viewBox="0 0 1756 941" fill="none" xmlns="http://www.w3.org/2000/svg">
<path d="M68.2155 81.1907C66.9284 85.5187 67.7864 83.5952 70.3606 86.4805C72.0767 88.404 75.5089 87.9231 73.7928 92.2511C72.9348 95.1364 69.9316 94.6556 67.7864 95.1365C58.7768 95.6174 46.335 87.9232 40.3286 99.9453C45.477 106.678 54.0575 97.5409 59.2059 101.869C62.2091 104.273 59.6349 108.12 57.4898 110.525C54.0575 113.41 50.6253 112.448 46.7641 112.929C41.6157 113.891 30.461 114.853 27.4578 119.662C24.8836 123.028 27.0288 126.394 25.7417 129.76C24.0256 133.607 18.8772 132.646 20.1643 138.897C24.0256 140.34 27.8868 139.859 31.3191 141.302C28.3159 154.286 5.57736 151.4 0 162.942C4.29028 167.27 18.4482 155.247 23.1675 153.805C30.032 151.881 36.4674 146.111 43.3318 143.225C47.6221 141.302 51.9124 138.416 56.2027 137.455C58.7768 136.974 60.922 137.455 63.4962 136.012C65.2123 135.05 66.9284 133.127 69.0735 133.127C74.6509 132.165 75.938 137.455 82.3734 133.607C90.0959 129.279 96.5313 123.509 105.112 129.76C110.26 133.607 111.547 134.569 118.412 134.569C124.847 134.569 125.705 138.416 130.425 141.783C134.286 144.187 136.86 146.111 139.005 150.919C142.437 158.614 139.005 170.636 136.86 177.849C133.428 189.871 143.295 192.276 145.87 202.374C147.157 207.183 146.728 220.167 140.292 220.648C136.431 221.129 136.002 211.511 132.57 220.648C131.283 224.976 131.712 228.823 128.708 233.151C125.705 237.96 121.415 240.845 117.983 245.654C114.55 250.944 108.973 256.234 106.828 262.004C105.97 264.89 106.399 265.851 105.112 268.256C103.396 270.66 101.68 271.141 102.109 274.507C102.538 277.393 104.254 277.874 104.254 280.759C104.254 282.682 102.109 285.568 102.538 287.972C102.538 291.338 103.825 291.819 104.254 293.743C105.112 297.109 104.683 298.071 104.254 301.437C103.825 304.803 103.396 308.17 103.825 311.536C108.544 312.978 113.692 314.421 116.267 319.711C118.841 324.52 117.125 331.252 119.27 336.542C121.415 341.832 123.56 346.16 124.418 351.93C124.847 354.816 123.56 357.701 124.418 360.105C125.276 363.952 126.992 362.991 129.137 365.395C134.715 372.608 129.566 389.44 142.008 391.844C142.437 388.959 141.15 387.516 140.721 385.112C139.863 382.226 140.292 379.341 139.863 376.456C139.005 372.128 138.576 365.395 136.86 361.548C135.144 357.22 122.702 335.58 132.57 335.58C140.721 335.58 142.437 355.296 145.441 361.548C146.299 363.952 148.015 365.876 148.873 368.28C149.302 370.685 148.444 373.089 148.873 375.494C150.16 380.303 154.45 381.745 157.453 384.631C164.747 392.806 160.027 402.904 164.318 411.56C168.608 420.216 175.043 426.949 182.766 432.719C189.201 437.528 198.64 445.703 206.363 445.703C215.372 446.184 221.378 439.933 229.101 446.665C231.675 449.07 232.533 451.474 234.678 453.398C237.682 456.283 245.404 463.015 249.265 463.496C252.698 463.977 256.988 462.534 259.991 463.496C265.139 465.42 264.281 469.748 265.568 474.076C266.855 478.404 270.288 480.808 271.575 484.655C273.291 488.983 272.862 491.388 276.723 494.754C279.726 497.158 284.017 499.082 287.02 501.967C290.023 504.372 294.742 511.104 299.462 508.7C303.323 506.776 302.036 500.525 302.465 496.677C306.755 496.677 310.616 495.716 314.049 498.601C317.481 501.486 317.052 506.295 319.197 510.623C323.916 520.241 320.913 530.339 315.336 538.515C310.187 546.209 305.039 552.46 301.178 561.116C299.891 564.002 299.033 564.963 298.604 568.81C298.174 573.619 299.891 571.696 301.178 575.062C302.465 579.39 299.891 583.718 298.175 587.084C296.458 591.412 293.455 601.03 300.32 601.992C300.32 601.992 305.468 609.205 305.468 609.686C307.613 613.533 307.613 617.861 308.471 621.708C309.758 628.44 311.903 632.768 314.907 639.02C317.481 644.31 318.339 649.6 320.484 654.408C322.629 658.736 326.061 662.583 328.206 666.911C331.639 673.163 331.639 674.125 337.645 674.606C344.51 675.087 346.655 677.491 351.803 682.3C362.529 691.918 371.109 698.65 367.248 714.038C363.816 728.465 365.103 744.334 368.964 758.28C371.109 765.012 370.68 772.226 371.538 779.439C371.967 782.805 371.538 786.172 371.967 789.057C372.396 792.423 374.112 795.308 374.542 798.675C375.4 804.445 374.112 811.178 374.542 816.948C374.542 819.353 374.971 821.757 375.4 824.643C375.829 827.047 377.974 829.932 378.403 831.856C379.261 837.626 375.4 839.55 377.974 845.802C378.832 848.206 380.119 850.13 381.406 852.534C382.693 854.938 382.264 857.343 383.551 859.747C385.267 864.556 389.128 865.037 389.987 870.327C390.416 873.212 391.274 881.387 390.845 883.792C389.987 886.196 383.98 889.562 385.696 893.89C386.554 895.814 389.987 895.333 391.703 896.776C392.99 898.218 393.848 901.584 394.277 903.508C396.851 914.568 396.422 929.957 407.577 935.247C415.728 939.094 427.741 945.826 431.173 932.361C432.46 927.071 429.886 921.782 430.744 916.492C431.602 910.721 438.038 906.874 438.467 901.104C438.896 895.333 432.031 891.486 431.173 885.715C430.744 879.945 435.464 876.097 435.034 870.327C434.176 863.113 428.17 859.266 428.17 851.091C432.031 851.572 433.747 857.824 438.038 852.534C439.754 850.13 438.467 846.282 440.183 844.359C441.899 841.474 444.473 842.916 447.476 842.435C455.628 841.474 469.786 830.894 464.637 819.834C463.779 817.429 455.199 809.735 460.776 808.773C461.634 808.773 465.924 811.659 467.641 812.139C470.644 812.62 473.218 812.62 475.792 811.659C481.37 809.254 485.66 802.522 487.805 796.751C489.521 791.461 489.95 790.5 493.811 786.652C502.392 778.958 503.679 767.417 503.25 755.876C502.821 745.296 501.105 734.717 513.976 733.274C516.55 732.793 518.266 733.274 520.411 732.312C523.414 730.87 523.843 729.908 526.846 728.946C533.282 727.503 534.14 726.061 537.143 719.328C539.288 714.519 541.862 709.71 544.008 704.421C546.582 697.207 546.153 691.437 547.011 684.223C547.869 678.453 549.156 673.163 549.585 666.911C550.014 661.141 548.727 655.37 552.159 651.042C555.591 646.233 559.453 644.791 562.027 639.501C565.888 630.364 569.749 624.593 569.749 614.014C569.749 610.167 571.036 602.953 569.749 599.106C568.033 593.336 564.601 596.221 560.311 594.778C551.301 591.893 552.159 577.947 542.291 576.505C538.43 576.024 534.14 576.986 530.279 576.505C524.272 575.543 520.84 576.505 515.263 576.505C516.121 569.772 508.827 566.406 504.537 564.002C501.963 562.559 503.25 562.078 499.818 562.559C498.531 562.559 496.815 564.002 495.527 564.482C492.524 565.925 490.379 567.368 487.805 569.772C486.947 565.925 490.379 563.04 489.521 559.193C478.366 553.903 473.647 563.521 465.924 570.253C463.779 564.483 466.783 562.078 470.215 558.712C473.218 555.827 474.076 554.384 474.934 549.575C476.221 541.4 472.36 532.744 470.215 525.05C468.499 517.836 465.924 518.317 459.918 518.317C455.628 518.317 451.767 518.317 447.905 517.356C432.889 513.028 427.741 494.754 413.583 489.464C406.719 486.579 400.283 486.098 393.419 484.655C390.416 484.174 386.983 483.213 383.98 481.77C379.261 480.327 377.974 476.961 374.971 474.076C371.538 471.19 368.964 471.671 365.103 473.114C362.529 474.076 353.948 478.404 359.526 481.289C359.955 483.693 360.813 487.541 359.526 489.464C357.809 492.83 353.948 491.868 352.661 494.754C348.8 491.388 347.942 486.579 349.658 481.289C350.945 476.961 356.093 473.595 355.664 468.786C351.374 467.824 348.371 473.114 344.939 475.037C341.506 476.961 338.074 477.442 334.642 480.808C333.355 482.251 331.639 483.213 330.781 484.655C329.494 486.579 329.494 488.983 328.206 490.907C326.919 492.349 324.774 492.83 323.487 492.83C319.626 493.792 321.771 494.273 318.768 491.869C314.049 488.502 313.62 488.983 308.471 490.426C304.61 491.388 300.749 492.83 296.887 494.273C294.313 495.235 296.458 497.639 292.597 495.235C291.31 494.273 289.165 491.388 288.307 489.945C285.304 485.617 284.017 481.77 284.446 476.48C284.875 471.671 286.162 466.862 287.02 462.054C287.449 458.206 289.594 450.993 287.878 447.627C283.159 437.528 270.288 448.108 263.423 444.742C257.846 442.337 261.707 438.971 264.71 435.124C268.572 429.834 268.143 428.391 269.43 422.14C270.288 417.812 275.865 413.965 275.865 409.637C276.294 404.347 267.284 400.019 263.852 399.057C259.133 397.615 252.698 398.576 250.552 404.347C247.978 410.599 251.839 413.003 245.833 417.812C242.401 420.216 238.111 422.621 234.678 424.063C228.243 425.987 223.524 426.949 220.52 420.216C216.659 412.041 214.943 404.828 215.801 395.21C216.659 387.516 218.804 380.303 220.52 372.608C221.378 369.723 221.378 367.319 221.808 364.433C222.666 359.624 220.949 361.067 225.24 359.624C231.246 357.22 231.675 357.22 236.394 352.411C240.256 348.083 244.975 348.083 250.123 347.602C254.843 347.602 258.275 350.007 262.136 349.526C267.714 349.526 269.001 343.755 273.291 342.313C278.01 340.389 283.159 343.274 287.02 345.198C291.31 347.121 296.887 343.274 300.32 345.679C304.181 348.564 302.465 354.816 303.323 359.144C303.752 361.548 305.039 363.472 305.468 365.876C305.897 368.28 304.61 371.166 305.039 373.57C305.468 379.341 310.187 380.784 314.049 377.898C318.339 375.013 319.626 368.761 320.055 363.472C320.484 355.777 316.623 350.488 315.765 344.236C314.478 333.657 326.061 334.618 330.781 330.771C335.929 326.443 337.216 317.787 343.222 314.421C347.942 311.536 353.948 310.574 356.951 304.322C359.526 298.552 352.661 281.24 361.242 278.835C364.245 277.874 365.103 281.24 367.677 281.24C370.251 280.759 373.683 275.469 375.4 273.065C379.69 267.775 381.835 266.813 387.841 266.332C393.419 265.851 398.996 263.928 401.57 257.676C402.428 255.272 401.999 252.387 403.286 249.982C405.432 245.654 406.29 248.059 409.722 246.616C415.728 244.692 420.448 238.922 426.883 236.998C429.886 236.036 438.467 232.189 440.183 235.075C443.186 240.364 432.031 238.441 430.315 242.769C426.454 253.348 443.186 240.845 444.902 239.884C449.621 237.96 461.634 238.922 459.489 229.304C456.486 229.304 454.341 229.304 451.338 230.266C447.047 231.228 447.905 232.189 445.331 228.823C441.899 224.495 441.47 220.648 444.902 216.801C448.763 211.511 451.338 209.588 442.328 208.626C439.754 208.145 436.751 208.145 434.176 209.107C432.889 209.588 429.028 213.435 427.741 213.435C421.735 211.511 431.173 204.779 432.889 203.817C437.18 201.413 443.186 200.451 447.905 199.489C456.915 197.565 469.357 205.741 477.937 199.97C480.082 198.527 481.37 196.123 483.515 194.68C485.66 193.237 488.663 192.757 491.237 191.795C495.527 189.871 501.105 187.467 501.963 181.696C503.679 171.117 490.379 174.964 484.802 174.002C485.231 172.078 488.234 170.155 488.234 168.712C488.663 164.865 486.518 164.865 485.231 162.461C482.228 157.171 484.373 151.881 485.66 146.591C486.947 141.302 485.66 134.569 481.37 132.646C474.934 130.241 473.218 137.455 469.357 140.34C466.783 142.263 461.205 144.187 459.06 140.34C457.344 137.455 458.202 129.76 456.915 126.394C454.341 119.181 451.767 118.7 444.902 117.738C440.612 117.257 435.893 116.776 431.602 117.257C426.883 117.738 423.022 120.143 422.164 125.913C421.735 128.318 423.022 130.722 422.164 132.646C420.877 135.05 417.015 135.05 415.299 136.493C408.864 139.859 413.583 142.263 414.441 148.034C415.299 154.286 411.438 158.614 406.719 161.018C402.857 163.422 399.854 165.346 396.851 168.712C395.135 170.636 393.419 171.117 392.132 174.002C391.274 176.406 391.274 179.292 389.987 182.177C387.412 186.505 383.551 192.757 378.403 191.314C374.112 190.352 372.396 185.062 372.825 180.734C373.254 175.926 377.116 171.598 376.258 166.308C374.971 160.056 368.964 161.499 364.674 160.056C359.096 158.133 354.377 154.766 349.658 151.4C345.368 148.034 339.79 149.477 338.074 142.744C335.071 130.241 347.084 126.875 354.806 123.028C359.526 120.623 366.39 119.181 370.251 114.372C374.112 110.044 371.967 107.64 377.545 107.159C384.838 106.678 396.422 105.716 401.57 98.9835C399.425 97.06 394.277 97.06 395.564 92.2511C398.996 92.2511 402.857 92.2511 406.29 91.7702C410.58 90.8085 414.441 89.3658 419.16 89.3658C423.88 89.3658 432.031 90.8085 435.464 86.4805C437.18 84.076 437.609 76.8627 437.18 73.9774C433.747 73.4965 430.315 71.0921 426.883 73.0156C423.88 74.9392 423.022 79.7481 420.448 81.6716C414.87 85.5187 411.009 81.1907 411.867 75.4201C407.577 75.4201 402.857 76.3819 401.141 71.0921C399.425 66.2832 404.144 60.9935 398.138 60.0317C393.419 59.5508 386.983 63.8788 386.554 69.1685C385.696 75.4201 388.27 79.2672 380.119 81.1907C374.971 82.6334 371.538 84.5569 366.819 86.9614C361.242 89.8467 360.813 85.5187 355.664 84.076C352.661 83.1143 348.8 84.076 345.797 84.5569C344.081 84.5569 339.79 86.9614 338.074 85.9996C335.929 85.0378 336.787 82.1525 333.355 82.1525C332.068 82.1525 327.777 84.5569 326.49 85.5187C323.487 87.4423 317.91 94.1747 314.478 91.7702C311.045 89.8467 312.332 83.5952 307.613 81.6716C303.323 80.2289 298.174 84.076 294.313 82.1525C291.31 80.7098 292.597 78.7863 290.881 76.8627C288.307 73.9774 284.017 75.4201 280.155 73.9774C276.294 72.5348 272.004 71.0921 268.143 70.1303C259.133 68.2068 247.978 67.7259 238.969 68.2067C234.249 68.2067 232.104 71.0921 228.243 73.0156C223.953 74.9392 218.804 74.9392 214.514 75.4201C205.504 76.3818 195.208 73.9774 187.056 70.6112C181.908 68.6876 176.76 70.1303 171.611 68.6877C167.75 67.7259 164.318 65.8023 160.027 64.3597C152.305 62.4361 141.579 62.917 133.428 62.917C123.131 62.917 114.121 65.3214 103.825 67.245C94.8152 69.1685 89.6669 76.8627 79.7992 74.9392C73.7928 76.8627 69.9316 74.9392 68.2155 81.1907Z" fill="#FBFBFB"/>
<path d="M290.033 395.211C288.746 395.692 283.597 399.539 284.885 401.463C286.601 403.867 291.32 400.501 293.036 399.058C298.613 394.73 303.762 398.097 309.339 400.501C311.913 401.463 314.487 401.944 316.633 403.867C317.92 404.829 320.923 407.714 321.352 409.157C322.21 412.042 317.92 412.042 318.778 415.408C320.065 418.775 326.071 417.813 328.645 417.813C330.361 417.813 332.078 417.332 334.223 417.813C336.797 418.294 338.084 419.737 340.658 418.775C341.087 416.851 342.803 414.928 342.803 413.004C342.374 411.08 339.371 409.638 337.655 409.157C334.223 407.233 329.932 405.791 326.929 403.867C323.497 401.463 320.494 398.577 316.633 397.135C311.484 395.211 306.336 395.211 300.759 393.768C297.755 392.807 297.326 393.769 294.323 394.73C293.465 394.73 291.32 394.249 290.033 395.211Z" fill="#FBFBFB"/>
<path d="M353.085 415.888C350.51 415.407 352.227 419.254 352.227 420.697C352.656 422.62 353.514 424.063 350.94 424.544C348.794 425.025 346.22 423.582 344.504 425.025C342.359 426.467 342.788 428.872 344.933 429.353C348.365 430.795 352.656 427.429 356.088 427.91C357.375 427.91 357.375 428.872 358.233 429.353C359.52 429.834 360.807 429.353 361.665 429.353C363.81 429.353 366.814 430.315 368.959 429.353C370.246 428.872 372.82 425.025 370.675 425.025C374.107 425.987 372.82 422.62 371.104 420.697C368.53 418.292 366.814 418.292 363.381 418.292C360.378 418.292 355.659 418.292 353.514 416.369" fill="#FBFBFB"/>
<path d="M324.762 425.985C321.758 425.504 319.613 425.985 317.039 427.909C317.897 428.39 318.755 427.909 319.613 428.39C320.9 428.871 320.9 429.832 321.329 430.313C322.616 431.756 324.333 432.237 326.907 431.756C329.052 431.275 329.91 430.313 327.765 428.39C326.049 426.947 323.904 428.39 324.333 425.023" fill="#FBFBFB"/>
<path d="M387.396 426.467C384.393 425.025 382.677 426.467 380.961 429.353C381.819 431.276 382.677 430.315 384.393 430.795C386.109 431.276 386.538 432.238 388.254 432.238C391.258 432.238 393.832 431.276 393.403 427.429C389.97 426.948 389.541 429.834 386.538 427.429" fill="#FBFBFB"/>
<path d="M491.663 197.086C485.656 197.567 483.94 207.665 480.508 211.512C479.221 212.955 473.644 215.359 477.505 216.802C480.937 218.245 484.798 214.398 488.66 214.878C491.663 215.359 493.379 217.764 496.811 217.283C499.385 216.802 504.105 213.917 503.676 210.551C503.246 205.742 498.527 208.146 495.953 206.703C494.666 205.742 494.237 203.818 493.808 202.375C493.379 199.49 494.237 200.452 494.666 198.047C495.095 196.605 496.811 195.162 493.379 195.162C491.234 195.162 490.805 196.124 489.518 198.047" fill="#FBFBFB"/>
<path d="M453.478 101.871C450.045 102.833 443.61 99.4666 440.607 101.39C438.891 102.352 438.891 104.756 440.178 105.718C441.894 106.68 445.326 104.756 447.042 104.275C450.045 103.795 455.194 103.795 457.768 105.718C460.342 107.642 461.2 112.931 463.774 115.817C467.207 119.664 471.068 121.106 475.787 121.106C477.503 121.106 480.935 121.587 480.077 118.221C479.648 116.298 475.787 116.779 474.929 115.336C474.5 114.374 474.5 110.527 474.929 109.565C477.074 107.161 479.648 111.008 480.935 111.97C483.51 113.412 489.087 113.412 489.945 109.565C490.374 107.161 489.087 106.68 488.229 104.756C486.942 102.352 486.942 101.39 486.942 98.5048C486.942 86.9635 497.238 95.6195 502.387 97.543C506.248 98.9857 511.825 94.1768 508.393 89.8488C506.248 86.9635 501.1 87.4444 498.955 84.0782C497.668 82.1546 495.951 79.2693 495.951 76.8649C495.951 74.9413 498.097 73.9795 498.097 72.5369C498.097 69.6515 492.948 67.2471 490.803 66.7662C486.942 65.8045 485.226 67.2471 482.652 63.4C480.077 59.072 480.506 57.1485 475.358 58.1102C471.497 58.5911 468.494 59.5529 464.632 57.6294C461.2 55.7058 459.913 52.3396 455.623 51.8587C451.332 50.897 449.616 52.3396 446.184 54.744C444.468 56.1867 438.891 60.0338 436.746 58.1102C433.313 55.2249 441.036 52.3396 441.036 50.8969C441.036 47.0498 433.742 50.897 432.026 51.8587C428.165 53.7823 425.162 56.6676 421.3 58.5911C417.01 60.5147 414.865 62.4382 419.584 65.3236C423.017 67.2471 426.02 66.7662 430.31 67.2471C433.742 67.728 437.604 68.6898 441.036 69.1707C444.468 69.6516 446.184 72.056 449.187 73.0177C453.478 73.9795 455.623 69.6516 458.626 68.6898C462.058 67.728 466.348 71.5751 468.494 74.4604C470.639 76.8649 471.068 80.2311 473.642 82.1546C475.358 83.5973 477.503 84.0782 479.219 85.5208C481.793 87.9253 483.51 91.2915 481.793 94.6577C480.077 98.0239 477.503 96.5813 474.929 95.1386C472.784 93.6959 470.639 92.2532 468.065 92.2532C466.777 92.2532 465.061 92.2533 463.774 93.215C462.487 93.6959 461.2 95.6195 460.342 97.0621C458.197 98.0239 456.052 100.909 453.478 101.871Z" fill="#FBFBFB"/>
<path d="M293.031 47.049C292.173 47.5299 290.886 48.0107 290.028 48.4916C288.312 49.4534 287.453 50.8961 285.737 51.8579C284.021 52.8196 281.876 53.3005 280.16 54.2623C277.586 55.705 275.441 58.5903 272.438 59.5521C273.296 60.5138 274.154 61.9565 275.441 62.4374C276.299 62.9183 277.157 62.4374 278.015 62.4374C278.444 62.4374 279.302 62.9183 279.731 62.9183C280.589 62.9183 280.589 62.9183 281.447 61.9565C281.876 60.9947 282.305 60.033 282.734 59.5521C284.021 58.5903 285.308 58.5903 287.024 58.5903C289.17 58.5903 290.886 58.5903 293.031 57.1476C295.176 55.705 297.321 55.2241 299.466 54.7432C301.611 54.2623 303.757 52.8196 305.902 52.3387C308.905 51.377 312.337 51.8578 315.34 51.3769C316.627 51.3769 320.918 50.8961 320.918 49.4534C320.918 46.5681 313.624 47.0489 312.337 46.5681C310.621 46.0872 308.905 45.6063 307.189 45.1254C305.473 44.6445 304.186 44.6445 302.469 44.6445C301.182 44.6445 300.324 44.6445 299.037 44.6445C298.179 45.1254 297.321 45.6063 296.034 46.0872C294.747 46.0872 293.889 46.5681 293.031 47.049Z" fill="#FBFBFB"/>
<path d="M301.18 57.6295C299.463 59.0721 300.751 59.0721 302.038 59.553C303.325 60.0339 305.47 60.5148 305.899 61.4766C307.186 63.881 304.612 63.881 302.896 64.3619C302.038 64.3619 298.605 63.4001 298.605 65.3237C298.605 66.7663 304.183 65.8045 305.47 65.8045C306.328 65.8045 308.044 67.2472 307.186 68.6899C306.757 69.1708 303.754 69.1708 303.325 69.1708C301.609 69.1708 299.892 68.6899 298.605 69.1708C296.889 69.6517 296.031 70.6134 296.031 72.537C296.031 78.3076 303.325 75.9032 306.757 76.865C309.331 77.8267 310.189 80.7121 312.763 81.193C315.767 82.1547 321.344 81.1929 323.06 77.8267C323.489 76.3841 323.489 74.9414 324.347 73.9796C325.634 73.0179 328.208 73.4988 329.924 73.4988C332.07 73.4988 334.644 73.0178 336.789 73.0178C338.076 73.0178 338.076 73.0179 338.934 73.9796C340.221 75.4223 341.937 75.9032 343.653 76.865C346.657 77.8267 349.66 77.3459 352.663 75.9032C353.95 74.9414 355.666 73.9796 356.953 73.0178C357.811 72.537 359.527 71.5752 359.527 70.6134C359.527 67.7281 353.95 67.7281 352.234 66.2854C350.518 64.3619 352.234 60.9957 353.521 59.0721C354.379 58.1104 355.237 57.6295 356.095 56.6677C356.524 56.1868 357.382 53.7824 356.953 52.8206C356.524 51.8588 353.95 52.3397 352.663 52.3397C350.947 52.3397 349.66 52.8206 348.802 54.2633C347.515 56.1868 347.944 60.9957 344.511 60.0339C342.795 59.553 341.937 57.6295 341.937 55.7059C341.937 55.225 341.937 54.2632 341.937 53.7823C341.508 52.8206 339.792 52.8206 339.363 52.8206C338.505 53.3015 337.647 54.2633 336.789 54.7441C335.931 55.225 335.073 55.7059 334.644 55.7059C332.928 55.7059 330.354 54.7441 328.208 53.7823C327.35 53.3015 326.063 52.3397 325.205 52.3397C323.918 51.8588 321.773 52.3397 320.057 52.3397C318.77 52.3397 318.341 52.8206 317.054 53.7823C315.338 54.7441 312.763 54.2633 311.047 54.2633C309.331 54.2633 307.186 54.2632 305.899 55.225C305.041 55.7059 304.183 55.7059 303.325 56.1868C302.896 56.6677 302.038 57.1486 301.18 57.6295Z" fill="#FBFBFB"/>
<path d="M571.042 9.54101C563.319 11.4646 556.026 16.7543 547.874 18.6779C541.868 20.1205 535.862 20.1205 529.855 22.0441C526.423 23.0058 521.704 27.3338 524.707 31.6618C528.139 36.9516 542.297 32.6236 547.874 33.5854C553.452 34.5472 560.316 40.3178 564.178 44.6458C567.61 48.9738 568.468 57.1488 568.897 62.9195C569.326 72.5372 561.603 79.2697 557.313 86.0021C550.878 97.0625 562.032 111.489 563.319 122.55C564.178 128.801 570.613 130.244 575.761 128.801C580.052 127.358 584.342 123.03 587.774 120.145C593.351 114.855 593.351 107.161 599.358 102.352C605.793 97.5434 611.371 96.5816 618.664 95.139C634.538 91.7728 647.409 77.827 664.141 78.3079C671.005 78.3079 678.299 79.7506 685.592 79.2697C689.883 78.7888 693.315 76.3844 687.738 73.9799C683.447 72.0564 679.586 72.5372 679.586 65.8048C679.586 60.0342 683.447 60.9959 687.309 62.9195C689.883 64.3622 695.889 70.6137 698.892 68.2093C703.612 64.843 697.176 61.4768 695.031 60.5151C692.028 59.0724 687.308 57.1489 688.167 52.34C689.454 47.0502 699.321 46.5693 703.612 45.1267C707.902 43.2031 713.05 39.8369 715.195 35.5089C717.769 30.7001 716.053 25.4103 717.77 20.1205C720.344 10.9837 733.214 15.7925 738.792 10.0219C740.937 7.61746 741.366 8.09836 738.363 6.6557C734.502 5.21303 728.495 7.61745 724.205 8.09834C717.77 8.57922 718.199 5.21303 713.479 2.3277C708.331 -1.03851 699.321 0.885025 692.886 0.885025C686.45 0.885025 680.015 0.88504 673.58 2.3277C664.141 4.73214 655.56 10.5028 645.693 10.5028C637.541 10.5028 629.39 8.09836 620.809 9.06013C610.083 10.0219 599.358 9.54102 588.632 9.06013C583.055 8.57924 575.332 8.09836 570.184 10.9837" fill="#FBFBFB"/>
<path d="M742.222 163.903C740.506 163.422 739.648 161.979 737.932 161.979C736.216 161.979 734.5 163.422 732.784 163.903C729.78 165.346 725.919 164.384 722.916 163.903C721.2 163.422 719.484 163.422 717.768 164.384C716.052 165.827 715.623 166.307 713.477 166.788C711.332 167.269 710.474 167.269 709.187 169.193C708.329 170.155 705.326 171.597 706.613 173.04C707.042 174.002 707.9 173.04 708.329 173.04C709.616 172.559 709.616 172.078 710.903 173.04C712.619 173.521 713.906 175.444 715.194 176.406C718.197 178.811 722.058 177.368 725.061 175.444C726.777 174.483 728.064 174.963 729.781 174.483C731.497 174.002 733.213 173.04 734.929 172.078C736.645 171.116 738.79 171.597 740.077 170.155C740.506 169.193 740.506 168.231 741.364 167.75C741.793 167.269 743.08 167.269 743.509 166.788L743.938 166.307C743.509 165.827 742.222 164.384 741.364 164.384" fill="#FBFBFB"/>
<path d="M744.369 170.158C742.653 169.196 740.937 172.082 740.079 173.524C739.221 174.486 736.647 174.967 736.647 176.41C736.647 178.814 739.221 177.852 737.505 180.738C736.647 182.18 734.931 183.623 734.502 186.027C734.073 187.951 734.073 190.836 736.647 190.355C739.221 190.355 739.65 186.989 741.795 186.508C745.227 186.027 749.518 189.394 752.521 186.027C754.237 184.104 755.524 180.738 754.237 178.333C753.379 175.929 750.376 174.967 748.231 174.005C746.944 172.563 746.086 169.677 744.369 170.158Z" fill="#FBFBFB"/>
<path d="M749.956 167.273C749.098 167.273 747.382 166.792 746.953 167.753C748.24 169.196 749.098 170.639 750.814 172.081C752.101 173.043 755.534 174.005 754.676 170.639C752.53 170.639 753.818 168.234 755.534 168.715C755.534 165.349 749.956 168.715 749.956 167.273Z" fill="#FBFBFB"/>
<path d="M759.367 151.881C758.509 153.805 759.796 156.69 760.654 158.133C761.083 159.095 761.512 158.614 761.941 159.576C762.37 161.018 761.083 161.98 761.083 162.942C761.083 165.827 763.657 165.827 765.373 166.308C767.089 166.789 767.518 167.751 768.805 169.193C770.522 171.117 770.522 172.079 770.522 174.964C770.522 176.888 770.522 179.292 768.376 180.254C766.66 181.216 765.373 180.254 763.657 182.177C762.799 183.139 762.799 184.101 762.799 185.544C762.37 187.467 761.083 187.948 760.225 189.391C762.37 190.352 769.234 189.872 767.518 194.199C766.66 196.123 764.515 196.604 762.799 197.085C761.512 197.566 758.08 198.527 757.651 199.97C756.793 202.375 761.941 201.413 762.799 201.413C766.231 200.451 769.664 198.047 772.667 196.604C775.67 195.161 777.815 196.123 780.818 196.604C783.821 196.604 788.541 195.642 790.686 193.238C791.544 192.757 792.402 191.795 792.402 190.352C792.402 189.391 791.115 189.391 790.686 188.429C789.399 186.024 792.402 185.544 791.973 183.139C791.544 181.216 789.399 182.177 787.683 182.177C785.108 181.696 784.25 178.811 783.392 176.888C782.534 174.002 782.534 169.674 780.818 167.27C779.531 165.346 776.957 164.384 775.241 163.904C774.383 163.423 771.809 162.942 770.951 161.98C769.663 159.576 772.667 158.614 773.525 157.171C774.812 154.286 771.809 154.286 770.522 154.286C769.664 154.286 768.376 154.286 767.947 153.324C767.518 152.362 767.518 150.439 766.66 149.958C766.231 149.477 764.515 150.439 764.086 150.439C762.37 148.996 760.225 149.958 759.367 151.881Z" fill="#FBFBFB"/>
<path d="M845.201 95.6231C843.914 98.9893 845.201 101.394 843.056 104.279C838.337 111.011 830.185 111.492 823.321 112.935C817.743 114.378 816.885 120.148 811.737 121.591C811.308 127.362 810.879 139.384 815.169 143.712C820.747 149.482 831.472 138.903 837.479 140.346C842.198 141.788 841.34 145.635 842.627 149.482C843.914 152.849 849.062 158.619 852.066 160.062C856.356 161.986 861.933 160.543 864.078 156.215C866.224 152.368 864.936 148.04 867.94 144.674C870.514 141.788 872.659 140.346 873.088 135.537C873.946 128.804 870.514 130.728 867.082 127.362C858.93 118.225 876.091 113.416 880.381 111.011C882.098 110.05 884.672 108.126 885.959 106.203C887.246 104.76 887.675 101.394 888.962 100.432C893.252 97.0657 891.536 106.203 890.678 108.607C887.675 115.339 882.098 122.553 888.533 129.766C894.11 136.018 900.546 129.285 906.552 128.804C909.555 128.323 914.704 127.843 917.707 128.804C919.852 129.766 923.713 134.575 922.426 136.979C920.71 140.826 913.417 137.46 910.842 136.979C909.126 136.498 900.975 135.537 899.688 136.979C897.972 139.865 901.833 139.865 902.691 141.307C903.549 142.269 903.12 145.154 903.12 146.597C903.12 150.444 901.404 153.81 897.543 152.368C895.397 151.406 892.823 147.559 890.249 149.963C888.533 151.406 888.104 157.658 888.533 160.062C888.962 162.947 890.678 168.237 887.246 170.641C885.53 172.084 880.381 171.122 878.236 170.641C875.233 169.68 873.088 167.756 870.085 168.237C867.511 168.718 864.078 171.122 861.075 172.084C854.211 174.008 845.201 173.046 837.908 173.046C836.621 169.68 834.046 165.352 834.905 161.505C835.763 158.619 839.195 155.253 836.621 151.887C834.904 149.963 829.756 150.925 828.04 153.33C825.037 157.177 827.611 159.581 828.469 163.428C829.327 166.314 829.327 171.122 827.611 173.527C825.037 176.893 820.747 174.969 817.314 175.931C815.598 176.412 813.024 176.893 811.737 178.817C810.879 180.74 811.737 183.145 809.163 184.587C806.16 186.511 802.727 185.549 799.724 188.434C794.576 193.243 789.857 199.014 784.279 202.861C780.847 205.265 775.699 205.746 771.408 206.708C767.118 207.67 764.115 208.632 759.396 209.112C759.396 212.96 758.966 214.883 761.112 217.768C763.257 220.654 765.831 223.058 767.547 226.424C771.408 233.157 771.837 241.332 763.257 243.736C755.963 246.141 747.383 242.294 739.66 242.294C737.086 242.294 731.938 241.813 730.651 245.179C728.935 249.026 733.654 252.873 735.37 255.278C736.657 256.72 739.231 258.163 740.518 260.087C743.093 264.415 740.089 272.59 737.944 276.918C737.086 278.841 733.225 282.207 732.796 284.131C731.509 292.306 740.947 297.115 746.096 298.558C750.815 299.519 759.396 302.405 764.115 300.962C769.263 299.038 774.412 290.382 776.128 285.093C779.131 276.437 777.844 272.109 785.566 267.3C788.14 265.376 792.002 265.376 794.147 262.491C796.721 259.606 796.292 254.316 798.866 251.911C802.727 248.545 812.166 250.95 816.885 248.064C824.608 243.736 825.895 241.332 834.046 247.583C841.34 252.873 847.775 259.606 854.64 264.895C859.788 269.223 858.072 268.743 859.788 275.475C860.646 279.322 863.22 286.054 866.224 288.459C870.085 284.131 873.517 278.841 871.801 272.59C874.375 272.59 877.378 272.59 879.952 272.109C883.814 255.278 844.343 255.759 846.917 236.042C851.637 234.6 852.495 237.966 856.356 239.408C858.93 240.851 862.791 240.37 865.365 242.294C868.798 244.698 868.798 247.103 871.801 249.988C873.946 251.911 876.52 251.911 879.094 253.835C888.962 261.529 879.952 283.65 900.975 281.727C893.681 286.054 901.404 294.23 903.12 300.481C903.549 294.23 908.268 290.382 908.268 283.169C908.268 275.475 904.407 273.07 912.559 270.185C917.707 268.262 923.284 268.262 928.004 266.338C935.726 263.453 934.439 262.972 932.294 254.316C931.436 250.95 929.291 251.431 930.578 247.103C931.436 244.698 935.726 241.813 937.013 239.889C940.016 234.6 941.732 224.501 949.026 224.501C956.748 224.02 953.745 232.676 958.036 236.523C961.897 239.889 970.048 238.447 971.764 233.157C959.323 229.31 974.768 225.463 978.2 223.539C980.345 222.096 983.777 216.326 986.78 219.211C990.213 222.577 983.777 227.867 983.348 229.791C981.632 238.447 987.638 237.966 992.787 243.255C997.935 248.545 1000.08 257.201 1003.94 263.934C996.648 264.415 988.068 264.895 981.203 261.529C972.622 257.201 969.19 253.354 959.323 257.201C956.319 258.163 952.887 260.087 950.313 262.01C949.455 262.491 948.597 265.376 947.31 265.857C945.594 266.819 943.449 265.376 941.732 265.857C934.01 269.223 932.294 272.59 923.284 273.071C923.713 276.918 927.575 275.475 928.862 278.841C929.72 281.246 928.862 286.054 928.862 288.459C928.862 297.115 929.72 297.115 937.442 297.596C946.881 298.077 949.455 297.596 957.178 303.847C966.187 311.061 966.187 302.885 973.481 297.596C982.061 301.443 973.481 310.099 971.335 315.389C969.19 320.198 970.906 326.449 969.19 330.296C965.329 338.952 950.313 334.143 943.449 334.143C938.729 334.143 933.152 335.105 928.862 333.181C923.713 330.777 920.281 326.449 914.275 324.525C906.552 322.121 891.107 318.755 887.246 330.296C888.533 330.777 889.82 332.701 890.678 333.662C887.675 339.433 877.807 335.586 873.517 332.701C867.511 328.373 866.653 326.449 859.359 324.045C852.066 321.64 845.201 318.274 841.769 310.58C838.766 303.847 840.482 297.115 833.617 293.749C830.185 291.825 829.327 292.306 825.895 293.749C821.605 295.672 822.463 298.077 816.456 298.558C810.021 299.038 803.585 298.077 797.15 298.558C791.144 299.038 785.137 299.519 780.418 302.886C777.415 304.809 776.557 308.175 771.837 309.137C768.834 309.618 764.973 309.618 761.97 309.137C755.105 308.175 743.092 301.924 737.515 311.061C734.512 315.389 737.086 318.274 732.796 322.121C729.364 325.487 724.215 326.449 721.641 331.258C716.493 340.876 724.644 347.127 714.348 354.34C704.909 361.073 700.619 363.477 695.041 374.538C690.322 383.675 682.171 390.407 677.88 400.025C674.877 406.757 677.022 413.97 677.022 420.703C677.022 436.091 665.009 443.305 673.59 458.693C677.022 464.464 682.17 469.273 685.174 475.524C688.177 481.776 688.606 489.951 691.18 496.202C695.899 508.705 715.206 525.536 726.36 530.826C735.37 535.154 740.089 531.788 746.954 527.941C753.818 524.094 760.254 525.056 767.976 525.536C779.56 526.017 786.424 510.629 800.153 517.842C806.589 521.208 805.731 526.498 813.453 528.422C820.318 529.864 826.753 528.422 830.614 537.078C835.763 548.138 828.898 559.679 828.898 570.74C828.469 581.8 837.908 581.8 841.34 591.899C843.914 599.593 843.914 607.768 846.917 614.981C852.924 629.889 855.069 637.583 849.062 653.933C844.343 666.436 842.198 681.344 848.633 693.847C855.927 708.274 857.643 721.738 859.788 738.089C860.646 745.302 860.217 752.996 862.791 759.248C865.795 766.942 872.659 774.155 874.804 782.33C876.949 790.986 873.517 800.123 876.949 808.779C880.81 817.435 885.959 815.992 893.252 815.031C905.265 813.107 919.423 815.511 930.149 808.298C935.297 804.451 938.729 800.604 942.162 794.352C946.881 786.658 949.884 784.254 956.748 778.964C963.184 774.155 967.045 768.384 967.474 759.248C967.474 748.668 965.329 745.783 974.768 740.012C980.774 736.646 986.351 733.761 985.922 724.143C985.493 716.93 980.774 710.197 983.348 702.503C988.497 684.229 1012.52 679.42 1016.81 661.147C1020.67 645.277 1013.81 624.118 1011.66 608.73C1007.37 576.03 1032.69 562.084 1051.13 542.848C1061 532.75 1067.01 515.919 1073.44 502.454C1076.02 497.164 1079.88 490.912 1077.73 485.142C1076.02 479.852 1069.58 475.524 1064.86 476.486C1057.57 477.929 1053.28 480.814 1045.13 480.333C1029.25 479.852 1027.54 465.906 1015.95 456.289C1005.23 447.633 1002.65 434.168 994.503 422.146C988.926 413.971 991.071 410.123 990.213 400.506C989.355 391.85 984.635 390.407 978.629 385.598C973.91 381.751 972.622 378.385 970.906 372.614C968.761 366.363 963.184 358.188 962.326 351.936C961.468 345.204 966.616 343.761 970.906 347.608C972.193 349.051 970.906 352.898 973.91 353.86C976.055 354.34 977.342 350.974 979.487 350.012C981.632 357.707 982.49 366.363 985.493 373.576C988.068 379.827 992.358 385.598 994.503 392.331C997.077 399.544 998.364 401.948 1003.94 407.238C1009.52 412.528 1014.67 419.26 1017.67 426.954C1021.96 436.572 1024.11 463.021 1035.69 466.387C1041.27 467.83 1048.13 460.617 1053.71 459.174C1061.86 457.25 1064.86 456.289 1070.87 449.556C1076.88 442.343 1085.03 438.977 1093.18 434.168C1097.9 431.763 1103.48 431.282 1106.91 425.993C1109.48 422.146 1109.05 416.856 1110.77 412.528C1113.34 405.795 1124.93 397.62 1119.78 388.483C1115.06 380.308 1104.76 384.636 1101.76 372.614C1096.18 371.652 1092.32 376.461 1088.03 378.866C1082.02 382.713 1077.73 383.194 1070.87 379.827C1061.43 375.019 1063.58 370.691 1060.57 361.554C1058.86 355.783 1052.85 352.417 1054.14 345.684C1064.43 345.204 1066.58 347.127 1072.59 356.264C1076.45 362.516 1079.45 368.286 1086.74 368.767C1093.18 369.248 1099.19 364.92 1105.19 366.363C1111.2 367.805 1115.06 375.019 1121.5 376.942C1128.36 378.866 1135.65 376.942 1142.09 380.308C1144.66 381.27 1146.81 384.156 1149.38 385.117C1152.81 386.079 1156.68 383.194 1159.25 383.675C1165.69 385.117 1167.4 393.292 1171.26 399.063C1176.84 407.238 1180.27 405.315 1188.42 406.276C1198.29 407.238 1195.29 412.047 1196.15 421.184C1197 429.84 1201.72 436.091 1204.73 443.786C1207.73 451.48 1212.45 459.174 1215.02 466.868C1217.6 474.562 1218.03 482.256 1220.6 489.951C1223.6 498.126 1227.89 506.301 1235.19 498.607C1237.76 496.202 1239.05 490.912 1241.19 488.027C1243.77 484.661 1247.63 481.776 1249.35 477.928C1251.92 471.196 1250.2 462.059 1250.63 454.846C1251.49 444.266 1255.78 441.862 1264.36 437.534C1267.36 436.091 1272.08 434.168 1275.09 431.282C1278.95 426.954 1278.09 422.626 1280.24 418.298C1283.67 411.566 1295.25 406.757 1302.12 407.238C1314.13 407.719 1320.56 416.856 1325.71 428.397C1327.43 432.244 1330.43 444.266 1333.86 445.228C1339.01 446.671 1342.02 436.091 1346.31 446.19C1348.02 450.037 1345.88 454.365 1346.73 458.212C1347.59 463.021 1351.45 465.425 1353.17 469.753C1355.74 477.928 1350.17 484.661 1351.03 492.355C1351.88 498.126 1357.46 501.973 1360.03 507.263C1366.04 521.689 1369.47 533.231 1380.63 543.81C1399.93 561.603 1389.64 529.383 1384.49 519.766C1378.48 507.263 1362.18 503.416 1362.61 486.104C1363.04 478.409 1366.47 473.12 1364.75 465.425C1370.76 465.906 1378.48 472.639 1382.34 477.928C1384.06 480.333 1385.78 484.661 1387.92 486.104C1390.92 488.027 1393.5 485.623 1396.07 488.989C1397.79 491.393 1393.93 496.683 1398.22 498.607C1400.79 500.049 1404.22 495.721 1405.94 493.798C1410.66 488.989 1418.38 483.699 1421.39 477.928C1426.11 469.273 1422.67 459.655 1417.95 452.442C1412.38 443.786 1402.94 443.786 1396.07 436.572C1384.06 423.588 1390.07 400.506 1408.94 408.681C1411.95 410.123 1411.09 413.009 1414.95 413.49C1419.24 413.97 1423.53 409.643 1426.53 407.719C1429.54 405.795 1431.68 403.872 1434.69 402.429C1438.12 400.987 1441.98 401.948 1445.41 400.987C1451.42 398.582 1457.42 389.445 1460.43 383.675C1463 377.904 1466.86 370.691 1469.44 364.439C1472.01 358.188 1472.87 350.012 1469.87 343.761C1468.58 340.876 1466 339.433 1465.15 336.548C1464.29 333.181 1466 328.853 1464.29 325.487C1461.29 318.755 1451.85 318.274 1447.56 312.022C1441.98 303.366 1448.41 300.962 1450.56 293.268C1450.56 292.787 1452.28 290.863 1452.28 290.382C1445.84 286.054 1431.68 291.825 1428.68 285.574C1426.11 279.803 1432.54 272.59 1437.26 271.628C1441.55 271.147 1441.12 273.551 1443.7 274.513C1447.13 275.956 1447.99 277.399 1453.13 276.918C1456.57 276.918 1460.86 274.994 1463.86 274.994C1469.01 275.475 1466.86 276.918 1470.3 281.246C1475.44 287.497 1482.74 288.459 1484.88 297.596C1485.31 299.519 1484.88 304.809 1485.74 306.252C1488.31 310.58 1502.47 311.541 1506.33 309.618C1523.92 300.481 1490.03 284.612 1485.31 280.765C1477.16 274.513 1483.59 269.704 1484.88 261.048C1485.74 255.759 1484.02 255.759 1487.89 252.873C1490.46 250.95 1495.18 252.392 1497.75 249.507C1505.05 242.294 1502.9 216.326 1502.04 205.746C1500.33 189.877 1482.31 180.259 1469.87 175.45C1463.86 173.046 1458.71 171.603 1457.85 162.947C1457.42 158.138 1459.14 157.177 1460.43 153.33C1461.29 149.963 1460.86 144.193 1462.14 141.307C1465.58 134.094 1475.87 136.498 1483.17 136.498C1488.31 136.498 1493.03 134.575 1497.32 134.094C1506.33 133.132 1513.2 142.75 1516.63 132.171C1517.92 128.323 1512.77 124.957 1516.63 120.148C1519.2 117.263 1526.07 119.187 1529.07 120.148C1539.37 123.034 1542.37 123.034 1547.95 112.935C1563.39 121.591 1550.95 141.788 1550.95 155.734C1550.95 165.352 1553.1 174.008 1559.53 180.259C1566.4 187.473 1571.97 186.03 1574.55 198.052C1585.7 196.129 1584.42 179.297 1580.56 171.603C1578.41 167.756 1576.26 160.543 1574.12 157.177C1572.4 154.772 1568.54 153.81 1567.26 151.406C1562.96 143.231 1568.54 135.056 1576.69 132.171C1579.7 131.209 1583.99 133.132 1586.99 132.171C1593 130.728 1594.71 127.843 1599.43 123.515C1602.44 120.629 1612.73 115.82 1611.87 110.05C1610.16 101.875 1595.57 108.126 1591.28 102.836C1583.13 93.6995 1602.01 96.104 1607.15 97.5466C1614.88 99.4702 1620.45 103.798 1628.61 100.432C1631.61 86.9671 1618.74 90.3333 1611.45 90.8142C1600.29 91.2951 1595.57 85.5244 1585.27 81.6773C1576.26 78.3111 1566.4 77.3493 1556.96 74.9449C1544.95 72.0596 1532.08 73.9831 1520.49 70.6169C1522.64 71.5787 1522.64 73.5022 1523.92 74.464C1510.62 80.2347 1487.46 73.5023 1473.73 71.0978C1463.86 69.1743 1455.28 66.2889 1444.12 66.7698C1432.97 67.2507 1428.25 62.9227 1417.52 59.0756C1409.8 56.6712 1401.65 57.1521 1393.5 57.1521C1389.64 57.1521 1377.62 54.7476 1374.19 57.1521C1369.47 60.9992 1374.62 65.3272 1371.19 68.6934C1363.9 74.9449 1345.02 68.2125 1337.73 65.808C1329.57 62.9227 1322.28 56.1903 1314.13 53.7859C1299.11 49.9388 1281.95 57.1521 1267.36 53.7859C1260.07 52.3432 1255.78 48.4961 1248.06 48.4961C1240.76 48.4961 1233.47 52.3432 1226.61 51.3814C1227.04 44.1681 1236.47 43.6872 1238.62 35.993C1230.04 36.9548 1221.03 33.1077 1212.45 34.0695C1203.87 35.0313 1197 31.665 1189.71 31.665C1181.13 31.665 1175.98 39.3593 1168.69 40.321C1160.97 41.2828 1152.39 37.9166 1144.23 38.3975C1146.81 52.8241 1132.65 49.9388 1122.35 53.305C1124.5 66.2889 1110.77 63.4036 1104.33 65.808C1106.91 74.464 1113.77 72.5405 1112.49 85.5244C1111.63 95.1422 1104.76 102.836 1099.19 92.7378C1094.04 83.6009 1098.33 51.8623 1080.31 55.7094C1079.02 63.8845 1095.75 85.0435 1076.45 84.0818C1064.86 83.6009 1055 69.6552 1042.55 71.5787C1044.27 73.9831 1046.84 76.3876 1049.42 78.792C1044.7 82.1582 1039.12 80.2347 1033.12 80.7156C1028.83 81.1965 1024.96 83.6009 1020.67 84.0818C1013.81 84.5627 1006.09 80.7156 999.222 83.6009C996.219 85.0436 994.932 89.3715 992.358 90.3333C988.068 91.776 984.206 88.4098 979.916 90.8142C975.197 93.2186 971.335 99.4702 966.616 102.356C954.603 109.569 944.307 102.356 935.297 92.7378C938.729 88.8907 972.193 93.2186 967.474 83.6009C964.042 75.4258 936.584 78.792 929.72 76.8685C916.849 73.0214 911.701 63.8845 897.543 65.3272C882.527 66.7698 852.495 77.3494 845.201 95.6231Z" fill="#FBFBFB"/>
<path d="M1344.16 523.126C1342.87 522.164 1339.44 521.202 1339.86 524.568C1339.86 526.011 1342.01 526.973 1342.87 527.934C1343.73 529.377 1344.58 530.82 1345.87 531.781C1347.59 534.186 1349.73 536.109 1351.45 538.033C1353.59 540.437 1357.03 542.842 1357.88 545.727C1358.31 547.17 1357.88 548.612 1358.31 550.055C1358.74 551.498 1360.03 553.421 1360.89 554.383C1362.6 556.788 1364.75 559.192 1366.46 561.596C1367.32 563.039 1367.32 564.482 1368.18 566.886C1369.9 573.138 1372.47 579.389 1376.33 583.717C1379.76 587.564 1382.77 590.931 1385.77 595.259C1387.06 597.663 1388.34 601.029 1391.35 600.548C1393.92 600.067 1395.64 596.22 1397.35 594.297C1398.64 592.854 1399.07 593.335 1399.5 591.411C1399.93 589.488 1399.93 586.603 1399.93 584.198C1399.5 579.389 1397.35 575.061 1393.92 571.695C1390.49 568.81 1384.91 565.444 1382.77 561.116C1381.48 558.23 1381.48 555.345 1379.76 552.46C1377.62 549.574 1374.19 548.613 1371.61 546.208C1369.47 544.285 1366.89 541.88 1365.18 539.476C1361.75 535.629 1360.89 529.377 1355.31 527.934C1351.88 527.934 1344.58 527.453 1344.16 523.126Z" fill="#FBFBFB"/>
<path d="M1399.93 611.13C1400.78 615.458 1407.65 614.977 1410.65 615.458C1415.37 615.939 1419.66 617.862 1424.38 618.824C1429.96 620.267 1435.11 621.709 1441.11 622.671C1444.12 623.152 1449.69 625.076 1452.27 624.114C1459.99 622.19 1447.12 617.862 1444.97 616.901C1439.82 614.496 1434.68 610.168 1429.1 610.649C1427.81 610.649 1426.95 611.611 1425.67 612.092C1420.95 614.015 1415.8 610.168 1411.08 608.725C1408.51 607.764 1401.64 605.359 1399.93 609.206C1399.5 609.206 1399.93 610.168 1399.93 611.13Z" fill="#FBFBFB"/>
<path d="M1461.69 516.878C1461.26 521.206 1456.97 525.053 1453.53 526.496C1450.96 527.458 1447.53 527.458 1446.24 530.343C1444.95 532.748 1446.24 534.671 1444.52 537.557C1440.66 543.327 1433.8 542.846 1429.51 546.693C1427.79 548.136 1427.36 550.06 1425.22 550.541C1423.07 551.502 1420.5 550.06 1418.35 549.579C1417.5 553.907 1422.64 556.792 1423.93 560.158C1425.22 564.005 1423.93 567.852 1424.79 571.7C1425.65 574.585 1429.08 580.356 1431.65 581.317C1435.09 582.76 1438.95 581.317 1442.38 582.76C1444.95 583.722 1447.53 585.164 1450.53 586.607C1451.39 587.088 1453.96 589.012 1455.25 589.012C1458.68 589.492 1458.68 585.645 1459.11 582.279C1459.54 577.47 1459.54 573.142 1462.97 568.814C1465.12 566.41 1468.12 565.448 1469.41 562.082C1470.27 559.677 1469.41 556.311 1471.12 553.907C1472.84 551.502 1475.84 553.426 1476.7 550.06C1477.56 544.289 1465.55 542.365 1470.27 534.19C1471.98 530.824 1474.13 531.786 1474.56 526.977C1474.56 523.611 1474.13 522.168 1471.98 520.245C1471.12 519.283 1469.84 518.802 1468.55 517.84C1467.69 516.878 1467.69 514.955 1466.83 513.993C1464.69 512.55 1462.54 514.474 1461.69 516.878Z" fill="#FBFBFB"/>
<path d="M1534.64 503.415C1534.21 507.262 1535.49 510.147 1535.49 513.513C1535.49 517.361 1531.2 518.803 1532.49 523.131C1532.92 525.536 1537.64 529.383 1539.78 529.864C1541.07 530.345 1542.79 528.902 1544.07 529.383C1546.65 530.345 1545.79 532.268 1547.08 534.192C1548.36 536.115 1548.36 536.596 1550.94 536.596C1553.08 536.115 1554.8 534.673 1557.37 534.673C1563.38 534.192 1562.95 534.192 1563.38 527.459C1563.81 520.246 1567.67 521.689 1571.1 516.399C1574.11 511.59 1571.53 506.3 1568.1 502.934C1566.81 501.491 1565.96 500.529 1565.53 499.087C1565.1 498.125 1565.53 496.201 1564.67 495.721C1563.38 493.797 1559.09 493.797 1556.52 494.278C1553.08 494.759 1553.51 495.721 1551.37 497.644C1548.79 499.568 1545.79 500.049 1542.79 501.01V502.934C1542.79 503.896 1541.93 504.377 1541.07 504.377C1540.64 503.896 1534.64 502.934 1534.64 503.415Z" fill="#FBFBFB"/>
<path d="M1556.09 571.219C1557.8 573.142 1561.24 572.661 1562.95 575.066C1564.67 577.47 1563.81 580.836 1563.81 583.722C1562.52 583.722 1561.24 583.722 1559.95 583.722C1560.81 588.53 1565.53 590.454 1568.96 590.935C1572.39 591.416 1574.97 592.858 1577.97 594.301C1581.83 596.225 1587.41 596.706 1590.41 599.591C1592.56 601.514 1597.27 607.766 1596.42 611.613C1592.98 611.132 1589.12 612.575 1589.55 616.903C1590.41 622.193 1595.13 619.788 1598.99 620.75C1603.71 621.712 1607.57 627.482 1612.29 627.963C1617.01 628.444 1618.73 625.078 1620.87 621.231C1623.87 616.422 1626.02 616.903 1629.88 620.269C1632.88 623.154 1635.46 625.559 1637.17 629.406C1638.89 633.253 1639.75 637.1 1643.61 639.024C1647.04 640.947 1651.76 641.428 1655.62 641.909C1657.34 642.39 1659.05 641.909 1660.77 641.909C1662.92 630.849 1644.9 628.925 1641.46 621.712C1640.18 619.307 1639.32 613.537 1640.61 610.651C1642.32 606.323 1646.18 605.362 1641.89 599.591C1634.6 590.454 1622.16 591.897 1614.01 584.202C1608 578.432 1598.56 573.623 1590.41 573.142C1584.83 572.661 1583.97 575.066 1580.97 578.913C1578.83 581.798 1577.11 583.241 1574.11 581.798C1569.82 579.394 1569.39 574.104 1567.24 569.776C1566.81 569.295 1566.38 568.333 1565.96 567.852C1564.67 566.41 1562.52 565.929 1560.38 565.929C1559.09 565.929 1556.95 565.929 1555.66 566.89C1554.37 568.814 1555.66 570.257 1556.09 571.219Z" fill="#FBFBFB"/>
<path d="M1571.95 674.61C1565.09 667.878 1570.24 661.626 1575.38 655.856C1577.53 653.451 1581.39 650.566 1577.96 647.681C1575.81 646.238 1572.38 645.757 1570.24 645.757C1567.23 645.757 1563.8 645.276 1560.37 645.757C1553.93 646.719 1547.93 651.047 1542.35 655.375C1541.06 656.337 1539.35 657.298 1538.06 658.741C1535.06 661.626 1536.34 662.107 1535.91 664.512C1535.06 668.84 1532.91 674.61 1527.33 670.763C1523.04 667.878 1525.19 661.145 1518.32 662.588C1514.03 663.069 1511.46 666.916 1508.88 670.282C1506.74 673.168 1507.17 673.648 1504.17 675.572C1500.73 677.496 1499.02 677.015 1499.02 680.862C1499.02 684.228 1503.31 684.709 1499.02 686.632C1496.44 687.594 1493.44 685.19 1491.72 683.747C1491.72 694.327 1483.57 703.944 1474.56 705.868C1467.7 707.311 1462.12 706.83 1455.68 709.715C1451.39 711.639 1446.68 713.081 1442.81 715.486C1439.38 717.409 1433.8 719.333 1431.23 722.218C1427.8 726.065 1429.09 731.355 1429.94 735.683C1431.66 746.743 1432.95 758.285 1432.52 769.345C1432.09 777.52 1433.8 786.657 1432.95 794.351C1432.09 802.045 1424.37 806.373 1423.51 814.548C1430.8 819.838 1437.67 813.106 1444.1 809.74C1453.54 804.45 1465.12 808.778 1474.99 803.969C1482.71 800.122 1484.43 791.466 1493.87 792.428C1505.45 793.389 1515.75 791.466 1527.33 791.947C1530.34 801.084 1532.48 816.472 1544.06 806.854C1546.21 804.931 1556.08 798.198 1552.22 806.854C1550.5 810.701 1546.21 810.701 1545.78 815.991C1547.93 815.991 1550.07 815.029 1552.22 815.991C1553.07 822.243 1555.65 823.685 1554.36 830.418C1553.5 835.707 1550.93 840.035 1556.94 841.478C1562.08 842.921 1566.8 841.478 1571.52 840.035C1573.67 839.074 1576.24 838.593 1578.39 839.555C1580.96 840.516 1579.24 842.921 1583.11 842.921C1586.11 842.921 1586.97 839.555 1589.54 838.593C1592.54 837.631 1594.26 839.555 1596.84 839.555C1603.27 840.036 1605.42 836.188 1607.13 830.418C1610.99 817.434 1621.29 813.587 1629.44 803.969C1633.73 798.679 1637.59 794.351 1642.31 790.023C1647.46 785.695 1648.32 782.329 1649.61 775.597C1651.32 765.017 1655.61 756.842 1653.47 745.782C1650.46 732.798 1644.03 718.852 1638.02 706.83C1635.45 701.54 1631.59 700.578 1627.73 696.25C1623.43 691.441 1624.72 689.037 1625.58 682.785C1626.44 675.091 1622.15 670.763 1619.57 664.031C1617.86 658.741 1615.71 649.604 1616.14 643.353C1610.14 641.91 1608.85 663.069 1607.56 667.878C1605.42 677.496 1605.84 689.999 1593.83 689.518C1587.83 689.518 1586.54 685.19 1582.68 681.824C1579.67 677.496 1575.38 677.976 1571.95 674.61Z" fill="#FBFBFB"/>
<path d="M1701.52 869.371C1697.23 871.775 1692.08 872.256 1687.79 874.18C1682.21 876.584 1677.06 879.95 1671.06 881.874C1667.2 883.316 1661.62 883.797 1662.05 890.049C1662.05 891.972 1663.76 894.858 1664.62 896.3C1666.77 900.147 1667.62 899.186 1670.63 896.781C1674.92 893.415 1678.35 890.53 1683.5 888.125C1689.08 885.721 1692.51 881.874 1697.23 878.507C1701.09 875.622 1705.81 876.103 1710.1 873.699C1714.39 871.294 1723.4 864.562 1719.11 858.31C1718.25 857.348 1717.39 856.387 1716.1 856.387C1715.25 856.387 1714.82 856.868 1713.96 856.868C1713.1 856.868 1711.81 856.868 1711.38 857.348C1710.96 857.829 1710.96 858.791 1710.1 859.272C1709.67 859.272 1709.24 859.272 1708.81 859.753C1708.38 860.234 1708.38 860.715 1707.95 861.196C1707.52 862.157 1706.67 863.119 1706.24 864.081C1704.95 866.485 1703.66 868.409 1701.52 869.371Z" fill="#FBFBFB"/>
<path d="M1731.14 853.016C1730.71 855.42 1729.85 855.901 1728.56 857.825C1730.28 859.267 1734.57 859.267 1736.71 858.786C1740.15 858.306 1741.43 854.939 1744.01 852.535C1747.44 849.169 1753.88 845.802 1755.59 840.994C1757.74 834.742 1750.87 835.223 1749.16 830.414C1747.44 826.567 1749.16 816.949 1744.44 815.987C1744.01 815.987 1744.01 821.758 1744.44 822.239C1744.44 824.162 1744.87 826.086 1744.87 828.01C1745.29 831.857 1744.87 835.704 1742.29 839.07C1741.86 839.551 1741.43 840.032 1741 840.513C1740.58 840.994 1740.58 840.994 1740.15 841.474C1739.29 841.955 1738.43 841.955 1737.57 841.955C1736.71 841.955 1735.86 841.955 1735.43 842.436C1735 842.917 1734.57 843.398 1734.14 843.398C1732.85 844.36 1731.14 845.802 1731.14 847.726C1730.71 849.169 1731.14 851.092 1731.14 853.016Z" fill="#FBFBFB"/>
<path d="M1564.66 863.116C1564.23 864.558 1562.94 865.52 1562.51 866.963C1562.09 867.925 1562.51 868.405 1562.51 868.886C1562.51 869.848 1562.09 869.848 1562.09 870.81C1562.09 872.734 1563.8 872.253 1565.09 872.253C1566.38 872.253 1566.38 871.772 1567.23 873.214C1568.09 874.176 1568.52 875.619 1569.81 875.619C1571.1 875.619 1572.38 874.657 1573.24 873.695C1574.53 872.734 1576.24 871.772 1577.1 870.329C1577.96 869.367 1578.39 867.925 1579.25 866.963C1580.1 866.001 1581.39 866.001 1582.25 865.039C1583.11 864.077 1584.4 861.192 1583.11 860.23C1582.25 859.269 1579.25 858.788 1577.96 858.788C1576.24 858.788 1574.96 860.23 1573.24 859.749C1571.52 859.269 1570.67 856.864 1568.95 856.864C1568.52 856.864 1567.66 856.864 1567.23 856.864C1566.81 856.864 1566.81 856.864 1566.38 856.864C1565.95 856.864 1565.95 856.383 1565.52 856.864C1565.95 857.345 1565.52 857.826 1565.52 858.307C1565.52 858.788 1565.52 859.749 1565.52 860.23C1565.09 861.192 1565.09 862.154 1564.66 863.116Z" fill="#FBFBFB"/>
</svg>
