<svg width="420" height="300" viewBox="0 0 420 300" fill="none" xmlns="http://www.w3.org/2000/svg">
<path d="M167.375 117.035L130.103 300H74.6078L100.861 153.687H41.4766L46.4937 117.035H167.375Z" fill="#EFEFEF"/>
<path d="M414.674 249.913L410.524 300H186.426V264.782L330.379 201.957C344.004 194.172 353.135 187.424 357.773 181.715C362.701 175.833 365.165 170.037 365.165 164.327C365.165 155.85 360.382 149.362 350.816 144.863C341.25 140.365 327.19 138.116 308.638 138.116C277.62 138.116 253.85 144.431 237.326 157.061L197.757 138.894C209.643 129.379 225.586 122.026 245.588 116.835C265.88 111.472 288.491 108.79 313.421 108.79C346.468 108.79 372.847 113.461 392.559 122.804C412.271 132.147 420.001 144.622 420.001 160.713C420.001 170.574 415.362 178.435 408.405 187.086C401.448 195.736 383.198 208.514 365.804 218.404C348.41 228.294 300.135 249.913 300.135 249.913H414.674Z" fill="#EFEFEF"/>
<path d="M120.632 4.2253V299.996H64.2212V50.2811H0V4.2253H120.632Z" fill="#111A21"/>
<path d="M400.888 253.518V299.996H176.981V263.236L297.613 151.688C311.209 139.012 320.322 128.027 324.95 118.731C329.868 109.154 332.327 99.7171 332.327 90.4215C332.327 76.6188 327.554 66.0556 318.008 58.7317C308.461 51.4079 294.431 47.7459 275.917 47.7459C244.963 47.7459 221.242 58.0275 204.753 78.5906L165.265 49.0135C177.126 33.5207 193.037 21.549 212.997 13.0984C233.247 4.36615 255.811 0 280.69 0C313.668 0 339.993 7.60555 359.665 22.8166C379.336 38.0277 389.172 58.7317 389.172 84.9286C389.172 100.985 385.7 116.055 378.757 130.139C371.815 144.224 358.507 160.28 338.836 178.308L257.692 253.518H400.888Z" fill="#111A21"/>
</svg>
