<svg width="1920" height="332" viewBox="0 0 1920 332" fill="none" xmlns="http://www.w3.org/2000/svg">
<path d="M0 15.2034H35.7951C51.8615 15.2034 64.8564 16.4998 74.7798 19.0927C84.7031 21.6855 93.4452 26.5176 101.006 33.5889C113.528 45.3745 119.789 60.9315 119.789 80.2599C119.789 91.3383 117.427 100.649 112.701 108.192C108.448 115.499 102.542 120.92 94.9809 124.456C107.267 127.52 117.427 133.177 125.46 141.427C135.856 152.27 141.054 167.002 141.054 185.623C141.054 202.83 135.856 216.973 125.46 228.051C110.811 243.372 88.7198 251.033 59.1859 251.033H0V15.2034ZM36.1495 49.1459V116.677H47.1361C60.3672 116.677 70.1725 113.613 76.5518 107.485C82.6948 101.592 85.7664 92.6347 85.7664 80.6134C85.7664 70.9492 82.9311 63.4065 77.2606 57.9851C71.1176 52.0923 61.5486 49.1459 48.5537 49.1459H36.1495ZM36.1495 146.377V217.091H58.1227C74.4254 217.091 86.3571 214.026 93.9177 207.898C101.715 201.769 105.613 193.048 105.613 181.734C105.613 171.598 102.423 163.348 96.0442 156.984C88.7198 149.913 76.3155 146.377 58.8315 146.377H36.1495Z" fill="#FBFBFB"/>
<path d="M295.705 108.899V147.791C283.183 135.534 269.125 129.406 253.531 129.406C240.3 129.406 229.313 133.766 220.571 142.488C212.065 150.973 207.812 162.405 207.812 176.784C207.812 191.634 212.301 203.537 221.28 212.494C229.786 220.508 240.3 224.515 252.822 224.515C270.07 224.515 284.364 218.151 295.705 205.423V243.962C283.183 251.74 268.061 255.629 250.341 255.629C226.478 255.629 207.576 248.322 193.636 233.708C179.46 219.094 172.372 200.473 172.372 177.844C172.372 154.509 179.932 135.299 195.054 120.213C209.703 105.599 229.667 98.2918 254.948 98.2918C269.361 98.2918 282.947 101.827 295.705 108.899Z" fill="#FBFBFB"/>
<path d="M433.542 200.826L462.603 217.091C455.987 228.876 447.6 237.951 437.44 244.315C425.863 251.858 411.214 255.629 393.494 255.629C372.702 255.629 355.927 249.265 343.168 236.537C328.519 221.923 321.195 202.948 321.195 179.612C321.195 155.098 329.11 134.709 344.94 118.445C358.407 105.01 375.065 98.2918 394.911 98.2918C414.286 98.2918 430.234 104.774 442.756 117.738C456.696 132.116 463.666 153.095 463.666 180.673V184.916H356.635C357.58 197.409 361.833 207.426 369.394 214.969C375.773 221.333 384.633 224.515 395.974 224.515C405.189 224.515 413.104 222.04 419.72 217.091C425.154 212.848 429.761 207.426 433.542 200.826ZM359.116 156.63H428.225C426.808 148.381 423.264 141.663 417.593 136.477C411.45 130.82 403.653 127.991 394.202 127.991C384.279 127.991 376.128 131.174 369.748 137.538C364.55 142.252 361.006 148.616 359.116 156.63Z" fill="#FBFBFB"/>
<path d="M617.415 233.708V332H582.683V102.181H617.415V118.445C628.756 105.01 643.523 98.2918 661.716 98.2918C682.035 98.2918 699.165 105.481 713.105 119.859C727.281 134.002 734.369 152.623 734.369 175.723C734.369 199.53 727.045 218.858 712.396 233.708C697.747 248.322 680.972 255.629 662.07 255.629C644.35 255.629 629.465 248.322 617.415 233.708ZM657.463 129.406C645.649 129.406 635.608 133.649 627.338 142.134C619.305 150.384 615.288 162.17 615.288 177.491C615.288 192.341 619.305 203.891 627.338 212.141C635.608 220.39 645.649 224.515 657.463 224.515C669.749 224.515 679.672 219.919 687.233 210.726C695.03 201.534 698.928 190.337 698.928 177.137C698.928 163.702 695.03 152.388 687.233 143.195C679.672 134.002 669.749 129.406 657.463 129.406Z" fill="#FBFBFB"/>
<path d="M879.773 119.506V102.181H914.504V251.033H879.773V235.476C868.195 248.912 853.31 255.629 835.117 255.629C813.144 255.629 795.542 247.851 782.311 232.294C769.316 216.737 762.818 198.116 762.818 176.43C762.818 152.859 769.788 134.002 783.728 119.859C797.905 105.481 815.152 98.2918 835.472 98.2918C854.137 98.2918 868.904 105.363 879.773 119.506ZM839.725 129.406C827.439 129.406 817.397 134.002 809.6 143.195C802.039 152.388 798.259 163.702 798.259 177.137C798.259 190.337 802.039 201.534 809.6 210.726C817.397 219.919 827.439 224.515 839.725 224.515C851.538 224.515 861.462 220.39 869.495 212.141C877.764 203.891 881.899 192.341 881.899 177.491C881.899 162.17 877.764 150.384 869.495 142.134C861.462 133.649 851.538 129.406 839.725 129.406Z" fill="#FBFBFB"/>
<path d="M1071.25 0H1106.69C1104.09 12.257 1098.66 22.864 1090.39 31.8211C1082.12 40.7781 1071.96 46.9066 1059.91 50.2066L1036.52 56.5708C1030.37 58.2208 1025.65 59.6351 1022.34 60.8136C1019.03 61.9922 1014.9 64.2314 1009.94 67.5314C1005.21 70.5957 1001.19 74.3671 997.887 78.8456C990.09 89.2169 985.955 102.652 985.483 119.152H985.837C996.233 105.245 1013.13 98.2918 1036.52 98.2918C1057.55 98.2918 1074.91 105.363 1088.61 119.506C1103.03 134.356 1110.23 153.213 1110.23 176.077C1110.23 199.176 1102.55 218.269 1087.2 233.355C1072.08 248.204 1053.17 255.629 1030.49 255.629C1007.81 255.629 989.617 249.029 975.914 235.83C968.353 228.758 962.564 220.037 958.548 209.666C954.531 199.294 952.168 190.809 951.46 184.209C950.987 177.373 950.751 169.123 950.751 159.459C950.751 113.259 958.311 79.1992 973.433 57.278C984.774 40.5424 999.659 29.9354 1018.09 25.4569L1042.9 19.4462C1059.2 15.4391 1068.65 8.95704 1071.25 0ZM998.241 211.787C1006.27 220.273 1017.02 224.515 1030.49 224.515C1043.96 224.515 1054.71 220.273 1062.74 211.787C1070.78 203.066 1074.79 191.516 1074.79 177.137C1074.79 161.345 1070.42 149.441 1061.68 141.427C1053.17 133.413 1042.78 129.406 1030.49 129.406C1018.21 129.406 1007.69 133.413 998.95 141.427C990.444 149.441 986.191 161.345 986.191 177.137C986.191 191.516 990.208 203.066 998.241 211.787Z" fill="#FBFBFB"/>
<path d="M1161.37 120.567C1176.72 105.717 1195.74 98.2918 1218.42 98.2918C1241.11 98.2918 1260.01 105.717 1275.13 120.567C1290.49 135.181 1298.17 153.92 1298.17 176.784C1298.17 199.412 1290.49 218.269 1275.13 233.355C1260.01 248.204 1241.11 255.629 1218.42 255.629C1195.74 255.629 1176.72 248.204 1161.37 233.355C1146.24 218.269 1138.68 199.412 1138.68 176.784C1138.68 153.92 1146.24 135.181 1161.37 120.567ZM1186.17 211.787C1194.21 220.273 1204.96 224.515 1218.42 224.515C1231.89 224.515 1242.64 220.273 1250.68 211.787C1258.71 203.066 1262.73 191.516 1262.73 177.137C1262.73 161.345 1258.35 149.441 1249.61 141.427C1241.11 133.413 1230.71 129.406 1218.42 129.406C1206.14 129.406 1195.62 133.413 1186.88 141.427C1178.38 149.441 1174.12 161.345 1174.12 177.137C1174.12 191.516 1178.14 203.066 1186.17 211.787Z" fill="#FBFBFB"/>
<path d="M1437.19 134.002H1393.6V251.033H1358.87V134.002H1315.27V102.181H1437.19V134.002Z" fill="#FBFBFB"/>
<path d="M1567.47 119.506V102.181H1602.21V251.033H1567.47V235.476C1555.9 248.912 1541.01 255.629 1522.82 255.629C1500.85 255.629 1483.24 247.851 1470.01 232.294C1457.02 216.737 1450.52 198.116 1450.52 176.43C1450.52 152.859 1457.49 134.002 1471.43 119.859C1485.61 105.481 1502.85 98.2918 1523.17 98.2918C1541.84 98.2918 1556.6 105.363 1567.47 119.506ZM1527.43 129.406C1515.14 129.406 1505.1 134.002 1497.3 143.195C1489.74 152.388 1485.96 163.702 1485.96 177.137C1485.96 190.337 1489.74 201.534 1497.3 210.726C1505.1 219.919 1515.14 224.515 1527.43 224.515C1539.24 224.515 1549.16 220.39 1557.2 212.141C1565.47 203.891 1569.6 192.341 1569.6 177.491C1569.6 162.17 1565.47 150.384 1557.2 142.134C1549.16 133.649 1539.24 129.406 1527.43 129.406Z" fill="#FBFBFB"/>
<path d="M1750.8 200.826L1779.86 217.091C1773.24 228.876 1764.86 237.951 1754.7 244.315C1743.12 251.858 1728.47 255.629 1710.75 255.629C1689.96 255.629 1673.18 249.265 1660.42 236.537C1645.78 221.923 1638.45 202.948 1638.45 179.612C1638.45 155.098 1646.37 134.709 1662.2 118.445C1675.66 105.01 1692.32 98.2918 1712.17 98.2918C1731.54 98.2918 1747.49 104.774 1760.01 117.738C1773.95 132.116 1780.92 153.095 1780.92 180.673V184.916H1673.89C1674.84 197.409 1679.09 207.426 1686.65 214.969C1693.03 221.333 1701.89 224.515 1713.23 224.515C1722.45 224.515 1730.36 222.04 1736.98 217.091C1742.41 212.848 1747.02 207.426 1750.8 200.826ZM1676.37 156.63H1745.48C1744.06 148.381 1740.52 141.663 1734.85 136.477C1728.71 130.82 1720.91 127.991 1711.46 127.991C1701.54 127.991 1693.38 131.174 1687.01 137.538C1681.81 142.252 1678.26 148.616 1676.37 156.63Z" fill="#FBFBFB"/>
<path d="M1920 134.002H1876.41V251.033H1841.68V134.002H1798.08V102.181H1920V134.002Z" fill="#FBFBFB"/>
</svg>
