<svg width="1920" height="283" viewBox="0 0 1920 283" fill="none" xmlns="http://www.w3.org/2000/svg">
<path d="M11.5987 0V82.6406H101.836V0H143.434V213.648H101.836V118.516H11.5987V213.648H-30V0H11.5987Z" fill="#FBFBFB"/>
<path d="M292.657 92.8906V74.9531H331.696V213.648H292.657V195.711C282.204 210.659 268.018 218.133 250.098 218.133C229.192 218.133 212.126 210.979 198.9 196.672C185.887 182.365 179.381 164.854 179.381 144.141C179.381 123.214 185.78 105.703 198.58 91.6094C211.38 77.5156 227.912 70.4688 248.178 70.4688C268.231 70.4688 283.057 77.9427 292.657 92.8906ZM285.617 116.273C278.364 108.799 269.191 105.062 258.098 105.062C247.005 105.062 237.832 108.799 230.579 116.273C223.326 123.747 219.699 133.036 219.699 144.141C219.699 155.245 223.326 164.641 230.579 172.328C237.832 179.802 247.005 183.539 258.098 183.539C269.191 183.539 278.364 179.802 285.617 172.328C292.87 164.641 296.497 155.245 296.497 144.141C296.497 133.036 292.87 123.747 285.617 116.273Z" fill="#FBFBFB"/>
<path d="M354.195 213.648L379.474 74.9531H408.273L446.352 154.711L484.431 74.9531H513.23L538.509 213.648H499.47L487.951 138.375L453.392 213.648H439.312L404.753 138.375L393.234 213.648H354.195Z" fill="#FBFBFB"/>
<path d="M648.268 74.9531H763.464V180.336H783.943V254.008H748.745V213.648H653.388V254.008H618.189V180.336C629.069 179.695 637.282 173.823 642.828 162.719C646.455 154.818 648.268 142.966 648.268 127.164V74.9531ZM724.425 180.336V108.266H683.467V139.016C683.467 157.807 678.347 171.581 668.107 180.336H724.425Z" fill="#FBFBFB"/>
<path d="M821.47 90.0078C835.549 76.9818 854.215 70.4688 877.468 70.4688C900.721 70.4688 919.387 76.9818 933.466 90.0078C949.039 104.102 956.825 122.253 956.825 144.461C956.825 166.456 949.039 184.5 933.466 198.594C919.387 211.62 900.721 218.133 877.468 218.133C854.215 218.133 835.549 211.62 821.47 198.594C805.897 184.5 798.111 166.456 798.111 144.461C798.111 122.253 805.897 104.102 821.47 90.0078ZM849.629 172.008C857.095 179.695 866.375 183.539 877.468 183.539C888.561 183.539 897.841 179.695 905.307 172.008C912.773 164.32 916.507 155.138 916.507 144.461C916.507 133.57 912.773 124.281 905.307 116.594C897.841 108.906 888.561 105.062 877.468 105.062C866.375 105.062 857.095 108.906 849.629 116.594C842.162 124.281 838.429 133.57 838.429 144.461C838.429 155.138 842.162 164.32 849.629 172.008Z" fill="#FBFBFB"/>
<path d="M987.019 74.9531H1048.14C1062.86 74.9531 1073.84 77.7292 1081.1 83.2812C1090.06 90.1146 1094.54 99.1901 1094.54 110.508C1094.54 116.487 1092.83 122.146 1089.42 127.484C1086.22 132.609 1081.52 136.453 1075.34 139.016C1082.16 140.297 1088.24 143.286 1093.58 147.984C1100.62 154.391 1104.14 163.039 1104.14 173.93C1104.14 186.956 1099.23 197.206 1089.42 204.68C1081.31 210.659 1070.96 213.648 1058.38 213.648H987.019V74.9531ZM1026.06 130.047H1043.98C1048.03 130.047 1051.44 129.193 1054.22 127.484C1057.63 125.349 1059.34 122.146 1059.34 117.875C1059.34 113.391 1057.84 110.081 1054.86 107.945C1052.72 106.451 1048.88 105.703 1043.34 105.703H1026.06V130.047ZM1026.06 182.898H1044.3C1050.91 182.898 1055.71 181.724 1058.7 179.375C1062.11 176.812 1063.82 173.076 1063.82 168.164C1063.82 163.68 1062.11 160.37 1058.7 158.234C1055.71 156.099 1051.23 155.031 1045.26 155.031H1026.06V182.898Z" fill="#FBFBFB"/>
<path d="M1233.11 169.125L1268.95 174.891C1267.45 178.734 1265.43 182.578 1262.87 186.422C1260.52 190.052 1256.79 194.643 1251.67 200.195C1246.55 205.534 1239.62 209.911 1230.87 213.328C1222.12 216.531 1212.1 218.133 1200.79 218.133C1179.03 218.133 1161.32 211.62 1147.67 198.594C1133.17 184.927 1125.91 166.883 1125.91 144.461C1125.91 122.253 1132.95 104.102 1147.03 90.0078C1160.26 76.9818 1177.64 70.4688 1199.19 70.4688C1222.66 70.4688 1240.68 78.0495 1253.27 93.2109C1264.36 106.451 1269.91 124.602 1269.91 147.664V150.867H1166.23C1166.23 160.263 1168.47 168.057 1172.95 174.25C1179.35 183.005 1188.63 187.383 1200.79 187.383C1215.3 187.383 1226.07 181.297 1233.11 169.125ZM1167.51 125.883H1233.11C1231.62 116.914 1227.67 110.081 1221.27 105.383C1215.08 100.471 1208.04 98.0156 1200.15 98.0156C1192.47 98.0156 1185.43 100.471 1179.03 105.383C1172.84 110.294 1169 117.128 1167.51 125.883Z" fill="#FBFBFB"/>
<path d="M1339.17 195.711V287H1300.13V74.9531H1339.17V92.8906C1349.63 77.9427 1364.67 70.4688 1384.29 70.4688C1403.49 70.4688 1419.28 76.6615 1431.65 89.0469C1445.52 102.927 1452.45 121.292 1452.45 144.141C1452.45 167.63 1445.2 186.315 1430.69 200.195C1417.89 212.154 1402.21 218.133 1383.65 218.133C1365.09 218.133 1350.27 210.659 1339.17 195.711ZM1373.73 105.062C1363.71 105.062 1355.28 108.159 1348.45 114.352C1339.71 121.826 1335.33 131.755 1335.33 144.141C1335.33 156.74 1339.6 166.776 1348.13 174.25C1355.17 180.443 1363.71 183.539 1373.73 183.539C1384.18 183.539 1392.93 180.229 1399.97 173.609C1408.08 166.135 1412.13 156.312 1412.13 144.141C1412.13 132.182 1408.18 122.466 1400.29 114.992C1393.04 108.372 1384.18 105.062 1373.73 105.062Z" fill="#FBFBFB"/>
<path d="M1470.47 213.648L1511.43 161.758C1502.47 160.477 1495 156.846 1489.03 150.867C1481.78 143.607 1478.15 133.784 1478.15 121.398C1478.15 107.091 1483.69 95.4531 1494.79 86.4844C1504.6 78.7969 1518.89 74.9531 1537.67 74.9531H1592.7V213.648H1553.67V164.961H1549.19L1515.27 213.648H1470.47ZM1553.67 136.773V105.703H1536.71C1530.73 105.703 1526.36 106.984 1523.59 109.547C1520.17 112.75 1518.47 116.807 1518.47 121.719C1518.47 126.844 1520.17 130.688 1523.59 133.25C1526.57 135.599 1530.95 136.773 1536.71 136.773H1553.67Z" fill="#FBFBFB"/>
<path d="M1668.85 127.164H1687.73C1690.08 112.857 1696.69 100.471 1707.57 90.0078C1721.22 76.9818 1739.25 70.4688 1761.65 70.4688C1784.26 70.4688 1802.61 76.9818 1816.69 90.0078C1832.04 103.888 1839.72 122.039 1839.72 144.461C1839.72 166.242 1832.04 184.286 1816.69 198.594C1802.61 211.62 1784.26 218.133 1761.65 218.133C1739.46 218.133 1721.43 211.62 1707.57 198.594C1696.69 188.13 1690.08 175.424 1687.73 160.477H1668.85V213.648H1629.81V74.9531H1668.85V127.164ZM1734.45 172.328C1741.7 179.802 1750.77 183.539 1761.65 183.539C1772.53 183.539 1781.49 179.802 1788.53 172.328C1795.78 164.641 1799.41 155.352 1799.41 144.461C1799.41 133.357 1795.78 124.068 1788.53 116.594C1781.49 108.906 1772.53 105.062 1761.65 105.062C1750.77 105.062 1741.7 108.906 1734.45 116.594C1727.41 124.068 1723.89 133.357 1723.89 144.461C1723.89 155.352 1727.41 164.641 1734.45 172.328Z" fill="#FBFBFB"/>
<path d="M1969 108.266H1930.6V213.648H1891.56V108.266H1853.16V74.9531H1969V108.266Z" fill="#FBFBFB"/>
</svg>
