<svg width="1756" height="97" viewBox="0 0 1756 97" fill="none" xmlns="http://www.w3.org/2000/svg">
<path d="M14.1532 0V30.529L40.8266 0H58.6814L27.9798 33.3438L60.3145 72.2087H41.5887L15.7863 39.8393L14.1532 41.4632V72.2087H0V0H14.1532Z" fill="#FBFBFB"/>
<path d="M69.4044 30.4208C74.1947 26.0182 80.5455 23.817 88.4568 23.817C96.3681 23.817 102.719 26.0182 107.509 30.4208C112.808 35.1842 115.457 41.3188 115.457 48.8248C115.457 56.2586 112.808 62.3572 107.509 67.1205C102.719 71.5231 96.3681 73.7243 88.4568 73.7243C80.5455 73.7243 74.1947 71.5231 69.4044 67.1205C64.106 62.3572 61.4568 56.2586 61.4568 48.8248C61.4568 41.3188 64.106 35.1842 69.4044 30.4208ZM78.985 58.1351C81.5253 60.7333 84.6826 62.0324 88.4568 62.0324C92.231 62.0324 95.3882 60.7333 97.9286 58.1351C100.469 55.5368 101.739 52.4334 101.739 48.8248C101.739 45.144 100.469 42.0045 97.9286 39.4063C95.3882 36.808 92.231 35.5089 88.4568 35.5089C84.6826 35.5089 81.5253 36.808 78.985 39.4063C76.4447 42.0045 75.1745 45.144 75.1745 48.8248C75.1745 52.4334 76.4447 55.5368 78.985 58.1351Z" fill="#FBFBFB"/>
<path d="M123.273 72.2087L131.874 25.3326H141.673L154.628 52.2891L167.584 25.3326H177.382L185.983 72.2087H172.701L168.781 46.7679L157.023 72.2087H152.233L140.475 46.7679L136.556 72.2087H123.273Z" fill="#FBFBFB"/>
<path d="M229.707 31.3951V25.3326H242.989V72.2087H229.707V66.1462C226.15 71.1983 221.324 73.7243 215.227 73.7243C208.114 73.7243 202.307 71.3066 197.807 66.471C193.38 61.6354 191.166 55.7173 191.166 48.7165C191.166 41.6436 193.344 35.7255 197.699 30.9621C202.053 26.1987 207.678 23.817 214.574 23.817C221.396 23.817 226.441 26.343 229.707 31.3951ZM227.311 39.298C224.844 36.772 221.723 35.5089 217.949 35.5089C214.174 35.5089 211.053 36.772 208.586 39.298C206.118 41.824 204.884 44.9635 204.884 48.7165C204.884 52.4695 206.118 55.6451 208.586 58.2433C211.053 60.7693 214.174 62.0324 217.949 62.0324C221.723 62.0324 224.844 60.7693 227.311 58.2433C229.779 55.6451 231.013 52.4695 231.013 48.7165C231.013 44.9635 229.779 41.824 227.311 39.298Z" fill="#FBFBFB"/>
<path d="M255.652 72.2087V25.3326H268.934V41.8962H287.442V25.3326H300.725V72.2087H287.442V53.1551H268.934V72.2087H255.652Z" fill="#FBFBFB"/>
<path d="M317.738 25.3326H356.932V60.9498H363.899V85.8493H351.924V72.2087H319.48V85.8493H307.504V60.9498C311.206 60.7333 314 58.7485 315.887 54.9955C317.121 52.3252 317.738 48.3196 317.738 42.9788V25.3326ZM343.649 60.9498V36.5915H329.714V46.9844C329.714 53.3356 327.972 57.9907 324.488 60.9498H343.649Z" fill="#FBFBFB"/>
<path d="M407.26 31.3951V25.3326H420.542V72.2087H407.26V66.1462C403.703 71.1983 398.877 73.7243 392.78 73.7243C385.667 73.7243 379.861 71.3066 375.361 66.471C370.933 61.6354 368.72 55.7173 368.72 48.7165C368.72 41.6436 370.897 35.7255 375.252 30.9621C379.607 26.1987 385.232 23.817 392.127 23.817C398.949 23.817 403.994 26.343 407.26 31.3951ZM404.865 39.298C402.397 36.772 399.276 35.5089 395.502 35.5089C391.728 35.5089 388.607 36.772 386.139 39.298C383.671 41.824 382.437 44.9635 382.437 48.7165C382.437 52.4695 383.671 55.6451 386.139 58.2433C388.607 60.7693 391.728 62.0324 395.502 62.0324C399.276 62.0324 402.397 60.7693 404.865 58.2433C407.332 55.6451 408.566 52.4695 408.566 48.7165C408.566 44.9635 407.332 41.824 404.865 39.298Z" fill="#FBFBFB"/>
<path d="M456.003 71.2344V58.4598C459.777 61.4911 464.349 63.0067 469.72 63.0067C473.495 63.0067 476.398 62.1406 478.43 60.4085C480.39 58.6763 481.442 56.2947 481.587 53.2634H462.099V43.7366H481.587C481.152 40.9219 479.954 38.7206 477.995 37.1328C475.817 35.1842 473.023 34.2098 469.611 34.2098C464.603 34.2098 460.14 35.545 456.22 38.2154V26.74C460.938 24.7913 465.728 23.817 470.591 23.817C478.43 23.817 484.563 26.1626 488.99 30.8538C493.418 35.4007 495.632 41.391 495.632 48.8248C495.632 56.5473 493.309 62.6458 488.664 67.1205C484.164 71.5952 478.14 73.8326 470.591 73.8326C464.93 73.8326 460.067 72.9665 456.003 71.2344Z" fill="#FBFBFB"/>
<path d="M505.821 25.3326H519.103V43.5201L536.741 25.3326H553.289L531.95 46.2266L554.378 72.2087H537.394L521.063 52.8304L519.103 54.779V72.2087H505.821V25.3326Z" fill="#FBFBFB"/>
<path d="M594.473 26.6317V39.6228C591.497 36.8802 587.868 35.5089 583.586 35.5089C579.376 35.5089 576.11 36.808 573.787 39.4063C571.465 41.9323 570.303 45.0357 570.303 48.7165C570.303 52.5417 571.574 55.7173 574.114 58.2433C576.727 60.7693 580.029 62.0324 584.021 62.0324C587.941 62.0324 591.424 60.6611 594.473 57.9185V70.8013C590.553 72.75 586.489 73.7243 582.279 73.7243C574.949 73.7243 568.888 71.4509 564.098 66.904C559.09 62.2128 556.586 56.2225 556.586 48.933C556.586 40.994 559.307 34.6429 564.751 29.8795C569.324 25.8378 574.985 23.817 581.735 23.817C586.307 23.817 590.553 24.7552 594.473 26.6317Z" fill="#FBFBFB"/>
<path d="M604.486 25.3326H649.123V72.2087H635.84V36.5915H617.768V72.2087H604.486V25.3326Z" fill="#FBFBFB"/>
<path d="M695.868 57.1607L708.062 59.1094C707.554 60.4085 706.864 61.7076 705.993 63.0067C705.195 64.2336 703.925 65.7853 702.183 67.6618C700.441 69.4661 698.082 70.9457 695.106 72.1004C692.13 73.183 688.719 73.7243 684.872 73.7243C677.469 73.7243 671.445 71.5231 666.8 67.1205C661.864 62.5015 659.396 56.4029 659.396 48.8248C659.396 41.3188 661.792 35.1842 666.582 30.4208C671.082 26.0182 676.997 23.817 684.328 23.817C692.312 23.817 698.445 26.3791 702.727 31.5034C706.501 35.9781 708.388 42.1127 708.388 49.9074V50.99H673.114C673.114 54.1656 673.876 56.7999 675.401 58.8929C677.578 61.8519 680.735 63.3315 684.872 63.3315C689.808 63.3315 693.473 61.2746 695.868 57.1607ZM673.55 42.5458H695.868C695.36 39.5145 694.017 37.205 691.84 35.6172C689.735 33.9572 687.34 33.1272 684.654 33.1272C682.042 33.1272 679.646 33.9572 677.469 35.6172C675.364 37.2772 674.058 39.5867 673.55 42.5458Z" fill="#FBFBFB"/>
<path d="M731.955 66.1462V97H718.672V25.3326H731.955V31.3951C735.511 26.343 740.628 23.817 747.306 23.817C753.838 23.817 759.209 25.91 763.418 30.096C768.136 34.7872 770.495 40.9941 770.495 48.7165C770.495 56.6555 768.027 62.9706 763.092 67.6618C758.737 71.7035 753.402 73.7243 747.088 73.7243C740.773 73.7243 735.729 71.1983 731.955 66.1462ZM743.713 35.5089C740.301 35.5089 737.435 36.5554 735.112 38.6484C732.136 41.1745 730.648 44.5305 730.648 48.7165C730.648 52.9747 732.1 56.3668 735.003 58.8929C737.398 60.9859 740.301 62.0324 743.713 62.0324C747.269 62.0324 750.245 60.9137 752.64 58.6763C755.398 56.1503 756.777 52.8304 756.777 48.7165C756.777 44.6749 755.435 41.391 752.749 38.865C750.281 36.6276 747.269 35.5089 743.713 35.5089Z" fill="#FBFBFB"/>
<path d="M814.513 36.5915H801.448V72.2087H788.166V36.5915H775.102V25.3326H814.513V36.5915Z" fill="#FBFBFB"/>
<path d="M827.036 30.4208C831.826 26.0182 838.177 23.817 846.088 23.817C853.999 23.817 860.35 26.0182 865.14 30.4208C870.439 35.1842 873.088 41.3188 873.088 48.8248C873.088 56.2586 870.439 62.3572 865.14 67.1205C860.35 71.5231 853.999 73.7243 846.088 73.7243C838.177 73.7243 831.826 71.5231 827.036 67.1205C821.737 62.3572 819.088 56.2586 819.088 48.8248C819.088 41.3188 821.737 35.1842 827.036 30.4208ZM836.616 58.1351C839.157 60.7333 842.314 62.0324 846.088 62.0324C849.862 62.0324 853.02 60.7333 855.56 58.1351C858.1 55.5368 859.37 52.4334 859.37 48.8248C859.37 45.144 858.1 42.0045 855.56 39.4063C853.02 36.808 849.862 35.5089 846.088 35.5089C842.314 35.5089 839.157 36.808 836.616 39.4063C834.076 42.0045 832.806 45.144 832.806 48.8248C832.806 52.4334 834.076 55.5368 836.616 58.1351Z" fill="#FBFBFB"/>
<path d="M883.361 25.3326H904.155C909.163 25.3326 912.901 26.2708 915.369 28.1473C918.417 30.4568 919.942 33.5242 919.942 37.3493C919.942 39.3702 919.361 41.2827 918.2 43.0871C917.111 44.8192 915.514 46.1183 913.409 46.9844C915.732 47.4174 917.801 48.4278 919.615 50.0156C922.01 52.1808 923.208 55.1038 923.208 58.7846C923.208 63.1871 921.538 66.6514 918.2 69.1775C915.442 71.1983 911.922 72.2087 907.639 72.2087H883.361V25.3326ZM896.643 43.9531H902.74C904.119 43.9531 905.28 43.6644 906.224 43.0871C907.385 42.3653 907.966 41.2827 907.966 39.8393C907.966 38.3237 907.458 37.205 906.442 36.4833C905.716 35.9781 904.409 35.7255 902.522 35.7255H896.643V43.9531ZM896.643 61.8159H902.849C905.099 61.8159 906.732 61.4189 907.748 60.625C908.909 59.7589 909.49 58.4959 909.49 56.8359C909.49 55.3203 908.909 54.2016 907.748 53.4799C906.732 52.7582 905.208 52.3973 903.176 52.3973H896.643V61.8159Z" fill="#FBFBFB"/>
<path d="M958.422 25.3326H971.705V43.5201L989.342 25.3326H1005.89L984.551 46.2266L1006.98 72.2087H989.995L973.664 52.8304L971.705 54.779V72.2087H958.422V25.3326Z" fill="#FBFBFB"/>
<path d="M1038.27 25.3326H1059.06C1064.07 25.3326 1067.81 26.2708 1070.28 28.1473C1073.32 30.4568 1074.85 33.5242 1074.85 37.3493C1074.85 39.3702 1074.27 41.2827 1073.11 43.0871C1072.02 44.8192 1070.42 46.1183 1068.32 46.9844C1070.64 47.4174 1072.71 48.4278 1074.52 50.0156C1076.92 52.1808 1078.11 55.1038 1078.11 58.7846C1078.11 63.1871 1076.45 66.6514 1073.11 69.1775C1070.35 71.1983 1066.83 72.2087 1062.55 72.2087H1038.27V25.3326ZM1051.55 43.9531H1057.65C1059.03 43.9531 1060.19 43.6644 1061.13 43.0871C1062.29 42.3653 1062.87 41.2827 1062.87 39.8393C1062.87 38.3237 1062.36 37.205 1061.35 36.4833C1060.62 35.9781 1059.32 35.7255 1057.43 35.7255H1051.55V43.9531ZM1051.55 61.8159H1057.76C1060.01 61.8159 1061.64 61.4189 1062.66 60.625C1063.82 59.7589 1064.4 58.4959 1064.4 56.8359C1064.4 55.3203 1063.82 54.2016 1062.66 53.4799C1061.64 52.7582 1060.11 52.3973 1058.08 52.3973H1051.55V61.8159Z" fill="#FBFBFB"/>
<path d="M1124.06 31.3951V25.3326H1137.35V72.2087H1124.06V66.1462C1120.51 71.1983 1115.68 73.7243 1109.58 73.7243C1102.47 73.7243 1096.67 71.3066 1092.17 66.471C1087.74 61.6354 1085.52 55.7173 1085.52 48.7165C1085.52 41.6436 1087.7 35.7255 1092.06 30.9621C1096.41 26.1987 1102.04 23.817 1108.93 23.817C1115.75 23.817 1120.8 26.343 1124.06 31.3951ZM1121.67 39.298C1119.2 36.772 1116.08 35.5089 1112.31 35.5089C1108.53 35.5089 1105.41 36.772 1102.94 39.298C1100.48 41.824 1099.24 44.9635 1099.24 48.7165C1099.24 52.4695 1100.48 55.6451 1102.94 58.2433C1105.41 60.7693 1108.53 62.0324 1112.31 62.0324C1116.08 62.0324 1119.2 60.7693 1121.67 58.2433C1124.14 55.6451 1125.37 52.4695 1125.37 48.7165C1125.37 44.9635 1124.14 41.824 1121.67 39.298Z" fill="#FBFBFB"/>
<path d="M1150.01 72.2087V25.3326H1163.29V60.9498H1178.53V25.3326H1191.82V60.9498H1207.06V25.3326H1220.34V72.2087H1150.01Z" fill="#FBFBFB"/>
<path d="M1232.94 25.3326H1246.22V54.2377L1268 25.3326H1281.28V72.2087H1268V43.3036L1246.22 72.2087H1232.94V25.3326Z" fill="#FBFBFB"/>
<path d="M1288.85 72.2087L1297.45 25.3326H1307.25L1320.21 52.2891L1333.16 25.3326H1342.96L1351.56 72.2087H1338.28L1334.36 46.7679L1322.6 72.2087H1317.81L1306.05 46.7679L1302.13 72.2087H1288.85Z" fill="#FBFBFB"/>
<path d="M1383.57 97L1400.88 65.1719L1378.45 25.3326H1393.91L1408.5 51.9643L1421.57 25.3326H1436.59L1398.59 97H1383.57Z" fill="#FBFBFB"/>
<path d="M1476.07 26.6317V39.6228C1473.1 36.8802 1469.47 35.5089 1465.19 35.5089C1460.98 35.5089 1457.71 36.808 1455.39 39.4063C1453.06 41.9323 1451.9 45.0357 1451.9 48.7165C1451.9 52.5417 1453.17 55.7173 1455.71 58.2433C1458.33 60.7693 1461.63 62.0324 1465.62 62.0324C1469.54 62.0324 1473.02 60.6611 1476.07 57.9185V70.8013C1472.15 72.75 1468.09 73.7243 1463.88 73.7243C1456.55 73.7243 1450.49 71.4509 1445.7 66.904C1440.69 62.2128 1438.19 56.2225 1438.19 48.933C1438.19 40.994 1440.91 34.6429 1446.35 29.8795C1450.92 25.8378 1456.58 23.817 1463.33 23.817C1467.91 23.817 1472.15 24.7552 1476.07 26.6317Z" fill="#FBFBFB"/>
<path d="M1529.17 25.3326V72.2087H1515.89V36.5915H1503.04V53.8047C1503.04 59.8672 1501.55 64.4862 1498.57 67.6618C1495.6 70.9818 1491.35 72.6418 1485.84 72.6418C1484.39 72.6418 1483.08 72.4974 1481.92 72.2087V60.9498C1482.79 61.0941 1483.48 61.1663 1483.99 61.1663C1486.38 61.1663 1488.2 60.4085 1489.43 58.8929C1490.52 57.5938 1491.06 55.609 1491.06 52.9386V25.3326H1529.17Z" fill="#FBFBFB"/>
<path d="M1540.82 97L1558.13 65.1719L1535.7 25.3326H1551.16L1565.75 51.9643L1578.81 25.3326H1593.84L1555.84 97H1540.82Z" fill="#FBFBFB"/>
<path d="M1600.38 72.2087V25.3326H1630.43V36.5915H1613.66V72.2087H1600.38Z" fill="#FBFBFB"/>
<path d="M1672.35 31.3951V25.3326H1685.64V72.2087H1672.35V66.1462C1668.8 71.1983 1663.97 73.7243 1657.87 73.7243C1650.76 73.7243 1644.95 71.3066 1640.45 66.471C1636.03 61.6354 1633.81 55.7173 1633.81 48.7165C1633.81 41.6436 1635.99 35.7255 1640.34 30.9621C1644.7 26.1987 1650.32 23.817 1657.22 23.817C1664.04 23.817 1669.09 26.343 1672.35 31.3951ZM1669.96 39.298C1667.49 36.772 1664.37 35.5089 1660.59 35.5089C1656.82 35.5089 1653.7 36.772 1651.23 39.298C1648.76 41.824 1647.53 44.9635 1647.53 48.7165C1647.53 52.4695 1648.76 55.6451 1651.23 58.2433C1653.7 60.7693 1656.82 62.0324 1660.59 62.0324C1664.37 62.0324 1667.49 60.7693 1669.96 58.2433C1672.43 55.6451 1673.66 52.4695 1673.66 48.7165C1673.66 44.9635 1672.43 41.824 1669.96 39.298Z" fill="#FBFBFB"/>
<path d="M1693.29 72.2087L1701.89 25.3326H1711.69L1724.65 52.2891L1737.6 25.3326H1747.4L1756 72.2087H1742.72L1738.8 46.7679L1727.04 72.2087H1722.25L1710.49 46.7679L1706.57 72.2087H1693.29Z" fill="#FBFBFB"/>
</svg>
