<svg width="1756" height="175" viewBox="0 0 1756 175" fill="none" xmlns="http://www.w3.org/2000/svg">
<path d="M30.1532 0V54.2969L74.7956 0H111.606L58.74 61.7188L115.718 130.273H76.9494L30.1532 72.4609V130.273H0V0H30.1532Z" fill="#FBFBFB"/>
<path d="M206.896 54.2969C215.642 63.0208 220.015 73.8281 220.015 86.7188C220.015 99.6094 215.642 110.417 206.896 119.141C197.498 128.516 184.771 133.203 168.715 133.203C152.66 133.203 139.933 128.516 130.534 119.141C121.789 110.417 117.416 99.6094 117.416 86.7188C117.416 73.8281 121.789 63.0208 130.534 54.2969C139.933 44.9219 152.66 40.2344 168.715 40.2344C184.771 40.2344 197.498 44.9219 206.896 54.2969ZM184.575 70.3125C180.398 66.1458 175.111 64.0625 168.715 64.0625C162.319 64.0625 157.033 66.1458 152.856 70.3125C148.548 74.6094 146.394 80.0781 146.394 86.7188C146.394 93.3594 148.548 98.8281 152.856 103.125C157.033 107.292 162.384 109.375 168.911 109.375C175.177 109.375 180.398 107.292 184.575 103.125C188.883 98.8281 191.037 93.3594 191.037 86.7188C191.037 80.0781 188.883 74.6094 184.575 70.3125Z" fill="#FBFBFB"/>
<path d="M231.332 130.273L246.604 43.1641H268.925L291.638 91.6016L314.351 43.1641H336.672L351.944 130.273H324.924L317.875 83.9844L296.337 130.273H286.939L265.401 83.9844L258.352 130.273H231.332Z" fill="#FBFBFB"/>
<path d="M434.584 52.9297V43.1641H462.779V130.273H434.584V119.727C428.71 128.711 420.095 133.203 408.739 133.203C395.294 133.203 384.394 128.776 376.04 119.922C367.555 110.938 363.313 100.065 363.313 87.3047C363.313 72.8516 367.816 61.1328 376.823 52.1484C384.786 44.2057 394.902 40.2344 407.172 40.2344C419.181 40.2344 428.319 44.4661 434.584 52.9297ZM414.221 64.4531C408.086 64.4531 402.93 66.5365 398.753 70.7031C394.445 75 392.291 80.2734 392.291 86.5234C392.291 92.7734 394.249 97.9818 398.165 102.148C402.473 106.706 408.021 108.984 414.808 108.984C420.552 108.984 425.447 106.966 429.493 102.93C434.062 98.6328 436.346 93.1641 436.346 86.5234C436.346 79.8828 434.193 74.5443 429.885 70.5078C425.708 66.4714 420.487 64.4531 414.221 64.4531Z" fill="#FBFBFB"/>
<path d="M484.642 130.273V43.1641H512.837V73.4375H544.361V43.1641H572.556V130.273H544.361V96.0938H512.837V130.273H484.642Z" fill="#FBFBFB"/>
<path d="M603.795 43.1641H681.136V108.789H694.059V154.883H668.997V130.273H609.278V154.883H584.215V108.789C588.784 108.268 592.765 106.445 596.159 103.32C599.422 100.326 601.511 96.7448 602.424 92.5781C603.338 88.4115 603.795 83.2031 603.795 76.9531V43.1641ZM652.941 108.789V64.6484H629.641V81.25C629.641 87.6302 628.988 92.9688 627.683 97.2656C626.377 101.432 623.767 105.273 619.851 108.789H652.941Z" fill="#FBFBFB"/>
<path d="M773.601 52.9297V43.1641H801.796V130.273H773.601V119.727C767.727 128.711 759.112 133.203 747.755 133.203C734.311 133.203 723.411 128.776 715.057 119.922C706.572 110.938 702.33 100.065 702.33 87.3047C702.33 72.8516 706.833 61.1328 715.84 52.1484C723.803 44.2057 733.919 40.2344 746.189 40.2344C758.198 40.2344 767.336 44.4661 773.601 52.9297ZM753.238 64.4531C747.103 64.4531 741.947 66.5365 737.77 70.7031C733.462 75 731.308 80.2734 731.308 86.5234C731.308 92.7734 733.266 97.9818 737.182 102.148C741.49 106.706 747.038 108.984 753.825 108.984C759.569 108.984 764.464 106.966 768.51 102.93C773.079 98.6328 775.363 93.1641 775.363 86.5234C775.363 79.8828 773.21 74.5443 768.902 70.5078C764.725 66.4714 759.504 64.4531 753.238 64.4531Z" fill="#FBFBFB"/>
<path d="M865.834 127.93V101.758C872.36 107.617 880.323 110.547 889.721 110.547C895.987 110.547 900.947 109.375 904.602 107.031C908.518 104.557 911.129 100.846 912.434 95.8984H879.148V76.7578H912.434C910.737 72.2005 907.865 68.6849 903.819 66.2109C900.164 63.9974 895.399 62.8906 889.525 62.8906C880.649 62.8906 872.752 65.8854 865.834 71.875V46.2891C874.84 42.2526 884.304 40.2344 894.225 40.2344C909.236 40.2344 920.919 44.4011 929.273 52.7344C937.627 61.3281 941.804 72.3307 941.804 85.7422C941.804 100.456 937.366 112.24 928.49 121.094C920.397 129.167 908.583 133.203 893.05 133.203C883.26 133.203 874.188 131.445 865.834 127.93Z" fill="#FBFBFB"/>
<path d="M959.418 130.273V43.1641H987.614V77.7344L1016.2 43.1641H1051.25L1013.85 83.5938L1053.79 130.273H1017.38L987.614 91.6016V130.273H959.418Z" fill="#FBFBFB"/>
<path d="M1128.84 45.1172V70.7031C1123.49 66.276 1117.35 64.0625 1110.43 64.0625C1103.91 64.0625 1098.56 66.1458 1094.38 70.3125C1090.07 74.6094 1087.92 80.0781 1087.92 86.7188C1087.92 92.9688 1089.87 98.1771 1093.79 102.344C1098.1 107.031 1103.78 109.375 1110.83 109.375C1117.48 109.375 1123.49 107.096 1128.84 102.539V127.93C1122.44 131.445 1115 133.203 1106.52 133.203C1092.94 133.203 1081.65 128.841 1072.64 120.117C1063.51 111.263 1058.94 100.195 1058.94 86.9141C1058.94 73.112 1063.77 61.6537 1073.43 52.5391C1082.17 44.3359 1093.27 40.2344 1106.71 40.2344C1114.55 40.2344 1121.92 41.862 1128.84 45.1172Z" fill="#FBFBFB"/>
<path d="M1147.57 130.273V43.1641H1234.31V130.273H1206.11V65.8203H1175.77V130.273H1147.57Z" fill="#FBFBFB"/>
<path d="M1281.44 74.8047H1319.62C1318.57 70.638 1316.68 67.2526 1313.94 64.6484C1310.41 61.3932 1305.98 59.7656 1300.62 59.7656C1294.88 59.7656 1290.12 61.6537 1286.33 65.4297C1283.72 68.1641 1282.09 71.2891 1281.44 74.8047ZM1345.66 88.6719V91.6016H1280.46C1280.46 97.5911 1282.22 102.539 1285.74 106.445C1289.14 110.091 1293.97 111.914 1300.23 111.914C1304.93 111.914 1308.72 111.068 1311.59 109.375C1313.81 108.203 1315.83 105.794 1317.66 102.148L1344.29 104.883C1341.29 114.388 1335.67 121.68 1327.45 126.758C1320.27 131.055 1311.07 133.203 1299.84 133.203C1284.96 133.203 1273.34 129.036 1264.99 120.703C1256.24 111.979 1251.87 100.781 1251.87 87.1094C1251.87 73.3073 1256.31 61.849 1265.18 52.7344C1273.54 44.4011 1284.7 40.2344 1298.67 40.2344C1313.42 40.2344 1324.97 44.5964 1333.32 53.3203C1341.55 62.0443 1345.66 73.8281 1345.66 88.6719Z" fill="#FBFBFB"/>
<path d="M1391.45 120.312V175H1363.26V43.1641H1391.45V53.5156C1398.24 44.6615 1407.31 40.2344 1418.67 40.2344C1431.07 40.2344 1441.38 44.3359 1449.6 52.5391C1458.35 61.263 1462.72 72.5911 1462.72 86.5234C1462.72 100.586 1458.09 112.24 1448.82 121.484C1440.99 129.297 1431.13 133.203 1419.25 133.203C1406.85 133.203 1397.59 128.906 1391.45 120.312ZM1411.81 64.4531C1405.68 64.4531 1400.46 66.6016 1396.15 70.8984C1391.71 75.3255 1389.49 80.6641 1389.49 86.9141C1389.49 92.7734 1391.58 97.9167 1395.76 102.344C1400.2 106.771 1405.55 108.984 1411.81 108.984C1417.56 108.984 1422.58 106.966 1426.89 102.93C1431.46 98.6328 1433.74 93.099 1433.74 86.3281C1433.74 79.9479 1431.52 74.6745 1427.09 70.5078C1422.78 66.4714 1417.69 64.4531 1411.81 64.4531Z" fill="#FBFBFB"/>
<path d="M1546.07 65.8203H1522.57V130.273H1494.37V65.8203H1470.88V43.1641H1546.07V65.8203Z" fill="#FBFBFB"/>
<path d="M1643.85 54.2969C1652.59 63.0208 1656.96 73.8281 1656.96 86.7188C1656.96 99.6094 1652.59 110.417 1643.85 119.141C1634.45 128.516 1621.72 133.203 1605.67 133.203C1589.61 133.203 1576.88 128.516 1567.48 119.141C1558.74 110.417 1554.37 99.6094 1554.37 86.7188C1554.37 73.8281 1558.74 63.0208 1567.48 54.2969C1576.88 44.9219 1589.61 40.2344 1605.67 40.2344C1621.72 40.2344 1634.45 44.9219 1643.85 54.2969ZM1621.53 70.3125C1617.35 66.1458 1612.06 64.0625 1605.67 64.0625C1599.27 64.0625 1593.98 66.1458 1589.81 70.3125C1585.5 74.6094 1583.34 80.0781 1583.34 86.7188C1583.34 93.3594 1585.5 98.8281 1589.81 103.125C1593.98 107.292 1599.33 109.375 1605.86 109.375C1612.13 109.375 1617.35 107.292 1621.53 103.125C1625.83 98.8281 1627.99 93.3594 1627.99 86.7188C1627.99 80.0781 1625.83 74.6094 1621.53 70.3125Z" fill="#FBFBFB"/>
<path d="M1674.55 43.1641H1721.34C1731.39 43.1641 1738.64 45.0521 1743.08 48.8281C1747.78 52.8646 1750.13 58.5287 1750.13 65.8203C1750.13 71.6797 1748.36 76.3672 1744.84 79.8828C1743.01 81.9661 1740.6 83.5286 1737.59 84.5703C1742.69 85.612 1746.93 87.6953 1750.32 90.8203C1754.11 94.5964 1756 99.5443 1756 105.664C1756 112.565 1753.85 118.164 1749.54 122.461C1744.32 127.669 1737.07 130.273 1727.8 130.273H1674.55V43.1641ZM1702.74 77.9297H1714.29C1717.3 77.9297 1719.65 77.3438 1721.34 76.1719C1723.3 74.7396 1724.28 72.5911 1724.28 69.7266C1724.28 67.1224 1723.43 65.1042 1721.73 63.6719C1720.17 62.5 1717.56 61.9141 1713.9 61.9141H1702.74V77.9297ZM1702.74 111.523H1715.47C1719.39 111.523 1722.19 110.742 1723.89 109.18C1725.72 107.617 1726.63 105.339 1726.63 102.344C1726.63 99.8698 1725.72 97.8516 1723.89 96.2891C1722.06 94.7266 1718.86 93.9453 1714.29 93.9453H1702.74V111.523Z" fill="#FBFBFB"/>
</svg>
