<svg width="868" height="109" viewBox="0 0 868 109" fill="none" xmlns="http://www.w3.org/2000/svg">
<path d="M11.9334 11.7256C19.9693 3.90853 30.2955 0 42.9119 0C55.5283 0 65.8143 3.90853 73.7699 11.7256C81.8059 19.5426 85.8238 29.5532 85.8238 41.7574C85.8238 53.9616 81.8059 63.9722 73.7699 71.7892C65.8143 79.5265 55.5283 83.3952 42.9119 83.3952C30.2955 83.3952 19.9693 79.5265 11.9334 71.7892C3.97779 63.9722 0 53.9616 0 41.7574C0 29.5532 3.97779 19.5426 11.9334 11.7256ZM23.6257 61.6191C28.6079 66.7241 35.0367 69.2766 42.9119 69.2766C50.7871 69.2766 57.2159 66.7241 62.1982 61.6191C67.1805 56.4343 69.6716 49.8138 69.6716 41.7574C69.6716 33.7011 67.1403 27.0805 62.0776 21.8957C57.0953 16.7109 50.7068 14.1186 42.9119 14.1186C35.1171 14.1186 28.6883 16.7109 23.6257 21.8957C18.6434 27.0805 16.1522 33.7011 16.1522 41.7574C16.1522 49.8138 18.6434 56.4343 23.6257 61.6191Z" fill="#FBFBFB"/>
<path d="M137.391 31.2283V45.5862C134.096 42.5551 130.078 41.0395 125.337 41.0395C120.676 41.0395 117.06 42.4753 114.489 45.3469C111.917 48.1387 110.631 51.5686 110.631 55.6367C110.631 59.8643 112.038 63.374 114.85 66.1658C117.743 68.9576 121.399 70.3535 125.819 70.3535C130.159 70.3535 134.016 68.8379 137.391 65.8068V80.045C133.052 82.1987 128.551 83.2755 123.891 83.2755C115.774 83.2755 109.064 80.7629 103.761 75.7376C98.2158 70.5529 95.4434 63.9323 95.4434 55.876C95.4434 47.1017 98.4569 40.0823 104.484 34.8178C109.546 30.3509 115.814 28.1175 123.288 28.1175C128.351 28.1175 133.052 29.1544 137.391 31.2283Z" fill="#FBFBFB"/>
<path d="M188.669 42.236H174.204V81.6004H159.499V42.236H145.034V29.7925H188.669V42.236Z" fill="#FBFBFB"/>
<path d="M236.405 36.4929V29.7925H251.111V81.6004H236.405V74.9001C232.468 80.4837 227.124 83.2755 220.374 83.2755C212.498 83.2755 206.07 80.6034 201.087 75.2591C196.185 69.9147 193.735 63.3739 193.735 55.6367C193.735 47.8196 196.145 41.2788 200.967 36.0143C205.788 30.7497 212.016 28.1175 219.65 28.1175C227.204 28.1175 232.789 30.9093 236.405 36.4929ZM233.754 45.2272C231.021 42.4354 227.566 41.0395 223.387 41.0395C219.208 41.0395 215.753 42.4354 213.021 45.2272C210.289 48.019 208.922 51.4888 208.922 55.6367C208.922 59.7845 210.289 63.2942 213.021 66.1658C215.753 68.9576 219.208 70.3535 223.387 70.3535C227.566 70.3535 231.021 68.9576 233.754 66.1658C236.486 63.2942 237.852 59.7845 237.852 55.6367C237.852 51.4888 236.486 48.019 233.754 45.2272Z" fill="#FBFBFB"/>
<path d="M265.131 29.7925H288.154C293.699 29.7925 297.838 30.8295 300.57 32.9034C303.945 35.4559 305.632 38.846 305.632 43.0735C305.632 45.307 304.99 47.4208 303.704 49.4149C302.498 51.3293 300.731 52.7651 298.4 53.7223C300.972 54.2009 303.262 55.3176 305.271 57.0724C307.923 59.4654 309.249 62.6959 309.249 66.764C309.249 71.6297 307.4 75.4585 303.704 78.2503C300.65 80.4837 296.753 81.6004 292.012 81.6004H265.131V29.7925ZM279.837 50.3721H286.587C288.114 50.3721 289.4 50.0531 290.445 49.4149C291.73 48.6173 292.373 47.4208 292.373 45.8255C292.373 44.1504 291.811 42.914 290.686 42.1164C289.882 41.558 288.436 41.2788 286.346 41.2788H279.837V50.3721ZM279.837 70.1142H286.708C289.199 70.1142 291.007 69.6754 292.132 68.798C293.418 67.8408 294.061 66.4449 294.061 64.6103C294.061 62.9352 293.418 61.6989 292.132 60.9012C291.007 60.1035 289.32 59.7047 287.069 59.7047H279.837V70.1142Z" fill="#FBFBFB"/>
<path d="M320.104 29.7925H334.81V61.7388L358.917 29.7925H373.623V81.6004H358.917V49.6542L334.81 81.6004H320.104V29.7925Z" fill="#FBFBFB"/>
<path d="M424.921 42.236H410.456V81.6004H395.75V42.236H381.286V29.7925H424.921V42.236Z" fill="#FBFBFB"/>
<path d="M432.638 29.7925H447.344V48.2184H458.795C464.903 48.2184 469.563 49.9733 472.778 53.483C475.43 56.2748 476.756 59.9839 476.756 64.6103C476.756 70.2737 474.907 74.6608 471.211 77.7717C468.238 80.3242 464.34 81.6004 459.519 81.6004H432.638V29.7925ZM447.344 70.1142H454.215C456.706 70.1142 458.514 69.6754 459.639 68.798C460.925 67.8408 461.568 66.4449 461.568 64.6103C461.568 62.9352 460.925 61.6989 459.639 60.9012C458.514 60.1035 456.826 59.7047 454.576 59.7047H447.344V70.1142Z" fill="#FBFBFB"/>
<path d="M520.342 43.6718L513.592 34.5785C519.056 30.2711 525.646 28.1175 533.36 28.1175C539.226 28.1175 543.847 29.2741 547.222 31.5873C551.16 34.2195 553.128 37.8888 553.128 42.595C553.128 47.3809 550.718 51.09 545.896 53.7223C548.468 54.3604 550.758 55.517 552.767 57.1921C555.419 59.5851 556.745 62.7757 556.745 66.764C556.745 71.7892 554.736 75.7775 550.718 78.7289C546.7 81.76 540.994 83.2755 533.601 83.2755C524.279 83.2755 516.806 80.404 511.181 74.6608L518.413 65.8068C522.351 69.476 527.012 71.3107 532.396 71.3107C535.771 71.3107 538.141 70.7124 539.508 69.5159C540.874 68.3194 541.557 66.9634 541.557 65.4479C541.557 63.5335 540.633 62.0977 538.784 61.1405C537.498 60.5024 535.409 60.1833 532.516 60.1833H526.369V49.6542H532.275C534.927 49.6542 536.856 49.2554 538.061 48.4577C539.266 47.6601 539.869 46.4636 539.869 44.8683C539.869 41.3586 537.217 39.6037 531.914 39.6037C527.413 39.6037 523.556 40.9598 520.342 43.6718Z" fill="#FBFBFB"/>
<path d="M608.146 36.4929V29.7925H622.852V81.6004H608.146V74.9001C604.208 80.4837 598.865 83.2755 592.114 83.2755C584.239 83.2755 577.81 80.6034 572.828 75.2591C567.926 69.9147 565.475 63.3739 565.475 55.6367C565.475 47.8196 567.886 41.2788 572.708 36.0143C577.529 30.7497 583.757 28.1175 591.391 28.1175C598.945 28.1175 604.53 30.9093 608.146 36.4929ZM605.494 45.2272C602.762 42.4354 599.306 41.0395 595.128 41.0395C590.949 41.0395 587.494 42.4354 584.761 45.2272C582.029 48.019 580.663 51.4888 580.663 55.6367C580.663 59.7845 582.029 63.2942 584.761 66.1658C587.494 68.9576 590.949 70.3535 595.128 70.3535C599.306 70.3535 602.762 68.9576 605.494 66.1658C608.226 63.2942 609.592 59.7845 609.592 55.6367C609.592 51.4888 608.226 48.019 605.494 45.2272Z" fill="#FBFBFB"/>
<path d="M632.292 81.6004L647.721 62.2173C644.345 61.7387 641.533 60.3827 639.283 58.1493C636.551 55.4373 635.184 51.768 635.184 47.1416C635.184 41.7973 637.274 37.4501 641.452 34.0999C645.149 31.2283 650.533 29.7925 657.605 29.7925H678.337V81.6004H663.632V63.4138H661.944L649.167 81.6004H632.292ZM663.632 52.8847V41.2788H657.243C654.993 41.2788 653.346 41.7574 652.301 42.7146C651.015 43.9111 650.372 45.4266 650.372 47.2613C650.372 49.1756 651.015 50.6114 652.301 51.5686C653.426 52.446 655.073 52.8847 657.243 52.8847H663.632Z" fill="#FBFBFB"/>
<path d="M692.315 29.7925H715.338C720.883 29.7925 725.021 30.8295 727.754 32.9034C731.129 35.4559 732.816 38.846 732.816 43.0735C732.816 45.307 732.174 47.4208 730.888 49.4149C729.682 51.3293 727.914 52.7651 725.584 53.7223C728.155 54.2009 730.446 55.3176 732.455 57.0724C735.107 59.4654 736.432 62.6959 736.432 66.764C736.432 71.6297 734.584 75.4585 730.888 78.2503C727.834 80.4837 723.937 81.6004 719.195 81.6004H692.315V29.7925ZM707.021 50.3721H713.771C715.298 50.3721 716.584 50.0531 717.628 49.4149C718.914 48.6173 719.557 47.4208 719.557 45.8255C719.557 44.1504 718.995 42.914 717.87 42.1164C717.066 41.558 715.619 41.2788 713.53 41.2788H707.021V50.3721ZM707.021 70.1142H713.892C716.383 70.1142 718.191 69.6754 719.316 68.798C720.602 67.8408 721.245 66.4449 721.245 64.6103C721.245 62.9352 720.602 61.6989 719.316 60.9012C718.191 60.1035 716.503 59.7047 714.253 59.7047H707.021V70.1142Z" fill="#FBFBFB"/>
<path d="M747.288 29.7925H761.993V49.8935L781.521 29.7925H799.843L776.217 52.8847L801.048 81.6004H782.244L764.163 60.1833L761.993 62.337V81.6004H747.288V29.7925Z" fill="#FBFBFB"/>
<path d="M809.297 109L828.463 73.8233L803.632 29.7925H820.749L836.901 59.2261L851.366 29.7925H868L825.932 109H809.297Z" fill="#FBFBFB"/>
</svg>
