<svg width="1380" height="259" viewBox="0 0 1380 259" fill="none" xmlns="http://www.w3.org/2000/svg">
<path d="M0 0H183.498V248.208H155.786V26.0489H27.7119V248.208H0V0Z" fill="#FBFBFB"/>
<path d="M372.654 229.602C357.175 244.983 337.577 252.674 313.86 252.674C290.142 252.674 270.42 244.983 254.691 229.602C239.212 214.221 231.473 194.87 231.473 171.55C231.473 147.982 239.212 128.508 254.691 113.126C270.42 97.7452 290.142 90.0546 313.86 90.0546C337.577 90.0546 357.175 97.7452 372.654 113.126C388.383 128.508 396.247 147.982 396.247 171.55C396.247 194.87 388.383 214.221 372.654 229.602ZM352.432 129.128C341.946 118.956 329.089 113.871 313.86 113.871C298.631 113.871 285.649 119.08 274.913 129.5C264.428 139.671 259.185 153.688 259.185 171.55C259.185 189.412 264.553 203.429 275.288 213.601C286.023 223.772 298.88 228.858 313.86 228.858C328.839 228.858 341.697 223.772 352.432 213.601C363.167 203.429 368.535 189.412 368.535 171.55C368.535 153.44 363.167 139.299 352.432 129.128Z" fill="#FBFBFB"/>
<path d="M552.937 196.483L575.406 208.763C570.163 218.686 563.797 226.997 556.307 233.695C542.077 246.348 524.85 252.674 504.628 252.674C483.657 252.674 465.557 245.976 450.328 232.579C435.348 218.934 427.859 198.716 427.859 171.922C427.859 148.354 434.599 128.88 448.081 113.499C461.812 97.8692 480.162 90.0546 503.13 90.0546C529.095 90.0546 548.693 99.4818 561.924 118.336C572.41 133.221 577.278 152.572 576.529 176.388H455.571C455.82 192.017 460.688 204.67 470.175 214.345C479.662 224.02 491.272 228.858 505.003 228.858C517.236 228.858 527.846 225.136 536.834 217.694C543.824 211.74 549.192 204.67 552.937 196.483ZM457.443 154.06H548.818C546.571 141.904 541.203 132.229 532.715 125.034C524.476 117.592 514.614 113.871 503.13 113.871C491.896 113.871 481.909 117.716 473.171 125.407C464.683 132.849 459.44 142.4 457.443 154.06Z" fill="#FBFBFB"/>
<path d="M591.763 248.208L658.047 165.596L601.5 93.7759H634.455L674.525 146.246L715.344 93.7759H748.298L691.377 165.968L755.788 248.208H722.833L673.776 185.319L624.718 248.208H591.763Z" fill="#FBFBFB"/>
<path d="M903.373 115.731V93.7759H930.336V248.208H903.373V226.625C889.892 243.991 872.166 252.674 850.196 252.674C829.225 252.674 811.375 245.479 796.645 231.09C781.915 216.702 774.55 196.607 774.55 170.806C774.55 145.501 781.79 125.779 796.271 111.638C811 97.249 828.976 90.0546 850.196 90.0546C872.666 90.0546 890.391 98.6135 903.373 115.731ZM853.192 113.871C838.962 113.871 826.854 118.956 816.867 129.128C807.131 139.051 802.262 152.944 802.262 170.806C802.262 187.924 806.756 201.941 815.744 212.856C824.981 223.524 837.464 228.858 853.192 228.858C868.921 228.858 881.404 223.276 890.641 212.112C900.128 200.948 904.871 187.304 904.871 171.178C904.871 152.82 899.628 138.679 889.143 128.756C878.657 118.832 866.674 113.871 853.192 113.871Z" fill="#FBFBFB"/>
<path d="M1098.99 93.7759V248.208H1072.03V118.336H1016.61V187.924C1016.61 208.019 1012.61 222.904 1004.62 232.579C995.634 243.495 983.151 248.953 967.173 248.953C965.176 248.953 962.43 248.705 958.935 248.208V223.648C961.431 224.144 963.429 224.392 964.927 224.392C973.664 224.392 980.156 221.043 984.4 214.345C987.895 208.887 989.643 200.08 989.643 187.924V93.7759H1098.99Z" fill="#FBFBFB"/>
<path d="M1150 93.7759H1176.96V195.738L1283.31 81.8678V248.208H1256.35V145.129L1150 259V93.7759Z" fill="#FBFBFB"/>
<path d="M1374.76 197.971H1347.79V0H1374.76V197.971ZM1348.17 246.348C1344.42 242.626 1342.55 238.285 1342.55 233.323C1342.55 228.362 1344.42 224.02 1348.17 220.299C1351.91 216.578 1356.28 214.717 1361.28 214.717C1366.27 214.717 1370.64 216.578 1374.38 220.299C1378.13 224.02 1380 228.362 1380 233.323C1380 238.285 1378.13 242.626 1374.38 246.348C1370.64 250.069 1366.27 251.93 1361.28 251.93C1356.28 251.93 1351.91 250.069 1348.17 246.348Z" fill="#FBFBFB"/>
</svg>
