<svg width="1920" height="378" viewBox="0 0 1920 378" fill="none" xmlns="http://www.w3.org/2000/svg">
<path d="M0 17.3099H59.2568C83.9807 17.3099 103.599 22.1406 118.11 31.8019C128.86 39.0479 137.056 48.5751 142.7 60.3834C148.612 71.9233 151.568 84.1342 151.568 97.016C151.568 121.169 142.834 140.76 125.366 155.789C108.973 169.744 87.0712 176.722 59.6599 176.722H41.1169V285.815H0V17.3099ZM41.1169 55.1502V138.882H59.6599C76.8591 138.882 89.8929 135.125 98.7613 127.61C107.63 119.827 112.064 109.495 112.064 96.6134C112.064 92.0511 111.392 87.7572 110.048 83.7316C108.973 79.7061 106.689 75.4121 103.195 70.8498C99.9706 66.0192 94.5958 62.262 87.0712 59.5783C79.5465 56.6262 70.275 55.1502 59.2568 55.1502H41.1169Z" fill="#FBFBFB"/>
<path d="M310.582 136.064V116.339H350.086V285.815H310.582V268.102C297.413 283.399 280.483 291.048 259.79 291.048C234.797 291.048 214.776 282.192 199.727 264.479C184.946 246.767 177.556 225.566 177.556 200.875C177.556 174.038 185.484 152.569 201.34 136.466C217.464 120.096 237.082 111.911 260.193 111.911C281.423 111.911 298.22 119.962 310.582 136.064ZM265.03 147.335C251.056 147.335 239.635 152.569 230.766 163.035C222.167 173.502 217.867 186.383 217.867 201.681C217.867 216.709 222.167 229.457 230.766 239.923C239.635 250.39 251.056 255.623 265.03 255.623C278.467 255.623 289.754 250.927 298.891 241.534C308.297 232.141 313 218.99 313 202.083C313 184.639 308.297 171.22 298.891 161.827C289.754 152.166 278.467 147.335 265.03 147.335Z" fill="#FBFBFB"/>
<path d="M423.159 160.217L397.763 138.077C404.213 130.294 412.812 123.987 423.562 119.157C434.849 114.326 448.151 111.911 463.469 111.911C481.206 111.911 495.584 115.802 506.602 123.585C518.426 132.173 524.339 143.712 524.339 158.204C524.339 167.597 521.92 175.38 517.083 181.553C513.052 186.92 507.677 190.946 500.958 193.629C511.171 195.776 519.367 199.936 525.548 206.109C532.804 213.355 536.432 222.748 536.432 234.288C536.432 249.585 531.595 262.064 521.92 271.725C509.021 284.607 489.134 291.048 462.26 291.048C444.255 291.048 429.474 287.693 417.918 280.984C405.825 274.006 396.957 263.943 391.313 250.792L422.756 234.69C426.518 242.741 431.49 248.645 437.671 252.403C444.389 256.696 452.854 258.843 463.066 258.843C475.428 258.843 484.431 256.026 490.075 250.39C494.106 245.827 496.121 240.863 496.121 235.495C496.121 229.859 494.374 225.297 490.881 221.808C486.312 216.978 476.906 214.562 462.663 214.562H444.927V182.358H459.842C468.441 182.358 474.891 180.882 479.191 177.93C484.028 174.173 486.447 169.208 486.447 163.035C486.447 156.594 484.028 151.764 479.191 148.543C475.16 145.591 468.844 144.115 460.245 144.115C452.182 144.115 444.792 145.725 438.074 148.946C432.43 151.629 427.459 155.387 423.159 160.217Z" fill="#FBFBFB"/>
<path d="M617.227 266.089V378H577.722V116.339H617.227V134.856C630.126 119.559 646.922 111.911 667.615 111.911C690.727 111.911 710.21 120.096 726.066 136.466C742.19 152.569 750.252 173.77 750.252 200.07C750.252 227.176 741.921 249.182 725.259 266.089C708.598 282.728 689.517 291.048 668.018 291.048C647.863 291.048 630.932 282.728 617.227 266.089ZM662.778 147.335C649.341 147.335 637.919 152.166 628.514 161.827C619.377 171.22 614.808 184.639 614.808 202.083C614.808 218.99 619.377 232.141 628.514 241.534C637.919 250.927 649.341 255.623 662.778 255.623C676.752 255.623 688.039 250.39 696.639 239.923C705.507 229.457 709.941 216.709 709.941 201.681C709.941 186.383 705.507 173.502 696.639 163.035C688.039 152.569 676.752 147.335 662.778 147.335Z" fill="#FBFBFB"/>
<path d="M915.636 136.064V116.339H955.141V285.815H915.636V268.102C902.468 283.399 885.538 291.048 864.845 291.048C839.852 291.048 819.831 282.192 804.782 264.479C790.001 246.767 782.611 225.566 782.611 200.875C782.611 174.038 790.539 152.569 806.394 136.466C822.518 120.096 842.136 111.911 865.248 111.911C886.478 111.911 903.274 119.962 915.636 136.064ZM870.085 147.335C856.111 147.335 844.689 152.569 835.821 163.035C827.221 173.502 822.922 186.383 822.922 201.681C822.922 216.709 827.221 229.457 835.821 239.923C844.689 250.39 856.111 255.623 870.085 255.623C883.522 255.623 894.809 250.927 903.946 241.534C913.352 232.141 918.055 218.99 918.055 202.083C918.055 184.639 913.352 171.22 903.946 161.827C894.809 152.166 883.522 147.335 870.085 147.335Z" fill="#FBFBFB"/>
<path d="M1133.42 0H1173.74C1170.78 13.9553 1164.6 26.0319 1155.19 36.23C1145.79 46.4281 1134.23 53.4058 1120.52 57.1629L1093.92 64.409C1086.93 66.2875 1081.56 67.8978 1077.8 69.2396C1074.03 70.5815 1069.33 73.131 1063.69 76.8882C1058.31 80.377 1053.74 84.6709 1049.98 89.77C1041.11 101.578 1036.41 116.875 1035.87 135.661H1036.28C1048.1 119.827 1067.31 111.911 1093.92 111.911C1117.84 111.911 1137.59 119.962 1153.18 136.064C1169.57 152.971 1177.77 174.441 1177.77 200.473C1177.77 226.773 1169.03 248.511 1151.56 265.687C1134.36 282.594 1112.87 291.048 1087.07 291.048C1061.27 291.048 1040.58 283.534 1024.99 268.505C1016.39 260.454 1009.8 250.524 1005.24 238.716C1000.67 226.907 997.98 217.246 997.174 209.732C996.637 201.949 996.368 192.556 996.368 181.553C996.368 128.952 1004.97 90.1725 1022.17 65.2141C1035.07 46.1598 1052 34.0831 1072.96 28.984L1101.18 22.1406C1119.72 17.5783 1130.47 10.1981 1133.42 0ZM1050.38 241.131C1059.52 250.792 1071.75 255.623 1087.07 255.623C1102.39 255.623 1114.61 250.792 1123.75 241.131C1132.89 231.201 1137.46 218.051 1137.46 201.681C1137.46 183.7 1132.48 170.147 1122.54 161.022C1112.87 151.898 1101.04 147.335 1087.07 147.335C1073.09 147.335 1061.13 151.898 1051.19 161.022C1041.52 170.147 1036.68 183.7 1036.68 201.681C1036.68 218.051 1041.25 231.201 1050.38 241.131Z" fill="#FBFBFB"/>
<path d="M1235.92 137.272C1253.39 120.364 1275.03 111.911 1300.82 111.911C1326.62 111.911 1348.12 120.364 1365.32 137.272C1382.79 153.911 1391.52 175.246 1391.52 201.278C1391.52 227.042 1382.79 248.511 1365.32 265.687C1348.12 282.594 1326.62 291.048 1300.82 291.048C1275.03 291.048 1253.39 282.594 1235.92 265.687C1218.72 248.511 1210.12 227.042 1210.12 201.278C1210.12 175.246 1218.72 153.911 1235.92 137.272ZM1264.14 241.131C1273.28 250.792 1285.51 255.623 1300.82 255.623C1316.14 255.623 1328.37 250.792 1337.51 241.131C1346.64 231.201 1351.21 218.051 1351.21 201.681C1351.21 183.7 1346.24 170.147 1336.3 161.022C1326.62 151.898 1314.8 147.335 1300.82 147.335C1286.85 147.335 1274.89 151.898 1264.95 161.022C1255.27 170.147 1250.44 183.7 1250.44 201.681C1250.44 218.051 1255 231.201 1264.14 241.131Z" fill="#FBFBFB"/>
<path d="M1549.65 152.569H1500.07V285.815H1460.56V152.569H1410.98V116.339H1549.65V152.569Z" fill="#FBFBFB"/>
<path d="M1578.01 116.339H1617.52V176.722L1673.95 116.339H1726.35L1652.18 190.409L1730.39 285.815H1680.4L1623.97 216.173L1617.52 222.613V285.815H1578.01V116.339Z" fill="#FBFBFB"/>
<path d="M1880.5 136.064V116.339H1920V285.815H1880.5V268.102C1867.33 283.399 1850.4 291.048 1829.7 291.048C1804.71 291.048 1784.69 282.192 1769.64 264.479C1754.86 246.767 1747.47 225.566 1747.47 200.875C1747.47 174.038 1755.4 152.569 1771.25 136.466C1787.38 120.096 1807 111.911 1830.11 111.911C1851.34 111.911 1868.13 119.962 1880.5 136.064ZM1834.94 147.335C1820.97 147.335 1809.55 152.569 1800.68 163.035C1792.08 173.502 1787.78 186.383 1787.78 201.681C1787.78 216.709 1792.08 229.457 1800.68 239.923C1809.55 250.39 1820.97 255.623 1834.94 255.623C1848.38 255.623 1859.67 250.927 1868.81 241.534C1878.21 232.141 1882.91 218.99 1882.91 202.083C1882.91 184.639 1878.21 171.22 1868.81 161.827C1859.67 152.166 1848.38 147.335 1834.94 147.335Z" fill="#FBFBFB"/>
</svg>
