<svg width="814" height="92" viewBox="0 0 814 92" fill="none" xmlns="http://www.w3.org/2000/svg">
<path d="M0 1.50035H13.8362C21.523 1.50035 27.4033 3.11612 31.4773 6.34766C36.0894 9.88696 38.3954 15.1959 38.3954 22.2745C38.3954 28.8915 35.8588 33.9311 30.7855 37.3935C35.705 38.6246 39.3563 41.1252 41.7392 44.8953C44.1989 48.5885 45.4288 52.5509 45.4288 56.7827C45.4288 60.2451 44.6601 63.4382 43.1228 66.3619C41.6623 69.2857 39.8175 71.6324 37.5883 73.4021C33.2837 76.7875 27.1343 78.4802 19.1401 78.4802H0V1.50035ZM8.53231 9.5792V35.3161H14.9892C16.1422 35.3161 17.2568 35.2776 18.3329 35.2007C19.4091 35.0468 20.6774 34.739 22.1379 34.2774C23.6752 33.7388 24.982 33.0463 26.0581 32.2C27.2112 31.3536 28.172 30.0841 28.9407 28.3914C29.7094 26.6987 30.0937 24.7366 30.0937 22.5053C30.0937 20.1202 29.6325 18.0812 28.7101 16.3885C27.7877 14.6189 26.75 13.3109 25.5969 12.4645C24.4439 11.6181 23.0603 10.9641 21.4461 10.5025C19.8319 10.0408 18.602 9.77155 17.7564 9.69461C16.9109 9.61767 16.0653 9.5792 15.2198 9.5792H8.53231ZM8.53231 42.9333V70.4014H18.3329C24.5592 70.4014 29.056 69.3242 31.8232 67.1698C35.2054 64.7077 36.8965 61.1684 36.8965 56.5519C36.8965 51.3968 34.7058 47.6267 30.3243 45.2415C27.5571 43.7027 23.214 42.9333 17.2952 42.9333H8.53231Z" fill="#FBFBFB"/>
<path d="M95.7318 37.3935V30.5842H104.034V78.4802H95.7318V71.7863C91.5809 77.1722 86.1233 79.8651 79.359 79.8651C72.9021 79.8651 67.4061 77.6338 62.8709 73.1712C58.3357 68.7086 56.0681 62.4764 56.0681 54.4745C56.0681 46.6265 58.2972 40.5096 62.7556 36.124C67.2908 31.6614 72.8252 29.4301 79.359 29.4301C86.2771 29.4301 91.7347 32.0845 95.7318 37.3935ZM80.2814 36.8164C75.8999 36.8164 72.1718 38.3937 69.0971 41.5483C66.0993 44.626 64.6004 48.9347 64.6004 54.4745C64.6004 59.7834 65.984 64.1306 68.7512 67.516C71.5953 70.8245 75.4387 72.4788 80.2814 72.4788C85.1241 72.4788 88.9674 70.7476 91.8115 67.2852C94.7325 63.8229 96.193 59.5911 96.193 54.5899C96.193 48.8962 94.5788 44.5106 91.3503 41.4329C88.1219 38.3553 84.4322 36.8164 80.2814 36.8164Z" fill="#FBFBFB"/>
<path d="M119.757 78.4802V30.5842H128.059V70.863H146.507V30.5842H154.809V70.863H173.257V30.5842H181.558V78.4802H119.757Z" fill="#FBFBFB"/>
<path d="M233.891 37.3935V30.5842H242.193V78.4802H233.891V71.7863C229.74 77.1722 224.282 79.8651 217.518 79.8651C211.061 79.8651 205.565 77.6338 201.03 73.1712C196.495 68.7086 194.227 62.4764 194.227 54.4745C194.227 46.6265 196.456 40.5096 200.915 36.124C205.45 31.6614 210.984 29.4301 217.518 29.4301C224.436 29.4301 229.894 32.0845 233.891 37.3935ZM218.441 36.8164C214.059 36.8164 210.331 38.3937 207.256 41.5483C204.258 44.626 202.76 48.9347 202.76 54.4745C202.76 59.7834 204.143 64.1306 206.91 67.516C209.755 70.8245 213.598 72.4788 218.441 72.4788C223.283 72.4788 227.127 70.7476 229.971 67.2852C232.892 63.8229 234.352 59.5911 234.352 54.5899C234.352 48.8962 232.738 44.5106 229.51 41.4329C226.281 38.3553 222.591 36.8164 218.441 36.8164Z" fill="#FBFBFB"/>
<path d="M322.3 34.0466V43.972C318.534 39.2016 313.537 36.8164 307.311 36.8164C302.622 36.8164 298.625 38.4322 295.32 41.6637C292.014 44.8183 290.362 49.1655 290.362 54.7053C290.362 60.2451 292.014 64.5923 295.32 67.7469C298.625 70.9015 302.584 72.4788 307.196 72.4788C313.345 72.4788 318.495 69.9782 322.646 64.977V74.9024C318.111 78.2109 313.038 79.8651 307.426 79.8651C299.97 79.8651 293.821 77.5184 288.978 72.825C284.212 68.0546 281.829 62.0532 281.829 54.8207C281.829 47.5113 284.251 41.4714 289.093 36.701C293.936 31.8537 300.047 29.4301 307.426 29.4301C312.961 29.4301 317.919 30.9689 322.3 34.0466Z" fill="#FBFBFB"/>
<path d="M335.384 30.5842H343.686V50.2042L363.057 30.5842H373.203L352.449 51.9354L375.74 78.4802H364.901L346.223 57.4752L343.686 59.8989V78.4802H335.384V30.5842Z" fill="#FBFBFB"/>
<path d="M384.027 30.5842H392.329V62.2071L425.074 26.891V78.4802H416.773V46.5111L384.027 81.8271V30.5842Z" fill="#FBFBFB"/>
<path d="M444.236 30.5842H477.904V70.863H485.053V91.1755H477.443V78.4802H441.008V91.1755H433.398V70.863C437.395 70.7861 440.354 68.7086 442.276 64.6307C443.583 61.9378 444.236 57.706 444.236 51.9354V30.5842ZM469.602 70.863V38.2014H452.538V56.2057C452.538 62.5918 450.616 67.4776 446.773 70.863H469.602Z" fill="#FBFBFB"/>
<path d="M493.811 30.5842H502.113V50.2042L521.484 30.5842H531.63L510.876 51.9354L534.167 78.4802H523.328L504.65 57.4752L502.113 59.8989V78.4802H493.811V30.5842Z" fill="#FBFBFB"/>
<path d="M579.12 37.3935V30.5842H587.422V78.4802H579.12V71.7863C574.969 77.1722 569.511 79.8651 562.747 79.8651C556.29 79.8651 550.794 77.6338 546.259 73.1712C541.724 68.7086 539.456 62.4764 539.456 54.4745C539.456 46.6265 541.685 40.5096 546.144 36.124C550.679 31.6614 556.213 29.4301 562.747 29.4301C569.665 29.4301 575.123 32.0845 579.12 37.3935ZM563.67 36.8164C559.288 36.8164 555.56 38.3937 552.485 41.5483C549.487 44.626 547.989 48.9347 547.989 54.4745C547.989 59.7834 549.372 64.1306 552.139 67.516C554.983 70.8245 558.827 72.4788 563.67 72.4788C568.512 72.4788 572.356 70.7476 575.2 67.2852C578.121 63.8229 579.581 59.5911 579.581 54.5899C579.581 48.8962 577.967 44.5106 574.739 41.4329C571.51 38.3553 567.82 36.8164 563.67 36.8164Z" fill="#FBFBFB"/>
<path d="M652.886 78.4802V9.5792H639.972L644.469 1.50035H661.418V78.4802H652.886Z" fill="#FBFBFB"/>
<path d="M725.868 78.4802H676.173L704.192 46.0494C708.957 40.4327 711.955 36.701 713.185 34.8544C716.029 30.7765 717.451 26.8525 717.451 23.0824C717.451 18.6968 716.029 15.119 713.185 12.3491C710.341 9.50226 706.651 8.07884 702.116 8.07884C696.582 8.07884 692.315 10.3486 689.318 14.8882C687.703 17.3503 686.858 20.3895 686.781 24.0057H678.249C678.556 17.4657 680.478 12.1567 684.014 8.07884C688.626 2.84683 694.698 0.230821 702.231 0.230821C709.073 0.230821 714.722 2.42365 719.181 6.80931C723.716 11.118 725.983 16.5809 725.983 23.1978C725.983 28.3529 723.946 33.8542 719.872 39.7017C717.797 42.5486 714.3 46.8188 709.38 52.5125L693.353 70.6322H725.868V78.4802Z" fill="#FBFBFB"/>
<path d="M744.588 5.65519C747.817 2.42365 751.776 0.807881 756.464 0.807881C761.153 0.807881 765.112 2.42365 768.341 5.65519C771.569 8.88672 773.183 12.8492 773.183 17.5426C773.183 22.2361 771.569 26.1985 768.341 29.4301C765.112 32.6616 761.153 34.2774 756.464 34.2774C751.776 34.2774 747.817 32.6616 744.588 29.4301C741.36 26.1985 739.746 22.2361 739.746 17.5426C739.746 12.8492 741.36 8.88672 744.588 5.65519ZM756.464 27.9297C759.232 27.9297 761.538 26.9295 763.383 24.929C765.304 22.8516 766.265 20.3895 766.265 17.5426C766.265 14.6958 765.304 12.2721 763.383 10.2717C761.538 8.19425 759.232 7.15554 756.464 7.15554C753.774 7.15554 751.468 8.19425 749.546 10.2717C747.625 12.2721 746.664 14.6958 746.664 17.5426C746.664 20.3895 747.625 22.8516 749.546 24.929C751.468 26.9295 753.774 27.9297 756.464 27.9297ZM752.198 77.3261L797.051 0L801.547 2.53906L756.695 79.9806L752.198 77.3261ZM785.405 50.6659C788.634 47.4344 792.592 45.8186 797.281 45.8186C801.97 45.8186 805.929 47.4344 809.157 50.6659C812.386 53.8974 814 57.8599 814 62.5533C814 67.2467 812.386 71.2092 809.157 74.4408C805.929 77.6723 801.97 79.2881 797.281 79.2881C792.592 79.2881 788.634 77.6723 785.405 74.4408C782.177 71.2092 780.563 67.2467 780.563 62.5533C780.563 57.8599 782.177 53.8974 785.405 50.6659ZM797.281 72.9404C800.049 72.9404 802.354 71.9402 804.199 69.9397C806.121 67.8623 807.082 65.4002 807.082 62.5533C807.082 59.7065 806.121 57.2828 804.199 55.2824C802.354 53.205 800.049 52.1662 797.281 52.1662C794.591 52.1662 792.285 53.205 790.363 55.2824C788.441 57.2828 787.481 59.7065 787.481 62.5533C787.481 65.4002 788.441 67.8623 790.363 69.9397C792.285 71.9402 794.591 72.9404 797.281 72.9404Z" fill="#FBFBFB"/>
</svg>
