<svg width="1460" height="193" viewBox="0 0 1460 193" fill="none" xmlns="http://www.w3.org/2000/svg">
<path d="M20.778 143.673V24.125H0V0H48.9148V143.673H20.778Z" fill="#FBFBFB"/>
<path d="M104.056 143.673V24.125H83.2776V0H132.192V143.673H104.056Z" fill="#FBFBFB"/>
<path d="M323.904 50.404V143.673H297.498V72.8058H271.959V107.055C271.959 119.117 269.001 128.308 263.085 134.626C257.169 141.232 248.728 144.535 237.761 144.535C234.876 144.535 232.278 144.247 229.97 143.673V121.271C231.701 121.558 233.072 121.702 234.082 121.702C238.844 121.702 242.451 120.194 244.904 117.179C247.068 114.594 248.15 110.645 248.15 105.331V50.404H323.904Z" fill="#FBFBFB"/>
<path d="M416.755 113.732L440.996 117.609C439.986 120.194 438.615 122.779 436.884 125.364C435.297 127.805 432.772 130.892 429.309 134.626C425.846 138.216 421.156 141.16 415.24 143.458C409.324 145.612 402.542 146.689 394.895 146.689C380.177 146.689 368.201 142.309 358.966 133.549C349.155 124.359 344.249 112.224 344.249 97.1462C344.249 82.2117 349.01 70.0056 358.533 60.5279C367.48 51.7682 379.239 47.3884 393.813 47.3884C409.685 47.3884 421.878 52.4862 430.391 62.6819C437.894 71.5852 441.645 83.7913 441.645 99.3002V101.454H371.52C371.52 107.773 373.035 113.014 376.065 117.179C380.394 123.066 386.67 126.01 394.895 126.01C404.707 126.01 411.993 121.917 416.755 113.732ZM372.385 84.6529H416.755C415.745 78.6217 413.076 74.0264 408.747 70.8672C404.562 67.5644 399.801 65.9129 394.462 65.9129C389.268 65.9129 384.506 67.5644 380.177 70.8672C375.993 74.17 373.396 78.7652 372.385 84.6529Z" fill="#FBFBFB"/>
<path d="M529.186 72.8058H503.213V143.673H476.808V72.8058H450.836V50.404H529.186V72.8058Z" fill="#FBFBFB"/>
<path d="M593.559 143.673V50.404H619.964V83.3605H656.759V50.404H683.164V143.673H656.759V105.762H619.964V143.673H593.559Z" fill="#FBFBFB"/>
<path d="M780.187 62.4665V50.404H806.593V143.673H780.187V131.61C773.117 141.663 763.522 146.689 751.401 146.689C737.26 146.689 725.717 141.878 716.771 132.257C707.969 122.635 703.568 110.86 703.568 96.9308C703.568 82.8579 707.897 71.0826 716.555 61.6049C725.212 52.1272 736.395 47.3884 750.102 47.3884C763.666 47.3884 773.694 52.4144 780.187 62.4665ZM775.426 78.1908C770.52 73.1648 764.315 70.6518 756.812 70.6518C749.309 70.6518 743.104 73.1648 738.198 78.1908C733.292 83.2169 730.839 89.4635 730.839 96.9308C730.839 104.398 733.292 110.717 738.198 115.886C743.104 120.912 749.309 123.425 756.812 123.425C764.315 123.425 770.52 120.912 775.426 115.886C780.332 110.717 782.784 104.398 782.784 96.9308C782.784 89.4635 780.332 83.2169 775.426 78.1908Z" fill="#FBFBFB"/>
<path d="M908.688 131.61V193H882.283V50.404H908.688V62.4665C915.759 52.4144 925.931 47.3884 939.206 47.3884C952.192 47.3884 962.87 51.5528 971.239 59.8817C980.618 69.2158 985.307 81.5655 985.307 96.9308C985.307 112.727 980.401 125.292 970.59 134.626C961.932 142.668 951.327 146.689 938.773 146.689C926.22 146.689 916.192 141.663 908.688 131.61ZM932.064 70.6518C925.282 70.6518 919.582 72.734 914.965 76.8984C909.049 81.9245 906.091 88.6019 906.091 96.9308C906.091 105.403 908.977 112.153 914.749 117.179C919.51 121.343 925.282 123.425 932.064 123.425C939.134 123.425 945.05 121.199 949.812 116.748C955.295 111.722 958.036 105.116 958.036 96.9308C958.036 88.8891 955.367 82.3553 950.028 77.3292C945.122 72.8776 939.134 70.6518 932.064 70.6518Z" fill="#FBFBFB"/>
<path d="M1005.72 50.404H1032.13V83.5759H1052.69C1063.65 83.5759 1072.02 86.7351 1077.79 93.0536C1082.56 98.0796 1084.94 104.757 1084.94 113.086C1084.94 123.282 1081.62 131.18 1074.98 136.78C1069.64 141.375 1062.64 143.673 1053.99 143.673H1005.72V50.404ZM1032.13 122.994H1044.46C1048.94 122.994 1052.18 122.205 1054.2 120.625C1056.51 118.902 1057.66 116.389 1057.66 113.086C1057.66 110.07 1056.51 107.844 1054.2 106.408C1052.18 104.972 1049.15 104.254 1045.11 104.254H1032.13V122.994ZM1094.89 50.404H1121.3V143.673H1094.89V50.404Z" fill="#FBFBFB"/>
<path d="M1146.49 143.673V50.404H1172.89V83.3605H1209.69V50.404H1236.09V143.673H1209.69V105.762H1172.89V143.673H1146.49Z" fill="#FBFBFB"/>
<path d="M1261.26 50.404H1287.67V86.5915L1322.73 50.404H1355.63L1313.2 91.9766L1357.79 143.673H1324.03L1291.56 105.116L1287.67 108.993V143.673H1261.26V50.404Z" fill="#FBFBFB"/>
<path d="M1435.11 113.732L1459.35 117.609C1458.34 120.194 1456.97 122.779 1455.24 125.364C1453.65 127.805 1451.13 130.892 1447.66 134.626C1444.2 138.216 1439.51 141.16 1433.59 143.458C1427.68 145.612 1420.9 146.689 1413.25 146.689C1398.53 146.689 1386.56 142.309 1377.32 133.549C1367.51 124.359 1362.6 112.224 1362.6 97.1462C1362.6 82.2117 1367.36 70.0056 1376.89 60.5279C1385.83 51.7682 1397.59 47.3884 1412.17 47.3884C1428.04 47.3884 1440.23 52.4862 1448.75 62.6819C1456.25 71.5852 1460 83.7913 1460 99.3002V101.454H1389.87C1389.87 107.773 1391.39 113.014 1394.42 117.179C1398.75 123.066 1405.02 126.01 1413.25 126.01C1423.06 126.01 1430.35 121.917 1435.11 113.732ZM1390.74 84.6529H1435.11C1434.1 78.6217 1431.43 74.0264 1427.1 70.8672C1422.92 67.5644 1418.16 65.9129 1412.82 65.9129C1407.62 65.9129 1402.86 67.5644 1398.53 70.8672C1394.35 74.17 1391.75 78.7652 1390.74 84.6529Z" fill="#FBFBFB"/>
</svg>
