<svg width="1272" height="225" viewBox="0 0 1272 225" fill="none" xmlns="http://www.w3.org/2000/svg">
<path d="M4.32134e-07 167V55.5H110.75V167H74.75V84.5H36V167H4.32134e-07ZM247.422 69.75C258.589 80.9167 264.172 94.75 264.172 111.25C264.172 127.75 258.589 141.583 247.422 152.75C235.422 164.75 219.172 170.75 198.672 170.75C178.172 170.75 161.922 164.75 149.922 152.75C138.755 141.583 133.172 127.75 133.172 111.25C133.172 94.75 138.755 80.9167 149.922 69.75C161.922 57.75 178.172 51.75 198.672 51.75C219.172 51.75 235.422 57.75 247.422 69.75ZM218.922 90.25C213.589 84.9167 206.839 82.25 198.672 82.25C190.505 82.25 183.755 84.9167 178.422 90.25C172.922 95.75 170.172 102.75 170.172 111.25C170.172 119.75 172.922 126.75 178.422 132.25C183.755 137.583 190.589 140.25 198.922 140.25C206.922 140.25 213.589 137.583 218.922 132.25C224.422 126.75 227.172 119.75 227.172 111.25C227.172 102.75 224.422 95.75 218.922 90.25ZM322.621 154.25V224.25H286.621V55.5H322.621V68.75C331.288 57.4167 342.871 51.75 357.371 51.75C373.204 51.75 386.371 57 396.871 67.5C408.038 78.6667 413.621 93.1667 413.621 111C413.621 129 407.704 143.917 395.871 155.75C385.871 165.75 373.288 170.75 358.121 170.75C342.288 170.75 330.454 165.25 322.621 154.25ZM348.621 82.75C340.788 82.75 334.121 85.5 328.621 91C322.954 96.6667 320.121 103.5 320.121 111.5C320.121 119 322.788 125.583 328.121 131.25C333.788 136.917 340.621 139.75 348.621 139.75C355.954 139.75 362.371 137.167 367.871 132C373.704 126.5 376.621 119.417 376.621 110.75C376.621 102.583 373.788 95.8333 368.121 90.5C362.621 85.3333 356.121 82.75 348.621 82.75ZM520.035 84.5H490.035V167H454.035V84.5H424.035V55.5H520.035V84.5ZM629.883 224.25H593.883V168.75H592.383C573.549 168.75 558.299 163.167 546.633 152C535.966 141.667 530.633 127.917 530.633 110.75C530.633 92.0833 537.049 77.5833 549.883 67.25C561.216 58.25 575.299 53.75 592.133 53.75H593.883V0.249986H629.883V53.75H631.633C648.466 53.75 662.549 58.25 673.883 67.25C686.716 77.5833 693.133 92.0833 693.133 110.75C693.133 127.917 687.799 141.667 677.133 152C665.466 163.167 650.216 168.75 631.383 168.75H629.883V224.25ZM628.133 82.75V139.75C637.799 140.083 645.299 137.25 650.633 131.25C655.466 126.083 657.883 119.25 657.883 110.75C657.883 102.083 655.466 95.3333 650.633 90.5C644.966 84.8333 637.466 82.25 628.133 82.75ZM595.633 139.75V82.75C586.299 82.25 578.799 84.8333 573.133 90.5C568.299 95.3333 565.883 102.083 565.883 110.75C565.883 119.25 568.299 126.083 573.133 131.25C578.466 137.25 585.966 140.083 595.633 139.75ZM824.326 69.75C835.493 80.9167 841.076 94.75 841.076 111.25C841.076 127.75 835.493 141.583 824.326 152.75C812.326 164.75 796.076 170.75 775.576 170.75C755.076 170.75 738.826 164.75 726.826 152.75C715.66 141.583 710.076 127.75 710.076 111.25C710.076 94.75 715.66 80.9167 726.826 69.75C738.826 57.75 755.076 51.75 775.576 51.75C796.076 51.75 812.326 57.75 824.326 69.75ZM795.826 90.25C790.493 84.9167 783.743 82.25 775.576 82.25C767.41 82.25 760.66 84.9167 755.326 90.25C749.826 95.75 747.076 102.75 747.076 111.25C747.076 119.75 749.826 126.75 755.326 132.25C760.66 137.583 767.493 140.25 775.826 140.25C783.826 140.25 790.493 137.583 795.826 132.25C801.326 126.75 804.076 119.75 804.076 111.25C804.076 102.75 801.326 95.75 795.826 90.25ZM972.525 55.5V167H936.525V84.5H907.275V118.75C907.275 135.75 903.609 148.417 896.275 156.75C889.109 164.583 878.859 168.5 865.525 168.5C860.692 168.5 856.025 167.917 851.525 166.75V138.25C859.192 140.417 864.942 139.333 868.775 135C871.775 131 873.275 125.083 873.275 117.25V55.5H972.525ZM1000.49 55.5H1036.49V119.25L1083.99 55.5H1117.49V167H1081.49V102.25L1033.99 167H1000.49V55.5ZM1254.26 69.75C1265.42 80.9167 1271.01 94.75 1271.01 111.25C1271.01 127.75 1265.42 141.583 1254.26 152.75C1242.26 164.75 1226.01 170.75 1205.51 170.75C1185.01 170.75 1168.76 164.75 1156.76 152.75C1145.59 141.583 1140.01 127.75 1140.01 111.25C1140.01 94.75 1145.59 80.9167 1156.76 69.75C1168.76 57.75 1185.01 51.75 1205.51 51.75C1226.01 51.75 1242.26 57.75 1254.26 69.75ZM1225.76 90.25C1220.42 84.9167 1213.67 82.25 1205.51 82.25C1197.34 82.25 1190.59 84.9167 1185.26 90.25C1179.76 95.75 1177.01 102.75 1177.01 111.25C1177.01 119.75 1179.76 126.75 1185.26 132.25C1190.59 137.583 1197.42 140.25 1205.76 140.25C1213.76 140.25 1220.42 137.583 1225.76 132.25C1231.26 126.75 1234.01 119.75 1234.01 111.25C1234.01 102.75 1231.26 95.75 1225.76 90.25Z" fill="#FBFBFB"/>
</svg>
