<svg width="1920" height="465" viewBox="0 0 1920 465" fill="none" xmlns="http://www.w3.org/2000/svg">
<path d="M273.297 0V317.249H319.273V377.373H273.297V457.964H210.72V377.373H0L273.297 0ZM113.661 318.528H210.72V181.011L113.661 318.528Z" fill="#FBFBFB"/>
<path d="M627.919 418.948C601.1 449.649 568.96 465 531.499 465C494.038 465 461.898 449.649 435.079 418.948C398.894 377.586 380.802 319.594 380.802 244.972C380.802 169.924 398.894 111.719 435.079 70.3576C461.898 39.6561 494.038 24.3054 531.499 24.3054C568.96 24.3054 601.1 39.6561 627.919 70.3576C664.103 111.719 682.196 169.924 682.196 244.972C682.196 319.594 664.103 377.586 627.919 418.948ZM588.968 117.049C573.643 93.597 554.487 81.8707 531.499 81.8707C508.511 81.8707 489.355 93.597 474.03 117.049C454.448 146.045 444.657 188.473 444.657 244.333C444.657 299.766 454.448 342.407 474.03 372.256C489.355 395.708 508.511 407.435 531.499 407.435C554.487 407.435 573.643 395.708 588.968 372.256C608.55 342.407 618.341 299.766 618.341 244.333C618.341 188.473 608.55 146.045 588.968 117.049Z" fill="#FBFBFB"/>
<path d="M1139.88 418.948C1113.06 449.649 1080.92 465 1043.46 465C1006 465 973.856 449.649 947.037 418.948C910.853 377.586 892.761 319.594 892.761 244.972C892.761 169.924 910.853 111.719 947.037 70.3576C973.856 39.6561 1006 24.3054 1043.46 24.3054C1080.92 24.3054 1113.06 39.6561 1139.88 70.3576C1176.06 111.719 1194.15 169.924 1194.15 244.972C1194.15 319.594 1176.06 377.586 1139.88 418.948ZM1100.93 117.049C1085.6 93.597 1066.44 81.8707 1043.46 81.8707C1020.47 81.8707 1001.31 93.597 985.988 117.049C966.406 146.045 956.615 188.473 956.615 244.333C956.615 299.766 966.406 342.407 985.988 372.256C1001.31 395.708 1020.47 407.435 1043.46 407.435C1066.44 407.435 1085.6 395.708 1100.93 372.256C1120.51 342.407 1130.3 299.766 1130.3 244.333C1130.3 188.473 1120.51 146.045 1100.93 117.049Z" fill="#FBFBFB"/>
<path d="M1502.8 418.948C1475.98 449.649 1443.84 465 1406.38 465C1368.92 465 1336.78 449.649 1309.96 418.948C1273.78 377.586 1255.68 319.594 1255.68 244.972C1255.68 169.924 1273.78 111.719 1309.96 70.3576C1336.78 39.6561 1368.92 24.3054 1406.38 24.3054C1443.84 24.3054 1475.98 39.6561 1502.8 70.3576C1538.98 111.719 1557.08 169.924 1557.08 244.972C1557.08 319.594 1538.98 377.586 1502.8 418.948ZM1463.85 117.049C1448.52 93.597 1429.37 81.8707 1406.38 81.8707C1383.39 81.8707 1364.24 93.597 1348.91 117.049C1329.33 146.045 1319.54 188.473 1319.54 244.333C1319.54 299.766 1329.33 342.407 1348.91 372.256C1364.24 395.708 1383.39 407.435 1406.38 407.435C1429.37 407.435 1448.52 395.708 1463.85 372.256C1483.43 342.407 1493.22 299.766 1493.22 244.333C1493.22 188.473 1483.43 146.045 1463.85 117.049Z" fill="#FBFBFB"/>
<path d="M1865.72 418.948C1838.9 449.649 1806.76 465 1769.3 465C1731.84 465 1699.7 449.649 1672.88 418.948C1636.7 377.586 1618.61 319.594 1618.61 244.972C1618.61 169.924 1636.7 111.719 1672.88 70.3576C1699.7 39.6561 1731.84 24.3054 1769.3 24.3054C1806.76 24.3054 1838.9 39.6561 1865.72 70.3576C1901.91 111.719 1920 169.924 1920 244.972C1920 319.594 1901.91 377.586 1865.72 418.948ZM1826.77 117.049C1811.45 93.597 1792.29 81.8707 1769.3 81.8707C1746.32 81.8707 1727.16 93.597 1711.83 117.049C1692.25 146.045 1682.46 188.473 1682.46 244.333C1682.46 299.766 1692.25 342.407 1711.83 372.256C1727.16 395.708 1746.32 407.435 1769.3 407.435C1792.29 407.435 1811.45 395.708 1826.77 372.256C1846.35 342.407 1856.15 299.766 1856.15 244.333C1856.15 188.473 1846.35 146.045 1826.77 117.049Z" fill="#FBFBFB"/>
</svg>
