<svg width="156" height="116" viewBox="0 0 156 116" fill="none" xmlns="http://www.w3.org/2000/svg">
<path d="M32.8111 88.4878C22.9874 88.4878 15.063 87.0149 9.03778 84.0692C3.01259 81.1234 0 77.2606 0 72.4807C0 67.7008 3.01259 63.838 9.03778 60.8923C15.063 57.9465 22.9874 56.4736 32.8111 56.4736C42.6348 56.4736 50.5592 57.9465 56.5844 60.8923C62.7406 63.7824 65.8186 67.6452 65.8186 72.4807C65.8186 77.3162 62.7406 81.2068 56.5844 84.1525C50.5592 87.0427 42.6348 88.4878 32.8111 88.4878ZM115.33 57.0572H134.584L40.67 115.416H21.4156L115.33 57.0572ZM32.8111 82.6519C38.1814 82.6519 42.3073 81.7626 45.1889 79.984C48.2015 78.2055 49.7078 75.7044 49.7078 72.4807C49.7078 69.2571 48.2015 66.756 45.1889 64.9774C42.3073 63.1988 38.1814 62.3095 32.8111 62.3095C27.7028 62.3095 23.5768 63.2266 20.4333 65.0608C17.4207 66.8393 15.9144 69.3126 15.9144 72.4807C15.9144 75.6488 17.4207 78.1499 20.4333 79.984C23.5768 81.7626 27.7028 82.6519 32.8111 82.6519ZM122.992 116C113.169 116 105.244 114.527 99.2191 111.581C93.194 108.636 90.1814 104.773 90.1814 99.9929C90.1814 95.213 93.194 91.3502 99.2191 88.4044C105.244 85.4587 113.169 83.9858 122.992 83.9858C132.816 83.9858 140.741 85.4587 146.766 88.4044C152.922 91.3502 156 95.213 156 99.9929C156 104.773 152.922 108.636 146.766 111.581C140.741 114.527 132.816 116 122.992 116ZM122.992 110.164C128.232 110.164 132.358 109.275 135.37 107.496C138.383 105.662 139.889 103.161 139.889 99.9929C139.889 96.8248 138.383 94.3515 135.37 92.5729C132.358 90.7388 128.232 89.8217 122.992 89.8217C117.753 89.8217 113.627 90.711 110.615 92.4896C107.602 94.2681 106.096 96.7692 106.096 99.9929C106.096 103.217 107.602 105.718 110.615 107.496C113.627 109.275 117.753 110.164 122.992 110.164Z" fill="#EFEFEF"/>
<path d="M32.8111 62.3866C22.9874 62.3866 15.063 59.5163 9.03778 53.7759C3.01259 48.0355 0 40.5079 0 31.1933C0 21.8786 3.01259 14.3511 9.03778 8.61064C15.063 2.87021 22.9874 0 32.8111 0C42.6348 0 50.5592 2.87021 56.5844 8.61064C62.7406 14.2428 65.8186 21.7703 65.8186 31.1933C65.8186 40.6162 62.7406 48.1979 56.5844 53.9384C50.5592 59.5705 42.6348 62.3866 32.8111 62.3866ZM115.33 1.13725H134.584L40.67 114.863H21.4156L115.33 1.13725ZM32.8111 51.014C38.1814 51.014 42.3073 49.281 45.1889 45.8151C48.2015 42.3492 49.7078 37.4753 49.7078 31.1933C49.7078 24.9113 48.2015 20.0373 45.1889 16.5714C42.3073 13.1055 38.1814 11.3725 32.8111 11.3725C27.7028 11.3725 23.5768 13.1597 20.4333 16.7339C17.4207 20.1998 15.9144 25.0196 15.9144 31.1933C15.9144 37.3669 17.4207 42.2409 20.4333 45.8151C23.5768 49.281 27.7028 51.014 32.8111 51.014ZM122.992 116C113.169 116 105.244 113.13 99.2191 107.389C93.194 101.649 90.1814 94.1214 90.1814 84.8067C90.1814 75.4921 93.194 67.9645 99.2191 62.2241C105.244 56.4837 113.169 53.6134 122.992 53.6134C132.816 53.6134 140.741 56.4837 146.766 62.2241C152.922 67.9645 156 75.4921 156 84.8067C156 94.1214 152.922 101.649 146.766 107.389C140.741 113.13 132.816 116 122.992 116ZM122.992 104.627C128.232 104.627 132.358 102.894 135.37 99.4286C138.383 95.8543 139.889 90.9804 139.889 84.8067C139.889 78.633 138.383 73.8132 135.37 70.3473C132.358 66.7731 128.232 64.986 122.992 64.986C117.753 64.986 113.627 66.7189 110.615 70.1849C107.602 73.6508 106.096 78.5247 106.096 84.8067C106.096 91.0887 107.602 95.9626 110.615 99.4286C113.627 102.894 117.753 104.627 122.992 104.627Z" fill="#111A21"/>
</svg>
