<svg width="75" height="65" viewBox="0 0 75 65" fill="none" xmlns="http://www.w3.org/2000/svg">
<path d="M15.7746 34.958C11.0516 34.958 7.24181 33.3497 4.34509 30.133C1.44836 26.9164 0 22.6984 0 17.479C0 12.2596 1.44836 8.04155 4.34509 4.82493C7.24181 1.60831 11.0516 0 15.7746 0C20.4975 0 24.3073 1.60831 27.204 4.82493C30.1637 7.98085 31.6436 12.1989 31.6436 17.479C31.6436 22.7591 30.1637 27.0075 27.204 30.2241C24.3073 33.38 20.4975 34.958 15.7746 34.958ZM55.4471 0.637252H64.704L19.5529 64.3627H10.296L55.4471 0.637252ZM15.7746 28.5854C18.3564 28.5854 20.3401 27.6144 21.7254 25.6723C23.1738 23.7302 23.898 20.9991 23.898 17.479C23.898 13.9589 23.1738 11.2278 21.7254 9.28571C20.3401 7.3436 18.3564 6.37255 15.7746 6.37255C13.3186 6.37255 11.335 7.37395 9.82368 9.37675C8.37531 11.3189 7.65113 14.0196 7.65113 17.479C7.65113 20.9384 8.37531 23.6695 9.82368 25.6723C11.335 27.6144 13.3186 28.5854 15.7746 28.5854ZM59.131 65C54.4081 65 50.5982 63.3917 47.7015 60.1751C44.8048 56.9584 43.3564 52.7404 43.3564 47.521C43.3564 42.3016 44.8048 38.0836 47.7015 34.8669C50.5982 31.6503 54.4081 30.042 59.131 30.042C63.8539 30.042 67.6637 31.6503 70.5605 34.8669C73.5201 38.0836 75 42.3016 75 47.521C75 52.7404 73.5201 56.9584 70.5605 60.1751C67.6637 63.3917 63.8539 65 59.131 65ZM59.131 58.6274C61.6499 58.6274 63.6335 57.6564 65.0819 55.7143C66.5302 53.7115 67.2544 50.9804 67.2544 47.521C67.2544 44.0616 66.5302 41.3609 65.0819 39.4188C63.6335 37.416 61.6499 36.4146 59.131 36.4146C56.6121 36.4146 54.6285 37.3856 53.1801 39.3277C51.7317 41.2698 51.0076 44.0009 51.0076 47.521C51.0076 51.0411 51.7317 53.7722 53.1801 55.7143C54.6285 57.6564 56.6121 58.6274 59.131 58.6274Z" fill="#111A21"/>
</svg>
