<?xml version="1.0" encoding="utf-8"?><svg viewBox="0 0 22 22" xmlns="http://www.w3.org/2000/svg" xmlns:xlink="http://www.w3.org/1999/xlink"><style>:root>svg{display:none}:root>svg:target{display:block}</style><svg viewBox="0 0 20 20" id="fb" xmlns="http://www.w3.org/2000/svg"><path d="M5.764 17.225c.59-.26 1.25-.309 1.868-.139.77.21 1.565.316 2.368.314 4.585 0 8-3.287 8-7.7S14.585 2 10 2 2 5.287 2 9.7c0 2.27.896 4.272 2.466 5.676a2.8 2.8 0 01.942 2.006l.356-.157zM10 0c5.634 0 10 4.127 10 9.7 0 5.573-4.366 9.7-10 9.7a10.896 10.896 0 01-2.895-.384.8.8 0 00-.534.039l-1.984.876a.8.8 0 01-1.123-.707l-.055-1.78a.797.797 0 00-.268-.57C1.195 15.135 0 12.617 0 9.7 0 4.127 4.367 0 10 0zM3.995 12.537l2.937-4.66a1.5 1.5 0 012.17-.4l2.336 1.75a.6.6 0 00.723 0l3.155-2.396c.421-.319.971.185.689.633l-2.937 4.66a1.501 1.501 0 01-2.17.4l-2.336-1.75a.6.6 0 00-.723 0l-3.155 2.395c-.421.319-.971-.185-.689-.633v.001z"/></svg><svg viewBox="0 0 22 22" id="insta" xmlns="http://www.w3.org/2000/svg"><path d="M11.001 7.75a3.25 3.25 0 100 6.5 3.25 3.25 0 000-6.5zm0-2.166a5.417 5.417 0 110 10.833 5.417 5.417 0 010-10.833zm7.042-.271a1.354 1.354 0 11-2.708 0 1.354 1.354 0 012.708 0zm-7.042-2.98c-2.68 0-3.118.008-4.364.063-.85.04-1.42.154-1.948.36-.47.182-.81.4-1.17.762-.34.327-.6.727-.763 1.17-.206.53-.32 1.1-.359 1.948C2.341 7.832 2.335 8.25 2.335 11c0 2.68.007 3.118.062 4.365.04.848.154 1.42.36 1.947.183.471.4.81.76 1.17.365.364.704.582 1.17.761.535.207 1.105.322 1.95.361 1.196.056 1.614.063 4.364.063 2.68 0 3.118-.008 4.365-.063.847-.04 1.418-.154 1.947-.358.469-.183.81-.401 1.17-.76.365-.366.583-.705.762-1.17.206-.535.321-1.106.36-1.95.056-1.197.063-1.615.063-4.366 0-2.68-.008-3.118-.063-4.364-.04-.848-.154-1.42-.36-1.948a3.154 3.154 0 00-.761-1.17c-.328-.34-.728-.6-1.17-.763-.53-.206-1.1-.32-1.948-.359-1.196-.056-1.614-.062-4.365-.062zm0-2.166c2.944 0 3.311.01 4.466.065 1.154.054 1.939.235 2.63.504a5.282 5.282 0 011.92 1.249c.55.541.977 1.196 1.249 1.92.268.69.45 1.476.504 2.63.05 1.155.065 1.522.065 4.465 0 2.944-.011 3.311-.065 4.466-.055 1.154-.236 1.939-.504 2.63a5.29 5.29 0 01-1.25 1.92 5.324 5.324 0 01-1.919 1.249c-.69.267-1.476.45-2.63.504-1.155.05-1.522.065-4.466.065-2.943 0-3.31-.011-4.465-.065-1.154-.054-1.94-.236-2.63-.504a5.297 5.297 0 01-1.92-1.25 5.312 5.312 0 01-1.25-1.919c-.268-.69-.449-1.476-.503-2.63C.183 14.31.168 13.944.168 11c0-2.943.01-3.31.065-4.465.054-1.155.235-1.94.504-2.63a5.287 5.287 0 011.249-1.92 5.305 5.305 0 011.92-1.25C4.595.468 5.38.287 6.535.233 7.69.182 8.058.167 11 .167z"/></svg><svg viewBox="0 0 20 20" id="telegram" xmlns="http://www.w3.org/2000/svg"><path d="M10 18a8 8 0 100-16.001A8 8 0 0010 18zm0 2C4.477 20 0 15.523 0 10S4.477 0 10 0s10 4.477 10 10-4.477 10-10 10zm-3.11-8.83l-2.498-.779c-.54-.165-.543-.537.121-.804l9.733-3.76c.565-.23.885.061.702.79l-1.657 7.82c-.116.557-.451.69-.916.433l-2.551-1.888-1.189 1.148c-.122.118-.221.219-.409.244-.187.026-.341-.03-.454-.34l-.87-2.871-.012.008v-.001z"/></svg><svg viewBox="0 0 20 20" id="whatsapp" xmlns="http://www.w3.org/2000/svg"><path d="M5.253 16.494l.724.423A7.953 7.953 0 0010 18a8 8 0 10-6.916-3.976l.422.724-.653 2.401 2.4-.655zM.004 20l1.352-4.968A9.954 9.954 0 010 10C0 4.477 4.477 0 10 0s10 4.477 10 10-4.477 10-10 10a9.953 9.953 0 01-5.03-1.355L.004 20zM6.391 5.308c.134-.01.269-.01.403-.004.054.004.108.01.162.016.159.018.334.115.393.249.298.676.588 1.357.868 2.04.062.152.025.347-.093.537a4.378 4.378 0 01-.263.372c-.113.145-.356.411-.356.411s-.099.118-.061.265c.014.056.06.137.102.205l.059.095c.256.427.6.86 1.02 1.268.12.116.237.235.363.346.468.413.998.75 1.57 1l.005.002c.085.037.128.057.252.11.062.026.126.049.191.066a.35.35 0 00.367-.13c.724-.877.79-.934.796-.934v.002a.482.482 0 01.378-.127c.06.004.121.015.177.04.531.243 1.4.622 1.4.622l.582.261c.098.047.187.158.19.265.004.067.01.175-.013.373-.032.259-.11.57-.188.733a1.155 1.155 0 01-.21.302 2.38 2.38 0 01-.33.288l-.125.09a5.044 5.044 0 01-.383.22 1.989 1.989 0 01-.833.23c-.185.01-.37.024-.556.014-.008 0-.568-.087-.568-.087a9.448 9.448 0 01-3.84-2.046c-.226-.199-.435-.413-.649-.626-.89-.885-1.562-1.84-1.97-2.742A3.47 3.47 0 014.9 7.62a2.729 2.729 0 01.564-1.68c.073-.094.142-.192.261-.305.127-.12.207-.184.294-.228a.961.961 0 01.371-.1l.001.001z"/></svg></svg>