<svg width="346" height="132" viewBox="0 0 346 132" fill="none" xmlns="http://www.w3.org/2000/svg">
<g filter="url(#filter0_d_117_13941)">
<path d="M56.5374 61.5127V116.194H34.7753V70.0273H10V61.5127H56.5374Z" fill="#EFEFEF"/>
<path d="M116.443 82.6821C132.96 82.6821 145.18 84.1923 153.104 87.2128C161.028 90.1812 164.99 94.2432 164.99 99.3988C164.99 102.68 163.26 105.648 159.8 108.304C156.34 110.96 151.151 113.069 144.232 114.631C137.313 116.194 128.775 116.975 118.62 116.975C110.249 116.975 102.158 116.428 94.3464 115.334C86.5344 114.189 79.95 112.626 74.5931 110.648L83.8002 102.758C88.1526 104.424 93.342 105.752 99.3684 106.742C105.506 107.679 111.812 108.148 118.285 108.148C125.985 108.148 132.012 107.419 136.364 105.961C140.828 104.45 143.06 102.393 143.06 99.7894C143.06 96.9772 140.661 94.8681 135.862 93.462C131.175 92.0039 123.084 91.2748 111.589 91.2748H83.298L89.3244 61.5127H158.126V70.0273H107.738L105.227 82.6821H116.443Z" fill="#EFEFEF"/>
<path d="M282 103.773H261.242V116.194H240.15V103.773H175.868V96.7429L233.621 61.5127H256.89L202.485 95.1806H240.819V84.1663H261.242V95.1806H282V103.773Z" fill="#EFEFEF"/>
</g>
<path d="M54.5374 0V118.31H32.7753V18.4225H8V0H54.5374Z" fill="#111A21"/>
<path d="M114.443 45.8028C130.96 45.8028 143.18 49.0704 151.104 55.6056C159.028 62.0282 162.99 70.8169 162.99 81.9718C162.99 89.0704 161.26 95.493 157.8 101.239C154.34 106.986 149.151 111.549 142.232 114.93C135.313 118.31 126.775 120 116.62 120C108.249 120 100.158 118.817 92.3464 116.451C84.5344 113.972 77.95 110.592 72.5931 106.31L81.8002 89.2394C86.1526 92.8451 91.342 95.7183 97.3684 97.8592C103.506 99.8873 109.812 100.901 116.285 100.901C123.985 100.901 130.012 99.324 134.364 96.169C138.828 92.9014 141.06 88.4507 141.06 82.8169C141.06 76.7324 138.661 72.169 133.862 69.1268C129.175 65.9718 121.084 64.3944 109.589 64.3944H81.298L87.3244 0H156.126V18.4225H105.738L103.227 45.8028H114.443Z" fill="#111A21"/>
<path d="M280 91.4366H259.242V118.31H238.15V91.4366H173.868V76.2254L231.621 0H254.89L200.485 72.8451H238.819V49.0141H259.242V72.8451H280V91.4366Z" fill="#111A21"/>
<path d="M344 65.4342H327.106V82.6891H316.894V65.4342H300V55.5742H316.894V38.3193H327.106V55.5742H344V65.4342Z" fill="#A9081C"/>
<path d="M346 99.5521H329.106V103.866H318.894V99.5521H302V97.0872H318.894V92.7734H329.106V97.0872H346V99.5521Z" fill="#EFEFEF"/>
<defs>
<filter id="filter0_d_117_13941" x="0" y="56.5127" width="292" height="75.4619" filterUnits="userSpaceOnUse" color-interpolation-filters="sRGB">
<feFlood flood-opacity="0" result="BackgroundImageFix"/>
<feColorMatrix in="SourceAlpha" type="matrix" values="0 0 0 0 0 0 0 0 0 0 0 0 0 0 0 0 0 0 127 0" result="hardAlpha"/>
<feOffset dy="5"/>
<feGaussianBlur stdDeviation="5"/>
<feComposite in2="hardAlpha" operator="out"/>
<feColorMatrix type="matrix" values="0 0 0 0 0 0 0 0 0 0 0 0 0 0 0 0 0 0 0.07 0"/>
<feBlend mode="normal" in2="BackgroundImageFix" result="effect1_dropShadow_117_13941"/>
<feBlend mode="normal" in="SourceGraphic" in2="effect1_dropShadow_117_13941" result="shape"/>
</filter>
</defs>
</svg>
