<svg width="147" height="369" viewBox="0 0 147 369" fill="none" xmlns="http://www.w3.org/2000/svg">
<path d="M144.408 368.899L0.40625 368.899L0.406249 352.644L129.295 352.644L129.295 294.653L0.406247 294.653L0.406246 278.398L129.295 278.398L129.295 220.406L0.406244 220.406L0.406243 204.151L144.408 204.151L144.408 368.899Z" fill="#FBFBFB"/>
<path d="M67.5493 100.497L54.8115 100.497L54.8115 84.6813L144.408 84.6813L144.408 100.497L131.886 100.497C141.961 108.405 146.998 118.802 146.998 131.689C146.998 143.991 142.824 154.461 134.476 163.101C126.129 171.742 114.47 176.062 99.5016 176.062C84.8208 176.062 73.3784 171.815 65.1744 163.321C56.8265 154.681 52.6526 144.137 52.6526 131.689C52.6526 118.51 57.6181 108.112 67.5493 100.497ZM66.4698 129.932C66.4698 138.279 69.4203 145.382 75.3215 151.24C81.0786 156.951 89.1387 159.806 99.5016 159.806C109.433 159.806 117.565 157.17 123.898 151.899C130.087 146.48 133.181 139.158 133.181 129.932C133.181 120.706 129.943 113.384 123.466 107.966C116.989 102.401 109.073 99.6184 99.7175 99.6184C89.0667 99.6184 80.8627 102.694 75.1056 108.844C69.3484 114.995 66.4698 122.024 66.4698 129.932Z" fill="#FBFBFB"/>
<path d="M144.408 54.7263L54.8115 54.7263L54.8115 0.688871L69.0605 0.68887L69.0605 38.9105L144.408 38.9105L144.408 54.7263Z" fill="#FBFBFB"/>
</svg>
