<?xml version="1.0" standalone="no"?>
<!DOCTYPE svg PUBLIC "-//W3C//DTD SVG 20010904//EN"
 "http://www.w3.org/TR/2001/REC-SVG-20010904/DTD/svg10.dtd">
<svg version="1.0" xmlns="http://www.w3.org/2000/svg"
 width="700.000000pt" height="700.000000pt" viewBox="0 0 700.000000 700.000000"
 preserveAspectRatio="xMidYMid meet">
<metadata>
Created by potrace 1.14, written by Peter Selinger 2001-2017
</metadata>
<g transform="translate(0.000000,700.000000) scale(0.100000,-0.100000)"
fill="#000000" stroke="none">
<path d="M2698 6995 c-2 -1 -59 -6 -128 -9 -69 -4 -146 -9 -172 -11 -114 -11
-199 -20 -283 -29 -43 -5 -183 -24 -225 -31 -14 -3 -47 -7 -75 -10 -27 -4 -69
-10 -93 -16 -23 -5 -59 -12 -80 -15 -68 -10 -316 -62 -446 -94 -340 -81 -744
-215 -1003 -332 l-52 -23 73 -100 c40 -55 139 -192 220 -305 81 -113 153 -212
159 -220 11 -14 255 -352 268 -373 6 -8 24 1 114 56 291 179 754 374 1215 511
83 24 370 104 400 111 8 2 65 15 125 30 120 28 229 53 260 59 11 2 38 9 60 14
22 6 54 13 70 16 70 12 95 17 189 36 89 19 256 49 360 66 21 3 48 7 60 10 32
6 335 52 386 59 25 3 63 8 85 11 71 10 89 12 145 19 30 4 66 8 80 10 26 4 111
14 170 20 19 2 58 6 85 10 68 8 132 14 315 29 30 3 80 7 110 10 52 5 188 15
290 21 25 2 70 4 99 4 33 1 51 5 45 10 -7 7 -168 67 -324 121 -217 75 -552
162 -825 214 -111 21 -199 36 -240 41 -27 4 -57 8 -65 10 -8 2 -40 7 -70 10
-30 3 -62 8 -70 10 -8 2 -51 7 -95 11 -44 3 -89 8 -100 10 -11 2 -63 7 -115
10 -52 3 -106 8 -120 10 -26 6 -796 14 -802 9z"/>
<path d="M6027 6164 c-1 -1 -79 -5 -174 -8 -95 -4 -180 -8 -190 -10 -10 -2
-62 -7 -117 -11 -54 -4 -108 -8 -120 -10 -11 -2 -52 -6 -91 -10 -38 -4 -72 -8
-75 -10 -3 -1 -36 -6 -75 -10 -38 -4 -72 -8 -75 -10 -3 -1 -30 -6 -60 -9 -30
-4 -66 -8 -80 -11 -14 -2 -68 -11 -120 -20 -52 -8 -129 -22 -170 -30 -41 -8
-86 -17 -100 -19 -255 -47 -738 -169 -1065 -269 -430 -132 -1006 -346 -1360
-507 -33 -15 -114 -51 -180 -81 -125 -56 -485 -234 -640 -317 -105 -56 -149
-81 -307 -175 l-117 -69 -29 20 c-86 62 -265 284 -466 581 -104 153 -386 597
-386 609 0 4 -7 16 -16 27 -14 18 -15 13 -9 -65 3 -47 7 -121 10 -165 5 -78
12 -169 20 -250 10 -109 16 -164 20 -202 10 -89 16 -139 20 -168 2 -16 7 -52
10 -80 3 -27 8 -61 10 -75 3 -14 7 -43 10 -65 21 -152 87 -528 104 -594 6 -20
13 -49 15 -66 7 -37 11 -57 26 -120 6 -27 14 -61 16 -75 9 -45 84 -333 110
-420 90 -301 199 -604 283 -783 l37 -79 79 89 c283 315 600 626 884 868 52 44
102 87 110 95 9 8 37 31 61 50 25 19 47 37 50 40 4 5 136 108 235 185 249 192
580 417 905 617 145 89 506 298 515 298 2 0 28 14 57 31 114 67 661 336 868
426 30 13 69 30 85 38 81 37 381 160 505 206 58 22 114 44 125 49 18 8 148 55
380 135 322 112 905 276 1145 321 13 3 56 12 95 20 38 8 88 18 110 21 22 3 49
9 60 14 18 7 17 8 -7 10 -16 1 -31 2 -35 3 -5 1 -51 6 -103 10 -52 5 -106 10
-120 11 -92 11 -664 27 -673 19z"/>
<path d="M5770 5293 c-90 -35 -207 -70 -550 -163 -107 -30 -197 -55 -199 -56
-1 -2 -5 -20 -7 -41 -2 -20 -6 -49 -9 -63 -3 -14 -8 -43 -11 -65 -3 -22 -12
-70 -20 -107 -7 -37 -16 -82 -19 -100 -3 -18 -15 -76 -26 -129 -11 -52 -21
-105 -24 -118 -2 -12 -7 -31 -10 -41 -3 -10 -8 -29 -10 -42 -5 -23 -28 -129
-30 -138 -1 -3 -5 -23 -10 -45 -11 -57 -14 -73 -19 -92 -3 -10 -14 -61 -26
-113 -123 -553 -218 -844 -395 -1205 -135 -277 -342 -603 -511 -805 -292 -348
-521 -563 -798 -748 -80 -53 -115 -71 -130 -66 -12 3 -59 24 -105 46 -266 128
-576 406 -887 794 -89 111 -284 379 -284 390 0 3 -11 20 -24 37 -32 42 -186
298 -186 309 0 4 -4 8 -9 8 -6 0 -143 -132 -306 -292 l-296 -293 68 -105 c367
-568 838 -1095 1378 -1541 50 -41 96 -79 102 -86 62 -57 455 -336 554 -392
l54 -30 76 57 c93 70 162 124 283 222 21 17 15 12 121 105 200 174 468 443
622 621 10 12 40 47 67 78 27 32 58 69 70 84 11 15 23 29 27 32 6 5 213 279
242 320 74 107 255 384 305 466 397 661 723 1488 883 2239 7 33 13 62 14 65 7
30 15 70 19 90 2 14 13 77 24 140 12 63 23 131 26 150 2 19 9 69 15 110 20
148 32 290 35 415 3 99 0 126 -13 124 -3 -1 -35 -13 -71 -26z"/>
</g>
</svg>
