<?xml version="1.0" standalone="no"?>
<!DOCTYPE svg PUBLIC "-//W3C//DTD SVG 20010904//EN"
 "http://www.w3.org/TR/2001/REC-SVG-20010904/DTD/svg10.dtd">
<svg version="1.0" xmlns="http://www.w3.org/2000/svg"
 width="256.000000pt" height="256.000000pt" viewBox="0 0 256.000000 256.000000"
 preserveAspectRatio="xMidYMid meet">
<metadata>
Created by potrace 1.11, written by Peter Selinger 2001-2013
</metadata>
<g transform="translate(0.000000,256.000000) scale(0.100000,-0.100000)"
fill="#000000" stroke="none">
<path d="M783 2248 c-18 -25 -3 -58 27 -58 25 0 41 30 29 53 -12 20 -42 23
-56 5z"/>
<path d="M1223 2203 c-13 -2 -32 -17 -43 -33 -19 -27 -24 -28 -98 -29 -42 -1
-88 -3 -102 -5 -14 -3 -42 -7 -63 -10 -55 -9 -180 -59 -251 -102 -64 -39 -266
-234 -266 -257 0 -8 -6 -27 -14 -43 -66 -137 -90 -240 -89 -379 2 -126 28
-231 88 -350 43 -87 45 -93 46 -185 1 -70 6 -104 20 -131 23 -45 72 -88 111
-96 15 -3 31 -9 33 -13 3 -5 6 -43 6 -87 1 -43 8 -93 15 -110 19 -48 67 -73
139 -73 72 0 102 14 132 59 20 29 23 47 23 122 l0 89 425 0 c333 0 425 -3 426
-12 0 -7 1 -49 2 -93 3 -130 45 -170 169 -163 61 3 72 7 100 36 31 31 32 35
36 131 l4 99 45 17 c53 21 100 68 113 115 5 19 10 118 10 220 0 201 -8 238
-61 287 -28 25 -93 50 -126 47 -13 -1 -23 4 -24 10 0 6 -2 18 -4 26 -5 25 -12
60 -36 199 -15 88 -30 144 -44 165 -31 47 -81 76 -130 76 -41 0 -44 2 -84 64
-68 104 -180 201 -321 279 -20 11 -30 23 -27 31 8 19 -32 78 -63 93 -25 13
-54 14 -97 6z m77 -73 c8 -5 12 -11 9 -15 -8 -8 -69 6 -69 16 0 12 41 11 60
-1z"/>
<path d="M1804 2140 c-37 -12 -48 -31 -30 -56 11 -15 20 -16 62 -8 152 29 307
-50 374 -192 34 -71 42 -78 70 -69 28 9 25 32 -16 113 -34 70 -121 162 -151
162 -7 0 -13 4 -13 8 0 31 -228 63 -296 42z"/>
<path d="M1844 2041 c-43 -11 -53 -18 -49 -39 2 -9 4 -20 4 -23 1 -4 38 -6 84
-6 119 2 189 -39 238 -139 24 -50 42 -62 64 -44 30 25 -17 125 -86 184 -65 55
-180 85 -255 67z"/>
<path d="M411 2001 c-28 -18 -12 -132 18 -131 20 1 34 23 36 56 4 69 -17 98
-54 75z"/>
<path d="M1866 1930 c-18 -3 -32 -14 -37 -27 -11 -29 3 -38 62 -39 57 -2 104
-28 124 -71 19 -39 29 -46 55 -38 35 11 23 63 -29 118 -43 47 -111 69 -175 57z"/>
<path d="M272 1858 c-29 -29 1 -58 60 -58 54 0 78 26 55 58 -12 15 -99 16
-115 0z"/>
</g>
</svg>
