<svg height="512" viewBox="0 0 498.09 498.09" width="512" xmlns="http://www.w3.org/2000/svg"><path d="M448.683 75.94C396.481-9.848 318.037-18.821 260.905 28.417c-7.733 6.395-7.736 18.265 0 24.662 96.008 79.383 96.162 312.422 0 391.932-7.733 6.395-7.737 18.264 0 24.662 57.126 47.233 135.581 38.257 187.778-47.523 58.514-96.162 58.535-250.013 0-346.21z" fill="#b78c7b"/><path d="M448.683 75.94C396.481-9.848 318.037-18.821 260.905 28.417c-7.733 6.395-7.736 18.265 0 24.662 43.486 35.955 65.052 102.976 70.64 160.634l157.604-16.704c-6.009-45.389-19.862-87.207-40.466-121.069z" fill="#c69a85"/><path d="M330.914 290.378c34.436 58.004 119.551 60.025 158.655 7.467 8.864-71.568-1.566-153.547-37.746-216.576-15.899 1.542-30.541 8.861-41.16 25.802-26.806 42.762-66.824 45.552-91.73 42.199 13.688 44.795 17.3 94.582 11.981 141.108z" fill="#c69a85"/><path d="M412.906 289.104c18.973 0 34.353-15.381 34.353-34.353s-15.38-34.352-34.353-34.352-34.353 15.38-34.353 34.352 15.38 34.353 34.353 34.353z" fill="#e0c8bf"/><path d="M334.743 466.09c-32.078 0-62.834-21.513-86.603-60.574-52.323-85.989-52.313-226.968 0-312.941C271.909 53.513 302.665 32 334.743 32c8.836 0 16-7.163 16-16s-7.164-16-16-16H207.458c-43.677 0-84.142 26.97-113.94 75.94-58.514 96.162-58.535 250.012 0 346.209 29.798 48.971 70.263 75.94 113.94 75.94h127.285c8.836 0 16-7.163 16-16s-7.163-15.999-16-15.999z" fill="#dfb7a4"/><path d="M281.435 279.233h-16.938c-11.16 0-20.207-9.047-20.207-20.207v-30.361c0-11.16 9.047-20.207 20.207-20.207h16.938c11.16 0 20.207 9.047 20.207 20.207v30.361c0 11.16-9.047 20.207-20.207 20.207z" fill="#e88793"/><path d="M207.913 111.937H74.873c-38.245 0-69.359 31.114-69.359 69.358v133.04c0 38.244 31.114 69.358 69.359 69.358h133.04c38.245 0 69.359-31.114 69.359-69.358v-133.04c-.001-38.244-31.115-69.358-69.359-69.358z" fill="#494949"/><path d="M277.271 181.295c0-38.244-31.114-69.358-69.359-69.358H74.873c-38.245 0-69.359 31.114-69.359 69.358v87.654c25.965-3.923 56.109-10.278 91.069-19.904 58.67-16.154 121.223-14.299 180.689-3.392v-64.358z" fill="#5b5b5b"/></svg>