<?xml version="1.0" standalone="no"?>
<!DOCTYPE svg PUBLIC "-//W3C//DTD SVG 20010904//EN"
 "http://www.w3.org/TR/2001/REC-SVG-20010904/DTD/svg10.dtd">
<svg version="1.0" xmlns="http://www.w3.org/2000/svg"
 width="260.000000pt" height="260.000000pt" viewBox="0 0 260.000000 260.000000"
 preserveAspectRatio="xMidYMid meet">
<metadata>
Created by potrace 1.14, written by Peter Selinger 2001-2017
</metadata>
<g transform="translate(0.000000,260.000000) scale(0.100000,-0.100000)"
fill="#000000" stroke="none">
<path d="M1129 2596 c-2 -2 -24 -6 -49 -9 -276 -36 -560 -250 -675 -511 -29
-65 -30 -76 -11 -76 8 0 21 -6 28 -13 17 -16 77 -35 148 -46 65 -10 44 -13
-108 -13 -100 -1 -112 -3 -112 -18 0 -10 8 -17 17 -17 45 0 55 -5 71 -33 12
-21 25 -30 43 -30 15 0 37 -9 50 -19 15 -11 78 -30 154 -47 72 -15 134 -30
138 -34 4 -4 -103 -7 -238 -7 -135 0 -248 -3 -252 -7 -19 -19 26 -240 69 -337
12 -26 52 -37 64 -18 10 16 51 9 69 -11 10 -11 20 -18 23 -15 2 2 16 -2 31 -9
14 -8 55 -17 91 -21 36 -4 74 -8 85 -10 11 -1 36 -3 55 -4 24 -2 30 -5 18 -9
-10 -4 -98 -7 -198 -6 -99 0 -180 -1 -180 -3 0 -12 64 -95 111 -144 61 -63
128 -118 179 -146 26 -15 35 -26 34 -44 -3 -59 -14 -209 -19 -235 -2 -16 -7
-46 -10 -67 -6 -38 -47 -87 -74 -87 -26 0 -325 281 -430 405 -81 96 -194 256
-230 327 -8 16 -16 27 -17 25 -2 -2 1 -28 6 -59 10 -63 53 -179 81 -220 11
-14 19 -29 19 -32 0 -3 24 -39 54 -79 61 -83 197 -223 301 -312 39 -33 72 -62
75 -65 3 -3 26 -23 52 -43 36 -30 46 -45 46 -66 -1 -16 2 -33 6 -40 8 -12 74
-42 90 -40 5 0 12 -5 17 -12 4 -7 13 -13 21 -15 7 -1 36 -16 63 -33 27 -17 54
-31 60 -31 6 0 22 19 35 42 21 37 21 42 7 52 -9 6 -34 24 -56 39 l-40 28 4 57
c12 154 24 225 50 297 8 22 19 58 25 81 l10 41 75 -20 c44 -12 76 -26 76 -34
1 -7 2 -19 3 -25 3 -19 -14 -37 -28 -32 -8 3 -19 -9 -29 -33 -15 -38 -15 -38
9 -41 30 -4 30 -14 0 -77 -23 -46 -23 -51 -9 -68 15 -16 15 -20 -1 -55 -23
-47 -35 -86 -42 -137 -9 -66 -36 -149 -50 -158 -8 -4 -14 -13 -14 -19 0 -6
-11 -35 -25 -63 -13 -29 -27 -71 -31 -94 l-7 -41 431 0 c237 0 433 4 436 8 2
4 -4 27 -15 51 -10 24 -19 58 -19 75 0 18 -12 61 -26 97 -18 43 -26 81 -25
115 1 68 -38 172 -88 233 -42 51 -57 82 -38 78 16 -3 16 75 0 88 -7 6 -14 39
-15 74 l-3 65 60 23 c76 29 97 40 164 81 l53 33 25 -23 c14 -13 45 -50 68 -83
35 -49 44 -71 48 -115 5 -55 5 -55 -55 -129 l-60 -73 33 -34 34 -33 45 54 c25
30 54 54 65 55 11 0 36 21 55 45 19 25 40 45 47 45 7 0 15 11 19 25 3 14 9 25
13 25 15 0 28 45 21 71 -6 22 1 38 39 90 85 116 205 298 254 384 106 190 164
355 173 500 l5 80 -17 -40 c-98 -241 -212 -471 -285 -577 -11 -14 -19 -31 -19
-37 0 -6 -4 -11 -10 -11 -5 0 -10 -5 -10 -10 0 -9 -135 -213 -173 -261 -11
-14 -40 -17 -90 -10 -10 1 -77 107 -89 141 -9 26 -5 35 34 87 67 88 91 130 76
135 -7 2 -54 3 -105 2 -69 -2 -95 1 -104 12 -14 17 -5 44 16 44 9 0 29 10 45
22 25 18 33 20 55 10 14 -7 34 -12 43 -12 9 0 29 -14 44 -32 l27 -33 21 50
c58 134 84 352 58 488 l-11 57 -331 1 c-182 1 -322 3 -311 6 11 2 79 15 150
29 72 14 149 34 172 45 24 12 48 19 55 17 7 -3 23 8 36 23 33 40 85 48 123 20
19 -14 34 -19 44 -14 12 7 11 15 -8 54 -114 224 -339 403 -582 461 -22 5 -49
12 -60 15 -25 6 -260 14 -266 9z"/>
</g>
</svg>
