<svg width="1920" height="56" viewBox="0 0 1920 56" fill="none" xmlns="http://www.w3.org/2000/svg">
<g clip-path="url(#clip0_2082_413)">
<path opacity="0.4" fill-rule="evenodd" clip-rule="evenodd" d="M689.999 24.3504C707.429 19.455 731.767 14.2121 742.225 15.6358C750.498 16.7621 755.606 23.0175 760.706 29.2632C766.806 36.7325 772.894 44.1882 784.37 42.8412C794.513 41.6508 799.774 35.6472 805.096 29.5742C810.83 23.0302 816.635 16.4055 828.695 15.6358C839.104 14.9716 851.55 19.9564 865.253 25.4444C882.163 32.2169 900.986 39.7556 920.253 38.3894C937.577 37.161 947.372 30.9291 957.028 24.7854C966.813 18.5602 976.455 12.4255 993.644 11.6787C1009.61 10.9848 1017.16 16.9954 1025.13 23.3398C1034.2 30.5646 1043.82 38.2224 1067.03 36.9055C1090.61 35.568 1101.23 29.4567 1110.49 24.126C1118.35 19.5995 1125.23 15.6358 1138.25 15.6358C1150.65 15.6358 1154.98 19.6131 1159.58 23.8385C1165.49 29.2703 1171.85 35.1123 1196.38 33.443C1217.73 31.9896 1229.49 26.7402 1239.61 22.226C1250.16 17.5221 1258.91 13.6166 1274.85 15.6358C1291.52 17.7465 1295.37 24.7827 1298.75 30.9645C1301.71 36.3724 1304.31 41.1265 1314.82 41.3573C1326.53 41.6145 1331.76 35.1849 1336.94 28.8138C1341.73 22.932 1346.47 17.1 1356.24 16.6251C1358.54 16.5133 1360.77 16.73 1362.99 17.1973C1363 17.6232 1363 18.0574 1363 18.5C1364.97 18.5698 1366.84 18.6926 1368.62 18.8637C1372.24 20.2133 1375.96 22.0475 1379.98 24.0369C1386.95 27.4753 1394.85 31.3774 1404.85 34.042C1414.86 41.0351 1426.03 48.0983 1450.01 49.8056C1480.11 51.949 1497.8 43.4622 1511.84 36.7261C1520.86 32.4022 1528.37 28.7996 1536.69 29.1927C1546.91 29.6754 1551.87 35.603 1556.88 41.5812C1562.3 48.0568 1567.77 54.5918 1580.03 54.3304C1591.03 54.0958 1593.75 49.2638 1596.85 43.7672C1600.38 37.484 1604.41 30.3325 1621.85 28.1872C1638.54 26.1349 1647.7 30.1045 1658.73 34.8854C1669.32 39.4736 1681.63 44.8091 1703.97 46.2863C1729.63 47.983 1736.29 42.0452 1742.48 36.5244C1747.3 32.2297 1751.83 28.1872 1764.8 28.1872C1778.42 28.1872 1785.63 32.2159 1793.85 36.8166C1803.54 42.2347 1814.65 48.4462 1839.32 49.8056C1863.61 51.144 1873.68 43.3608 1883.17 36.0175C1891.51 29.5691 1899.41 23.46 1916.12 24.1652C1934.11 24.9243 1944.2 31.1595 1954.43 37.4868C1964.54 43.7312 1974.79 50.0653 1992.92 51.3139C2013.08 52.7024 2032.78 45.0402 2050.47 38.1566C2064.81 32.5787 2077.83 27.5121 2088.73 28.1872C2101.35 28.9695 2107.42 35.7028 2113.42 42.3541C2118.99 48.5267 2124.5 54.6287 2135.11 55.8386C2147.12 57.2076 2153.49 49.6298 2159.87 42.038C2165.21 35.6898 2170.55 29.332 2179.21 28.1872C2194.42 26.1762 2224.07 35.7285 2237 40.7561V-0.972469L1527 -5.03339V-18L687 -13.0536L684.84 -5.98464L-20 -0.972469V40.7561C-9.60294 35.7285 14.2491 26.1762 26.481 28.1872C33.4438 29.332 37.7432 35.6899 42.036 42.038C47.1697 49.6298 52.2941 57.2076 61.9533 55.8386C70.4902 54.6287 74.9181 48.5267 79.3971 42.3541C84.2236 35.7028 89.1096 28.9695 99.2604 28.1872C108.021 27.5121 118.496 32.5787 130.03 38.1566C144.262 45.0401 160.105 52.7024 176.321 51.3139C190.902 50.0653 199.146 43.7312 207.274 37.4868C215.509 31.1595 223.625 24.9243 238.092 24.1652C251.532 23.46 257.885 29.5691 264.592 36.0175C272.229 43.3608 280.324 51.144 299.862 49.8056C319.707 48.4462 328.641 42.2347 336.434 36.8166C343.051 32.2159 348.845 28.1872 359.798 28.1872C370.235 28.1872 373.88 32.2297 377.753 36.5244C382.732 42.0452 388.086 47.983 408.726 46.2863C426.696 44.8091 436.599 39.4736 445.116 34.8854C453.99 30.1045 461.358 26.1349 474.778 28.1872C488.805 30.3325 492.044 37.484 494.89 43.7672C497.38 49.2638 499.569 54.0958 508.415 54.3304C518.273 54.5918 522.675 48.0568 527.037 41.5812C531.063 35.603 535.056 29.6754 543.276 29.1927C549.971 28.7996 556.011 32.4022 563.261 36.7261C574.556 43.4622 588.785 51.949 612.997 49.8056C635.596 47.805 646.722 42.3248 658.177 36.6817C666.873 32.3981 675.76 28.0207 690 25C690 24.7819 690 24.5654 689.999 24.3504Z" fill="#C9E8FB"/>
</g>
<defs>
<clipPath id="clip0_2082_413">
<rect width="1920" height="56" fill="white"/>
</clipPath>
</defs>
</svg>
