<svg width="1920" height="74" viewBox="0 0 1920 74" fill="none" xmlns="http://www.w3.org/2000/svg">
<g clip-path="url(#clip0_1557_426)">
<rect width="1920" height="6690" transform="translate(0 -1227)" fill="white"/>
<ellipse rx="1331.5" ry="1334.75" transform="matrix(1 0 0 -1 960.5 455.75)" fill="#FFF2D6"/>
<rect x="-298" y="22" width="2676" height="1967" fill="white"/>
<path d="M-132.519 46.1872C-144.751 44.1762 -168.603 53.7285 -179 58.7561V17.0275L528 12C528 13.3407 531 18.8678 531 43C498 50 493.751 64.2863 453.997 67.8056C414.244 71.3249 401.401 46.1872 384.276 47.1927C367.151 48.1982 368.375 72.8331 349.415 72.3304C330.456 71.8276 342.076 50.2092 315.778 46.1872C289.479 42.1652 286.421 61.2698 249.726 64.2863C213.03 67.3028 224.651 46.1872 200.798 46.1872C176.946 46.1872 177.558 65.2918 140.862 67.8056C104.167 70.3194 107.837 40.6569 79.0917 42.1652C50.3469 43.6735 46.6773 66.8001 17.3209 69.3139C-12.0355 71.8276 -40.1687 44.679 -59.7396 46.1872C-79.3105 47.6955 -79.3106 71.3249 -97.0467 73.8386C-114.783 76.3524 -117.229 48.701 -132.519 46.1872Z" fill="#FFF2D6"/>
<path d="M2020.21 46.1872C2035.42 44.1762 2065.07 53.7285 2078 58.7561V17.0275L1199 12C1199 13.3407 1204 12.3678 1204 36.5C1246.58 38.0083 1241.58 64.2863 1291.01 67.8056C1340.43 71.3249 1356.4 46.1872 1377.69 47.1927C1398.98 48.1982 1397.46 72.8331 1421.03 72.3304C1444.6 71.8276 1430.16 50.2092 1462.85 46.1872C1495.55 42.1652 1499.35 61.2698 1544.97 64.2863C1590.6 67.3028 1576.15 46.1872 1605.8 46.1872C1635.46 46.1872 1634.7 65.2918 1680.32 67.8056C1725.94 70.3194 1721.38 40.6569 1757.12 42.1652C1792.86 43.6735 1797.42 66.8001 1833.92 69.3139C1870.42 71.8276 1905.39 44.679 1929.73 46.1872C1954.06 47.6955 1954.06 71.3249 1976.11 73.8386C1998.16 76.3524 2001.2 48.701 2020.21 46.1872Z" fill="#FFF2D6"/>
<path d="M583.225 33.6358C568.692 31.6573 527.353 42.5536 515 47.5L528 4.94644L1368 0V33.6358C1327.31 35.1198 1327.31 51.443 1280.08 54.9055C1232.84 58.368 1217.58 33.6358 1197.24 34.6251C1176.89 35.6144 1178.35 59.852 1155.82 59.3573C1133.29 58.8627 1147.1 37.593 1115.85 33.6358C1084.61 29.6787 1080.98 48.4751 1037.38 51.443C993.779 54.4109 1007.58 33.6358 979.246 33.6358C950.907 33.6358 951.633 52.4323 908.035 54.9055C864.436 57.3787 868.796 28.1947 834.644 29.6787C800.491 31.1626 796.132 53.9162 761.253 56.3894C726.374 58.8627 692.948 32.1519 669.696 33.6358C646.443 35.1198 646.443 58.368 625.37 60.8412C604.298 63.3145 601.391 36.1091 583.225 33.6358Z" fill="#FFF2D6"/>
</g>
<defs>
<clipPath id="clip0_1557_426">
<rect width="1920" height="6690" fill="white" transform="translate(0 -1227)"/>
</clipPath>
</defs>
</svg>
