<svg width="37" height="36" viewBox="0 0 37 36" fill="none" xmlns="http://www.w3.org/2000/svg">
<rect x="2.53516" y="2" width="32" height="32" rx="8" fill="#282828"/>
<path d="M26.5352 16.2816C26.3827 16.2964 26.2289 16.3032 26.0765 16.3045C25.2467 16.3055 24.4298 16.1075 23.6995 15.7282C22.9692 15.349 22.3485 14.8005 21.8936 14.1323V21.5297C21.8939 22.6115 21.561 23.669 20.9371 24.5686C20.3131 25.4682 19.4262 26.1693 18.3884 26.5834C17.3506 26.9975 16.2086 27.106 15.1068 26.895C14.005 26.684 12.9929 26.1631 12.1986 25.3982C11.4042 24.6333 10.8633 23.6587 10.6442 22.5977C10.4251 21.5367 10.5377 20.4369 10.9677 19.4375C11.3978 18.4382 12.1259 17.5841 13.06 16.9832C13.9942 16.3824 15.0924 16.0618 16.2158 16.0621C16.3347 16.0621 16.4493 16.0729 16.5668 16.0796V18.773C16.1755 18.7274 15.7787 18.7593 15.4007 18.8667C15.0227 18.9742 14.6715 19.155 14.3687 19.3979C14.066 19.6409 13.818 19.9409 13.64 20.2795C13.462 20.6182 13.3579 20.9883 13.3339 21.3671C13.3099 21.746 13.3667 22.1255 13.5006 22.4825C13.6345 22.8394 13.8429 23.1662 14.1128 23.4428C14.3827 23.7193 14.7085 23.9398 15.0701 24.0907C15.4318 24.2416 15.8217 24.3196 16.2158 24.3201C16.9936 24.3336 17.7458 24.0527 18.3107 23.5377C18.8756 23.0226 19.208 22.3147 19.2365 21.5661L19.2645 9H21.9412C22.0634 10.1197 22.5905 11.1624 23.4303 11.9458C24.27 12.7291 25.3691 13.2032 26.5352 13.2852V16.2816Z" fill="#FFF2D6"/>
</svg>
