<svg width="37" height="36" viewBox="0 0 37 36" fill="none" xmlns="http://www.w3.org/2000/svg">
<path d="M18.5352 2C22.8824 2 23.4248 2.016 25.1304 2.096C26.8344 2.176 27.9944 2.4432 29.0152 2.84C30.0712 3.2464 30.9608 3.7968 31.8504 4.6848C32.6639 5.48463 33.2935 6.45214 33.6952 7.52C34.0904 8.5392 34.3592 9.7008 34.4392 11.4048C34.5144 13.1104 34.5352 13.6528 34.5352 18C34.5352 22.3472 34.5192 22.8896 34.4392 24.5952C34.3592 26.2992 34.0904 27.4592 33.6952 28.48C33.2946 29.5484 32.665 30.5162 31.8504 31.3152C31.0503 32.1285 30.0828 32.758 29.0152 33.16C27.996 33.5552 26.8344 33.824 25.1304 33.904C23.4248 33.9792 22.8824 34 18.5352 34C14.188 34 13.6456 33.984 11.94 33.904C10.236 33.824 9.07596 33.5552 8.05516 33.16C6.98688 32.7592 6.0192 32.1295 5.21996 31.3152C4.40621 30.5155 3.77665 29.548 3.37516 28.48C2.97836 27.4608 2.71116 26.2992 2.63116 24.5952C2.55596 22.8896 2.53516 22.3472 2.53516 18C2.53516 13.6528 2.55116 13.1104 2.63116 11.4048C2.71116 9.6992 2.97836 8.5408 3.37516 7.52C3.77553 6.45149 4.40524 5.48371 5.21996 4.6848C6.01943 3.87077 6.98704 3.24117 8.05516 2.84C9.07596 2.4432 10.2344 2.176 11.94 2.096C13.6456 2.0208 14.188 2 18.5352 2ZM18.5352 10C16.4134 10 14.3786 10.8429 12.8783 12.3431C11.378 13.8434 10.5352 15.8783 10.5352 18C10.5352 20.1217 11.378 22.1566 12.8783 23.6569C14.3786 25.1571 16.4134 26 18.5352 26C20.6569 26 22.6917 25.1571 24.192 23.6569C25.6923 22.1566 26.5352 20.1217 26.5352 18C26.5352 15.8783 25.6923 13.8434 24.192 12.3431C22.6917 10.8429 20.6569 10 18.5352 10ZM28.9352 9.6C28.9352 9.06957 28.7244 8.56086 28.3494 8.18579C27.9743 7.81071 27.4656 7.6 26.9352 7.6C26.4047 7.6 25.896 7.81071 25.5209 8.18579C25.1459 8.56086 24.9352 9.06957 24.9352 9.6C24.9352 10.1304 25.1459 10.6391 25.5209 11.0142C25.896 11.3893 26.4047 11.6 26.9352 11.6C27.4656 11.6 27.9743 11.3893 28.3494 11.0142C28.7244 10.6391 28.9352 10.1304 28.9352 9.6ZM18.5352 13.2C19.8082 13.2 21.0291 13.7057 21.9293 14.6059C22.8294 15.5061 23.3352 16.727 23.3352 18C23.3352 19.273 22.8294 20.4939 21.9293 21.3941C21.0291 22.2943 19.8082 22.8 18.5352 22.8C17.2621 22.8 16.0412 22.2943 15.141 21.3941C14.2409 20.4939 13.7352 19.273 13.7352 18C13.7352 16.727 14.2409 15.5061 15.141 14.6059C16.0412 13.7057 17.2621 13.2 18.5352 13.2Z" fill="#DB2C6E"/>
</svg>
