<svg width="1549" height="792" viewBox="0 0 1549 792" fill="none" xmlns="http://www.w3.org/2000/svg">
<mask id="mask0_1831_289" style="mask-type:alpha" maskUnits="userSpaceOnUse" x="0" y="-399" width="1549" height="1549">
<circle cx="774.5" cy="375.5" r="774.5" fill="#D9D9D9"/>
</mask>
<g mask="url(#mask0_1831_289)">
<rect x="-197.496" y="101.071" width="1962" height="465" transform="rotate(3.28562 -197.496 101.071)" fill="#FFF2D6"/>
<path d="M-325.002 585.742C-337.099 583.034 -361.459 591.203 -372.127 595.626L-369.735 553.967L336.391 589.468C336.314 590.806 338.992 596.496 337.609 620.589C304.262 625.686 299.201 639.705 259.311 640.94C219.421 642.175 208.04 616.343 190.886 616.365C173.732 616.388 173.541 641.052 154.642 639.464C135.742 637.875 148.582 616.958 122.558 611.436C96.533 605.913 92.3851 624.811 55.5771 625.719C18.769 626.628 31.5803 606.213 7.76747 604.846C-16.0454 603.479 -16.5298 622.587 -53.309 622.994C-90.0883 623.4 -84.7247 593.997 -113.509 593.855C-142.293 593.713 -147.282 616.592 -176.734 617.419C-206.186 618.246 -232.717 589.529 -252.342 589.914C-271.968 590.298 -273.322 613.888 -291.173 615.381C-309.024 616.874 -309.882 589.128 -325.002 585.742Z" fill="#FFF2D6"/>
<path d="M1824.19 709.123C1839.49 707.987 1868.54 719.223 1881.16 724.983L1883.55 683.323L1006.29 627.925C1006.21 629.264 1011.26 628.579 1009.87 652.672C1052.3 656.618 1045.8 682.566 1094.94 688.912C1144.08 695.258 1161.47 671.077 1182.67 673.301C1203.86 675.525 1200.93 700.033 1224.5 700.882C1248.06 701.731 1234.87 679.32 1267.75 677.179C1300.62 675.037 1303.32 694.328 1348.69 699.954C1394.07 705.581 1380.86 683.672 1410.46 685.372C1440.07 687.071 1438.21 706.101 1483.62 711.225C1529.02 716.35 1526.17 686.475 1561.76 690.029C1597.35 693.583 1600.58 716.933 1636.88 721.534C1673.17 726.136 1709.65 701.036 1733.85 703.937C1758.06 706.837 1756.7 730.428 1778.57 734.201C1800.44 737.974 1805.07 710.543 1824.19 709.123Z" fill="#FFF2D6"/>
<path d="M390.285 614.233C375.889 611.425 333.993 619.934 321.377 624.164L336.795 582.426L1175.7 625.631L1173.77 659.211C1133.06 658.36 1132.12 674.657 1084.77 675.407C1037.42 676.156 1023.6 650.59 1003.23 650.412C982.863 650.233 982.925 674.514 960.464 672.73C938.004 670.945 953.006 650.501 922.039 644.76C891.071 639.018 886.367 657.576 842.67 658.04C798.973 658.504 813.947 638.554 785.654 636.93C757.362 635.306 757.01 654.113 713.341 654.084C669.673 654.054 675.698 625.168 641.517 624.692C607.336 624.216 601.679 646.682 566.716 647.153C531.752 647.623 499.912 619.04 476.613 619.189C453.314 619.338 451.981 642.548 430.801 643.809C409.622 645.071 408.279 617.743 390.285 614.233Z" fill="#FFF2D6"/>
<path d="M-295.411 70.2165C-307.738 71.5232 -331.004 60.6195 -341.096 55.0044L-343.487 96.6643L362.062 142.204C362.139 140.866 365.451 135.52 366.834 111.427C334.29 102.547 330.866 88.0409 291.38 82.249C251.894 76.4571 237.63 100.817 220.592 98.832C203.553 96.8467 206.186 72.3224 187.229 71.7377C168.272 71.153 178.634 93.4018 152.148 95.91C125.663 98.4181 123.705 79.1697 87.2424 74.055C50.7801 68.9403 61.171 90.6871 37.3581 89.3201C13.5453 87.9531 15.2508 68.9149 -21.2403 64.3021C-57.7314 59.6894 -55.7679 89.5134 -84.3791 86.3601C-112.99 83.2069 -115.328 59.9079 -144.492 55.7158C-173.656 51.5236 -203.299 77.0153 -222.752 74.3878C-242.204 71.7603 -240.85 48.1698 -258.413 44.6436C-275.976 41.1175 -280.003 68.5832 -295.411 70.2165Z" fill="#FFF2D6"/>
<path d="M1853.78 193.597C1868.85 196.476 1899 188.639 1912.19 184.361L1909.8 226.021L1031.96 180.662C1032.04 179.323 1036.97 180.581 1038.36 156.488C1080.95 157.423 1077.47 130.902 1127.01 130.221C1176.56 129.54 1191.06 155.552 1212.37 155.768C1233.69 155.984 1233.58 131.303 1257.08 133.156C1280.59 135.009 1264.93 155.763 1297.34 161.653C1329.75 167.542 1334.64 148.687 1380.36 148.29C1426.08 147.893 1410.45 168.146 1440.05 169.846C1469.66 171.545 1470 152.429 1515.69 152.534C1561.38 152.639 1555.12 181.991 1590.89 182.534C1626.66 183.076 1632.54 160.249 1669.12 159.831C1705.7 159.413 1739.06 188.522 1763.44 188.411C1787.82 188.3 1789.18 164.709 1811.34 163.463C1833.49 162.218 1834.95 189.998 1853.78 193.597Z" fill="#FFF2D6"/>
<path d="M418.437 123.769C403.815 124.912 363.168 111.664 351.119 106.018L361.659 149.246L1199.99 202.328L1201.92 168.747C1161.38 164.934 1162.32 148.637 1115.36 142.473C1068.41 136.309 1051.75 160.126 1031.5 157.973C1011.24 155.819 1014.08 131.705 991.565 130.907C969.048 130.11 981.612 152.136 950.191 154.296C918.77 156.456 916.22 137.482 872.863 132.02C829.507 126.558 842.099 148.091 813.807 146.466C785.514 144.842 787.317 126.118 743.932 121.15C700.547 116.182 703.227 145.568 669.216 142.129C635.205 138.691 632.156 115.724 597.476 111.256C562.796 106.788 527.895 131.539 504.765 128.725C481.636 125.911 482.969 102.701 462.072 99.0239C441.176 95.347 436.715 122.341 418.437 123.769Z" fill="#FFF2D6"/>
</g>
<circle cx="1397" cy="397" r="60" fill="white"/>
<circle cx="1163" cy="514" r="41" fill="white"/>
<circle cx="468.5" cy="321.5" r="32.5" fill="white"/>
<circle cx="1339" cy="586" r="18" fill="white"/>
<circle cx="448.5" cy="249.5" r="16.5" fill="white"/>
<circle cx="112.5" cy="440.5" r="24.5" fill="white"/>
<circle cx="163" cy="513" r="32" fill="white"/>
</svg>
