<svg width="37" height="36" viewBox="0 0 37 36" fill="none" xmlns="http://www.w3.org/2000/svg">
<path d="M18.5352 33.75C9.83643 33.75 2.78516 26.6987 2.78516 18C2.78516 9.30128 9.83643 2.25 18.5352 2.25C27.2339 2.25 34.2852 9.30128 34.2852 18C34.2852 26.6987 27.2339 33.75 18.5352 33.75ZM13.6369 19.8428L13.6574 19.8317L15.0276 24.352C15.204 24.8418 15.4466 24.93 15.7411 24.889C16.0372 24.8497 16.1931 24.6906 16.3869 24.5047L18.258 22.6967L22.2742 25.6703C23.0082 26.075 23.5358 25.8655 23.7185 24.9899L26.3283 12.6702C26.6165 11.5236 26.1125 11.0637 25.2226 11.4291L9.89313 17.3511C8.84733 17.7701 8.85363 18.3559 9.70413 18.6158L13.6369 19.8443V19.8428Z" fill="#269ACC"/>
</svg>
