<svg width="36" height="36" viewBox="0 0 36 36" fill="none" xmlns="http://www.w3.org/2000/svg">
<path fill-rule="evenodd" clip-rule="evenodd" d="M10 2C5.58172 2 2 5.58172 2 10V26C2 30.4183 5.58172 34 10 34H26C30.4183 34 34 30.4183 34 26V10C34 5.58172 30.4183 2 26 2H10ZM25.5413 16.3045C25.6937 16.3032 25.8476 16.2964 26 16.2816V13.2852C24.8339 13.2032 23.7349 12.7291 22.8951 11.9458C22.0553 11.1624 21.5282 10.1197 21.406 9H18.7293L18.7013 21.5661C18.6729 22.3147 18.3405 23.0226 17.7756 23.5376C17.2107 24.0527 16.4584 24.3336 15.6806 24.3201C15.2865 24.3196 14.8966 24.2416 14.535 24.0907C14.1733 23.9398 13.8475 23.7193 13.5776 23.4428C13.3077 23.1662 13.0994 22.8394 12.9654 22.4825C12.8315 22.1255 12.7748 21.746 12.7987 21.3671C12.8227 20.9883 12.9269 20.6182 13.1048 20.2795C13.2828 19.9409 13.5308 19.6409 13.8336 19.3979C14.1364 19.155 14.4876 18.9742 14.8656 18.8667C15.2436 18.7593 15.6404 18.7274 16.0316 18.773V16.0796C15.9991 16.0777 15.9669 16.0756 15.9347 16.0734C15.8504 16.0677 15.7666 16.0621 15.6806 16.0621C14.5573 16.0618 13.459 16.3824 12.5249 16.9832C11.5907 17.5841 10.8626 18.4382 10.4326 19.4375C10.0026 20.4369 9.88997 21.5367 10.1091 22.5977C10.3281 23.6587 10.8691 24.6333 11.6634 25.3982C12.4577 26.1631 13.4698 26.684 14.5716 26.895C15.6734 27.106 16.8154 26.9975 17.8532 26.5834C18.891 26.1693 19.778 25.4682 20.4019 24.5686C21.0258 23.669 21.3587 22.6115 21.3584 21.5297V14.1323C21.8134 14.8005 22.4341 15.349 23.1644 15.7282C23.8947 16.1075 24.7116 16.3055 25.5413 16.3045Z" fill="#282828"/>
</svg>
